M48
; DRILL file {KiCad (6.0.1)} date Sat 12 Mar 2022 11:59:37 PM MST
; FORMAT={-:-/ absolute / inch / decimal}
; #@! TF.CreationDate,2022-03-12T23:59:37-07:00
; #@! TF.GenerationSoftware,Kicad,Pcbnew,(6.0.1)
; #@! TF.FileFunction,Plated,1,4,PTH
FMAT,2
INCH
; #@! TA.AperFunction,Plated,PTH,ComponentDrill
T1C0.0138
; #@! TA.AperFunction,Plated,PTH,ViaDrill
T2C0.0157
; #@! TA.AperFunction,Plated,PTH,ComponentDrill
T3C0.0354
; #@! TA.AperFunction,Plated,PTH,ComponentDrill
T4C0.0374
; #@! TA.AperFunction,Plated,PTH,ComponentDrill
T5C0.0394
; #@! TA.AperFunction,Plated,PTH,ComponentDrill
T6C0.1063
%
G90
G05
T1
X4.7223Y-3.5967
X4.7223Y-3.6833
X4.7538Y-3.5967
X4.7538Y-3.6833
X4.8077Y-3.575
X4.8081Y-3.6597
X4.8455Y-3.575
X4.8459Y-3.6597
X4.8833Y-3.5743
X4.8837Y-3.6589
T2
X4.3898Y-3.66
X4.3898Y-3.72
X4.3898Y-4.0551
X4.3898Y-4.1535
X4.3898Y-4.2717
X4.3898Y-4.4783
X4.39Y-3.8031
X4.41Y-3.96
X4.4252Y-3.6063
X4.4331Y-3.4882
X4.439Y-4.0551
X4.439Y-4.4783
X4.439Y-4.61
X4.4437Y-3.7402
X4.4488Y-3.8031
X4.46Y-3.96
X4.4724Y-3.5748
X4.4724Y-3.6535
X4.498Y-4.0551
X4.5118Y-3.7402
X4.5118Y-3.8031
X4.52Y-3.96
X4.5433Y-3.6772
X4.5472Y-4.25
X4.5472Y-4.2913
X4.5512Y-3.3858
X4.5512Y-3.4882
X4.5571Y-4.0551
X4.5571Y-4.1043
X4.5571Y-4.1535
X4.5571Y-4.38
X4.5571Y-4.4587
X4.5571Y-4.61
X4.57Y-3.55
X4.58Y-3.6
X4.64Y-3.48
X4.65Y-3.79
X4.6772Y-3.5354
X4.689Y-3.128
X4.689Y-3.188
X4.6892Y-3.248
X4.6892Y-3.298
X4.6982Y-3.5
X4.7Y-3.79
X4.7Y-3.91
X4.7047Y-4.4685
X4.74Y-3.45
X4.748Y-3.188
X4.7492Y-3.128
X4.7492Y-3.248
X4.7492Y-3.298
X4.7539Y-4.47
X4.78Y-4.61
X4.8Y-3.39
X4.8031Y-4.0157
X4.8071Y-3.1294
X4.8071Y-3.1885
X4.84Y-3.79
X4.8622Y-4.0157
X4.872Y-4.4685
X4.89Y-3.79
X4.93Y-3.46
X4.9311Y-4.61
X4.9606Y-4.4685
X4.9606Y-4.5079
X4.9803Y-3.6417
X4.9803Y-3.6791
X4.9803Y-3.8976
X4.998Y-4.2185
X5.0197Y-3.8976
X5.0394Y-3.5827
X5.0394Y-3.6398
X5.0394Y-3.6791
X5.05Y-3.96
X5.0551Y-3.4724
X5.063Y-3.7402
X5.07Y-4.0
X5.07Y-4.36
X5.0787Y-3.7992
X5.09Y-3.96
X5.0984Y-3.5827
X5.0984Y-3.6358
X5.1024Y-3.7402
X5.11Y-4.0
X5.1181Y-3.4724
X5.13Y-3.96
X5.1378Y-3.7402
X5.1378Y-3.7992
X5.1496Y-4.2283
X5.15Y-4.32
X5.1575Y-3.5827
X5.17Y-4.35
X5.1807Y-4.0709
X5.1811Y-3.4724
X5.19Y-4.32
X5.2119Y-4.1002
X5.2165Y-3.5827
X5.2165Y-3.6614
X5.2205Y-3.7972
X5.2234Y-3.9193
X5.2326Y-4.1886
X5.2367Y-4.2307
X5.2441Y-3.4724
X5.2596Y-4.0083
X5.26Y-4.55
X5.2697Y-3.0787
X5.2697Y-3.1287
X5.2697Y-3.1787
X5.2756Y-3.5827
X5.2756Y-3.6614
X5.28Y-4.59
X5.2869Y-4.2766
X5.3Y-4.55
X5.3071Y-3.4724
X5.312Y-3.8297
X5.33Y-4.59
X5.3307Y-4.2677
X5.3346Y-3.5827
X5.3346Y-3.6614
X5.34Y-4.55
X5.3443Y-4.0329
X5.3593Y-3.9596
X5.3701Y-4.2677
X5.374Y-3.4646
X5.374Y-3.5236
X5.38Y-4.55
X5.38Y-4.59
X5.4205Y-4.4783
X5.4252Y-3.7254
X5.43Y-3.4
X5.43Y-4.55
X5.43Y-4.59
X5.4305Y-4.4383
X5.4341Y-3.813
X5.4449Y-4.0098
X5.4518Y-4.0729
X5.4705Y-4.4383
X5.4705Y-4.4783
X5.48Y-3.4
X5.4813Y-3.5679
X5.4843Y-4.5906
X5.49Y-4.082
X5.5138Y-3.6033
X5.53Y-3.4
X5.58Y-3.4
X5.5803Y-4.4913
X5.5807Y-3.9173
X5.5807Y-4.1929
X5.5807Y-4.2815
X5.5807Y-4.4094
X5.5827Y-3.4567
X5.5865Y-4.0012
X5.5865Y-4.0898
X5.6618Y-3.3996
X5.6811Y-3.6486
X5.6892Y-3.6871
X5.7034Y-3.6032
X5.7118Y-3.3996
X5.7559Y-3.5138
X5.7618Y-3.3996
X5.7687Y-3.7913
X5.8031Y-3.7343
X5.8118Y-3.3996
X5.8169Y-3.4843
X5.876Y-3.3957
X5.876Y-3.4843
X5.876Y-3.7343
X5.88Y-3.79
T3
X4.9719Y-3.3701
X5.1719Y-3.3701
X5.3006Y-3.2717
X5.5006Y-3.2717
T4
X5.8122Y-3.9355
X5.8122Y-4.0339
X5.8122Y-4.1323
X5.8122Y-4.2307
X5.8122Y-4.3292
X5.8122Y-4.4276
X5.8122Y-4.526
T5
X4.4508Y-4.5407
X4.4693Y-4.1508
X4.4693Y-4.2492
X4.5492Y-4.5407
X4.7874Y-4.5384
X4.8858Y-4.5384
X5.0059Y-3.1407
X5.1043Y-3.1407
X5.4116Y-3.15
X5.51Y-3.15
X5.8396Y-3.564
X5.8396Y-3.6624
T6
X4.53Y-3.245
X5.12Y-4.49
X5.75Y-3.245
T0
M30
