G04 #@! TF.GenerationSoftware,KiCad,Pcbnew,(6.0.1)*
G04 #@! TF.CreationDate,2022-02-16T22:07:23-07:00*
G04 #@! TF.ProjectId,MinesRobotics_PDB,4d696e65-7352-46f6-926f-746963735f50,rev?*
G04 #@! TF.SameCoordinates,Original*
G04 #@! TF.FileFunction,AssemblyDrawing,Top*
%FSLAX46Y46*%
G04 Gerber Fmt 4.6, Leading zero omitted, Abs format (unit mm)*
G04 Created by KiCad (PCBNEW (6.0.1)) date 2022-02-16 22:07:23*
%MOMM*%
%LPD*%
G01*
G04 APERTURE LIST*
G04 #@! TA.AperFunction,Profile*
%ADD10C,0.150000*%
G04 #@! TD*
%ADD11C,0.150000*%
%ADD12C,0.080000*%
%ADD13C,0.100000*%
G04 APERTURE END LIST*
D10*
X181229000Y-126746000D02*
G75*
G03*
X182372000Y-125603000I0J1143000D01*
G01*
X82423000Y-50800000D02*
G75*
G03*
X81280000Y-51943000I0J-1143000D01*
G01*
X181229000Y-50800000D02*
X82423000Y-50800000D01*
X82423000Y-126746000D02*
X181229000Y-126746000D01*
X81280000Y-51943000D02*
X81280000Y-125603000D01*
X182372000Y-51943000D02*
G75*
G03*
X181229000Y-50800000I-1143000J0D01*
G01*
X81280000Y-125603000D02*
G75*
G03*
X82423000Y-126746000I1143000J0D01*
G01*
X182372000Y-125603000D02*
X182372000Y-51943000D01*
D11*
X102108095Y-70302380D02*
X102108095Y-69302380D01*
X102108095Y-69778571D02*
X102679523Y-69778571D01*
X102679523Y-70302380D02*
X102679523Y-69302380D01*
X103679523Y-70302380D02*
X103108095Y-70302380D01*
X103393809Y-70302380D02*
X103393809Y-69302380D01*
X103298571Y-69445238D01*
X103203333Y-69540476D01*
X103108095Y-69588095D01*
X120011866Y-64088971D02*
X119678533Y-64088971D01*
X119678533Y-64612780D02*
X119678533Y-63612780D01*
X120154723Y-63612780D01*
X120440438Y-63612780D02*
X121059485Y-63612780D01*
X120726152Y-63993733D01*
X120869009Y-63993733D01*
X120964247Y-64041352D01*
X121011866Y-64088971D01*
X121059485Y-64184209D01*
X121059485Y-64422304D01*
X121011866Y-64517542D01*
X120964247Y-64565161D01*
X120869009Y-64612780D01*
X120583295Y-64612780D01*
X120488057Y-64565161D01*
X120440438Y-64517542D01*
X108878761Y-70174380D02*
X108307333Y-70174380D01*
X108593047Y-70174380D02*
X108593047Y-69174380D01*
X108497809Y-69317238D01*
X108402571Y-69412476D01*
X108307333Y-69460095D01*
X109497809Y-69174380D02*
X109593047Y-69174380D01*
X109688285Y-69222000D01*
X109735904Y-69269619D01*
X109783523Y-69364857D01*
X109831142Y-69555333D01*
X109831142Y-69793428D01*
X109783523Y-69983904D01*
X109735904Y-70079142D01*
X109688285Y-70126761D01*
X109593047Y-70174380D01*
X109497809Y-70174380D01*
X109402571Y-70126761D01*
X109354952Y-70079142D01*
X109307333Y-69983904D01*
X109259714Y-69793428D01*
X109259714Y-69555333D01*
X109307333Y-69364857D01*
X109354952Y-69269619D01*
X109402571Y-69222000D01*
X109497809Y-69174380D01*
X110259714Y-70174380D02*
X110259714Y-69174380D01*
X110354952Y-69793428D02*
X110640666Y-70174380D01*
X110640666Y-69507714D02*
X110259714Y-69888666D01*
D12*
X109390666Y-68298190D02*
X109224000Y-68060095D01*
X109104952Y-68298190D02*
X109104952Y-67798190D01*
X109295428Y-67798190D01*
X109343047Y-67822000D01*
X109366857Y-67845809D01*
X109390666Y-67893428D01*
X109390666Y-67964857D01*
X109366857Y-68012476D01*
X109343047Y-68036285D01*
X109295428Y-68060095D01*
X109104952Y-68060095D01*
X109843047Y-67798190D02*
X109604952Y-67798190D01*
X109581142Y-68036285D01*
X109604952Y-68012476D01*
X109652571Y-67988666D01*
X109771619Y-67988666D01*
X109819238Y-68012476D01*
X109843047Y-68036285D01*
X109866857Y-68083904D01*
X109866857Y-68202952D01*
X109843047Y-68250571D01*
X109819238Y-68274380D01*
X109771619Y-68298190D01*
X109652571Y-68298190D01*
X109604952Y-68274380D01*
X109581142Y-68250571D01*
D11*
X163242666Y-62920571D02*
X162909333Y-62920571D01*
X162909333Y-63444380D02*
X162909333Y-62444380D01*
X163385523Y-62444380D01*
X163718857Y-62539619D02*
X163766476Y-62492000D01*
X163861714Y-62444380D01*
X164099809Y-62444380D01*
X164195047Y-62492000D01*
X164242666Y-62539619D01*
X164290285Y-62634857D01*
X164290285Y-62730095D01*
X164242666Y-62872952D01*
X163671238Y-63444380D01*
X164290285Y-63444380D01*
X153234380Y-79850857D02*
X153234380Y-80327047D01*
X152234380Y-80327047D01*
X152710571Y-79517523D02*
X152710571Y-79184190D01*
X153234380Y-79041333D02*
X153234380Y-79517523D01*
X152234380Y-79517523D01*
X152234380Y-79041333D01*
X153234380Y-78612761D02*
X152234380Y-78612761D01*
X152234380Y-78374666D01*
X152282000Y-78231809D01*
X152377238Y-78136571D01*
X152472476Y-78088952D01*
X152662952Y-78041333D01*
X152805809Y-78041333D01*
X152996285Y-78088952D01*
X153091523Y-78136571D01*
X153186761Y-78231809D01*
X153234380Y-78374666D01*
X153234380Y-78612761D01*
X153329619Y-77850857D02*
X153329619Y-77088952D01*
X153186761Y-76898476D02*
X153234380Y-76755619D01*
X153234380Y-76517523D01*
X153186761Y-76422285D01*
X153139142Y-76374666D01*
X153043904Y-76327047D01*
X152948666Y-76327047D01*
X152853428Y-76374666D01*
X152805809Y-76422285D01*
X152758190Y-76517523D01*
X152710571Y-76708000D01*
X152662952Y-76803238D01*
X152615333Y-76850857D01*
X152520095Y-76898476D01*
X152424857Y-76898476D01*
X152329619Y-76850857D01*
X152282000Y-76803238D01*
X152234380Y-76708000D01*
X152234380Y-76469904D01*
X152282000Y-76327047D01*
X153234380Y-75898476D02*
X152567714Y-75898476D01*
X152662952Y-75898476D02*
X152615333Y-75850857D01*
X152567714Y-75755619D01*
X152567714Y-75612761D01*
X152615333Y-75517523D01*
X152710571Y-75469904D01*
X153234380Y-75469904D01*
X152710571Y-75469904D02*
X152615333Y-75422285D01*
X152567714Y-75327047D01*
X152567714Y-75184190D01*
X152615333Y-75088952D01*
X152710571Y-75041333D01*
X153234380Y-75041333D01*
X153234380Y-74136571D02*
X152710571Y-74136571D01*
X152615333Y-74184190D01*
X152567714Y-74279428D01*
X152567714Y-74469904D01*
X152615333Y-74565142D01*
X153186761Y-74136571D02*
X153234380Y-74231809D01*
X153234380Y-74469904D01*
X153186761Y-74565142D01*
X153091523Y-74612761D01*
X152996285Y-74612761D01*
X152901047Y-74565142D01*
X152853428Y-74469904D01*
X152853428Y-74231809D01*
X152805809Y-74136571D01*
X153234380Y-73517523D02*
X153186761Y-73612761D01*
X153091523Y-73660380D01*
X152234380Y-73660380D01*
X153234380Y-72993714D02*
X153186761Y-73088952D01*
X153091523Y-73136571D01*
X152234380Y-73136571D01*
D12*
X154658190Y-77077047D02*
X154158190Y-77077047D01*
X154158190Y-76958000D01*
X154182000Y-76886571D01*
X154229619Y-76838952D01*
X154277238Y-76815142D01*
X154372476Y-76791333D01*
X154443904Y-76791333D01*
X154539142Y-76815142D01*
X154586761Y-76838952D01*
X154634380Y-76886571D01*
X154658190Y-76958000D01*
X154658190Y-77077047D01*
X154158190Y-76624666D02*
X154158190Y-76291333D01*
X154658190Y-76505619D01*
D11*
X163190476Y-84428571D02*
X162857142Y-84428571D01*
X162857142Y-84952380D02*
X162857142Y-83952380D01*
X163333333Y-83952380D01*
X164238095Y-84952380D02*
X163666666Y-84952380D01*
X163952380Y-84952380D02*
X163952380Y-83952380D01*
X163857142Y-84095238D01*
X163761904Y-84190476D01*
X163666666Y-84238095D01*
X165095238Y-84285714D02*
X165095238Y-84952380D01*
X164857142Y-83904761D02*
X164619047Y-84619047D01*
X165238095Y-84619047D01*
X86661666Y-106767380D02*
X86661666Y-107481666D01*
X86614047Y-107624523D01*
X86518809Y-107719761D01*
X86375952Y-107767380D01*
X86280714Y-107767380D01*
X87614047Y-106767380D02*
X87137857Y-106767380D01*
X87090238Y-107243571D01*
X87137857Y-107195952D01*
X87233095Y-107148333D01*
X87471190Y-107148333D01*
X87566428Y-107195952D01*
X87614047Y-107243571D01*
X87661666Y-107338809D01*
X87661666Y-107576904D01*
X87614047Y-107672142D01*
X87566428Y-107719761D01*
X87471190Y-107767380D01*
X87233095Y-107767380D01*
X87137857Y-107719761D01*
X87090238Y-107672142D01*
X107768380Y-74262857D02*
X107768380Y-74739047D01*
X106768380Y-74739047D01*
X107244571Y-73929523D02*
X107244571Y-73596190D01*
X107768380Y-73453333D02*
X107768380Y-73929523D01*
X106768380Y-73929523D01*
X106768380Y-73453333D01*
X107768380Y-73024761D02*
X106768380Y-73024761D01*
X106768380Y-72786666D01*
X106816000Y-72643809D01*
X106911238Y-72548571D01*
X107006476Y-72500952D01*
X107196952Y-72453333D01*
X107339809Y-72453333D01*
X107530285Y-72500952D01*
X107625523Y-72548571D01*
X107720761Y-72643809D01*
X107768380Y-72786666D01*
X107768380Y-73024761D01*
X107863619Y-72262857D02*
X107863619Y-71500952D01*
X107720761Y-71310476D02*
X107768380Y-71167619D01*
X107768380Y-70929523D01*
X107720761Y-70834285D01*
X107673142Y-70786666D01*
X107577904Y-70739047D01*
X107482666Y-70739047D01*
X107387428Y-70786666D01*
X107339809Y-70834285D01*
X107292190Y-70929523D01*
X107244571Y-71120000D01*
X107196952Y-71215238D01*
X107149333Y-71262857D01*
X107054095Y-71310476D01*
X106958857Y-71310476D01*
X106863619Y-71262857D01*
X106816000Y-71215238D01*
X106768380Y-71120000D01*
X106768380Y-70881904D01*
X106816000Y-70739047D01*
X107768380Y-70310476D02*
X107101714Y-70310476D01*
X107196952Y-70310476D02*
X107149333Y-70262857D01*
X107101714Y-70167619D01*
X107101714Y-70024761D01*
X107149333Y-69929523D01*
X107244571Y-69881904D01*
X107768380Y-69881904D01*
X107244571Y-69881904D02*
X107149333Y-69834285D01*
X107101714Y-69739047D01*
X107101714Y-69596190D01*
X107149333Y-69500952D01*
X107244571Y-69453333D01*
X107768380Y-69453333D01*
X107768380Y-68548571D02*
X107244571Y-68548571D01*
X107149333Y-68596190D01*
X107101714Y-68691428D01*
X107101714Y-68881904D01*
X107149333Y-68977142D01*
X107720761Y-68548571D02*
X107768380Y-68643809D01*
X107768380Y-68881904D01*
X107720761Y-68977142D01*
X107625523Y-69024761D01*
X107530285Y-69024761D01*
X107435047Y-68977142D01*
X107387428Y-68881904D01*
X107387428Y-68643809D01*
X107339809Y-68548571D01*
X107768380Y-67929523D02*
X107720761Y-68024761D01*
X107625523Y-68072380D01*
X106768380Y-68072380D01*
X107768380Y-67405714D02*
X107720761Y-67500952D01*
X107625523Y-67548571D01*
X106768380Y-67548571D01*
D12*
X109192190Y-71489047D02*
X108692190Y-71489047D01*
X108692190Y-71370000D01*
X108716000Y-71298571D01*
X108763619Y-71250952D01*
X108811238Y-71227142D01*
X108906476Y-71203333D01*
X108977904Y-71203333D01*
X109073142Y-71227142D01*
X109120761Y-71250952D01*
X109168380Y-71298571D01*
X109192190Y-71370000D01*
X109192190Y-71489047D01*
X108692190Y-71036666D02*
X108692190Y-70727142D01*
X108882666Y-70893809D01*
X108882666Y-70822380D01*
X108906476Y-70774761D01*
X108930285Y-70750952D01*
X108977904Y-70727142D01*
X109096952Y-70727142D01*
X109144571Y-70750952D01*
X109168380Y-70774761D01*
X109192190Y-70822380D01*
X109192190Y-70965238D01*
X109168380Y-71012857D01*
X109144571Y-71036666D01*
D11*
X143549619Y-55292666D02*
X142835333Y-55292666D01*
X142692476Y-55245047D01*
X142597238Y-55149809D01*
X142549619Y-55006952D01*
X142549619Y-54911714D01*
X143121047Y-55911714D02*
X143168666Y-55816476D01*
X143216285Y-55768857D01*
X143311523Y-55721238D01*
X143359142Y-55721238D01*
X143454380Y-55768857D01*
X143502000Y-55816476D01*
X143549619Y-55911714D01*
X143549619Y-56102190D01*
X143502000Y-56197428D01*
X143454380Y-56245047D01*
X143359142Y-56292666D01*
X143311523Y-56292666D01*
X143216285Y-56245047D01*
X143168666Y-56197428D01*
X143121047Y-56102190D01*
X143121047Y-55911714D01*
X143073428Y-55816476D01*
X143025809Y-55768857D01*
X142930571Y-55721238D01*
X142740095Y-55721238D01*
X142644857Y-55768857D01*
X142597238Y-55816476D01*
X142549619Y-55911714D01*
X142549619Y-56102190D01*
X142597238Y-56197428D01*
X142644857Y-56245047D01*
X142740095Y-56292666D01*
X142930571Y-56292666D01*
X143025809Y-56245047D01*
X143073428Y-56197428D01*
X143121047Y-56102190D01*
X163553876Y-107091171D02*
X163220542Y-107091171D01*
X163220542Y-107614980D02*
X163220542Y-106614980D01*
X163696733Y-106614980D01*
X164601495Y-107614980D02*
X164030066Y-107614980D01*
X164315780Y-107614980D02*
X164315780Y-106614980D01*
X164220542Y-106757838D01*
X164125304Y-106853076D01*
X164030066Y-106900695D01*
X165458638Y-106614980D02*
X165268161Y-106614980D01*
X165172923Y-106662600D01*
X165125304Y-106710219D01*
X165030066Y-106853076D01*
X164982447Y-107043552D01*
X164982447Y-107424504D01*
X165030066Y-107519742D01*
X165077685Y-107567361D01*
X165172923Y-107614980D01*
X165363400Y-107614980D01*
X165458638Y-107567361D01*
X165506257Y-107519742D01*
X165553876Y-107424504D01*
X165553876Y-107186409D01*
X165506257Y-107091171D01*
X165458638Y-107043552D01*
X165363400Y-106995933D01*
X165172923Y-106995933D01*
X165077685Y-107043552D01*
X165030066Y-107091171D01*
X164982447Y-107186409D01*
X164497142Y-68398380D02*
X164020952Y-68398380D01*
X164020952Y-67398380D01*
X164830476Y-67874571D02*
X165163809Y-67874571D01*
X165306666Y-68398380D02*
X164830476Y-68398380D01*
X164830476Y-67398380D01*
X165306666Y-67398380D01*
X165735238Y-68398380D02*
X165735238Y-67398380D01*
X165973333Y-67398380D01*
X166116190Y-67446000D01*
X166211428Y-67541238D01*
X166259047Y-67636476D01*
X166306666Y-67826952D01*
X166306666Y-67969809D01*
X166259047Y-68160285D01*
X166211428Y-68255523D01*
X166116190Y-68350761D01*
X165973333Y-68398380D01*
X165735238Y-68398380D01*
X166497142Y-68493619D02*
X167259047Y-68493619D01*
X167449523Y-68350761D02*
X167592380Y-68398380D01*
X167830476Y-68398380D01*
X167925714Y-68350761D01*
X167973333Y-68303142D01*
X168020952Y-68207904D01*
X168020952Y-68112666D01*
X167973333Y-68017428D01*
X167925714Y-67969809D01*
X167830476Y-67922190D01*
X167640000Y-67874571D01*
X167544761Y-67826952D01*
X167497142Y-67779333D01*
X167449523Y-67684095D01*
X167449523Y-67588857D01*
X167497142Y-67493619D01*
X167544761Y-67446000D01*
X167640000Y-67398380D01*
X167878095Y-67398380D01*
X168020952Y-67446000D01*
X168449523Y-68398380D02*
X168449523Y-67731714D01*
X168449523Y-67826952D02*
X168497142Y-67779333D01*
X168592380Y-67731714D01*
X168735238Y-67731714D01*
X168830476Y-67779333D01*
X168878095Y-67874571D01*
X168878095Y-68398380D01*
X168878095Y-67874571D02*
X168925714Y-67779333D01*
X169020952Y-67731714D01*
X169163809Y-67731714D01*
X169259047Y-67779333D01*
X169306666Y-67874571D01*
X169306666Y-68398380D01*
X170211428Y-68398380D02*
X170211428Y-67874571D01*
X170163809Y-67779333D01*
X170068571Y-67731714D01*
X169878095Y-67731714D01*
X169782857Y-67779333D01*
X170211428Y-68350761D02*
X170116190Y-68398380D01*
X169878095Y-68398380D01*
X169782857Y-68350761D01*
X169735238Y-68255523D01*
X169735238Y-68160285D01*
X169782857Y-68065047D01*
X169878095Y-68017428D01*
X170116190Y-68017428D01*
X170211428Y-67969809D01*
X170830476Y-68398380D02*
X170735238Y-68350761D01*
X170687619Y-68255523D01*
X170687619Y-67398380D01*
X171354285Y-68398380D02*
X171259047Y-68350761D01*
X171211428Y-68255523D01*
X171211428Y-67398380D01*
D12*
X167270952Y-69822190D02*
X167270952Y-69322190D01*
X167390000Y-69322190D01*
X167461428Y-69346000D01*
X167509047Y-69393619D01*
X167532857Y-69441238D01*
X167556666Y-69536476D01*
X167556666Y-69607904D01*
X167532857Y-69703142D01*
X167509047Y-69750761D01*
X167461428Y-69798380D01*
X167390000Y-69822190D01*
X167270952Y-69822190D01*
X167747142Y-69369809D02*
X167770952Y-69346000D01*
X167818571Y-69322190D01*
X167937619Y-69322190D01*
X167985238Y-69346000D01*
X168009047Y-69369809D01*
X168032857Y-69417428D01*
X168032857Y-69465047D01*
X168009047Y-69536476D01*
X167723333Y-69822190D01*
X168032857Y-69822190D01*
D11*
X86661666Y-60031380D02*
X86661666Y-60745666D01*
X86614047Y-60888523D01*
X86518809Y-60983761D01*
X86375952Y-61031380D01*
X86280714Y-61031380D01*
X87090238Y-60126619D02*
X87137857Y-60079000D01*
X87233095Y-60031380D01*
X87471190Y-60031380D01*
X87566428Y-60079000D01*
X87614047Y-60126619D01*
X87661666Y-60221857D01*
X87661666Y-60317095D01*
X87614047Y-60459952D01*
X87042619Y-61031380D01*
X87661666Y-61031380D01*
X163706276Y-99420371D02*
X163372942Y-99420371D01*
X163372942Y-99944180D02*
X163372942Y-98944180D01*
X163849133Y-98944180D01*
X164753895Y-99944180D02*
X164182466Y-99944180D01*
X164468180Y-99944180D02*
X164468180Y-98944180D01*
X164372942Y-99087038D01*
X164277704Y-99182276D01*
X164182466Y-99229895D01*
X165134847Y-99039419D02*
X165182466Y-98991800D01*
X165277704Y-98944180D01*
X165515800Y-98944180D01*
X165611038Y-98991800D01*
X165658657Y-99039419D01*
X165706276Y-99134657D01*
X165706276Y-99229895D01*
X165658657Y-99372752D01*
X165087228Y-99944180D01*
X165706276Y-99944180D01*
X175762380Y-74111238D02*
X175762380Y-74682666D01*
X175762380Y-74396952D02*
X174762380Y-74396952D01*
X174905238Y-74492190D01*
X175000476Y-74587428D01*
X175048095Y-74682666D01*
X174762380Y-73492190D02*
X174762380Y-73396952D01*
X174810000Y-73301714D01*
X174857619Y-73254095D01*
X174952857Y-73206476D01*
X175143333Y-73158857D01*
X175381428Y-73158857D01*
X175571904Y-73206476D01*
X175667142Y-73254095D01*
X175714761Y-73301714D01*
X175762380Y-73396952D01*
X175762380Y-73492190D01*
X175714761Y-73587428D01*
X175667142Y-73635047D01*
X175571904Y-73682666D01*
X175381428Y-73730285D01*
X175143333Y-73730285D01*
X174952857Y-73682666D01*
X174857619Y-73635047D01*
X174810000Y-73587428D01*
X174762380Y-73492190D01*
X175762380Y-72730285D02*
X174762380Y-72730285D01*
X175381428Y-72635047D02*
X175762380Y-72349333D01*
X175095714Y-72349333D02*
X175476666Y-72730285D01*
D12*
X177186190Y-73599333D02*
X176948095Y-73766000D01*
X177186190Y-73885047D02*
X176686190Y-73885047D01*
X176686190Y-73694571D01*
X176710000Y-73646952D01*
X176733809Y-73623142D01*
X176781428Y-73599333D01*
X176852857Y-73599333D01*
X176900476Y-73623142D01*
X176924285Y-73646952D01*
X176948095Y-73694571D01*
X176948095Y-73885047D01*
X176900476Y-73313619D02*
X176876666Y-73361238D01*
X176852857Y-73385047D01*
X176805238Y-73408857D01*
X176781428Y-73408857D01*
X176733809Y-73385047D01*
X176710000Y-73361238D01*
X176686190Y-73313619D01*
X176686190Y-73218380D01*
X176710000Y-73170761D01*
X176733809Y-73146952D01*
X176781428Y-73123142D01*
X176805238Y-73123142D01*
X176852857Y-73146952D01*
X176876666Y-73170761D01*
X176900476Y-73218380D01*
X176900476Y-73313619D01*
X176924285Y-73361238D01*
X176948095Y-73385047D01*
X176995714Y-73408857D01*
X177090952Y-73408857D01*
X177138571Y-73385047D01*
X177162380Y-73361238D01*
X177186190Y-73313619D01*
X177186190Y-73218380D01*
X177162380Y-73170761D01*
X177138571Y-73146952D01*
X177090952Y-73123142D01*
X176995714Y-73123142D01*
X176948095Y-73146952D01*
X176924285Y-73170761D01*
X176900476Y-73218380D01*
D11*
X84487142Y-94302380D02*
X84010952Y-94302380D01*
X84010952Y-93302380D01*
X84820476Y-93778571D02*
X85153809Y-93778571D01*
X85296666Y-94302380D02*
X84820476Y-94302380D01*
X84820476Y-93302380D01*
X85296666Y-93302380D01*
X85725238Y-94302380D02*
X85725238Y-93302380D01*
X85963333Y-93302380D01*
X86106190Y-93350000D01*
X86201428Y-93445238D01*
X86249047Y-93540476D01*
X86296666Y-93730952D01*
X86296666Y-93873809D01*
X86249047Y-94064285D01*
X86201428Y-94159523D01*
X86106190Y-94254761D01*
X85963333Y-94302380D01*
X85725238Y-94302380D01*
X86487142Y-94397619D02*
X87249047Y-94397619D01*
X87439523Y-94254761D02*
X87582380Y-94302380D01*
X87820476Y-94302380D01*
X87915714Y-94254761D01*
X87963333Y-94207142D01*
X88010952Y-94111904D01*
X88010952Y-94016666D01*
X87963333Y-93921428D01*
X87915714Y-93873809D01*
X87820476Y-93826190D01*
X87630000Y-93778571D01*
X87534761Y-93730952D01*
X87487142Y-93683333D01*
X87439523Y-93588095D01*
X87439523Y-93492857D01*
X87487142Y-93397619D01*
X87534761Y-93350000D01*
X87630000Y-93302380D01*
X87868095Y-93302380D01*
X88010952Y-93350000D01*
X88439523Y-94302380D02*
X88439523Y-93635714D01*
X88439523Y-93730952D02*
X88487142Y-93683333D01*
X88582380Y-93635714D01*
X88725238Y-93635714D01*
X88820476Y-93683333D01*
X88868095Y-93778571D01*
X88868095Y-94302380D01*
X88868095Y-93778571D02*
X88915714Y-93683333D01*
X89010952Y-93635714D01*
X89153809Y-93635714D01*
X89249047Y-93683333D01*
X89296666Y-93778571D01*
X89296666Y-94302380D01*
X90201428Y-94302380D02*
X90201428Y-93778571D01*
X90153809Y-93683333D01*
X90058571Y-93635714D01*
X89868095Y-93635714D01*
X89772857Y-93683333D01*
X90201428Y-94254761D02*
X90106190Y-94302380D01*
X89868095Y-94302380D01*
X89772857Y-94254761D01*
X89725238Y-94159523D01*
X89725238Y-94064285D01*
X89772857Y-93969047D01*
X89868095Y-93921428D01*
X90106190Y-93921428D01*
X90201428Y-93873809D01*
X90820476Y-94302380D02*
X90725238Y-94254761D01*
X90677619Y-94159523D01*
X90677619Y-93302380D01*
X91344285Y-94302380D02*
X91249047Y-94254761D01*
X91201428Y-94159523D01*
X91201428Y-93302380D01*
D12*
X87260952Y-95726190D02*
X87260952Y-95226190D01*
X87380000Y-95226190D01*
X87451428Y-95250000D01*
X87499047Y-95297619D01*
X87522857Y-95345238D01*
X87546666Y-95440476D01*
X87546666Y-95511904D01*
X87522857Y-95607142D01*
X87499047Y-95654761D01*
X87451428Y-95702380D01*
X87380000Y-95726190D01*
X87260952Y-95726190D01*
X87975238Y-95392857D02*
X87975238Y-95726190D01*
X87856190Y-95202380D02*
X87737142Y-95559523D01*
X88046666Y-95559523D01*
D11*
X157738095Y-70452380D02*
X157738095Y-69452380D01*
X157738095Y-69928571D02*
X158309523Y-69928571D01*
X158309523Y-70452380D02*
X158309523Y-69452380D01*
X158738095Y-69547619D02*
X158785714Y-69500000D01*
X158880952Y-69452380D01*
X159119047Y-69452380D01*
X159214285Y-69500000D01*
X159261904Y-69547619D01*
X159309523Y-69642857D01*
X159309523Y-69738095D01*
X159261904Y-69880952D01*
X158690476Y-70452380D01*
X159309523Y-70452380D01*
X176704666Y-83272380D02*
X176704666Y-83986666D01*
X176657047Y-84129523D01*
X176561809Y-84224761D01*
X176418952Y-84272380D01*
X176323714Y-84272380D01*
X177085619Y-83272380D02*
X177752285Y-83272380D01*
X177323714Y-84272380D01*
X113053733Y-99739180D02*
X112482304Y-99739180D01*
X112768019Y-99739180D02*
X112768019Y-98739180D01*
X112672780Y-98882038D01*
X112577542Y-98977276D01*
X112482304Y-99024895D01*
X113672780Y-98739180D02*
X113768019Y-98739180D01*
X113863257Y-98786800D01*
X113910876Y-98834419D01*
X113958495Y-98929657D01*
X114006114Y-99120133D01*
X114006114Y-99358228D01*
X113958495Y-99548704D01*
X113910876Y-99643942D01*
X113863257Y-99691561D01*
X113768019Y-99739180D01*
X113672780Y-99739180D01*
X113577542Y-99691561D01*
X113529923Y-99643942D01*
X113482304Y-99548704D01*
X113434685Y-99358228D01*
X113434685Y-99120133D01*
X113482304Y-98929657D01*
X113529923Y-98834419D01*
X113577542Y-98786800D01*
X113672780Y-98739180D01*
X114625161Y-98739180D02*
X114720400Y-98739180D01*
X114815638Y-98786800D01*
X114863257Y-98834419D01*
X114910876Y-98929657D01*
X114958495Y-99120133D01*
X114958495Y-99358228D01*
X114910876Y-99548704D01*
X114863257Y-99643942D01*
X114815638Y-99691561D01*
X114720400Y-99739180D01*
X114625161Y-99739180D01*
X114529923Y-99691561D01*
X114482304Y-99643942D01*
X114434685Y-99548704D01*
X114387066Y-99358228D01*
X114387066Y-99120133D01*
X114434685Y-98929657D01*
X114482304Y-98834419D01*
X114529923Y-98786800D01*
X114625161Y-98739180D01*
D12*
X113637066Y-97862990D02*
X113470400Y-97624895D01*
X113351352Y-97862990D02*
X113351352Y-97362990D01*
X113541828Y-97362990D01*
X113589447Y-97386800D01*
X113613257Y-97410609D01*
X113637066Y-97458228D01*
X113637066Y-97529657D01*
X113613257Y-97577276D01*
X113589447Y-97601085D01*
X113541828Y-97624895D01*
X113351352Y-97624895D01*
X114113257Y-97862990D02*
X113827542Y-97862990D01*
X113970400Y-97862990D02*
X113970400Y-97362990D01*
X113922780Y-97434419D01*
X113875161Y-97482038D01*
X113827542Y-97505847D01*
D11*
X173641142Y-96844380D02*
X173164952Y-96844380D01*
X173164952Y-95844380D01*
X173974476Y-96320571D02*
X174307809Y-96320571D01*
X174450666Y-96844380D02*
X173974476Y-96844380D01*
X173974476Y-95844380D01*
X174450666Y-95844380D01*
X174879238Y-96844380D02*
X174879238Y-95844380D01*
X175117333Y-95844380D01*
X175260190Y-95892000D01*
X175355428Y-95987238D01*
X175403047Y-96082476D01*
X175450666Y-96272952D01*
X175450666Y-96415809D01*
X175403047Y-96606285D01*
X175355428Y-96701523D01*
X175260190Y-96796761D01*
X175117333Y-96844380D01*
X174879238Y-96844380D01*
X175641142Y-96939619D02*
X176403047Y-96939619D01*
X176593523Y-96796761D02*
X176736380Y-96844380D01*
X176974476Y-96844380D01*
X177069714Y-96796761D01*
X177117333Y-96749142D01*
X177164952Y-96653904D01*
X177164952Y-96558666D01*
X177117333Y-96463428D01*
X177069714Y-96415809D01*
X176974476Y-96368190D01*
X176784000Y-96320571D01*
X176688761Y-96272952D01*
X176641142Y-96225333D01*
X176593523Y-96130095D01*
X176593523Y-96034857D01*
X176641142Y-95939619D01*
X176688761Y-95892000D01*
X176784000Y-95844380D01*
X177022095Y-95844380D01*
X177164952Y-95892000D01*
X177593523Y-96844380D02*
X177593523Y-96177714D01*
X177593523Y-96272952D02*
X177641142Y-96225333D01*
X177736380Y-96177714D01*
X177879238Y-96177714D01*
X177974476Y-96225333D01*
X178022095Y-96320571D01*
X178022095Y-96844380D01*
X178022095Y-96320571D02*
X178069714Y-96225333D01*
X178164952Y-96177714D01*
X178307809Y-96177714D01*
X178403047Y-96225333D01*
X178450666Y-96320571D01*
X178450666Y-96844380D01*
X179355428Y-96844380D02*
X179355428Y-96320571D01*
X179307809Y-96225333D01*
X179212571Y-96177714D01*
X179022095Y-96177714D01*
X178926857Y-96225333D01*
X179355428Y-96796761D02*
X179260190Y-96844380D01*
X179022095Y-96844380D01*
X178926857Y-96796761D01*
X178879238Y-96701523D01*
X178879238Y-96606285D01*
X178926857Y-96511047D01*
X179022095Y-96463428D01*
X179260190Y-96463428D01*
X179355428Y-96415809D01*
X179974476Y-96844380D02*
X179879238Y-96796761D01*
X179831619Y-96701523D01*
X179831619Y-95844380D01*
X180498285Y-96844380D02*
X180403047Y-96796761D01*
X180355428Y-96701523D01*
X180355428Y-95844380D01*
D12*
X176414952Y-94968190D02*
X176414952Y-94468190D01*
X176534000Y-94468190D01*
X176605428Y-94492000D01*
X176653047Y-94539619D01*
X176676857Y-94587238D01*
X176700666Y-94682476D01*
X176700666Y-94753904D01*
X176676857Y-94849142D01*
X176653047Y-94896761D01*
X176605428Y-94944380D01*
X176534000Y-94968190D01*
X176414952Y-94968190D01*
X176986380Y-94682476D02*
X176938761Y-94658666D01*
X176914952Y-94634857D01*
X176891142Y-94587238D01*
X176891142Y-94563428D01*
X176914952Y-94515809D01*
X176938761Y-94492000D01*
X176986380Y-94468190D01*
X177081619Y-94468190D01*
X177129238Y-94492000D01*
X177153047Y-94515809D01*
X177176857Y-94563428D01*
X177176857Y-94587238D01*
X177153047Y-94634857D01*
X177129238Y-94658666D01*
X177081619Y-94682476D01*
X176986380Y-94682476D01*
X176938761Y-94706285D01*
X176914952Y-94730095D01*
X176891142Y-94777714D01*
X176891142Y-94872952D01*
X176914952Y-94920571D01*
X176938761Y-94944380D01*
X176986380Y-94968190D01*
X177081619Y-94968190D01*
X177129238Y-94944380D01*
X177153047Y-94920571D01*
X177176857Y-94872952D01*
X177176857Y-94777714D01*
X177153047Y-94730095D01*
X177129238Y-94706285D01*
X177081619Y-94682476D01*
D11*
X119952380Y-55833333D02*
X120666666Y-55833333D01*
X120809523Y-55880952D01*
X120904761Y-55976190D01*
X120952380Y-56119047D01*
X120952380Y-56214285D01*
X120285714Y-54928571D02*
X120952380Y-54928571D01*
X119904761Y-55166666D02*
X120619047Y-55404761D01*
X120619047Y-54785714D01*
X94663980Y-69231638D02*
X94663980Y-69803066D01*
X94663980Y-69517352D02*
X93663980Y-69517352D01*
X93806838Y-69612590D01*
X93902076Y-69707828D01*
X93949695Y-69803066D01*
X93663980Y-68612590D02*
X93663980Y-68517352D01*
X93711600Y-68422114D01*
X93759219Y-68374495D01*
X93854457Y-68326876D01*
X94044933Y-68279257D01*
X94283028Y-68279257D01*
X94473504Y-68326876D01*
X94568742Y-68374495D01*
X94616361Y-68422114D01*
X94663980Y-68517352D01*
X94663980Y-68612590D01*
X94616361Y-68707828D01*
X94568742Y-68755447D01*
X94473504Y-68803066D01*
X94283028Y-68850685D01*
X94044933Y-68850685D01*
X93854457Y-68803066D01*
X93759219Y-68755447D01*
X93711600Y-68707828D01*
X93663980Y-68612590D01*
X94663980Y-67850685D02*
X93663980Y-67850685D01*
X94283028Y-67755447D02*
X94663980Y-67469733D01*
X93997314Y-67469733D02*
X94378266Y-67850685D01*
D12*
X92787790Y-68719733D02*
X92549695Y-68886400D01*
X92787790Y-69005447D02*
X92287790Y-69005447D01*
X92287790Y-68814971D01*
X92311600Y-68767352D01*
X92335409Y-68743542D01*
X92383028Y-68719733D01*
X92454457Y-68719733D01*
X92502076Y-68743542D01*
X92525885Y-68767352D01*
X92549695Y-68814971D01*
X92549695Y-69005447D01*
X92287790Y-68553066D02*
X92287790Y-68243542D01*
X92478266Y-68410209D01*
X92478266Y-68338780D01*
X92502076Y-68291161D01*
X92525885Y-68267352D01*
X92573504Y-68243542D01*
X92692552Y-68243542D01*
X92740171Y-68267352D01*
X92763980Y-68291161D01*
X92787790Y-68338780D01*
X92787790Y-68481638D01*
X92763980Y-68529257D01*
X92740171Y-68553066D01*
D11*
X120011866Y-71607371D02*
X119678533Y-71607371D01*
X119678533Y-72131180D02*
X119678533Y-71131180D01*
X120154723Y-71131180D01*
X120440438Y-71131180D02*
X121107104Y-71131180D01*
X120678533Y-72131180D01*
X152888761Y-72414780D02*
X152317333Y-72414780D01*
X152603047Y-72414780D02*
X152603047Y-71414780D01*
X152507809Y-71557638D01*
X152412571Y-71652876D01*
X152317333Y-71700495D01*
X153507809Y-71414780D02*
X153603047Y-71414780D01*
X153698285Y-71462400D01*
X153745904Y-71510019D01*
X153793523Y-71605257D01*
X153841142Y-71795733D01*
X153841142Y-72033828D01*
X153793523Y-72224304D01*
X153745904Y-72319542D01*
X153698285Y-72367161D01*
X153603047Y-72414780D01*
X153507809Y-72414780D01*
X153412571Y-72367161D01*
X153364952Y-72319542D01*
X153317333Y-72224304D01*
X153269714Y-72033828D01*
X153269714Y-71795733D01*
X153317333Y-71605257D01*
X153364952Y-71510019D01*
X153412571Y-71462400D01*
X153507809Y-71414780D01*
X154269714Y-72414780D02*
X154269714Y-71414780D01*
X154364952Y-72033828D02*
X154650666Y-72414780D01*
X154650666Y-71748114D02*
X154269714Y-72129066D01*
D12*
X153400666Y-73838590D02*
X153234000Y-73600495D01*
X153114952Y-73838590D02*
X153114952Y-73338590D01*
X153305428Y-73338590D01*
X153353047Y-73362400D01*
X153376857Y-73386209D01*
X153400666Y-73433828D01*
X153400666Y-73505257D01*
X153376857Y-73552876D01*
X153353047Y-73576685D01*
X153305428Y-73600495D01*
X153114952Y-73600495D01*
X153638761Y-73838590D02*
X153734000Y-73838590D01*
X153781619Y-73814780D01*
X153805428Y-73790971D01*
X153853047Y-73719542D01*
X153876857Y-73624304D01*
X153876857Y-73433828D01*
X153853047Y-73386209D01*
X153829238Y-73362400D01*
X153781619Y-73338590D01*
X153686380Y-73338590D01*
X153638761Y-73362400D01*
X153614952Y-73386209D01*
X153591142Y-73433828D01*
X153591142Y-73552876D01*
X153614952Y-73600495D01*
X153638761Y-73624304D01*
X153686380Y-73648114D01*
X153781619Y-73648114D01*
X153829238Y-73624304D01*
X153853047Y-73600495D01*
X153876857Y-73552876D01*
D11*
X142190476Y-63928571D02*
X141857142Y-63928571D01*
X141857142Y-64452380D02*
X141857142Y-63452380D01*
X142333333Y-63452380D01*
X143238095Y-64452380D02*
X142666666Y-64452380D01*
X142952380Y-64452380D02*
X142952380Y-63452380D01*
X142857142Y-63595238D01*
X142761904Y-63690476D01*
X142666666Y-63738095D01*
X144190476Y-64452380D02*
X143619047Y-64452380D01*
X143904761Y-64452380D02*
X143904761Y-63452380D01*
X143809523Y-63595238D01*
X143714285Y-63690476D01*
X143619047Y-63738095D01*
X92361142Y-71602380D02*
X91884952Y-71602380D01*
X91884952Y-70602380D01*
X92694476Y-71078571D02*
X93027809Y-71078571D01*
X93170666Y-71602380D02*
X92694476Y-71602380D01*
X92694476Y-70602380D01*
X93170666Y-70602380D01*
X93599238Y-71602380D02*
X93599238Y-70602380D01*
X93837333Y-70602380D01*
X93980190Y-70650000D01*
X94075428Y-70745238D01*
X94123047Y-70840476D01*
X94170666Y-71030952D01*
X94170666Y-71173809D01*
X94123047Y-71364285D01*
X94075428Y-71459523D01*
X93980190Y-71554761D01*
X93837333Y-71602380D01*
X93599238Y-71602380D01*
X94361142Y-71697619D02*
X95123047Y-71697619D01*
X95313523Y-71554761D02*
X95456380Y-71602380D01*
X95694476Y-71602380D01*
X95789714Y-71554761D01*
X95837333Y-71507142D01*
X95884952Y-71411904D01*
X95884952Y-71316666D01*
X95837333Y-71221428D01*
X95789714Y-71173809D01*
X95694476Y-71126190D01*
X95504000Y-71078571D01*
X95408761Y-71030952D01*
X95361142Y-70983333D01*
X95313523Y-70888095D01*
X95313523Y-70792857D01*
X95361142Y-70697619D01*
X95408761Y-70650000D01*
X95504000Y-70602380D01*
X95742095Y-70602380D01*
X95884952Y-70650000D01*
X96313523Y-71602380D02*
X96313523Y-70935714D01*
X96313523Y-71030952D02*
X96361142Y-70983333D01*
X96456380Y-70935714D01*
X96599238Y-70935714D01*
X96694476Y-70983333D01*
X96742095Y-71078571D01*
X96742095Y-71602380D01*
X96742095Y-71078571D02*
X96789714Y-70983333D01*
X96884952Y-70935714D01*
X97027809Y-70935714D01*
X97123047Y-70983333D01*
X97170666Y-71078571D01*
X97170666Y-71602380D01*
X98075428Y-71602380D02*
X98075428Y-71078571D01*
X98027809Y-70983333D01*
X97932571Y-70935714D01*
X97742095Y-70935714D01*
X97646857Y-70983333D01*
X98075428Y-71554761D02*
X97980190Y-71602380D01*
X97742095Y-71602380D01*
X97646857Y-71554761D01*
X97599238Y-71459523D01*
X97599238Y-71364285D01*
X97646857Y-71269047D01*
X97742095Y-71221428D01*
X97980190Y-71221428D01*
X98075428Y-71173809D01*
X98694476Y-71602380D02*
X98599238Y-71554761D01*
X98551619Y-71459523D01*
X98551619Y-70602380D01*
X99218285Y-71602380D02*
X99123047Y-71554761D01*
X99075428Y-71459523D01*
X99075428Y-70602380D01*
D12*
X95134952Y-69726190D02*
X95134952Y-69226190D01*
X95254000Y-69226190D01*
X95325428Y-69250000D01*
X95373047Y-69297619D01*
X95396857Y-69345238D01*
X95420666Y-69440476D01*
X95420666Y-69511904D01*
X95396857Y-69607142D01*
X95373047Y-69654761D01*
X95325428Y-69702380D01*
X95254000Y-69726190D01*
X95134952Y-69726190D01*
X95896857Y-69726190D02*
X95611142Y-69726190D01*
X95754000Y-69726190D02*
X95754000Y-69226190D01*
X95706380Y-69297619D01*
X95658761Y-69345238D01*
X95611142Y-69369047D01*
D11*
X163190476Y-76928571D02*
X162857142Y-76928571D01*
X162857142Y-77452380D02*
X162857142Y-76452380D01*
X163333333Y-76452380D01*
X164238095Y-77452380D02*
X163666666Y-77452380D01*
X163952380Y-77452380D02*
X163952380Y-76452380D01*
X163857142Y-76595238D01*
X163761904Y-76690476D01*
X163666666Y-76738095D01*
X164857142Y-76452380D02*
X164952380Y-76452380D01*
X165047619Y-76500000D01*
X165095238Y-76547619D01*
X165142857Y-76642857D01*
X165190476Y-76833333D01*
X165190476Y-77071428D01*
X165142857Y-77261904D01*
X165095238Y-77357142D01*
X165047619Y-77404761D01*
X164952380Y-77452380D01*
X164857142Y-77452380D01*
X164761904Y-77404761D01*
X164714285Y-77357142D01*
X164666666Y-77261904D01*
X164619047Y-77071428D01*
X164619047Y-76833333D01*
X164666666Y-76642857D01*
X164714285Y-76547619D01*
X164761904Y-76500000D01*
X164857142Y-76452380D01*
X176704666Y-106513380D02*
X176704666Y-107227666D01*
X176657047Y-107370523D01*
X176561809Y-107465761D01*
X176418952Y-107513380D01*
X176323714Y-107513380D01*
X177228476Y-107513380D02*
X177418952Y-107513380D01*
X177514190Y-107465761D01*
X177561809Y-107418142D01*
X177657047Y-107275285D01*
X177704666Y-107084809D01*
X177704666Y-106703857D01*
X177657047Y-106608619D01*
X177609428Y-106561000D01*
X177514190Y-106513380D01*
X177323714Y-106513380D01*
X177228476Y-106561000D01*
X177180857Y-106608619D01*
X177133238Y-106703857D01*
X177133238Y-106941952D01*
X177180857Y-107037190D01*
X177228476Y-107084809D01*
X177323714Y-107132428D01*
X177514190Y-107132428D01*
X177609428Y-107084809D01*
X177657047Y-107037190D01*
X177704666Y-106941952D01*
X82709142Y-70430380D02*
X82232952Y-70430380D01*
X82232952Y-69430380D01*
X83042476Y-69906571D02*
X83375809Y-69906571D01*
X83518666Y-70430380D02*
X83042476Y-70430380D01*
X83042476Y-69430380D01*
X83518666Y-69430380D01*
X83947238Y-70430380D02*
X83947238Y-69430380D01*
X84185333Y-69430380D01*
X84328190Y-69478000D01*
X84423428Y-69573238D01*
X84471047Y-69668476D01*
X84518666Y-69858952D01*
X84518666Y-70001809D01*
X84471047Y-70192285D01*
X84423428Y-70287523D01*
X84328190Y-70382761D01*
X84185333Y-70430380D01*
X83947238Y-70430380D01*
X84709142Y-70525619D02*
X85471047Y-70525619D01*
X85661523Y-70382761D02*
X85804380Y-70430380D01*
X86042476Y-70430380D01*
X86137714Y-70382761D01*
X86185333Y-70335142D01*
X86232952Y-70239904D01*
X86232952Y-70144666D01*
X86185333Y-70049428D01*
X86137714Y-70001809D01*
X86042476Y-69954190D01*
X85852000Y-69906571D01*
X85756761Y-69858952D01*
X85709142Y-69811333D01*
X85661523Y-69716095D01*
X85661523Y-69620857D01*
X85709142Y-69525619D01*
X85756761Y-69478000D01*
X85852000Y-69430380D01*
X86090095Y-69430380D01*
X86232952Y-69478000D01*
X86661523Y-70430380D02*
X86661523Y-69763714D01*
X86661523Y-69858952D02*
X86709142Y-69811333D01*
X86804380Y-69763714D01*
X86947238Y-69763714D01*
X87042476Y-69811333D01*
X87090095Y-69906571D01*
X87090095Y-70430380D01*
X87090095Y-69906571D02*
X87137714Y-69811333D01*
X87232952Y-69763714D01*
X87375809Y-69763714D01*
X87471047Y-69811333D01*
X87518666Y-69906571D01*
X87518666Y-70430380D01*
X88423428Y-70430380D02*
X88423428Y-69906571D01*
X88375809Y-69811333D01*
X88280571Y-69763714D01*
X88090095Y-69763714D01*
X87994857Y-69811333D01*
X88423428Y-70382761D02*
X88328190Y-70430380D01*
X88090095Y-70430380D01*
X87994857Y-70382761D01*
X87947238Y-70287523D01*
X87947238Y-70192285D01*
X87994857Y-70097047D01*
X88090095Y-70049428D01*
X88328190Y-70049428D01*
X88423428Y-70001809D01*
X89042476Y-70430380D02*
X88947238Y-70382761D01*
X88899619Y-70287523D01*
X88899619Y-69430380D01*
X89566285Y-70430380D02*
X89471047Y-70382761D01*
X89423428Y-70287523D01*
X89423428Y-69430380D01*
D12*
X85482952Y-71854190D02*
X85482952Y-71354190D01*
X85602000Y-71354190D01*
X85673428Y-71378000D01*
X85721047Y-71425619D01*
X85744857Y-71473238D01*
X85768666Y-71568476D01*
X85768666Y-71639904D01*
X85744857Y-71735142D01*
X85721047Y-71782761D01*
X85673428Y-71830380D01*
X85602000Y-71854190D01*
X85482952Y-71854190D01*
X86221047Y-71354190D02*
X85982952Y-71354190D01*
X85959142Y-71592285D01*
X85982952Y-71568476D01*
X86030571Y-71544666D01*
X86149619Y-71544666D01*
X86197238Y-71568476D01*
X86221047Y-71592285D01*
X86244857Y-71639904D01*
X86244857Y-71758952D01*
X86221047Y-71806571D01*
X86197238Y-71830380D01*
X86149619Y-71854190D01*
X86030571Y-71854190D01*
X85982952Y-71830380D01*
X85959142Y-71806571D01*
D11*
X98679142Y-82478571D02*
X98345809Y-82478571D01*
X98345809Y-83002380D02*
X98345809Y-82002380D01*
X98822000Y-82002380D01*
X99631523Y-82335714D02*
X99631523Y-83002380D01*
X99202952Y-82335714D02*
X99202952Y-82859523D01*
X99250571Y-82954761D01*
X99345809Y-83002380D01*
X99488666Y-83002380D01*
X99583904Y-82954761D01*
X99631523Y-82907142D01*
X100060095Y-82954761D02*
X100155333Y-83002380D01*
X100345809Y-83002380D01*
X100441047Y-82954761D01*
X100488666Y-82859523D01*
X100488666Y-82811904D01*
X100441047Y-82716666D01*
X100345809Y-82669047D01*
X100202952Y-82669047D01*
X100107714Y-82621428D01*
X100060095Y-82526190D01*
X100060095Y-82478571D01*
X100107714Y-82383333D01*
X100202952Y-82335714D01*
X100345809Y-82335714D01*
X100441047Y-82383333D01*
X101298190Y-82954761D02*
X101202952Y-83002380D01*
X101012476Y-83002380D01*
X100917238Y-82954761D01*
X100869619Y-82859523D01*
X100869619Y-82478571D01*
X100917238Y-82383333D01*
X101012476Y-82335714D01*
X101202952Y-82335714D01*
X101298190Y-82383333D01*
X101345809Y-82478571D01*
X101345809Y-82573809D01*
X100869619Y-82669047D01*
X99590266Y-84358171D02*
X99256933Y-84358171D01*
X99256933Y-84881980D02*
X99256933Y-83881980D01*
X99733123Y-83881980D01*
X100161695Y-84881980D02*
X100352171Y-84881980D01*
X100447409Y-84834361D01*
X100495028Y-84786742D01*
X100590266Y-84643885D01*
X100637885Y-84453409D01*
X100637885Y-84072457D01*
X100590266Y-83977219D01*
X100542647Y-83929600D01*
X100447409Y-83881980D01*
X100256933Y-83881980D01*
X100161695Y-83929600D01*
X100114076Y-83977219D01*
X100066457Y-84072457D01*
X100066457Y-84310552D01*
X100114076Y-84405790D01*
X100161695Y-84453409D01*
X100256933Y-84501028D01*
X100447409Y-84501028D01*
X100542647Y-84453409D01*
X100590266Y-84405790D01*
X100637885Y-84310552D01*
X145288095Y-82875380D02*
X145288095Y-81875380D01*
X145288095Y-82351571D02*
X145859523Y-82351571D01*
X145859523Y-82875380D02*
X145859523Y-81875380D01*
X146240476Y-81875380D02*
X146907142Y-81875380D01*
X146478571Y-82875380D01*
X172711580Y-96712838D02*
X172711580Y-97284266D01*
X172711580Y-96998552D02*
X171711580Y-96998552D01*
X171854438Y-97093790D01*
X171949676Y-97189028D01*
X171997295Y-97284266D01*
X171711580Y-96093790D02*
X171711580Y-95998552D01*
X171759200Y-95903314D01*
X171806819Y-95855695D01*
X171902057Y-95808076D01*
X172092533Y-95760457D01*
X172330628Y-95760457D01*
X172521104Y-95808076D01*
X172616342Y-95855695D01*
X172663961Y-95903314D01*
X172711580Y-95998552D01*
X172711580Y-96093790D01*
X172663961Y-96189028D01*
X172616342Y-96236647D01*
X172521104Y-96284266D01*
X172330628Y-96331885D01*
X172092533Y-96331885D01*
X171902057Y-96284266D01*
X171806819Y-96236647D01*
X171759200Y-96189028D01*
X171711580Y-96093790D01*
X172711580Y-95331885D02*
X171711580Y-95331885D01*
X172330628Y-95236647D02*
X172711580Y-94950933D01*
X172044914Y-94950933D02*
X172425866Y-95331885D01*
D12*
X174135390Y-96439028D02*
X173897295Y-96605695D01*
X174135390Y-96724742D02*
X173635390Y-96724742D01*
X173635390Y-96534266D01*
X173659200Y-96486647D01*
X173683009Y-96462838D01*
X173730628Y-96439028D01*
X173802057Y-96439028D01*
X173849676Y-96462838D01*
X173873485Y-96486647D01*
X173897295Y-96534266D01*
X173897295Y-96724742D01*
X174135390Y-95962838D02*
X174135390Y-96248552D01*
X174135390Y-96105695D02*
X173635390Y-96105695D01*
X173706819Y-96153314D01*
X173754438Y-96200933D01*
X173778247Y-96248552D01*
X173635390Y-95653314D02*
X173635390Y-95605695D01*
X173659200Y-95558076D01*
X173683009Y-95534266D01*
X173730628Y-95510457D01*
X173825866Y-95486647D01*
X173944914Y-95486647D01*
X174040152Y-95510457D01*
X174087771Y-95534266D01*
X174111580Y-95558076D01*
X174135390Y-95605695D01*
X174135390Y-95653314D01*
X174111580Y-95700933D01*
X174087771Y-95724742D01*
X174040152Y-95748552D01*
X173944914Y-95772361D01*
X173825866Y-95772361D01*
X173730628Y-95748552D01*
X173683009Y-95724742D01*
X173659200Y-95700933D01*
X173635390Y-95653314D01*
D11*
X149955333Y-99638380D02*
X149383904Y-99638380D01*
X149669619Y-99638380D02*
X149669619Y-98638380D01*
X149574380Y-98781238D01*
X149479142Y-98876476D01*
X149383904Y-98924095D01*
X150574380Y-98638380D02*
X150669619Y-98638380D01*
X150764857Y-98686000D01*
X150812476Y-98733619D01*
X150860095Y-98828857D01*
X150907714Y-99019333D01*
X150907714Y-99257428D01*
X150860095Y-99447904D01*
X150812476Y-99543142D01*
X150764857Y-99590761D01*
X150669619Y-99638380D01*
X150574380Y-99638380D01*
X150479142Y-99590761D01*
X150431523Y-99543142D01*
X150383904Y-99447904D01*
X150336285Y-99257428D01*
X150336285Y-99019333D01*
X150383904Y-98828857D01*
X150431523Y-98733619D01*
X150479142Y-98686000D01*
X150574380Y-98638380D01*
X151526761Y-98638380D02*
X151622000Y-98638380D01*
X151717238Y-98686000D01*
X151764857Y-98733619D01*
X151812476Y-98828857D01*
X151860095Y-99019333D01*
X151860095Y-99257428D01*
X151812476Y-99447904D01*
X151764857Y-99543142D01*
X151717238Y-99590761D01*
X151622000Y-99638380D01*
X151526761Y-99638380D01*
X151431523Y-99590761D01*
X151383904Y-99543142D01*
X151336285Y-99447904D01*
X151288666Y-99257428D01*
X151288666Y-99019333D01*
X151336285Y-98828857D01*
X151383904Y-98733619D01*
X151431523Y-98686000D01*
X151526761Y-98638380D01*
D12*
X150538666Y-97762190D02*
X150372000Y-97524095D01*
X150252952Y-97762190D02*
X150252952Y-97262190D01*
X150443428Y-97262190D01*
X150491047Y-97286000D01*
X150514857Y-97309809D01*
X150538666Y-97357428D01*
X150538666Y-97428857D01*
X150514857Y-97476476D01*
X150491047Y-97500285D01*
X150443428Y-97524095D01*
X150252952Y-97524095D01*
X150729142Y-97309809D02*
X150752952Y-97286000D01*
X150800571Y-97262190D01*
X150919619Y-97262190D01*
X150967238Y-97286000D01*
X150991047Y-97309809D01*
X151014857Y-97357428D01*
X151014857Y-97405047D01*
X150991047Y-97476476D01*
X150705333Y-97762190D01*
X151014857Y-97762190D01*
D11*
X98679142Y-75112571D02*
X98345809Y-75112571D01*
X98345809Y-75636380D02*
X98345809Y-74636380D01*
X98822000Y-74636380D01*
X99631523Y-74969714D02*
X99631523Y-75636380D01*
X99202952Y-74969714D02*
X99202952Y-75493523D01*
X99250571Y-75588761D01*
X99345809Y-75636380D01*
X99488666Y-75636380D01*
X99583904Y-75588761D01*
X99631523Y-75541142D01*
X100060095Y-75588761D02*
X100155333Y-75636380D01*
X100345809Y-75636380D01*
X100441047Y-75588761D01*
X100488666Y-75493523D01*
X100488666Y-75445904D01*
X100441047Y-75350666D01*
X100345809Y-75303047D01*
X100202952Y-75303047D01*
X100107714Y-75255428D01*
X100060095Y-75160190D01*
X100060095Y-75112571D01*
X100107714Y-75017333D01*
X100202952Y-74969714D01*
X100345809Y-74969714D01*
X100441047Y-75017333D01*
X101298190Y-75588761D02*
X101202952Y-75636380D01*
X101012476Y-75636380D01*
X100917238Y-75588761D01*
X100869619Y-75493523D01*
X100869619Y-75112571D01*
X100917238Y-75017333D01*
X101012476Y-74969714D01*
X101202952Y-74969714D01*
X101298190Y-75017333D01*
X101345809Y-75112571D01*
X101345809Y-75207809D01*
X100869619Y-75303047D01*
X99114076Y-76712771D02*
X98780742Y-76712771D01*
X98780742Y-77236580D02*
X98780742Y-76236580D01*
X99256933Y-76236580D01*
X100161695Y-77236580D02*
X99590266Y-77236580D01*
X99875980Y-77236580D02*
X99875980Y-76236580D01*
X99780742Y-76379438D01*
X99685504Y-76474676D01*
X99590266Y-76522295D01*
X100495028Y-76236580D02*
X101114076Y-76236580D01*
X100780742Y-76617533D01*
X100923600Y-76617533D01*
X101018838Y-76665152D01*
X101066457Y-76712771D01*
X101114076Y-76808009D01*
X101114076Y-77046104D01*
X101066457Y-77141342D01*
X101018838Y-77188961D01*
X100923600Y-77236580D01*
X100637885Y-77236580D01*
X100542647Y-77188961D01*
X100495028Y-77141342D01*
X176689142Y-74602380D02*
X176212952Y-74602380D01*
X176212952Y-73602380D01*
X177022476Y-74078571D02*
X177355809Y-74078571D01*
X177498666Y-74602380D02*
X177022476Y-74602380D01*
X177022476Y-73602380D01*
X177498666Y-73602380D01*
X177927238Y-74602380D02*
X177927238Y-73602380D01*
X178165333Y-73602380D01*
X178308190Y-73650000D01*
X178403428Y-73745238D01*
X178451047Y-73840476D01*
X178498666Y-74030952D01*
X178498666Y-74173809D01*
X178451047Y-74364285D01*
X178403428Y-74459523D01*
X178308190Y-74554761D01*
X178165333Y-74602380D01*
X177927238Y-74602380D01*
X178689142Y-74697619D02*
X179451047Y-74697619D01*
X179641523Y-74554761D02*
X179784380Y-74602380D01*
X180022476Y-74602380D01*
X180117714Y-74554761D01*
X180165333Y-74507142D01*
X180212952Y-74411904D01*
X180212952Y-74316666D01*
X180165333Y-74221428D01*
X180117714Y-74173809D01*
X180022476Y-74126190D01*
X179832000Y-74078571D01*
X179736761Y-74030952D01*
X179689142Y-73983333D01*
X179641523Y-73888095D01*
X179641523Y-73792857D01*
X179689142Y-73697619D01*
X179736761Y-73650000D01*
X179832000Y-73602380D01*
X180070095Y-73602380D01*
X180212952Y-73650000D01*
X180641523Y-74602380D02*
X180641523Y-73935714D01*
X180641523Y-74030952D02*
X180689142Y-73983333D01*
X180784380Y-73935714D01*
X180927238Y-73935714D01*
X181022476Y-73983333D01*
X181070095Y-74078571D01*
X181070095Y-74602380D01*
X181070095Y-74078571D02*
X181117714Y-73983333D01*
X181212952Y-73935714D01*
X181355809Y-73935714D01*
X181451047Y-73983333D01*
X181498666Y-74078571D01*
X181498666Y-74602380D01*
X182403428Y-74602380D02*
X182403428Y-74078571D01*
X182355809Y-73983333D01*
X182260571Y-73935714D01*
X182070095Y-73935714D01*
X181974857Y-73983333D01*
X182403428Y-74554761D02*
X182308190Y-74602380D01*
X182070095Y-74602380D01*
X181974857Y-74554761D01*
X181927238Y-74459523D01*
X181927238Y-74364285D01*
X181974857Y-74269047D01*
X182070095Y-74221428D01*
X182308190Y-74221428D01*
X182403428Y-74173809D01*
X183022476Y-74602380D02*
X182927238Y-74554761D01*
X182879619Y-74459523D01*
X182879619Y-73602380D01*
X183546285Y-74602380D02*
X183451047Y-74554761D01*
X183403428Y-74459523D01*
X183403428Y-73602380D01*
D12*
X179462952Y-72726190D02*
X179462952Y-72226190D01*
X179582000Y-72226190D01*
X179653428Y-72250000D01*
X179701047Y-72297619D01*
X179724857Y-72345238D01*
X179748666Y-72440476D01*
X179748666Y-72511904D01*
X179724857Y-72607142D01*
X179701047Y-72654761D01*
X179653428Y-72702380D01*
X179582000Y-72726190D01*
X179462952Y-72726190D01*
X180177238Y-72226190D02*
X180082000Y-72226190D01*
X180034380Y-72250000D01*
X180010571Y-72273809D01*
X179962952Y-72345238D01*
X179939142Y-72440476D01*
X179939142Y-72630952D01*
X179962952Y-72678571D01*
X179986761Y-72702380D01*
X180034380Y-72726190D01*
X180129619Y-72726190D01*
X180177238Y-72702380D01*
X180201047Y-72678571D01*
X180224857Y-72630952D01*
X180224857Y-72511904D01*
X180201047Y-72464285D01*
X180177238Y-72440476D01*
X180129619Y-72416666D01*
X180034380Y-72416666D01*
X179986761Y-72440476D01*
X179962952Y-72464285D01*
X179939142Y-72511904D01*
D11*
X172523380Y-69206238D02*
X172523380Y-69777666D01*
X172523380Y-69491952D02*
X171523380Y-69491952D01*
X171666238Y-69587190D01*
X171761476Y-69682428D01*
X171809095Y-69777666D01*
X171523380Y-68587190D02*
X171523380Y-68491952D01*
X171571000Y-68396714D01*
X171618619Y-68349095D01*
X171713857Y-68301476D01*
X171904333Y-68253857D01*
X172142428Y-68253857D01*
X172332904Y-68301476D01*
X172428142Y-68349095D01*
X172475761Y-68396714D01*
X172523380Y-68491952D01*
X172523380Y-68587190D01*
X172475761Y-68682428D01*
X172428142Y-68730047D01*
X172332904Y-68777666D01*
X172142428Y-68825285D01*
X171904333Y-68825285D01*
X171713857Y-68777666D01*
X171618619Y-68730047D01*
X171571000Y-68682428D01*
X171523380Y-68587190D01*
X172523380Y-67825285D02*
X171523380Y-67825285D01*
X172142428Y-67730047D02*
X172523380Y-67444333D01*
X171856714Y-67444333D02*
X172237666Y-67825285D01*
D12*
X170647190Y-68694333D02*
X170409095Y-68861000D01*
X170647190Y-68980047D02*
X170147190Y-68980047D01*
X170147190Y-68789571D01*
X170171000Y-68741952D01*
X170194809Y-68718142D01*
X170242428Y-68694333D01*
X170313857Y-68694333D01*
X170361476Y-68718142D01*
X170385285Y-68741952D01*
X170409095Y-68789571D01*
X170409095Y-68980047D01*
X170313857Y-68265761D02*
X170647190Y-68265761D01*
X170123380Y-68384809D02*
X170480523Y-68503857D01*
X170480523Y-68194333D01*
D11*
X114300095Y-82875380D02*
X114300095Y-81875380D01*
X114300095Y-82351571D02*
X114871523Y-82351571D01*
X114871523Y-82875380D02*
X114871523Y-81875380D01*
X115823904Y-81875380D02*
X115347714Y-81875380D01*
X115300095Y-82351571D01*
X115347714Y-82303952D01*
X115442952Y-82256333D01*
X115681047Y-82256333D01*
X115776285Y-82303952D01*
X115823904Y-82351571D01*
X115871523Y-82446809D01*
X115871523Y-82684904D01*
X115823904Y-82780142D01*
X115776285Y-82827761D01*
X115681047Y-82875380D01*
X115442952Y-82875380D01*
X115347714Y-82827761D01*
X115300095Y-82780142D01*
X131267295Y-101063180D02*
X131267295Y-101872704D01*
X131314914Y-101967942D01*
X131362533Y-102015561D01*
X131457771Y-102063180D01*
X131648247Y-102063180D01*
X131743485Y-102015561D01*
X131791104Y-101967942D01*
X131838723Y-101872704D01*
X131838723Y-101063180D01*
X132838723Y-102063180D02*
X132267295Y-102063180D01*
X132553009Y-102063180D02*
X132553009Y-101063180D01*
X132457771Y-101206038D01*
X132362533Y-101301276D01*
X132267295Y-101348895D01*
X88972380Y-73239238D02*
X88972380Y-73810666D01*
X88972380Y-73524952D02*
X87972380Y-73524952D01*
X88115238Y-73620190D01*
X88210476Y-73715428D01*
X88258095Y-73810666D01*
X87972380Y-72620190D02*
X87972380Y-72524952D01*
X88020000Y-72429714D01*
X88067619Y-72382095D01*
X88162857Y-72334476D01*
X88353333Y-72286857D01*
X88591428Y-72286857D01*
X88781904Y-72334476D01*
X88877142Y-72382095D01*
X88924761Y-72429714D01*
X88972380Y-72524952D01*
X88972380Y-72620190D01*
X88924761Y-72715428D01*
X88877142Y-72763047D01*
X88781904Y-72810666D01*
X88591428Y-72858285D01*
X88353333Y-72858285D01*
X88162857Y-72810666D01*
X88067619Y-72763047D01*
X88020000Y-72715428D01*
X87972380Y-72620190D01*
X88972380Y-71858285D02*
X87972380Y-71858285D01*
X88591428Y-71763047D02*
X88972380Y-71477333D01*
X88305714Y-71477333D02*
X88686666Y-71858285D01*
D12*
X90396190Y-72727333D02*
X90158095Y-72894000D01*
X90396190Y-73013047D02*
X89896190Y-73013047D01*
X89896190Y-72822571D01*
X89920000Y-72774952D01*
X89943809Y-72751142D01*
X89991428Y-72727333D01*
X90062857Y-72727333D01*
X90110476Y-72751142D01*
X90134285Y-72774952D01*
X90158095Y-72822571D01*
X90158095Y-73013047D01*
X89896190Y-72560666D02*
X89896190Y-72227333D01*
X90396190Y-72441619D01*
D11*
X151764390Y-103839419D02*
X151326295Y-104146085D01*
X151764390Y-104365133D02*
X150844390Y-104365133D01*
X150844390Y-104014657D01*
X150888200Y-103927038D01*
X150932009Y-103883228D01*
X151019628Y-103839419D01*
X151151057Y-103839419D01*
X151238676Y-103883228D01*
X151282485Y-103927038D01*
X151326295Y-104014657D01*
X151326295Y-104365133D01*
X150844390Y-103576561D02*
X151764390Y-103269895D01*
X150844390Y-102963228D01*
X151764390Y-102174657D02*
X151764390Y-102700371D01*
X151764390Y-102437514D02*
X150844390Y-102437514D01*
X150975819Y-102525133D01*
X151063438Y-102612752D01*
X151107247Y-102700371D01*
X129286095Y-114498380D02*
X129286095Y-113498380D01*
X129286095Y-113974571D02*
X129857523Y-113974571D01*
X129857523Y-114498380D02*
X129857523Y-113498380D01*
X130762285Y-113498380D02*
X130571809Y-113498380D01*
X130476571Y-113546000D01*
X130428952Y-113593619D01*
X130333714Y-113736476D01*
X130286095Y-113926952D01*
X130286095Y-114307904D01*
X130333714Y-114403142D01*
X130381333Y-114450761D01*
X130476571Y-114498380D01*
X130667047Y-114498380D01*
X130762285Y-114450761D01*
X130809904Y-114403142D01*
X130857523Y-114307904D01*
X130857523Y-114069809D01*
X130809904Y-113974571D01*
X130762285Y-113926952D01*
X130667047Y-113879333D01*
X130476571Y-113879333D01*
X130381333Y-113926952D01*
X130333714Y-113974571D01*
X130286095Y-114069809D01*
X166238095Y-115452380D02*
X166238095Y-114452380D01*
X166238095Y-114928571D02*
X166809523Y-114928571D01*
X166809523Y-115452380D02*
X166809523Y-114452380D01*
X167190476Y-114452380D02*
X167809523Y-114452380D01*
X167476190Y-114833333D01*
X167619047Y-114833333D01*
X167714285Y-114880952D01*
X167761904Y-114928571D01*
X167809523Y-115023809D01*
X167809523Y-115261904D01*
X167761904Y-115357142D01*
X167714285Y-115404761D01*
X167619047Y-115452380D01*
X167333333Y-115452380D01*
X167238095Y-115404761D01*
X167190476Y-115357142D01*
X181713142Y-67491714D02*
X181760761Y-67539333D01*
X181808380Y-67682190D01*
X181808380Y-67777428D01*
X181760761Y-67920285D01*
X181665523Y-68015523D01*
X181570285Y-68063142D01*
X181379809Y-68110761D01*
X181236952Y-68110761D01*
X181046476Y-68063142D01*
X180951238Y-68015523D01*
X180856000Y-67920285D01*
X180808380Y-67777428D01*
X180808380Y-67682190D01*
X180856000Y-67539333D01*
X180903619Y-67491714D01*
X181808380Y-66920285D02*
X181760761Y-67015523D01*
X181713142Y-67063142D01*
X181617904Y-67110761D01*
X181332190Y-67110761D01*
X181236952Y-67063142D01*
X181189333Y-67015523D01*
X181141714Y-66920285D01*
X181141714Y-66777428D01*
X181189333Y-66682190D01*
X181236952Y-66634571D01*
X181332190Y-66586952D01*
X181617904Y-66586952D01*
X181713142Y-66634571D01*
X181760761Y-66682190D01*
X181808380Y-66777428D01*
X181808380Y-66920285D01*
X181141714Y-66158380D02*
X181808380Y-66158380D01*
X181236952Y-66158380D02*
X181189333Y-66110761D01*
X181141714Y-66015523D01*
X181141714Y-65872666D01*
X181189333Y-65777428D01*
X181284571Y-65729809D01*
X181808380Y-65729809D01*
X181141714Y-65253619D02*
X181808380Y-65253619D01*
X181236952Y-65253619D02*
X181189333Y-65206000D01*
X181141714Y-65110761D01*
X181141714Y-64967904D01*
X181189333Y-64872666D01*
X181284571Y-64825047D01*
X181808380Y-64825047D01*
X181903619Y-64586952D02*
X181903619Y-63825047D01*
X180808380Y-63396476D02*
X180808380Y-63301238D01*
X180856000Y-63206000D01*
X180903619Y-63158380D01*
X180998857Y-63110761D01*
X181189333Y-63063142D01*
X181427428Y-63063142D01*
X181617904Y-63110761D01*
X181713142Y-63158380D01*
X181760761Y-63206000D01*
X181808380Y-63301238D01*
X181808380Y-63396476D01*
X181760761Y-63491714D01*
X181713142Y-63539333D01*
X181617904Y-63586952D01*
X181427428Y-63634571D01*
X181189333Y-63634571D01*
X180998857Y-63586952D01*
X180903619Y-63539333D01*
X180856000Y-63491714D01*
X180808380Y-63396476D01*
X181808380Y-62110761D02*
X181808380Y-62682190D01*
X181808380Y-62396476D02*
X180808380Y-62396476D01*
X180951238Y-62491714D01*
X181046476Y-62586952D01*
X181094095Y-62682190D01*
X181808380Y-61777428D02*
X181141714Y-61253619D01*
X181141714Y-61777428D02*
X181808380Y-61253619D01*
X180808380Y-60682190D02*
X180808380Y-60586952D01*
X180856000Y-60491714D01*
X180903619Y-60444095D01*
X180998857Y-60396476D01*
X181189333Y-60348857D01*
X181427428Y-60348857D01*
X181617904Y-60396476D01*
X181713142Y-60444095D01*
X181760761Y-60491714D01*
X181808380Y-60586952D01*
X181808380Y-60682190D01*
X181760761Y-60777428D01*
X181713142Y-60825047D01*
X181617904Y-60872666D01*
X181427428Y-60920285D01*
X181189333Y-60920285D01*
X180998857Y-60872666D01*
X180903619Y-60825047D01*
X180856000Y-60777428D01*
X180808380Y-60682190D01*
X180903619Y-59967904D02*
X180856000Y-59920285D01*
X180808380Y-59825047D01*
X180808380Y-59586952D01*
X180856000Y-59491714D01*
X180903619Y-59444095D01*
X180998857Y-59396476D01*
X181094095Y-59396476D01*
X181236952Y-59444095D01*
X181808380Y-60015523D01*
X181808380Y-59396476D01*
X181903619Y-59206000D02*
X181903619Y-58444095D01*
X181284571Y-57872666D02*
X181284571Y-58206000D01*
X181808380Y-58206000D02*
X180808380Y-58206000D01*
X180808380Y-57729809D01*
X181760761Y-56967904D02*
X181808380Y-57063142D01*
X181808380Y-57253619D01*
X181760761Y-57348857D01*
X181665523Y-57396476D01*
X181284571Y-57396476D01*
X181189333Y-57348857D01*
X181141714Y-57253619D01*
X181141714Y-57063142D01*
X181189333Y-56967904D01*
X181284571Y-56920285D01*
X181379809Y-56920285D01*
X181475047Y-57396476D01*
X181808380Y-56491714D02*
X181141714Y-56491714D01*
X181236952Y-56491714D02*
X181189333Y-56444095D01*
X181141714Y-56348857D01*
X181141714Y-56206000D01*
X181189333Y-56110761D01*
X181284571Y-56063142D01*
X181808380Y-56063142D01*
X181284571Y-56063142D02*
X181189333Y-56015523D01*
X181141714Y-55920285D01*
X181141714Y-55777428D01*
X181189333Y-55682190D01*
X181284571Y-55634571D01*
X181808380Y-55634571D01*
X181808380Y-54729809D02*
X181284571Y-54729809D01*
X181189333Y-54777428D01*
X181141714Y-54872666D01*
X181141714Y-55063142D01*
X181189333Y-55158380D01*
X181760761Y-54729809D02*
X181808380Y-54825047D01*
X181808380Y-55063142D01*
X181760761Y-55158380D01*
X181665523Y-55206000D01*
X181570285Y-55206000D01*
X181475047Y-55158380D01*
X181427428Y-55063142D01*
X181427428Y-54825047D01*
X181379809Y-54729809D01*
X181808380Y-54110761D02*
X181760761Y-54206000D01*
X181665523Y-54253619D01*
X180808380Y-54253619D01*
X181760761Y-53348857D02*
X181808380Y-53444095D01*
X181808380Y-53634571D01*
X181760761Y-53729809D01*
X181665523Y-53777428D01*
X181284571Y-53777428D01*
X181189333Y-53729809D01*
X181141714Y-53634571D01*
X181141714Y-53444095D01*
X181189333Y-53348857D01*
X181284571Y-53301238D01*
X181379809Y-53301238D01*
X181475047Y-53777428D01*
X176704666Y-60031380D02*
X176704666Y-60745666D01*
X176657047Y-60888523D01*
X176561809Y-60983761D01*
X176418952Y-61031380D01*
X176323714Y-61031380D01*
X177085619Y-60031380D02*
X177704666Y-60031380D01*
X177371333Y-60412333D01*
X177514190Y-60412333D01*
X177609428Y-60459952D01*
X177657047Y-60507571D01*
X177704666Y-60602809D01*
X177704666Y-60840904D01*
X177657047Y-60936142D01*
X177609428Y-60983761D01*
X177514190Y-61031380D01*
X177228476Y-61031380D01*
X177133238Y-60983761D01*
X177085619Y-60936142D01*
X99862666Y-55300571D02*
X99529333Y-55300571D01*
X99529333Y-55824380D02*
X99529333Y-54824380D01*
X100005523Y-54824380D01*
X100910285Y-55824380D02*
X100338857Y-55824380D01*
X100624571Y-55824380D02*
X100624571Y-54824380D01*
X100529333Y-54967238D01*
X100434095Y-55062476D01*
X100338857Y-55110095D01*
X89342380Y-97111238D02*
X89342380Y-97682666D01*
X89342380Y-97396952D02*
X88342380Y-97396952D01*
X88485238Y-97492190D01*
X88580476Y-97587428D01*
X88628095Y-97682666D01*
X88342380Y-96492190D02*
X88342380Y-96396952D01*
X88390000Y-96301714D01*
X88437619Y-96254095D01*
X88532857Y-96206476D01*
X88723333Y-96158857D01*
X88961428Y-96158857D01*
X89151904Y-96206476D01*
X89247142Y-96254095D01*
X89294761Y-96301714D01*
X89342380Y-96396952D01*
X89342380Y-96492190D01*
X89294761Y-96587428D01*
X89247142Y-96635047D01*
X89151904Y-96682666D01*
X88961428Y-96730285D01*
X88723333Y-96730285D01*
X88532857Y-96682666D01*
X88437619Y-96635047D01*
X88390000Y-96587428D01*
X88342380Y-96492190D01*
X89342380Y-95730285D02*
X88342380Y-95730285D01*
X88961428Y-95635047D02*
X89342380Y-95349333D01*
X88675714Y-95349333D02*
X89056666Y-95730285D01*
D12*
X90766190Y-96599333D02*
X90528095Y-96766000D01*
X90766190Y-96885047D02*
X90266190Y-96885047D01*
X90266190Y-96694571D01*
X90290000Y-96646952D01*
X90313809Y-96623142D01*
X90361428Y-96599333D01*
X90432857Y-96599333D01*
X90480476Y-96623142D01*
X90504285Y-96646952D01*
X90528095Y-96694571D01*
X90528095Y-96885047D01*
X90266190Y-96170761D02*
X90266190Y-96266000D01*
X90290000Y-96313619D01*
X90313809Y-96337428D01*
X90385238Y-96385047D01*
X90480476Y-96408857D01*
X90670952Y-96408857D01*
X90718571Y-96385047D01*
X90742380Y-96361238D01*
X90766190Y-96313619D01*
X90766190Y-96218380D01*
X90742380Y-96170761D01*
X90718571Y-96146952D01*
X90670952Y-96123142D01*
X90551904Y-96123142D01*
X90504285Y-96146952D01*
X90480476Y-96170761D01*
X90456666Y-96218380D01*
X90456666Y-96313619D01*
X90480476Y-96361238D01*
X90504285Y-96385047D01*
X90551904Y-96408857D01*
D11*
X86661666Y-82764380D02*
X86661666Y-83478666D01*
X86614047Y-83621523D01*
X86518809Y-83716761D01*
X86375952Y-83764380D01*
X86280714Y-83764380D01*
X87566428Y-82764380D02*
X87375952Y-82764380D01*
X87280714Y-82812000D01*
X87233095Y-82859619D01*
X87137857Y-83002476D01*
X87090238Y-83192952D01*
X87090238Y-83573904D01*
X87137857Y-83669142D01*
X87185476Y-83716761D01*
X87280714Y-83764380D01*
X87471190Y-83764380D01*
X87566428Y-83716761D01*
X87614047Y-83669142D01*
X87661666Y-83573904D01*
X87661666Y-83335809D01*
X87614047Y-83240571D01*
X87566428Y-83192952D01*
X87471190Y-83145333D01*
X87280714Y-83145333D01*
X87185476Y-83192952D01*
X87137857Y-83240571D01*
X87090238Y-83335809D01*
X163242666Y-55300571D02*
X162909333Y-55300571D01*
X162909333Y-55824380D02*
X162909333Y-54824380D01*
X163385523Y-54824380D01*
X164195047Y-54824380D02*
X164004571Y-54824380D01*
X163909333Y-54872000D01*
X163861714Y-54919619D01*
X163766476Y-55062476D01*
X163718857Y-55252952D01*
X163718857Y-55633904D01*
X163766476Y-55729142D01*
X163814095Y-55776761D01*
X163909333Y-55824380D01*
X164099809Y-55824380D01*
X164195047Y-55776761D01*
X164242666Y-55729142D01*
X164290285Y-55633904D01*
X164290285Y-55395809D01*
X164242666Y-55300571D01*
X164195047Y-55252952D01*
X164099809Y-55205333D01*
X163909333Y-55205333D01*
X163814095Y-55252952D01*
X163766476Y-55300571D01*
X163718857Y-55395809D01*
X142192476Y-71428571D02*
X141859142Y-71428571D01*
X141859142Y-71952380D02*
X141859142Y-70952380D01*
X142335333Y-70952380D01*
X143240095Y-71952380D02*
X142668666Y-71952380D01*
X142954380Y-71952380D02*
X142954380Y-70952380D01*
X142859142Y-71095238D01*
X142763904Y-71190476D01*
X142668666Y-71238095D01*
X144144857Y-70952380D02*
X143668666Y-70952380D01*
X143621047Y-71428571D01*
X143668666Y-71380952D01*
X143763904Y-71333333D01*
X144002000Y-71333333D01*
X144097238Y-71380952D01*
X144144857Y-71428571D01*
X144192476Y-71523809D01*
X144192476Y-71761904D01*
X144144857Y-71857142D01*
X144097238Y-71904761D01*
X144002000Y-71952380D01*
X143763904Y-71952380D01*
X143668666Y-71904761D01*
X143621047Y-71857142D01*
X89428571Y-119252380D02*
X89428571Y-118252380D01*
X89761904Y-118966666D01*
X90095238Y-118252380D01*
X90095238Y-119252380D01*
X90714285Y-119252380D02*
X90619047Y-119204761D01*
X90571428Y-119157142D01*
X90523809Y-119061904D01*
X90523809Y-118776190D01*
X90571428Y-118680952D01*
X90619047Y-118633333D01*
X90714285Y-118585714D01*
X90857142Y-118585714D01*
X90952380Y-118633333D01*
X91000000Y-118680952D01*
X91047619Y-118776190D01*
X91047619Y-119061904D01*
X91000000Y-119157142D01*
X90952380Y-119204761D01*
X90857142Y-119252380D01*
X90714285Y-119252380D01*
X91904761Y-118585714D02*
X91904761Y-119252380D01*
X91476190Y-118585714D02*
X91476190Y-119109523D01*
X91523809Y-119204761D01*
X91619047Y-119252380D01*
X91761904Y-119252380D01*
X91857142Y-119204761D01*
X91904761Y-119157142D01*
X92380952Y-118585714D02*
X92380952Y-119252380D01*
X92380952Y-118680952D02*
X92428571Y-118633333D01*
X92523809Y-118585714D01*
X92666666Y-118585714D01*
X92761904Y-118633333D01*
X92809523Y-118728571D01*
X92809523Y-119252380D01*
X93142857Y-118585714D02*
X93523809Y-118585714D01*
X93285714Y-118252380D02*
X93285714Y-119109523D01*
X93333333Y-119204761D01*
X93428571Y-119252380D01*
X93523809Y-119252380D01*
X93857142Y-119252380D02*
X93857142Y-118585714D01*
X93857142Y-118252380D02*
X93809523Y-118300000D01*
X93857142Y-118347619D01*
X93904761Y-118300000D01*
X93857142Y-118252380D01*
X93857142Y-118347619D01*
X94333333Y-118585714D02*
X94333333Y-119252380D01*
X94333333Y-118680952D02*
X94380952Y-118633333D01*
X94476190Y-118585714D01*
X94619047Y-118585714D01*
X94714285Y-118633333D01*
X94761904Y-118728571D01*
X94761904Y-119252380D01*
X95666666Y-118585714D02*
X95666666Y-119395238D01*
X95619047Y-119490476D01*
X95571428Y-119538095D01*
X95476190Y-119585714D01*
X95333333Y-119585714D01*
X95238095Y-119538095D01*
X95666666Y-119204761D02*
X95571428Y-119252380D01*
X95380952Y-119252380D01*
X95285714Y-119204761D01*
X95238095Y-119157142D01*
X95190476Y-119061904D01*
X95190476Y-118776190D01*
X95238095Y-118680952D01*
X95285714Y-118633333D01*
X95380952Y-118585714D01*
X95571428Y-118585714D01*
X95666666Y-118633333D01*
X96142857Y-119252380D02*
X96142857Y-118252380D01*
X96142857Y-118728571D02*
X96714285Y-118728571D01*
X96714285Y-119252380D02*
X96714285Y-118252380D01*
X97333333Y-119252380D02*
X97238095Y-119204761D01*
X97190476Y-119157142D01*
X97142857Y-119061904D01*
X97142857Y-118776190D01*
X97190476Y-118680952D01*
X97238095Y-118633333D01*
X97333333Y-118585714D01*
X97476190Y-118585714D01*
X97571428Y-118633333D01*
X97619047Y-118680952D01*
X97666666Y-118776190D01*
X97666666Y-119061904D01*
X97619047Y-119157142D01*
X97571428Y-119204761D01*
X97476190Y-119252380D01*
X97333333Y-119252380D01*
X98238095Y-119252380D02*
X98142857Y-119204761D01*
X98095238Y-119109523D01*
X98095238Y-118252380D01*
X99000000Y-119204761D02*
X98904761Y-119252380D01*
X98714285Y-119252380D01*
X98619047Y-119204761D01*
X98571428Y-119109523D01*
X98571428Y-118728571D01*
X98619047Y-118633333D01*
X98714285Y-118585714D01*
X98904761Y-118585714D01*
X99000000Y-118633333D01*
X99047619Y-118728571D01*
X99047619Y-118823809D01*
X98571428Y-118919047D01*
X99238095Y-119347619D02*
X100000000Y-119347619D01*
X100238095Y-119252380D02*
X100238095Y-118252380D01*
X100619047Y-118252380D01*
X100714285Y-118300000D01*
X100761904Y-118347619D01*
X100809523Y-118442857D01*
X100809523Y-118585714D01*
X100761904Y-118680952D01*
X100714285Y-118728571D01*
X100619047Y-118776190D01*
X100238095Y-118776190D01*
X101666666Y-119252380D02*
X101666666Y-118728571D01*
X101619047Y-118633333D01*
X101523809Y-118585714D01*
X101333333Y-118585714D01*
X101238095Y-118633333D01*
X101666666Y-119204761D02*
X101571428Y-119252380D01*
X101333333Y-119252380D01*
X101238095Y-119204761D01*
X101190476Y-119109523D01*
X101190476Y-119014285D01*
X101238095Y-118919047D01*
X101333333Y-118871428D01*
X101571428Y-118871428D01*
X101666666Y-118823809D01*
X102571428Y-119252380D02*
X102571428Y-118252380D01*
X102571428Y-119204761D02*
X102476190Y-119252380D01*
X102285714Y-119252380D01*
X102190476Y-119204761D01*
X102142857Y-119157142D01*
X102095238Y-119061904D01*
X102095238Y-118776190D01*
X102142857Y-118680952D01*
X102190476Y-118633333D01*
X102285714Y-118585714D01*
X102476190Y-118585714D01*
X102571428Y-118633333D01*
X95238095Y-115452380D02*
X95238095Y-114452380D01*
X95238095Y-114928571D02*
X95809523Y-114928571D01*
X95809523Y-115452380D02*
X95809523Y-114452380D01*
X96714285Y-114785714D02*
X96714285Y-115452380D01*
X96476190Y-114404761D02*
X96238095Y-115119047D01*
X96857142Y-115119047D01*
X119434380Y-81593333D02*
X120148666Y-81593333D01*
X120291523Y-81640952D01*
X120386761Y-81736190D01*
X120434380Y-81879047D01*
X120434380Y-81974285D01*
X120434380Y-80593333D02*
X120434380Y-81164761D01*
X120434380Y-80879047D02*
X119434380Y-80879047D01*
X119577238Y-80974285D01*
X119672476Y-81069523D01*
X119720095Y-81164761D01*
X99913466Y-62920571D02*
X99580133Y-62920571D01*
X99580133Y-63444380D02*
X99580133Y-62444380D01*
X100056323Y-62444380D01*
X100913466Y-62444380D02*
X100437276Y-62444380D01*
X100389657Y-62920571D01*
X100437276Y-62872952D01*
X100532514Y-62825333D01*
X100770609Y-62825333D01*
X100865847Y-62872952D01*
X100913466Y-62920571D01*
X100961085Y-63015809D01*
X100961085Y-63253904D01*
X100913466Y-63349142D01*
X100865847Y-63396761D01*
X100770609Y-63444380D01*
X100532514Y-63444380D01*
X100437276Y-63396761D01*
X100389657Y-63349142D01*
X99412466Y-100182371D02*
X99079133Y-100182371D01*
X99079133Y-100706180D02*
X99079133Y-99706180D01*
X99555323Y-99706180D01*
X100364847Y-100039514D02*
X100364847Y-100706180D01*
X100126752Y-99658561D02*
X99888657Y-100372847D01*
X100507704Y-100372847D01*
X99387066Y-107675371D02*
X99053733Y-107675371D01*
X99053733Y-108199180D02*
X99053733Y-107199180D01*
X99529923Y-107199180D01*
X100053733Y-107627752D02*
X99958495Y-107580133D01*
X99910876Y-107532514D01*
X99863257Y-107437276D01*
X99863257Y-107389657D01*
X99910876Y-107294419D01*
X99958495Y-107246800D01*
X100053733Y-107199180D01*
X100244209Y-107199180D01*
X100339447Y-107246800D01*
X100387066Y-107294419D01*
X100434685Y-107389657D01*
X100434685Y-107437276D01*
X100387066Y-107532514D01*
X100339447Y-107580133D01*
X100244209Y-107627752D01*
X100053733Y-107627752D01*
X99958495Y-107675371D01*
X99910876Y-107722990D01*
X99863257Y-107818228D01*
X99863257Y-108008704D01*
X99910876Y-108103942D01*
X99958495Y-108151561D01*
X100053733Y-108199180D01*
X100244209Y-108199180D01*
X100339447Y-108151561D01*
X100387066Y-108103942D01*
X100434685Y-108008704D01*
X100434685Y-107818228D01*
X100387066Y-107722990D01*
X100339447Y-107675371D01*
X100244209Y-107627752D01*
D13*
X112345200Y-60790400D02*
X112345200Y-67530400D01*
X112345200Y-67530400D02*
X128345200Y-67530400D01*
X128345200Y-60790400D02*
X112345200Y-60790400D01*
X128345200Y-67530400D02*
X128345200Y-60790400D01*
X108474000Y-67447000D02*
X110474000Y-67447000D01*
X110474000Y-67447000D02*
X110474000Y-68697000D01*
X108474000Y-68697000D02*
X108474000Y-67447000D01*
X110474000Y-68697000D02*
X108474000Y-68697000D01*
X155576000Y-66362000D02*
X171576000Y-66362000D01*
X171576000Y-66362000D02*
X171576000Y-59622000D01*
X155576000Y-59622000D02*
X155576000Y-66362000D01*
X171576000Y-59622000D02*
X155576000Y-59622000D01*
X153832000Y-75708000D02*
X153832000Y-77708000D01*
X153832000Y-77708000D02*
X155032000Y-77708000D01*
X155032000Y-76008000D02*
X154732000Y-75708000D01*
X154732000Y-75708000D02*
X153832000Y-75708000D01*
X155032000Y-77708000D02*
X155032000Y-76008000D01*
X172000000Y-81130000D02*
X156000000Y-81130000D01*
X156000000Y-81130000D02*
X156000000Y-87870000D01*
X172000000Y-87870000D02*
X172000000Y-81130000D01*
X156000000Y-87870000D02*
X172000000Y-87870000D01*
X109566000Y-70420000D02*
X109266000Y-70120000D01*
X108366000Y-72120000D02*
X109566000Y-72120000D01*
X109266000Y-70120000D02*
X108366000Y-70120000D01*
X108366000Y-70120000D02*
X108366000Y-72120000D01*
X109566000Y-72120000D02*
X109566000Y-70420000D01*
X156363400Y-110532600D02*
X172363400Y-110532600D01*
X156363400Y-103792600D02*
X156363400Y-110532600D01*
X172363400Y-110532600D02*
X172363400Y-103792600D01*
X172363400Y-103792600D02*
X156363400Y-103792600D01*
X168640000Y-69896000D02*
X168640000Y-68996000D01*
X168640000Y-68996000D02*
X166640000Y-68996000D01*
X166640000Y-70196000D02*
X168340000Y-70196000D01*
X166640000Y-68996000D02*
X166640000Y-70196000D01*
X168340000Y-70196000D02*
X168640000Y-69896000D01*
X172515800Y-96121800D02*
X156515800Y-96121800D01*
X156515800Y-102861800D02*
X172515800Y-102861800D01*
X172515800Y-102861800D02*
X172515800Y-96121800D01*
X156515800Y-96121800D02*
X156515800Y-102861800D01*
X177585000Y-74516000D02*
X176335000Y-74516000D01*
X176335000Y-72516000D02*
X177585000Y-72516000D01*
X177585000Y-72516000D02*
X177585000Y-74516000D01*
X176335000Y-74516000D02*
X176335000Y-72516000D01*
X88630000Y-94900000D02*
X86630000Y-94900000D01*
X86630000Y-96100000D02*
X88330000Y-96100000D01*
X86630000Y-94900000D02*
X86630000Y-96100000D01*
X88630000Y-95800000D02*
X88630000Y-94900000D01*
X88330000Y-96100000D02*
X88630000Y-95800000D01*
X114720400Y-98261800D02*
X112720400Y-98261800D01*
X114720400Y-97011800D02*
X114720400Y-98261800D01*
X112720400Y-98261800D02*
X112720400Y-97011800D01*
X112720400Y-97011800D02*
X114720400Y-97011800D01*
X175784000Y-95342000D02*
X177784000Y-95342000D01*
X176084000Y-94142000D02*
X175784000Y-94442000D01*
X177784000Y-95342000D02*
X177784000Y-94142000D01*
X177784000Y-94142000D02*
X176084000Y-94142000D01*
X175784000Y-94442000D02*
X175784000Y-95342000D01*
X91936600Y-69636400D02*
X91936600Y-67636400D01*
X91936600Y-67636400D02*
X93186600Y-67636400D01*
X93186600Y-69636400D02*
X91936600Y-69636400D01*
X93186600Y-67636400D02*
X93186600Y-69636400D01*
X128345200Y-68308800D02*
X112345200Y-68308800D01*
X112345200Y-75048800D02*
X128345200Y-75048800D01*
X128345200Y-75048800D02*
X128345200Y-68308800D01*
X112345200Y-68308800D02*
X112345200Y-75048800D01*
X154484000Y-72987400D02*
X154484000Y-74237400D01*
X154484000Y-74237400D02*
X152484000Y-74237400D01*
X152484000Y-72987400D02*
X154484000Y-72987400D01*
X152484000Y-74237400D02*
X152484000Y-72987400D01*
X151000000Y-67370000D02*
X151000000Y-60630000D01*
X135000000Y-60630000D02*
X135000000Y-67370000D01*
X135000000Y-67370000D02*
X151000000Y-67370000D01*
X151000000Y-60630000D02*
X135000000Y-60630000D01*
X96504000Y-70100000D02*
X96504000Y-68900000D01*
X94804000Y-68900000D02*
X94504000Y-69200000D01*
X94504000Y-70100000D02*
X96504000Y-70100000D01*
X96504000Y-68900000D02*
X94804000Y-68900000D01*
X94504000Y-69200000D02*
X94504000Y-70100000D01*
X156000000Y-73630000D02*
X156000000Y-80370000D01*
X172000000Y-73630000D02*
X156000000Y-73630000D01*
X156000000Y-80370000D02*
X172000000Y-80370000D01*
X172000000Y-80370000D02*
X172000000Y-73630000D01*
X86552000Y-72228000D02*
X86852000Y-71928000D01*
X86852000Y-71928000D02*
X86852000Y-71028000D01*
X86852000Y-71028000D02*
X84852000Y-71028000D01*
X84852000Y-71028000D02*
X84852000Y-72228000D01*
X84852000Y-72228000D02*
X86552000Y-72228000D01*
X107923600Y-81059600D02*
X91923600Y-81059600D01*
X91923600Y-81059600D02*
X91923600Y-87799600D01*
X107923600Y-87799600D02*
X107923600Y-81059600D01*
X91923600Y-87799600D02*
X107923600Y-87799600D01*
X174534200Y-97117600D02*
X173284200Y-97117600D01*
X173284200Y-97117600D02*
X173284200Y-95117600D01*
X174534200Y-95117600D02*
X174534200Y-97117600D01*
X173284200Y-95117600D02*
X174534200Y-95117600D01*
X151622000Y-96911000D02*
X151622000Y-98161000D01*
X149622000Y-98161000D02*
X149622000Y-96911000D01*
X151622000Y-98161000D02*
X149622000Y-98161000D01*
X149622000Y-96911000D02*
X151622000Y-96911000D01*
X91923600Y-73414200D02*
X91923600Y-80154200D01*
X107923600Y-73414200D02*
X91923600Y-73414200D01*
X91923600Y-80154200D02*
X107923600Y-80154200D01*
X107923600Y-80154200D02*
X107923600Y-73414200D01*
X180832000Y-73100000D02*
X180832000Y-71900000D01*
X178832000Y-72200000D02*
X178832000Y-73100000D01*
X178832000Y-73100000D02*
X180832000Y-73100000D01*
X179132000Y-71900000D02*
X178832000Y-72200000D01*
X180832000Y-71900000D02*
X179132000Y-71900000D01*
X171046000Y-67611000D02*
X171046000Y-69611000D01*
X171046000Y-69611000D02*
X169796000Y-69611000D01*
X169796000Y-67611000D02*
X171046000Y-67611000D01*
X169796000Y-69611000D02*
X169796000Y-67611000D01*
X89545000Y-71644000D02*
X90795000Y-71644000D01*
X89545000Y-73644000D02*
X89545000Y-71644000D01*
X90795000Y-73644000D02*
X89545000Y-73644000D01*
X90795000Y-71644000D02*
X90795000Y-73644000D01*
X153598200Y-99326800D02*
X149098200Y-99326800D01*
X153210200Y-100546800D02*
X151447200Y-100545800D01*
X153598200Y-106036800D02*
X153598200Y-99326800D01*
X149098200Y-99326800D02*
X149098200Y-106036800D01*
X149098200Y-106036800D02*
X153598200Y-106036800D01*
X153210200Y-100546800D02*
X151447200Y-100545800D01*
X153218200Y-100546800D02*
G75*
G03*
X153218200Y-100546800I-890000J0D01*
G01*
X108196000Y-58742000D02*
X108196000Y-52002000D01*
X92196000Y-52002000D02*
X92196000Y-58742000D01*
X108196000Y-52002000D02*
X92196000Y-52002000D01*
X92196000Y-58742000D02*
X108196000Y-58742000D01*
X89915000Y-95516000D02*
X91165000Y-95516000D01*
X91165000Y-95516000D02*
X91165000Y-97516000D01*
X89915000Y-97516000D02*
X89915000Y-95516000D01*
X91165000Y-97516000D02*
X89915000Y-97516000D01*
X171576000Y-52002000D02*
X155576000Y-52002000D01*
X155576000Y-58742000D02*
X171576000Y-58742000D01*
X155576000Y-52002000D02*
X155576000Y-58742000D01*
X171576000Y-58742000D02*
X171576000Y-52002000D01*
X135002000Y-74870000D02*
X151002000Y-74870000D01*
X135002000Y-68130000D02*
X135002000Y-74870000D01*
X151002000Y-68130000D02*
X135002000Y-68130000D01*
X151002000Y-74870000D02*
X151002000Y-68130000D01*
X125032000Y-77560000D02*
X119282000Y-77560000D01*
X119282000Y-84960000D02*
X125032000Y-84960000D01*
X119282000Y-77560000D02*
X119282000Y-84960000D01*
X125032000Y-84960000D02*
X125032000Y-77560000D01*
X125032000Y-79385000D02*
X124032000Y-80010000D01*
X124032000Y-80010000D02*
X125032000Y-80635000D01*
X108246800Y-66362000D02*
X108246800Y-59622000D01*
X92246800Y-59622000D02*
X92246800Y-66362000D01*
X108246800Y-59622000D02*
X92246800Y-59622000D01*
X92246800Y-66362000D02*
X108246800Y-66362000D01*
X91745800Y-96883800D02*
X91745800Y-103623800D01*
X107745800Y-96883800D02*
X91745800Y-96883800D01*
X107745800Y-103623800D02*
X107745800Y-96883800D01*
X91745800Y-103623800D02*
X107745800Y-103623800D01*
X91720400Y-111116800D02*
X107720400Y-111116800D01*
X107720400Y-104376800D02*
X91720400Y-104376800D01*
X91720400Y-104376800D02*
X91720400Y-111116800D01*
X107720400Y-111116800D02*
X107720400Y-104376800D01*
M02*
