G04 #@! TF.GenerationSoftware,KiCad,Pcbnew,(6.0.1)*
G04 #@! TF.CreationDate,2022-02-13T16:01:43-07:00*
G04 #@! TF.ProjectId,MinesRobotics_PDB,4d696e65-7352-46f6-926f-746963735f50,rev?*
G04 #@! TF.SameCoordinates,Original*
G04 #@! TF.FileFunction,Soldermask,Top*
G04 #@! TF.FilePolarity,Negative*
%FSLAX46Y46*%
G04 Gerber Fmt 4.6, Leading zero omitted, Abs format (unit mm)*
G04 Created by KiCad (PCBNEW (6.0.1)) date 2022-02-13 16:01:43*
%MOMM*%
%LPD*%
G01*
G04 APERTURE LIST*
G04 Aperture macros list*
%AMRoundRect*
0 Rectangle with rounded corners*
0 $1 Rounding radius*
0 $2 $3 $4 $5 $6 $7 $8 $9 X,Y pos of 4 corners*
0 Add a 4 corners polygon primitive as box body*
4,1,4,$2,$3,$4,$5,$6,$7,$8,$9,$2,$3,0*
0 Add four circle primitives for the rounded corners*
1,1,$1+$1,$2,$3*
1,1,$1+$1,$4,$5*
1,1,$1+$1,$6,$7*
1,1,$1+$1,$8,$9*
0 Add four rect primitives between the rounded corners*
20,1,$1+$1,$2,$3,$4,$5,0*
20,1,$1+$1,$4,$5,$6,$7,0*
20,1,$1+$1,$6,$7,$8,$9,0*
20,1,$1+$1,$8,$9,$2,$3,0*%
G04 Aperture macros list end*
%ADD10C,5.702000*%
%ADD11O,5.602000X3.902000*%
%ADD12O,5.402000X3.902000*%
%ADD13RoundRect,0.251000X0.275000X-0.200000X0.275000X0.200000X-0.275000X0.200000X-0.275000X-0.200000X0*%
%ADD14RoundRect,0.269750X0.218750X0.256250X-0.218750X0.256250X-0.218750X-0.256250X0.218750X-0.256250X0*%
%ADD15O,7.102000X2.602000*%
%ADD16O,2.602000X7.102000*%
%ADD17RoundRect,0.269750X-0.218750X-0.256250X0.218750X-0.256250X0.218750X0.256250X-0.218750X0.256250X0*%
%ADD18RoundRect,0.251000X-0.200000X-0.275000X0.200000X-0.275000X0.200000X0.275000X-0.200000X0.275000X0*%
%ADD19C,1.902000*%
%ADD20C,2.602000*%
%ADD21C,1.542000*%
%ADD22RoundRect,0.301000X-0.600000X-0.750000X0.600000X-0.750000X0.600000X0.750000X-0.600000X0.750000X0*%
%ADD23O,1.802000X2.102000*%
G04 APERTURE END LIST*
D10*
X96000000Y-68000000D03*
D11*
X105143000Y-70485000D03*
D12*
X113143000Y-70485000D03*
D13*
X117348000Y-73723000D03*
X117348000Y-72073000D03*
D11*
X159705000Y-59055000D03*
D12*
X167705000Y-59055000D03*
D14*
X143738700Y-73964800D03*
X142163700Y-73964800D03*
D11*
X159880000Y-81935000D03*
D12*
X167880000Y-81935000D03*
D15*
X86995000Y-103355000D03*
X86995000Y-111275000D03*
D14*
X115722500Y-74168000D03*
X114147500Y-74168000D03*
D16*
X146962000Y-55626000D03*
X139042000Y-55626000D03*
D11*
X160020000Y-105435000D03*
D12*
X168020000Y-105435000D03*
D14*
X169926000Y-62484000D03*
X168351000Y-62484000D03*
D15*
X86995000Y-56619000D03*
X86995000Y-64539000D03*
D11*
X160020000Y-100465000D03*
D12*
X168020000Y-100465000D03*
D13*
X171704000Y-85280000D03*
X171704000Y-83630000D03*
D17*
X93827500Y-108839000D03*
X95402500Y-108839000D03*
D10*
X167000000Y-68000000D03*
D15*
X177038000Y-79860000D03*
X177038000Y-87780000D03*
D18*
X112895400Y-97636800D03*
X114545400Y-97636800D03*
D14*
X170154700Y-109067600D03*
X168579700Y-109067600D03*
D16*
X116182000Y-55753000D03*
X124102000Y-55753000D03*
D13*
X91897200Y-63207400D03*
X91897200Y-61557400D03*
D11*
X105143000Y-65540000D03*
D12*
X113143000Y-65540000D03*
D13*
X145338800Y-73773800D03*
X145338800Y-72123800D03*
D11*
X157239000Y-70231000D03*
D12*
X149239000Y-70231000D03*
D17*
X93548100Y-63246000D03*
X95123100Y-63246000D03*
D11*
X159880000Y-76990000D03*
D12*
X167880000Y-76990000D03*
D15*
X177038000Y-103101000D03*
X177038000Y-111021000D03*
D17*
X93700500Y-85598000D03*
X95275500Y-85598000D03*
D11*
X104045000Y-82000000D03*
D12*
X96045000Y-82000000D03*
D10*
X146050000Y-82423000D03*
D13*
X171958000Y-108775000D03*
X171958000Y-107125000D03*
D18*
X149365200Y-97713800D03*
X151015200Y-97713800D03*
D11*
X104045000Y-77055000D03*
D12*
X96045000Y-77055000D03*
D14*
X169951500Y-85471000D03*
X168376500Y-85471000D03*
D13*
X171704000Y-62420000D03*
X171704000Y-60770000D03*
D10*
X115062000Y-82550000D03*
D19*
X118029200Y-89910800D03*
X118029200Y-97510800D03*
D20*
X118029200Y-105110800D03*
X146029200Y-105110800D03*
D19*
X146029200Y-101310800D03*
X146029200Y-97510800D03*
X146029200Y-93710800D03*
D20*
X146029200Y-89910800D03*
D19*
X138329200Y-106510800D03*
X142129200Y-106510800D03*
X118029200Y-93710800D03*
D13*
X92075000Y-85661000D03*
X92075000Y-84011000D03*
D21*
X151258200Y-100141800D03*
X151258200Y-102681800D03*
X151258200Y-105221800D03*
D10*
X130048000Y-114046000D03*
X167000000Y-115000000D03*
D15*
X177038000Y-56619000D03*
X177038000Y-64539000D03*
D11*
X103645000Y-54745000D03*
D12*
X95645000Y-54745000D03*
D13*
X92075000Y-108648000D03*
X92075000Y-106998000D03*
D15*
X86995000Y-79352000D03*
X86995000Y-87272000D03*
D11*
X159645000Y-54110000D03*
D12*
X167645000Y-54110000D03*
D11*
X157239000Y-64786000D03*
D12*
X149239000Y-64786000D03*
D10*
X96000000Y-115000000D03*
D22*
X130000000Y-81280000D03*
D23*
X132500000Y-81280000D03*
D11*
X103645000Y-59690000D03*
D12*
X95645000Y-59690000D03*
D11*
X104140000Y-100465000D03*
D12*
X96140000Y-100465000D03*
D11*
X104140000Y-105410000D03*
D12*
X96140000Y-105410000D03*
G36*
X182246444Y-118744558D02*
G01*
X182314494Y-118764800D01*
X182360797Y-118818619D01*
X182372000Y-118870557D01*
X182372000Y-125596813D01*
X182371393Y-125609163D01*
X182351254Y-125813638D01*
X182346435Y-125837864D01*
X182288597Y-126028530D01*
X182279145Y-126051350D01*
X182185220Y-126227072D01*
X182171497Y-126247610D01*
X182045095Y-126401630D01*
X182027630Y-126419095D01*
X181873610Y-126545497D01*
X181853072Y-126559220D01*
X181677350Y-126653145D01*
X181654530Y-126662597D01*
X181463864Y-126720435D01*
X181439638Y-126725254D01*
X181235163Y-126745393D01*
X181222813Y-126746000D01*
X82429187Y-126746000D01*
X82416837Y-126745393D01*
X82212362Y-126725254D01*
X82188136Y-126720435D01*
X81997470Y-126662597D01*
X81974650Y-126653145D01*
X81798928Y-126559220D01*
X81778390Y-126545497D01*
X81624370Y-126419095D01*
X81606905Y-126401630D01*
X81480503Y-126247610D01*
X81466780Y-126227072D01*
X81372855Y-126051350D01*
X81363403Y-126028530D01*
X81305565Y-125837864D01*
X81300746Y-125813638D01*
X81280607Y-125609163D01*
X81280000Y-125596813D01*
X81280000Y-118871000D01*
X81300002Y-118802879D01*
X81353658Y-118756386D01*
X81406000Y-118745000D01*
X115444000Y-118745000D01*
X115512121Y-118765002D01*
X115558614Y-118818658D01*
X115570000Y-118871000D01*
X115570000Y-125711885D01*
X115574475Y-125727124D01*
X115575865Y-125728329D01*
X115583548Y-125730000D01*
X146285885Y-125730000D01*
X146301124Y-125725525D01*
X146302329Y-125724135D01*
X146304000Y-125716452D01*
X146304000Y-118744444D01*
X146324002Y-118676323D01*
X146377658Y-118629830D01*
X146430444Y-118618445D01*
X182246444Y-118744558D01*
G37*
M02*
