M48
; DRILL file {KiCad (6.0.1)} date Wed 16 Feb 2022 10:07:19 PM MST
; FORMAT={-:-/ absolute / inch / decimal}
; #@! TF.CreationDate,2022-02-16T22:07:19-07:00
; #@! TF.GenerationSoftware,Kicad,Pcbnew,(6.0.1)
; #@! TF.FileFunction,Plated,1,2,PTH
FMAT,2
INCH
; #@! TA.AperFunction,Plated,PTH,ViaDrill
T1C0.0157
; #@! TA.AperFunction,Plated,PTH,ComponentDrill
T2C0.0315
; #@! TA.AperFunction,Plated,PTH,ComponentDrill
T3C0.0394
; #@! TA.AperFunction,Plated,PTH,ComponentDrill
T4C0.0472
; #@! TA.AperFunction,Plated,PTH,ComponentDrill
T5C0.0500
; #@! TA.AperFunction,Plated,PTH,ComponentDrill
T6C0.0591
; #@! TA.AperFunction,Plated,PTH,ComponentDrill
T7C0.0701
; #@! TA.AperFunction,Plated,PTH,ComponentDrill
T8C0.1260
%
G90
G05
T1
X4.71Y-3.47
X4.71Y-3.53
X4.71Y-3.59
X4.71Y-4.25
X4.71Y-4.3
X4.71Y-4.35
X4.71Y-4.41
X4.71Y-4.47
X4.76Y-3.47
X4.76Y-3.53
X4.76Y-3.59
X4.77Y-4.25
X4.77Y-4.3
X4.77Y-4.35
X4.77Y-4.41
X4.77Y-4.47
X4.81Y-3.53
X4.82Y-3.59
X4.83Y-4.25
X4.83Y-4.3
X4.83Y-4.35
X4.83Y-4.41
X4.83Y-4.47
X5.0Y-4.07
X5.0Y-4.13
X5.0Y-4.19
X5.05Y-4.07
X5.05Y-4.13
X5.05Y-4.19
X5.1Y-4.07
X5.1Y-4.13
X5.1Y-4.19
X5.16Y-4.07
X5.16Y-4.13
X5.16Y-4.19
X5.22Y-4.07
X5.22Y-4.13
X5.22Y-4.19
X5.28Y-4.07
X5.28Y-4.13
X5.28Y-4.19
X5.46Y-4.29
X5.46Y-4.34
X5.46Y-4.39
X5.46Y-4.45
X5.46Y-4.51
X5.52Y-4.29
X5.52Y-4.34
X5.52Y-4.39
X5.52Y-4.45
X5.52Y-4.51
X5.58Y-4.29
X5.58Y-4.34
X5.58Y-4.39
X5.58Y-4.45
X5.58Y-4.51
X5.69Y-3.62
X5.75Y-3.62
X5.81Y-3.62
X5.89Y-3.52
X5.89Y-3.57
T2
X5.955Y-3.9426
X5.955Y-4.0426
X5.955Y-4.1426
T3
X4.83Y-3.15
X4.83Y-3.2484
T4
X4.6468Y-3.5398
X4.6468Y-3.6894
X4.6468Y-3.839
X5.446Y-4.1933
X5.5956Y-4.1933
X5.7492Y-3.6894
X5.7492Y-3.839
X5.7492Y-3.9886
T6
X4.6468Y-4.1382
X5.7492Y-3.5398
X5.7492Y-4.1382
T7
X3.7307Y-4.1751
X3.7307Y-4.3089
X3.7317Y-3.8801
X3.7317Y-4.0139
X3.7387Y-2.9561
X3.7387Y-3.0899
X3.7387Y-3.2571
X3.7387Y-3.3909
X3.7494Y-2.1131
X3.7494Y-2.2469
X3.7514Y-2.4131
X3.7514Y-2.5469
X4.1213Y-4.1751
X4.1213Y-4.3089
X4.1223Y-3.8801
X4.1223Y-4.0139
X4.1293Y-2.9561
X4.1293Y-3.0899
X4.1293Y-3.2571
X4.1293Y-3.3909
X4.14Y-2.1131
X4.14Y-2.2469
X4.142Y-2.4131
X4.142Y-2.5469
X4.5427Y-2.4591
X4.5427Y-2.5929
X4.5427Y-2.7551
X4.5427Y-2.8889
X4.9333Y-2.4591
X4.9333Y-2.5929
X4.9333Y-2.7551
X4.9333Y-2.8889
X5.4346Y-2.4528
X5.4346Y-2.5866
X5.4347Y-2.748
X5.4347Y-2.8819
X5.8252Y-2.4528
X5.8252Y-2.5866
X5.8253Y-2.748
X5.8253Y-2.8819
X6.2447Y-2.1131
X6.2447Y-2.2469
X6.2447Y-2.4131
X6.2447Y-2.5469
X6.2614Y-2.9646
X6.2614Y-3.0984
X6.2614Y-3.2598
X6.2614Y-3.3937
X6.2757Y-4.1521
X6.2757Y-4.2859
X6.2817Y-3.8501
X6.2817Y-3.9839
X6.6353Y-2.1131
X6.6353Y-2.2469
X6.6353Y-2.4131
X6.6353Y-2.5469
X6.652Y-2.9646
X6.652Y-3.0984
X6.652Y-3.2598
X6.652Y-3.3937
X6.6663Y-4.1521
X6.6663Y-4.2859
X6.6723Y-3.8501
X6.6723Y-3.9839
T8
X3.7795Y-4.5276
X4.05Y-2.75
X4.53Y-3.245
X5.12Y-4.49
X5.75Y-3.245
X6.2402Y-2.7559
X6.5748Y-4.5276
T5
X3.347Y-2.2291G85X3.503Y-2.2291
G05
X3.347Y-2.5409G85X3.503Y-2.5409
G05
X3.347Y-3.1241G85X3.503Y-3.1241
G05
X3.347Y-3.4359G85X3.503Y-3.4359
G05
X3.347Y-4.0691G85X3.503Y-4.0691
G05
X3.347Y-4.3809G85X3.503Y-4.3809
G05
X4.5882Y-2.263G85X4.5882Y-2.1071
G05
X4.9Y-2.263G85X4.9Y-2.1071
G05
X5.4741Y-2.112G85X5.4741Y-2.268
G05
X5.7859Y-2.112G85X5.7859Y-2.268
G05
X6.892Y-2.2291G85X7.048Y-2.2291
G05
X6.892Y-2.5409G85X7.048Y-2.5409
G05
X6.892Y-3.1441G85X7.048Y-3.1441
G05
X6.892Y-3.4559G85X7.048Y-3.4559
G05
X6.892Y-4.0591G85X7.048Y-4.0591
G05
X6.892Y-4.3709G85X7.048Y-4.3709
G05
T0
M30
