G04 #@! TF.GenerationSoftware,KiCad,Pcbnew,(6.0.1)*
G04 #@! TF.CreationDate,2022-02-13T18:10:08-07:00*
G04 #@! TF.ProjectId,MinesRobotics_PDB,4d696e65-7352-46f6-926f-746963735f50,rev?*
G04 #@! TF.SameCoordinates,Original*
G04 #@! TF.FileFunction,Soldermask,Top*
G04 #@! TF.FilePolarity,Negative*
%FSLAX46Y46*%
G04 Gerber Fmt 4.6, Leading zero omitted, Abs format (unit mm)*
G04 Created by KiCad (PCBNEW (6.0.1)) date 2022-02-13 18:10:08*
%MOMM*%
%LPD*%
G01*
G04 APERTURE LIST*
G04 Aperture macros list*
%AMRoundRect*
0 Rectangle with rounded corners*
0 $1 Rounding radius*
0 $2 $3 $4 $5 $6 $7 $8 $9 X,Y pos of 4 corners*
0 Add a 4 corners polygon primitive as box body*
4,1,4,$2,$3,$4,$5,$6,$7,$8,$9,$2,$3,0*
0 Add four circle primitives for the rounded corners*
1,1,$1+$1,$2,$3*
1,1,$1+$1,$4,$5*
1,1,$1+$1,$6,$7*
1,1,$1+$1,$8,$9*
0 Add four rect primitives between the rounded corners*
20,1,$1+$1,$2,$3,$4,$5,0*
20,1,$1+$1,$4,$5,$6,$7,0*
20,1,$1+$1,$6,$7,$8,$9,0*
20,1,$1+$1,$8,$9,$2,$3,0*%
G04 Aperture macros list end*
G04 #@! TA.AperFunction,Profile*
%ADD10C,0.150000*%
G04 #@! TD*
%ADD11C,1.902000*%
%ADD12C,2.602000*%
%ADD13C,5.702000*%
%ADD14C,2.882000*%
%ADD15RoundRect,0.251000X-0.200000X-0.275000X0.200000X-0.275000X0.200000X0.275000X-0.200000X0.275000X0*%
%ADD16RoundRect,0.269750X-0.256250X0.218750X-0.256250X-0.218750X0.256250X-0.218750X0.256250X0.218750X0*%
%ADD17O,7.102000X2.602000*%
%ADD18O,2.602000X7.102000*%
%ADD19RoundRect,0.269750X0.218750X0.256250X-0.218750X0.256250X-0.218750X-0.256250X0.218750X-0.256250X0*%
%ADD20RoundRect,0.251000X-0.275000X0.200000X-0.275000X-0.200000X0.275000X-0.200000X0.275000X0.200000X0*%
%ADD21RoundRect,0.269750X-0.218750X-0.256250X0.218750X-0.256250X0.218750X0.256250X-0.218750X0.256250X0*%
%ADD22RoundRect,0.251000X0.275000X-0.200000X0.275000X0.200000X-0.275000X0.200000X-0.275000X-0.200000X0*%
%ADD23RoundRect,0.251000X0.200000X0.275000X-0.200000X0.275000X-0.200000X-0.275000X0.200000X-0.275000X0*%
%ADD24C,1.542000*%
%ADD25RoundRect,0.301000X-0.600000X-0.750000X0.600000X-0.750000X0.600000X0.750000X-0.600000X0.750000X0*%
%ADD26O,1.802000X2.102000*%
G04 APERTURE END LIST*
D10*
X181229000Y-126746000D02*
G75*
G03*
X182372000Y-125603000I0J1143000D01*
G01*
X82423000Y-50800000D02*
G75*
G03*
X81280000Y-51943000I0J-1143000D01*
G01*
X181229000Y-50800000D02*
X82423000Y-50800000D01*
X82423000Y-126746000D02*
X181229000Y-126746000D01*
X81280000Y-51943000D02*
X81280000Y-125603000D01*
X182372000Y-51943000D02*
G75*
G03*
X181229000Y-50800000I-1143000J0D01*
G01*
X81280000Y-125603000D02*
G75*
G03*
X82423000Y-126746000I1143000J0D01*
G01*
X182372000Y-125603000D02*
X182372000Y-51943000D01*
X181229000Y-126746000D02*
G75*
G03*
X182372000Y-125603000I0J1143000D01*
G01*
X82423000Y-50800000D02*
G75*
G03*
X81280000Y-51943000I0J-1143000D01*
G01*
X181229000Y-50800000D02*
X82423000Y-50800000D01*
X82423000Y-126746000D02*
X181229000Y-126746000D01*
X81280000Y-51943000D02*
X81280000Y-125603000D01*
X182372000Y-51943000D02*
G75*
G03*
X181229000Y-50800000I-1143000J0D01*
G01*
X81280000Y-125603000D02*
G75*
G03*
X82423000Y-126746000I1143000J0D01*
G01*
X182372000Y-125603000D02*
X182372000Y-51943000D01*
D11*
X118029200Y-93710800D03*
X142129200Y-106510800D03*
X138329200Y-106510800D03*
D12*
X146029200Y-89910800D03*
D11*
X146029200Y-93710800D03*
X146029200Y-97510800D03*
X146029200Y-101310800D03*
D12*
X146029200Y-105110800D03*
X118029200Y-105110800D03*
D11*
X118029200Y-97510800D03*
X118029200Y-89910800D03*
D13*
X102870000Y-69850000D03*
D14*
X125305200Y-62460400D03*
X125305200Y-65860400D03*
X115385200Y-62460400D03*
X115385200Y-65860400D03*
D15*
X108675000Y-68500000D03*
X110325000Y-68500000D03*
D14*
X158616000Y-64692000D03*
X158616000Y-61292000D03*
X168536000Y-64692000D03*
X168536000Y-61292000D03*
D16*
X154500000Y-75212500D03*
X154500000Y-76787500D03*
D14*
X159040000Y-86200000D03*
X159040000Y-82800000D03*
X168960000Y-86200000D03*
X168960000Y-82800000D03*
D17*
X86995000Y-103355000D03*
X86995000Y-111275000D03*
D16*
X109000000Y-70212500D03*
X109000000Y-71787500D03*
D18*
X146962000Y-55626000D03*
X139042000Y-55626000D03*
D14*
X159403400Y-108862600D03*
X159403400Y-105462600D03*
X169323400Y-108862600D03*
X169323400Y-105462600D03*
D19*
X168643000Y-69500000D03*
X167068000Y-69500000D03*
D17*
X86995000Y-56619000D03*
X86995000Y-64539000D03*
D14*
X159555800Y-101191800D03*
X159555800Y-97791800D03*
X169475800Y-97791800D03*
X169475800Y-101191800D03*
D20*
X176960000Y-72691000D03*
X176960000Y-74341000D03*
D19*
X88787500Y-95500000D03*
X87212500Y-95500000D03*
D13*
X158500000Y-70000000D03*
D17*
X177038000Y-79860000D03*
X177038000Y-87780000D03*
D15*
X112895400Y-97636800D03*
X114545400Y-97636800D03*
D21*
X175712500Y-95000000D03*
X177287500Y-95000000D03*
D18*
X116540000Y-55500000D03*
X124460000Y-55500000D03*
D22*
X92561600Y-69461400D03*
X92561600Y-67811400D03*
D14*
X125305200Y-69978800D03*
X125305200Y-73378800D03*
X115385200Y-69978800D03*
X115385200Y-73378800D03*
D23*
X154309000Y-73612400D03*
X152659000Y-73612400D03*
D14*
X138040000Y-62300000D03*
X138040000Y-65700000D03*
X147960000Y-62300000D03*
X147960000Y-65700000D03*
D21*
X94212500Y-69500000D03*
X95787500Y-69500000D03*
D14*
X159040000Y-75300000D03*
X159040000Y-78700000D03*
X168960000Y-78700000D03*
X168960000Y-75300000D03*
D17*
X177038000Y-103101000D03*
X177038000Y-111021000D03*
D19*
X88500000Y-72500000D03*
X86925000Y-72500000D03*
D14*
X104883600Y-82729600D03*
X104883600Y-86129600D03*
X94963600Y-82729600D03*
X94963600Y-86129600D03*
D13*
X146050000Y-82423000D03*
D20*
X173909200Y-95292600D03*
X173909200Y-96942600D03*
D15*
X149365200Y-97713800D03*
X151015200Y-97713800D03*
D14*
X104883600Y-75084200D03*
X104883600Y-78484200D03*
X94963600Y-78484200D03*
X94963600Y-75084200D03*
D21*
X178712500Y-72500000D03*
X180287500Y-72500000D03*
D22*
X170421000Y-69436000D03*
X170421000Y-67786000D03*
D13*
X115062000Y-82423000D03*
D20*
X90125500Y-72437000D03*
X90125500Y-74087000D03*
D24*
X151258200Y-100141800D03*
X151258200Y-102681800D03*
X151258200Y-105221800D03*
D13*
X130048000Y-114046000D03*
X167000000Y-115000000D03*
D17*
X177038000Y-56619000D03*
X177038000Y-64539000D03*
D14*
X105156000Y-53672000D03*
X105156000Y-57072000D03*
X95236000Y-57072000D03*
X95236000Y-53672000D03*
D20*
X90540000Y-95691000D03*
X90540000Y-97341000D03*
D17*
X86995000Y-79352000D03*
X86995000Y-87272000D03*
D14*
X158616000Y-57072000D03*
X158616000Y-53672000D03*
X168536000Y-57072000D03*
X168536000Y-53672000D03*
X138042000Y-69800000D03*
X138042000Y-73200000D03*
X147962000Y-69800000D03*
X147962000Y-73200000D03*
D13*
X96000000Y-115000000D03*
D25*
X130000000Y-81280000D03*
D26*
X132500000Y-81280000D03*
D14*
X105206800Y-64692000D03*
X105206800Y-61292000D03*
X95286800Y-64692000D03*
X95286800Y-61292000D03*
X104705800Y-98553800D03*
X104705800Y-101953800D03*
X94785800Y-98553800D03*
X94785800Y-101953800D03*
X104680400Y-106046800D03*
X104680400Y-109446800D03*
X94760400Y-106046800D03*
X94760400Y-109446800D03*
G36*
X182246444Y-118744558D02*
G01*
X182314494Y-118764800D01*
X182360797Y-118818619D01*
X182372000Y-118870557D01*
X182372000Y-125596813D01*
X182371393Y-125609163D01*
X182351254Y-125813638D01*
X182346435Y-125837864D01*
X182288597Y-126028530D01*
X182279145Y-126051350D01*
X182185220Y-126227072D01*
X182171497Y-126247610D01*
X182045095Y-126401630D01*
X182027630Y-126419095D01*
X181873610Y-126545497D01*
X181853072Y-126559220D01*
X181677350Y-126653145D01*
X181654530Y-126662597D01*
X181463864Y-126720435D01*
X181439638Y-126725254D01*
X181235163Y-126745393D01*
X181222813Y-126746000D01*
X82429187Y-126746000D01*
X82416837Y-126745393D01*
X82212362Y-126725254D01*
X82188136Y-126720435D01*
X81997470Y-126662597D01*
X81974650Y-126653145D01*
X81798928Y-126559220D01*
X81778390Y-126545497D01*
X81624370Y-126419095D01*
X81606905Y-126401630D01*
X81480503Y-126247610D01*
X81466780Y-126227072D01*
X81372855Y-126051350D01*
X81363403Y-126028530D01*
X81305565Y-125837864D01*
X81300746Y-125813638D01*
X81280607Y-125609163D01*
X81280000Y-125596813D01*
X81280000Y-118871000D01*
X81300002Y-118802879D01*
X81353658Y-118756386D01*
X81406000Y-118745000D01*
X115444000Y-118745000D01*
X115512121Y-118765002D01*
X115558614Y-118818658D01*
X115570000Y-118871000D01*
X115570000Y-125711885D01*
X115574475Y-125727124D01*
X115575865Y-125728329D01*
X115583548Y-125730000D01*
X146285885Y-125730000D01*
X146301124Y-125725525D01*
X146302329Y-125724135D01*
X146304000Y-125716452D01*
X146304000Y-118744444D01*
X146324002Y-118676323D01*
X146377658Y-118629830D01*
X146430444Y-118618445D01*
X182246444Y-118744558D01*
G37*
M02*
