G04 #@! TF.GenerationSoftware,KiCad,Pcbnew,6.0.1-79c1e3a40b~116~ubuntu21.10.1*
G04 #@! TF.CreationDate,2022-03-15T20:57:57-06:00*
G04 #@! TF.ProjectId,MinesRobotics_PDB,4d696e65-7352-46f6-926f-746963735f50,rev?*
G04 #@! TF.SameCoordinates,Original*
G04 #@! TF.FileFunction,Soldermask,Bot*
G04 #@! TF.FilePolarity,Negative*
%FSLAX46Y46*%
G04 Gerber Fmt 4.6, Leading zero omitted, Abs format (unit mm)*
G04 Created by KiCad (PCBNEW 6.0.1-79c1e3a40b~116~ubuntu21.10.1) date 2022-03-15 20:57:57*
%MOMM*%
%LPD*%
G01*
G04 APERTURE LIST*
G04 Aperture macros list*
%AMRoundRect*
0 Rectangle with rounded corners*
0 $1 Rounding radius*
0 $2 $3 $4 $5 $6 $7 $8 $9 X,Y pos of 4 corners*
0 Add a 4 corners polygon primitive as box body*
4,1,4,$2,$3,$4,$5,$6,$7,$8,$9,$2,$3,0*
0 Add four circle primitives for the rounded corners*
1,1,$1+$1,$2,$3*
1,1,$1+$1,$4,$5*
1,1,$1+$1,$6,$7*
1,1,$1+$1,$8,$9*
0 Add four rect primitives between the rounded corners*
20,1,$1+$1,$2,$3,$4,$5,0*
20,1,$1+$1,$4,$5,$6,$7,0*
20,1,$1+$1,$6,$7,$8,$9,0*
20,1,$1+$1,$8,$9,$2,$3,0*%
G04 Aperture macros list end*
G04 #@! TA.AperFunction,Profile*
%ADD10C,0.150000*%
G04 #@! TD*
%ADD11C,5.702000*%
%ADD12C,2.882000*%
%ADD13O,7.102000X2.602000*%
%ADD14O,2.602000X7.102000*%
%ADD15C,1.902000*%
%ADD16C,2.602000*%
%ADD17C,1.542000*%
%ADD18RoundRect,0.301000X-0.750000X0.600000X-0.750000X-0.600000X0.750000X-0.600000X0.750000X0.600000X0*%
%ADD19O,2.102000X1.802000*%
%ADD20RoundRect,0.301000X1.025000X-0.787500X1.025000X0.787500X-1.025000X0.787500X-1.025000X-0.787500X0*%
%ADD21RoundRect,0.301000X-1.025000X0.787500X-1.025000X-0.787500X1.025000X-0.787500X1.025000X0.787500X0*%
%ADD22RoundRect,0.276000X0.225000X0.250000X-0.225000X0.250000X-0.225000X-0.250000X0.225000X-0.250000X0*%
%ADD23RoundRect,0.276000X0.250000X-0.225000X0.250000X0.225000X-0.250000X0.225000X-0.250000X-0.225000X0*%
G04 APERTURE END LIST*
D10*
X181229000Y-126746000D02*
G75*
G03*
X182372000Y-125603000I0J1143000D01*
G01*
X82423000Y-50800000D02*
G75*
G03*
X81280000Y-51943000I0J-1143000D01*
G01*
X181229000Y-50800000D02*
X82423000Y-50800000D01*
X82423000Y-126746000D02*
X181229000Y-126746000D01*
X81280000Y-51943000D02*
X81280000Y-125603000D01*
X182372000Y-51943000D02*
G75*
G03*
X181229000Y-50800000I-1143000J0D01*
G01*
X81280000Y-125603000D02*
G75*
G03*
X82423000Y-126746000I1143000J0D01*
G01*
X182372000Y-125603000D02*
X182372000Y-51943000D01*
X181229000Y-126746000D02*
G75*
G03*
X182372000Y-125603000I0J1143000D01*
G01*
X82423000Y-50800000D02*
G75*
G03*
X81280000Y-51943000I0J-1143000D01*
G01*
X181229000Y-50800000D02*
X82423000Y-50800000D01*
X82423000Y-126746000D02*
X181229000Y-126746000D01*
X81280000Y-51943000D02*
X81280000Y-125603000D01*
X182372000Y-51943000D02*
G75*
G03*
X181229000Y-50800000I-1143000J0D01*
G01*
X81280000Y-125603000D02*
G75*
G03*
X82423000Y-126746000I1143000J0D01*
G01*
X182372000Y-125603000D02*
X182372000Y-51943000D01*
D11*
X102870000Y-69850000D03*
D12*
X125305200Y-62460400D03*
X125305200Y-65860400D03*
X115385200Y-62460400D03*
X115385200Y-65860400D03*
X158616000Y-64692000D03*
X158616000Y-61292000D03*
X168536000Y-64692000D03*
X168536000Y-61292000D03*
X159040000Y-86200000D03*
X159040000Y-82800000D03*
X168960000Y-86200000D03*
X168960000Y-82800000D03*
D13*
X86995000Y-103355000D03*
X86995000Y-111275000D03*
D14*
X146962000Y-55626000D03*
X139042000Y-55626000D03*
D12*
X159403400Y-108862600D03*
X159403400Y-105462600D03*
X169323400Y-108862600D03*
X169323400Y-105462600D03*
D13*
X86995000Y-56619000D03*
X86995000Y-64539000D03*
D12*
X159555800Y-101191800D03*
X159555800Y-97791800D03*
X169475800Y-97791800D03*
X169475800Y-101191800D03*
D11*
X158500000Y-70000000D03*
D13*
X177038000Y-79860000D03*
X177038000Y-87780000D03*
D14*
X116540000Y-55500000D03*
X124460000Y-55500000D03*
D12*
X125305200Y-69978800D03*
X125305200Y-73378800D03*
X115385200Y-69978800D03*
X115385200Y-73378800D03*
X138040000Y-62300000D03*
X138040000Y-65700000D03*
X147960000Y-62300000D03*
X147960000Y-65700000D03*
X159040000Y-75300000D03*
X159040000Y-78700000D03*
X168960000Y-78700000D03*
X168960000Y-75300000D03*
D13*
X177038000Y-103101000D03*
X177038000Y-111021000D03*
D12*
X104883600Y-82729600D03*
X104883600Y-86129600D03*
X94963600Y-82729600D03*
X94963600Y-86129600D03*
D11*
X146050000Y-81153000D03*
D12*
X104883600Y-75084200D03*
X104883600Y-78484200D03*
X94963600Y-78484200D03*
X94963600Y-75084200D03*
D11*
X115062000Y-81153000D03*
D15*
X118029200Y-88640800D03*
X118029200Y-96240800D03*
D16*
X118029200Y-103840800D03*
X146029200Y-103840800D03*
D15*
X146029200Y-100040800D03*
X146029200Y-96240800D03*
X146029200Y-92440800D03*
D16*
X146029200Y-88640800D03*
D15*
X138329200Y-105240800D03*
X142129200Y-105240800D03*
X118029200Y-92440800D03*
D17*
X151258200Y-98871800D03*
X151258200Y-101411800D03*
X151258200Y-103951800D03*
D11*
X130048000Y-112776000D03*
X167000000Y-115000000D03*
D13*
X177038000Y-56619000D03*
X177038000Y-64539000D03*
D12*
X105156000Y-53672000D03*
X105156000Y-57072000D03*
X95236000Y-57072000D03*
X95236000Y-53672000D03*
D13*
X86995000Y-79352000D03*
X86995000Y-87272000D03*
D12*
X158616000Y-57072000D03*
X158616000Y-53672000D03*
X168536000Y-57072000D03*
X168536000Y-53672000D03*
X138042000Y-69800000D03*
X138042000Y-73200000D03*
X147962000Y-69800000D03*
X147962000Y-73200000D03*
D11*
X96000000Y-115000000D03*
D18*
X122682000Y-78740000D03*
D19*
X122682000Y-81240000D03*
D12*
X105206800Y-64692000D03*
X105206800Y-61292000D03*
X95286800Y-64692000D03*
X95286800Y-61292000D03*
X104705800Y-98553800D03*
X104705800Y-101953800D03*
X94785800Y-98553800D03*
X94785800Y-101953800D03*
X104680400Y-106046800D03*
X104680400Y-109446800D03*
X94760400Y-106046800D03*
X94760400Y-109446800D03*
D20*
X150368000Y-92012500D03*
X150368000Y-85787500D03*
D21*
X121920000Y-89089500D03*
X121920000Y-95314500D03*
D22*
X116345000Y-88392000D03*
X114795000Y-88392000D03*
X117310200Y-86537800D03*
X115760200Y-86537800D03*
D23*
X119126000Y-86119000D03*
X119126000Y-84569000D03*
D22*
X144255000Y-88625200D03*
X142705000Y-88625200D03*
X116345000Y-90170000D03*
X114795000Y-90170000D03*
G36*
X182246444Y-118744558D02*
G01*
X182314494Y-118764800D01*
X182360797Y-118818619D01*
X182372000Y-118870557D01*
X182372000Y-125596813D01*
X182371393Y-125609163D01*
X182351254Y-125813638D01*
X182346435Y-125837864D01*
X182288597Y-126028530D01*
X182279145Y-126051350D01*
X182185220Y-126227072D01*
X182171497Y-126247610D01*
X182045095Y-126401630D01*
X182027630Y-126419095D01*
X181873610Y-126545497D01*
X181853072Y-126559220D01*
X181677350Y-126653145D01*
X181654530Y-126662597D01*
X181463864Y-126720435D01*
X181439638Y-126725254D01*
X181235163Y-126745393D01*
X181222813Y-126746000D01*
X82429187Y-126746000D01*
X82416837Y-126745393D01*
X82212362Y-126725254D01*
X82188136Y-126720435D01*
X81997470Y-126662597D01*
X81974650Y-126653145D01*
X81798928Y-126559220D01*
X81778390Y-126545497D01*
X81624370Y-126419095D01*
X81606905Y-126401630D01*
X81480503Y-126247610D01*
X81466780Y-126227072D01*
X81372855Y-126051350D01*
X81363403Y-126028530D01*
X81305565Y-125837864D01*
X81300746Y-125813638D01*
X81280607Y-125609163D01*
X81280000Y-125596813D01*
X81280000Y-118871000D01*
X81300002Y-118802879D01*
X81353658Y-118756386D01*
X81406000Y-118745000D01*
X115444000Y-118745000D01*
X115512121Y-118765002D01*
X115558614Y-118818658D01*
X115570000Y-118871000D01*
X115570000Y-125711885D01*
X115574475Y-125727124D01*
X115575865Y-125728329D01*
X115583548Y-125730000D01*
X146285885Y-125730000D01*
X146301124Y-125725525D01*
X146302329Y-125724135D01*
X146304000Y-125716452D01*
X146304000Y-118744444D01*
X146324002Y-118676323D01*
X146377658Y-118629830D01*
X146430444Y-118618445D01*
X182246444Y-118744558D01*
G37*
G36*
X144754864Y-88886037D02*
G01*
X144755477Y-88887023D01*
X144808547Y-89085081D01*
X144836783Y-89145634D01*
X144836608Y-89147626D01*
X144834796Y-89148471D01*
X144833404Y-89147723D01*
X144791134Y-89094513D01*
X144725574Y-89072183D01*
X144658188Y-89088883D01*
X144650726Y-89094637D01*
X144650413Y-89094835D01*
X144615440Y-89112655D01*
X144613443Y-89112550D01*
X144612535Y-89110768D01*
X144613421Y-89109210D01*
X144673719Y-89068919D01*
X144733106Y-88980042D01*
X144751583Y-88887151D01*
X144752902Y-88885647D01*
X144754864Y-88886037D01*
G37*
G36*
X116847919Y-88464814D02*
G01*
X116867596Y-88531829D01*
X116919939Y-88577184D01*
X116988493Y-88587041D01*
X117051490Y-88558270D01*
X117089051Y-88499825D01*
X117092510Y-88482910D01*
X117093836Y-88481414D01*
X117095796Y-88481814D01*
X117096457Y-88483534D01*
X117080303Y-88627553D01*
X117086592Y-88702447D01*
X117085740Y-88704256D01*
X117083747Y-88704424D01*
X117082721Y-88703302D01*
X117058868Y-88638167D01*
X117003672Y-88596333D01*
X116934621Y-88590981D01*
X116873639Y-88623809D01*
X116839956Y-88684632D01*
X116838538Y-88692060D01*
X116832985Y-88727119D01*
X116832792Y-88727714D01*
X116829710Y-88733762D01*
X116828033Y-88734851D01*
X116826251Y-88733943D01*
X116825966Y-88732464D01*
X116844000Y-88641801D01*
X116844000Y-88465377D01*
X116845000Y-88463645D01*
X116847000Y-88463645D01*
X116847919Y-88464814D01*
G37*
G36*
X144901342Y-87995783D02*
G01*
X144901353Y-87997495D01*
X144808547Y-88196519D01*
X144757932Y-88385415D01*
X144756518Y-88386829D01*
X144754586Y-88386311D01*
X144754000Y-88384897D01*
X144754000Y-88375399D01*
X144733106Y-88270358D01*
X144673719Y-88181481D01*
X144613419Y-88141189D01*
X144612534Y-88139395D01*
X144613645Y-88137732D01*
X144615438Y-88137744D01*
X144642220Y-88151390D01*
X144642285Y-88151437D01*
X144642287Y-88151434D01*
X144703589Y-88184906D01*
X144772671Y-88179966D01*
X144828269Y-88138345D01*
X144841327Y-88116491D01*
X144896537Y-87997551D01*
X144896699Y-87997266D01*
X144897888Y-87995523D01*
X144899690Y-87994656D01*
X144901342Y-87995783D01*
G37*
M02*
