G04 #@! TF.GenerationSoftware,KiCad,Pcbnew,6.0.1-79c1e3a40b~116~ubuntu21.10.1*
G04 #@! TF.CreationDate,2022-03-15T20:57:57-06:00*
G04 #@! TF.ProjectId,MinesRobotics_PDB,4d696e65-7352-46f6-926f-746963735f50,rev?*
G04 #@! TF.SameCoordinates,Original*
G04 #@! TF.FileFunction,Legend,Bot*
G04 #@! TF.FilePolarity,Positive*
%FSLAX46Y46*%
G04 Gerber Fmt 4.6, Leading zero omitted, Abs format (unit mm)*
G04 Created by KiCad (PCBNEW 6.0.1-79c1e3a40b~116~ubuntu21.10.1) date 2022-03-15 20:57:57*
%MOMM*%
%LPD*%
G01*
G04 APERTURE LIST*
G04 #@! TA.AperFunction,Profile*
%ADD10C,0.150000*%
G04 #@! TD*
%ADD11C,0.150000*%
%ADD12C,0.120000*%
G04 APERTURE END LIST*
D10*
X181229000Y-126746000D02*
G75*
G03*
X182372000Y-125603000I0J1143000D01*
G01*
X82423000Y-50800000D02*
G75*
G03*
X81280000Y-51943000I0J-1143000D01*
G01*
X181229000Y-50800000D02*
X82423000Y-50800000D01*
X82423000Y-126746000D02*
X181229000Y-126746000D01*
X81280000Y-51943000D02*
X81280000Y-125603000D01*
X182372000Y-51943000D02*
G75*
G03*
X181229000Y-50800000I-1143000J0D01*
G01*
X81280000Y-125603000D02*
G75*
G03*
X82423000Y-126746000I1143000J0D01*
G01*
X182372000Y-125603000D02*
X182372000Y-51943000D01*
D11*
X153825142Y-88733333D02*
X153872761Y-88685714D01*
X153920380Y-88542857D01*
X153920380Y-88447619D01*
X153872761Y-88304761D01*
X153777523Y-88209523D01*
X153682285Y-88161904D01*
X153491809Y-88114285D01*
X153348952Y-88114285D01*
X153158476Y-88161904D01*
X153063238Y-88209523D01*
X152968000Y-88304761D01*
X152920380Y-88447619D01*
X152920380Y-88542857D01*
X152968000Y-88685714D01*
X153015619Y-88733333D01*
X152920380Y-89066666D02*
X152920380Y-89685714D01*
X153301333Y-89352380D01*
X153301333Y-89495238D01*
X153348952Y-89590476D01*
X153396571Y-89638095D01*
X153491809Y-89685714D01*
X153729904Y-89685714D01*
X153825142Y-89638095D01*
X153872761Y-89590476D01*
X153920380Y-89495238D01*
X153920380Y-89209523D01*
X153872761Y-89114285D01*
X153825142Y-89066666D01*
X125642666Y-92305142D02*
X125690285Y-92352761D01*
X125833142Y-92400380D01*
X125928380Y-92400380D01*
X126071238Y-92352761D01*
X126166476Y-92257523D01*
X126214095Y-92162285D01*
X126261714Y-91971809D01*
X126261714Y-91828952D01*
X126214095Y-91638476D01*
X126166476Y-91543238D01*
X126071238Y-91448000D01*
X125928380Y-91400380D01*
X125833142Y-91400380D01*
X125690285Y-91448000D01*
X125642666Y-91495619D01*
X124737904Y-91400380D02*
X125214095Y-91400380D01*
X125261714Y-91876571D01*
X125214095Y-91828952D01*
X125118857Y-91781333D01*
X124880761Y-91781333D01*
X124785523Y-91828952D01*
X124737904Y-91876571D01*
X124690285Y-91971809D01*
X124690285Y-92209904D01*
X124737904Y-92305142D01*
X124785523Y-92352761D01*
X124880761Y-92400380D01*
X125118857Y-92400380D01*
X125214095Y-92352761D01*
X125261714Y-92305142D01*
X113196666Y-88749142D02*
X113244285Y-88796761D01*
X113387142Y-88844380D01*
X113482380Y-88844380D01*
X113625238Y-88796761D01*
X113720476Y-88701523D01*
X113768095Y-88606285D01*
X113815714Y-88415809D01*
X113815714Y-88272952D01*
X113768095Y-88082476D01*
X113720476Y-87987238D01*
X113625238Y-87892000D01*
X113482380Y-87844380D01*
X113387142Y-87844380D01*
X113244285Y-87892000D01*
X113196666Y-87939619D01*
X112339523Y-88177714D02*
X112339523Y-88844380D01*
X112577619Y-87796761D02*
X112815714Y-88511047D01*
X112196666Y-88511047D01*
X116701866Y-85464942D02*
X116749485Y-85512561D01*
X116892342Y-85560180D01*
X116987580Y-85560180D01*
X117130438Y-85512561D01*
X117225676Y-85417323D01*
X117273295Y-85322085D01*
X117320914Y-85131609D01*
X117320914Y-84988752D01*
X117273295Y-84798276D01*
X117225676Y-84703038D01*
X117130438Y-84607800D01*
X116987580Y-84560180D01*
X116892342Y-84560180D01*
X116749485Y-84607800D01*
X116701866Y-84655419D01*
X116368533Y-84560180D02*
X115701866Y-84560180D01*
X116130438Y-85560180D01*
X120913142Y-85177333D02*
X120960761Y-85129714D01*
X121008380Y-84986857D01*
X121008380Y-84891619D01*
X120960761Y-84748761D01*
X120865523Y-84653523D01*
X120770285Y-84605904D01*
X120579809Y-84558285D01*
X120436952Y-84558285D01*
X120246476Y-84605904D01*
X120151238Y-84653523D01*
X120056000Y-84748761D01*
X120008380Y-84891619D01*
X120008380Y-84986857D01*
X120056000Y-85129714D01*
X120103619Y-85177333D01*
X121008380Y-86129714D02*
X121008380Y-85558285D01*
X121008380Y-85844000D02*
X120008380Y-85844000D01*
X120151238Y-85748761D01*
X120246476Y-85653523D01*
X120294095Y-85558285D01*
X143646666Y-87552342D02*
X143694285Y-87599961D01*
X143837142Y-87647580D01*
X143932380Y-87647580D01*
X144075238Y-87599961D01*
X144170476Y-87504723D01*
X144218095Y-87409485D01*
X144265714Y-87219009D01*
X144265714Y-87076152D01*
X144218095Y-86885676D01*
X144170476Y-86790438D01*
X144075238Y-86695200D01*
X143932380Y-86647580D01*
X143837142Y-86647580D01*
X143694285Y-86695200D01*
X143646666Y-86742819D01*
X143265714Y-86742819D02*
X143218095Y-86695200D01*
X143122857Y-86647580D01*
X142884761Y-86647580D01*
X142789523Y-86695200D01*
X142741904Y-86742819D01*
X142694285Y-86838057D01*
X142694285Y-86933295D01*
X142741904Y-87076152D01*
X143313333Y-87647580D01*
X142694285Y-87647580D01*
X115482666Y-91924142D02*
X115530285Y-91971761D01*
X115673142Y-92019380D01*
X115768380Y-92019380D01*
X115911238Y-91971761D01*
X116006476Y-91876523D01*
X116054095Y-91781285D01*
X116101714Y-91590809D01*
X116101714Y-91447952D01*
X116054095Y-91257476D01*
X116006476Y-91162238D01*
X115911238Y-91067000D01*
X115768380Y-91019380D01*
X115673142Y-91019380D01*
X115530285Y-91067000D01*
X115482666Y-91114619D01*
X114911238Y-91447952D02*
X115006476Y-91400333D01*
X115054095Y-91352714D01*
X115101714Y-91257476D01*
X115101714Y-91209857D01*
X115054095Y-91114619D01*
X115006476Y-91067000D01*
X114911238Y-91019380D01*
X114720761Y-91019380D01*
X114625523Y-91067000D01*
X114577904Y-91114619D01*
X114530285Y-91209857D01*
X114530285Y-91257476D01*
X114577904Y-91352714D01*
X114625523Y-91400333D01*
X114720761Y-91447952D01*
X114911238Y-91447952D01*
X115006476Y-91495571D01*
X115054095Y-91543190D01*
X115101714Y-91638428D01*
X115101714Y-91828904D01*
X115054095Y-91924142D01*
X115006476Y-91971761D01*
X114911238Y-92019380D01*
X114720761Y-92019380D01*
X114625523Y-91971761D01*
X114577904Y-91924142D01*
X114530285Y-91828904D01*
X114530285Y-91638428D01*
X114577904Y-91543190D01*
X114625523Y-91495571D01*
X114720761Y-91447952D01*
D12*
X152628000Y-93310000D02*
X148108000Y-93310000D01*
X148108000Y-93310000D02*
X148108000Y-85250000D01*
X152628000Y-85250000D02*
X152628000Y-93310000D01*
X119660000Y-95852000D02*
X119660000Y-87792000D01*
X124180000Y-87792000D02*
X124180000Y-95852000D01*
X119660000Y-87792000D02*
X124180000Y-87792000D01*
X115710580Y-87882000D02*
X115429420Y-87882000D01*
X115710580Y-88902000D02*
X115429420Y-88902000D01*
X116675780Y-87047800D02*
X116394620Y-87047800D01*
X116675780Y-86027800D02*
X116394620Y-86027800D01*
X118616000Y-85484580D02*
X118616000Y-85203420D01*
X119636000Y-85484580D02*
X119636000Y-85203420D01*
X143620580Y-88115200D02*
X143339420Y-88115200D01*
X143620580Y-89135200D02*
X143339420Y-89135200D01*
X115710580Y-89660000D02*
X115429420Y-89660000D01*
X115710580Y-90680000D02*
X115429420Y-90680000D01*
M02*
