G04 #@! TF.GenerationSoftware,KiCad,Pcbnew,6.0.1-79c1e3a40b~116~ubuntu21.10.1*
G04 #@! TF.CreationDate,2022-03-15T20:57:56-06:00*
G04 #@! TF.ProjectId,MinesRobotics_PDB,4d696e65-7352-46f6-926f-746963735f50,rev?*
G04 #@! TF.SameCoordinates,Original*
G04 #@! TF.FileFunction,Copper,L1,Top*
G04 #@! TF.FilePolarity,Positive*
%FSLAX46Y46*%
G04 Gerber Fmt 4.6, Leading zero omitted, Abs format (unit mm)*
G04 Created by KiCad (PCBNEW 6.0.1-79c1e3a40b~116~ubuntu21.10.1) date 2022-03-15 20:57:56*
%MOMM*%
%LPD*%
G01*
G04 APERTURE LIST*
G04 Aperture macros list*
%AMRoundRect*
0 Rectangle with rounded corners*
0 $1 Rounding radius*
0 $2 $3 $4 $5 $6 $7 $8 $9 X,Y pos of 4 corners*
0 Add a 4 corners polygon primitive as box body*
4,1,4,$2,$3,$4,$5,$6,$7,$8,$9,$2,$3,0*
0 Add four circle primitives for the rounded corners*
1,1,$1+$1,$2,$3*
1,1,$1+$1,$4,$5*
1,1,$1+$1,$6,$7*
1,1,$1+$1,$8,$9*
0 Add four rect primitives between the rounded corners*
20,1,$1+$1,$2,$3,$4,$5,0*
20,1,$1+$1,$4,$5,$6,$7,0*
20,1,$1+$1,$6,$7,$8,$9,0*
20,1,$1+$1,$8,$9,$2,$3,0*%
G04 Aperture macros list end*
G04 #@! TA.AperFunction,Profile*
%ADD10C,0.150000*%
G04 #@! TD*
G04 #@! TA.AperFunction,ComponentPad*
%ADD11C,5.600000*%
G04 #@! TD*
G04 #@! TA.AperFunction,ComponentPad*
%ADD12C,2.780000*%
G04 #@! TD*
G04 #@! TA.AperFunction,SMDPad,CuDef*
%ADD13RoundRect,0.250000X-0.262500X-0.450000X0.262500X-0.450000X0.262500X0.450000X-0.262500X0.450000X0*%
G04 #@! TD*
G04 #@! TA.AperFunction,SMDPad,CuDef*
%ADD14RoundRect,0.243750X-0.456250X0.243750X-0.456250X-0.243750X0.456250X-0.243750X0.456250X0.243750X0*%
G04 #@! TD*
G04 #@! TA.AperFunction,ComponentPad*
%ADD15O,7.000000X2.500000*%
G04 #@! TD*
G04 #@! TA.AperFunction,SMDPad,CuDef*
%ADD16RoundRect,0.250000X-0.450000X0.262500X-0.450000X-0.262500X0.450000X-0.262500X0.450000X0.262500X0*%
G04 #@! TD*
G04 #@! TA.AperFunction,ComponentPad*
%ADD17O,2.500000X7.000000*%
G04 #@! TD*
G04 #@! TA.AperFunction,SMDPad,CuDef*
%ADD18RoundRect,0.243750X0.243750X0.456250X-0.243750X0.456250X-0.243750X-0.456250X0.243750X-0.456250X0*%
G04 #@! TD*
G04 #@! TA.AperFunction,SMDPad,CuDef*
%ADD19RoundRect,0.243750X-0.243750X-0.456250X0.243750X-0.456250X0.243750X0.456250X-0.243750X0.456250X0*%
G04 #@! TD*
G04 #@! TA.AperFunction,SMDPad,CuDef*
%ADD20RoundRect,0.250000X0.450000X-0.262500X0.450000X0.262500X-0.450000X0.262500X-0.450000X-0.262500X0*%
G04 #@! TD*
G04 #@! TA.AperFunction,SMDPad,CuDef*
%ADD21RoundRect,0.250000X0.262500X0.450000X-0.262500X0.450000X-0.262500X-0.450000X0.262500X-0.450000X0*%
G04 #@! TD*
G04 #@! TA.AperFunction,SMDPad,CuDef*
%ADD22RoundRect,0.150000X-0.587500X-0.150000X0.587500X-0.150000X0.587500X0.150000X-0.587500X0.150000X0*%
G04 #@! TD*
G04 #@! TA.AperFunction,ComponentPad*
%ADD23C,1.800000*%
G04 #@! TD*
G04 #@! TA.AperFunction,ComponentPad*
%ADD24C,2.500000*%
G04 #@! TD*
G04 #@! TA.AperFunction,ComponentPad*
%ADD25C,1.440000*%
G04 #@! TD*
G04 #@! TA.AperFunction,ComponentPad*
%ADD26RoundRect,0.250000X-0.750000X0.600000X-0.750000X-0.600000X0.750000X-0.600000X0.750000X0.600000X0*%
G04 #@! TD*
G04 #@! TA.AperFunction,ComponentPad*
%ADD27O,2.000000X1.700000*%
G04 #@! TD*
G04 #@! TA.AperFunction,ViaPad*
%ADD28C,0.800000*%
G04 #@! TD*
G04 #@! TA.AperFunction,Conductor*
%ADD29C,0.250000*%
G04 #@! TD*
G04 APERTURE END LIST*
D10*
X181229000Y-126746000D02*
G75*
G03*
X182372000Y-125603000I0J1143000D01*
G01*
X82423000Y-50800000D02*
G75*
G03*
X81280000Y-51943000I0J-1143000D01*
G01*
X181229000Y-50800000D02*
X82423000Y-50800000D01*
X82423000Y-126746000D02*
X181229000Y-126746000D01*
X81280000Y-51943000D02*
X81280000Y-125603000D01*
X182372000Y-51943000D02*
G75*
G03*
X181229000Y-50800000I-1143000J0D01*
G01*
X81280000Y-125603000D02*
G75*
G03*
X82423000Y-126746000I1143000J0D01*
G01*
X182372000Y-125603000D02*
X182372000Y-51943000D01*
D11*
X102870000Y-69850000D03*
D12*
X125305200Y-62460400D03*
X125305200Y-65860400D03*
X115385200Y-62460400D03*
X115385200Y-65860400D03*
D13*
X108561500Y-68072000D03*
X110386500Y-68072000D03*
D12*
X158616000Y-64692000D03*
X158616000Y-61292000D03*
X168536000Y-64692000D03*
X168536000Y-61292000D03*
D14*
X154432000Y-75770500D03*
X154432000Y-77645500D03*
D12*
X159040000Y-86200000D03*
X159040000Y-82800000D03*
X168960000Y-86200000D03*
X168960000Y-82800000D03*
D15*
X86995000Y-103355000D03*
X86995000Y-111275000D03*
D16*
X113925000Y-94512500D03*
X113925000Y-96337500D03*
D14*
X108966000Y-70182500D03*
X108966000Y-72057500D03*
D17*
X146962000Y-55626000D03*
X139042000Y-55626000D03*
D12*
X159403400Y-108862600D03*
X159403400Y-105462600D03*
X169323400Y-108862600D03*
X169323400Y-105462600D03*
D18*
X168577500Y-69596000D03*
X166702500Y-69596000D03*
D15*
X86995000Y-56619000D03*
X86995000Y-64539000D03*
D12*
X159555800Y-101191800D03*
X159555800Y-97791800D03*
X169475800Y-97791800D03*
X169475800Y-101191800D03*
D16*
X176960000Y-72603500D03*
X176960000Y-74428500D03*
D18*
X88567500Y-95500000D03*
X86692500Y-95500000D03*
D11*
X158500000Y-70000000D03*
D15*
X177038000Y-79860000D03*
X177038000Y-87780000D03*
D16*
X113800000Y-88237500D03*
X113800000Y-90062500D03*
D19*
X175846500Y-94742000D03*
X177721500Y-94742000D03*
D17*
X116540000Y-55500000D03*
X124460000Y-55500000D03*
D20*
X92561600Y-69548900D03*
X92561600Y-67723900D03*
D12*
X125305200Y-69978800D03*
X125305200Y-73378800D03*
X115385200Y-69978800D03*
X115385200Y-73378800D03*
D21*
X154396500Y-73612400D03*
X152571500Y-73612400D03*
D12*
X138040000Y-62300000D03*
X138040000Y-65700000D03*
X147960000Y-62300000D03*
X147960000Y-65700000D03*
D19*
X94566500Y-69500000D03*
X96441500Y-69500000D03*
D12*
X159040000Y-75300000D03*
X159040000Y-78700000D03*
X168960000Y-78700000D03*
X168960000Y-75300000D03*
D15*
X177038000Y-103101000D03*
X177038000Y-111021000D03*
D18*
X86789500Y-71628000D03*
X84914500Y-71628000D03*
D12*
X104883600Y-82729600D03*
X104883600Y-86129600D03*
X94963600Y-82729600D03*
X94963600Y-86129600D03*
D11*
X146050000Y-81153000D03*
D16*
X173909200Y-95205100D03*
X173909200Y-97030100D03*
D13*
X149709500Y-96266000D03*
X151534500Y-96266000D03*
D12*
X104883600Y-75084200D03*
X104883600Y-78484200D03*
X94963600Y-78484200D03*
X94963600Y-75084200D03*
D22*
X109862500Y-91450000D03*
X109862500Y-93350000D03*
X111737500Y-92400000D03*
D19*
X178894500Y-72500000D03*
X180769500Y-72500000D03*
D20*
X170421000Y-69523500D03*
X170421000Y-67698500D03*
D11*
X115062000Y-81153000D03*
D23*
X118029200Y-88640800D03*
X118029200Y-96240800D03*
D24*
X118029200Y-103840800D03*
X146029200Y-103840800D03*
D23*
X146029200Y-100040800D03*
X146029200Y-96240800D03*
X146029200Y-92440800D03*
D24*
X146029200Y-88640800D03*
D23*
X138329200Y-105240800D03*
X142129200Y-105240800D03*
X118029200Y-92440800D03*
D16*
X90170000Y-71731500D03*
X90170000Y-73556500D03*
D25*
X151258200Y-98871800D03*
X151258200Y-101411800D03*
X151258200Y-103951800D03*
D11*
X130048000Y-112776000D03*
X167000000Y-115000000D03*
D15*
X177038000Y-56619000D03*
X177038000Y-64539000D03*
D12*
X105156000Y-53672000D03*
X105156000Y-57072000D03*
X95236000Y-57072000D03*
X95236000Y-53672000D03*
D16*
X90540000Y-95603500D03*
X90540000Y-97428500D03*
D13*
X113962500Y-92600000D03*
X115787500Y-92600000D03*
D15*
X86995000Y-79352000D03*
X86995000Y-87272000D03*
D12*
X158616000Y-57072000D03*
X158616000Y-53672000D03*
X168536000Y-57072000D03*
X168536000Y-53672000D03*
X138042000Y-69800000D03*
X138042000Y-73200000D03*
X147962000Y-69800000D03*
X147962000Y-73200000D03*
D11*
X96000000Y-115000000D03*
D26*
X122682000Y-78740000D03*
D27*
X122682000Y-81240000D03*
D12*
X105206800Y-64692000D03*
X105206800Y-61292000D03*
X95286800Y-64692000D03*
X95286800Y-61292000D03*
X104705800Y-98553800D03*
X104705800Y-101953800D03*
X94785800Y-98553800D03*
X94785800Y-101953800D03*
X104680400Y-106046800D03*
X104680400Y-109446800D03*
X94760400Y-106046800D03*
X94760400Y-109446800D03*
D28*
X123952000Y-88646000D03*
X119634000Y-89916000D03*
X120904000Y-86868000D03*
X123952000Y-86868000D03*
X119634000Y-88392000D03*
X119634000Y-86868000D03*
X122428000Y-86868000D03*
X134112000Y-105156000D03*
X141732000Y-107696000D03*
X138684000Y-110236000D03*
X132588000Y-105156000D03*
X121158000Y-106680000D03*
X138684000Y-111760000D03*
X119634000Y-106680000D03*
X134112000Y-102108000D03*
X127000000Y-103632000D03*
X111300000Y-91225000D03*
X121158000Y-110744000D03*
X122682000Y-107950000D03*
X127000000Y-102108000D03*
X121158000Y-112268000D03*
X141732000Y-113284000D03*
X140208000Y-111760000D03*
X140208000Y-110236000D03*
X119634000Y-107950000D03*
X128270000Y-103632000D03*
X141732000Y-111760000D03*
X121158000Y-107950000D03*
X122682000Y-106680000D03*
X132588000Y-102108000D03*
X140208000Y-108966000D03*
X119634000Y-110744000D03*
X141732000Y-110236000D03*
X141732000Y-108966000D03*
X129540000Y-105156000D03*
X122682000Y-109220000D03*
X134112000Y-103632000D03*
X140208000Y-113284000D03*
X131064000Y-105156000D03*
X114000000Y-97900000D03*
X132588000Y-103632000D03*
X131064000Y-102108000D03*
X119634000Y-112268000D03*
X128270000Y-102108000D03*
X138684000Y-107696000D03*
X140208000Y-107696000D03*
X122682000Y-110744000D03*
X128270000Y-105156000D03*
X119634000Y-109220000D03*
X138684000Y-113284000D03*
X127000000Y-105156000D03*
X129540000Y-103632000D03*
X138684000Y-108966000D03*
X121158000Y-109220000D03*
X122682000Y-112268000D03*
X129540000Y-102108000D03*
X131064000Y-103632000D03*
X144526000Y-90678000D03*
X147574000Y-90678000D03*
X146050000Y-90678000D03*
X149606000Y-89408000D03*
X149606000Y-88138000D03*
D29*
X142129200Y-105240800D02*
X142129200Y-100745800D01*
X142129200Y-100745800D02*
X142175000Y-100700000D01*
X111075000Y-91450000D02*
X111300000Y-91225000D01*
X113925000Y-97825000D02*
X114000000Y-97900000D01*
X113925000Y-96337500D02*
X113925000Y-97825000D01*
X109862500Y-91450000D02*
X111075000Y-91450000D01*
X115787500Y-92600000D02*
X117870000Y-92600000D01*
X117870000Y-92600000D02*
X118029200Y-92440800D01*
X146029200Y-96266800D02*
X149188200Y-96266800D01*
X151258200Y-96686800D02*
X151258200Y-98871800D01*
X113762500Y-92400000D02*
X113962500Y-92600000D01*
X111737500Y-92400000D02*
X113762500Y-92400000D01*
X113925000Y-94512500D02*
X113925000Y-90187500D01*
X113925000Y-90187500D02*
X113800000Y-90062500D01*
X94212500Y-69500000D02*
X92600200Y-69500000D01*
X170357000Y-69500000D02*
X170421000Y-69436000D01*
X168643000Y-69500000D02*
X170357000Y-69500000D01*
X109000000Y-69032000D02*
X108555000Y-68587000D01*
X109000000Y-70212500D02*
X109000000Y-69032000D01*
X90286000Y-95500000D02*
X88787500Y-95500000D01*
X90477000Y-95691000D02*
X90286000Y-95500000D01*
X90540000Y-95691000D02*
X90477000Y-95691000D01*
X86789500Y-71628000D02*
X90066500Y-71628000D01*
X90066500Y-71628000D02*
X90170000Y-71731500D01*
X178712500Y-72500000D02*
X177151000Y-72500000D01*
X177151000Y-72500000D02*
X176960000Y-72691000D01*
X154500000Y-73803400D02*
X154309000Y-73612400D01*
X154500000Y-75212500D02*
X154500000Y-73803400D01*
X174201800Y-95000000D02*
X173909200Y-95292600D01*
X175712500Y-95000000D02*
X174201800Y-95000000D01*
G04 #@! TA.AperFunction,Conductor*
G36*
X172974272Y-96057402D02*
G01*
X172981659Y-96062675D01*
X172985897Y-96066905D01*
X172992124Y-96070743D01*
X172992126Y-96070745D01*
X173130232Y-96155875D01*
X173136462Y-96159715D01*
X173216205Y-96186164D01*
X173297811Y-96213232D01*
X173297813Y-96213232D01*
X173304339Y-96215397D01*
X173311175Y-96216097D01*
X173311178Y-96216098D01*
X173354231Y-96220509D01*
X173408800Y-96226100D01*
X174409600Y-96226100D01*
X174412846Y-96225763D01*
X174412850Y-96225763D01*
X174508508Y-96215838D01*
X174508512Y-96215837D01*
X174515366Y-96215126D01*
X174521902Y-96212945D01*
X174521904Y-96212945D01*
X174670407Y-96163400D01*
X174683146Y-96159150D01*
X174833548Y-96066078D01*
X174835642Y-96063980D01*
X174899793Y-96038017D01*
X174912244Y-96037400D01*
X181230000Y-96037400D01*
X181298121Y-96057402D01*
X181344614Y-96111058D01*
X181356000Y-96163400D01*
X181356000Y-110643400D01*
X181335998Y-110711521D01*
X181282342Y-110758014D01*
X181230000Y-110769400D01*
X181138566Y-110769400D01*
X181070445Y-110749398D01*
X181023952Y-110695742D01*
X181014627Y-110663542D01*
X181014499Y-110663569D01*
X181014123Y-110661798D01*
X181013718Y-110660401D01*
X181013526Y-110658993D01*
X181012896Y-110654362D01*
X180998473Y-110604877D01*
X180941068Y-110407932D01*
X180939757Y-110403433D01*
X180830332Y-110166072D01*
X180797519Y-110116024D01*
X180689590Y-109951404D01*
X180689586Y-109951399D01*
X180687024Y-109947491D01*
X180512982Y-109752494D01*
X180312030Y-109585363D01*
X180264844Y-109556730D01*
X180092578Y-109452196D01*
X180092574Y-109452194D01*
X180088581Y-109449771D01*
X179847545Y-109348697D01*
X179594217Y-109284359D01*
X179589566Y-109283891D01*
X179589562Y-109283890D01*
X179380271Y-109262816D01*
X179377133Y-109262500D01*
X174721646Y-109262500D01*
X174719321Y-109262673D01*
X174719315Y-109262673D01*
X174532000Y-109276593D01*
X174531996Y-109276594D01*
X174527348Y-109276939D01*
X174522800Y-109277968D01*
X174522794Y-109277969D01*
X174336399Y-109320147D01*
X174272423Y-109334623D01*
X174268071Y-109336315D01*
X174268069Y-109336316D01*
X174033176Y-109427660D01*
X174033173Y-109427661D01*
X174028823Y-109429353D01*
X173801902Y-109559049D01*
X173596643Y-109720862D01*
X173417557Y-109911237D01*
X173268576Y-110125991D01*
X173152975Y-110360407D01*
X173073293Y-110609335D01*
X173072541Y-110613954D01*
X173072540Y-110613957D01*
X173064446Y-110663655D01*
X173033754Y-110727674D01*
X172973322Y-110764937D01*
X172940085Y-110769400D01*
X164845000Y-110769400D01*
X164776879Y-110749398D01*
X164730386Y-110695742D01*
X164719000Y-110643400D01*
X164719000Y-96163400D01*
X164739002Y-96095279D01*
X164792658Y-96048786D01*
X164845000Y-96037400D01*
X172906151Y-96037400D01*
X172974272Y-96057402D01*
G37*
G04 #@! TD.AperFunction*
G04 #@! TA.AperFunction,Conductor*
G36*
X152088121Y-76982002D02*
G01*
X152134614Y-77035658D01*
X152146000Y-77088000D01*
X152146000Y-93854000D01*
X152125998Y-93922121D01*
X152072342Y-93968614D01*
X152020000Y-93980000D01*
X124586000Y-93980000D01*
X124517879Y-93959998D01*
X124471386Y-93906342D01*
X124460000Y-93854000D01*
X124460000Y-93476331D01*
X145538103Y-93476331D01*
X145541449Y-93480801D01*
X145667622Y-93535010D01*
X145678565Y-93538565D01*
X145873078Y-93582580D01*
X145884487Y-93584082D01*
X146083771Y-93591911D01*
X146095253Y-93591309D01*
X146292629Y-93562692D01*
X146303812Y-93560007D01*
X146492666Y-93495899D01*
X146503171Y-93491222D01*
X146511491Y-93486563D01*
X146521355Y-93476486D01*
X146518400Y-93468816D01*
X146042011Y-92992426D01*
X146028068Y-92984813D01*
X146026234Y-92984944D01*
X146019620Y-92989195D01*
X145544860Y-93463956D01*
X145538103Y-93476331D01*
X124460000Y-93476331D01*
X124460000Y-92416386D01*
X144877055Y-92416386D01*
X144890098Y-92615389D01*
X144891898Y-92626757D01*
X144940991Y-92820057D01*
X144944829Y-92830895D01*
X144986299Y-92920849D01*
X144995571Y-92931474D01*
X145001463Y-92929721D01*
X145477574Y-92453611D01*
X145483951Y-92441932D01*
X146573213Y-92441932D01*
X146573344Y-92443766D01*
X146577595Y-92450380D01*
X147053304Y-92926088D01*
X147065679Y-92932845D01*
X147072259Y-92927920D01*
X147079622Y-92914771D01*
X147084299Y-92904266D01*
X147148407Y-92715412D01*
X147151092Y-92704229D01*
X147180005Y-92504813D01*
X147180635Y-92497430D01*
X147182021Y-92444504D01*
X147181778Y-92437105D01*
X147163341Y-92236454D01*
X147161243Y-92225133D01*
X147107111Y-92033196D01*
X147102987Y-92022449D01*
X147072482Y-91960592D01*
X147062936Y-91950216D01*
X147056501Y-91952315D01*
X146580826Y-92427989D01*
X146573213Y-92441932D01*
X145483951Y-92441932D01*
X145485187Y-92439668D01*
X145485056Y-92437834D01*
X145480805Y-92431220D01*
X145006202Y-91956618D01*
X144993827Y-91949861D01*
X144987861Y-91954327D01*
X144966736Y-91994478D01*
X144962328Y-92005121D01*
X144903188Y-92195580D01*
X144900798Y-92206824D01*
X144877356Y-92404885D01*
X144877055Y-92416386D01*
X124460000Y-92416386D01*
X124460000Y-91403294D01*
X145535413Y-91403294D01*
X145538901Y-91411685D01*
X146016389Y-91889174D01*
X146030332Y-91896787D01*
X146032166Y-91896656D01*
X146038780Y-91892405D01*
X146514807Y-91416377D01*
X146521564Y-91404002D01*
X146518525Y-91399943D01*
X146362009Y-91337499D01*
X146350983Y-91334232D01*
X146155380Y-91295325D01*
X146143934Y-91294122D01*
X145944525Y-91291512D01*
X145933045Y-91292415D01*
X145736493Y-91326189D01*
X145725385Y-91329166D01*
X145541127Y-91397142D01*
X145535413Y-91403294D01*
X124460000Y-91403294D01*
X124460000Y-89934247D01*
X145280188Y-89934247D01*
X145285469Y-89941301D01*
X145375255Y-89993768D01*
X145384543Y-89998218D01*
X145605008Y-90082405D01*
X145614906Y-90085281D01*
X145846162Y-90132330D01*
X145856390Y-90133549D01*
X146092223Y-90142198D01*
X146102509Y-90141731D01*
X146336588Y-90111744D01*
X146346674Y-90109601D01*
X146572716Y-90041785D01*
X146582293Y-90038032D01*
X146770953Y-89945608D01*
X146781358Y-89936086D01*
X146779297Y-89929712D01*
X146042012Y-89192427D01*
X146028068Y-89184813D01*
X146026235Y-89184944D01*
X146019620Y-89189195D01*
X145286948Y-89921867D01*
X145280188Y-89934247D01*
X124460000Y-89934247D01*
X124460000Y-89767835D01*
X124480002Y-89699714D01*
X124524433Y-89657901D01*
X124613268Y-89608151D01*
X124777533Y-89471533D01*
X124901119Y-89322937D01*
X124910460Y-89311706D01*
X124914151Y-89307268D01*
X125018546Y-89120857D01*
X125087222Y-88918543D01*
X125096429Y-88855048D01*
X125117347Y-88710775D01*
X125117880Y-88707101D01*
X125119480Y-88646000D01*
X125116101Y-88609231D01*
X144526812Y-88609231D01*
X144540396Y-88844828D01*
X144541832Y-88855048D01*
X144593713Y-89085255D01*
X144596792Y-89095084D01*
X144685580Y-89313741D01*
X144690225Y-89322937D01*
X144725604Y-89380670D01*
X144736060Y-89390131D01*
X144744838Y-89386347D01*
X145477573Y-88653612D01*
X145483951Y-88641932D01*
X146573213Y-88641932D01*
X146573344Y-88643765D01*
X146577595Y-88650380D01*
X147312945Y-89385730D01*
X147325325Y-89392490D01*
X147330758Y-89388423D01*
X147424485Y-89198783D01*
X147428283Y-89189190D01*
X147496885Y-88963393D01*
X147499062Y-88953323D01*
X147530102Y-88717550D01*
X147530621Y-88710875D01*
X147532252Y-88644164D01*
X147532058Y-88637447D01*
X147512574Y-88400450D01*
X147510891Y-88390288D01*
X147453400Y-88161404D01*
X147450079Y-88151649D01*
X147355981Y-87935241D01*
X147351106Y-87926149D01*
X147334063Y-87899803D01*
X147323378Y-87890600D01*
X147313812Y-87895003D01*
X146580827Y-88627988D01*
X146573213Y-88641932D01*
X145483951Y-88641932D01*
X145485187Y-88639668D01*
X145485056Y-88637835D01*
X145480805Y-88631220D01*
X144745463Y-87895878D01*
X144733927Y-87889579D01*
X144722700Y-87898375D01*
X144720055Y-87903032D01*
X144620694Y-88117085D01*
X144617140Y-88126745D01*
X144554070Y-88354169D01*
X144552143Y-88364273D01*
X144527064Y-88598942D01*
X144526812Y-88609231D01*
X125116101Y-88609231D01*
X125099930Y-88433244D01*
X125041936Y-88227613D01*
X124947440Y-88035993D01*
X124928139Y-88010145D01*
X124823060Y-87869427D01*
X124823059Y-87869426D01*
X124819607Y-87864803D01*
X124815370Y-87860886D01*
X124815366Y-87860882D01*
X124803093Y-87849537D01*
X124766647Y-87788609D01*
X124768927Y-87717650D01*
X124791747Y-87676443D01*
X124910460Y-87533706D01*
X124914151Y-87529268D01*
X125016206Y-87347035D01*
X145278743Y-87347035D01*
X145281168Y-87353953D01*
X146016388Y-88089173D01*
X146030332Y-88096787D01*
X146032165Y-88096656D01*
X146038780Y-88092405D01*
X146771765Y-87359420D01*
X146778525Y-87347040D01*
X146773711Y-87340610D01*
X146649893Y-87272258D01*
X146640496Y-87268035D01*
X146418044Y-87189261D01*
X146408073Y-87186627D01*
X146175746Y-87145243D01*
X146165494Y-87144274D01*
X145929517Y-87141391D01*
X145919233Y-87142111D01*
X145685965Y-87177806D01*
X145675937Y-87180195D01*
X145451630Y-87253509D01*
X145442120Y-87257506D01*
X145288913Y-87337261D01*
X145278743Y-87347035D01*
X125016206Y-87347035D01*
X125018546Y-87342857D01*
X125047519Y-87257506D01*
X125085366Y-87146012D01*
X125085367Y-87146007D01*
X125087222Y-87140543D01*
X125100259Y-87050634D01*
X125117347Y-86932775D01*
X125117880Y-86929101D01*
X125119480Y-86868000D01*
X125099930Y-86655244D01*
X125041936Y-86449613D01*
X124947440Y-86257993D01*
X124928139Y-86232145D01*
X124823060Y-86091427D01*
X124823059Y-86091426D01*
X124819607Y-86086803D01*
X124815371Y-86082887D01*
X124666957Y-85945695D01*
X124666954Y-85945693D01*
X124662717Y-85941776D01*
X124518765Y-85850949D01*
X124471826Y-85797682D01*
X124460000Y-85744387D01*
X124460000Y-85598000D01*
X121284000Y-85598000D01*
X121215879Y-85577998D01*
X121169386Y-85524342D01*
X121158000Y-85472000D01*
X121158000Y-82455668D01*
X121178002Y-82387547D01*
X121231658Y-82341054D01*
X121301932Y-82330950D01*
X121366512Y-82360444D01*
X121379810Y-82373836D01*
X121388265Y-82383735D01*
X121581266Y-82548574D01*
X121797677Y-82681191D01*
X121802247Y-82683084D01*
X121802251Y-82683086D01*
X122027596Y-82776427D01*
X122032169Y-82778321D01*
X122117146Y-82798722D01*
X122274156Y-82836417D01*
X122274162Y-82836418D01*
X122278969Y-82837572D01*
X122367643Y-82844551D01*
X122466190Y-82852307D01*
X122466199Y-82852307D01*
X122468647Y-82852500D01*
X122895353Y-82852500D01*
X122897801Y-82852307D01*
X122897810Y-82852307D01*
X122996357Y-82844551D01*
X123085031Y-82837572D01*
X123089838Y-82836418D01*
X123089844Y-82836417D01*
X123246854Y-82798722D01*
X123331831Y-82778321D01*
X123336404Y-82776427D01*
X123561749Y-82683086D01*
X123561753Y-82683084D01*
X123566323Y-82681191D01*
X123782734Y-82548574D01*
X123975735Y-82383735D01*
X124140574Y-82190734D01*
X124273191Y-81974323D01*
X124304851Y-81897891D01*
X124368427Y-81744404D01*
X124368428Y-81744402D01*
X124370321Y-81739831D01*
X124420903Y-81529142D01*
X124428417Y-81497844D01*
X124428418Y-81497838D01*
X124429572Y-81493031D01*
X124449486Y-81240000D01*
X124442639Y-81153000D01*
X142482611Y-81153000D01*
X142502154Y-81525894D01*
X142560567Y-81894702D01*
X142657211Y-82255384D01*
X142658396Y-82258472D01*
X142658397Y-82258474D01*
X142707712Y-82386943D01*
X142791028Y-82603988D01*
X142792526Y-82606928D01*
X142917652Y-82852500D01*
X142960551Y-82936694D01*
X143163922Y-83249859D01*
X143398913Y-83540049D01*
X143662951Y-83804087D01*
X143953141Y-84039078D01*
X144266305Y-84242449D01*
X144269239Y-84243944D01*
X144269246Y-84243948D01*
X144596072Y-84410474D01*
X144599012Y-84411972D01*
X144947616Y-84545789D01*
X145308298Y-84642433D01*
X145504368Y-84673487D01*
X145673858Y-84700332D01*
X145673866Y-84700333D01*
X145677106Y-84700846D01*
X146050000Y-84720389D01*
X146422894Y-84700846D01*
X146426134Y-84700333D01*
X146426142Y-84700332D01*
X146595632Y-84673487D01*
X146791702Y-84642433D01*
X147152384Y-84545789D01*
X147500988Y-84411972D01*
X147503928Y-84410474D01*
X147830754Y-84243948D01*
X147830761Y-84243944D01*
X147833695Y-84242449D01*
X148146859Y-84039078D01*
X148437049Y-83804087D01*
X148701087Y-83540049D01*
X148936078Y-83249859D01*
X149139449Y-82936694D01*
X149182349Y-82852500D01*
X149307474Y-82606928D01*
X149308972Y-82603988D01*
X149392288Y-82386943D01*
X149441603Y-82258474D01*
X149441604Y-82258472D01*
X149442789Y-82255384D01*
X149539433Y-81894702D01*
X149597846Y-81525894D01*
X149617389Y-81153000D01*
X149597846Y-80780106D01*
X149590797Y-80735596D01*
X149554381Y-80505677D01*
X149539433Y-80411298D01*
X149442789Y-80050616D01*
X149439924Y-80043151D01*
X149336096Y-79772673D01*
X149308972Y-79702012D01*
X149139449Y-79369306D01*
X148936078Y-79056141D01*
X148701087Y-78765951D01*
X148437049Y-78501913D01*
X148146859Y-78266922D01*
X147833695Y-78063551D01*
X147830761Y-78062056D01*
X147830754Y-78062052D01*
X147503928Y-77895526D01*
X147500988Y-77894028D01*
X147152384Y-77760211D01*
X146791702Y-77663567D01*
X146595632Y-77632513D01*
X146426142Y-77605668D01*
X146426134Y-77605667D01*
X146422894Y-77605154D01*
X146050000Y-77585611D01*
X145677106Y-77605154D01*
X145673866Y-77605667D01*
X145673858Y-77605668D01*
X145504368Y-77632513D01*
X145308298Y-77663567D01*
X144947616Y-77760211D01*
X144599012Y-77894028D01*
X144596072Y-77895526D01*
X144269247Y-78062052D01*
X144269240Y-78062056D01*
X144266306Y-78063551D01*
X143953141Y-78266922D01*
X143662951Y-78501913D01*
X143398913Y-78765951D01*
X143163922Y-79056141D01*
X142960551Y-79369306D01*
X142791028Y-79702012D01*
X142763904Y-79772673D01*
X142660077Y-80043151D01*
X142657211Y-80050616D01*
X142560567Y-80411298D01*
X142545619Y-80505677D01*
X142509204Y-80735596D01*
X142502154Y-80780106D01*
X142482611Y-81153000D01*
X124442639Y-81153000D01*
X124429572Y-80986969D01*
X124370321Y-80740169D01*
X124273191Y-80505677D01*
X124140574Y-80289266D01*
X123975735Y-80096265D01*
X123782734Y-79931426D01*
X123770733Y-79924072D01*
X123723102Y-79871427D01*
X123711495Y-79801385D01*
X123739597Y-79736187D01*
X123761003Y-79715814D01*
X123780581Y-79701141D01*
X123793139Y-79688583D01*
X123867928Y-79588793D01*
X123876463Y-79573204D01*
X123920611Y-79455436D01*
X123924237Y-79440185D01*
X123929631Y-79390535D01*
X123930000Y-79383721D01*
X123930000Y-79139115D01*
X123925525Y-79123876D01*
X123924135Y-79122671D01*
X123916452Y-79121000D01*
X121452115Y-79121000D01*
X121436876Y-79125475D01*
X121435671Y-79126865D01*
X121434000Y-79134548D01*
X121434000Y-79383721D01*
X121434369Y-79390535D01*
X121439763Y-79440185D01*
X121443389Y-79455436D01*
X121487537Y-79573204D01*
X121496072Y-79588793D01*
X121570861Y-79688583D01*
X121583419Y-79701141D01*
X121602997Y-79715814D01*
X121645512Y-79772673D01*
X121650538Y-79843492D01*
X121616478Y-79905785D01*
X121593271Y-79924069D01*
X121581266Y-79931426D01*
X121388265Y-80096265D01*
X121385057Y-80100021D01*
X121385056Y-80100022D01*
X121379810Y-80106164D01*
X121320358Y-80144972D01*
X121249364Y-80145478D01*
X121189366Y-80107521D01*
X121159413Y-80043151D01*
X121158000Y-80024332D01*
X121158000Y-78340885D01*
X121434000Y-78340885D01*
X121438475Y-78356124D01*
X121439865Y-78357329D01*
X121447548Y-78359000D01*
X122282885Y-78359000D01*
X122298124Y-78354525D01*
X122299329Y-78353135D01*
X122301000Y-78345452D01*
X122301000Y-78340885D01*
X123063000Y-78340885D01*
X123067475Y-78356124D01*
X123068865Y-78357329D01*
X123076548Y-78359000D01*
X123911885Y-78359000D01*
X123927124Y-78354525D01*
X123928329Y-78353135D01*
X123930000Y-78345452D01*
X123930000Y-78096279D01*
X123929631Y-78089465D01*
X123924237Y-78039815D01*
X123920611Y-78024564D01*
X123876463Y-77906796D01*
X123867928Y-77891207D01*
X123793139Y-77791417D01*
X123780583Y-77778861D01*
X123680793Y-77704072D01*
X123665204Y-77695537D01*
X123547436Y-77651389D01*
X123532185Y-77647763D01*
X123482535Y-77642369D01*
X123475721Y-77642000D01*
X123081115Y-77642000D01*
X123065876Y-77646475D01*
X123064671Y-77647865D01*
X123063000Y-77655548D01*
X123063000Y-78340885D01*
X122301000Y-78340885D01*
X122301000Y-77660115D01*
X122296525Y-77644876D01*
X122295135Y-77643671D01*
X122287452Y-77642000D01*
X121888279Y-77642000D01*
X121881465Y-77642369D01*
X121831815Y-77647763D01*
X121816564Y-77651389D01*
X121698796Y-77695537D01*
X121683207Y-77704072D01*
X121583417Y-77778861D01*
X121570861Y-77791417D01*
X121496072Y-77891207D01*
X121487537Y-77906796D01*
X121443389Y-78024564D01*
X121439763Y-78039815D01*
X121434369Y-78089465D01*
X121434000Y-78096279D01*
X121434000Y-78340885D01*
X121158000Y-78340885D01*
X121158000Y-77088000D01*
X121178002Y-77019879D01*
X121231658Y-76973386D01*
X121284000Y-76962000D01*
X152020000Y-76962000D01*
X152088121Y-76982002D01*
G37*
G04 #@! TD.AperFunction*
G04 #@! TA.AperFunction,Conductor*
G36*
X99764121Y-73375202D02*
G01*
X99810614Y-73428858D01*
X99822000Y-73481200D01*
X99822000Y-87935800D01*
X99801998Y-88003921D01*
X99748342Y-88050414D01*
X99696000Y-88061800D01*
X91011296Y-88061800D01*
X90943175Y-88041798D01*
X90896682Y-87988142D01*
X90886578Y-87917868D01*
X90891294Y-87897387D01*
X90893798Y-87889567D01*
X90959707Y-87683665D01*
X91001721Y-87425693D01*
X91005142Y-87164345D01*
X90969896Y-86905362D01*
X90896757Y-86654433D01*
X90787332Y-86417072D01*
X90754519Y-86367024D01*
X90646590Y-86202404D01*
X90646586Y-86202399D01*
X90644024Y-86198491D01*
X90469982Y-86003494D01*
X90269030Y-85836363D01*
X90221844Y-85807730D01*
X90049578Y-85703196D01*
X90049574Y-85703194D01*
X90045581Y-85700771D01*
X89804545Y-85599697D01*
X89551217Y-85535359D01*
X89546566Y-85534891D01*
X89546562Y-85534890D01*
X89337271Y-85513816D01*
X89334133Y-85513500D01*
X84678646Y-85513500D01*
X84676321Y-85513673D01*
X84676315Y-85513673D01*
X84489000Y-85527593D01*
X84488996Y-85527594D01*
X84484348Y-85527939D01*
X84479800Y-85528968D01*
X84479794Y-85528969D01*
X84293399Y-85571147D01*
X84229423Y-85585623D01*
X84225071Y-85587315D01*
X84225069Y-85587316D01*
X83990176Y-85678660D01*
X83990173Y-85678661D01*
X83985823Y-85680353D01*
X83758902Y-85810049D01*
X83553643Y-85971862D01*
X83550443Y-85975264D01*
X83402775Y-86132240D01*
X83341531Y-86168152D01*
X83270594Y-86165252D01*
X83212485Y-86124461D01*
X83185654Y-86058730D01*
X83185000Y-86045907D01*
X83185000Y-73481200D01*
X83205002Y-73413079D01*
X83258658Y-73366586D01*
X83311000Y-73355200D01*
X99696000Y-73355200D01*
X99764121Y-73375202D01*
G37*
G04 #@! TD.AperFunction*
G04 #@! TA.AperFunction,Conductor*
G36*
X181044121Y-52344002D02*
G01*
X181090614Y-52397658D01*
X181102000Y-52450000D01*
X181102000Y-63699090D01*
X181081998Y-63767211D01*
X181028342Y-63813704D01*
X180958068Y-63823808D01*
X180893488Y-63794314D01*
X180861574Y-63751841D01*
X180832289Y-63688318D01*
X180830332Y-63684072D01*
X180797519Y-63634024D01*
X180689590Y-63469404D01*
X180689586Y-63469399D01*
X180687024Y-63465491D01*
X180512982Y-63270494D01*
X180312030Y-63103363D01*
X180264844Y-63074730D01*
X180092578Y-62970196D01*
X180092574Y-62970194D01*
X180088581Y-62967771D01*
X179847545Y-62866697D01*
X179594217Y-62802359D01*
X179589566Y-62801891D01*
X179589562Y-62801890D01*
X179380271Y-62780816D01*
X179377133Y-62780500D01*
X174721646Y-62780500D01*
X174719321Y-62780673D01*
X174719315Y-62780673D01*
X174532000Y-62794593D01*
X174531996Y-62794594D01*
X174527348Y-62794939D01*
X174522800Y-62795968D01*
X174522794Y-62795969D01*
X174336399Y-62838147D01*
X174272423Y-62852623D01*
X174268071Y-62854315D01*
X174268069Y-62854316D01*
X174033176Y-62945660D01*
X174033173Y-62945661D01*
X174028823Y-62947353D01*
X173801902Y-63077049D01*
X173596643Y-63238862D01*
X173417557Y-63429237D01*
X173268576Y-63643991D01*
X173266510Y-63648181D01*
X173266508Y-63648184D01*
X173207811Y-63767211D01*
X173152975Y-63878407D01*
X173073293Y-64127335D01*
X173031279Y-64385307D01*
X173027858Y-64646655D01*
X173063104Y-64905638D01*
X173136243Y-65156567D01*
X173245668Y-65393928D01*
X173248231Y-65397837D01*
X173386410Y-65608596D01*
X173386414Y-65608601D01*
X173388976Y-65612509D01*
X173563018Y-65807506D01*
X173763970Y-65974637D01*
X173767973Y-65977066D01*
X173983422Y-66107804D01*
X173983426Y-66107806D01*
X173987419Y-66110229D01*
X174228455Y-66211303D01*
X174481783Y-66275641D01*
X174486434Y-66276109D01*
X174486438Y-66276110D01*
X174679308Y-66295531D01*
X174698867Y-66297500D01*
X179354354Y-66297500D01*
X179356679Y-66297327D01*
X179356685Y-66297327D01*
X179544000Y-66283407D01*
X179544004Y-66283406D01*
X179548652Y-66283061D01*
X179553200Y-66282032D01*
X179553206Y-66282031D01*
X179739601Y-66239853D01*
X179803577Y-66225377D01*
X179839769Y-66211303D01*
X180042824Y-66132340D01*
X180042827Y-66132339D01*
X180047177Y-66130647D01*
X180274098Y-66000951D01*
X180479357Y-65839138D01*
X180658443Y-65648763D01*
X180807424Y-65434009D01*
X180862994Y-65321324D01*
X180911062Y-65269075D01*
X180979748Y-65251108D01*
X181047243Y-65273127D01*
X181092120Y-65328142D01*
X181102000Y-65377052D01*
X181102000Y-67588000D01*
X181081998Y-67656121D01*
X181028342Y-67702614D01*
X180976000Y-67714000D01*
X164591000Y-67714000D01*
X164522879Y-67693998D01*
X164476386Y-67640342D01*
X164465000Y-67588000D01*
X164465000Y-52450000D01*
X164485002Y-52381879D01*
X164538658Y-52335386D01*
X164591000Y-52324000D01*
X180976000Y-52324000D01*
X181044121Y-52344002D01*
G37*
G04 #@! TD.AperFunction*
G04 #@! TA.AperFunction,Conductor*
G36*
X82719398Y-51328002D02*
G01*
X82765891Y-51381658D01*
X82775995Y-51451932D01*
X82746501Y-51516512D01*
X82719397Y-51539998D01*
X82675778Y-51568030D01*
X82675772Y-51568034D01*
X82671990Y-51570465D01*
X82618334Y-51616958D01*
X82615393Y-51620352D01*
X82603803Y-51633727D01*
X82523645Y-51726234D01*
X82463579Y-51857760D01*
X82462311Y-51862079D01*
X82445336Y-51919891D01*
X82443577Y-51925881D01*
X82442937Y-51930329D01*
X82442936Y-51930336D01*
X82423639Y-52064552D01*
X82423638Y-52064559D01*
X82423000Y-52069000D01*
X82423000Y-63700948D01*
X82433058Y-63801534D01*
X82433678Y-63804605D01*
X82433680Y-63804616D01*
X82441274Y-63842209D01*
X82442938Y-63850444D01*
X82472715Y-63947053D01*
X82476656Y-63953606D01*
X82544914Y-64067103D01*
X82544918Y-64067108D01*
X82547236Y-64070963D01*
X82592113Y-64125978D01*
X82698523Y-64223872D01*
X82828203Y-64287823D01*
X82832471Y-64289215D01*
X82832475Y-64289217D01*
X82880568Y-64304906D01*
X82892297Y-64308733D01*
X82892298Y-64308733D01*
X82895698Y-64309842D01*
X82895457Y-64310581D01*
X82953371Y-64344472D01*
X82985533Y-64407766D01*
X82987661Y-64432533D01*
X82984885Y-64644580D01*
X82984885Y-64644581D01*
X82984858Y-64646649D01*
X82984858Y-64646655D01*
X82984413Y-64646649D01*
X82969234Y-64713127D01*
X82918518Y-64762811D01*
X82894772Y-64772504D01*
X82839332Y-64788783D01*
X82793628Y-64802203D01*
X82671990Y-64880375D01*
X82618334Y-64926868D01*
X82523645Y-65036144D01*
X82463579Y-65167670D01*
X82443577Y-65235791D01*
X82442937Y-65240239D01*
X82442936Y-65240246D01*
X82423639Y-65374462D01*
X82423638Y-65374469D01*
X82423000Y-65378910D01*
X82423000Y-67988800D01*
X82434609Y-68096780D01*
X82445995Y-68149122D01*
X82480293Y-68252172D01*
X82558465Y-68373810D01*
X82604958Y-68427466D01*
X82714234Y-68522155D01*
X82845760Y-68582221D01*
X82869514Y-68589196D01*
X82909558Y-68600954D01*
X82909562Y-68600955D01*
X82913881Y-68602223D01*
X82918329Y-68602863D01*
X82918336Y-68602864D01*
X83052552Y-68622161D01*
X83052559Y-68622162D01*
X83057000Y-68622800D01*
X91403914Y-68622800D01*
X91472035Y-68642802D01*
X91518528Y-68696458D01*
X91528632Y-68766732D01*
X91511174Y-68814915D01*
X91488206Y-68852176D01*
X91431604Y-68944002D01*
X91419485Y-68963662D01*
X91412021Y-68986165D01*
X91368913Y-69116134D01*
X91363803Y-69131539D01*
X91363103Y-69138375D01*
X91363102Y-69138378D01*
X91358691Y-69181431D01*
X91353100Y-69236000D01*
X91353100Y-69861800D01*
X91353437Y-69865046D01*
X91353437Y-69865050D01*
X91360594Y-69934022D01*
X91364074Y-69967566D01*
X91366255Y-69974102D01*
X91366255Y-69974104D01*
X91407912Y-70098963D01*
X91420050Y-70135346D01*
X91513122Y-70285748D01*
X91638297Y-70410705D01*
X91644527Y-70414545D01*
X91644528Y-70414546D01*
X91781690Y-70499094D01*
X91788862Y-70503515D01*
X91843547Y-70521653D01*
X91950211Y-70557032D01*
X91950213Y-70557032D01*
X91956739Y-70559197D01*
X91963575Y-70559897D01*
X91963578Y-70559898D01*
X92006631Y-70564309D01*
X92061200Y-70569900D01*
X93062000Y-70569900D01*
X93065246Y-70569563D01*
X93065250Y-70569563D01*
X93160908Y-70559638D01*
X93160912Y-70559637D01*
X93167766Y-70558926D01*
X93174302Y-70556745D01*
X93174304Y-70556745D01*
X93306406Y-70512672D01*
X93335546Y-70502950D01*
X93485948Y-70409878D01*
X93517179Y-70378592D01*
X93579460Y-70344513D01*
X93650281Y-70349516D01*
X93707154Y-70392012D01*
X93713496Y-70401307D01*
X93729203Y-70426689D01*
X93853347Y-70550617D01*
X93859577Y-70554457D01*
X93859578Y-70554458D01*
X93884083Y-70569563D01*
X94002671Y-70642661D01*
X94009619Y-70644966D01*
X94009620Y-70644966D01*
X94162634Y-70695719D01*
X94162636Y-70695719D01*
X94169165Y-70697885D01*
X94272769Y-70708500D01*
X94564234Y-70708500D01*
X94860230Y-70708499D01*
X94965129Y-70697616D01*
X94971660Y-70695437D01*
X94971665Y-70695436D01*
X95124578Y-70644420D01*
X95131526Y-70642102D01*
X95280689Y-70549797D01*
X95404617Y-70425653D01*
X95411464Y-70414546D01*
X95432247Y-70380828D01*
X95496661Y-70276329D01*
X95522078Y-70199701D01*
X95549719Y-70116366D01*
X95549719Y-70116364D01*
X95551885Y-70109835D01*
X95562500Y-70006231D01*
X95562499Y-68993770D01*
X95551616Y-68888871D01*
X95549436Y-68882337D01*
X95549435Y-68882332D01*
X95518189Y-68788675D01*
X95515605Y-68717726D01*
X95551789Y-68656642D01*
X95615253Y-68624818D01*
X95637713Y-68622800D01*
X99442000Y-68622800D01*
X99549980Y-68611191D01*
X99554513Y-68610205D01*
X99593932Y-68601631D01*
X99664747Y-68606697D01*
X99721582Y-68649245D01*
X99746392Y-68715765D01*
X99737618Y-68771753D01*
X99733411Y-68782218D01*
X99732491Y-68785492D01*
X99732489Y-68785497D01*
X99638098Y-69121305D01*
X99636437Y-69127213D01*
X99635875Y-69130570D01*
X99635875Y-69130571D01*
X99592042Y-69392511D01*
X99577290Y-69480663D01*
X99556661Y-69838434D01*
X99556833Y-69841829D01*
X99556833Y-69841830D01*
X99569859Y-70098963D01*
X99574792Y-70196340D01*
X99575329Y-70199695D01*
X99575330Y-70199701D01*
X99612351Y-70430833D01*
X99631470Y-70550195D01*
X99726033Y-70895859D01*
X99857374Y-71229288D01*
X99885728Y-71283294D01*
X99976078Y-71455385D01*
X100023957Y-71546582D01*
X100025858Y-71549411D01*
X100025864Y-71549421D01*
X100146605Y-71729101D01*
X100223834Y-71844029D01*
X100454665Y-72118150D01*
X100713751Y-72365738D01*
X100998061Y-72583897D01*
X101077221Y-72632027D01*
X101301355Y-72768303D01*
X101301360Y-72768306D01*
X101304270Y-72770075D01*
X101307358Y-72771521D01*
X101307357Y-72771521D01*
X101625710Y-72920649D01*
X101625720Y-72920653D01*
X101628794Y-72922093D01*
X101632012Y-72923195D01*
X101632015Y-72923196D01*
X101964615Y-73037071D01*
X101964623Y-73037073D01*
X101967838Y-73038174D01*
X102317435Y-73116959D01*
X102369728Y-73122917D01*
X102670114Y-73157142D01*
X102670122Y-73157142D01*
X102673497Y-73157527D01*
X102676901Y-73157545D01*
X102676904Y-73157545D01*
X102871227Y-73158562D01*
X103031857Y-73159403D01*
X103035243Y-73159053D01*
X103035245Y-73159053D01*
X103384932Y-73122917D01*
X103384941Y-73122916D01*
X103388324Y-73122566D01*
X103391657Y-73121852D01*
X103391660Y-73121851D01*
X103630495Y-73070649D01*
X103738727Y-73047446D01*
X104078968Y-72934922D01*
X104405066Y-72786311D01*
X104527266Y-72713754D01*
X104710262Y-72605099D01*
X104710267Y-72605096D01*
X104713207Y-72603350D01*
X104759935Y-72568266D01*
X104878921Y-72478928D01*
X104999786Y-72388180D01*
X105261451Y-72143319D01*
X105495140Y-71871630D01*
X105645190Y-71653306D01*
X105696190Y-71579101D01*
X105696195Y-71579094D01*
X105698120Y-71576292D01*
X105699732Y-71573298D01*
X105699737Y-71573290D01*
X105845605Y-71302384D01*
X105868017Y-71260760D01*
X106002842Y-70928724D01*
X106011968Y-70896689D01*
X106054458Y-70747526D01*
X106101020Y-70584070D01*
X106109983Y-70531632D01*
X106160829Y-70234175D01*
X106160829Y-70234173D01*
X106161401Y-70230828D01*
X106162851Y-70207129D01*
X106182125Y-69891986D01*
X106183278Y-69873131D01*
X106183359Y-69850000D01*
X106163979Y-69492159D01*
X106106066Y-69138505D01*
X106010297Y-68793173D01*
X106008508Y-68788675D01*
X105879052Y-68463369D01*
X105877793Y-68460205D01*
X105858662Y-68424073D01*
X105711702Y-68146513D01*
X105711698Y-68146506D01*
X105710103Y-68143494D01*
X105509190Y-67846746D01*
X105277403Y-67573432D01*
X105017454Y-67326750D01*
X104732384Y-67109585D01*
X104729472Y-67107828D01*
X104729467Y-67107825D01*
X104428443Y-66926236D01*
X104428437Y-66926233D01*
X104425528Y-66924478D01*
X104100475Y-66773593D01*
X103857019Y-66691188D01*
X103764255Y-66659789D01*
X103764250Y-66659788D01*
X103761028Y-66658697D01*
X103562681Y-66614724D01*
X103414493Y-66581871D01*
X103414487Y-66581870D01*
X103411158Y-66581132D01*
X103407769Y-66580758D01*
X103407764Y-66580757D01*
X103058338Y-66542180D01*
X103058333Y-66542180D01*
X103054957Y-66541807D01*
X103051558Y-66541801D01*
X103051557Y-66541801D01*
X102882080Y-66541505D01*
X102696592Y-66541182D01*
X102583413Y-66553277D01*
X102343639Y-66578901D01*
X102343631Y-66578902D01*
X102340256Y-66579263D01*
X101990117Y-66655606D01*
X101650271Y-66769317D01*
X101647178Y-66770739D01*
X101647177Y-66770740D01*
X101640974Y-66773593D01*
X101324694Y-66919066D01*
X101321760Y-66920822D01*
X101321758Y-66920823D01*
X101065019Y-67074478D01*
X101017193Y-67103101D01*
X101014467Y-67105163D01*
X101014465Y-67105164D01*
X100748637Y-67306209D01*
X100731367Y-67319270D01*
X100470559Y-67565043D01*
X100468342Y-67567639D01*
X100468337Y-67567644D01*
X100297811Y-67767304D01*
X100238361Y-67806114D01*
X100167366Y-67806620D01*
X100107367Y-67768664D01*
X100077414Y-67704296D01*
X100076000Y-67685474D01*
X100076000Y-52069000D01*
X100074543Y-52055443D01*
X100066925Y-51984589D01*
X100064391Y-51961020D01*
X100062313Y-51951465D01*
X100055444Y-51919891D01*
X100053005Y-51908678D01*
X100018707Y-51805628D01*
X99940535Y-51683990D01*
X99894042Y-51630334D01*
X99875213Y-51614018D01*
X99791576Y-51541546D01*
X99784766Y-51535645D01*
X99785081Y-51535282D01*
X99742674Y-51486341D01*
X99732571Y-51416067D01*
X99762065Y-51351486D01*
X99821791Y-51313103D01*
X99857288Y-51308000D01*
X109551100Y-51308000D01*
X109619221Y-51328002D01*
X109665714Y-51381658D01*
X109675818Y-51451932D01*
X109646324Y-51516512D01*
X109574645Y-51599234D01*
X109514579Y-51730760D01*
X109511580Y-51740975D01*
X109496278Y-51793089D01*
X109494577Y-51798881D01*
X109493937Y-51803329D01*
X109493936Y-51803336D01*
X109474639Y-51937552D01*
X109474638Y-51937559D01*
X109474000Y-51942000D01*
X109474000Y-66905931D01*
X109453998Y-66974052D01*
X109400342Y-67020545D01*
X109330068Y-67030649D01*
X109281886Y-67013192D01*
X109198317Y-66961679D01*
X109152968Y-66933725D01*
X109152966Y-66933724D01*
X109146738Y-66929885D01*
X108986254Y-66876655D01*
X108985389Y-66876368D01*
X108985387Y-66876368D01*
X108978861Y-66874203D01*
X108972025Y-66873503D01*
X108972022Y-66873502D01*
X108928969Y-66869091D01*
X108874400Y-66863500D01*
X108248600Y-66863500D01*
X108245354Y-66863837D01*
X108245350Y-66863837D01*
X108149692Y-66873762D01*
X108149688Y-66873763D01*
X108142834Y-66874474D01*
X108136298Y-66876655D01*
X108136296Y-66876655D01*
X108048546Y-66905931D01*
X107975054Y-66930450D01*
X107824652Y-67023522D01*
X107699695Y-67148697D01*
X107695855Y-67154927D01*
X107695854Y-67154928D01*
X107634068Y-67255164D01*
X107606885Y-67299262D01*
X107551203Y-67467139D01*
X107540500Y-67571600D01*
X107540500Y-68572400D01*
X107540837Y-68575646D01*
X107540837Y-68575650D01*
X107550663Y-68670347D01*
X107551474Y-68678166D01*
X107553655Y-68684702D01*
X107553655Y-68684704D01*
X107587668Y-68786652D01*
X107607450Y-68845946D01*
X107700522Y-68996348D01*
X107825697Y-69121305D01*
X107831927Y-69125145D01*
X107831928Y-69125146D01*
X107960733Y-69204543D01*
X108008227Y-69257316D01*
X108019650Y-69327387D01*
X107991376Y-69392511D01*
X107983792Y-69400818D01*
X107915383Y-69469347D01*
X107911543Y-69475577D01*
X107911542Y-69475578D01*
X107890949Y-69508986D01*
X107823339Y-69618671D01*
X107821034Y-69625619D01*
X107821034Y-69625620D01*
X107820478Y-69627298D01*
X107768115Y-69785165D01*
X107757500Y-69888769D01*
X107757501Y-70476230D01*
X107768384Y-70581129D01*
X107770563Y-70587660D01*
X107770564Y-70587665D01*
X107810878Y-70708499D01*
X107823898Y-70747526D01*
X107916203Y-70896689D01*
X108040347Y-71020617D01*
X108189671Y-71112661D01*
X108196619Y-71114966D01*
X108196620Y-71114966D01*
X108349634Y-71165719D01*
X108349636Y-71165719D01*
X108356165Y-71167885D01*
X108459769Y-71178500D01*
X108485640Y-71178500D01*
X109349549Y-71178499D01*
X109417670Y-71198501D01*
X109464163Y-71252157D01*
X109475076Y-71295760D01*
X109475239Y-71295748D01*
X109477104Y-71320821D01*
X109478369Y-71325951D01*
X109478370Y-71325956D01*
X109508811Y-71449383D01*
X109511727Y-71461207D01*
X109538364Y-71527017D01*
X109540624Y-71530898D01*
X109540626Y-71530901D01*
X109575062Y-71590021D01*
X109578177Y-71595368D01*
X109580613Y-71599551D01*
X109585316Y-71609706D01*
X109583821Y-71610632D01*
X109587672Y-71616855D01*
X109590946Y-71622146D01*
X109590947Y-71622148D01*
X109637226Y-71696934D01*
X109649603Y-71723355D01*
X109659706Y-71753634D01*
X109665510Y-71780519D01*
X109665828Y-71783588D01*
X109666499Y-71796574D01*
X109666500Y-72318841D01*
X109665842Y-72331702D01*
X109665606Y-72334002D01*
X109659857Y-72360808D01*
X109658222Y-72365738D01*
X109649761Y-72391247D01*
X109637428Y-72417694D01*
X109604977Y-72470340D01*
X109598469Y-72479889D01*
X109595621Y-72483681D01*
X109588505Y-72493652D01*
X109574645Y-72514107D01*
X109514579Y-72645633D01*
X109513311Y-72649952D01*
X109500287Y-72694309D01*
X109494577Y-72713754D01*
X109493937Y-72718202D01*
X109493936Y-72718209D01*
X109474639Y-72852425D01*
X109474638Y-72852432D01*
X109474000Y-72856873D01*
X109474000Y-75167600D01*
X109485609Y-75275580D01*
X109496995Y-75327922D01*
X109531293Y-75430972D01*
X109609465Y-75552610D01*
X109655958Y-75606266D01*
X109659352Y-75609207D01*
X109682786Y-75629513D01*
X109765234Y-75700955D01*
X109896760Y-75761021D01*
X109920514Y-75767996D01*
X109960558Y-75779754D01*
X109960562Y-75779755D01*
X109964881Y-75781023D01*
X109969329Y-75781663D01*
X109969336Y-75781664D01*
X110103552Y-75800961D01*
X110103559Y-75800962D01*
X110108000Y-75801600D01*
X118746000Y-75801600D01*
X118853980Y-75789991D01*
X118857264Y-75789277D01*
X118857268Y-75789276D01*
X118882339Y-75783822D01*
X118906322Y-75778605D01*
X119009372Y-75744307D01*
X119131010Y-75666135D01*
X119184666Y-75619642D01*
X119196257Y-75606266D01*
X119273453Y-75517177D01*
X119279355Y-75510366D01*
X119339421Y-75378840D01*
X119359423Y-75310719D01*
X119360673Y-75302025D01*
X119379361Y-75172048D01*
X119379362Y-75172041D01*
X119380000Y-75167600D01*
X119380000Y-51942000D01*
X119368391Y-51834020D01*
X119366997Y-51827609D01*
X119359185Y-51791699D01*
X119357005Y-51781678D01*
X119322707Y-51678628D01*
X119244535Y-51556990D01*
X119235952Y-51547084D01*
X119209461Y-51516512D01*
X119179968Y-51451931D01*
X119190073Y-51381657D01*
X119236566Y-51328002D01*
X119304686Y-51308000D01*
X123955652Y-51308000D01*
X124023773Y-51328002D01*
X124070266Y-51381658D01*
X124080370Y-51451932D01*
X124050876Y-51516512D01*
X123990910Y-51554966D01*
X123842433Y-51598243D01*
X123838180Y-51600203D01*
X123838179Y-51600204D01*
X123804223Y-51615858D01*
X123605072Y-51707668D01*
X123569851Y-51730760D01*
X123390404Y-51848410D01*
X123390399Y-51848414D01*
X123386491Y-51850976D01*
X123191494Y-52025018D01*
X123024363Y-52225970D01*
X123021934Y-52229973D01*
X122924887Y-52389902D01*
X122888771Y-52449419D01*
X122787697Y-52690455D01*
X122723359Y-52943783D01*
X122722891Y-52948434D01*
X122722890Y-52948438D01*
X122710203Y-53074438D01*
X122701500Y-53160867D01*
X122701500Y-57816354D01*
X122701673Y-57818679D01*
X122701673Y-57818685D01*
X122712790Y-57968271D01*
X122715939Y-58010652D01*
X122716968Y-58015200D01*
X122716969Y-58015206D01*
X122753707Y-58177562D01*
X122773623Y-58265577D01*
X122775315Y-58269929D01*
X122775316Y-58269931D01*
X122837960Y-58431020D01*
X122868353Y-58509177D01*
X122998049Y-58736098D01*
X123159862Y-58941357D01*
X123350237Y-59120443D01*
X123564991Y-59269424D01*
X123569181Y-59271490D01*
X123569184Y-59271492D01*
X123795219Y-59382960D01*
X123795222Y-59382961D01*
X123799407Y-59385025D01*
X123803850Y-59386447D01*
X123803852Y-59386448D01*
X123909572Y-59420289D01*
X124048335Y-59464707D01*
X124306307Y-59506721D01*
X124420058Y-59508210D01*
X124562978Y-59510081D01*
X124562981Y-59510081D01*
X124567655Y-59510142D01*
X124826638Y-59474896D01*
X125077567Y-59401757D01*
X125086819Y-59397492D01*
X125132112Y-59376611D01*
X125314928Y-59292332D01*
X125389810Y-59243237D01*
X125529596Y-59151590D01*
X125529601Y-59151586D01*
X125533509Y-59149024D01*
X125728506Y-58974982D01*
X125895637Y-58774030D01*
X125952345Y-58680578D01*
X126028804Y-58554578D01*
X126028806Y-58554574D01*
X126031229Y-58550581D01*
X126132303Y-58309545D01*
X126196641Y-58056217D01*
X126208106Y-57942354D01*
X137283500Y-57942354D01*
X137283673Y-57944679D01*
X137283673Y-57944685D01*
X137292299Y-58060752D01*
X137297939Y-58136652D01*
X137298968Y-58141200D01*
X137298969Y-58141206D01*
X137326081Y-58261020D01*
X137355623Y-58391577D01*
X137450353Y-58635177D01*
X137580049Y-58862098D01*
X137741862Y-59067357D01*
X137932237Y-59246443D01*
X138146991Y-59395424D01*
X138151181Y-59397490D01*
X138151184Y-59397492D01*
X138377219Y-59508960D01*
X138377222Y-59508961D01*
X138381407Y-59511025D01*
X138385850Y-59512447D01*
X138385852Y-59512448D01*
X138625877Y-59589280D01*
X138630335Y-59590707D01*
X138888307Y-59632721D01*
X139002058Y-59634210D01*
X139144978Y-59636081D01*
X139144981Y-59636081D01*
X139149655Y-59636142D01*
X139408638Y-59600896D01*
X139659567Y-59527757D01*
X139695862Y-59511025D01*
X139714112Y-59502611D01*
X139896928Y-59418332D01*
X139950879Y-59382960D01*
X140111596Y-59277590D01*
X140111601Y-59277586D01*
X140115509Y-59275024D01*
X140310506Y-59100982D01*
X140477637Y-58900030D01*
X140556525Y-58770027D01*
X140610804Y-58680578D01*
X140610806Y-58680574D01*
X140613229Y-58676581D01*
X140714303Y-58435545D01*
X140778641Y-58182217D01*
X140791329Y-58056217D01*
X140800184Y-57968271D01*
X140800500Y-57965133D01*
X140800500Y-53309646D01*
X140791311Y-53185990D01*
X140786407Y-53120000D01*
X140786406Y-53119996D01*
X140786061Y-53115348D01*
X140774725Y-53065248D01*
X140729408Y-52864980D01*
X140728377Y-52860423D01*
X140677686Y-52730069D01*
X140635340Y-52621176D01*
X140635339Y-52621173D01*
X140633647Y-52616823D01*
X140503951Y-52389902D01*
X140342138Y-52184643D01*
X140151763Y-52005557D01*
X139966290Y-51876889D01*
X139940851Y-51859241D01*
X139940848Y-51859239D01*
X139937009Y-51856576D01*
X139931974Y-51854093D01*
X139706781Y-51743040D01*
X139706778Y-51743039D01*
X139702593Y-51740975D01*
X139670682Y-51730760D01*
X139458123Y-51662720D01*
X139453665Y-51661293D01*
X139195693Y-51619279D01*
X139081942Y-51617790D01*
X138939022Y-51615919D01*
X138939019Y-51615919D01*
X138934345Y-51615858D01*
X138675362Y-51651104D01*
X138424433Y-51724243D01*
X138420180Y-51726203D01*
X138420179Y-51726204D01*
X138383659Y-51743040D01*
X138187072Y-51833668D01*
X138152127Y-51856579D01*
X137972404Y-51974410D01*
X137972399Y-51974414D01*
X137968491Y-51976976D01*
X137773494Y-52151018D01*
X137606363Y-52351970D01*
X137603934Y-52355973D01*
X137519464Y-52495176D01*
X137470771Y-52575419D01*
X137369697Y-52816455D01*
X137305359Y-53069783D01*
X137283500Y-53286867D01*
X137283500Y-57942354D01*
X126208106Y-57942354D01*
X126218500Y-57839133D01*
X126218500Y-53183646D01*
X126213086Y-53110794D01*
X126204407Y-52994000D01*
X126204406Y-52993996D01*
X126204061Y-52989348D01*
X126192725Y-52939248D01*
X126147408Y-52738980D01*
X126146377Y-52734423D01*
X126051647Y-52490823D01*
X126030885Y-52454496D01*
X125949062Y-52311336D01*
X125921951Y-52263902D01*
X125760138Y-52058643D01*
X125569763Y-51879557D01*
X125361500Y-51735079D01*
X125358851Y-51733241D01*
X125358848Y-51733239D01*
X125355009Y-51730576D01*
X125350816Y-51728508D01*
X125124781Y-51617040D01*
X125124778Y-51617039D01*
X125120593Y-51614975D01*
X125064227Y-51596932D01*
X124930112Y-51554002D01*
X124871332Y-51514185D01*
X124843410Y-51448909D01*
X124855211Y-51378900D01*
X124902989Y-51326385D01*
X124968525Y-51308000D01*
X143968100Y-51308000D01*
X144036221Y-51328002D01*
X144082714Y-51381658D01*
X144092818Y-51451932D01*
X144063324Y-51516512D01*
X143991645Y-51599234D01*
X143931579Y-51730760D01*
X143928580Y-51740975D01*
X143913278Y-51793089D01*
X143911577Y-51798881D01*
X143910937Y-51803329D01*
X143910936Y-51803336D01*
X143891639Y-51937552D01*
X143891638Y-51937559D01*
X143891000Y-51942000D01*
X143891000Y-75145000D01*
X143902609Y-75252980D01*
X143913995Y-75305322D01*
X143948293Y-75408372D01*
X144026465Y-75530010D01*
X144072958Y-75583666D01*
X144182234Y-75678355D01*
X144313760Y-75738421D01*
X144319291Y-75740045D01*
X144377558Y-75757154D01*
X144377562Y-75757155D01*
X144381881Y-75758423D01*
X144386329Y-75759063D01*
X144386336Y-75759064D01*
X144520552Y-75778361D01*
X144520559Y-75778362D01*
X144525000Y-75779000D01*
X153097501Y-75779000D01*
X153165622Y-75799002D01*
X153212115Y-75852658D01*
X153223501Y-75905000D01*
X153223501Y-76064230D01*
X153234384Y-76169129D01*
X153236563Y-76175660D01*
X153236564Y-76175665D01*
X153261309Y-76249834D01*
X153289898Y-76335526D01*
X153382203Y-76484689D01*
X153506347Y-76608617D01*
X153655671Y-76700661D01*
X153662619Y-76702966D01*
X153662620Y-76702966D01*
X153815634Y-76753719D01*
X153815636Y-76753719D01*
X153822165Y-76755885D01*
X153925769Y-76766500D01*
X154428096Y-76766500D01*
X154938230Y-76766499D01*
X155043129Y-76755616D01*
X155049660Y-76753437D01*
X155049665Y-76753436D01*
X155202578Y-76702420D01*
X155209526Y-76700102D01*
X155358689Y-76607797D01*
X155482617Y-76483653D01*
X155574661Y-76334329D01*
X155579386Y-76320084D01*
X155627719Y-76174366D01*
X155627719Y-76174364D01*
X155629885Y-76167835D01*
X155640500Y-76064231D01*
X155640499Y-75476770D01*
X155629616Y-75371871D01*
X155627437Y-75365340D01*
X155627436Y-75365335D01*
X155576420Y-75212422D01*
X155574102Y-75205474D01*
X155481797Y-75056311D01*
X155357653Y-74932383D01*
X155208329Y-74840339D01*
X155205055Y-74839253D01*
X155152965Y-74793388D01*
X155133500Y-74726110D01*
X155133500Y-74712853D01*
X155153502Y-74644732D01*
X155170327Y-74623835D01*
X155253134Y-74540884D01*
X155253138Y-74540879D01*
X155258305Y-74535703D01*
X155351115Y-74385138D01*
X155406797Y-74217261D01*
X155417500Y-74112800D01*
X155417500Y-73112000D01*
X155415507Y-73092792D01*
X155407238Y-73013092D01*
X155407237Y-73013088D01*
X155406526Y-73006234D01*
X155378264Y-72921521D01*
X155352868Y-72845402D01*
X155350550Y-72838454D01*
X155257478Y-72688052D01*
X155132303Y-72563095D01*
X155118666Y-72554689D01*
X154987968Y-72474125D01*
X154987966Y-72474124D01*
X154981738Y-72470285D01*
X154901995Y-72443836D01*
X154820389Y-72416768D01*
X154820387Y-72416768D01*
X154813861Y-72414603D01*
X154807025Y-72413903D01*
X154807022Y-72413902D01*
X154763969Y-72409491D01*
X154709400Y-72403900D01*
X154083600Y-72403900D01*
X154080354Y-72404237D01*
X154080350Y-72404237D01*
X153984692Y-72414162D01*
X153984688Y-72414163D01*
X153977834Y-72414874D01*
X153971293Y-72417056D01*
X153971294Y-72417056D01*
X153962873Y-72419865D01*
X153891924Y-72422448D01*
X153830841Y-72386262D01*
X153799017Y-72322797D01*
X153797000Y-72300340D01*
X153797000Y-69988434D01*
X155186661Y-69988434D01*
X155186833Y-69991829D01*
X155186833Y-69991830D01*
X155192426Y-70102230D01*
X155204792Y-70346340D01*
X155205329Y-70349695D01*
X155205330Y-70349701D01*
X155238886Y-70559197D01*
X155261470Y-70700195D01*
X155356033Y-71045859D01*
X155487374Y-71379288D01*
X155506307Y-71415350D01*
X155637728Y-71665670D01*
X155653957Y-71696582D01*
X155655858Y-71699411D01*
X155655864Y-71699421D01*
X155754791Y-71846638D01*
X155853834Y-71994029D01*
X156084665Y-72268150D01*
X156343751Y-72515738D01*
X156628061Y-72733897D01*
X156660056Y-72753350D01*
X156931355Y-72918303D01*
X156931360Y-72918306D01*
X156934270Y-72920075D01*
X156937358Y-72921521D01*
X156937357Y-72921521D01*
X157255710Y-73070649D01*
X157255720Y-73070653D01*
X157258794Y-73072093D01*
X157262012Y-73073195D01*
X157262015Y-73073196D01*
X157594615Y-73187071D01*
X157594623Y-73187073D01*
X157597838Y-73188174D01*
X157947435Y-73266959D01*
X157999728Y-73272917D01*
X158300114Y-73307142D01*
X158300122Y-73307142D01*
X158303497Y-73307527D01*
X158306901Y-73307545D01*
X158306904Y-73307545D01*
X158501227Y-73308562D01*
X158661857Y-73309403D01*
X158665243Y-73309053D01*
X158665245Y-73309053D01*
X159014932Y-73272917D01*
X159014941Y-73272916D01*
X159018324Y-73272566D01*
X159021657Y-73271852D01*
X159021660Y-73271851D01*
X159238758Y-73225309D01*
X159368727Y-73197446D01*
X159708968Y-73084922D01*
X160035066Y-72936311D01*
X160203167Y-72836500D01*
X160340262Y-72755099D01*
X160340267Y-72755096D01*
X160343207Y-72753350D01*
X160390011Y-72718209D01*
X160542988Y-72603350D01*
X160629786Y-72538180D01*
X160891451Y-72293319D01*
X161125140Y-72021630D01*
X161249150Y-71841194D01*
X161326190Y-71729101D01*
X161326195Y-71729094D01*
X161328120Y-71726292D01*
X161329732Y-71723298D01*
X161329737Y-71723290D01*
X161476779Y-71450203D01*
X161498017Y-71410760D01*
X161614057Y-71124986D01*
X161631562Y-71081877D01*
X161631564Y-71081872D01*
X161632842Y-71078724D01*
X161643142Y-71042568D01*
X161685870Y-70892568D01*
X161731020Y-70734070D01*
X161737504Y-70696138D01*
X161790829Y-70384175D01*
X161790829Y-70384173D01*
X161791401Y-70380828D01*
X161793317Y-70349516D01*
X161813168Y-70024928D01*
X161813278Y-70023131D01*
X161813337Y-70006231D01*
X161813353Y-70001819D01*
X161813353Y-70001806D01*
X161813359Y-70000000D01*
X161793979Y-69642159D01*
X161736066Y-69288505D01*
X161640297Y-68943173D01*
X161637243Y-68935497D01*
X161528283Y-68661695D01*
X161507793Y-68610205D01*
X161473906Y-68546203D01*
X161341702Y-68296513D01*
X161341698Y-68296506D01*
X161340103Y-68293494D01*
X161139190Y-67996746D01*
X161135292Y-67992149D01*
X161009772Y-67844142D01*
X160907403Y-67723432D01*
X160764687Y-67588000D01*
X163957000Y-67588000D01*
X163968609Y-67695980D01*
X163969323Y-67699264D01*
X163969324Y-67699268D01*
X163972756Y-67715043D01*
X163979995Y-67748322D01*
X164014293Y-67851372D01*
X164092465Y-67973010D01*
X164095407Y-67976405D01*
X164095409Y-67976408D01*
X164105060Y-67987546D01*
X164138958Y-68026666D01*
X164142352Y-68029607D01*
X164165786Y-68049913D01*
X164248234Y-68121355D01*
X164379760Y-68181421D01*
X164403514Y-68188396D01*
X164443558Y-68200154D01*
X164443562Y-68200155D01*
X164447881Y-68201423D01*
X164452329Y-68202063D01*
X164452336Y-68202064D01*
X164586552Y-68221361D01*
X164586559Y-68221362D01*
X164591000Y-68222000D01*
X167944157Y-68222000D01*
X168012278Y-68242002D01*
X168058771Y-68295658D01*
X168068875Y-68365932D01*
X168039381Y-68430512D01*
X168010460Y-68455144D01*
X167902382Y-68522025D01*
X167863311Y-68546203D01*
X167739383Y-68670347D01*
X167647339Y-68819671D01*
X167645034Y-68826619D01*
X167645034Y-68826620D01*
X167597275Y-68970609D01*
X167592115Y-68986165D01*
X167581500Y-69089769D01*
X167581501Y-70102230D01*
X167592384Y-70207129D01*
X167594563Y-70213660D01*
X167594564Y-70213665D01*
X167618613Y-70285748D01*
X167647898Y-70373526D01*
X167740203Y-70522689D01*
X167864347Y-70646617D01*
X168013671Y-70738661D01*
X168020619Y-70740966D01*
X168020620Y-70740966D01*
X168173634Y-70791719D01*
X168173636Y-70791719D01*
X168180165Y-70793885D01*
X168283769Y-70804500D01*
X168575234Y-70804500D01*
X168871230Y-70804499D01*
X168976129Y-70793616D01*
X168982660Y-70791437D01*
X168982665Y-70791436D01*
X169135578Y-70740420D01*
X169142526Y-70738102D01*
X169291689Y-70645797D01*
X169415617Y-70521653D01*
X169433005Y-70493444D01*
X169485776Y-70445950D01*
X169555848Y-70434526D01*
X169606381Y-70452299D01*
X169641090Y-70473694D01*
X169648262Y-70478115D01*
X169683353Y-70489754D01*
X169809611Y-70531632D01*
X169809613Y-70531632D01*
X169816139Y-70533797D01*
X169822975Y-70534497D01*
X169822978Y-70534498D01*
X169866031Y-70538909D01*
X169920600Y-70544500D01*
X170921400Y-70544500D01*
X170924646Y-70544163D01*
X170924650Y-70544163D01*
X171020308Y-70534238D01*
X171020312Y-70534237D01*
X171027166Y-70533526D01*
X171033702Y-70531345D01*
X171033704Y-70531345D01*
X171178508Y-70483034D01*
X171194946Y-70477550D01*
X171345348Y-70384478D01*
X171470305Y-70259303D01*
X171506692Y-70200273D01*
X171559275Y-70114968D01*
X171559276Y-70114966D01*
X171563115Y-70108738D01*
X171599781Y-69998194D01*
X171616632Y-69947389D01*
X171616632Y-69947387D01*
X171618797Y-69940861D01*
X171629500Y-69836400D01*
X171629500Y-69210600D01*
X171622020Y-69138505D01*
X171619238Y-69111692D01*
X171619237Y-69111688D01*
X171618526Y-69104834D01*
X171581219Y-68993010D01*
X171564868Y-68944002D01*
X171562550Y-68937054D01*
X171469478Y-68786652D01*
X171382891Y-68700216D01*
X171348812Y-68637934D01*
X171353815Y-68567114D01*
X171382736Y-68522025D01*
X171465134Y-68439483D01*
X171470305Y-68434303D01*
X171474520Y-68427466D01*
X171563115Y-68283738D01*
X171565470Y-68285189D01*
X171603936Y-68241481D01*
X171671239Y-68222000D01*
X180976000Y-68222000D01*
X181083980Y-68210391D01*
X181087264Y-68209677D01*
X181087268Y-68209676D01*
X181112339Y-68204222D01*
X181136322Y-68199005D01*
X181239372Y-68164707D01*
X181361010Y-68086535D01*
X181414666Y-68040042D01*
X181426257Y-68026666D01*
X181449735Y-67999570D01*
X181509355Y-67930766D01*
X181569421Y-67799240D01*
X181589423Y-67731119D01*
X181590154Y-67726035D01*
X181609361Y-67592448D01*
X181609362Y-67592441D01*
X181610000Y-67588000D01*
X181610000Y-65377052D01*
X181599942Y-65276466D01*
X181599322Y-65273395D01*
X181599320Y-65273384D01*
X181590683Y-65230630D01*
X181590683Y-65230629D01*
X181590062Y-65227556D01*
X181560285Y-65130947D01*
X181508200Y-65044342D01*
X181488086Y-65010897D01*
X181488082Y-65010892D01*
X181485764Y-65007037D01*
X181440887Y-64952022D01*
X181334477Y-64854128D01*
X181204797Y-64790177D01*
X181200529Y-64788785D01*
X181200525Y-64788783D01*
X181141584Y-64769555D01*
X181141585Y-64769555D01*
X181140703Y-64769267D01*
X181140702Y-64769267D01*
X181137302Y-64768158D01*
X181137543Y-64767419D01*
X181079629Y-64733528D01*
X181047467Y-64670234D01*
X181045339Y-64645465D01*
X181045360Y-64643912D01*
X181048127Y-64432535D01*
X181048142Y-64431345D01*
X181048587Y-64431351D01*
X181063766Y-64364873D01*
X181114482Y-64315189D01*
X181138228Y-64305496D01*
X181230725Y-64278336D01*
X181239372Y-64275797D01*
X181361010Y-64197625D01*
X181414666Y-64151132D01*
X181509355Y-64041856D01*
X181569421Y-63910330D01*
X181589423Y-63842209D01*
X181594828Y-63804616D01*
X181609361Y-63703538D01*
X181609362Y-63703531D01*
X181610000Y-63699090D01*
X181610000Y-52450000D01*
X181598391Y-52342020D01*
X181587005Y-52289678D01*
X181552707Y-52186628D01*
X181474535Y-52064990D01*
X181469036Y-52058643D01*
X181430982Y-52014727D01*
X181428042Y-52011334D01*
X181409213Y-51995018D01*
X181388391Y-51976976D01*
X181318766Y-51916645D01*
X181187240Y-51856579D01*
X181159419Y-51848410D01*
X181123442Y-51837846D01*
X181123438Y-51837845D01*
X181119119Y-51836577D01*
X181114671Y-51835937D01*
X181114664Y-51835936D01*
X180980448Y-51816639D01*
X180980441Y-51816638D01*
X180976000Y-51816000D01*
X168951347Y-51816000D01*
X168922896Y-51812746D01*
X168892187Y-51805628D01*
X168833750Y-51792083D01*
X168565897Y-51768885D01*
X168561462Y-51769129D01*
X168561458Y-51769129D01*
X168443232Y-51775635D01*
X168297447Y-51783658D01*
X168186998Y-51805628D01*
X168147026Y-51813579D01*
X168122444Y-51816000D01*
X164591000Y-51816000D01*
X164483020Y-51827609D01*
X164479736Y-51828323D01*
X164479732Y-51828324D01*
X164455166Y-51833668D01*
X164430678Y-51838995D01*
X164327628Y-51873293D01*
X164205990Y-51951465D01*
X164202595Y-51954407D01*
X164202592Y-51954409D01*
X164172951Y-51980093D01*
X164152334Y-51997958D01*
X164149393Y-52001352D01*
X164137803Y-52014727D01*
X164057645Y-52107234D01*
X163997579Y-52238760D01*
X163977577Y-52306881D01*
X163976937Y-52311329D01*
X163976936Y-52311336D01*
X163957639Y-52445552D01*
X163957638Y-52445559D01*
X163957000Y-52450000D01*
X163957000Y-67588000D01*
X160764687Y-67588000D01*
X160647454Y-67476750D01*
X160414468Y-67299262D01*
X160365091Y-67261647D01*
X160365089Y-67261646D01*
X160362384Y-67259585D01*
X160359472Y-67257828D01*
X160359467Y-67257825D01*
X160058443Y-67076236D01*
X160058437Y-67076233D01*
X160055528Y-67074478D01*
X159753554Y-66934306D01*
X159733571Y-66925030D01*
X159733569Y-66925029D01*
X159730475Y-66923593D01*
X159552937Y-66863500D01*
X159394255Y-66809789D01*
X159394250Y-66809788D01*
X159391028Y-66808697D01*
X159192681Y-66764724D01*
X159044493Y-66731871D01*
X159044487Y-66731870D01*
X159041158Y-66731132D01*
X159037769Y-66730758D01*
X159037764Y-66730757D01*
X158688338Y-66692180D01*
X158688333Y-66692180D01*
X158684957Y-66691807D01*
X158681558Y-66691801D01*
X158681557Y-66691801D01*
X158512080Y-66691505D01*
X158326592Y-66691182D01*
X158213413Y-66703277D01*
X157973639Y-66728901D01*
X157973631Y-66728902D01*
X157970256Y-66729263D01*
X157620117Y-66805606D01*
X157280271Y-66919317D01*
X157277178Y-66920739D01*
X157277177Y-66920740D01*
X157161269Y-66974052D01*
X156954694Y-67069066D01*
X156951760Y-67070822D01*
X156951758Y-67070823D01*
X156684272Y-67230910D01*
X156647193Y-67253101D01*
X156644467Y-67255163D01*
X156644465Y-67255164D01*
X156364185Y-67467139D01*
X156361367Y-67469270D01*
X156100559Y-67715043D01*
X156098347Y-67717633D01*
X156098345Y-67717635D01*
X156074952Y-67745025D01*
X155867819Y-67987546D01*
X155865900Y-67990358D01*
X155865897Y-67990363D01*
X155800293Y-68086535D01*
X155665871Y-68283591D01*
X155497077Y-68599714D01*
X155363411Y-68932218D01*
X155362491Y-68935492D01*
X155362489Y-68935497D01*
X155268101Y-69271294D01*
X155266437Y-69277213D01*
X155265875Y-69280570D01*
X155265875Y-69280571D01*
X155230468Y-69492159D01*
X155207290Y-69630663D01*
X155186661Y-69988434D01*
X153797000Y-69988434D01*
X153797000Y-51942000D01*
X153785391Y-51834020D01*
X153783997Y-51827609D01*
X153776185Y-51791699D01*
X153774005Y-51781678D01*
X153739707Y-51678628D01*
X153661535Y-51556990D01*
X153652952Y-51547084D01*
X153626461Y-51516512D01*
X153596968Y-51451931D01*
X153607073Y-51381657D01*
X153653566Y-51328002D01*
X153721686Y-51308000D01*
X181179672Y-51308000D01*
X181199057Y-51309500D01*
X181213858Y-51311805D01*
X181213861Y-51311805D01*
X181222730Y-51313186D01*
X181231632Y-51312022D01*
X181231636Y-51312022D01*
X181231732Y-51312009D01*
X181262170Y-51311738D01*
X181356196Y-51322332D01*
X181383704Y-51328611D01*
X181491116Y-51366196D01*
X181516535Y-51378437D01*
X181564611Y-51408645D01*
X181612897Y-51438985D01*
X181634956Y-51456577D01*
X181715423Y-51537044D01*
X181733015Y-51559103D01*
X181771299Y-51620031D01*
X181793562Y-51655463D01*
X181805804Y-51680884D01*
X181843389Y-51788296D01*
X181849668Y-51815803D01*
X181859522Y-51903254D01*
X181860305Y-51918900D01*
X181860196Y-51927856D01*
X181858814Y-51936730D01*
X181862936Y-51968251D01*
X181864000Y-51984589D01*
X181864000Y-73364100D01*
X181843998Y-73432221D01*
X181790342Y-73478714D01*
X181720068Y-73488818D01*
X181655487Y-73459324D01*
X181616348Y-73425409D01*
X181572766Y-73387645D01*
X181441240Y-73327579D01*
X181407493Y-73317670D01*
X181377442Y-73308846D01*
X181377438Y-73308845D01*
X181373119Y-73307577D01*
X181368671Y-73306937D01*
X181368664Y-73306936D01*
X181234448Y-73287639D01*
X181234441Y-73287638D01*
X181230000Y-73287000D01*
X179995665Y-73287000D01*
X179927544Y-73266998D01*
X179881051Y-73213342D01*
X179870947Y-73143068D01*
X179876071Y-73121336D01*
X179877718Y-73116371D01*
X179877720Y-73116363D01*
X179879885Y-73109835D01*
X179890500Y-73006231D01*
X179890499Y-71993770D01*
X179879616Y-71888871D01*
X179877437Y-71882340D01*
X179877436Y-71882335D01*
X179826420Y-71729422D01*
X179824102Y-71722474D01*
X179731797Y-71573311D01*
X179607653Y-71449383D01*
X179458329Y-71357339D01*
X179363713Y-71325956D01*
X179298366Y-71304281D01*
X179298364Y-71304281D01*
X179291835Y-71302115D01*
X179188231Y-71291500D01*
X178896766Y-71291500D01*
X178600770Y-71291501D01*
X178495871Y-71302384D01*
X178489340Y-71304563D01*
X178489335Y-71304564D01*
X178341189Y-71353990D01*
X178329474Y-71357898D01*
X178180311Y-71450203D01*
X178056383Y-71574347D01*
X178052543Y-71580577D01*
X178052542Y-71580578D01*
X178000091Y-71665670D01*
X177947319Y-71713163D01*
X177877247Y-71724587D01*
X177826718Y-71706815D01*
X177732738Y-71648885D01*
X177572254Y-71595655D01*
X177571389Y-71595368D01*
X177571387Y-71595368D01*
X177564861Y-71593203D01*
X177558025Y-71592503D01*
X177558022Y-71592502D01*
X177514969Y-71588091D01*
X177460400Y-71582500D01*
X176459600Y-71582500D01*
X176456354Y-71582837D01*
X176456350Y-71582837D01*
X176360692Y-71592762D01*
X176360688Y-71592763D01*
X176353834Y-71593474D01*
X176347298Y-71595655D01*
X176347296Y-71595655D01*
X176267888Y-71622148D01*
X176186054Y-71649450D01*
X176035652Y-71742522D01*
X175910695Y-71867697D01*
X175906855Y-71873927D01*
X175906854Y-71873928D01*
X175832823Y-71994029D01*
X175817885Y-72018262D01*
X175762203Y-72186139D01*
X175751500Y-72290600D01*
X175751500Y-72916400D01*
X175751837Y-72919646D01*
X175751837Y-72919650D01*
X175761533Y-73013092D01*
X175762474Y-73022166D01*
X175764655Y-73028702D01*
X175764655Y-73028704D01*
X175795489Y-73121124D01*
X175798073Y-73192073D01*
X175761890Y-73253157D01*
X175698425Y-73284982D01*
X175675965Y-73287000D01*
X164845000Y-73287000D01*
X164737020Y-73298609D01*
X164733736Y-73299323D01*
X164733732Y-73299324D01*
X164708661Y-73304778D01*
X164684678Y-73309995D01*
X164581628Y-73344293D01*
X164459990Y-73422465D01*
X164406334Y-73468958D01*
X164403393Y-73472352D01*
X164392809Y-73484567D01*
X164311645Y-73578234D01*
X164251579Y-73709760D01*
X164231577Y-73777881D01*
X164230937Y-73782329D01*
X164230936Y-73782336D01*
X164211639Y-73916552D01*
X164211638Y-73916559D01*
X164211000Y-73921000D01*
X164211000Y-87534600D01*
X164222609Y-87642580D01*
X164233995Y-87694922D01*
X164268293Y-87797972D01*
X164346465Y-87919610D01*
X164349407Y-87923005D01*
X164349409Y-87923008D01*
X164364348Y-87940248D01*
X164392958Y-87973266D01*
X164502234Y-88067955D01*
X164633760Y-88128021D01*
X164657514Y-88134996D01*
X164697558Y-88146754D01*
X164697562Y-88146755D01*
X164701881Y-88148023D01*
X164706329Y-88148663D01*
X164706336Y-88148664D01*
X164840552Y-88167961D01*
X164840559Y-88167962D01*
X164845000Y-88168600D01*
X172918555Y-88168600D01*
X172920627Y-88168462D01*
X172920643Y-88168461D01*
X172965589Y-88165457D01*
X173034892Y-88180873D01*
X173084859Y-88231309D01*
X173094956Y-88255918D01*
X173136243Y-88397567D01*
X173245668Y-88634928D01*
X173248231Y-88638837D01*
X173386410Y-88849596D01*
X173386414Y-88849601D01*
X173388976Y-88853509D01*
X173563018Y-89048506D01*
X173763970Y-89215637D01*
X173767973Y-89218066D01*
X173983422Y-89348804D01*
X173983426Y-89348806D01*
X173987419Y-89351229D01*
X174228455Y-89452303D01*
X174481783Y-89516641D01*
X174486434Y-89517109D01*
X174486438Y-89517110D01*
X174679308Y-89536531D01*
X174698867Y-89538500D01*
X179354354Y-89538500D01*
X179356679Y-89538327D01*
X179356685Y-89538327D01*
X179544000Y-89524407D01*
X179544004Y-89524406D01*
X179548652Y-89524061D01*
X179553200Y-89523032D01*
X179553206Y-89523031D01*
X179739601Y-89480853D01*
X179803577Y-89466377D01*
X179839769Y-89452303D01*
X180042824Y-89373340D01*
X180042827Y-89373339D01*
X180047177Y-89371647D01*
X180274098Y-89241951D01*
X180479357Y-89080138D01*
X180658443Y-88889763D01*
X180807424Y-88675009D01*
X180857880Y-88572695D01*
X180920960Y-88444781D01*
X180920961Y-88444778D01*
X180923025Y-88440593D01*
X180924448Y-88436148D01*
X180984055Y-88249935D01*
X181023873Y-88191155D01*
X181089148Y-88163233D01*
X181121988Y-88163630D01*
X181152109Y-88167961D01*
X181152116Y-88167962D01*
X181156557Y-88168600D01*
X181230000Y-88168600D01*
X181337980Y-88156991D01*
X181341264Y-88156277D01*
X181341268Y-88156276D01*
X181367732Y-88150519D01*
X181390322Y-88145605D01*
X181493372Y-88111307D01*
X181615010Y-88033135D01*
X181624263Y-88025118D01*
X181655488Y-87998061D01*
X181720069Y-87968568D01*
X181790343Y-87978673D01*
X181843998Y-88025166D01*
X181864000Y-88093286D01*
X181864000Y-95606500D01*
X181843998Y-95674621D01*
X181790342Y-95721114D01*
X181720068Y-95731218D01*
X181655487Y-95701724D01*
X181616348Y-95667809D01*
X181572766Y-95630045D01*
X181441240Y-95569979D01*
X181417486Y-95563004D01*
X181377442Y-95551246D01*
X181377438Y-95551245D01*
X181373119Y-95549977D01*
X181368671Y-95549337D01*
X181368664Y-95549336D01*
X181234448Y-95530039D01*
X181234441Y-95530038D01*
X181230000Y-95529400D01*
X176947532Y-95529400D01*
X176879411Y-95509398D01*
X176832918Y-95455742D01*
X176822814Y-95385468D01*
X176827939Y-95363733D01*
X176829718Y-95358370D01*
X176829719Y-95358365D01*
X176831885Y-95351835D01*
X176842500Y-95248231D01*
X176842499Y-94235770D01*
X176831616Y-94130871D01*
X176829437Y-94124340D01*
X176829436Y-94124335D01*
X176778420Y-93971422D01*
X176776102Y-93964474D01*
X176683797Y-93815311D01*
X176559653Y-93691383D01*
X176410329Y-93599339D01*
X176318734Y-93568958D01*
X176250366Y-93546281D01*
X176250364Y-93546281D01*
X176243835Y-93544115D01*
X176140231Y-93533500D01*
X175848766Y-93533500D01*
X175552770Y-93533501D01*
X175447871Y-93544384D01*
X175441340Y-93546563D01*
X175441335Y-93546564D01*
X175302123Y-93593009D01*
X175281474Y-93599898D01*
X175132311Y-93692203D01*
X175008383Y-93816347D01*
X175004543Y-93822577D01*
X175004542Y-93822578D01*
X174991107Y-93844374D01*
X174916339Y-93965671D01*
X174914034Y-93972619D01*
X174914034Y-93972620D01*
X174871128Y-94101978D01*
X174861115Y-94132165D01*
X174859338Y-94149510D01*
X174832498Y-94215237D01*
X174774383Y-94256020D01*
X174703446Y-94258910D01*
X174684999Y-94252372D01*
X174681938Y-94250485D01*
X174566783Y-94212290D01*
X174520589Y-94196968D01*
X174520587Y-94196968D01*
X174514061Y-94194803D01*
X174507225Y-94194103D01*
X174507222Y-94194102D01*
X174464169Y-94189691D01*
X174409600Y-94184100D01*
X173408800Y-94184100D01*
X173405554Y-94184437D01*
X173405550Y-94184437D01*
X173309892Y-94194362D01*
X173309888Y-94194363D01*
X173303034Y-94195074D01*
X173296498Y-94197255D01*
X173296496Y-94197255D01*
X173242598Y-94215237D01*
X173135254Y-94251050D01*
X172984852Y-94344122D01*
X172859895Y-94469297D01*
X172856055Y-94475527D01*
X172856054Y-94475528D01*
X172789908Y-94582837D01*
X172767085Y-94619862D01*
X172764781Y-94626809D01*
X172719940Y-94762002D01*
X172711403Y-94787739D01*
X172710703Y-94794575D01*
X172710702Y-94794578D01*
X172707217Y-94828598D01*
X172700700Y-94892200D01*
X172700700Y-95403400D01*
X172680698Y-95471521D01*
X172627042Y-95518014D01*
X172574700Y-95529400D01*
X164845000Y-95529400D01*
X164737020Y-95541009D01*
X164733736Y-95541723D01*
X164733732Y-95541724D01*
X164709631Y-95546967D01*
X164684678Y-95552395D01*
X164581628Y-95586693D01*
X164459990Y-95664865D01*
X164406334Y-95711358D01*
X164403393Y-95714752D01*
X164389125Y-95731218D01*
X164311645Y-95820634D01*
X164251579Y-95952160D01*
X164250311Y-95956479D01*
X164235703Y-96006230D01*
X164231577Y-96020281D01*
X164230937Y-96024729D01*
X164230936Y-96024736D01*
X164211639Y-96158952D01*
X164211638Y-96158959D01*
X164211000Y-96163400D01*
X164211000Y-110643400D01*
X164222609Y-110751380D01*
X164233995Y-110803722D01*
X164268293Y-110906772D01*
X164346465Y-111028410D01*
X164392958Y-111082066D01*
X164502234Y-111176755D01*
X164633760Y-111236821D01*
X164657514Y-111243796D01*
X164697558Y-111255554D01*
X164697562Y-111255555D01*
X164701881Y-111256823D01*
X164706329Y-111257463D01*
X164706336Y-111257464D01*
X164840552Y-111276761D01*
X164840559Y-111276762D01*
X164845000Y-111277400D01*
X172938088Y-111277400D01*
X173006209Y-111297402D01*
X173052702Y-111351058D01*
X173060675Y-111378607D01*
X173061501Y-111378431D01*
X173062474Y-111383008D01*
X173063104Y-111387638D01*
X173064412Y-111392124D01*
X173064412Y-111392126D01*
X173082640Y-111454664D01*
X173136243Y-111638567D01*
X173138203Y-111642820D01*
X173138204Y-111642821D01*
X173145555Y-111658766D01*
X173245668Y-111875928D01*
X173248231Y-111879837D01*
X173386410Y-112090596D01*
X173386414Y-112090601D01*
X173388976Y-112094509D01*
X173563018Y-112289506D01*
X173763970Y-112456637D01*
X173767973Y-112459066D01*
X173983422Y-112589804D01*
X173983426Y-112589806D01*
X173987419Y-112592229D01*
X174228455Y-112693303D01*
X174481783Y-112757641D01*
X174486434Y-112758109D01*
X174486438Y-112758110D01*
X174679308Y-112777531D01*
X174698867Y-112779500D01*
X179354354Y-112779500D01*
X179356679Y-112779327D01*
X179356685Y-112779327D01*
X179544000Y-112765407D01*
X179544004Y-112765406D01*
X179548652Y-112765061D01*
X179553200Y-112764032D01*
X179553206Y-112764031D01*
X179780044Y-112712702D01*
X179803577Y-112707377D01*
X179839769Y-112693303D01*
X180042824Y-112614340D01*
X180042827Y-112614339D01*
X180047177Y-112612647D01*
X180274098Y-112482951D01*
X180479357Y-112321138D01*
X180658443Y-112130763D01*
X180769968Y-111970002D01*
X180804759Y-111919851D01*
X180804761Y-111919848D01*
X180807424Y-111916009D01*
X180816482Y-111897641D01*
X180920960Y-111685781D01*
X180920961Y-111685778D01*
X180923025Y-111681593D01*
X180953624Y-111586003D01*
X181001280Y-111437123D01*
X181002707Y-111432665D01*
X181010812Y-111382900D01*
X181041502Y-111318884D01*
X181101933Y-111281620D01*
X181138566Y-111278028D01*
X181138566Y-111277400D01*
X181230000Y-111277400D01*
X181337980Y-111265791D01*
X181341264Y-111265077D01*
X181341268Y-111265076D01*
X181366339Y-111259622D01*
X181390322Y-111254405D01*
X181493372Y-111220107D01*
X181615010Y-111141935D01*
X181655487Y-111106861D01*
X181720069Y-111077368D01*
X181790343Y-111087473D01*
X181843998Y-111133966D01*
X181864000Y-111202086D01*
X181864000Y-125553672D01*
X181862500Y-125573056D01*
X181858814Y-125596730D01*
X181859978Y-125605632D01*
X181859978Y-125605636D01*
X181859991Y-125605732D01*
X181860262Y-125636170D01*
X181849668Y-125730196D01*
X181843389Y-125757704D01*
X181805804Y-125865116D01*
X181793562Y-125890537D01*
X181733015Y-125986897D01*
X181715423Y-126008956D01*
X181634956Y-126089423D01*
X181612897Y-126107015D01*
X181516537Y-126167562D01*
X181491116Y-126179804D01*
X181383704Y-126217389D01*
X181356197Y-126223668D01*
X181320897Y-126227646D01*
X181268742Y-126233522D01*
X181253100Y-126234305D01*
X181244144Y-126234196D01*
X181235270Y-126232814D01*
X181203749Y-126236936D01*
X181187411Y-126238000D01*
X82472328Y-126238000D01*
X82452943Y-126236500D01*
X82438142Y-126234195D01*
X82438139Y-126234195D01*
X82429270Y-126232814D01*
X82420368Y-126233978D01*
X82420364Y-126233978D01*
X82420268Y-126233991D01*
X82389830Y-126234262D01*
X82295804Y-126223668D01*
X82268296Y-126217389D01*
X82160884Y-126179804D01*
X82135463Y-126167562D01*
X82039103Y-126107015D01*
X82017044Y-126089423D01*
X81936577Y-126008956D01*
X81918985Y-125986897D01*
X81858438Y-125890537D01*
X81846196Y-125865116D01*
X81808611Y-125757704D01*
X81802332Y-125730197D01*
X81792667Y-125644420D01*
X81792385Y-125619614D01*
X81793071Y-125615539D01*
X81793224Y-125603000D01*
X81789273Y-125575412D01*
X81788000Y-125557549D01*
X81788000Y-111316000D01*
X82169000Y-111316000D01*
X82180609Y-111423980D01*
X82191995Y-111476322D01*
X82226293Y-111579372D01*
X82304465Y-111701010D01*
X82307407Y-111704405D01*
X82307409Y-111704408D01*
X82328946Y-111729263D01*
X82350958Y-111754666D01*
X82354352Y-111757607D01*
X82377786Y-111777913D01*
X82460234Y-111849355D01*
X82591760Y-111909421D01*
X82599917Y-111911816D01*
X82655558Y-111928154D01*
X82655562Y-111928155D01*
X82659881Y-111929423D01*
X82664329Y-111930063D01*
X82664336Y-111930064D01*
X82798552Y-111949361D01*
X82798559Y-111949362D01*
X82803000Y-111950000D01*
X82859720Y-111950000D01*
X82917624Y-111943966D01*
X82961200Y-111939426D01*
X82961205Y-111939425D01*
X82964451Y-111939087D01*
X82967640Y-111938415D01*
X82967647Y-111938414D01*
X82992868Y-111933100D01*
X83003058Y-111930953D01*
X83073838Y-111936481D01*
X83130394Y-111979399D01*
X83143460Y-112001494D01*
X83202668Y-112129928D01*
X83226197Y-112165816D01*
X83343410Y-112344596D01*
X83343414Y-112344601D01*
X83345976Y-112348509D01*
X83520018Y-112543506D01*
X83720970Y-112710637D01*
X83724973Y-112713066D01*
X83940422Y-112843804D01*
X83940426Y-112843806D01*
X83944419Y-112846229D01*
X84185455Y-112947303D01*
X84438783Y-113011641D01*
X84443434Y-113012109D01*
X84443438Y-113012110D01*
X84636308Y-113031531D01*
X84655867Y-113033500D01*
X89311354Y-113033500D01*
X89313679Y-113033327D01*
X89313685Y-113033327D01*
X89501000Y-113019407D01*
X89501004Y-113019406D01*
X89505652Y-113019061D01*
X89510200Y-113018032D01*
X89510206Y-113018031D01*
X89696601Y-112975853D01*
X89760577Y-112961377D01*
X89796769Y-112947303D01*
X89999824Y-112868340D01*
X89999827Y-112868339D01*
X90004177Y-112866647D01*
X90231098Y-112736951D01*
X90436357Y-112575138D01*
X90615443Y-112384763D01*
X90754638Y-112184116D01*
X90761759Y-112173851D01*
X90761761Y-112173848D01*
X90764424Y-112170009D01*
X90849638Y-111997212D01*
X90897705Y-111944964D01*
X90966391Y-111926997D01*
X90986026Y-111929405D01*
X90986088Y-111929423D01*
X91029002Y-111935593D01*
X91124759Y-111949361D01*
X91124766Y-111949362D01*
X91129207Y-111950000D01*
X94197753Y-111950000D01*
X94265874Y-111970002D01*
X94312367Y-112023658D01*
X94322471Y-112093932D01*
X94292977Y-112158512D01*
X94262459Y-112184116D01*
X94147193Y-112253101D01*
X94144467Y-112255163D01*
X94144465Y-112255164D01*
X93878071Y-112456637D01*
X93861367Y-112469270D01*
X93600559Y-112715043D01*
X93598347Y-112717633D01*
X93598345Y-112717635D01*
X93557544Y-112765407D01*
X93367819Y-112987546D01*
X93365900Y-112990358D01*
X93365897Y-112990363D01*
X93346321Y-113019061D01*
X93165871Y-113283591D01*
X92997077Y-113599714D01*
X92863411Y-113932218D01*
X92862491Y-113935492D01*
X92862489Y-113935497D01*
X92768099Y-114271302D01*
X92766437Y-114277213D01*
X92765875Y-114280570D01*
X92765875Y-114280571D01*
X92733744Y-114472582D01*
X92707290Y-114630663D01*
X92686661Y-114988434D01*
X92686833Y-114991829D01*
X92686833Y-114991830D01*
X92690876Y-115071642D01*
X92704792Y-115346340D01*
X92705329Y-115349695D01*
X92705330Y-115349701D01*
X92733776Y-115527296D01*
X92761470Y-115700195D01*
X92856033Y-116045859D01*
X92987374Y-116379288D01*
X93153957Y-116696582D01*
X93155858Y-116699411D01*
X93155864Y-116699421D01*
X93339569Y-116972800D01*
X93353834Y-116994029D01*
X93584665Y-117268150D01*
X93843751Y-117515738D01*
X94128061Y-117733897D01*
X94160056Y-117753350D01*
X94431355Y-117918303D01*
X94431360Y-117918306D01*
X94434270Y-117920075D01*
X94437358Y-117921521D01*
X94437357Y-117921521D01*
X94755710Y-118070649D01*
X94755720Y-118070653D01*
X94758794Y-118072093D01*
X94762012Y-118073195D01*
X94762015Y-118073196D01*
X95094615Y-118187071D01*
X95094623Y-118187073D01*
X95097838Y-118188174D01*
X95447435Y-118266959D01*
X95499728Y-118272917D01*
X95800114Y-118307142D01*
X95800122Y-118307142D01*
X95803497Y-118307527D01*
X95806901Y-118307545D01*
X95806904Y-118307545D01*
X96001227Y-118308562D01*
X96161857Y-118309403D01*
X96165243Y-118309053D01*
X96165245Y-118309053D01*
X96514932Y-118272917D01*
X96514941Y-118272916D01*
X96518324Y-118272566D01*
X96521657Y-118271852D01*
X96521660Y-118271851D01*
X96694186Y-118234864D01*
X96868727Y-118197446D01*
X97208968Y-118084922D01*
X97535066Y-117936311D01*
X97629052Y-117880506D01*
X97840262Y-117755099D01*
X97840267Y-117755096D01*
X97843207Y-117753350D01*
X98129786Y-117538180D01*
X98391451Y-117293319D01*
X98625140Y-117021630D01*
X98731750Y-116866512D01*
X98826190Y-116729101D01*
X98826195Y-116729094D01*
X98828120Y-116726292D01*
X98829732Y-116723298D01*
X98829737Y-116723290D01*
X98996395Y-116413772D01*
X98998017Y-116410760D01*
X99130130Y-116085403D01*
X99131562Y-116081877D01*
X99131564Y-116081872D01*
X99132842Y-116078724D01*
X99141637Y-116047851D01*
X99198951Y-115846649D01*
X99231020Y-115734070D01*
X99269339Y-115509897D01*
X99290829Y-115384175D01*
X99290829Y-115384173D01*
X99291401Y-115380828D01*
X99293511Y-115346340D01*
X99313168Y-115024928D01*
X99313278Y-115023131D01*
X99313359Y-115000000D01*
X99293979Y-114642159D01*
X99236066Y-114288505D01*
X99140297Y-113943173D01*
X99137243Y-113935497D01*
X99009052Y-113613369D01*
X99007793Y-113610205D01*
X98902849Y-113412000D01*
X114808000Y-113412000D01*
X114808360Y-113415346D01*
X114808360Y-113415351D01*
X114808392Y-113415644D01*
X114825413Y-113573971D01*
X114826131Y-113577271D01*
X114826131Y-113577272D01*
X114830360Y-113596711D01*
X114836799Y-113626313D01*
X114842807Y-113651812D01*
X114905949Y-113817086D01*
X114951961Y-113884683D01*
X114994015Y-113946466D01*
X115005504Y-113963345D01*
X115007908Y-113966119D01*
X115050894Y-114015729D01*
X115050910Y-114015746D01*
X115051997Y-114017001D01*
X115053157Y-114018204D01*
X115053170Y-114018219D01*
X115088451Y-114054830D01*
X115107903Y-114075016D01*
X115112202Y-114078181D01*
X115112204Y-114078183D01*
X115145226Y-114102496D01*
X115250376Y-114179916D01*
X115257128Y-114182786D01*
X115257131Y-114182788D01*
X115409826Y-114247698D01*
X115409830Y-114247699D01*
X115413200Y-114249132D01*
X115416719Y-114250165D01*
X115416721Y-114250166D01*
X115447799Y-114259291D01*
X115481321Y-114269134D01*
X115520271Y-114279460D01*
X115696000Y-114300000D01*
X126934606Y-114300000D01*
X126978992Y-114298706D01*
X127008850Y-114293438D01*
X127079409Y-114301301D01*
X127134517Y-114346063D01*
X127142300Y-114358952D01*
X127201957Y-114472582D01*
X127203858Y-114475411D01*
X127203864Y-114475421D01*
X127387569Y-114748800D01*
X127401834Y-114770029D01*
X127632665Y-115044150D01*
X127891751Y-115291738D01*
X128176061Y-115509897D01*
X128208056Y-115529350D01*
X128479355Y-115694303D01*
X128479360Y-115694306D01*
X128482270Y-115696075D01*
X128485358Y-115697521D01*
X128485357Y-115697521D01*
X128803710Y-115846649D01*
X128803720Y-115846653D01*
X128806794Y-115848093D01*
X128810012Y-115849195D01*
X128810015Y-115849196D01*
X129142615Y-115963071D01*
X129142623Y-115963073D01*
X129145838Y-115964174D01*
X129495435Y-116042959D01*
X129547728Y-116048917D01*
X129848114Y-116083142D01*
X129848122Y-116083142D01*
X129851497Y-116083527D01*
X129854901Y-116083545D01*
X129854904Y-116083545D01*
X130049227Y-116084562D01*
X130209857Y-116085403D01*
X130213243Y-116085053D01*
X130213245Y-116085053D01*
X130562932Y-116048917D01*
X130562941Y-116048916D01*
X130566324Y-116048566D01*
X130569657Y-116047852D01*
X130569660Y-116047851D01*
X130742186Y-116010864D01*
X130916727Y-115973446D01*
X131256968Y-115860922D01*
X131583066Y-115712311D01*
X131677052Y-115656506D01*
X131888262Y-115531099D01*
X131888267Y-115531096D01*
X131891207Y-115529350D01*
X132177786Y-115314180D01*
X132439451Y-115069319D01*
X132509023Y-114988434D01*
X163686661Y-114988434D01*
X163686833Y-114991829D01*
X163686833Y-114991830D01*
X163690876Y-115071642D01*
X163704792Y-115346340D01*
X163705329Y-115349695D01*
X163705330Y-115349701D01*
X163733776Y-115527296D01*
X163761470Y-115700195D01*
X163856033Y-116045859D01*
X163987374Y-116379288D01*
X164153957Y-116696582D01*
X164155858Y-116699411D01*
X164155864Y-116699421D01*
X164339569Y-116972800D01*
X164353834Y-116994029D01*
X164584665Y-117268150D01*
X164843751Y-117515738D01*
X165128061Y-117733897D01*
X165160056Y-117753350D01*
X165431355Y-117918303D01*
X165431360Y-117918306D01*
X165434270Y-117920075D01*
X165437358Y-117921521D01*
X165437357Y-117921521D01*
X165755710Y-118070649D01*
X165755720Y-118070653D01*
X165758794Y-118072093D01*
X165762012Y-118073195D01*
X165762015Y-118073196D01*
X166094615Y-118187071D01*
X166094623Y-118187073D01*
X166097838Y-118188174D01*
X166447435Y-118266959D01*
X166499728Y-118272917D01*
X166800114Y-118307142D01*
X166800122Y-118307142D01*
X166803497Y-118307527D01*
X166806901Y-118307545D01*
X166806904Y-118307545D01*
X167001227Y-118308562D01*
X167161857Y-118309403D01*
X167165243Y-118309053D01*
X167165245Y-118309053D01*
X167514932Y-118272917D01*
X167514941Y-118272916D01*
X167518324Y-118272566D01*
X167521657Y-118271852D01*
X167521660Y-118271851D01*
X167694186Y-118234864D01*
X167868727Y-118197446D01*
X168208968Y-118084922D01*
X168535066Y-117936311D01*
X168629052Y-117880506D01*
X168840262Y-117755099D01*
X168840267Y-117755096D01*
X168843207Y-117753350D01*
X169129786Y-117538180D01*
X169391451Y-117293319D01*
X169625140Y-117021630D01*
X169731750Y-116866512D01*
X169826190Y-116729101D01*
X169826195Y-116729094D01*
X169828120Y-116726292D01*
X169829732Y-116723298D01*
X169829737Y-116723290D01*
X169996395Y-116413772D01*
X169998017Y-116410760D01*
X170130130Y-116085403D01*
X170131562Y-116081877D01*
X170131564Y-116081872D01*
X170132842Y-116078724D01*
X170141637Y-116047851D01*
X170198951Y-115846649D01*
X170231020Y-115734070D01*
X170269339Y-115509897D01*
X170290829Y-115384175D01*
X170290829Y-115384173D01*
X170291401Y-115380828D01*
X170293511Y-115346340D01*
X170313168Y-115024928D01*
X170313278Y-115023131D01*
X170313359Y-115000000D01*
X170293979Y-114642159D01*
X170236066Y-114288505D01*
X170140297Y-113943173D01*
X170137243Y-113935497D01*
X170009052Y-113613369D01*
X170007793Y-113610205D01*
X169900906Y-113408331D01*
X169841702Y-113296513D01*
X169841698Y-113296506D01*
X169840103Y-113293494D01*
X169639190Y-112996746D01*
X169610070Y-112962408D01*
X169526892Y-112864329D01*
X169407403Y-112723432D01*
X169147454Y-112476750D01*
X168862384Y-112259585D01*
X168859472Y-112257828D01*
X168859467Y-112257825D01*
X168558443Y-112076236D01*
X168558437Y-112076233D01*
X168555528Y-112074478D01*
X168287364Y-111950000D01*
X168233571Y-111925030D01*
X168233569Y-111925029D01*
X168230475Y-111923593D01*
X168022209Y-111853099D01*
X167894255Y-111809789D01*
X167894250Y-111809788D01*
X167891028Y-111808697D01*
X167660578Y-111757607D01*
X167544493Y-111731871D01*
X167544487Y-111731870D01*
X167541158Y-111731132D01*
X167537769Y-111730758D01*
X167537764Y-111730757D01*
X167188338Y-111692180D01*
X167188333Y-111692180D01*
X167184957Y-111691807D01*
X167181558Y-111691801D01*
X167181557Y-111691801D01*
X167012080Y-111691505D01*
X166826592Y-111691182D01*
X166713413Y-111703277D01*
X166473639Y-111728901D01*
X166473631Y-111728902D01*
X166470256Y-111729263D01*
X166120117Y-111805606D01*
X165780271Y-111919317D01*
X165777178Y-111920739D01*
X165777177Y-111920740D01*
X165670074Y-111970002D01*
X165454694Y-112069066D01*
X165451760Y-112070822D01*
X165451758Y-112070823D01*
X165262837Y-112183890D01*
X165147193Y-112253101D01*
X165144467Y-112255163D01*
X165144465Y-112255164D01*
X164878071Y-112456637D01*
X164861367Y-112469270D01*
X164600559Y-112715043D01*
X164598347Y-112717633D01*
X164598345Y-112717635D01*
X164557544Y-112765407D01*
X164367819Y-112987546D01*
X164365900Y-112990358D01*
X164365897Y-112990363D01*
X164346321Y-113019061D01*
X164165871Y-113283591D01*
X163997077Y-113599714D01*
X163863411Y-113932218D01*
X163862491Y-113935492D01*
X163862489Y-113935497D01*
X163768099Y-114271302D01*
X163766437Y-114277213D01*
X163765875Y-114280570D01*
X163765875Y-114280571D01*
X163733744Y-114472582D01*
X163707290Y-114630663D01*
X163686661Y-114988434D01*
X132509023Y-114988434D01*
X132673140Y-114797630D01*
X132790206Y-114627298D01*
X132874190Y-114505101D01*
X132874195Y-114505094D01*
X132876120Y-114502292D01*
X132877732Y-114499298D01*
X132877737Y-114499290D01*
X132928228Y-114405518D01*
X132954698Y-114356357D01*
X133004603Y-114305862D01*
X133080265Y-114290945D01*
X133157734Y-114300000D01*
X146178000Y-114300000D01*
X146181346Y-114299640D01*
X146181351Y-114299640D01*
X146336607Y-114282949D01*
X146336613Y-114282948D01*
X146339971Y-114282587D01*
X146349239Y-114280571D01*
X146391850Y-114271302D01*
X146391880Y-114271295D01*
X146392313Y-114271201D01*
X146417812Y-114265193D01*
X146583086Y-114202051D01*
X146650683Y-114156039D01*
X146726309Y-114104563D01*
X146726314Y-114104559D01*
X146729345Y-114102496D01*
X146761059Y-114075016D01*
X146781729Y-114057106D01*
X146781746Y-114057090D01*
X146783001Y-114056003D01*
X146784204Y-114054843D01*
X146784219Y-114054830D01*
X146837170Y-114003803D01*
X146841016Y-114000097D01*
X146880504Y-113946466D01*
X146941563Y-113863536D01*
X146945916Y-113857624D01*
X146966061Y-113810236D01*
X147013698Y-113698174D01*
X147013699Y-113698170D01*
X147015132Y-113694800D01*
X147035134Y-113626679D01*
X147045460Y-113587729D01*
X147066000Y-113412000D01*
X147066000Y-105459090D01*
X147065222Y-105424669D01*
X147064517Y-105420342D01*
X147064516Y-105420333D01*
X147054235Y-105357243D01*
X147063019Y-105286792D01*
X147097181Y-105240811D01*
X147224553Y-105132983D01*
X147261639Y-105101587D01*
X147261640Y-105101586D01*
X147265205Y-105098568D01*
X147385265Y-104961666D01*
X147434457Y-104905574D01*
X147434461Y-104905569D01*
X147437539Y-104902059D01*
X147477535Y-104839879D01*
X147561163Y-104709864D01*
X147578933Y-104682237D01*
X147686283Y-104443929D01*
X147705316Y-104376443D01*
X147755960Y-104196876D01*
X147755961Y-104196873D01*
X147757230Y-104192372D01*
X147778866Y-104022295D01*
X147789816Y-103936221D01*
X147789816Y-103936217D01*
X147790214Y-103933091D01*
X147792631Y-103840800D01*
X147787007Y-103765121D01*
X147773607Y-103584800D01*
X147773606Y-103584796D01*
X147773261Y-103580148D01*
X147763121Y-103535333D01*
X147730053Y-103389199D01*
X147715577Y-103325223D01*
X147620847Y-103081623D01*
X147491151Y-102854702D01*
X147329338Y-102649443D01*
X147138963Y-102470357D01*
X146924209Y-102321376D01*
X146739503Y-102230289D01*
X146687255Y-102182222D01*
X146670515Y-102135216D01*
X146661840Y-102074883D01*
X146661600Y-102073213D01*
X146651729Y-102023415D01*
X146646972Y-101999418D01*
X146646971Y-101999415D01*
X146645935Y-101994188D01*
X146582793Y-101828914D01*
X146483238Y-101682655D01*
X146468525Y-101665676D01*
X146437848Y-101630271D01*
X146437832Y-101630254D01*
X146436745Y-101628999D01*
X146400781Y-101591679D01*
X146367917Y-101528748D01*
X146374292Y-101458038D01*
X146417883Y-101402000D01*
X146455304Y-101383563D01*
X146478320Y-101376658D01*
X146544890Y-101356686D01*
X146549524Y-101354416D01*
X146748249Y-101257062D01*
X146748252Y-101257060D01*
X146752884Y-101254791D01*
X146941443Y-101120294D01*
X147105503Y-100956805D01*
X147240658Y-100768717D01*
X147287841Y-100673250D01*
X147340984Y-100565722D01*
X147340985Y-100565720D01*
X147343278Y-100561080D01*
X147410608Y-100339471D01*
X147440840Y-100109841D01*
X147440922Y-100106491D01*
X147442445Y-100044165D01*
X147442445Y-100044161D01*
X147442527Y-100040800D01*
X147433962Y-99936621D01*
X147423973Y-99815118D01*
X147423972Y-99815112D01*
X147423549Y-99809967D01*
X147367125Y-99585333D01*
X147365066Y-99580597D01*
X147276830Y-99377668D01*
X147276828Y-99377665D01*
X147274770Y-99372931D01*
X147148964Y-99178465D01*
X146993087Y-99007158D01*
X146989036Y-99003959D01*
X146989032Y-99003955D01*
X146815377Y-98866811D01*
X146815372Y-98866808D01*
X146811323Y-98863610D01*
X146806807Y-98861117D01*
X146806804Y-98861115D01*
X146613079Y-98754173D01*
X146613075Y-98754171D01*
X146608555Y-98751676D01*
X146603686Y-98749952D01*
X146603682Y-98749950D01*
X146395103Y-98676088D01*
X146395099Y-98676087D01*
X146390228Y-98674362D01*
X146385135Y-98673455D01*
X146385132Y-98673454D01*
X146167295Y-98634651D01*
X146167289Y-98634650D01*
X146162206Y-98633745D01*
X146089296Y-98632854D01*
X145935781Y-98630979D01*
X145935779Y-98630979D01*
X145930611Y-98630916D01*
X145701664Y-98665950D01*
X145481514Y-98737906D01*
X145476926Y-98740294D01*
X145476922Y-98740296D01*
X145280661Y-98842463D01*
X145276072Y-98844852D01*
X145271939Y-98847955D01*
X145271936Y-98847957D01*
X145094990Y-98980812D01*
X145090855Y-98983917D01*
X145087283Y-98987655D01*
X144988279Y-99091257D01*
X144930839Y-99151364D01*
X144927925Y-99155636D01*
X144927924Y-99155637D01*
X144912352Y-99178465D01*
X144800319Y-99342699D01*
X144702802Y-99552781D01*
X144640907Y-99775969D01*
X144616295Y-100006269D01*
X144616592Y-100011422D01*
X144616592Y-100011425D01*
X144627312Y-100197342D01*
X144629627Y-100237497D01*
X144630764Y-100242543D01*
X144630765Y-100242549D01*
X144654300Y-100346979D01*
X144680546Y-100463442D01*
X144682488Y-100468224D01*
X144682489Y-100468228D01*
X144742178Y-100615224D01*
X144767684Y-100678037D01*
X144888701Y-100875519D01*
X145040347Y-101050584D01*
X145119924Y-101116650D01*
X145127640Y-101123056D01*
X145167275Y-101181959D01*
X145168773Y-101252939D01*
X145131658Y-101313462D01*
X145067714Y-101344311D01*
X145047155Y-101346000D01*
X143142700Y-101346000D01*
X143139354Y-101346360D01*
X143139349Y-101346360D01*
X142984093Y-101363051D01*
X142984087Y-101363052D01*
X142980729Y-101363413D01*
X142977429Y-101364131D01*
X142977428Y-101364131D01*
X142928850Y-101374698D01*
X142928820Y-101374705D01*
X142928387Y-101374799D01*
X142902888Y-101380807D01*
X142737614Y-101443949D01*
X142705095Y-101466084D01*
X142594391Y-101541437D01*
X142594386Y-101541441D01*
X142591355Y-101543504D01*
X142588581Y-101545908D01*
X142538971Y-101588894D01*
X142538954Y-101588910D01*
X142537699Y-101589997D01*
X142536496Y-101591157D01*
X142536481Y-101591170D01*
X142494447Y-101631676D01*
X142479684Y-101645903D01*
X142374784Y-101788376D01*
X142371914Y-101795128D01*
X142371912Y-101795131D01*
X142353451Y-101838559D01*
X142305568Y-101951200D01*
X142285566Y-102019321D01*
X142275240Y-102058271D01*
X142254700Y-102234000D01*
X142254439Y-102233969D01*
X142231082Y-102299224D01*
X142174816Y-102342521D01*
X142104074Y-102348525D01*
X142041316Y-102315330D01*
X142006467Y-102253475D01*
X142003711Y-102233999D01*
X142003700Y-102234000D01*
X142003663Y-102233659D01*
X141986287Y-102072029D01*
X141983294Y-102058271D01*
X141975002Y-102020150D01*
X141974992Y-102020106D01*
X141974901Y-102019687D01*
X141968893Y-101994188D01*
X141905751Y-101828914D01*
X141806196Y-101682655D01*
X141791483Y-101665676D01*
X141760806Y-101630271D01*
X141760790Y-101630254D01*
X141759703Y-101628999D01*
X141758543Y-101627796D01*
X141758530Y-101627781D01*
X141707503Y-101574830D01*
X141703797Y-101570984D01*
X141669740Y-101545908D01*
X141567236Y-101470437D01*
X141567237Y-101470437D01*
X141561324Y-101466084D01*
X141554572Y-101463214D01*
X141554569Y-101463212D01*
X141401874Y-101398302D01*
X141401870Y-101398301D01*
X141398500Y-101396868D01*
X141394981Y-101395835D01*
X141394979Y-101395834D01*
X141353187Y-101383563D01*
X141330379Y-101376866D01*
X141291429Y-101366540D01*
X141115700Y-101346000D01*
X134649770Y-101346000D01*
X134581649Y-101325998D01*
X134575707Y-101321935D01*
X134574091Y-101320761D01*
X134568752Y-101316882D01*
X134434394Y-101257062D01*
X134400319Y-101241891D01*
X134400318Y-101241891D01*
X134394288Y-101239206D01*
X134300888Y-101219353D01*
X134213944Y-101200872D01*
X134213939Y-101200872D01*
X134207487Y-101199500D01*
X134016513Y-101199500D01*
X134010061Y-101200872D01*
X134010056Y-101200872D01*
X133923113Y-101219353D01*
X133829712Y-101239206D01*
X133823682Y-101241891D01*
X133823681Y-101241891D01*
X133789607Y-101257062D01*
X133655248Y-101316882D01*
X133649909Y-101320761D01*
X133648293Y-101321935D01*
X133647199Y-101322325D01*
X133644186Y-101324065D01*
X133643868Y-101323514D01*
X133581425Y-101345794D01*
X133574230Y-101346000D01*
X133125770Y-101346000D01*
X133057649Y-101325998D01*
X133051707Y-101321935D01*
X133050091Y-101320761D01*
X133044752Y-101316882D01*
X132910394Y-101257062D01*
X132876319Y-101241891D01*
X132876318Y-101241891D01*
X132870288Y-101239206D01*
X132776888Y-101219353D01*
X132689944Y-101200872D01*
X132689939Y-101200872D01*
X132683487Y-101199500D01*
X132492513Y-101199500D01*
X132486061Y-101200872D01*
X132486056Y-101200872D01*
X132399113Y-101219353D01*
X132305712Y-101239206D01*
X132299682Y-101241891D01*
X132299681Y-101241891D01*
X132265607Y-101257062D01*
X132131248Y-101316882D01*
X132125909Y-101320761D01*
X132124293Y-101321935D01*
X132123199Y-101322325D01*
X132120186Y-101324065D01*
X132119868Y-101323514D01*
X132057425Y-101345794D01*
X132050230Y-101346000D01*
X131601770Y-101346000D01*
X131533649Y-101325998D01*
X131527707Y-101321935D01*
X131526091Y-101320761D01*
X131520752Y-101316882D01*
X131386394Y-101257062D01*
X131352319Y-101241891D01*
X131352318Y-101241891D01*
X131346288Y-101239206D01*
X131252888Y-101219353D01*
X131165944Y-101200872D01*
X131165939Y-101200872D01*
X131159487Y-101199500D01*
X130968513Y-101199500D01*
X130962061Y-101200872D01*
X130962056Y-101200872D01*
X130875113Y-101219353D01*
X130781712Y-101239206D01*
X130775682Y-101241891D01*
X130775681Y-101241891D01*
X130741607Y-101257062D01*
X130607248Y-101316882D01*
X130601909Y-101320761D01*
X130600293Y-101321935D01*
X130599199Y-101322325D01*
X130596186Y-101324065D01*
X130595868Y-101323514D01*
X130533425Y-101345794D01*
X130526230Y-101346000D01*
X130077770Y-101346000D01*
X130009649Y-101325998D01*
X130003707Y-101321935D01*
X130002091Y-101320761D01*
X129996752Y-101316882D01*
X129862394Y-101257062D01*
X129828319Y-101241891D01*
X129828318Y-101241891D01*
X129822288Y-101239206D01*
X129728888Y-101219353D01*
X129641944Y-101200872D01*
X129641939Y-101200872D01*
X129635487Y-101199500D01*
X129444513Y-101199500D01*
X129438061Y-101200872D01*
X129438056Y-101200872D01*
X129351113Y-101219353D01*
X129257712Y-101239206D01*
X129251682Y-101241891D01*
X129251681Y-101241891D01*
X129217607Y-101257062D01*
X129083248Y-101316882D01*
X129077909Y-101320761D01*
X129076293Y-101321935D01*
X129075199Y-101322325D01*
X129072186Y-101324065D01*
X129071868Y-101323514D01*
X129009425Y-101345794D01*
X129002230Y-101346000D01*
X128807770Y-101346000D01*
X128739649Y-101325998D01*
X128733707Y-101321935D01*
X128732091Y-101320761D01*
X128726752Y-101316882D01*
X128592394Y-101257062D01*
X128558319Y-101241891D01*
X128558318Y-101241891D01*
X128552288Y-101239206D01*
X128458888Y-101219353D01*
X128371944Y-101200872D01*
X128371939Y-101200872D01*
X128365487Y-101199500D01*
X128174513Y-101199500D01*
X128168061Y-101200872D01*
X128168056Y-101200872D01*
X128081113Y-101219353D01*
X127987712Y-101239206D01*
X127981682Y-101241891D01*
X127981681Y-101241891D01*
X127947607Y-101257062D01*
X127813248Y-101316882D01*
X127807909Y-101320761D01*
X127806293Y-101321935D01*
X127805199Y-101322325D01*
X127802186Y-101324065D01*
X127801868Y-101323514D01*
X127739425Y-101345794D01*
X127732230Y-101346000D01*
X127537770Y-101346000D01*
X127469649Y-101325998D01*
X127463707Y-101321935D01*
X127462091Y-101320761D01*
X127456752Y-101316882D01*
X127322394Y-101257062D01*
X127288319Y-101241891D01*
X127288318Y-101241891D01*
X127282288Y-101239206D01*
X127188888Y-101219353D01*
X127101944Y-101200872D01*
X127101939Y-101200872D01*
X127095487Y-101199500D01*
X126904513Y-101199500D01*
X126898061Y-101200872D01*
X126898056Y-101200872D01*
X126811113Y-101219353D01*
X126717712Y-101239206D01*
X126711682Y-101241891D01*
X126711681Y-101241891D01*
X126677607Y-101257062D01*
X126543248Y-101316882D01*
X126537909Y-101320761D01*
X126536293Y-101321935D01*
X126535199Y-101322325D01*
X126532186Y-101324065D01*
X126531868Y-101323514D01*
X126469425Y-101345794D01*
X126462230Y-101346000D01*
X118269720Y-101346000D01*
X118228099Y-101347138D01*
X118214352Y-101347890D01*
X118132910Y-101356755D01*
X118127756Y-101358229D01*
X118127751Y-101358230D01*
X118069429Y-101374910D01*
X118002495Y-101375560D01*
X117972820Y-101367693D01*
X117972821Y-101367693D01*
X117968471Y-101366540D01*
X117792742Y-101346000D01*
X115696000Y-101346000D01*
X115692654Y-101346360D01*
X115692649Y-101346360D01*
X115537393Y-101363051D01*
X115537387Y-101363052D01*
X115534029Y-101363413D01*
X115530729Y-101364131D01*
X115530728Y-101364131D01*
X115482150Y-101374698D01*
X115482120Y-101374705D01*
X115481687Y-101374799D01*
X115456188Y-101380807D01*
X115290914Y-101443949D01*
X115258395Y-101466084D01*
X115147691Y-101541437D01*
X115147686Y-101541441D01*
X115144655Y-101543504D01*
X115141881Y-101545908D01*
X115092271Y-101588894D01*
X115092254Y-101588910D01*
X115090999Y-101589997D01*
X115089796Y-101591157D01*
X115089781Y-101591170D01*
X115047747Y-101631676D01*
X115032984Y-101645903D01*
X114928084Y-101788376D01*
X114925214Y-101795128D01*
X114925212Y-101795131D01*
X114906751Y-101838559D01*
X114858868Y-101951200D01*
X114838866Y-102019321D01*
X114828540Y-102058271D01*
X114808000Y-102234000D01*
X114808000Y-113412000D01*
X98902849Y-113412000D01*
X98900906Y-113408331D01*
X98841702Y-113296513D01*
X98841698Y-113296506D01*
X98840103Y-113293494D01*
X98639190Y-112996746D01*
X98610070Y-112962408D01*
X98526892Y-112864329D01*
X98407403Y-112723432D01*
X98147454Y-112476750D01*
X97862384Y-112259585D01*
X97859472Y-112257828D01*
X97859467Y-112257825D01*
X97736903Y-112183890D01*
X97688905Y-112131576D01*
X97676810Y-112061617D01*
X97704457Y-111996225D01*
X97763069Y-111956161D01*
X97801986Y-111950000D01*
X99188000Y-111950000D01*
X99295980Y-111938391D01*
X99299264Y-111937677D01*
X99299268Y-111937676D01*
X99330173Y-111930953D01*
X99348322Y-111927005D01*
X99451372Y-111892707D01*
X99573010Y-111814535D01*
X99578488Y-111809789D01*
X99623273Y-111770982D01*
X99626666Y-111768042D01*
X99638257Y-111754666D01*
X99692401Y-111692180D01*
X99721355Y-111658766D01*
X99781421Y-111527240D01*
X99801423Y-111459119D01*
X99802064Y-111454664D01*
X99821361Y-111320448D01*
X99821362Y-111320441D01*
X99822000Y-111316000D01*
X99822000Y-96789000D01*
X99810391Y-96681020D01*
X99805471Y-96658400D01*
X99799722Y-96631975D01*
X99799005Y-96628678D01*
X99764707Y-96525628D01*
X99686535Y-96403990D01*
X99640042Y-96350334D01*
X99621213Y-96334018D01*
X99589445Y-96306491D01*
X99530766Y-96255645D01*
X99399240Y-96195579D01*
X99370833Y-96187238D01*
X99335442Y-96176846D01*
X99335438Y-96176845D01*
X99331119Y-96175577D01*
X99326671Y-96174937D01*
X99326664Y-96174936D01*
X99192448Y-96155639D01*
X99192441Y-96155638D01*
X99188000Y-96155000D01*
X91863623Y-96155000D01*
X91795502Y-96134998D01*
X91749009Y-96081342D01*
X91738279Y-96016157D01*
X91741871Y-95981101D01*
X91748500Y-95916400D01*
X91748500Y-95290600D01*
X91744220Y-95249348D01*
X91738238Y-95191692D01*
X91738237Y-95191688D01*
X91737526Y-95184834D01*
X91708872Y-95098946D01*
X91683868Y-95024002D01*
X91681550Y-95017054D01*
X91588478Y-94866652D01*
X91463303Y-94741695D01*
X91430366Y-94721392D01*
X91318968Y-94652725D01*
X91318966Y-94652724D01*
X91312738Y-94648885D01*
X91152254Y-94595655D01*
X91151389Y-94595368D01*
X91151387Y-94595368D01*
X91144861Y-94593203D01*
X91138025Y-94592503D01*
X91138022Y-94592502D01*
X91094969Y-94588091D01*
X91040400Y-94582500D01*
X90039600Y-94582500D01*
X90036354Y-94582837D01*
X90036350Y-94582837D01*
X89940692Y-94592762D01*
X89940688Y-94592763D01*
X89933834Y-94593474D01*
X89927298Y-94595655D01*
X89927296Y-94595655D01*
X89848583Y-94621916D01*
X89766054Y-94649450D01*
X89656186Y-94717439D01*
X89646044Y-94723715D01*
X89577592Y-94742553D01*
X89509823Y-94721392D01*
X89472597Y-94682874D01*
X89408651Y-94579539D01*
X89404797Y-94573311D01*
X89280653Y-94449383D01*
X89131329Y-94357339D01*
X89124380Y-94355034D01*
X88971366Y-94304281D01*
X88971364Y-94304281D01*
X88964835Y-94302115D01*
X88861231Y-94291500D01*
X88569766Y-94291500D01*
X88273770Y-94291501D01*
X88168871Y-94302384D01*
X88162340Y-94304563D01*
X88162335Y-94304564D01*
X88014189Y-94353990D01*
X88002474Y-94357898D01*
X87853311Y-94450203D01*
X87729383Y-94574347D01*
X87725543Y-94580577D01*
X87725542Y-94580578D01*
X87716249Y-94595655D01*
X87637339Y-94723671D01*
X87635034Y-94730619D01*
X87635034Y-94730620D01*
X87587357Y-94874362D01*
X87582115Y-94890165D01*
X87571500Y-94993769D01*
X87571501Y-96006230D01*
X87571838Y-96009477D01*
X87572515Y-96016003D01*
X87559646Y-96085823D01*
X87511073Y-96137603D01*
X87447187Y-96155000D01*
X87215352Y-96155000D01*
X87188799Y-96157142D01*
X87136441Y-96161366D01*
X87136430Y-96161367D01*
X87133918Y-96161570D01*
X87131428Y-96161974D01*
X87131423Y-96161975D01*
X87122650Y-96163400D01*
X87094042Y-96168046D01*
X87038691Y-96181680D01*
X87017180Y-96186978D01*
X87017177Y-96186979D01*
X87014704Y-96187588D01*
X87012289Y-96188394D01*
X87012281Y-96188396D01*
X86996367Y-96193705D01*
X86969504Y-96199507D01*
X86966441Y-96199825D01*
X86953430Y-96200499D01*
X86690232Y-96200500D01*
X86431159Y-96200500D01*
X86418292Y-96199841D01*
X86415993Y-96199605D01*
X86389195Y-96193858D01*
X86371630Y-96188032D01*
X86371621Y-96188029D01*
X86369235Y-96187238D01*
X86290308Y-96167907D01*
X86250641Y-96161500D01*
X86210140Y-96158250D01*
X86172162Y-96155202D01*
X86172151Y-96155202D01*
X86169639Y-96155000D01*
X82803000Y-96155000D01*
X82695020Y-96166609D01*
X82691736Y-96167323D01*
X82691732Y-96167324D01*
X82666661Y-96172778D01*
X82642678Y-96177995D01*
X82539628Y-96212293D01*
X82417990Y-96290465D01*
X82414595Y-96293407D01*
X82414592Y-96293409D01*
X82372208Y-96330135D01*
X82364334Y-96336958D01*
X82361393Y-96340352D01*
X82349803Y-96353727D01*
X82269645Y-96446234D01*
X82209579Y-96577760D01*
X82189577Y-96645881D01*
X82188937Y-96650329D01*
X82188936Y-96650336D01*
X82169639Y-96784552D01*
X82169638Y-96784559D01*
X82169000Y-96789000D01*
X82169000Y-111316000D01*
X81788000Y-111316000D01*
X81788000Y-93566502D01*
X108616500Y-93566502D01*
X108616693Y-93568950D01*
X108616693Y-93568958D01*
X108618761Y-93595225D01*
X108619438Y-93603831D01*
X108644874Y-93691383D01*
X108663187Y-93754416D01*
X108665855Y-93763601D01*
X108669892Y-93770427D01*
X108746509Y-93899980D01*
X108746511Y-93899983D01*
X108750547Y-93906807D01*
X108868193Y-94024453D01*
X108875017Y-94028489D01*
X108875020Y-94028491D01*
X108974454Y-94087296D01*
X109011399Y-94109145D01*
X109019010Y-94111356D01*
X109019012Y-94111357D01*
X109063684Y-94124335D01*
X109171169Y-94155562D01*
X109177574Y-94156066D01*
X109177579Y-94156067D01*
X109206042Y-94158307D01*
X109206050Y-94158307D01*
X109208498Y-94158500D01*
X110516502Y-94158500D01*
X110518950Y-94158307D01*
X110518958Y-94158307D01*
X110547421Y-94156067D01*
X110547426Y-94156066D01*
X110553831Y-94155562D01*
X110661316Y-94124335D01*
X110705988Y-94111357D01*
X110705990Y-94111356D01*
X110713601Y-94109145D01*
X110750546Y-94087296D01*
X110849980Y-94028491D01*
X110849983Y-94028489D01*
X110856807Y-94024453D01*
X110974453Y-93906807D01*
X110978489Y-93899983D01*
X110978491Y-93899980D01*
X111055108Y-93770427D01*
X111059145Y-93763601D01*
X111061814Y-93754416D01*
X111080126Y-93691383D01*
X111105562Y-93603831D01*
X111106240Y-93595225D01*
X111108307Y-93568958D01*
X111108307Y-93568950D01*
X111108500Y-93566502D01*
X111108500Y-93334500D01*
X111128502Y-93266379D01*
X111182158Y-93219886D01*
X111234500Y-93208500D01*
X112391502Y-93208500D01*
X112393950Y-93208307D01*
X112393958Y-93208307D01*
X112422421Y-93206067D01*
X112422426Y-93206066D01*
X112428831Y-93205562D01*
X112528769Y-93176528D01*
X112580988Y-93161357D01*
X112580990Y-93161356D01*
X112588601Y-93159145D01*
X112631968Y-93133498D01*
X112724980Y-93078491D01*
X112724983Y-93078489D01*
X112731807Y-93074453D01*
X112737415Y-93068845D01*
X112743675Y-93063989D01*
X112745739Y-93066650D01*
X112794548Y-93039998D01*
X112865363Y-93045063D01*
X112922199Y-93087610D01*
X112946658Y-93150115D01*
X112947825Y-93161357D01*
X112952474Y-93206166D01*
X113008450Y-93373946D01*
X113049991Y-93441075D01*
X113064194Y-93464027D01*
X113083032Y-93532479D01*
X113061871Y-93600249D01*
X113023355Y-93637473D01*
X113000652Y-93651522D01*
X112875695Y-93776697D01*
X112871855Y-93782927D01*
X112871854Y-93782928D01*
X112787435Y-93919881D01*
X112782885Y-93927262D01*
X112770145Y-93965671D01*
X112735721Y-94069459D01*
X112727203Y-94095139D01*
X112726503Y-94101975D01*
X112726502Y-94101978D01*
X112723542Y-94130871D01*
X112716500Y-94199600D01*
X112716500Y-94825400D01*
X112716837Y-94828646D01*
X112716837Y-94828650D01*
X112723765Y-94895417D01*
X112727474Y-94931166D01*
X112729655Y-94937702D01*
X112729655Y-94937704D01*
X112758447Y-95024002D01*
X112783450Y-95098946D01*
X112876522Y-95249348D01*
X112881704Y-95254521D01*
X112963109Y-95335784D01*
X112997188Y-95398066D01*
X112992185Y-95468886D01*
X112963264Y-95513975D01*
X112907358Y-95569979D01*
X112875695Y-95601697D01*
X112871855Y-95607927D01*
X112871854Y-95607928D01*
X112799854Y-95724734D01*
X112782885Y-95752262D01*
X112727203Y-95920139D01*
X112716500Y-96024600D01*
X112716500Y-96650400D01*
X112716837Y-96653646D01*
X112716837Y-96653650D01*
X112720025Y-96684370D01*
X112727474Y-96756166D01*
X112729655Y-96762702D01*
X112729655Y-96762704D01*
X112769603Y-96882441D01*
X112783450Y-96923946D01*
X112876522Y-97074348D01*
X113001697Y-97199305D01*
X113007927Y-97203145D01*
X113007928Y-97203146D01*
X113152262Y-97292115D01*
X113151596Y-97293196D01*
X113199264Y-97335169D01*
X113218723Y-97403447D01*
X113201846Y-97465444D01*
X113196618Y-97474500D01*
X113165473Y-97528444D01*
X113106458Y-97710072D01*
X113086496Y-97900000D01*
X113087186Y-97906565D01*
X113104913Y-98075224D01*
X113106458Y-98089928D01*
X113165473Y-98271556D01*
X113260960Y-98436944D01*
X113265378Y-98441851D01*
X113265379Y-98441852D01*
X113384325Y-98573955D01*
X113388747Y-98578866D01*
X113543248Y-98691118D01*
X113549276Y-98693802D01*
X113549278Y-98693803D01*
X113711681Y-98766109D01*
X113717712Y-98768794D01*
X113811113Y-98788647D01*
X113898056Y-98807128D01*
X113898061Y-98807128D01*
X113904513Y-98808500D01*
X114095487Y-98808500D01*
X114101939Y-98807128D01*
X114101944Y-98807128D01*
X114188888Y-98788647D01*
X114282288Y-98768794D01*
X114288319Y-98766109D01*
X114450722Y-98693803D01*
X114450724Y-98693802D01*
X114456752Y-98691118D01*
X114611253Y-98578866D01*
X114615675Y-98573955D01*
X114734621Y-98441852D01*
X114734622Y-98441851D01*
X114739040Y-98436944D01*
X114834527Y-98271556D01*
X114893542Y-98089928D01*
X114895088Y-98075224D01*
X114912814Y-97906565D01*
X114913504Y-97900000D01*
X114893542Y-97710072D01*
X114834527Y-97528444D01*
X114821974Y-97506702D01*
X114759174Y-97397928D01*
X114742436Y-97328932D01*
X114765657Y-97261841D01*
X114801990Y-97227784D01*
X114843120Y-97202332D01*
X114849348Y-97198478D01*
X114974305Y-97073303D01*
X114978146Y-97067072D01*
X115063275Y-96928968D01*
X115063276Y-96928966D01*
X115067115Y-96922738D01*
X115093564Y-96842995D01*
X115120632Y-96761389D01*
X115120632Y-96761387D01*
X115122797Y-96754861D01*
X115133500Y-96650400D01*
X115133500Y-96206269D01*
X116616295Y-96206269D01*
X116616592Y-96211422D01*
X116616592Y-96211425D01*
X116622267Y-96309841D01*
X116629627Y-96437497D01*
X116630764Y-96442543D01*
X116630765Y-96442549D01*
X116661237Y-96577760D01*
X116680546Y-96663442D01*
X116682488Y-96668224D01*
X116682489Y-96668228D01*
X116730170Y-96785651D01*
X116767684Y-96878037D01*
X116888701Y-97075519D01*
X117040347Y-97250584D01*
X117218549Y-97398530D01*
X117418522Y-97515384D01*
X117423347Y-97517226D01*
X117423348Y-97517227D01*
X117469181Y-97534729D01*
X117634894Y-97598009D01*
X117639960Y-97599040D01*
X117639961Y-97599040D01*
X117693046Y-97609840D01*
X117861856Y-97644185D01*
X117992524Y-97648976D01*
X118088149Y-97652483D01*
X118088153Y-97652483D01*
X118093313Y-97652672D01*
X118098433Y-97652016D01*
X118098435Y-97652016D01*
X118171470Y-97642660D01*
X118323047Y-97623242D01*
X118327995Y-97621757D01*
X118328002Y-97621756D01*
X118539947Y-97558169D01*
X118544890Y-97556686D01*
X118589710Y-97534729D01*
X118748249Y-97457062D01*
X118748252Y-97457060D01*
X118752884Y-97454791D01*
X118941443Y-97320294D01*
X119105503Y-97156805D01*
X119240658Y-96968717D01*
X119244271Y-96961408D01*
X119340984Y-96765722D01*
X119340985Y-96765720D01*
X119343278Y-96761080D01*
X119410608Y-96539471D01*
X119440840Y-96309841D01*
X119441242Y-96293409D01*
X119442445Y-96244165D01*
X119442445Y-96244161D01*
X119442527Y-96240800D01*
X119434043Y-96137603D01*
X119423973Y-96015118D01*
X119423972Y-96015112D01*
X119423549Y-96009967D01*
X119367125Y-95785333D01*
X119355241Y-95758002D01*
X119276830Y-95577668D01*
X119276828Y-95577665D01*
X119274770Y-95572931D01*
X119148964Y-95378465D01*
X119122088Y-95348928D01*
X119033371Y-95251430D01*
X118993087Y-95207158D01*
X118989036Y-95203959D01*
X118989032Y-95203955D01*
X118815377Y-95066811D01*
X118815372Y-95066808D01*
X118811323Y-95063610D01*
X118806807Y-95061117D01*
X118806804Y-95061115D01*
X118613079Y-94954173D01*
X118613075Y-94954171D01*
X118608555Y-94951676D01*
X118603686Y-94949952D01*
X118603682Y-94949950D01*
X118395103Y-94876088D01*
X118395099Y-94876087D01*
X118390228Y-94874362D01*
X118385135Y-94873455D01*
X118385132Y-94873454D01*
X118167295Y-94834651D01*
X118167289Y-94834650D01*
X118162206Y-94833745D01*
X118089296Y-94832854D01*
X117935781Y-94830979D01*
X117935779Y-94830979D01*
X117930611Y-94830916D01*
X117701664Y-94865950D01*
X117481514Y-94937906D01*
X117476926Y-94940294D01*
X117476922Y-94940296D01*
X117280661Y-95042463D01*
X117276072Y-95044852D01*
X117271939Y-95047955D01*
X117271936Y-95047957D01*
X117098341Y-95178296D01*
X117090855Y-95183917D01*
X117087283Y-95187655D01*
X116945728Y-95335784D01*
X116930839Y-95351364D01*
X116927925Y-95355636D01*
X116927924Y-95355637D01*
X116912352Y-95378465D01*
X116800319Y-95542699D01*
X116702802Y-95752781D01*
X116640907Y-95975969D01*
X116616295Y-96206269D01*
X115133500Y-96206269D01*
X115133500Y-96024600D01*
X115132608Y-96016003D01*
X115123238Y-95925692D01*
X115123237Y-95925688D01*
X115122526Y-95918834D01*
X115087492Y-95813823D01*
X115068868Y-95758002D01*
X115066550Y-95751054D01*
X114973478Y-95600652D01*
X114886891Y-95514216D01*
X114852812Y-95451934D01*
X114857815Y-95381114D01*
X114886736Y-95336025D01*
X114969134Y-95253483D01*
X114974305Y-95248303D01*
X114993789Y-95216695D01*
X115063275Y-95103968D01*
X115063276Y-95103966D01*
X115067115Y-95097738D01*
X115114733Y-94954173D01*
X115120632Y-94936389D01*
X115120632Y-94936387D01*
X115122797Y-94929861D01*
X115133500Y-94825400D01*
X115133500Y-94199600D01*
X115133163Y-94196350D01*
X115123238Y-94100692D01*
X115123237Y-94100688D01*
X115122526Y-94093834D01*
X115114012Y-94068313D01*
X115095426Y-94012607D01*
X115066550Y-93926054D01*
X115062718Y-93919862D01*
X115051935Y-93849708D01*
X115080799Y-93784844D01*
X115140149Y-93745882D01*
X115216488Y-93746834D01*
X115363611Y-93795632D01*
X115363613Y-93795632D01*
X115370139Y-93797797D01*
X115376975Y-93798497D01*
X115376978Y-93798498D01*
X115420031Y-93802909D01*
X115474600Y-93808500D01*
X116100400Y-93808500D01*
X116103646Y-93808163D01*
X116103650Y-93808163D01*
X116199308Y-93798238D01*
X116199312Y-93798237D01*
X116206166Y-93797526D01*
X116212702Y-93795345D01*
X116212704Y-93795345D01*
X116366998Y-93743868D01*
X116373946Y-93741550D01*
X116524348Y-93648478D01*
X116649305Y-93523303D01*
X116653406Y-93516650D01*
X116738273Y-93378972D01*
X116738275Y-93378967D01*
X116742115Y-93372738D01*
X116742120Y-93372741D01*
X116787034Y-93321730D01*
X116855311Y-93302268D01*
X116923271Y-93322809D01*
X116949550Y-93345766D01*
X117036961Y-93446676D01*
X117036966Y-93446681D01*
X117040347Y-93450584D01*
X117218549Y-93598530D01*
X117418522Y-93715384D01*
X117423347Y-93717226D01*
X117423348Y-93717227D01*
X117488523Y-93742115D01*
X117634894Y-93798009D01*
X117639960Y-93799040D01*
X117639961Y-93799040D01*
X117684802Y-93808163D01*
X117861856Y-93844185D01*
X117992524Y-93848976D01*
X118088149Y-93852483D01*
X118088153Y-93852483D01*
X118093313Y-93852672D01*
X118098433Y-93852016D01*
X118098435Y-93852016D01*
X118171470Y-93842660D01*
X118323047Y-93823242D01*
X118327995Y-93821757D01*
X118328002Y-93821756D01*
X118539947Y-93758169D01*
X118544890Y-93756686D01*
X118549524Y-93754416D01*
X118748249Y-93657062D01*
X118748252Y-93657060D01*
X118752884Y-93654791D01*
X118941443Y-93520294D01*
X119105503Y-93356805D01*
X119240658Y-93168717D01*
X119256844Y-93135968D01*
X119340984Y-92965722D01*
X119340985Y-92965720D01*
X119343278Y-92961080D01*
X119410608Y-92739471D01*
X119440840Y-92509841D01*
X119442527Y-92440800D01*
X119429184Y-92278502D01*
X119423973Y-92215118D01*
X119423972Y-92215112D01*
X119423549Y-92209967D01*
X119367125Y-91985333D01*
X119365066Y-91980597D01*
X119276830Y-91777668D01*
X119276828Y-91777665D01*
X119274770Y-91772931D01*
X119148964Y-91578465D01*
X118993087Y-91407158D01*
X118989036Y-91403959D01*
X118989032Y-91403955D01*
X118815377Y-91266811D01*
X118815372Y-91266808D01*
X118811323Y-91263610D01*
X118806807Y-91261117D01*
X118806804Y-91261115D01*
X118613079Y-91154173D01*
X118613075Y-91154171D01*
X118608555Y-91151676D01*
X118603686Y-91149952D01*
X118603682Y-91149950D01*
X118395103Y-91076088D01*
X118395099Y-91076087D01*
X118390228Y-91074362D01*
X118385135Y-91073455D01*
X118385132Y-91073454D01*
X118167295Y-91034651D01*
X118167289Y-91034650D01*
X118162206Y-91033745D01*
X118089296Y-91032854D01*
X117935781Y-91030979D01*
X117935779Y-91030979D01*
X117930611Y-91030916D01*
X117701664Y-91065950D01*
X117481514Y-91137906D01*
X117476926Y-91140294D01*
X117476922Y-91140296D01*
X117314207Y-91225000D01*
X117276072Y-91244852D01*
X117271939Y-91247955D01*
X117271936Y-91247957D01*
X117246825Y-91266811D01*
X117090855Y-91383917D01*
X116930839Y-91551364D01*
X116850648Y-91668920D01*
X116795737Y-91713922D01*
X116725212Y-91722093D01*
X116661465Y-91690839D01*
X116650766Y-91679349D01*
X116648478Y-91675652D01*
X116523303Y-91550695D01*
X116470006Y-91517842D01*
X116378968Y-91461725D01*
X116378966Y-91461724D01*
X116372738Y-91457885D01*
X116243226Y-91414928D01*
X116211389Y-91404368D01*
X116211387Y-91404368D01*
X116204861Y-91402203D01*
X116198025Y-91401503D01*
X116198022Y-91401502D01*
X116154969Y-91397091D01*
X116100400Y-91391500D01*
X115474600Y-91391500D01*
X115471354Y-91391837D01*
X115471350Y-91391837D01*
X115375692Y-91401762D01*
X115375688Y-91401763D01*
X115368834Y-91402474D01*
X115362298Y-91404655D01*
X115362296Y-91404655D01*
X115254641Y-91440572D01*
X115201054Y-91458450D01*
X115050652Y-91551522D01*
X115019420Y-91582809D01*
X114964216Y-91638109D01*
X114901934Y-91672188D01*
X114831114Y-91667185D01*
X114786025Y-91638264D01*
X114703483Y-91555866D01*
X114698303Y-91550695D01*
X114633540Y-91510774D01*
X114618384Y-91501432D01*
X114570891Y-91448660D01*
X114558500Y-91394172D01*
X114558500Y-91096311D01*
X114578502Y-91028190D01*
X114618196Y-90989167D01*
X114724348Y-90923478D01*
X114760180Y-90887584D01*
X114844134Y-90803483D01*
X114849305Y-90798303D01*
X114942115Y-90647738D01*
X114968564Y-90567995D01*
X114995632Y-90486389D01*
X114995632Y-90486387D01*
X114997797Y-90479861D01*
X115008500Y-90375400D01*
X115008500Y-89749600D01*
X114997526Y-89643834D01*
X114981760Y-89596576D01*
X114943868Y-89483002D01*
X114941550Y-89476054D01*
X114848478Y-89325652D01*
X114723303Y-89200695D01*
X114717072Y-89196854D01*
X114578968Y-89111725D01*
X114578966Y-89111724D01*
X114572738Y-89107885D01*
X114412254Y-89054655D01*
X114411389Y-89054368D01*
X114411387Y-89054368D01*
X114404861Y-89052203D01*
X114398025Y-89051503D01*
X114398022Y-89051502D01*
X114354969Y-89047091D01*
X114300400Y-89041500D01*
X113299600Y-89041500D01*
X113296354Y-89041837D01*
X113296350Y-89041837D01*
X113200692Y-89051762D01*
X113200688Y-89051763D01*
X113193834Y-89052474D01*
X113187298Y-89054655D01*
X113187296Y-89054655D01*
X113121112Y-89076736D01*
X113026054Y-89108450D01*
X112875652Y-89201522D01*
X112750695Y-89326697D01*
X112746855Y-89332927D01*
X112746854Y-89332928D01*
X112664595Y-89466377D01*
X112657885Y-89477262D01*
X112655581Y-89484209D01*
X112618311Y-89596576D01*
X112602203Y-89645139D01*
X112591500Y-89749600D01*
X112591500Y-90375400D01*
X112591837Y-90378646D01*
X112591837Y-90378650D01*
X112597971Y-90437763D01*
X112602474Y-90481166D01*
X112604655Y-90487702D01*
X112604655Y-90487704D01*
X112642678Y-90601672D01*
X112658450Y-90648946D01*
X112751522Y-90799348D01*
X112876697Y-90924305D01*
X113027262Y-91017115D01*
X113193752Y-91072337D01*
X113193754Y-91072338D01*
X113195139Y-91072797D01*
X113195057Y-91073044D01*
X113254328Y-91105178D01*
X113288540Y-91167388D01*
X113291500Y-91194540D01*
X113291500Y-91440572D01*
X113271498Y-91508693D01*
X113237112Y-91542495D01*
X113237612Y-91543125D01*
X113231880Y-91547668D01*
X113225652Y-91551522D01*
X113100695Y-91676697D01*
X113096855Y-91682927D01*
X113082251Y-91706618D01*
X113029478Y-91754110D01*
X112974992Y-91766500D01*
X112824950Y-91766500D01*
X112756829Y-91746498D01*
X112743729Y-91735941D01*
X112743675Y-91736011D01*
X112737415Y-91731155D01*
X112731807Y-91725547D01*
X112724983Y-91721511D01*
X112724980Y-91721509D01*
X112595427Y-91644892D01*
X112595428Y-91644892D01*
X112588601Y-91640855D01*
X112580990Y-91638644D01*
X112580988Y-91638643D01*
X112528769Y-91623472D01*
X112428831Y-91594438D01*
X112422426Y-91593934D01*
X112422421Y-91593933D01*
X112393958Y-91591693D01*
X112393950Y-91591693D01*
X112391502Y-91591500D01*
X112309594Y-91591500D01*
X112241473Y-91571498D01*
X112194980Y-91517842D01*
X112184876Y-91447568D01*
X112189762Y-91426562D01*
X112191502Y-91421208D01*
X112191503Y-91421203D01*
X112193542Y-91414928D01*
X112194880Y-91402203D01*
X112212814Y-91231565D01*
X112213504Y-91225000D01*
X112212814Y-91218435D01*
X112194232Y-91041635D01*
X112194232Y-91041633D01*
X112193542Y-91035072D01*
X112134527Y-90853444D01*
X112039040Y-90688056D01*
X112001383Y-90646233D01*
X111915675Y-90551045D01*
X111915671Y-90551041D01*
X111911253Y-90546134D01*
X111756752Y-90433882D01*
X111750724Y-90431198D01*
X111750722Y-90431197D01*
X111588319Y-90358891D01*
X111588318Y-90358891D01*
X111582288Y-90356206D01*
X111488887Y-90336353D01*
X111401944Y-90317872D01*
X111401939Y-90317872D01*
X111395487Y-90316500D01*
X111204513Y-90316500D01*
X111198061Y-90317872D01*
X111198056Y-90317872D01*
X111111113Y-90336353D01*
X111017712Y-90356206D01*
X111011682Y-90358891D01*
X111011681Y-90358891D01*
X110849278Y-90431197D01*
X110849276Y-90431198D01*
X110843248Y-90433882D01*
X110688747Y-90546134D01*
X110638740Y-90601673D01*
X110578295Y-90638911D01*
X110535220Y-90642973D01*
X110518961Y-90641693D01*
X110518947Y-90641692D01*
X110516502Y-90641500D01*
X109208498Y-90641500D01*
X109206050Y-90641693D01*
X109206042Y-90641693D01*
X109177579Y-90643933D01*
X109177574Y-90643934D01*
X109171169Y-90644438D01*
X109071231Y-90673472D01*
X109019012Y-90688643D01*
X109019010Y-90688644D01*
X109011399Y-90690855D01*
X109004572Y-90694892D01*
X109004573Y-90694892D01*
X108875020Y-90771509D01*
X108875017Y-90771511D01*
X108868193Y-90775547D01*
X108750547Y-90893193D01*
X108746511Y-90900017D01*
X108746509Y-90900020D01*
X108693788Y-90989167D01*
X108665855Y-91036399D01*
X108663644Y-91044010D01*
X108663643Y-91044012D01*
X108655209Y-91073044D01*
X108619438Y-91196169D01*
X108618934Y-91202574D01*
X108618933Y-91202579D01*
X108616693Y-91231042D01*
X108616500Y-91233498D01*
X108616500Y-91666502D01*
X108616693Y-91668950D01*
X108616693Y-91668958D01*
X108617793Y-91682927D01*
X108619438Y-91703831D01*
X108665855Y-91863601D01*
X108669892Y-91870427D01*
X108746509Y-91999980D01*
X108746511Y-91999983D01*
X108750547Y-92006807D01*
X108868193Y-92124453D01*
X108875017Y-92128489D01*
X108875020Y-92128491D01*
X108982589Y-92192107D01*
X109011399Y-92209145D01*
X109019010Y-92211356D01*
X109019012Y-92211357D01*
X109031958Y-92215118D01*
X109171169Y-92255562D01*
X109177574Y-92256066D01*
X109177579Y-92256067D01*
X109206042Y-92258307D01*
X109206050Y-92258307D01*
X109208498Y-92258500D01*
X110365500Y-92258500D01*
X110433621Y-92278502D01*
X110480114Y-92332158D01*
X110491500Y-92384500D01*
X110491500Y-92415500D01*
X110471498Y-92483621D01*
X110417842Y-92530114D01*
X110365500Y-92541500D01*
X109208498Y-92541500D01*
X109206050Y-92541693D01*
X109206042Y-92541693D01*
X109177579Y-92543933D01*
X109177574Y-92543934D01*
X109171169Y-92544438D01*
X109071231Y-92573472D01*
X109019012Y-92588643D01*
X109019010Y-92588644D01*
X109011399Y-92590855D01*
X109004572Y-92594892D01*
X109004573Y-92594892D01*
X108875020Y-92671509D01*
X108875017Y-92671511D01*
X108868193Y-92675547D01*
X108750547Y-92793193D01*
X108746511Y-92800017D01*
X108746509Y-92800020D01*
X108682893Y-92907589D01*
X108665855Y-92936399D01*
X108663644Y-92944010D01*
X108663643Y-92944012D01*
X108657336Y-92965722D01*
X108619438Y-93096169D01*
X108616500Y-93133498D01*
X108616500Y-93566502D01*
X81788000Y-93566502D01*
X81788000Y-86045907D01*
X82677000Y-86045907D01*
X82677659Y-86071782D01*
X82678313Y-86084605D01*
X82680292Y-86110431D01*
X82681576Y-86115573D01*
X82681577Y-86115578D01*
X82686432Y-86135016D01*
X82715328Y-86250714D01*
X82742159Y-86316445D01*
X82744433Y-86320323D01*
X82744434Y-86320325D01*
X82810740Y-86433401D01*
X82815298Y-86441174D01*
X82821861Y-86447348D01*
X82821862Y-86447349D01*
X82875015Y-86497349D01*
X82920616Y-86540245D01*
X82978725Y-86581036D01*
X82982739Y-86583071D01*
X83004263Y-86593985D01*
X83055974Y-86642631D01*
X83073176Y-86711512D01*
X83067283Y-86744777D01*
X83030293Y-86860335D01*
X82988279Y-87118307D01*
X82984858Y-87379655D01*
X83020104Y-87638638D01*
X83093243Y-87889567D01*
X83095203Y-87893820D01*
X83095204Y-87893821D01*
X83112484Y-87931304D01*
X83202668Y-88126928D01*
X83216919Y-88148664D01*
X83343410Y-88341596D01*
X83343414Y-88341601D01*
X83345976Y-88345509D01*
X83520018Y-88540506D01*
X83720970Y-88707637D01*
X83724973Y-88710066D01*
X83940422Y-88840804D01*
X83940426Y-88840806D01*
X83944419Y-88843229D01*
X84185455Y-88944303D01*
X84438783Y-89008641D01*
X84443434Y-89009109D01*
X84443438Y-89009110D01*
X84636308Y-89028531D01*
X84655867Y-89030500D01*
X89311354Y-89030500D01*
X89313679Y-89030327D01*
X89313685Y-89030327D01*
X89501000Y-89016407D01*
X89501004Y-89016406D01*
X89505652Y-89016061D01*
X89510200Y-89015032D01*
X89510206Y-89015031D01*
X89708681Y-88970120D01*
X89760577Y-88958377D01*
X89796769Y-88944303D01*
X89999824Y-88865340D01*
X89999827Y-88865339D01*
X90004177Y-88863647D01*
X90231098Y-88733951D01*
X90436357Y-88572138D01*
X90513331Y-88490313D01*
X90574574Y-88454401D01*
X90645511Y-88457301D01*
X90666536Y-88467427D01*
X90668530Y-88469155D01*
X90676723Y-88472896D01*
X90676725Y-88472898D01*
X90754125Y-88508245D01*
X90800056Y-88529221D01*
X90823810Y-88536196D01*
X90863854Y-88547954D01*
X90863858Y-88547955D01*
X90868177Y-88549223D01*
X90872625Y-88549863D01*
X90872632Y-88549864D01*
X91006848Y-88569161D01*
X91006855Y-88569162D01*
X91011296Y-88569800D01*
X99696000Y-88569800D01*
X99803980Y-88558191D01*
X99807264Y-88557477D01*
X99807268Y-88557476D01*
X99832339Y-88552022D01*
X99856322Y-88546805D01*
X99959372Y-88512507D01*
X100081010Y-88434335D01*
X100134666Y-88387842D01*
X100229355Y-88278566D01*
X100289421Y-88147040D01*
X100301165Y-88107045D01*
X100308154Y-88083242D01*
X100308155Y-88083238D01*
X100309423Y-88078919D01*
X100310064Y-88074464D01*
X100329361Y-87940248D01*
X100329362Y-87940241D01*
X100330000Y-87935800D01*
X100330000Y-85472000D01*
X120396000Y-85472000D01*
X120413413Y-85633971D01*
X120424799Y-85686313D01*
X120430807Y-85711812D01*
X120493949Y-85877086D01*
X120593504Y-86023345D01*
X120595908Y-86026119D01*
X120638894Y-86075729D01*
X120638910Y-86075746D01*
X120639997Y-86077001D01*
X120641157Y-86078204D01*
X120641170Y-86078219D01*
X120648076Y-86085385D01*
X120695903Y-86135016D01*
X120838376Y-86239916D01*
X120845128Y-86242786D01*
X120845131Y-86242788D01*
X120997826Y-86307698D01*
X120997830Y-86307699D01*
X121001200Y-86309132D01*
X121004719Y-86310165D01*
X121004721Y-86310166D01*
X121011921Y-86312280D01*
X121069321Y-86329134D01*
X121108271Y-86339460D01*
X121284000Y-86360000D01*
X123899940Y-86360000D01*
X123968061Y-86380002D01*
X123979081Y-86387956D01*
X124112151Y-86495393D01*
X124115250Y-86497349D01*
X124115251Y-86497349D01*
X124187095Y-86542679D01*
X124205389Y-86556717D01*
X124242438Y-86590965D01*
X124257866Y-86608099D01*
X124288064Y-86648538D01*
X124300110Y-86668194D01*
X124321472Y-86711512D01*
X124322431Y-86713457D01*
X124330693Y-86734983D01*
X124344391Y-86783553D01*
X124348593Y-86806223D01*
X124353876Y-86863713D01*
X124353101Y-86893316D01*
X124346147Y-86941282D01*
X124346146Y-86941284D01*
X124344817Y-86950450D01*
X124339434Y-86972871D01*
X124325959Y-87012566D01*
X124325959Y-87012567D01*
X124323214Y-87020655D01*
X124313838Y-87041712D01*
X124289176Y-87085750D01*
X124276121Y-87104747D01*
X124205889Y-87189191D01*
X124125140Y-87307283D01*
X124102320Y-87348490D01*
X124033493Y-87518200D01*
X124007320Y-87693179D01*
X124005040Y-87764138D01*
X124006713Y-87844687D01*
X124007721Y-87849926D01*
X124007721Y-87849929D01*
X124038744Y-88011223D01*
X124040130Y-88018428D01*
X124069286Y-88083242D01*
X124107684Y-88168600D01*
X124112713Y-88179780D01*
X124149159Y-88240708D01*
X124170748Y-88274724D01*
X124173671Y-88278137D01*
X124173673Y-88278139D01*
X124202947Y-88312313D01*
X124208542Y-88321086D01*
X124209042Y-88320713D01*
X124212494Y-88325336D01*
X124212456Y-88325365D01*
X124212466Y-88325379D01*
X124212504Y-88325350D01*
X124288063Y-88426536D01*
X124300110Y-88446194D01*
X124322433Y-88491461D01*
X124330692Y-88512978D01*
X124343444Y-88558191D01*
X124344392Y-88561553D01*
X124348592Y-88584212D01*
X124353876Y-88641713D01*
X124353100Y-88671316D01*
X124344816Y-88728450D01*
X124339435Y-88750866D01*
X124323210Y-88798663D01*
X124313839Y-88819712D01*
X124289176Y-88863750D01*
X124276122Y-88882745D01*
X124270285Y-88889763D01*
X124243850Y-88921548D01*
X124227545Y-88937852D01*
X124188747Y-88970120D01*
X124169744Y-88983181D01*
X124152104Y-88993059D01*
X124149004Y-88995332D01*
X124149000Y-88995335D01*
X124041873Y-89073900D01*
X124002214Y-89102985D01*
X123957783Y-89144798D01*
X123957062Y-89145522D01*
X123926298Y-89176410D01*
X123926294Y-89176414D01*
X123922984Y-89179738D01*
X123920201Y-89183518D01*
X123920200Y-89183519D01*
X123907554Y-89200695D01*
X123818084Y-89322211D01*
X123815214Y-89328963D01*
X123815212Y-89328966D01*
X123752686Y-89476054D01*
X123748868Y-89485035D01*
X123728866Y-89553156D01*
X123718540Y-89592106D01*
X123698000Y-89767835D01*
X123698000Y-93854000D01*
X123698360Y-93857346D01*
X123698360Y-93857351D01*
X123710624Y-93971422D01*
X123715413Y-94015971D01*
X123716131Y-94019271D01*
X123716131Y-94019272D01*
X123719352Y-94034077D01*
X123726799Y-94068313D01*
X123732807Y-94093812D01*
X123795949Y-94259086D01*
X123841961Y-94326683D01*
X123865833Y-94361754D01*
X123895504Y-94405345D01*
X123897908Y-94408119D01*
X123940894Y-94457729D01*
X123940910Y-94457746D01*
X123941997Y-94459001D01*
X123943157Y-94460204D01*
X123943170Y-94460219D01*
X123957923Y-94475528D01*
X123997903Y-94517016D01*
X124002202Y-94520181D01*
X124002204Y-94520183D01*
X124035226Y-94544496D01*
X124140376Y-94621916D01*
X124147128Y-94624786D01*
X124147131Y-94624788D01*
X124299826Y-94689698D01*
X124299830Y-94689699D01*
X124303200Y-94691132D01*
X124306719Y-94692165D01*
X124306721Y-94692166D01*
X124337799Y-94701291D01*
X124371321Y-94711134D01*
X124410271Y-94721460D01*
X124586000Y-94742000D01*
X145342927Y-94742000D01*
X145411048Y-94762002D01*
X145457541Y-94815658D01*
X145467645Y-94885932D01*
X145438151Y-94950512D01*
X145401107Y-94979763D01*
X145316125Y-95024002D01*
X145276072Y-95044852D01*
X145271939Y-95047955D01*
X145271936Y-95047957D01*
X145098341Y-95178296D01*
X145090855Y-95183917D01*
X145087283Y-95187655D01*
X144945728Y-95335784D01*
X144930839Y-95351364D01*
X144927925Y-95355636D01*
X144927924Y-95355637D01*
X144912352Y-95378465D01*
X144800319Y-95542699D01*
X144702802Y-95752781D01*
X144640907Y-95975969D01*
X144616295Y-96206269D01*
X144616592Y-96211422D01*
X144616592Y-96211425D01*
X144622267Y-96309841D01*
X144629627Y-96437497D01*
X144630764Y-96442543D01*
X144630765Y-96442549D01*
X144661237Y-96577760D01*
X144680546Y-96663442D01*
X144682488Y-96668224D01*
X144682489Y-96668228D01*
X144730170Y-96785651D01*
X144767684Y-96878037D01*
X144888701Y-97075519D01*
X145040347Y-97250584D01*
X145218549Y-97398530D01*
X145418522Y-97515384D01*
X145423347Y-97517226D01*
X145423348Y-97517227D01*
X145469181Y-97534729D01*
X145634894Y-97598009D01*
X145639960Y-97599040D01*
X145639961Y-97599040D01*
X145693046Y-97609840D01*
X145861856Y-97644185D01*
X145992524Y-97648976D01*
X146088149Y-97652483D01*
X146088153Y-97652483D01*
X146093313Y-97652672D01*
X146098433Y-97652016D01*
X146098435Y-97652016D01*
X146171470Y-97642660D01*
X146323047Y-97623242D01*
X146327995Y-97621757D01*
X146328002Y-97621756D01*
X146539947Y-97558169D01*
X146544890Y-97556686D01*
X146589710Y-97534729D01*
X146748249Y-97457062D01*
X146748252Y-97457060D01*
X146752884Y-97454791D01*
X146941443Y-97320294D01*
X147105503Y-97156805D01*
X147240658Y-96968717D01*
X147242951Y-96964077D01*
X147244555Y-96961408D01*
X147296784Y-96913317D01*
X147352560Y-96900300D01*
X148618070Y-96900300D01*
X148686191Y-96920302D01*
X148732684Y-96973958D01*
X148737593Y-96986423D01*
X148755450Y-97039946D01*
X148759301Y-97046170D01*
X148759302Y-97046171D01*
X148779940Y-97079521D01*
X148848522Y-97190348D01*
X148973697Y-97315305D01*
X148979927Y-97319145D01*
X148979928Y-97319146D01*
X149117090Y-97403694D01*
X149124262Y-97408115D01*
X149204005Y-97434564D01*
X149285611Y-97461632D01*
X149285613Y-97461632D01*
X149292139Y-97463797D01*
X149298975Y-97464497D01*
X149298978Y-97464498D01*
X149342031Y-97468909D01*
X149396600Y-97474500D01*
X150022400Y-97474500D01*
X150025646Y-97474163D01*
X150025650Y-97474163D01*
X150121308Y-97464238D01*
X150121312Y-97464237D01*
X150128166Y-97463526D01*
X150134702Y-97461345D01*
X150134704Y-97461345D01*
X150266806Y-97417272D01*
X150295946Y-97407550D01*
X150432398Y-97323111D01*
X150500849Y-97304273D01*
X150568618Y-97325434D01*
X150614190Y-97379875D01*
X150624700Y-97430255D01*
X150624700Y-97750069D01*
X150604698Y-97818190D01*
X150570970Y-97853282D01*
X150465519Y-97927119D01*
X150313519Y-98079119D01*
X150190224Y-98255204D01*
X150187903Y-98260182D01*
X150187901Y-98260185D01*
X150182599Y-98271556D01*
X150099378Y-98450023D01*
X150097956Y-98455331D01*
X150097955Y-98455333D01*
X150049907Y-98634651D01*
X150043742Y-98657658D01*
X150025007Y-98871800D01*
X150043742Y-99085942D01*
X150045166Y-99091255D01*
X150045166Y-99091257D01*
X150069698Y-99182809D01*
X150099378Y-99293577D01*
X150101700Y-99298557D01*
X150101701Y-99298559D01*
X150136382Y-99372931D01*
X150190224Y-99488396D01*
X150313519Y-99664481D01*
X150465519Y-99816481D01*
X150641603Y-99939776D01*
X150646581Y-99942097D01*
X150646584Y-99942099D01*
X150829953Y-100027605D01*
X150883238Y-100074522D01*
X150902699Y-100142800D01*
X150882157Y-100210759D01*
X150829953Y-100255995D01*
X150646585Y-100341501D01*
X150646582Y-100341503D01*
X150641604Y-100343824D01*
X150465519Y-100467119D01*
X150313519Y-100619119D01*
X150190224Y-100795204D01*
X150187903Y-100800182D01*
X150187901Y-100800185D01*
X150152772Y-100875519D01*
X150099378Y-100990023D01*
X150097956Y-100995331D01*
X150097955Y-100995333D01*
X150045166Y-101192343D01*
X150043742Y-101197658D01*
X150025007Y-101411800D01*
X150043742Y-101625942D01*
X150045166Y-101631255D01*
X150045166Y-101631257D01*
X150049091Y-101645903D01*
X150099378Y-101833577D01*
X150101700Y-101838557D01*
X150101701Y-101838559D01*
X150176179Y-101998276D01*
X150190224Y-102028396D01*
X150313519Y-102204481D01*
X150465519Y-102356481D01*
X150641603Y-102479776D01*
X150646581Y-102482097D01*
X150646584Y-102482099D01*
X150829953Y-102567605D01*
X150883238Y-102614522D01*
X150902699Y-102682800D01*
X150882157Y-102750759D01*
X150829953Y-102795995D01*
X150646585Y-102881501D01*
X150646582Y-102881503D01*
X150641604Y-102883824D01*
X150465519Y-103007119D01*
X150313519Y-103159119D01*
X150190224Y-103335204D01*
X150099378Y-103530023D01*
X150043742Y-103737658D01*
X150025007Y-103951800D01*
X150043742Y-104165942D01*
X150045166Y-104171255D01*
X150045166Y-104171257D01*
X150087775Y-104330273D01*
X150099378Y-104373577D01*
X150101700Y-104378557D01*
X150101701Y-104378559D01*
X150147253Y-104476244D01*
X150190224Y-104568396D01*
X150313519Y-104744481D01*
X150465519Y-104896481D01*
X150641603Y-105019776D01*
X150646581Y-105022097D01*
X150646584Y-105022099D01*
X150817047Y-105101587D01*
X150836423Y-105110622D01*
X150841731Y-105112044D01*
X150841733Y-105112045D01*
X151038743Y-105164834D01*
X151038745Y-105164834D01*
X151044058Y-105166258D01*
X151258200Y-105184993D01*
X151472342Y-105166258D01*
X151477655Y-105164834D01*
X151477657Y-105164834D01*
X151674667Y-105112045D01*
X151674669Y-105112044D01*
X151679977Y-105110622D01*
X151699353Y-105101587D01*
X151869816Y-105022099D01*
X151869819Y-105022097D01*
X151874797Y-105019776D01*
X152050881Y-104896481D01*
X152202881Y-104744481D01*
X152326176Y-104568396D01*
X152369148Y-104476244D01*
X152414699Y-104378559D01*
X152414700Y-104378557D01*
X152417022Y-104373577D01*
X152428626Y-104330273D01*
X152471234Y-104171257D01*
X152471234Y-104171255D01*
X152472658Y-104165942D01*
X152491393Y-103951800D01*
X152472658Y-103737658D01*
X152417022Y-103530023D01*
X152326176Y-103335204D01*
X152202881Y-103159119D01*
X152050881Y-103007119D01*
X151874797Y-102883824D01*
X151869819Y-102881503D01*
X151869816Y-102881501D01*
X151686447Y-102795995D01*
X151633162Y-102749078D01*
X151613701Y-102680800D01*
X151634243Y-102612841D01*
X151686447Y-102567605D01*
X151869816Y-102482099D01*
X151869819Y-102482097D01*
X151874797Y-102479776D01*
X152050881Y-102356481D01*
X152202881Y-102204481D01*
X152326176Y-102028396D01*
X152340222Y-101998276D01*
X152414699Y-101838559D01*
X152414700Y-101838557D01*
X152417022Y-101833577D01*
X152467310Y-101645903D01*
X152471234Y-101631257D01*
X152471234Y-101631255D01*
X152472658Y-101625942D01*
X152491393Y-101411800D01*
X152472658Y-101197658D01*
X152471234Y-101192343D01*
X152418445Y-100995333D01*
X152418444Y-100995331D01*
X152417022Y-100990023D01*
X152363628Y-100875519D01*
X152328499Y-100800185D01*
X152328497Y-100800182D01*
X152326176Y-100795204D01*
X152202881Y-100619119D01*
X152050881Y-100467119D01*
X151874797Y-100343824D01*
X151869819Y-100341503D01*
X151869816Y-100341501D01*
X151686447Y-100255995D01*
X151633162Y-100209078D01*
X151613701Y-100140800D01*
X151634243Y-100072841D01*
X151686447Y-100027605D01*
X151869816Y-99942099D01*
X151869819Y-99942097D01*
X151874797Y-99939776D01*
X152050881Y-99816481D01*
X152202881Y-99664481D01*
X152326176Y-99488396D01*
X152380019Y-99372931D01*
X152414699Y-99298559D01*
X152414700Y-99298557D01*
X152417022Y-99293577D01*
X152446703Y-99182809D01*
X152471234Y-99091257D01*
X152471234Y-99091255D01*
X152472658Y-99085942D01*
X152491393Y-98871800D01*
X152472658Y-98657658D01*
X152466493Y-98634651D01*
X152418445Y-98455333D01*
X152418444Y-98455331D01*
X152417022Y-98450023D01*
X152333801Y-98271556D01*
X152328499Y-98260185D01*
X152328497Y-98260182D01*
X152326176Y-98255204D01*
X152202881Y-98079119D01*
X152050881Y-97927119D01*
X151945430Y-97853282D01*
X151901101Y-97797825D01*
X151891700Y-97750069D01*
X151891700Y-97574823D01*
X151911702Y-97506702D01*
X151965358Y-97460209D01*
X151977817Y-97455302D01*
X152120946Y-97407550D01*
X152271348Y-97314478D01*
X152396305Y-97189303D01*
X152400146Y-97183072D01*
X152485275Y-97044968D01*
X152485276Y-97044966D01*
X152489115Y-97038738D01*
X152529494Y-96916998D01*
X152542632Y-96877389D01*
X152542632Y-96877387D01*
X152544797Y-96870861D01*
X152555500Y-96766400D01*
X152555500Y-95765600D01*
X152553991Y-95751054D01*
X152545238Y-95666692D01*
X152545237Y-95666688D01*
X152544526Y-95659834D01*
X152533339Y-95626301D01*
X152490868Y-95499002D01*
X152488550Y-95492054D01*
X152395478Y-95341652D01*
X152270303Y-95216695D01*
X152218615Y-95184834D01*
X152125968Y-95127725D01*
X152125966Y-95127724D01*
X152119738Y-95123885D01*
X151959254Y-95070655D01*
X151958389Y-95070368D01*
X151958387Y-95070368D01*
X151951861Y-95068203D01*
X151945025Y-95067503D01*
X151945022Y-95067502D01*
X151901969Y-95063091D01*
X151847400Y-95057500D01*
X151221600Y-95057500D01*
X151218354Y-95057837D01*
X151218350Y-95057837D01*
X151122692Y-95067762D01*
X151122688Y-95067763D01*
X151115834Y-95068474D01*
X151109298Y-95070655D01*
X151109296Y-95070655D01*
X151009446Y-95103968D01*
X150948054Y-95124450D01*
X150797652Y-95217522D01*
X150760718Y-95254521D01*
X150711216Y-95304109D01*
X150648934Y-95338188D01*
X150578114Y-95333185D01*
X150533025Y-95304264D01*
X150450483Y-95221866D01*
X150445303Y-95216695D01*
X150393615Y-95184834D01*
X150300968Y-95127725D01*
X150300966Y-95127724D01*
X150294738Y-95123885D01*
X150134254Y-95070655D01*
X150133389Y-95070368D01*
X150133387Y-95070368D01*
X150126861Y-95068203D01*
X150120025Y-95067503D01*
X150120022Y-95067502D01*
X150076969Y-95063091D01*
X150022400Y-95057500D01*
X149396600Y-95057500D01*
X149393354Y-95057837D01*
X149393350Y-95057837D01*
X149297692Y-95067762D01*
X149297688Y-95067763D01*
X149290834Y-95068474D01*
X149284298Y-95070655D01*
X149284296Y-95070655D01*
X149184446Y-95103968D01*
X149123054Y-95124450D01*
X148972652Y-95217522D01*
X148847695Y-95342697D01*
X148843855Y-95348927D01*
X148843854Y-95348928D01*
X148765204Y-95476522D01*
X148754885Y-95493262D01*
X148752581Y-95500209D01*
X148737072Y-95546967D01*
X148696642Y-95605327D01*
X148631077Y-95632564D01*
X148617479Y-95633300D01*
X147382068Y-95633300D01*
X147313947Y-95613298D01*
X147275948Y-95572169D01*
X147274770Y-95572931D01*
X147239446Y-95518329D01*
X147148964Y-95378465D01*
X147122088Y-95348928D01*
X147033371Y-95251430D01*
X146993087Y-95207158D01*
X146989036Y-95203959D01*
X146989032Y-95203955D01*
X146815377Y-95066811D01*
X146815372Y-95066808D01*
X146811323Y-95063610D01*
X146806808Y-95061117D01*
X146806795Y-95061109D01*
X146656801Y-94978308D01*
X146606831Y-94927876D01*
X146592059Y-94858433D01*
X146617175Y-94792028D01*
X146674206Y-94749743D01*
X146717695Y-94742000D01*
X152020000Y-94742000D01*
X152023346Y-94741640D01*
X152023351Y-94741640D01*
X152178607Y-94724949D01*
X152178613Y-94724948D01*
X152181971Y-94724587D01*
X152191685Y-94722474D01*
X152233850Y-94713302D01*
X152233880Y-94713295D01*
X152234313Y-94713201D01*
X152259812Y-94707193D01*
X152425086Y-94644051D01*
X152515017Y-94582837D01*
X152568309Y-94546563D01*
X152568314Y-94546559D01*
X152571345Y-94544496D01*
X152603059Y-94517016D01*
X152623729Y-94499106D01*
X152623746Y-94499090D01*
X152625001Y-94498003D01*
X152626204Y-94496843D01*
X152626219Y-94496830D01*
X152675455Y-94449383D01*
X152683016Y-94442097D01*
X152787916Y-94299624D01*
X152791226Y-94291839D01*
X152855698Y-94140174D01*
X152855699Y-94140170D01*
X152857132Y-94136800D01*
X152871282Y-94088611D01*
X152876905Y-94069459D01*
X152876906Y-94069457D01*
X152877134Y-94068679D01*
X152887460Y-94029729D01*
X152908000Y-93854000D01*
X152908000Y-77088000D01*
X152907640Y-77084649D01*
X152890949Y-76929393D01*
X152890948Y-76929387D01*
X152890587Y-76926029D01*
X152887594Y-76912271D01*
X152879302Y-76874150D01*
X152879292Y-76874106D01*
X152879201Y-76873687D01*
X152873193Y-76848188D01*
X152810051Y-76682914D01*
X152710496Y-76536655D01*
X152695783Y-76519676D01*
X152665106Y-76484271D01*
X152665090Y-76484254D01*
X152664003Y-76482999D01*
X152662843Y-76481796D01*
X152662830Y-76481781D01*
X152611803Y-76428830D01*
X152608097Y-76424984D01*
X152574040Y-76399908D01*
X152471536Y-76324437D01*
X152471537Y-76324437D01*
X152465624Y-76320084D01*
X152458872Y-76317214D01*
X152458869Y-76317212D01*
X152306174Y-76252302D01*
X152306170Y-76252301D01*
X152302800Y-76250868D01*
X152299281Y-76249835D01*
X152299279Y-76249834D01*
X152268201Y-76240709D01*
X152234679Y-76230866D01*
X152195729Y-76220540D01*
X152020000Y-76200000D01*
X121284000Y-76200000D01*
X121280654Y-76200360D01*
X121280649Y-76200360D01*
X121125393Y-76217051D01*
X121125387Y-76217052D01*
X121122029Y-76217413D01*
X121118729Y-76218131D01*
X121118728Y-76218131D01*
X121070150Y-76228698D01*
X121070120Y-76228705D01*
X121069687Y-76228799D01*
X121044188Y-76234807D01*
X120878914Y-76297949D01*
X120846395Y-76320084D01*
X120735691Y-76395437D01*
X120735686Y-76395441D01*
X120732655Y-76397504D01*
X120729881Y-76399908D01*
X120680271Y-76442894D01*
X120680254Y-76442910D01*
X120678999Y-76443997D01*
X120677796Y-76445157D01*
X120677781Y-76445170D01*
X120644313Y-76477422D01*
X120620984Y-76499903D01*
X120516084Y-76642376D01*
X120513214Y-76649128D01*
X120513212Y-76649131D01*
X120463319Y-76766500D01*
X120446868Y-76805200D01*
X120426866Y-76873321D01*
X120416540Y-76912271D01*
X120396000Y-77088000D01*
X120396000Y-80024332D01*
X120398139Y-80081385D01*
X120399552Y-80100204D01*
X120413031Y-80196638D01*
X120414813Y-80202029D01*
X120414814Y-80202035D01*
X120467396Y-80361147D01*
X120468547Y-80364629D01*
X120498500Y-80428999D01*
X120536303Y-80500144D01*
X120644451Y-80640167D01*
X120781976Y-80751476D01*
X120785068Y-80753432D01*
X120785072Y-80753435D01*
X120821500Y-80776481D01*
X120841974Y-80789433D01*
X120912241Y-80828846D01*
X120917269Y-80830636D01*
X120917270Y-80830636D01*
X121072009Y-80885711D01*
X121072011Y-80885711D01*
X121078924Y-80888172D01*
X121086217Y-80888972D01*
X121092723Y-80890465D01*
X121154643Y-80925199D01*
X121187955Y-80987895D01*
X121189445Y-81029827D01*
X121173360Y-81151194D01*
X121170102Y-81175774D01*
X121178751Y-81406158D01*
X121186761Y-81444333D01*
X121181174Y-81515108D01*
X121138209Y-81571628D01*
X121087946Y-81593801D01*
X121049418Y-81601438D01*
X121049415Y-81601439D01*
X121044188Y-81602475D01*
X120878914Y-81665617D01*
X120811317Y-81711629D01*
X120735691Y-81763105D01*
X120735686Y-81763109D01*
X120732655Y-81765172D01*
X120729881Y-81767576D01*
X120680271Y-81810562D01*
X120680254Y-81810578D01*
X120678999Y-81811665D01*
X120677796Y-81812825D01*
X120677781Y-81812838D01*
X120639395Y-81849829D01*
X120620984Y-81867571D01*
X120516084Y-82010044D01*
X120446868Y-82172868D01*
X120426866Y-82240989D01*
X120416540Y-82279939D01*
X120396000Y-82455668D01*
X120396000Y-85472000D01*
X100330000Y-85472000D01*
X100330000Y-81141434D01*
X111748661Y-81141434D01*
X111766792Y-81499340D01*
X111767329Y-81502695D01*
X111767330Y-81502701D01*
X111779095Y-81576152D01*
X111823470Y-81853195D01*
X111918033Y-82198859D01*
X112049374Y-82532288D01*
X112215957Y-82849582D01*
X112217858Y-82852411D01*
X112217864Y-82852421D01*
X112401569Y-83125800D01*
X112415834Y-83147029D01*
X112646665Y-83421150D01*
X112905751Y-83668738D01*
X113190061Y-83886897D01*
X113222056Y-83906350D01*
X113493355Y-84071303D01*
X113493360Y-84071306D01*
X113496270Y-84073075D01*
X113499358Y-84074521D01*
X113499357Y-84074521D01*
X113817710Y-84223649D01*
X113817720Y-84223653D01*
X113820794Y-84225093D01*
X113824012Y-84226195D01*
X113824015Y-84226196D01*
X114156615Y-84340071D01*
X114156623Y-84340073D01*
X114159838Y-84341174D01*
X114509435Y-84419959D01*
X114561728Y-84425917D01*
X114862114Y-84460142D01*
X114862122Y-84460142D01*
X114865497Y-84460527D01*
X114868901Y-84460545D01*
X114868904Y-84460545D01*
X115063227Y-84461562D01*
X115223857Y-84462403D01*
X115227243Y-84462053D01*
X115227245Y-84462053D01*
X115576932Y-84425917D01*
X115576941Y-84425916D01*
X115580324Y-84425566D01*
X115583657Y-84424852D01*
X115583660Y-84424851D01*
X115756186Y-84387864D01*
X115930727Y-84350446D01*
X116270968Y-84237922D01*
X116597066Y-84089311D01*
X116691052Y-84033506D01*
X116902262Y-83908099D01*
X116902267Y-83908096D01*
X116905207Y-83906350D01*
X117191786Y-83691180D01*
X117453451Y-83446319D01*
X117687140Y-83174630D01*
X117793750Y-83019512D01*
X117888190Y-82882101D01*
X117888195Y-82882094D01*
X117890120Y-82879292D01*
X117891732Y-82876298D01*
X117891737Y-82876290D01*
X118058395Y-82566772D01*
X118060017Y-82563760D01*
X118194842Y-82231724D01*
X118205142Y-82195568D01*
X118256065Y-82016799D01*
X118293020Y-81887070D01*
X118313446Y-81767576D01*
X118352829Y-81537175D01*
X118352829Y-81537173D01*
X118353401Y-81533828D01*
X118355511Y-81499340D01*
X118375168Y-81177928D01*
X118375278Y-81176131D01*
X118375359Y-81153000D01*
X118355979Y-80795159D01*
X118298066Y-80441505D01*
X118202297Y-80096173D01*
X118199243Y-80088497D01*
X118071052Y-79766369D01*
X118069793Y-79763205D01*
X118039768Y-79706498D01*
X117903702Y-79449513D01*
X117903698Y-79449506D01*
X117902103Y-79446494D01*
X117701190Y-79149746D01*
X117469403Y-78876432D01*
X117209454Y-78629750D01*
X116924384Y-78412585D01*
X116921472Y-78410828D01*
X116921467Y-78410825D01*
X116620443Y-78229236D01*
X116620437Y-78229233D01*
X116617528Y-78227478D01*
X116292475Y-78076593D01*
X116122752Y-78019145D01*
X115956255Y-77962789D01*
X115956250Y-77962788D01*
X115953028Y-77961697D01*
X115754681Y-77917724D01*
X115606493Y-77884871D01*
X115606487Y-77884870D01*
X115603158Y-77884132D01*
X115599769Y-77883758D01*
X115599764Y-77883757D01*
X115250338Y-77845180D01*
X115250333Y-77845180D01*
X115246957Y-77844807D01*
X115243558Y-77844801D01*
X115243557Y-77844801D01*
X115074080Y-77844505D01*
X114888592Y-77844182D01*
X114775413Y-77856277D01*
X114535639Y-77881901D01*
X114535631Y-77881902D01*
X114532256Y-77882263D01*
X114182117Y-77958606D01*
X113842271Y-78072317D01*
X113839178Y-78073739D01*
X113839177Y-78073740D01*
X113832974Y-78076593D01*
X113516694Y-78222066D01*
X113209193Y-78406101D01*
X113206467Y-78408163D01*
X113206465Y-78408164D01*
X113200620Y-78412585D01*
X112923367Y-78622270D01*
X112662559Y-78868043D01*
X112429819Y-79140546D01*
X112427900Y-79143358D01*
X112427897Y-79143363D01*
X112334624Y-79280097D01*
X112227871Y-79436591D01*
X112059077Y-79752714D01*
X111925411Y-80085218D01*
X111924491Y-80088492D01*
X111924489Y-80088497D01*
X111846872Y-80364629D01*
X111828437Y-80430213D01*
X111769290Y-80783663D01*
X111748661Y-81141434D01*
X100330000Y-81141434D01*
X100330000Y-73481200D01*
X100318391Y-73373220D01*
X100307005Y-73320878D01*
X100272707Y-73217828D01*
X100194535Y-73096190D01*
X100185699Y-73085992D01*
X100150982Y-73045927D01*
X100148042Y-73042534D01*
X100129213Y-73026218D01*
X100098605Y-72999696D01*
X100038766Y-72947845D01*
X99907240Y-72887779D01*
X99883486Y-72880804D01*
X99843442Y-72869046D01*
X99843438Y-72869045D01*
X99839119Y-72867777D01*
X99834671Y-72867137D01*
X99834664Y-72867136D01*
X99700448Y-72847839D01*
X99700441Y-72847838D01*
X99696000Y-72847200D01*
X91298201Y-72847200D01*
X91230080Y-72827198D01*
X91209183Y-72810373D01*
X91168842Y-72770102D01*
X91131891Y-72733216D01*
X91097812Y-72670934D01*
X91102815Y-72600114D01*
X91131736Y-72555025D01*
X91214134Y-72472483D01*
X91219305Y-72467303D01*
X91246954Y-72422448D01*
X91308275Y-72322968D01*
X91308276Y-72322966D01*
X91312115Y-72316738D01*
X91367797Y-72148861D01*
X91370703Y-72120504D01*
X91378172Y-72047598D01*
X91378500Y-72044400D01*
X91378500Y-71418600D01*
X91374421Y-71379288D01*
X91368238Y-71319692D01*
X91368237Y-71319688D01*
X91367526Y-71312834D01*
X91364673Y-71304281D01*
X91313868Y-71152002D01*
X91311550Y-71145054D01*
X91218478Y-70994652D01*
X91093303Y-70869695D01*
X91053953Y-70845439D01*
X90948968Y-70780725D01*
X90948966Y-70780724D01*
X90942738Y-70776885D01*
X90827496Y-70738661D01*
X90781389Y-70723368D01*
X90781387Y-70723368D01*
X90774861Y-70721203D01*
X90768025Y-70720503D01*
X90768022Y-70720502D01*
X90724969Y-70716091D01*
X90670400Y-70710500D01*
X89669600Y-70710500D01*
X89666354Y-70710837D01*
X89666350Y-70710837D01*
X89570692Y-70720762D01*
X89570688Y-70720763D01*
X89563834Y-70721474D01*
X89557298Y-70723655D01*
X89557296Y-70723655D01*
X89485747Y-70747526D01*
X89396054Y-70777450D01*
X89245652Y-70870522D01*
X89187552Y-70928724D01*
X89158808Y-70957518D01*
X89096526Y-70991597D01*
X89069635Y-70994500D01*
X87857944Y-70994500D01*
X87789823Y-70974498D01*
X87743330Y-70920842D01*
X87738421Y-70908377D01*
X87721422Y-70857427D01*
X87721421Y-70857425D01*
X87719102Y-70850474D01*
X87626797Y-70701311D01*
X87502653Y-70577383D01*
X87353329Y-70485339D01*
X87335674Y-70479483D01*
X87193366Y-70432281D01*
X87193364Y-70432281D01*
X87186835Y-70430115D01*
X87083231Y-70419500D01*
X86791766Y-70419500D01*
X86495770Y-70419501D01*
X86390871Y-70430384D01*
X86384340Y-70432563D01*
X86384335Y-70432564D01*
X86253453Y-70476230D01*
X86224474Y-70485898D01*
X86075311Y-70578203D01*
X85951383Y-70702347D01*
X85947543Y-70708577D01*
X85947542Y-70708578D01*
X85938249Y-70723655D01*
X85859339Y-70851671D01*
X85857034Y-70858619D01*
X85857034Y-70858620D01*
X85832736Y-70931877D01*
X85804115Y-71018165D01*
X85793500Y-71121769D01*
X85793501Y-72134230D01*
X85804384Y-72239129D01*
X85806563Y-72245660D01*
X85806564Y-72245665D01*
X85844979Y-72360809D01*
X85859898Y-72405526D01*
X85952203Y-72554689D01*
X85957385Y-72559862D01*
X86029676Y-72632027D01*
X86063755Y-72694309D01*
X86058752Y-72765130D01*
X86016255Y-72822002D01*
X85949756Y-72846871D01*
X85940658Y-72847200D01*
X83311000Y-72847200D01*
X83203020Y-72858809D01*
X83199736Y-72859523D01*
X83199732Y-72859524D01*
X83174661Y-72864978D01*
X83150678Y-72870195D01*
X83047628Y-72904493D01*
X82925990Y-72982665D01*
X82872334Y-73029158D01*
X82869393Y-73032552D01*
X82857803Y-73045927D01*
X82777645Y-73138434D01*
X82773901Y-73146631D01*
X82773901Y-73146632D01*
X82768917Y-73157545D01*
X82717579Y-73269960D01*
X82716311Y-73274279D01*
X82700661Y-73327579D01*
X82697577Y-73338081D01*
X82696937Y-73342529D01*
X82696936Y-73342536D01*
X82677639Y-73476752D01*
X82677638Y-73476759D01*
X82677000Y-73481200D01*
X82677000Y-86045907D01*
X81788000Y-86045907D01*
X81788000Y-51996207D01*
X81789746Y-51975303D01*
X81792264Y-51960335D01*
X81793071Y-51955539D01*
X81793224Y-51943000D01*
X81792535Y-51938187D01*
X81792218Y-51933328D01*
X81792506Y-51933309D01*
X81792105Y-51906570D01*
X81802332Y-51815803D01*
X81808611Y-51788296D01*
X81846196Y-51680884D01*
X81858438Y-51655463D01*
X81880702Y-51620031D01*
X81918985Y-51559103D01*
X81936577Y-51537044D01*
X82017044Y-51456577D01*
X82039103Y-51438985D01*
X82087389Y-51408645D01*
X82135465Y-51378437D01*
X82160884Y-51366196D01*
X82268296Y-51328611D01*
X82295803Y-51322332D01*
X82331103Y-51318354D01*
X82383258Y-51312478D01*
X82398900Y-51311695D01*
X82407856Y-51311804D01*
X82416730Y-51313186D01*
X82448252Y-51309064D01*
X82464589Y-51308000D01*
X82651277Y-51308000D01*
X82719398Y-51328002D01*
G37*
G04 #@! TD.AperFunction*
G04 #@! TA.AperFunction,Conductor*
G36*
X142217109Y-103682741D02*
G01*
X142251950Y-103744601D01*
X142254700Y-103763876D01*
X142254700Y-103764270D01*
X142269215Y-103892801D01*
X142273409Y-103929935D01*
X142273891Y-103934207D01*
X142274680Y-103937655D01*
X142274681Y-103937662D01*
X142279168Y-103957275D01*
X142284171Y-103979144D01*
X142284172Y-103979149D01*
X142286419Y-103988972D01*
X142294837Y-104022295D01*
X142310743Y-104061398D01*
X142313773Y-104069665D01*
X142327305Y-104111044D01*
X142330574Y-104116706D01*
X142335275Y-104124848D01*
X142342868Y-104140370D01*
X142355433Y-104171257D01*
X142361503Y-104186180D01*
X142365761Y-104192157D01*
X142365762Y-104192158D01*
X142406422Y-104249226D01*
X142411413Y-104256989D01*
X142412097Y-104257907D01*
X142415768Y-104264266D01*
X142420807Y-104269607D01*
X142423223Y-104272853D01*
X142424765Y-104274971D01*
X142464167Y-104330273D01*
X142511798Y-104382921D01*
X142512356Y-104383506D01*
X142512383Y-104383535D01*
X142526812Y-104398659D01*
X142539611Y-104412075D01*
X142543143Y-104414851D01*
X142543145Y-104414853D01*
X142610851Y-104468070D01*
X142614818Y-104471321D01*
X142760378Y-104595641D01*
X142774357Y-104609619D01*
X142853540Y-104702331D01*
X142865152Y-104718314D01*
X142881187Y-104744481D01*
X142928852Y-104822264D01*
X142937827Y-104839879D01*
X142984480Y-104952507D01*
X142990588Y-104971306D01*
X143002783Y-105022099D01*
X143019048Y-105089845D01*
X143022141Y-105109372D01*
X143026656Y-105166737D01*
X143031707Y-105230915D01*
X143031707Y-105250686D01*
X143022142Y-105372218D01*
X143019049Y-105391746D01*
X142995730Y-105488876D01*
X142995729Y-105488880D01*
X142990590Y-105510287D01*
X142984482Y-105529088D01*
X142937825Y-105641727D01*
X142928855Y-105659332D01*
X142865153Y-105763285D01*
X142853537Y-105779273D01*
X142774359Y-105871979D01*
X142760381Y-105885957D01*
X142667669Y-105965140D01*
X142651686Y-105976752D01*
X142581096Y-106020010D01*
X142547736Y-106040452D01*
X142530123Y-106049427D01*
X142417492Y-106096081D01*
X142398694Y-106102188D01*
X142377290Y-106107327D01*
X142377276Y-106107330D01*
X142280146Y-106130649D01*
X142260618Y-106133742D01*
X142199852Y-106138525D01*
X142139085Y-106143307D01*
X142119315Y-106143307D01*
X142058548Y-106138525D01*
X141997782Y-106133742D01*
X141978254Y-106130649D01*
X141881124Y-106107330D01*
X141881110Y-106107327D01*
X141859706Y-106102188D01*
X141840908Y-106096081D01*
X141728277Y-106049427D01*
X141710664Y-106040452D01*
X141677304Y-106020010D01*
X141606714Y-105976752D01*
X141590731Y-105965140D01*
X141498019Y-105885957D01*
X141484041Y-105871979D01*
X141404863Y-105779273D01*
X141393247Y-105763285D01*
X141329545Y-105659332D01*
X141320575Y-105641727D01*
X141273918Y-105529088D01*
X141267810Y-105510287D01*
X141262671Y-105488880D01*
X141262670Y-105488876D01*
X141239351Y-105391746D01*
X141236258Y-105372218D01*
X141226693Y-105250686D01*
X141226693Y-105230915D01*
X141231744Y-105166737D01*
X141236259Y-105109372D01*
X141239352Y-105089845D01*
X141255617Y-105022099D01*
X141267812Y-104971306D01*
X141273920Y-104952507D01*
X141320573Y-104839879D01*
X141329548Y-104822264D01*
X141377213Y-104744481D01*
X141393248Y-104718314D01*
X141404860Y-104702331D01*
X141484043Y-104609619D01*
X141498018Y-104595644D01*
X141637817Y-104476244D01*
X141642173Y-104472689D01*
X141711756Y-104418436D01*
X141711764Y-104418429D01*
X141714551Y-104416256D01*
X141747981Y-104383535D01*
X141754183Y-104377464D01*
X141754193Y-104377454D01*
X141754713Y-104376945D01*
X141763188Y-104368267D01*
X141775660Y-104355497D01*
X141775665Y-104355491D01*
X141778716Y-104352367D01*
X141883616Y-104209894D01*
X141893037Y-104187734D01*
X141951398Y-104050444D01*
X141951399Y-104050440D01*
X141952832Y-104047070D01*
X141972834Y-103978949D01*
X141983160Y-103939999D01*
X142003700Y-103764270D01*
X142003897Y-103764293D01*
X142027340Y-103698823D01*
X142083612Y-103655533D01*
X142154355Y-103649538D01*
X142217109Y-103682741D01*
G37*
G04 #@! TD.AperFunction*
G04 #@! TA.AperFunction,Conductor*
G36*
X153231121Y-51836002D02*
G01*
X153277614Y-51889658D01*
X153289000Y-51942000D01*
X153289000Y-75145000D01*
X153268998Y-75213121D01*
X153215342Y-75259614D01*
X153163000Y-75271000D01*
X144525000Y-75271000D01*
X144456879Y-75250998D01*
X144410386Y-75197342D01*
X144399000Y-75145000D01*
X144399000Y-51942000D01*
X144419002Y-51873879D01*
X144472658Y-51827386D01*
X144525000Y-51816000D01*
X153163000Y-51816000D01*
X153231121Y-51836002D01*
G37*
G04 #@! TD.AperFunction*
G04 #@! TA.AperFunction,Conductor*
G36*
X181298121Y-73815002D02*
G01*
X181344614Y-73868658D01*
X181356000Y-73921000D01*
X181356000Y-87534600D01*
X181335998Y-87602721D01*
X181282342Y-87649214D01*
X181230000Y-87660600D01*
X181156557Y-87660600D01*
X181088436Y-87640598D01*
X181041943Y-87586942D01*
X181031708Y-87551591D01*
X181013526Y-87417993D01*
X181012896Y-87413362D01*
X180998473Y-87363877D01*
X180941068Y-87166932D01*
X180939757Y-87162433D01*
X180830332Y-86925072D01*
X180797519Y-86875024D01*
X180689590Y-86710404D01*
X180689586Y-86710399D01*
X180687024Y-86706491D01*
X180512982Y-86511494D01*
X180312030Y-86344363D01*
X180264844Y-86315730D01*
X180092578Y-86211196D01*
X180092574Y-86211194D01*
X180088581Y-86208771D01*
X179847545Y-86107697D01*
X179594217Y-86043359D01*
X179589566Y-86042891D01*
X179589562Y-86042890D01*
X179380271Y-86021816D01*
X179377133Y-86021500D01*
X174721646Y-86021500D01*
X174719321Y-86021673D01*
X174719315Y-86021673D01*
X174532000Y-86035593D01*
X174531996Y-86035594D01*
X174527348Y-86035939D01*
X174522800Y-86036968D01*
X174522794Y-86036969D01*
X174336399Y-86079147D01*
X174272423Y-86093623D01*
X174268071Y-86095315D01*
X174268069Y-86095316D01*
X174033176Y-86186660D01*
X174033173Y-86186661D01*
X174028823Y-86188353D01*
X173801902Y-86318049D01*
X173596643Y-86479862D01*
X173417557Y-86670237D01*
X173268576Y-86884991D01*
X173152975Y-87119407D01*
X173073293Y-87368335D01*
X173072540Y-87372959D01*
X173042916Y-87554854D01*
X173012224Y-87618874D01*
X172951793Y-87656137D01*
X172918555Y-87660600D01*
X164845000Y-87660600D01*
X164776879Y-87640598D01*
X164730386Y-87586942D01*
X164719000Y-87534600D01*
X164719000Y-73921000D01*
X164739002Y-73852879D01*
X164792658Y-73806386D01*
X164845000Y-73795000D01*
X181230000Y-73795000D01*
X181298121Y-73815002D01*
G37*
G04 #@! TD.AperFunction*
G04 #@! TA.AperFunction,Conductor*
G36*
X86209306Y-96669407D02*
G01*
X86288631Y-96695718D01*
X86288633Y-96695718D01*
X86295165Y-96697885D01*
X86398769Y-96708500D01*
X86690234Y-96708500D01*
X86986230Y-96708499D01*
X87091129Y-96697616D01*
X87097660Y-96695437D01*
X87097665Y-96695436D01*
X87175476Y-96669476D01*
X87215352Y-96663000D01*
X88044639Y-96663000D01*
X88084306Y-96669407D01*
X88163631Y-96695718D01*
X88163633Y-96695718D01*
X88170165Y-96697885D01*
X88273769Y-96708500D01*
X88565234Y-96708500D01*
X88861230Y-96708499D01*
X88966129Y-96697616D01*
X88972660Y-96695437D01*
X88972665Y-96695436D01*
X89050476Y-96669476D01*
X89090352Y-96663000D01*
X99188000Y-96663000D01*
X99256121Y-96683002D01*
X99302614Y-96736658D01*
X99314000Y-96789000D01*
X99314000Y-111316000D01*
X99293998Y-111384121D01*
X99240342Y-111430614D01*
X99188000Y-111442000D01*
X91129207Y-111442000D01*
X91061086Y-111421998D01*
X91014593Y-111368342D01*
X91003218Y-111314351D01*
X91005081Y-111172022D01*
X91005081Y-111172019D01*
X91005142Y-111167345D01*
X90969896Y-110908362D01*
X90955473Y-110858877D01*
X90898068Y-110661932D01*
X90896757Y-110657433D01*
X90787332Y-110420072D01*
X90754519Y-110370024D01*
X90646590Y-110205404D01*
X90646586Y-110205399D01*
X90644024Y-110201491D01*
X90469982Y-110006494D01*
X90269030Y-109839363D01*
X90221844Y-109810730D01*
X90049578Y-109706196D01*
X90049574Y-109706194D01*
X90045581Y-109703771D01*
X89804545Y-109602697D01*
X89551217Y-109538359D01*
X89546566Y-109537891D01*
X89546562Y-109537890D01*
X89337271Y-109516816D01*
X89334133Y-109516500D01*
X84678646Y-109516500D01*
X84676321Y-109516673D01*
X84676315Y-109516673D01*
X84489000Y-109530593D01*
X84488996Y-109530594D01*
X84484348Y-109530939D01*
X84479800Y-109531968D01*
X84479794Y-109531969D01*
X84293399Y-109574147D01*
X84229423Y-109588623D01*
X84225071Y-109590315D01*
X84225069Y-109590316D01*
X83990176Y-109681660D01*
X83990173Y-109681661D01*
X83985823Y-109683353D01*
X83758902Y-109813049D01*
X83553643Y-109974862D01*
X83374557Y-110165237D01*
X83225576Y-110379991D01*
X83109975Y-110614407D01*
X83030293Y-110863335D01*
X82988279Y-111121307D01*
X82987615Y-111172022D01*
X82985709Y-111317649D01*
X82964817Y-111385502D01*
X82910558Y-111431289D01*
X82859720Y-111442000D01*
X82803000Y-111442000D01*
X82734879Y-111421998D01*
X82688386Y-111368342D01*
X82677000Y-111316000D01*
X82677000Y-96789000D01*
X82697002Y-96720879D01*
X82750658Y-96674386D01*
X82803000Y-96663000D01*
X86169639Y-96663000D01*
X86209306Y-96669407D01*
G37*
G04 #@! TD.AperFunction*
G04 #@! TA.AperFunction,Conductor*
G36*
X117860863Y-102128002D02*
G01*
X117907356Y-102181658D01*
X117917460Y-102251932D01*
X117887966Y-102316512D01*
X117828240Y-102354896D01*
X117811801Y-102358550D01*
X117685965Y-102377806D01*
X117675937Y-102380195D01*
X117451630Y-102453509D01*
X117442120Y-102457506D01*
X117288913Y-102537261D01*
X117278743Y-102547035D01*
X117281168Y-102553953D01*
X118016388Y-103289173D01*
X118030332Y-103296787D01*
X118032165Y-103296656D01*
X118038780Y-103292405D01*
X118771765Y-102559420D01*
X118778525Y-102547040D01*
X118773711Y-102540610D01*
X118649893Y-102472258D01*
X118640496Y-102468035D01*
X118418044Y-102389261D01*
X118408073Y-102386627D01*
X118247624Y-102358047D01*
X118184066Y-102326409D01*
X118147703Y-102265432D01*
X118150080Y-102194475D01*
X118190441Y-102136067D01*
X118255973Y-102108752D01*
X118269720Y-102108000D01*
X141115700Y-102108000D01*
X141183821Y-102128002D01*
X141230314Y-102181658D01*
X141241700Y-102234000D01*
X141241700Y-103764270D01*
X141221698Y-103832391D01*
X141181536Y-103871702D01*
X141153203Y-103889065D01*
X141148985Y-103891650D01*
X140950000Y-104061600D01*
X140780050Y-104260585D01*
X140643321Y-104483707D01*
X140641428Y-104488277D01*
X140641426Y-104488281D01*
X140545073Y-104720898D01*
X140543179Y-104725471D01*
X140542024Y-104730283D01*
X140483245Y-104975110D01*
X140483244Y-104975116D01*
X140482090Y-104979923D01*
X140461559Y-105240800D01*
X140482090Y-105501677D01*
X140483244Y-105506484D01*
X140483245Y-105506490D01*
X140521725Y-105666766D01*
X140543179Y-105756129D01*
X140643321Y-105997893D01*
X140780050Y-106221015D01*
X140950000Y-106420000D01*
X141148985Y-106589950D01*
X141372107Y-106726679D01*
X141376677Y-106728572D01*
X141376681Y-106728574D01*
X141609298Y-106824927D01*
X141613871Y-106826821D01*
X141703234Y-106848275D01*
X141863510Y-106886755D01*
X141863516Y-106886756D01*
X141868323Y-106887910D01*
X142129200Y-106908441D01*
X142390077Y-106887910D01*
X142394884Y-106886756D01*
X142394890Y-106886755D01*
X142555166Y-106848275D01*
X142644529Y-106826821D01*
X142649102Y-106824927D01*
X142881719Y-106728574D01*
X142881723Y-106728572D01*
X142886293Y-106726679D01*
X143109415Y-106589950D01*
X143308400Y-106420000D01*
X143478350Y-106221015D01*
X143615079Y-105997893D01*
X143715221Y-105756129D01*
X143736675Y-105666766D01*
X143775155Y-105506490D01*
X143775156Y-105506484D01*
X143776310Y-105501677D01*
X143796841Y-105240800D01*
X143776310Y-104979923D01*
X143775156Y-104975116D01*
X143775155Y-104975110D01*
X143716376Y-104730283D01*
X143715221Y-104725471D01*
X143713327Y-104720898D01*
X143616974Y-104488281D01*
X143616972Y-104488277D01*
X143615079Y-104483707D01*
X143478350Y-104260585D01*
X143308400Y-104061600D01*
X143109415Y-103891650D01*
X143105197Y-103889065D01*
X143076864Y-103871702D01*
X143029233Y-103819054D01*
X143026986Y-103809231D01*
X144526812Y-103809231D01*
X144540396Y-104044828D01*
X144541832Y-104055048D01*
X144593713Y-104285255D01*
X144596792Y-104295084D01*
X144685580Y-104513741D01*
X144690225Y-104522937D01*
X144725604Y-104580670D01*
X144736060Y-104590131D01*
X144744838Y-104586347D01*
X145477573Y-103853612D01*
X145485187Y-103839668D01*
X145485056Y-103837835D01*
X145480805Y-103831220D01*
X144745463Y-103095878D01*
X144733927Y-103089579D01*
X144722700Y-103098375D01*
X144720055Y-103103032D01*
X144620694Y-103317085D01*
X144617140Y-103326745D01*
X144554070Y-103554169D01*
X144552143Y-103564273D01*
X144527064Y-103798942D01*
X144526812Y-103809231D01*
X143026986Y-103809231D01*
X143016700Y-103764270D01*
X143016700Y-102234000D01*
X143036702Y-102165879D01*
X143090358Y-102119386D01*
X143142700Y-102108000D01*
X145792742Y-102108000D01*
X145860863Y-102128002D01*
X145907356Y-102181658D01*
X145917460Y-102251932D01*
X145887966Y-102316512D01*
X145828240Y-102354896D01*
X145811801Y-102358550D01*
X145685965Y-102377806D01*
X145675937Y-102380195D01*
X145451630Y-102453509D01*
X145442120Y-102457506D01*
X145288913Y-102537261D01*
X145278743Y-102547035D01*
X145281168Y-102553953D01*
X146304000Y-103576785D01*
X146304000Y-104104815D01*
X145286948Y-105121867D01*
X145280188Y-105134247D01*
X145285469Y-105141301D01*
X145375255Y-105193768D01*
X145384543Y-105198218D01*
X145605008Y-105282405D01*
X145614906Y-105285281D01*
X145846162Y-105332330D01*
X145856390Y-105333549D01*
X146092223Y-105342198D01*
X146102509Y-105341731D01*
X146161990Y-105334111D01*
X146232100Y-105345295D01*
X146285034Y-105392608D01*
X146304000Y-105459090D01*
X146304000Y-113412000D01*
X146283998Y-113480121D01*
X146230342Y-113526614D01*
X146178000Y-113538000D01*
X133157734Y-113538000D01*
X133089613Y-113517998D01*
X133043120Y-113464342D01*
X133034134Y-113387527D01*
X133070409Y-113204321D01*
X133071387Y-113197364D01*
X133099430Y-112863421D01*
X133099643Y-112859055D01*
X133100773Y-112778178D01*
X133100682Y-112773828D01*
X133081974Y-112439220D01*
X133081190Y-112432230D01*
X133025528Y-112103137D01*
X133023967Y-112096266D01*
X132931964Y-111775415D01*
X132929656Y-111768787D01*
X132802455Y-111460172D01*
X132799426Y-111453852D01*
X132638617Y-111161340D01*
X132634894Y-111155384D01*
X132468524Y-110919538D01*
X132457956Y-110911151D01*
X132444629Y-110918186D01*
X130137095Y-113225720D01*
X130074783Y-113259746D01*
X130003968Y-113254681D01*
X129958905Y-113225720D01*
X127651917Y-110918732D01*
X127639806Y-110912119D01*
X127628188Y-110920946D01*
X127483990Y-111119418D01*
X127480173Y-111125340D01*
X127315307Y-111415555D01*
X127312181Y-111421853D01*
X127180692Y-111728642D01*
X127178286Y-111735252D01*
X127081811Y-112054791D01*
X127080161Y-112061612D01*
X127019905Y-112389916D01*
X127019023Y-112396899D01*
X126995741Y-112729858D01*
X126995643Y-112736903D01*
X127009620Y-113070384D01*
X127010305Y-113077374D01*
X127059123Y-113392724D01*
X127049778Y-113463103D01*
X127003866Y-113517257D01*
X126934606Y-113538000D01*
X115696000Y-113538000D01*
X115627879Y-113517998D01*
X115581386Y-113464342D01*
X115570000Y-113412000D01*
X115570000Y-110365212D01*
X128182492Y-110365212D01*
X128189593Y-110378778D01*
X130035188Y-112224373D01*
X130049132Y-112231987D01*
X130050965Y-112231856D01*
X130057580Y-112227605D01*
X131905807Y-110379378D01*
X131912348Y-110367400D01*
X131903335Y-110355624D01*
X131686628Y-110200476D01*
X131680703Y-110196717D01*
X131389336Y-110033878D01*
X131383018Y-110030796D01*
X131075310Y-109901447D01*
X131068695Y-109899091D01*
X130748476Y-109804846D01*
X130741654Y-109803246D01*
X130412924Y-109745282D01*
X130405952Y-109744451D01*
X130072830Y-109723492D01*
X130065799Y-109723443D01*
X129732402Y-109739749D01*
X129725424Y-109740483D01*
X129395930Y-109793849D01*
X129389070Y-109795357D01*
X129067565Y-109885123D01*
X129060930Y-109887382D01*
X128751437Y-110012425D01*
X128745093Y-110015410D01*
X128451471Y-110174171D01*
X128445482Y-110177855D01*
X128190854Y-110354825D01*
X128182492Y-110365212D01*
X115570000Y-110365212D01*
X115570000Y-105134247D01*
X117280188Y-105134247D01*
X117285469Y-105141301D01*
X117375255Y-105193768D01*
X117384543Y-105198218D01*
X117605008Y-105282405D01*
X117614906Y-105285281D01*
X117846162Y-105332330D01*
X117856390Y-105333549D01*
X118092223Y-105342198D01*
X118102509Y-105341731D01*
X118336588Y-105311744D01*
X118346674Y-105309601D01*
X118572716Y-105241785D01*
X118575230Y-105240800D01*
X136661559Y-105240800D01*
X136682090Y-105501677D01*
X136683244Y-105506484D01*
X136683245Y-105506490D01*
X136721725Y-105666766D01*
X136743179Y-105756129D01*
X136843321Y-105997893D01*
X136980050Y-106221015D01*
X137150000Y-106420000D01*
X137348985Y-106589950D01*
X137572107Y-106726679D01*
X137576677Y-106728572D01*
X137576681Y-106728574D01*
X137809298Y-106824927D01*
X137813871Y-106826821D01*
X137903234Y-106848275D01*
X138063510Y-106886755D01*
X138063516Y-106886756D01*
X138068323Y-106887910D01*
X138329200Y-106908441D01*
X138590077Y-106887910D01*
X138594884Y-106886756D01*
X138594890Y-106886755D01*
X138755166Y-106848275D01*
X138844529Y-106826821D01*
X138849102Y-106824927D01*
X139081719Y-106728574D01*
X139081723Y-106728572D01*
X139086293Y-106726679D01*
X139309415Y-106589950D01*
X139508400Y-106420000D01*
X139678350Y-106221015D01*
X139815079Y-105997893D01*
X139915221Y-105756129D01*
X139936675Y-105666766D01*
X139975155Y-105506490D01*
X139975156Y-105506484D01*
X139976310Y-105501677D01*
X139996841Y-105240800D01*
X139976310Y-104979923D01*
X139975156Y-104975116D01*
X139975155Y-104975110D01*
X139916376Y-104730283D01*
X139915221Y-104725471D01*
X139913327Y-104720898D01*
X139816974Y-104488281D01*
X139816972Y-104488277D01*
X139815079Y-104483707D01*
X139678350Y-104260585D01*
X139508400Y-104061600D01*
X139309415Y-103891650D01*
X139086293Y-103754921D01*
X139081723Y-103753028D01*
X139081719Y-103753026D01*
X138849102Y-103656673D01*
X138849100Y-103656672D01*
X138844529Y-103654779D01*
X138755166Y-103633325D01*
X138594890Y-103594845D01*
X138594884Y-103594844D01*
X138590077Y-103593690D01*
X138329200Y-103573159D01*
X138068323Y-103593690D01*
X138063516Y-103594844D01*
X138063510Y-103594845D01*
X137903234Y-103633325D01*
X137813871Y-103654779D01*
X137809300Y-103656672D01*
X137809298Y-103656673D01*
X137576681Y-103753026D01*
X137576677Y-103753028D01*
X137572107Y-103754921D01*
X137348985Y-103891650D01*
X137150000Y-104061600D01*
X136980050Y-104260585D01*
X136843321Y-104483707D01*
X136841428Y-104488277D01*
X136841426Y-104488281D01*
X136745073Y-104720898D01*
X136743179Y-104725471D01*
X136742024Y-104730283D01*
X136683245Y-104975110D01*
X136683244Y-104975116D01*
X136682090Y-104979923D01*
X136661559Y-105240800D01*
X118575230Y-105240800D01*
X118582293Y-105238032D01*
X118770953Y-105145608D01*
X118781358Y-105136086D01*
X118779297Y-105129712D01*
X118042012Y-104392427D01*
X118028068Y-104384813D01*
X118026235Y-104384944D01*
X118019620Y-104389195D01*
X117286948Y-105121867D01*
X117280188Y-105134247D01*
X115570000Y-105134247D01*
X115570000Y-103809231D01*
X116526812Y-103809231D01*
X116540396Y-104044828D01*
X116541832Y-104055048D01*
X116593713Y-104285255D01*
X116596792Y-104295084D01*
X116685580Y-104513741D01*
X116690225Y-104522937D01*
X116725604Y-104580670D01*
X116736060Y-104590131D01*
X116744838Y-104586347D01*
X117477573Y-103853612D01*
X117483951Y-103841932D01*
X118573213Y-103841932D01*
X118573344Y-103843765D01*
X118577595Y-103850380D01*
X119312945Y-104585730D01*
X119325325Y-104592490D01*
X119330758Y-104588423D01*
X119424485Y-104398783D01*
X119428283Y-104389190D01*
X119496885Y-104163393D01*
X119499062Y-104153323D01*
X119530102Y-103917550D01*
X119530621Y-103910875D01*
X119532252Y-103844164D01*
X119532058Y-103837447D01*
X119512574Y-103600450D01*
X119510891Y-103590288D01*
X119453400Y-103361404D01*
X119450079Y-103351649D01*
X119355981Y-103135241D01*
X119351106Y-103126149D01*
X119334063Y-103099803D01*
X119323378Y-103090600D01*
X119313812Y-103095003D01*
X118580827Y-103827988D01*
X118573213Y-103841932D01*
X117483951Y-103841932D01*
X117485187Y-103839668D01*
X117485056Y-103837835D01*
X117480805Y-103831220D01*
X116745463Y-103095878D01*
X116733927Y-103089579D01*
X116722700Y-103098375D01*
X116720055Y-103103032D01*
X116620694Y-103317085D01*
X116617140Y-103326745D01*
X116554070Y-103554169D01*
X116552143Y-103564273D01*
X116527064Y-103798942D01*
X116526812Y-103809231D01*
X115570000Y-103809231D01*
X115570000Y-102234000D01*
X115590002Y-102165879D01*
X115643658Y-102119386D01*
X115696000Y-102108000D01*
X117792742Y-102108000D01*
X117860863Y-102128002D01*
G37*
G04 #@! TD.AperFunction*
G04 #@! TA.AperFunction,Conductor*
G36*
X99510121Y-51963002D02*
G01*
X99556614Y-52016658D01*
X99568000Y-52069000D01*
X99568000Y-67988800D01*
X99547998Y-68056921D01*
X99494342Y-68103414D01*
X99442000Y-68114800D01*
X83057000Y-68114800D01*
X82988879Y-68094798D01*
X82942386Y-68041142D01*
X82931000Y-67988800D01*
X82931000Y-65378910D01*
X82951002Y-65310789D01*
X83004658Y-65264296D01*
X83074932Y-65254192D01*
X83139512Y-65283686D01*
X83171426Y-65326159D01*
X83202668Y-65393928D01*
X83205231Y-65397837D01*
X83343410Y-65608596D01*
X83343414Y-65608601D01*
X83345976Y-65612509D01*
X83520018Y-65807506D01*
X83720970Y-65974637D01*
X83724973Y-65977066D01*
X83940422Y-66107804D01*
X83940426Y-66107806D01*
X83944419Y-66110229D01*
X84185455Y-66211303D01*
X84438783Y-66275641D01*
X84443434Y-66276109D01*
X84443438Y-66276110D01*
X84636308Y-66295531D01*
X84655867Y-66297500D01*
X89311354Y-66297500D01*
X89313679Y-66297327D01*
X89313685Y-66297327D01*
X89501000Y-66283407D01*
X89501004Y-66283406D01*
X89505652Y-66283061D01*
X89510200Y-66282032D01*
X89510206Y-66282031D01*
X89696601Y-66239853D01*
X89760577Y-66225377D01*
X89796769Y-66211303D01*
X89999824Y-66132340D01*
X89999827Y-66132339D01*
X90004177Y-66130647D01*
X90231098Y-66000951D01*
X90436357Y-65839138D01*
X90615443Y-65648763D01*
X90764424Y-65434009D01*
X90817610Y-65326159D01*
X90877960Y-65203781D01*
X90877961Y-65203778D01*
X90880025Y-65199593D01*
X90959707Y-64950665D01*
X91001721Y-64692693D01*
X91005142Y-64431345D01*
X90969896Y-64172362D01*
X90896757Y-63921433D01*
X90787332Y-63684072D01*
X90754519Y-63634024D01*
X90646590Y-63469404D01*
X90646586Y-63469399D01*
X90644024Y-63465491D01*
X90469982Y-63270494D01*
X90269030Y-63103363D01*
X90221844Y-63074730D01*
X90049578Y-62970196D01*
X90049574Y-62970194D01*
X90045581Y-62967771D01*
X89804545Y-62866697D01*
X89551217Y-62802359D01*
X89546566Y-62801891D01*
X89546562Y-62801890D01*
X89337271Y-62780816D01*
X89334133Y-62780500D01*
X84678646Y-62780500D01*
X84676321Y-62780673D01*
X84676315Y-62780673D01*
X84489000Y-62794593D01*
X84488996Y-62794594D01*
X84484348Y-62794939D01*
X84479800Y-62795968D01*
X84479794Y-62795969D01*
X84293399Y-62838147D01*
X84229423Y-62852623D01*
X84225071Y-62854315D01*
X84225069Y-62854316D01*
X83990176Y-62945660D01*
X83990173Y-62945661D01*
X83985823Y-62947353D01*
X83758902Y-63077049D01*
X83553643Y-63238862D01*
X83374557Y-63429237D01*
X83225576Y-63643991D01*
X83223510Y-63648181D01*
X83223508Y-63648184D01*
X83170006Y-63756676D01*
X83121938Y-63808925D01*
X83053252Y-63826892D01*
X82985757Y-63804873D01*
X82940880Y-63749858D01*
X82931000Y-63700948D01*
X82931000Y-52069000D01*
X82951002Y-52000879D01*
X83004658Y-51954386D01*
X83057000Y-51943000D01*
X99442000Y-51943000D01*
X99510121Y-51963002D01*
G37*
G04 #@! TD.AperFunction*
G04 #@! TA.AperFunction,Conductor*
G36*
X118814121Y-51836002D02*
G01*
X118860614Y-51889658D01*
X118872000Y-51942000D01*
X118872000Y-75167600D01*
X118851998Y-75235721D01*
X118798342Y-75282214D01*
X118746000Y-75293600D01*
X110108000Y-75293600D01*
X110039879Y-75273598D01*
X109993386Y-75219942D01*
X109982000Y-75167600D01*
X109982000Y-72856873D01*
X110002002Y-72788752D01*
X110009118Y-72778781D01*
X110011447Y-72775832D01*
X110016617Y-72770653D01*
X110108661Y-72621329D01*
X110163885Y-72454835D01*
X110174500Y-72351231D01*
X110174499Y-71763770D01*
X110163616Y-71658871D01*
X110161437Y-71652340D01*
X110161436Y-71652335D01*
X110110420Y-71499422D01*
X110108102Y-71492474D01*
X110088954Y-71461530D01*
X110019651Y-71349538D01*
X110019648Y-71349534D01*
X110015797Y-71343311D01*
X110010615Y-71338138D01*
X110009254Y-71336421D01*
X109982617Y-71270611D01*
X109982000Y-71258157D01*
X109982000Y-70981873D01*
X110002002Y-70913752D01*
X110009118Y-70903781D01*
X110011447Y-70900832D01*
X110016617Y-70895653D01*
X110108661Y-70746329D01*
X110163885Y-70579835D01*
X110174500Y-70476231D01*
X110174499Y-69888770D01*
X110163616Y-69783871D01*
X110161437Y-69777340D01*
X110161436Y-69777335D01*
X110110420Y-69624422D01*
X110108102Y-69617474D01*
X110088954Y-69586530D01*
X110019651Y-69474538D01*
X110019648Y-69474534D01*
X110015797Y-69468311D01*
X110010615Y-69463138D01*
X110009254Y-69461421D01*
X109982617Y-69395611D01*
X109982000Y-69383157D01*
X109982000Y-51942000D01*
X110002002Y-51873879D01*
X110055658Y-51827386D01*
X110108000Y-51816000D01*
X118746000Y-51816000D01*
X118814121Y-51836002D01*
G37*
G04 #@! TD.AperFunction*
M02*
