G04 #@! TF.GenerationSoftware,KiCad,Pcbnew,(6.0.1)*
G04 #@! TF.CreationDate,2022-02-13T16:01:42-07:00*
G04 #@! TF.ProjectId,MinesRobotics_PDB,4d696e65-7352-46f6-926f-746963735f50,rev?*
G04 #@! TF.SameCoordinates,Original*
G04 #@! TF.FileFunction,Copper,L1,Top*
G04 #@! TF.FilePolarity,Positive*
%FSLAX46Y46*%
G04 Gerber Fmt 4.6, Leading zero omitted, Abs format (unit mm)*
G04 Created by KiCad (PCBNEW (6.0.1)) date 2022-02-13 16:01:42*
%MOMM*%
%LPD*%
G01*
G04 APERTURE LIST*
G04 Aperture macros list*
%AMRoundRect*
0 Rectangle with rounded corners*
0 $1 Rounding radius*
0 $2 $3 $4 $5 $6 $7 $8 $9 X,Y pos of 4 corners*
0 Add a 4 corners polygon primitive as box body*
4,1,4,$2,$3,$4,$5,$6,$7,$8,$9,$2,$3,0*
0 Add four circle primitives for the rounded corners*
1,1,$1+$1,$2,$3*
1,1,$1+$1,$4,$5*
1,1,$1+$1,$6,$7*
1,1,$1+$1,$8,$9*
0 Add four rect primitives between the rounded corners*
20,1,$1+$1,$2,$3,$4,$5,0*
20,1,$1+$1,$4,$5,$6,$7,0*
20,1,$1+$1,$6,$7,$8,$9,0*
20,1,$1+$1,$8,$9,$2,$3,0*%
G04 Aperture macros list end*
G04 #@! TA.AperFunction,ComponentPad*
%ADD10C,5.600000*%
G04 #@! TD*
G04 #@! TA.AperFunction,ComponentPad*
%ADD11O,5.500000X3.800000*%
G04 #@! TD*
G04 #@! TA.AperFunction,ComponentPad*
%ADD12O,5.300000X3.800000*%
G04 #@! TD*
G04 #@! TA.AperFunction,SMDPad,CuDef*
%ADD13RoundRect,0.200000X0.275000X-0.200000X0.275000X0.200000X-0.275000X0.200000X-0.275000X-0.200000X0*%
G04 #@! TD*
G04 #@! TA.AperFunction,SMDPad,CuDef*
%ADD14RoundRect,0.218750X0.218750X0.256250X-0.218750X0.256250X-0.218750X-0.256250X0.218750X-0.256250X0*%
G04 #@! TD*
G04 #@! TA.AperFunction,ComponentPad*
%ADD15O,7.000000X2.500000*%
G04 #@! TD*
G04 #@! TA.AperFunction,ComponentPad*
%ADD16O,2.500000X7.000000*%
G04 #@! TD*
G04 #@! TA.AperFunction,SMDPad,CuDef*
%ADD17RoundRect,0.218750X-0.218750X-0.256250X0.218750X-0.256250X0.218750X0.256250X-0.218750X0.256250X0*%
G04 #@! TD*
G04 #@! TA.AperFunction,SMDPad,CuDef*
%ADD18RoundRect,0.200000X-0.200000X-0.275000X0.200000X-0.275000X0.200000X0.275000X-0.200000X0.275000X0*%
G04 #@! TD*
G04 #@! TA.AperFunction,ComponentPad*
%ADD19C,1.800000*%
G04 #@! TD*
G04 #@! TA.AperFunction,ComponentPad*
%ADD20C,2.500000*%
G04 #@! TD*
G04 #@! TA.AperFunction,ComponentPad*
%ADD21C,1.440000*%
G04 #@! TD*
G04 #@! TA.AperFunction,ComponentPad*
%ADD22RoundRect,0.250000X-0.600000X-0.750000X0.600000X-0.750000X0.600000X0.750000X-0.600000X0.750000X0*%
G04 #@! TD*
G04 #@! TA.AperFunction,ComponentPad*
%ADD23O,1.700000X2.000000*%
G04 #@! TD*
G04 #@! TA.AperFunction,ViaPad*
%ADD24C,0.800000*%
G04 #@! TD*
G04 #@! TA.AperFunction,Conductor*
%ADD25C,0.250000*%
G04 #@! TD*
G04 APERTURE END LIST*
D10*
X96000000Y-68000000D03*
D11*
X105143000Y-70485000D03*
D12*
X113143000Y-70485000D03*
D13*
X117348000Y-73723000D03*
X117348000Y-72073000D03*
D11*
X159705000Y-59055000D03*
D12*
X167705000Y-59055000D03*
D14*
X143738700Y-73964800D03*
X142163700Y-73964800D03*
D11*
X159880000Y-81935000D03*
D12*
X167880000Y-81935000D03*
D15*
X86995000Y-103355000D03*
X86995000Y-111275000D03*
D14*
X115722500Y-74168000D03*
X114147500Y-74168000D03*
D16*
X146962000Y-55626000D03*
X139042000Y-55626000D03*
D11*
X160020000Y-105435000D03*
D12*
X168020000Y-105435000D03*
D14*
X169926000Y-62484000D03*
X168351000Y-62484000D03*
D15*
X86995000Y-56619000D03*
X86995000Y-64539000D03*
D11*
X160020000Y-100465000D03*
D12*
X168020000Y-100465000D03*
D13*
X171704000Y-85280000D03*
X171704000Y-83630000D03*
D17*
X93827500Y-108839000D03*
X95402500Y-108839000D03*
D10*
X167000000Y-68000000D03*
D15*
X177038000Y-79860000D03*
X177038000Y-87780000D03*
D18*
X112895400Y-97636800D03*
X114545400Y-97636800D03*
D14*
X170154700Y-109067600D03*
X168579700Y-109067600D03*
D16*
X116182000Y-55753000D03*
X124102000Y-55753000D03*
D13*
X91897200Y-63207400D03*
X91897200Y-61557400D03*
D11*
X105143000Y-65540000D03*
D12*
X113143000Y-65540000D03*
D13*
X145338800Y-73773800D03*
X145338800Y-72123800D03*
D11*
X157239000Y-70231000D03*
D12*
X149239000Y-70231000D03*
D17*
X93548100Y-63246000D03*
X95123100Y-63246000D03*
D11*
X159880000Y-76990000D03*
D12*
X167880000Y-76990000D03*
D15*
X177038000Y-103101000D03*
X177038000Y-111021000D03*
D17*
X93700500Y-85598000D03*
X95275500Y-85598000D03*
D11*
X104045000Y-82000000D03*
D12*
X96045000Y-82000000D03*
D10*
X146050000Y-82423000D03*
D13*
X171958000Y-108775000D03*
X171958000Y-107125000D03*
D18*
X149365200Y-97713800D03*
X151015200Y-97713800D03*
D11*
X104045000Y-77055000D03*
D12*
X96045000Y-77055000D03*
D14*
X169951500Y-85471000D03*
X168376500Y-85471000D03*
D13*
X171704000Y-62420000D03*
X171704000Y-60770000D03*
D10*
X115062000Y-82550000D03*
D19*
X118029200Y-89910800D03*
X118029200Y-97510800D03*
D20*
X118029200Y-105110800D03*
X146029200Y-105110800D03*
D19*
X146029200Y-101310800D03*
X146029200Y-97510800D03*
X146029200Y-93710800D03*
D20*
X146029200Y-89910800D03*
D19*
X138329200Y-106510800D03*
X142129200Y-106510800D03*
X118029200Y-93710800D03*
D13*
X92075000Y-85661000D03*
X92075000Y-84011000D03*
D21*
X151258200Y-100141800D03*
X151258200Y-102681800D03*
X151258200Y-105221800D03*
D10*
X130048000Y-114046000D03*
X167000000Y-115000000D03*
D15*
X177038000Y-56619000D03*
X177038000Y-64539000D03*
D11*
X103645000Y-54745000D03*
D12*
X95645000Y-54745000D03*
D13*
X92075000Y-108648000D03*
X92075000Y-106998000D03*
D15*
X86995000Y-79352000D03*
X86995000Y-87272000D03*
D11*
X159645000Y-54110000D03*
D12*
X167645000Y-54110000D03*
D11*
X157239000Y-64786000D03*
D12*
X149239000Y-64786000D03*
D10*
X96000000Y-115000000D03*
D22*
X130000000Y-81280000D03*
D23*
X132500000Y-81280000D03*
D11*
X103645000Y-59690000D03*
D12*
X95645000Y-59690000D03*
D11*
X104140000Y-100465000D03*
D12*
X96140000Y-100465000D03*
D11*
X104140000Y-105410000D03*
D12*
X96140000Y-105410000D03*
D24*
X134112000Y-106426000D03*
X141732000Y-108966000D03*
X138684000Y-111506000D03*
X132588000Y-106426000D03*
X121158000Y-107950000D03*
X138684000Y-113030000D03*
X119634000Y-107950000D03*
X134112000Y-103378000D03*
X127000000Y-104902000D03*
X121158000Y-112014000D03*
X122682000Y-109220000D03*
X127000000Y-103378000D03*
X121158000Y-113538000D03*
X141732000Y-114554000D03*
X140208000Y-113030000D03*
X140208000Y-111506000D03*
X119634000Y-109220000D03*
X128270000Y-104902000D03*
X141732000Y-113030000D03*
X121158000Y-109220000D03*
X122682000Y-107950000D03*
X132588000Y-103378000D03*
X140208000Y-110236000D03*
X119634000Y-112014000D03*
X141732000Y-111506000D03*
X141732000Y-110236000D03*
X129540000Y-106426000D03*
X122682000Y-110490000D03*
X134112000Y-104902000D03*
X140208000Y-114554000D03*
X131064000Y-106426000D03*
X132588000Y-104902000D03*
X131064000Y-103378000D03*
X119634000Y-113538000D03*
X128270000Y-103378000D03*
X138684000Y-108966000D03*
X140208000Y-108966000D03*
X122682000Y-112014000D03*
X128270000Y-106426000D03*
X119634000Y-110490000D03*
X138684000Y-114554000D03*
X127000000Y-106426000D03*
X129540000Y-104902000D03*
X138684000Y-110236000D03*
X121158000Y-110490000D03*
X122682000Y-113538000D03*
X129540000Y-103378000D03*
X131064000Y-104902000D03*
D25*
X114595400Y-97586800D02*
X118059200Y-97586800D01*
X114545400Y-97636800D02*
X114595400Y-97586800D01*
X146029200Y-97536800D02*
X149188200Y-97536800D01*
X151258200Y-97956800D02*
X151258200Y-100141800D01*
X93548100Y-63246000D02*
X91935800Y-63246000D01*
X91935800Y-63246000D02*
X91897200Y-63207400D01*
X171640000Y-62484000D02*
X171704000Y-62420000D01*
X169926000Y-62484000D02*
X171640000Y-62484000D01*
X116903000Y-74168000D02*
X117348000Y-73723000D01*
X115722500Y-74168000D02*
X116903000Y-74168000D01*
X92329000Y-108839000D02*
X93827500Y-108839000D01*
X92138000Y-108648000D02*
X92329000Y-108839000D01*
X92075000Y-108648000D02*
X92138000Y-108648000D01*
X92075000Y-85661000D02*
X93637500Y-85661000D01*
X93637500Y-85661000D02*
X93700500Y-85598000D01*
X169951500Y-85471000D02*
X171513000Y-85471000D01*
X171513000Y-85471000D02*
X171704000Y-85280000D01*
X145147800Y-73964800D02*
X145338800Y-73773800D01*
X143738700Y-73964800D02*
X145147800Y-73964800D01*
X171665400Y-109067600D02*
X171958000Y-108775000D01*
X170154700Y-109067600D02*
X171665400Y-109067600D01*
G04 #@! TA.AperFunction,Conductor*
G36*
X181298121Y-97810002D02*
G01*
X181344614Y-97863658D01*
X181356000Y-97916000D01*
X181356000Y-107570000D01*
X181335998Y-107638121D01*
X181282342Y-107684614D01*
X181230000Y-107696000D01*
X164845000Y-107696000D01*
X164776879Y-107675998D01*
X164730386Y-107622342D01*
X164719000Y-107570000D01*
X164719000Y-97916000D01*
X164739002Y-97847879D01*
X164792658Y-97801386D01*
X164845000Y-97790000D01*
X181230000Y-97790000D01*
X181298121Y-97810002D01*
G37*
G04 #@! TD.AperFunction*
G04 #@! TA.AperFunction,Conductor*
G36*
X149802121Y-78252002D02*
G01*
X149848614Y-78305658D01*
X149860000Y-78358000D01*
X149860000Y-82240558D01*
X149839998Y-82308679D01*
X149786342Y-82355172D01*
X149716068Y-82365276D01*
X149651488Y-82335782D01*
X149613104Y-82276056D01*
X149608173Y-82247152D01*
X149602043Y-82130185D01*
X149597846Y-82050106D01*
X149578797Y-81929831D01*
X149570487Y-81877368D01*
X149539433Y-81681298D01*
X149442789Y-81320616D01*
X149308972Y-80972012D01*
X149139449Y-80639306D01*
X149136641Y-80634981D01*
X148937880Y-80328916D01*
X148936078Y-80326141D01*
X148701087Y-80035951D01*
X148437049Y-79771913D01*
X148146859Y-79536922D01*
X147833695Y-79333551D01*
X147830761Y-79332056D01*
X147830754Y-79332052D01*
X147503928Y-79165526D01*
X147500988Y-79164028D01*
X147152384Y-79030211D01*
X146791702Y-78933567D01*
X146595632Y-78902513D01*
X146426142Y-78875668D01*
X146426134Y-78875667D01*
X146422894Y-78875154D01*
X146050000Y-78855611D01*
X145677106Y-78875154D01*
X145673866Y-78875667D01*
X145673858Y-78875668D01*
X145504368Y-78902513D01*
X145308298Y-78933567D01*
X144947616Y-79030211D01*
X144599012Y-79164028D01*
X144596072Y-79165526D01*
X144269247Y-79332052D01*
X144269240Y-79332056D01*
X144266306Y-79333551D01*
X143953141Y-79536922D01*
X143662951Y-79771913D01*
X143398913Y-80035951D01*
X143163922Y-80326141D01*
X143162120Y-80328916D01*
X142963360Y-80634981D01*
X142960551Y-80639306D01*
X142791028Y-80972012D01*
X142657211Y-81320616D01*
X142560567Y-81681298D01*
X142529513Y-81877368D01*
X142521204Y-81929831D01*
X142502154Y-82050106D01*
X142482611Y-82423000D01*
X142502154Y-82795894D01*
X142560567Y-83164702D01*
X142657211Y-83525384D01*
X142791028Y-83873988D01*
X142960551Y-84206694D01*
X143163922Y-84519859D01*
X143398913Y-84810049D01*
X143662951Y-85074087D01*
X143953141Y-85309078D01*
X144266305Y-85512449D01*
X144269239Y-85513944D01*
X144269246Y-85513948D01*
X144596072Y-85680474D01*
X144599012Y-85681972D01*
X144947616Y-85815789D01*
X145308298Y-85912433D01*
X145504368Y-85943487D01*
X145673858Y-85970332D01*
X145673866Y-85970333D01*
X145677106Y-85970846D01*
X146050000Y-85990389D01*
X146422894Y-85970846D01*
X146426134Y-85970333D01*
X146426142Y-85970332D01*
X146595632Y-85943487D01*
X146791702Y-85912433D01*
X147152384Y-85815789D01*
X147500988Y-85681972D01*
X147503928Y-85680474D01*
X147830754Y-85513948D01*
X147830761Y-85513944D01*
X147833695Y-85512449D01*
X148146859Y-85309078D01*
X148437049Y-85074087D01*
X148701087Y-84810049D01*
X148936078Y-84519859D01*
X149139449Y-84206694D01*
X149308972Y-83873988D01*
X149442789Y-83525384D01*
X149539433Y-83164702D01*
X149597846Y-82795894D01*
X149608173Y-82598848D01*
X149631713Y-82531867D01*
X149687728Y-82488246D01*
X149758434Y-82481834D01*
X149821383Y-82514667D01*
X149856588Y-82576320D01*
X149860000Y-82605442D01*
X149860000Y-95124000D01*
X149839998Y-95192121D01*
X149786342Y-95238614D01*
X149734000Y-95250000D01*
X124586000Y-95250000D01*
X124517879Y-95229998D01*
X124471386Y-95176342D01*
X124460000Y-95124000D01*
X124460000Y-94746331D01*
X145538103Y-94746331D01*
X145541449Y-94750801D01*
X145667622Y-94805010D01*
X145678565Y-94808565D01*
X145873078Y-94852580D01*
X145884487Y-94854082D01*
X146083771Y-94861911D01*
X146095253Y-94861309D01*
X146292629Y-94832692D01*
X146303812Y-94830007D01*
X146492666Y-94765899D01*
X146503171Y-94761222D01*
X146511491Y-94756563D01*
X146521355Y-94746486D01*
X146518400Y-94738816D01*
X146042011Y-94262426D01*
X146028068Y-94254813D01*
X146026234Y-94254944D01*
X146019620Y-94259195D01*
X145544860Y-94733956D01*
X145538103Y-94746331D01*
X124460000Y-94746331D01*
X124460000Y-93686386D01*
X144877055Y-93686386D01*
X144890098Y-93885389D01*
X144891898Y-93896757D01*
X144940991Y-94090057D01*
X144944829Y-94100895D01*
X144986299Y-94190849D01*
X144995571Y-94201474D01*
X145001463Y-94199721D01*
X145477574Y-93723611D01*
X145483951Y-93711932D01*
X146573213Y-93711932D01*
X146573344Y-93713766D01*
X146577595Y-93720380D01*
X147053304Y-94196088D01*
X147065679Y-94202845D01*
X147072259Y-94197920D01*
X147079622Y-94184771D01*
X147084299Y-94174266D01*
X147148407Y-93985412D01*
X147151092Y-93974229D01*
X147180005Y-93774813D01*
X147180635Y-93767430D01*
X147182021Y-93714504D01*
X147181778Y-93707105D01*
X147163341Y-93506454D01*
X147161243Y-93495133D01*
X147107111Y-93303196D01*
X147102987Y-93292449D01*
X147072482Y-93230592D01*
X147062936Y-93220216D01*
X147056501Y-93222315D01*
X146580826Y-93697989D01*
X146573213Y-93711932D01*
X145483951Y-93711932D01*
X145485187Y-93709668D01*
X145485056Y-93707834D01*
X145480805Y-93701220D01*
X145006202Y-93226618D01*
X144993827Y-93219861D01*
X144987861Y-93224327D01*
X144966736Y-93264478D01*
X144962328Y-93275121D01*
X144903188Y-93465580D01*
X144900798Y-93476824D01*
X144877356Y-93674885D01*
X144877055Y-93686386D01*
X124460000Y-93686386D01*
X124460000Y-92673294D01*
X145535413Y-92673294D01*
X145538901Y-92681685D01*
X146016389Y-93159174D01*
X146030332Y-93166787D01*
X146032166Y-93166656D01*
X146038780Y-93162405D01*
X146514807Y-92686377D01*
X146521564Y-92674002D01*
X146518525Y-92669943D01*
X146362009Y-92607499D01*
X146350983Y-92604232D01*
X146155380Y-92565325D01*
X146143934Y-92564122D01*
X145944525Y-92561512D01*
X145933045Y-92562415D01*
X145736493Y-92596189D01*
X145725385Y-92599166D01*
X145541127Y-92667142D01*
X145535413Y-92673294D01*
X124460000Y-92673294D01*
X124460000Y-91204247D01*
X145280188Y-91204247D01*
X145285469Y-91211301D01*
X145375255Y-91263768D01*
X145384543Y-91268218D01*
X145605008Y-91352405D01*
X145614906Y-91355281D01*
X145846162Y-91402330D01*
X145856390Y-91403549D01*
X146092223Y-91412198D01*
X146102509Y-91411731D01*
X146336588Y-91381744D01*
X146346674Y-91379601D01*
X146572716Y-91311785D01*
X146582293Y-91308032D01*
X146770953Y-91215608D01*
X146781358Y-91206086D01*
X146779297Y-91199712D01*
X146042012Y-90462427D01*
X146028068Y-90454813D01*
X146026235Y-90454944D01*
X146019620Y-90459195D01*
X145286948Y-91191867D01*
X145280188Y-91204247D01*
X124460000Y-91204247D01*
X124460000Y-89879231D01*
X144526812Y-89879231D01*
X144540396Y-90114828D01*
X144541832Y-90125048D01*
X144593713Y-90355255D01*
X144596792Y-90365084D01*
X144685580Y-90583741D01*
X144690225Y-90592937D01*
X144725604Y-90650670D01*
X144736060Y-90660131D01*
X144744838Y-90656347D01*
X145477573Y-89923612D01*
X145483951Y-89911932D01*
X146573213Y-89911932D01*
X146573344Y-89913765D01*
X146577595Y-89920380D01*
X147312945Y-90655730D01*
X147325325Y-90662490D01*
X147330758Y-90658423D01*
X147424485Y-90468783D01*
X147428283Y-90459190D01*
X147496885Y-90233393D01*
X147499062Y-90223323D01*
X147530102Y-89987550D01*
X147530621Y-89980875D01*
X147532252Y-89914164D01*
X147532058Y-89907447D01*
X147512574Y-89670450D01*
X147510891Y-89660288D01*
X147453400Y-89431404D01*
X147450079Y-89421649D01*
X147355981Y-89205241D01*
X147351106Y-89196149D01*
X147334063Y-89169803D01*
X147323378Y-89160600D01*
X147313812Y-89165003D01*
X146580827Y-89897988D01*
X146573213Y-89911932D01*
X145483951Y-89911932D01*
X145485187Y-89909668D01*
X145485056Y-89907835D01*
X145480805Y-89901220D01*
X144745463Y-89165878D01*
X144733927Y-89159579D01*
X144722700Y-89168375D01*
X144720055Y-89173032D01*
X144620694Y-89387085D01*
X144617140Y-89396745D01*
X144554070Y-89624169D01*
X144552143Y-89634273D01*
X144527064Y-89868942D01*
X144526812Y-89879231D01*
X124460000Y-89879231D01*
X124460000Y-88617035D01*
X145278743Y-88617035D01*
X145281168Y-88623953D01*
X146016388Y-89359173D01*
X146030332Y-89366787D01*
X146032165Y-89366656D01*
X146038780Y-89362405D01*
X146771765Y-88629420D01*
X146778525Y-88617040D01*
X146773711Y-88610610D01*
X146649893Y-88542258D01*
X146640496Y-88538035D01*
X146418044Y-88459261D01*
X146408073Y-88456627D01*
X146175746Y-88415243D01*
X146165494Y-88414274D01*
X145929517Y-88411391D01*
X145919233Y-88412111D01*
X145685965Y-88447806D01*
X145675937Y-88450195D01*
X145451630Y-88523509D01*
X145442120Y-88527506D01*
X145288913Y-88607261D01*
X145278743Y-88617035D01*
X124460000Y-88617035D01*
X124460000Y-82073721D01*
X128902000Y-82073721D01*
X128902369Y-82080535D01*
X128907763Y-82130185D01*
X128911389Y-82145436D01*
X128955537Y-82263204D01*
X128964072Y-82278793D01*
X129038861Y-82378583D01*
X129051417Y-82391139D01*
X129151207Y-82465928D01*
X129166796Y-82474463D01*
X129284564Y-82518611D01*
X129299815Y-82522237D01*
X129349465Y-82527631D01*
X129356279Y-82528000D01*
X129600885Y-82528000D01*
X129616124Y-82523525D01*
X129617329Y-82522135D01*
X129619000Y-82514452D01*
X129619000Y-82509885D01*
X130381000Y-82509885D01*
X130385475Y-82525124D01*
X130386865Y-82526329D01*
X130394548Y-82528000D01*
X130643721Y-82528000D01*
X130650535Y-82527631D01*
X130700185Y-82522237D01*
X130715436Y-82518611D01*
X130833204Y-82474463D01*
X130848793Y-82465928D01*
X130948583Y-82391139D01*
X130961141Y-82378581D01*
X130975814Y-82359003D01*
X131032673Y-82316488D01*
X131103492Y-82311462D01*
X131165785Y-82345522D01*
X131184069Y-82368729D01*
X131191426Y-82380734D01*
X131356265Y-82573735D01*
X131549266Y-82738574D01*
X131765677Y-82871191D01*
X131770247Y-82873084D01*
X131770251Y-82873086D01*
X131995596Y-82966427D01*
X132000169Y-82968321D01*
X132085146Y-82988722D01*
X132242156Y-83026417D01*
X132242162Y-83026418D01*
X132246969Y-83027572D01*
X132500000Y-83047486D01*
X132753031Y-83027572D01*
X132757838Y-83026418D01*
X132757844Y-83026417D01*
X132914854Y-82988722D01*
X132999831Y-82968321D01*
X133004404Y-82966427D01*
X133229749Y-82873086D01*
X133229753Y-82873084D01*
X133234323Y-82871191D01*
X133450734Y-82738574D01*
X133643735Y-82573735D01*
X133808574Y-82380734D01*
X133941191Y-82164323D01*
X133949015Y-82145436D01*
X134036427Y-81934404D01*
X134036428Y-81934402D01*
X134038321Y-81929831D01*
X134097572Y-81683031D01*
X134112500Y-81493353D01*
X134112500Y-81066647D01*
X134097572Y-80876969D01*
X134038321Y-80630169D01*
X133978720Y-80486279D01*
X133943086Y-80400251D01*
X133943084Y-80400247D01*
X133941191Y-80395677D01*
X133808574Y-80179266D01*
X133643735Y-79986265D01*
X133450734Y-79821426D01*
X133234323Y-79688809D01*
X133229753Y-79686916D01*
X133229749Y-79686914D01*
X133004404Y-79593573D01*
X133004402Y-79593572D01*
X132999831Y-79591679D01*
X132914854Y-79571278D01*
X132757844Y-79533583D01*
X132757838Y-79533582D01*
X132753031Y-79532428D01*
X132500000Y-79512514D01*
X132246969Y-79532428D01*
X132242162Y-79533582D01*
X132242156Y-79533583D01*
X132085146Y-79571278D01*
X132000169Y-79591679D01*
X131995598Y-79593572D01*
X131995596Y-79593573D01*
X131770251Y-79686914D01*
X131770247Y-79686916D01*
X131765677Y-79688809D01*
X131549266Y-79821426D01*
X131356265Y-79986265D01*
X131191426Y-80179266D01*
X131184072Y-80191267D01*
X131131427Y-80238898D01*
X131061385Y-80250505D01*
X130996187Y-80222403D01*
X130975814Y-80200997D01*
X130961141Y-80181419D01*
X130948583Y-80168861D01*
X130848793Y-80094072D01*
X130833204Y-80085537D01*
X130715436Y-80041389D01*
X130700185Y-80037763D01*
X130650535Y-80032369D01*
X130643721Y-80032000D01*
X130399115Y-80032000D01*
X130383876Y-80036475D01*
X130382671Y-80037865D01*
X130381000Y-80045548D01*
X130381000Y-82509885D01*
X129619000Y-82509885D01*
X129619000Y-81679115D01*
X129614525Y-81663876D01*
X129613135Y-81662671D01*
X129605452Y-81661000D01*
X128920115Y-81661000D01*
X128904876Y-81665475D01*
X128903671Y-81666865D01*
X128902000Y-81674548D01*
X128902000Y-82073721D01*
X124460000Y-82073721D01*
X124460000Y-80880885D01*
X128902000Y-80880885D01*
X128906475Y-80896124D01*
X128907865Y-80897329D01*
X128915548Y-80899000D01*
X129600885Y-80899000D01*
X129616124Y-80894525D01*
X129617329Y-80893135D01*
X129619000Y-80885452D01*
X129619000Y-80050115D01*
X129614525Y-80034876D01*
X129613135Y-80033671D01*
X129605452Y-80032000D01*
X129356279Y-80032000D01*
X129349465Y-80032369D01*
X129299815Y-80037763D01*
X129284564Y-80041389D01*
X129166796Y-80085537D01*
X129151207Y-80094072D01*
X129051417Y-80168861D01*
X129038861Y-80181417D01*
X128964072Y-80281207D01*
X128955537Y-80296796D01*
X128911389Y-80414564D01*
X128907763Y-80429815D01*
X128902369Y-80479465D01*
X128902000Y-80486279D01*
X128902000Y-80880885D01*
X124460000Y-80880885D01*
X124460000Y-78358000D01*
X124480002Y-78289879D01*
X124533658Y-78243386D01*
X124586000Y-78232000D01*
X149734000Y-78232000D01*
X149802121Y-78252002D01*
G37*
G04 #@! TD.AperFunction*
G04 #@! TA.AperFunction,Conductor*
G36*
X99764121Y-74061002D02*
G01*
X99810614Y-74114658D01*
X99822000Y-74167000D01*
X99822000Y-84075000D01*
X99801998Y-84143121D01*
X99748342Y-84189614D01*
X99696000Y-84201000D01*
X83311000Y-84201000D01*
X83242879Y-84180998D01*
X83196386Y-84127342D01*
X83185000Y-84075000D01*
X83185000Y-74167000D01*
X83205002Y-74098879D01*
X83258658Y-74052386D01*
X83311000Y-74041000D01*
X99696000Y-74041000D01*
X99764121Y-74061002D01*
G37*
G04 #@! TD.AperFunction*
G04 #@! TA.AperFunction,Conductor*
G36*
X181044121Y-52344002D02*
G01*
X181090614Y-52397658D01*
X181102000Y-52450000D01*
X181102000Y-61088000D01*
X181081998Y-61156121D01*
X181028342Y-61202614D01*
X180976000Y-61214000D01*
X164591000Y-61214000D01*
X164522879Y-61193998D01*
X164476386Y-61140342D01*
X164465000Y-61088000D01*
X164465000Y-52450000D01*
X164485002Y-52381879D01*
X164538658Y-52335386D01*
X164591000Y-52324000D01*
X180976000Y-52324000D01*
X181044121Y-52344002D01*
G37*
G04 #@! TD.AperFunction*
G04 #@! TA.AperFunction,Conductor*
G36*
X82719398Y-51328002D02*
G01*
X82765891Y-51381658D01*
X82775995Y-51451932D01*
X82746501Y-51516512D01*
X82719397Y-51539998D01*
X82675778Y-51568030D01*
X82675772Y-51568034D01*
X82671990Y-51570465D01*
X82618334Y-51616958D01*
X82615393Y-51620352D01*
X82603803Y-51633727D01*
X82523645Y-51726234D01*
X82463579Y-51857760D01*
X82460580Y-51867975D01*
X82445336Y-51919891D01*
X82443577Y-51925881D01*
X82442937Y-51930329D01*
X82442936Y-51930336D01*
X82423639Y-52064552D01*
X82423638Y-52064559D01*
X82423000Y-52069000D01*
X82423000Y-61723000D01*
X82434609Y-61830980D01*
X82445995Y-61883322D01*
X82480293Y-61986372D01*
X82558465Y-62108010D01*
X82604958Y-62161666D01*
X82608352Y-62164607D01*
X82625456Y-62179428D01*
X82714234Y-62256355D01*
X82845760Y-62316421D01*
X82869514Y-62323396D01*
X82909558Y-62335154D01*
X82909562Y-62335155D01*
X82913881Y-62336423D01*
X82918329Y-62337063D01*
X82918336Y-62337064D01*
X83052552Y-62356361D01*
X83052559Y-62356362D01*
X83057000Y-62357000D01*
X90967486Y-62357000D01*
X91035607Y-62377002D01*
X91082100Y-62430658D01*
X91092204Y-62500932D01*
X91066638Y-62560749D01*
X91065937Y-62561643D01*
X91060561Y-62567019D01*
X90971728Y-62713701D01*
X90920447Y-62877338D01*
X90913700Y-62950765D01*
X90913700Y-62953663D01*
X90913701Y-63454831D01*
X90893699Y-63522952D01*
X90840044Y-63569445D01*
X90769770Y-63579549D01*
X90705189Y-63550056D01*
X90682329Y-63523916D01*
X90646590Y-63469404D01*
X90646586Y-63469399D01*
X90644024Y-63465491D01*
X90469982Y-63270494D01*
X90269030Y-63103363D01*
X90198198Y-63060381D01*
X90049578Y-62970196D01*
X90049574Y-62970194D01*
X90045581Y-62967771D01*
X89804545Y-62866697D01*
X89551217Y-62802359D01*
X89546566Y-62801891D01*
X89546562Y-62801890D01*
X89337271Y-62780816D01*
X89334133Y-62780500D01*
X84678646Y-62780500D01*
X84676321Y-62780673D01*
X84676315Y-62780673D01*
X84489000Y-62794593D01*
X84488996Y-62794594D01*
X84484348Y-62794939D01*
X84479800Y-62795968D01*
X84479794Y-62795969D01*
X84314031Y-62833478D01*
X84229423Y-62852623D01*
X84225071Y-62854315D01*
X84225069Y-62854316D01*
X83990176Y-62945660D01*
X83990173Y-62945661D01*
X83985823Y-62947353D01*
X83981769Y-62949670D01*
X83981767Y-62949671D01*
X83953264Y-62965962D01*
X83758902Y-63077049D01*
X83553643Y-63238862D01*
X83374557Y-63429237D01*
X83225576Y-63643991D01*
X83109975Y-63878407D01*
X83108553Y-63882850D01*
X83108552Y-63882852D01*
X83080964Y-63969039D01*
X83030293Y-64127335D01*
X82988279Y-64385307D01*
X82984858Y-64646655D01*
X83020104Y-64905638D01*
X83021412Y-64910124D01*
X83021412Y-64910126D01*
X83041098Y-64977664D01*
X83093243Y-65156567D01*
X83202668Y-65393928D01*
X83205231Y-65397837D01*
X83343410Y-65608596D01*
X83343414Y-65608601D01*
X83345976Y-65612509D01*
X83520018Y-65807506D01*
X83720970Y-65974637D01*
X83724973Y-65977066D01*
X83940422Y-66107804D01*
X83940426Y-66107806D01*
X83944419Y-66110229D01*
X84185455Y-66211303D01*
X84438783Y-66275641D01*
X84443434Y-66276109D01*
X84443438Y-66276110D01*
X84616083Y-66293494D01*
X84655867Y-66297500D01*
X89311354Y-66297500D01*
X89313679Y-66297327D01*
X89313685Y-66297327D01*
X89501000Y-66283407D01*
X89501004Y-66283406D01*
X89505652Y-66283061D01*
X89510200Y-66282032D01*
X89510206Y-66282031D01*
X89696601Y-66239853D01*
X89760577Y-66225377D01*
X89796769Y-66211303D01*
X89999824Y-66132340D01*
X89999827Y-66132339D01*
X90004177Y-66130647D01*
X90231098Y-66000951D01*
X90436357Y-65839138D01*
X90615443Y-65648763D01*
X90738335Y-65471616D01*
X90761759Y-65437851D01*
X90761761Y-65437848D01*
X90764424Y-65434009D01*
X90786284Y-65389682D01*
X90877960Y-65203781D01*
X90877961Y-65203778D01*
X90880025Y-65199593D01*
X90959707Y-64950665D01*
X91001721Y-64692693D01*
X91005142Y-64431345D01*
X90969896Y-64172362D01*
X90936643Y-64058276D01*
X90936783Y-63987281D01*
X90975285Y-63927631D01*
X91039924Y-63898266D01*
X91110178Y-63908509D01*
X91146704Y-63933924D01*
X91181819Y-63969039D01*
X91328501Y-64057872D01*
X91335748Y-64060143D01*
X91335750Y-64060144D01*
X91386574Y-64076071D01*
X91492138Y-64109153D01*
X91565565Y-64115900D01*
X91568463Y-64115900D01*
X91898060Y-64115899D01*
X92228834Y-64115899D01*
X92231692Y-64115636D01*
X92231701Y-64115636D01*
X92267204Y-64112374D01*
X92302262Y-64109153D01*
X92308647Y-64107152D01*
X92458650Y-64060144D01*
X92458652Y-64060143D01*
X92465899Y-64057872D01*
X92582460Y-63987281D01*
X92606081Y-63972976D01*
X92606084Y-63972974D01*
X92612581Y-63969039D01*
X92613441Y-63968179D01*
X92676858Y-63942893D01*
X92746553Y-63956426D01*
X92777677Y-63979165D01*
X92875547Y-64076864D01*
X93019908Y-64165849D01*
X93026856Y-64168154D01*
X93026857Y-64168154D01*
X93174338Y-64217072D01*
X93174340Y-64217072D01*
X93180869Y-64219238D01*
X93281028Y-64229500D01*
X93815172Y-64229500D01*
X93818418Y-64229163D01*
X93818422Y-64229163D01*
X93852203Y-64225658D01*
X93916582Y-64218978D01*
X94077449Y-64165308D01*
X94221655Y-64076071D01*
X94341464Y-63956053D01*
X94355105Y-63933924D01*
X94377084Y-63898266D01*
X94430449Y-63811692D01*
X94432754Y-63804743D01*
X94481672Y-63657262D01*
X94481672Y-63657260D01*
X94483838Y-63650731D01*
X94494100Y-63550572D01*
X94494100Y-62941428D01*
X94483578Y-62840018D01*
X94429908Y-62679151D01*
X94349556Y-62549303D01*
X94330719Y-62480851D01*
X94351880Y-62413081D01*
X94406321Y-62367510D01*
X94456701Y-62357000D01*
X99442000Y-62357000D01*
X99549980Y-62345391D01*
X99553264Y-62344677D01*
X99553268Y-62344676D01*
X99578339Y-62339222D01*
X99602322Y-62334005D01*
X99705372Y-62299707D01*
X99827010Y-62221535D01*
X99880666Y-62175042D01*
X99892257Y-62161666D01*
X99963654Y-62079269D01*
X99975355Y-62065766D01*
X100035421Y-61934240D01*
X100055423Y-61866119D01*
X100057669Y-61850500D01*
X100075361Y-61727448D01*
X100075362Y-61727441D01*
X100076000Y-61723000D01*
X100076000Y-52069000D01*
X100064391Y-51961020D01*
X100062313Y-51951465D01*
X100055444Y-51919891D01*
X100053005Y-51908678D01*
X100018707Y-51805628D01*
X99940535Y-51683990D01*
X99894042Y-51630334D01*
X99875213Y-51614018D01*
X99791576Y-51541546D01*
X99784766Y-51535645D01*
X99785081Y-51535282D01*
X99742674Y-51486341D01*
X99732571Y-51416067D01*
X99762065Y-51351486D01*
X99821791Y-51313103D01*
X99857288Y-51308000D01*
X109551100Y-51308000D01*
X109619221Y-51328002D01*
X109665714Y-51381658D01*
X109675818Y-51451932D01*
X109646324Y-51516512D01*
X109574645Y-51599234D01*
X109514579Y-51730760D01*
X109510040Y-51746218D01*
X109500294Y-51779412D01*
X109494577Y-51798881D01*
X109493937Y-51803329D01*
X109493936Y-51803336D01*
X109474639Y-51937552D01*
X109474638Y-51937559D01*
X109474000Y-51942000D01*
X109474000Y-72645000D01*
X109485609Y-72752980D01*
X109496995Y-72805322D01*
X109531293Y-72908372D01*
X109609465Y-73030010D01*
X109655958Y-73083666D01*
X109659352Y-73086607D01*
X109682786Y-73106913D01*
X109765234Y-73178355D01*
X109896760Y-73238421D01*
X109920514Y-73245396D01*
X109960558Y-73257154D01*
X109960562Y-73257155D01*
X109964881Y-73258423D01*
X109969329Y-73259063D01*
X109969336Y-73259064D01*
X110103552Y-73278361D01*
X110103559Y-73278362D01*
X110108000Y-73279000D01*
X114813759Y-73279000D01*
X114881880Y-73299002D01*
X114928373Y-73352658D01*
X114938477Y-73422932D01*
X114921020Y-73471114D01*
X114840151Y-73602308D01*
X114837846Y-73609256D01*
X114837846Y-73609257D01*
X114798350Y-73728334D01*
X114786762Y-73763269D01*
X114776500Y-73863428D01*
X114776500Y-74472572D01*
X114776837Y-74475818D01*
X114776837Y-74475822D01*
X114780342Y-74509603D01*
X114787022Y-74573982D01*
X114840692Y-74734849D01*
X114929929Y-74879055D01*
X115049947Y-74998864D01*
X115194308Y-75087849D01*
X115201256Y-75090154D01*
X115201257Y-75090154D01*
X115348738Y-75139072D01*
X115348740Y-75139072D01*
X115355269Y-75141238D01*
X115455428Y-75151500D01*
X115989572Y-75151500D01*
X115992818Y-75151163D01*
X115992822Y-75151163D01*
X116026603Y-75147658D01*
X116090982Y-75140978D01*
X116251849Y-75087308D01*
X116396055Y-74998071D01*
X116515864Y-74878053D01*
X116526139Y-74861384D01*
X116578912Y-74813890D01*
X116633399Y-74801500D01*
X116824233Y-74801500D01*
X116835416Y-74802027D01*
X116842909Y-74803702D01*
X116850835Y-74803453D01*
X116850836Y-74803453D01*
X116910986Y-74801562D01*
X116914945Y-74801500D01*
X116942856Y-74801500D01*
X116946791Y-74801003D01*
X116946856Y-74800995D01*
X116958693Y-74800062D01*
X116990951Y-74799048D01*
X116994970Y-74798922D01*
X117002889Y-74798673D01*
X117022343Y-74793021D01*
X117041700Y-74789013D01*
X117053930Y-74787468D01*
X117053931Y-74787468D01*
X117061797Y-74786474D01*
X117069168Y-74783555D01*
X117069170Y-74783555D01*
X117102912Y-74770196D01*
X117114142Y-74766351D01*
X117148983Y-74756229D01*
X117148984Y-74756229D01*
X117156593Y-74754018D01*
X117163412Y-74749985D01*
X117163417Y-74749983D01*
X117174028Y-74743707D01*
X117191776Y-74735012D01*
X117210617Y-74727552D01*
X117246387Y-74701564D01*
X117256307Y-74695048D01*
X117287535Y-74676580D01*
X117287538Y-74676578D01*
X117294362Y-74672542D01*
X117299972Y-74666932D01*
X117306228Y-74662079D01*
X117307375Y-74663558D01*
X117360811Y-74634379D01*
X117387594Y-74631500D01*
X117659646Y-74631499D01*
X117679634Y-74631499D01*
X117682492Y-74631236D01*
X117682501Y-74631236D01*
X117718004Y-74627974D01*
X117753062Y-74624753D01*
X117759441Y-74622754D01*
X117909450Y-74575744D01*
X117909452Y-74575743D01*
X117916699Y-74573472D01*
X118063381Y-74484639D01*
X118184639Y-74363381D01*
X118273472Y-74216699D01*
X118324753Y-74053062D01*
X118331500Y-73979635D01*
X118331499Y-73466366D01*
X118330032Y-73450392D01*
X118328181Y-73430252D01*
X118326920Y-73416527D01*
X118340606Y-73346863D01*
X118389783Y-73295656D01*
X118452392Y-73279000D01*
X118746000Y-73279000D01*
X118853980Y-73267391D01*
X118857264Y-73266677D01*
X118857268Y-73266676D01*
X118883461Y-73260978D01*
X118906322Y-73256005D01*
X119009372Y-73221707D01*
X119131010Y-73143535D01*
X119184666Y-73097042D01*
X119196257Y-73083666D01*
X119229335Y-73045492D01*
X119279355Y-72987766D01*
X119339421Y-72856240D01*
X119353430Y-72808530D01*
X119358154Y-72792442D01*
X119358155Y-72792438D01*
X119359423Y-72788119D01*
X119360064Y-72783664D01*
X119379361Y-72649448D01*
X119379362Y-72649441D01*
X119380000Y-72645000D01*
X119380000Y-58069354D01*
X122343500Y-58069354D01*
X122343673Y-58071679D01*
X122343673Y-58071685D01*
X122348840Y-58141206D01*
X122357939Y-58263652D01*
X122358968Y-58268200D01*
X122358969Y-58268206D01*
X122387871Y-58395931D01*
X122415623Y-58518577D01*
X122510353Y-58762177D01*
X122640049Y-58989098D01*
X122801862Y-59194357D01*
X122992237Y-59373443D01*
X123059765Y-59420289D01*
X123192611Y-59512448D01*
X123206991Y-59522424D01*
X123211181Y-59524490D01*
X123211184Y-59524492D01*
X123437219Y-59635960D01*
X123437222Y-59635961D01*
X123441407Y-59638025D01*
X123445850Y-59639447D01*
X123445852Y-59639448D01*
X123685877Y-59716280D01*
X123690335Y-59717707D01*
X123948307Y-59759721D01*
X124062058Y-59761210D01*
X124204978Y-59763081D01*
X124204981Y-59763081D01*
X124209655Y-59763142D01*
X124468638Y-59727896D01*
X124719567Y-59654757D01*
X124755862Y-59638025D01*
X124836400Y-59600896D01*
X124956928Y-59545332D01*
X125012405Y-59508960D01*
X125171596Y-59404590D01*
X125171601Y-59404586D01*
X125175509Y-59402024D01*
X125370506Y-59227982D01*
X125537637Y-59027030D01*
X125612520Y-58903627D01*
X125670804Y-58807578D01*
X125670806Y-58807574D01*
X125673229Y-58803581D01*
X125774303Y-58562545D01*
X125838641Y-58309217D01*
X125850973Y-58186752D01*
X125860184Y-58095271D01*
X125860500Y-58092133D01*
X125860500Y-57942354D01*
X137283500Y-57942354D01*
X137283673Y-57944679D01*
X137283673Y-57944685D01*
X137294631Y-58092133D01*
X137297939Y-58136652D01*
X137298968Y-58141200D01*
X137298969Y-58141206D01*
X137325624Y-58259000D01*
X137355623Y-58391577D01*
X137357315Y-58395929D01*
X137357316Y-58395931D01*
X137420349Y-58558020D01*
X137450353Y-58635177D01*
X137580049Y-58862098D01*
X137741862Y-59067357D01*
X137932237Y-59246443D01*
X138084563Y-59352116D01*
X138119152Y-59376111D01*
X138146991Y-59395424D01*
X138151181Y-59397490D01*
X138151184Y-59397492D01*
X138377219Y-59508960D01*
X138377222Y-59508961D01*
X138381407Y-59511025D01*
X138385850Y-59512447D01*
X138385852Y-59512448D01*
X138494696Y-59547289D01*
X138630335Y-59590707D01*
X138888307Y-59632721D01*
X139002058Y-59634210D01*
X139144978Y-59636081D01*
X139144981Y-59636081D01*
X139149655Y-59636142D01*
X139408638Y-59600896D01*
X139659567Y-59527757D01*
X139666650Y-59524492D01*
X139714112Y-59502611D01*
X139896928Y-59418332D01*
X139970285Y-59370237D01*
X140111596Y-59277590D01*
X140111601Y-59277586D01*
X140115509Y-59275024D01*
X140310506Y-59100982D01*
X140477637Y-58900030D01*
X140536164Y-58803581D01*
X140610804Y-58680578D01*
X140610806Y-58680574D01*
X140613229Y-58676581D01*
X140714303Y-58435545D01*
X140778641Y-58182217D01*
X140788030Y-58088979D01*
X140800184Y-57968271D01*
X140800500Y-57965133D01*
X140800500Y-53309646D01*
X140795499Y-53242348D01*
X140786407Y-53120000D01*
X140786406Y-53119996D01*
X140786061Y-53115348D01*
X140774725Y-53065248D01*
X140729408Y-52864980D01*
X140728377Y-52860423D01*
X140633647Y-52616823D01*
X140503951Y-52389902D01*
X140342138Y-52184643D01*
X140151763Y-52005557D01*
X139967250Y-51877555D01*
X139940851Y-51859241D01*
X139940848Y-51859239D01*
X139937009Y-51856576D01*
X139932816Y-51854508D01*
X139706781Y-51743040D01*
X139706778Y-51743039D01*
X139702593Y-51740975D01*
X139670682Y-51730760D01*
X139458123Y-51662720D01*
X139453665Y-51661293D01*
X139195693Y-51619279D01*
X139081942Y-51617790D01*
X138939022Y-51615919D01*
X138939019Y-51615919D01*
X138934345Y-51615858D01*
X138675362Y-51651104D01*
X138424433Y-51724243D01*
X138420180Y-51726203D01*
X138420179Y-51726204D01*
X138384054Y-51742858D01*
X138187072Y-51833668D01*
X138152127Y-51856579D01*
X137972404Y-51974410D01*
X137972399Y-51974414D01*
X137968491Y-51976976D01*
X137773494Y-52151018D01*
X137606363Y-52351970D01*
X137603934Y-52355973D01*
X137508506Y-52513234D01*
X137470771Y-52575419D01*
X137369697Y-52816455D01*
X137305359Y-53069783D01*
X137304891Y-53074434D01*
X137304890Y-53074438D01*
X137292571Y-53196783D01*
X137283500Y-53286867D01*
X137283500Y-57942354D01*
X125860500Y-57942354D01*
X125860500Y-53436646D01*
X125858574Y-53410729D01*
X125846407Y-53247000D01*
X125846406Y-53246996D01*
X125846061Y-53242348D01*
X125834725Y-53192248D01*
X125789408Y-52991980D01*
X125788377Y-52987423D01*
X125737297Y-52856069D01*
X125695340Y-52748176D01*
X125695339Y-52748173D01*
X125693647Y-52743823D01*
X125563951Y-52516902D01*
X125402138Y-52311643D01*
X125211763Y-52132557D01*
X125033316Y-52008763D01*
X125000851Y-51986241D01*
X125000848Y-51986239D01*
X124997009Y-51983576D01*
X124992816Y-51981508D01*
X124766781Y-51870040D01*
X124766778Y-51870039D01*
X124762593Y-51867975D01*
X124732831Y-51858448D01*
X124518123Y-51789720D01*
X124513665Y-51788293D01*
X124255693Y-51746279D01*
X124141942Y-51744790D01*
X123999022Y-51742919D01*
X123999019Y-51742919D01*
X123994345Y-51742858D01*
X123735362Y-51778104D01*
X123730876Y-51779412D01*
X123730874Y-51779412D01*
X123702988Y-51787540D01*
X123484433Y-51851243D01*
X123480180Y-51853203D01*
X123480179Y-51853204D01*
X123443659Y-51870040D01*
X123247072Y-51960668D01*
X123210586Y-51984589D01*
X123032404Y-52101410D01*
X123032399Y-52101414D01*
X123028491Y-52103976D01*
X122833494Y-52278018D01*
X122666363Y-52478970D01*
X122663934Y-52482973D01*
X122605219Y-52579733D01*
X122530771Y-52702419D01*
X122429697Y-52943455D01*
X122365359Y-53196783D01*
X122364891Y-53201434D01*
X122364890Y-53201438D01*
X122354229Y-53307315D01*
X122343500Y-53413867D01*
X122343500Y-58069354D01*
X119380000Y-58069354D01*
X119380000Y-51942000D01*
X119368391Y-51834020D01*
X119366997Y-51827609D01*
X119358754Y-51789720D01*
X119357005Y-51781678D01*
X119330338Y-51701556D01*
X119325197Y-51686109D01*
X119325197Y-51686108D01*
X119322707Y-51678628D01*
X119244535Y-51556990D01*
X119235952Y-51547084D01*
X119209461Y-51516512D01*
X119179968Y-51451931D01*
X119190073Y-51381657D01*
X119236566Y-51328002D01*
X119304686Y-51308000D01*
X143968100Y-51308000D01*
X144036221Y-51328002D01*
X144082714Y-51381658D01*
X144092818Y-51451932D01*
X144063324Y-51516512D01*
X143991645Y-51599234D01*
X143931579Y-51730760D01*
X143927040Y-51746218D01*
X143917294Y-51779412D01*
X143911577Y-51798881D01*
X143910937Y-51803329D01*
X143910936Y-51803336D01*
X143891639Y-51937552D01*
X143891638Y-51937559D01*
X143891000Y-51942000D01*
X143891000Y-72645000D01*
X143902609Y-72752980D01*
X143913995Y-72805322D01*
X143917386Y-72815511D01*
X143919920Y-72886459D01*
X143883694Y-72947518D01*
X143820207Y-72979298D01*
X143797834Y-72981300D01*
X143471628Y-72981300D01*
X143468382Y-72981637D01*
X143468378Y-72981637D01*
X143434597Y-72985142D01*
X143370218Y-72991822D01*
X143209351Y-73045492D01*
X143065145Y-73134729D01*
X142945336Y-73254747D01*
X142856351Y-73399108D01*
X142854046Y-73406056D01*
X142854046Y-73406057D01*
X142811729Y-73533639D01*
X142802962Y-73560069D01*
X142792700Y-73660228D01*
X142792700Y-74269372D01*
X142803222Y-74370782D01*
X142856892Y-74531649D01*
X142946129Y-74675855D01*
X143066147Y-74795664D01*
X143072377Y-74799504D01*
X143072378Y-74799505D01*
X143078783Y-74803453D01*
X143210508Y-74884649D01*
X143217456Y-74886954D01*
X143217457Y-74886954D01*
X143364938Y-74935872D01*
X143364940Y-74935872D01*
X143371469Y-74938038D01*
X143471628Y-74948300D01*
X144005772Y-74948300D01*
X144009018Y-74947963D01*
X144009022Y-74947963D01*
X144042803Y-74944458D01*
X144107182Y-74937778D01*
X144268049Y-74884108D01*
X144412255Y-74794871D01*
X144532064Y-74674853D01*
X144542339Y-74658184D01*
X144595112Y-74610690D01*
X144649599Y-74598300D01*
X144692036Y-74598300D01*
X144757305Y-74616523D01*
X144763601Y-74620336D01*
X144763604Y-74620338D01*
X144770101Y-74624272D01*
X144777348Y-74626543D01*
X144777350Y-74626544D01*
X144802352Y-74634379D01*
X144933738Y-74675553D01*
X145007165Y-74682300D01*
X145010063Y-74682300D01*
X145339660Y-74682299D01*
X145670434Y-74682299D01*
X145673292Y-74682036D01*
X145673301Y-74682036D01*
X145708804Y-74678774D01*
X145743862Y-74675553D01*
X145753470Y-74672542D01*
X145900250Y-74626544D01*
X145900252Y-74626543D01*
X145907499Y-74624272D01*
X146054181Y-74535439D01*
X146175439Y-74414181D01*
X146264272Y-74267499D01*
X146315553Y-74103862D01*
X146322300Y-74030435D01*
X146322299Y-73517166D01*
X146315553Y-73443738D01*
X146313554Y-73437358D01*
X146312241Y-73430804D01*
X146314999Y-73430252D01*
X146313933Y-73371708D01*
X146351223Y-73311293D01*
X146415257Y-73280629D01*
X146435455Y-73279000D01*
X153163000Y-73279000D01*
X153270980Y-73267391D01*
X153274264Y-73266677D01*
X153274268Y-73266676D01*
X153300461Y-73260978D01*
X153323322Y-73256005D01*
X153426372Y-73221707D01*
X153548010Y-73143535D01*
X153601666Y-73097042D01*
X153613257Y-73083666D01*
X153646335Y-73045492D01*
X153696355Y-72987766D01*
X153756421Y-72856240D01*
X153770430Y-72808530D01*
X153775154Y-72792442D01*
X153775155Y-72792438D01*
X153776423Y-72788119D01*
X153777064Y-72783664D01*
X153796361Y-72649448D01*
X153796362Y-72649441D01*
X153797000Y-72645000D01*
X153797000Y-67988434D01*
X163686661Y-67988434D01*
X163704792Y-68346340D01*
X163705329Y-68349695D01*
X163705330Y-68349701D01*
X163710316Y-68380828D01*
X163761470Y-68700195D01*
X163856033Y-69045859D01*
X163987374Y-69379288D01*
X164153957Y-69696582D01*
X164155858Y-69699411D01*
X164155864Y-69699421D01*
X164339569Y-69972800D01*
X164353834Y-69994029D01*
X164584665Y-70268150D01*
X164843751Y-70515738D01*
X165128061Y-70733897D01*
X165160056Y-70753350D01*
X165431355Y-70918303D01*
X165431360Y-70918306D01*
X165434270Y-70920075D01*
X165437358Y-70921521D01*
X165437357Y-70921521D01*
X165755710Y-71070649D01*
X165755720Y-71070653D01*
X165758794Y-71072093D01*
X165762012Y-71073195D01*
X165762015Y-71073196D01*
X166094615Y-71187071D01*
X166094623Y-71187073D01*
X166097838Y-71188174D01*
X166447435Y-71266959D01*
X166499728Y-71272917D01*
X166800114Y-71307142D01*
X166800122Y-71307142D01*
X166803497Y-71307527D01*
X166806901Y-71307545D01*
X166806904Y-71307545D01*
X167001227Y-71308562D01*
X167161857Y-71309403D01*
X167165243Y-71309053D01*
X167165245Y-71309053D01*
X167514932Y-71272917D01*
X167514941Y-71272916D01*
X167518324Y-71272566D01*
X167521657Y-71271852D01*
X167521660Y-71271851D01*
X167694186Y-71234864D01*
X167868727Y-71197446D01*
X168208968Y-71084922D01*
X168535066Y-70936311D01*
X168629052Y-70880506D01*
X168840262Y-70755099D01*
X168840267Y-70755096D01*
X168843207Y-70753350D01*
X169129786Y-70538180D01*
X169391451Y-70293319D01*
X169625140Y-70021630D01*
X169731750Y-69866512D01*
X169826190Y-69729101D01*
X169826195Y-69729094D01*
X169828120Y-69726292D01*
X169829732Y-69723298D01*
X169829737Y-69723290D01*
X169996395Y-69413772D01*
X169998017Y-69410760D01*
X170132842Y-69078724D01*
X170143142Y-69042568D01*
X170163527Y-68971006D01*
X170231020Y-68734070D01*
X170291401Y-68380828D01*
X170293511Y-68346340D01*
X170313168Y-68024928D01*
X170313278Y-68023131D01*
X170313359Y-68000000D01*
X170293979Y-67642159D01*
X170236066Y-67288505D01*
X170140297Y-66943173D01*
X170137243Y-66935497D01*
X170009052Y-66613369D01*
X170007793Y-66610205D01*
X169977768Y-66553498D01*
X169841702Y-66296513D01*
X169841698Y-66296506D01*
X169840103Y-66293494D01*
X169639190Y-65996746D01*
X169620441Y-65974637D01*
X169543506Y-65883919D01*
X169407403Y-65723432D01*
X169147454Y-65476750D01*
X168862384Y-65259585D01*
X168859472Y-65257828D01*
X168859467Y-65257825D01*
X168558443Y-65076236D01*
X168558437Y-65076233D01*
X168555528Y-65074478D01*
X168298400Y-64955123D01*
X168233571Y-64925030D01*
X168233569Y-64925029D01*
X168230475Y-64923593D01*
X168060752Y-64866145D01*
X167894255Y-64809789D01*
X167894250Y-64809788D01*
X167891028Y-64808697D01*
X167692681Y-64764724D01*
X167544493Y-64731871D01*
X167544487Y-64731870D01*
X167541158Y-64731132D01*
X167537769Y-64730758D01*
X167537764Y-64730757D01*
X167188338Y-64692180D01*
X167188333Y-64692180D01*
X167184957Y-64691807D01*
X167181558Y-64691801D01*
X167181557Y-64691801D01*
X167012080Y-64691505D01*
X166826592Y-64691182D01*
X166713413Y-64703277D01*
X166473639Y-64728901D01*
X166473631Y-64728902D01*
X166470256Y-64729263D01*
X166120117Y-64805606D01*
X165780271Y-64919317D01*
X165777178Y-64920739D01*
X165777177Y-64920740D01*
X165770974Y-64923593D01*
X165454694Y-65069066D01*
X165451760Y-65070822D01*
X165451758Y-65070823D01*
X165236599Y-65199593D01*
X165147193Y-65253101D01*
X165144467Y-65255163D01*
X165144465Y-65255164D01*
X164960987Y-65393928D01*
X164861367Y-65469270D01*
X164600559Y-65715043D01*
X164367819Y-65987546D01*
X164365900Y-65990358D01*
X164365897Y-65990363D01*
X164285785Y-66107804D01*
X164165871Y-66283591D01*
X163997077Y-66599714D01*
X163863411Y-66932218D01*
X163862491Y-66935492D01*
X163862489Y-66935497D01*
X163860332Y-66943173D01*
X163766437Y-67277213D01*
X163707290Y-67630663D01*
X163686661Y-67988434D01*
X153797000Y-67988434D01*
X153797000Y-64646655D01*
X173027858Y-64646655D01*
X173063104Y-64905638D01*
X173064412Y-64910124D01*
X173064412Y-64910126D01*
X173084098Y-64977664D01*
X173136243Y-65156567D01*
X173245668Y-65393928D01*
X173248231Y-65397837D01*
X173386410Y-65608596D01*
X173386414Y-65608601D01*
X173388976Y-65612509D01*
X173563018Y-65807506D01*
X173763970Y-65974637D01*
X173767973Y-65977066D01*
X173983422Y-66107804D01*
X173983426Y-66107806D01*
X173987419Y-66110229D01*
X174228455Y-66211303D01*
X174481783Y-66275641D01*
X174486434Y-66276109D01*
X174486438Y-66276110D01*
X174659083Y-66293494D01*
X174698867Y-66297500D01*
X179354354Y-66297500D01*
X179356679Y-66297327D01*
X179356685Y-66297327D01*
X179544000Y-66283407D01*
X179544004Y-66283406D01*
X179548652Y-66283061D01*
X179553200Y-66282032D01*
X179553206Y-66282031D01*
X179739601Y-66239853D01*
X179803577Y-66225377D01*
X179839769Y-66211303D01*
X180042824Y-66132340D01*
X180042827Y-66132339D01*
X180047177Y-66130647D01*
X180274098Y-66000951D01*
X180479357Y-65839138D01*
X180658443Y-65648763D01*
X180781335Y-65471616D01*
X180804759Y-65437851D01*
X180804761Y-65437848D01*
X180807424Y-65434009D01*
X180829284Y-65389682D01*
X180920960Y-65203781D01*
X180920961Y-65203778D01*
X180923025Y-65199593D01*
X181002707Y-64950665D01*
X181044721Y-64692693D01*
X181048142Y-64431345D01*
X181012896Y-64172362D01*
X180998473Y-64122877D01*
X180983554Y-64071693D01*
X180939757Y-63921433D01*
X180830332Y-63684072D01*
X180742806Y-63550572D01*
X180689590Y-63469404D01*
X180689586Y-63469399D01*
X180687024Y-63465491D01*
X180512982Y-63270494D01*
X180312030Y-63103363D01*
X180241198Y-63060381D01*
X180092578Y-62970196D01*
X180092574Y-62970194D01*
X180088581Y-62967771D01*
X179847545Y-62866697D01*
X179594217Y-62802359D01*
X179589566Y-62801891D01*
X179589562Y-62801890D01*
X179380271Y-62780816D01*
X179377133Y-62780500D01*
X174721646Y-62780500D01*
X174719321Y-62780673D01*
X174719315Y-62780673D01*
X174532000Y-62794593D01*
X174531996Y-62794594D01*
X174527348Y-62794939D01*
X174522800Y-62795968D01*
X174522794Y-62795969D01*
X174357031Y-62833478D01*
X174272423Y-62852623D01*
X174268071Y-62854315D01*
X174268069Y-62854316D01*
X174033176Y-62945660D01*
X174033173Y-62945661D01*
X174028823Y-62947353D01*
X174024769Y-62949670D01*
X174024767Y-62949671D01*
X173996264Y-62965962D01*
X173801902Y-63077049D01*
X173596643Y-63238862D01*
X173417557Y-63429237D01*
X173268576Y-63643991D01*
X173152975Y-63878407D01*
X173151553Y-63882850D01*
X173151552Y-63882852D01*
X173123964Y-63969039D01*
X173073293Y-64127335D01*
X173031279Y-64385307D01*
X173027858Y-64646655D01*
X153797000Y-64646655D01*
X153797000Y-61088000D01*
X163957000Y-61088000D01*
X163968609Y-61195980D01*
X163979995Y-61248322D01*
X164014293Y-61351372D01*
X164092465Y-61473010D01*
X164138958Y-61526666D01*
X164142352Y-61529607D01*
X164165786Y-61549913D01*
X164248234Y-61621355D01*
X164379760Y-61681421D01*
X164403514Y-61688396D01*
X164443558Y-61700154D01*
X164443562Y-61700155D01*
X164447881Y-61701423D01*
X164452329Y-61702063D01*
X164452336Y-61702064D01*
X164586552Y-61721361D01*
X164586559Y-61721362D01*
X164591000Y-61722000D01*
X168938975Y-61722000D01*
X169007096Y-61742002D01*
X169053589Y-61795658D01*
X169063693Y-61865932D01*
X169049552Y-61904960D01*
X169050586Y-61905442D01*
X169047493Y-61912076D01*
X169043651Y-61918308D01*
X169041346Y-61925256D01*
X169041346Y-61925257D01*
X168992482Y-62072577D01*
X168990262Y-62079269D01*
X168980000Y-62179428D01*
X168980000Y-62788572D01*
X168980337Y-62791818D01*
X168980337Y-62791822D01*
X168980767Y-62795969D01*
X168990522Y-62889982D01*
X169044192Y-63050849D01*
X169133429Y-63195055D01*
X169253447Y-63314864D01*
X169397808Y-63403849D01*
X169404756Y-63406154D01*
X169404757Y-63406154D01*
X169552238Y-63455072D01*
X169552240Y-63455072D01*
X169558769Y-63457238D01*
X169658928Y-63467500D01*
X170193072Y-63467500D01*
X170196318Y-63467163D01*
X170196322Y-63467163D01*
X170230103Y-63463658D01*
X170294482Y-63456978D01*
X170455349Y-63403308D01*
X170599555Y-63314071D01*
X170719364Y-63194053D01*
X170729639Y-63177384D01*
X170782412Y-63129890D01*
X170836899Y-63117500D01*
X170872290Y-63117500D01*
X170940411Y-63137502D01*
X170961385Y-63154405D01*
X170988619Y-63181639D01*
X171135301Y-63270472D01*
X171142548Y-63272743D01*
X171142550Y-63272744D01*
X171208836Y-63293517D01*
X171298938Y-63321753D01*
X171372365Y-63328500D01*
X171375263Y-63328500D01*
X171704860Y-63328499D01*
X172035634Y-63328499D01*
X172038492Y-63328236D01*
X172038501Y-63328236D01*
X172074004Y-63324974D01*
X172109062Y-63321753D01*
X172133575Y-63314071D01*
X172265450Y-63272744D01*
X172265452Y-63272743D01*
X172272699Y-63270472D01*
X172419381Y-63181639D01*
X172540639Y-63060381D01*
X172629472Y-62913699D01*
X172636905Y-62889982D01*
X172664511Y-62801890D01*
X172680753Y-62750062D01*
X172687500Y-62676635D01*
X172687499Y-62163366D01*
X172680753Y-62089938D01*
X172645953Y-61978891D01*
X172631744Y-61933550D01*
X172631743Y-61933548D01*
X172629472Y-61926301D01*
X172621580Y-61913269D01*
X172603402Y-61844640D01*
X172625213Y-61777077D01*
X172680090Y-61732031D01*
X172729357Y-61722000D01*
X180976000Y-61722000D01*
X180998017Y-61719633D01*
X181008518Y-61718504D01*
X181083980Y-61710391D01*
X181087264Y-61709677D01*
X181087268Y-61709676D01*
X181112339Y-61704222D01*
X181136322Y-61699005D01*
X181239372Y-61664707D01*
X181361010Y-61586535D01*
X181414666Y-61540042D01*
X181426257Y-61526666D01*
X181503453Y-61437577D01*
X181509355Y-61430766D01*
X181569421Y-61299240D01*
X181589423Y-61231119D01*
X181590064Y-61226664D01*
X181609361Y-61092448D01*
X181609362Y-61092441D01*
X181610000Y-61088000D01*
X181610000Y-52450000D01*
X181598391Y-52342020D01*
X181587005Y-52289678D01*
X181552707Y-52186628D01*
X181474535Y-52064990D01*
X181428042Y-52011334D01*
X181409213Y-51995018D01*
X181388391Y-51976976D01*
X181318766Y-51916645D01*
X181187240Y-51856579D01*
X181163486Y-51849604D01*
X181123442Y-51837846D01*
X181123438Y-51837845D01*
X181119119Y-51836577D01*
X181114671Y-51835937D01*
X181114664Y-51835936D01*
X180980448Y-51816639D01*
X180980441Y-51816638D01*
X180976000Y-51816000D01*
X169151782Y-51816000D01*
X169117580Y-51811269D01*
X169024350Y-51784975D01*
X168900906Y-51750160D01*
X168669934Y-51715847D01*
X168600252Y-51705495D01*
X168600250Y-51705495D01*
X168596953Y-51705005D01*
X168593622Y-51704865D01*
X168593618Y-51704865D01*
X168556665Y-51703317D01*
X168513323Y-51701500D01*
X166817260Y-51701500D01*
X166693356Y-51709404D01*
X166592343Y-51715847D01*
X166592338Y-51715848D01*
X166588335Y-51716103D01*
X166584398Y-51716865D01*
X166584396Y-51716865D01*
X166571175Y-51719423D01*
X166286641Y-51774474D01*
X166282826Y-51775732D01*
X166282822Y-51775733D01*
X166179929Y-51809662D01*
X166140471Y-51816000D01*
X164591000Y-51816000D01*
X164483020Y-51827609D01*
X164479736Y-51828323D01*
X164479732Y-51828324D01*
X164455166Y-51833668D01*
X164430678Y-51838995D01*
X164381656Y-51855311D01*
X164337402Y-51870040D01*
X164327628Y-51873293D01*
X164205990Y-51951465D01*
X164202595Y-51954407D01*
X164202592Y-51954409D01*
X164172951Y-51980093D01*
X164152334Y-51997958D01*
X164149393Y-52001352D01*
X164137803Y-52014727D01*
X164057645Y-52107234D01*
X163997579Y-52238760D01*
X163996311Y-52243079D01*
X163986967Y-52274903D01*
X163977577Y-52306881D01*
X163976937Y-52311329D01*
X163976936Y-52311336D01*
X163957639Y-52445552D01*
X163957638Y-52445559D01*
X163957000Y-52450000D01*
X163957000Y-61088000D01*
X153797000Y-61088000D01*
X153797000Y-51942000D01*
X153785391Y-51834020D01*
X153783997Y-51827609D01*
X153775754Y-51789720D01*
X153774005Y-51781678D01*
X153747338Y-51701556D01*
X153742197Y-51686109D01*
X153742197Y-51686108D01*
X153739707Y-51678628D01*
X153661535Y-51556990D01*
X153652952Y-51547084D01*
X153626461Y-51516512D01*
X153596968Y-51451931D01*
X153607073Y-51381657D01*
X153653566Y-51328002D01*
X153721686Y-51308000D01*
X181179672Y-51308000D01*
X181199057Y-51309500D01*
X181213858Y-51311805D01*
X181213861Y-51311805D01*
X181222730Y-51313186D01*
X181231632Y-51312022D01*
X181231636Y-51312022D01*
X181231732Y-51312009D01*
X181262170Y-51311738D01*
X181356196Y-51322332D01*
X181383704Y-51328611D01*
X181491116Y-51366196D01*
X181516535Y-51378437D01*
X181564611Y-51408645D01*
X181612897Y-51438985D01*
X181634956Y-51456577D01*
X181715423Y-51537044D01*
X181733015Y-51559103D01*
X181771299Y-51620031D01*
X181793562Y-51655463D01*
X181805804Y-51680884D01*
X181843389Y-51788296D01*
X181849668Y-51815803D01*
X181859522Y-51903254D01*
X181860305Y-51918900D01*
X181860196Y-51927856D01*
X181858814Y-51936730D01*
X181862936Y-51968251D01*
X181864000Y-51984589D01*
X181864000Y-73864100D01*
X181843998Y-73932221D01*
X181790342Y-73978714D01*
X181720068Y-73988818D01*
X181655487Y-73959324D01*
X181616348Y-73925409D01*
X181572766Y-73887645D01*
X181441240Y-73827579D01*
X181406652Y-73817423D01*
X181377442Y-73808846D01*
X181377438Y-73808845D01*
X181373119Y-73807577D01*
X181368671Y-73806937D01*
X181368664Y-73806936D01*
X181234448Y-73787639D01*
X181234441Y-73787638D01*
X181230000Y-73787000D01*
X164845000Y-73787000D01*
X164737020Y-73798609D01*
X164733736Y-73799323D01*
X164733732Y-73799324D01*
X164708661Y-73804778D01*
X164684678Y-73809995D01*
X164581628Y-73844293D01*
X164459990Y-73922465D01*
X164406334Y-73968958D01*
X164403393Y-73972352D01*
X164394577Y-73982526D01*
X164311645Y-74078234D01*
X164251579Y-74209760D01*
X164231577Y-74277881D01*
X164230937Y-74282329D01*
X164230936Y-74282336D01*
X164211639Y-74416552D01*
X164211638Y-74416559D01*
X164211000Y-74421000D01*
X164211000Y-83948000D01*
X164222609Y-84055980D01*
X164233995Y-84108322D01*
X164268293Y-84211372D01*
X164346465Y-84333010D01*
X164392958Y-84386666D01*
X164502234Y-84481355D01*
X164633760Y-84541421D01*
X164651528Y-84546638D01*
X164697558Y-84560154D01*
X164697562Y-84560155D01*
X164701881Y-84561423D01*
X164706329Y-84562063D01*
X164706336Y-84562064D01*
X164840552Y-84581361D01*
X164840559Y-84581362D01*
X164845000Y-84582000D01*
X169042759Y-84582000D01*
X169110880Y-84602002D01*
X169157373Y-84655658D01*
X169167477Y-84725932D01*
X169150020Y-84774114D01*
X169069151Y-84905308D01*
X169066846Y-84912256D01*
X169066846Y-84912257D01*
X169029474Y-85024930D01*
X169015762Y-85066269D01*
X169005500Y-85166428D01*
X169005500Y-85775572D01*
X169016022Y-85876982D01*
X169069692Y-86037849D01*
X169158929Y-86182055D01*
X169278947Y-86301864D01*
X169423308Y-86390849D01*
X169430256Y-86393154D01*
X169430257Y-86393154D01*
X169577738Y-86442072D01*
X169577740Y-86442072D01*
X169584269Y-86444238D01*
X169684428Y-86454500D01*
X170218572Y-86454500D01*
X170221818Y-86454163D01*
X170221822Y-86454163D01*
X170255603Y-86450658D01*
X170319982Y-86443978D01*
X170480849Y-86390308D01*
X170625055Y-86301071D01*
X170744864Y-86181053D01*
X170755139Y-86164384D01*
X170807912Y-86116890D01*
X170862399Y-86104500D01*
X171057236Y-86104500D01*
X171122505Y-86122723D01*
X171128801Y-86126536D01*
X171128804Y-86126538D01*
X171135301Y-86130472D01*
X171142548Y-86132743D01*
X171142550Y-86132744D01*
X171208836Y-86153517D01*
X171298938Y-86181753D01*
X171372365Y-86188500D01*
X171375263Y-86188500D01*
X171704860Y-86188499D01*
X172035634Y-86188499D01*
X172038492Y-86188236D01*
X172038501Y-86188236D01*
X172074004Y-86184974D01*
X172109062Y-86181753D01*
X172115447Y-86179752D01*
X172265450Y-86132744D01*
X172265452Y-86132743D01*
X172272699Y-86130472D01*
X172419381Y-86041639D01*
X172540639Y-85920381D01*
X172629472Y-85773699D01*
X172680753Y-85610062D01*
X172687500Y-85536635D01*
X172687499Y-85023366D01*
X172680753Y-84949938D01*
X172672968Y-84925095D01*
X172631744Y-84793550D01*
X172631743Y-84793548D01*
X172629472Y-84786301D01*
X172621580Y-84773269D01*
X172603402Y-84704640D01*
X172625213Y-84637077D01*
X172680090Y-84592031D01*
X172729357Y-84582000D01*
X181230000Y-84582000D01*
X181337980Y-84570391D01*
X181341264Y-84569677D01*
X181341268Y-84569676D01*
X181366339Y-84564222D01*
X181390322Y-84559005D01*
X181493372Y-84524707D01*
X181615010Y-84446535D01*
X181648212Y-84417766D01*
X181655488Y-84411461D01*
X181720069Y-84381968D01*
X181790343Y-84392073D01*
X181843998Y-84438566D01*
X181864000Y-84506686D01*
X181864000Y-97359100D01*
X181843998Y-97427221D01*
X181790342Y-97473714D01*
X181720068Y-97483818D01*
X181655487Y-97454324D01*
X181638291Y-97439423D01*
X181572766Y-97382645D01*
X181441240Y-97322579D01*
X181391803Y-97308063D01*
X181377442Y-97303846D01*
X181377438Y-97303845D01*
X181373119Y-97302577D01*
X181368671Y-97301937D01*
X181368664Y-97301936D01*
X181234448Y-97282639D01*
X181234441Y-97282638D01*
X181230000Y-97282000D01*
X164845000Y-97282000D01*
X164737020Y-97293609D01*
X164733736Y-97294323D01*
X164733732Y-97294324D01*
X164708661Y-97299778D01*
X164684678Y-97304995D01*
X164581628Y-97339293D01*
X164459990Y-97417465D01*
X164406334Y-97463958D01*
X164403393Y-97467352D01*
X164391199Y-97481425D01*
X164311645Y-97573234D01*
X164251579Y-97704760D01*
X164231577Y-97772881D01*
X164230937Y-97777329D01*
X164230936Y-97777336D01*
X164211639Y-97911552D01*
X164211638Y-97911559D01*
X164211000Y-97916000D01*
X164211000Y-107570000D01*
X164222609Y-107677980D01*
X164233995Y-107730322D01*
X164243076Y-107757607D01*
X164262024Y-107814535D01*
X164268293Y-107833372D01*
X164346465Y-107955010D01*
X164349407Y-107958405D01*
X164349409Y-107958408D01*
X164386135Y-108000792D01*
X164392958Y-108008666D01*
X164502234Y-108103355D01*
X164633760Y-108163421D01*
X164657514Y-108170396D01*
X164697558Y-108182154D01*
X164697562Y-108182155D01*
X164701881Y-108183423D01*
X164706329Y-108184063D01*
X164706336Y-108184064D01*
X164840552Y-108203361D01*
X164840559Y-108203362D01*
X164845000Y-108204000D01*
X169230302Y-108204000D01*
X169298423Y-108224002D01*
X169344916Y-108277658D01*
X169355020Y-108347932D01*
X169337562Y-108396115D01*
X169272351Y-108501908D01*
X169218962Y-108662869D01*
X169208700Y-108763028D01*
X169208700Y-109372172D01*
X169219222Y-109473582D01*
X169272892Y-109634449D01*
X169362129Y-109778655D01*
X169482147Y-109898464D01*
X169626508Y-109987449D01*
X169633456Y-109989754D01*
X169633457Y-109989754D01*
X169780938Y-110038672D01*
X169780940Y-110038672D01*
X169787469Y-110040838D01*
X169887628Y-110051100D01*
X170421772Y-110051100D01*
X170425018Y-110050763D01*
X170425022Y-110050763D01*
X170458803Y-110047258D01*
X170523182Y-110040578D01*
X170684049Y-109986908D01*
X170828255Y-109897671D01*
X170948064Y-109777653D01*
X170958339Y-109760984D01*
X171011112Y-109713490D01*
X171065599Y-109701100D01*
X171586633Y-109701100D01*
X171597816Y-109701627D01*
X171605309Y-109703302D01*
X171613235Y-109703053D01*
X171613236Y-109703053D01*
X171673386Y-109701162D01*
X171677345Y-109701100D01*
X171705256Y-109701100D01*
X171709191Y-109700603D01*
X171709256Y-109700595D01*
X171721093Y-109699662D01*
X171753351Y-109698648D01*
X171757370Y-109698522D01*
X171765289Y-109698273D01*
X171784743Y-109692621D01*
X171804100Y-109688613D01*
X171824198Y-109686074D01*
X171824223Y-109686269D01*
X171846145Y-109683500D01*
X172217447Y-109683499D01*
X172289634Y-109683499D01*
X172292492Y-109683236D01*
X172292501Y-109683236D01*
X172328004Y-109679974D01*
X172363062Y-109676753D01*
X172387575Y-109669071D01*
X172519450Y-109627744D01*
X172519452Y-109627743D01*
X172526699Y-109625472D01*
X172673381Y-109536639D01*
X172794639Y-109415381D01*
X172883472Y-109268699D01*
X172934753Y-109105062D01*
X172941500Y-109031635D01*
X172941499Y-108518366D01*
X172940626Y-108508857D01*
X172935364Y-108451592D01*
X172934753Y-108444938D01*
X172910541Y-108367678D01*
X172909256Y-108296695D01*
X172946553Y-108236284D01*
X173010590Y-108205627D01*
X173030775Y-108204000D01*
X181230000Y-108204000D01*
X181337980Y-108192391D01*
X181341264Y-108191677D01*
X181341268Y-108191676D01*
X181366339Y-108186222D01*
X181390322Y-108181005D01*
X181460485Y-108157653D01*
X181485891Y-108149197D01*
X181485892Y-108149197D01*
X181493372Y-108146707D01*
X181615010Y-108068535D01*
X181655487Y-108033461D01*
X181720069Y-108003968D01*
X181790343Y-108014073D01*
X181843998Y-108060566D01*
X181864000Y-108128686D01*
X181864000Y-125553672D01*
X181862500Y-125573056D01*
X181858814Y-125596730D01*
X181859978Y-125605632D01*
X181859978Y-125605636D01*
X181859991Y-125605732D01*
X181860262Y-125636170D01*
X181849668Y-125730196D01*
X181843389Y-125757704D01*
X181805804Y-125865116D01*
X181793562Y-125890537D01*
X181733015Y-125986897D01*
X181715423Y-126008956D01*
X181634956Y-126089423D01*
X181612897Y-126107015D01*
X181516537Y-126167562D01*
X181491116Y-126179804D01*
X181383704Y-126217389D01*
X181356197Y-126223668D01*
X181320897Y-126227646D01*
X181268742Y-126233522D01*
X181253100Y-126234305D01*
X181244144Y-126234196D01*
X181235270Y-126232814D01*
X181203749Y-126236936D01*
X181187411Y-126238000D01*
X82472328Y-126238000D01*
X82452943Y-126236500D01*
X82438142Y-126234195D01*
X82438139Y-126234195D01*
X82429270Y-126232814D01*
X82420368Y-126233978D01*
X82420364Y-126233978D01*
X82420268Y-126233991D01*
X82389830Y-126234262D01*
X82295804Y-126223668D01*
X82268296Y-126217389D01*
X82160884Y-126179804D01*
X82135463Y-126167562D01*
X82039103Y-126107015D01*
X82017044Y-126089423D01*
X81936577Y-126008956D01*
X81918985Y-125986897D01*
X81858438Y-125890537D01*
X81846196Y-125865116D01*
X81808611Y-125757704D01*
X81802332Y-125730197D01*
X81792667Y-125644420D01*
X81792385Y-125619614D01*
X81793071Y-125615539D01*
X81793224Y-125603000D01*
X81789273Y-125575412D01*
X81788000Y-125557549D01*
X81788000Y-114988434D01*
X92686661Y-114988434D01*
X92704792Y-115346340D01*
X92705329Y-115349695D01*
X92705330Y-115349701D01*
X92736003Y-115541201D01*
X92761470Y-115700195D01*
X92856033Y-116045859D01*
X92867688Y-116075446D01*
X92970614Y-116336739D01*
X92987374Y-116379288D01*
X93018151Y-116437909D01*
X93094945Y-116584180D01*
X93153957Y-116696582D01*
X93155858Y-116699411D01*
X93155864Y-116699421D01*
X93333859Y-116964303D01*
X93353834Y-116994029D01*
X93584665Y-117268150D01*
X93843751Y-117515738D01*
X94128061Y-117733897D01*
X94160056Y-117753350D01*
X94431355Y-117918303D01*
X94431360Y-117918306D01*
X94434270Y-117920075D01*
X94437358Y-117921521D01*
X94437357Y-117921521D01*
X94755710Y-118070649D01*
X94755720Y-118070653D01*
X94758794Y-118072093D01*
X94762012Y-118073195D01*
X94762015Y-118073196D01*
X95094615Y-118187071D01*
X95094623Y-118187073D01*
X95097838Y-118188174D01*
X95447435Y-118266959D01*
X95499728Y-118272917D01*
X95800114Y-118307142D01*
X95800122Y-118307142D01*
X95803497Y-118307527D01*
X95806901Y-118307545D01*
X95806904Y-118307545D01*
X96001227Y-118308562D01*
X96161857Y-118309403D01*
X96165243Y-118309053D01*
X96165245Y-118309053D01*
X96514932Y-118272917D01*
X96514941Y-118272916D01*
X96518324Y-118272566D01*
X96521657Y-118271852D01*
X96521660Y-118271851D01*
X96694186Y-118234864D01*
X96868727Y-118197446D01*
X97208968Y-118084922D01*
X97535066Y-117936311D01*
X97629052Y-117880506D01*
X97840262Y-117755099D01*
X97840267Y-117755096D01*
X97843207Y-117753350D01*
X98129786Y-117538180D01*
X98391451Y-117293319D01*
X98625140Y-117021630D01*
X98777909Y-116799350D01*
X98826190Y-116729101D01*
X98826195Y-116729094D01*
X98828120Y-116726292D01*
X98829732Y-116723298D01*
X98829737Y-116723290D01*
X98996395Y-116413772D01*
X98998017Y-116410760D01*
X99132842Y-116078724D01*
X99143122Y-116042638D01*
X99163527Y-115971006D01*
X99231020Y-115734070D01*
X99265271Y-115533695D01*
X99290829Y-115384175D01*
X99290829Y-115384173D01*
X99291401Y-115380828D01*
X99291785Y-115374563D01*
X99313168Y-115024928D01*
X99313278Y-115023131D01*
X99313359Y-115000000D01*
X99296137Y-114682000D01*
X114808000Y-114682000D01*
X114808360Y-114685346D01*
X114808360Y-114685351D01*
X114808392Y-114685644D01*
X114825413Y-114843971D01*
X114826131Y-114847271D01*
X114826131Y-114847272D01*
X114829352Y-114862077D01*
X114836799Y-114896313D01*
X114842807Y-114921812D01*
X114905949Y-115087086D01*
X115005504Y-115233345D01*
X115007908Y-115236119D01*
X115050894Y-115285729D01*
X115050910Y-115285746D01*
X115051997Y-115287001D01*
X115053157Y-115288204D01*
X115053170Y-115288219D01*
X115088451Y-115324830D01*
X115107903Y-115345016D01*
X115112202Y-115348181D01*
X115112204Y-115348183D01*
X115145226Y-115372496D01*
X115250376Y-115449916D01*
X115257128Y-115452786D01*
X115257131Y-115452788D01*
X115409826Y-115517698D01*
X115409830Y-115517699D01*
X115413200Y-115519132D01*
X115416719Y-115520165D01*
X115416721Y-115520166D01*
X115447799Y-115529291D01*
X115481321Y-115539134D01*
X115520271Y-115549460D01*
X115696000Y-115570000D01*
X126934606Y-115570000D01*
X126978992Y-115568706D01*
X127008850Y-115563438D01*
X127079409Y-115571301D01*
X127134517Y-115616063D01*
X127142300Y-115628952D01*
X127199209Y-115737347D01*
X127201957Y-115742582D01*
X127203858Y-115745411D01*
X127203864Y-115745421D01*
X127387569Y-116018800D01*
X127401834Y-116040029D01*
X127632665Y-116314150D01*
X127891751Y-116561738D01*
X128176061Y-116779897D01*
X128208056Y-116799350D01*
X128479355Y-116964303D01*
X128479360Y-116964306D01*
X128482270Y-116966075D01*
X128485358Y-116967521D01*
X128485357Y-116967521D01*
X128803710Y-117116649D01*
X128803720Y-117116653D01*
X128806794Y-117118093D01*
X128810012Y-117119195D01*
X128810015Y-117119196D01*
X129142615Y-117233071D01*
X129142623Y-117233073D01*
X129145838Y-117234174D01*
X129495435Y-117312959D01*
X129547728Y-117318917D01*
X129848114Y-117353142D01*
X129848122Y-117353142D01*
X129851497Y-117353527D01*
X129854901Y-117353545D01*
X129854904Y-117353545D01*
X130049227Y-117354562D01*
X130209857Y-117355403D01*
X130213243Y-117355053D01*
X130213245Y-117355053D01*
X130562932Y-117318917D01*
X130562941Y-117318916D01*
X130566324Y-117318566D01*
X130569657Y-117317852D01*
X130569660Y-117317851D01*
X130801493Y-117268150D01*
X130916727Y-117243446D01*
X131256968Y-117130922D01*
X131583066Y-116982311D01*
X131677052Y-116926506D01*
X131888262Y-116801099D01*
X131888267Y-116801096D01*
X131891207Y-116799350D01*
X132177786Y-116584180D01*
X132439451Y-116339319D01*
X132673140Y-116067630D01*
X132779750Y-115912512D01*
X132874190Y-115775101D01*
X132874195Y-115775094D01*
X132876120Y-115772292D01*
X132877732Y-115769298D01*
X132877737Y-115769290D01*
X132928228Y-115675518D01*
X132954698Y-115626357D01*
X133004603Y-115575862D01*
X133080265Y-115560945D01*
X133157734Y-115570000D01*
X146178000Y-115570000D01*
X146181346Y-115569640D01*
X146181351Y-115569640D01*
X146336607Y-115552949D01*
X146336613Y-115552948D01*
X146339971Y-115552587D01*
X146347221Y-115551010D01*
X146391850Y-115541302D01*
X146391880Y-115541295D01*
X146392313Y-115541201D01*
X146417812Y-115535193D01*
X146583086Y-115472051D01*
X146650683Y-115426039D01*
X146726309Y-115374563D01*
X146726314Y-115374559D01*
X146729345Y-115372496D01*
X146763449Y-115342945D01*
X146781729Y-115327106D01*
X146781746Y-115327090D01*
X146783001Y-115326003D01*
X146784204Y-115324843D01*
X146784219Y-115324830D01*
X146837170Y-115273803D01*
X146841016Y-115270097D01*
X146945916Y-115127624D01*
X146966061Y-115080236D01*
X147005086Y-114988434D01*
X163686661Y-114988434D01*
X163704792Y-115346340D01*
X163705329Y-115349695D01*
X163705330Y-115349701D01*
X163736003Y-115541201D01*
X163761470Y-115700195D01*
X163856033Y-116045859D01*
X163867688Y-116075446D01*
X163970614Y-116336739D01*
X163987374Y-116379288D01*
X164018151Y-116437909D01*
X164094945Y-116584180D01*
X164153957Y-116696582D01*
X164155858Y-116699411D01*
X164155864Y-116699421D01*
X164333859Y-116964303D01*
X164353834Y-116994029D01*
X164584665Y-117268150D01*
X164843751Y-117515738D01*
X165128061Y-117733897D01*
X165160056Y-117753350D01*
X165431355Y-117918303D01*
X165431360Y-117918306D01*
X165434270Y-117920075D01*
X165437358Y-117921521D01*
X165437357Y-117921521D01*
X165755710Y-118070649D01*
X165755720Y-118070653D01*
X165758794Y-118072093D01*
X165762012Y-118073195D01*
X165762015Y-118073196D01*
X166094615Y-118187071D01*
X166094623Y-118187073D01*
X166097838Y-118188174D01*
X166447435Y-118266959D01*
X166499728Y-118272917D01*
X166800114Y-118307142D01*
X166800122Y-118307142D01*
X166803497Y-118307527D01*
X166806901Y-118307545D01*
X166806904Y-118307545D01*
X167001227Y-118308562D01*
X167161857Y-118309403D01*
X167165243Y-118309053D01*
X167165245Y-118309053D01*
X167514932Y-118272917D01*
X167514941Y-118272916D01*
X167518324Y-118272566D01*
X167521657Y-118271852D01*
X167521660Y-118271851D01*
X167694186Y-118234864D01*
X167868727Y-118197446D01*
X168208968Y-118084922D01*
X168535066Y-117936311D01*
X168629052Y-117880506D01*
X168840262Y-117755099D01*
X168840267Y-117755096D01*
X168843207Y-117753350D01*
X169129786Y-117538180D01*
X169391451Y-117293319D01*
X169625140Y-117021630D01*
X169777909Y-116799350D01*
X169826190Y-116729101D01*
X169826195Y-116729094D01*
X169828120Y-116726292D01*
X169829732Y-116723298D01*
X169829737Y-116723290D01*
X169996395Y-116413772D01*
X169998017Y-116410760D01*
X170132842Y-116078724D01*
X170143122Y-116042638D01*
X170163527Y-115971006D01*
X170231020Y-115734070D01*
X170265271Y-115533695D01*
X170290829Y-115384175D01*
X170290829Y-115384173D01*
X170291401Y-115380828D01*
X170291785Y-115374563D01*
X170313168Y-115024928D01*
X170313278Y-115023131D01*
X170313359Y-115000000D01*
X170293979Y-114642159D01*
X170236066Y-114288505D01*
X170140297Y-113943173D01*
X170137243Y-113935497D01*
X170009052Y-113613369D01*
X170007793Y-113610205D01*
X169977768Y-113553498D01*
X169841702Y-113296513D01*
X169841698Y-113296506D01*
X169840103Y-113293494D01*
X169639190Y-112996746D01*
X169610070Y-112962408D01*
X169526892Y-112864329D01*
X169407403Y-112723432D01*
X169147454Y-112476750D01*
X168862384Y-112259585D01*
X168859472Y-112257828D01*
X168859467Y-112257825D01*
X168558443Y-112076236D01*
X168558437Y-112076233D01*
X168555528Y-112074478D01*
X168230475Y-111923593D01*
X168060751Y-111866145D01*
X167894255Y-111809789D01*
X167894250Y-111809788D01*
X167891028Y-111808697D01*
X167692681Y-111764724D01*
X167544493Y-111731871D01*
X167544487Y-111731870D01*
X167541158Y-111731132D01*
X167537769Y-111730758D01*
X167537764Y-111730757D01*
X167188338Y-111692180D01*
X167188333Y-111692180D01*
X167184957Y-111691807D01*
X167181558Y-111691801D01*
X167181557Y-111691801D01*
X167012080Y-111691505D01*
X166826592Y-111691182D01*
X166713413Y-111703277D01*
X166473639Y-111728901D01*
X166473631Y-111728902D01*
X166470256Y-111729263D01*
X166120117Y-111805606D01*
X165780271Y-111919317D01*
X165777178Y-111920739D01*
X165777177Y-111920740D01*
X165735779Y-111939781D01*
X165454694Y-112069066D01*
X165451760Y-112070822D01*
X165451758Y-112070823D01*
X165351606Y-112130763D01*
X165147193Y-112253101D01*
X165144467Y-112255163D01*
X165144465Y-112255164D01*
X164878071Y-112456637D01*
X164861367Y-112469270D01*
X164600559Y-112715043D01*
X164598347Y-112717633D01*
X164598345Y-112717635D01*
X164557544Y-112765407D01*
X164367819Y-112987546D01*
X164365900Y-112990358D01*
X164365897Y-112990363D01*
X164346321Y-113019061D01*
X164165871Y-113283591D01*
X163997077Y-113599714D01*
X163863411Y-113932218D01*
X163862491Y-113935492D01*
X163862489Y-113935497D01*
X163860332Y-113943173D01*
X163766437Y-114277213D01*
X163707290Y-114630663D01*
X163686661Y-114988434D01*
X147005086Y-114988434D01*
X147013698Y-114968174D01*
X147013699Y-114968170D01*
X147015132Y-114964800D01*
X147035134Y-114896679D01*
X147045460Y-114857729D01*
X147066000Y-114682000D01*
X147066000Y-111128655D01*
X173027858Y-111128655D01*
X173063104Y-111387638D01*
X173064412Y-111392124D01*
X173064412Y-111392126D01*
X173084098Y-111459664D01*
X173136243Y-111638567D01*
X173245668Y-111875928D01*
X173248231Y-111879837D01*
X173386410Y-112090596D01*
X173386414Y-112090601D01*
X173388976Y-112094509D01*
X173563018Y-112289506D01*
X173763970Y-112456637D01*
X173767973Y-112459066D01*
X173983422Y-112589804D01*
X173983426Y-112589806D01*
X173987419Y-112592229D01*
X174228455Y-112693303D01*
X174481783Y-112757641D01*
X174486434Y-112758109D01*
X174486438Y-112758110D01*
X174679308Y-112777531D01*
X174698867Y-112779500D01*
X179354354Y-112779500D01*
X179356679Y-112779327D01*
X179356685Y-112779327D01*
X179544000Y-112765407D01*
X179544004Y-112765406D01*
X179548652Y-112765061D01*
X179553200Y-112764032D01*
X179553206Y-112764031D01*
X179780044Y-112712702D01*
X179803577Y-112707377D01*
X179839769Y-112693303D01*
X180042824Y-112614340D01*
X180042827Y-112614339D01*
X180047177Y-112612647D01*
X180274098Y-112482951D01*
X180479357Y-112321138D01*
X180658443Y-112130763D01*
X180802163Y-111923593D01*
X180804759Y-111919851D01*
X180804761Y-111919848D01*
X180807424Y-111916009D01*
X180809492Y-111911816D01*
X180920960Y-111685781D01*
X180920961Y-111685778D01*
X180923025Y-111681593D01*
X181002707Y-111432665D01*
X181044721Y-111174693D01*
X181048142Y-110913345D01*
X181012896Y-110654362D01*
X180998473Y-110604877D01*
X180941068Y-110407932D01*
X180939757Y-110403433D01*
X180830332Y-110166072D01*
X180746624Y-110038396D01*
X180689590Y-109951404D01*
X180689586Y-109951399D01*
X180687024Y-109947491D01*
X180512982Y-109752494D01*
X180312030Y-109585363D01*
X180253844Y-109550055D01*
X180092578Y-109452196D01*
X180092574Y-109452194D01*
X180088581Y-109449771D01*
X179847545Y-109348697D01*
X179594217Y-109284359D01*
X179589566Y-109283891D01*
X179589562Y-109283890D01*
X179380271Y-109262816D01*
X179377133Y-109262500D01*
X174721646Y-109262500D01*
X174719321Y-109262673D01*
X174719315Y-109262673D01*
X174532000Y-109276593D01*
X174531996Y-109276594D01*
X174527348Y-109276939D01*
X174522800Y-109277968D01*
X174522794Y-109277969D01*
X174336399Y-109320147D01*
X174272423Y-109334623D01*
X174268071Y-109336315D01*
X174268069Y-109336316D01*
X174033176Y-109427660D01*
X174033173Y-109427661D01*
X174028823Y-109429353D01*
X173801902Y-109559049D01*
X173596643Y-109720862D01*
X173417557Y-109911237D01*
X173268576Y-110125991D01*
X173266510Y-110130181D01*
X173266508Y-110130184D01*
X173231344Y-110201491D01*
X173152975Y-110360407D01*
X173073293Y-110609335D01*
X173031279Y-110867307D01*
X173031218Y-110871980D01*
X173028015Y-111116692D01*
X173027858Y-111128655D01*
X147066000Y-111128655D01*
X147066000Y-106729090D01*
X147065222Y-106694669D01*
X147064517Y-106690342D01*
X147064516Y-106690333D01*
X147054235Y-106627243D01*
X147063019Y-106556792D01*
X147097181Y-106510811D01*
X147224553Y-106402983D01*
X147261639Y-106371587D01*
X147261640Y-106371586D01*
X147265205Y-106368568D01*
X147337071Y-106286621D01*
X147434457Y-106175574D01*
X147434461Y-106175569D01*
X147437539Y-106172059D01*
X147578933Y-105952237D01*
X147686283Y-105713929D01*
X147704719Y-105648559D01*
X147755960Y-105466876D01*
X147755961Y-105466873D01*
X147757230Y-105462372D01*
X147761289Y-105430462D01*
X147789816Y-105206221D01*
X147789816Y-105206217D01*
X147790214Y-105203091D01*
X147792631Y-105110800D01*
X147773261Y-104850148D01*
X147763121Y-104805333D01*
X147730053Y-104659199D01*
X147715577Y-104595223D01*
X147620847Y-104351623D01*
X147491151Y-104124702D01*
X147329338Y-103919443D01*
X147138963Y-103740357D01*
X146924209Y-103591376D01*
X146739503Y-103500289D01*
X146687255Y-103452222D01*
X146670515Y-103405216D01*
X146661840Y-103344883D01*
X146661600Y-103343213D01*
X146645935Y-103264188D01*
X146582793Y-103098914D01*
X146483238Y-102952655D01*
X146468525Y-102935676D01*
X146437848Y-102900271D01*
X146437832Y-102900254D01*
X146436745Y-102898999D01*
X146400781Y-102861679D01*
X146367917Y-102798748D01*
X146374292Y-102728038D01*
X146417883Y-102672000D01*
X146455304Y-102653563D01*
X146477626Y-102646866D01*
X146544890Y-102626686D01*
X146549524Y-102624416D01*
X146748249Y-102527062D01*
X146748252Y-102527060D01*
X146752884Y-102524791D01*
X146941443Y-102390294D01*
X147105503Y-102226805D01*
X147240658Y-102038717D01*
X147287841Y-101943250D01*
X147340984Y-101835722D01*
X147340985Y-101835720D01*
X147343278Y-101831080D01*
X147410608Y-101609471D01*
X147440840Y-101379841D01*
X147440922Y-101376491D01*
X147442445Y-101314165D01*
X147442445Y-101314161D01*
X147442527Y-101310800D01*
X147433962Y-101206621D01*
X147423973Y-101085118D01*
X147423972Y-101085112D01*
X147423549Y-101079967D01*
X147367125Y-100855333D01*
X147365066Y-100850597D01*
X147276830Y-100647668D01*
X147276828Y-100647665D01*
X147274770Y-100642931D01*
X147148964Y-100448465D01*
X146993087Y-100277158D01*
X146989036Y-100273959D01*
X146989032Y-100273955D01*
X146815377Y-100136811D01*
X146815372Y-100136808D01*
X146811323Y-100133610D01*
X146806807Y-100131117D01*
X146806804Y-100131115D01*
X146613079Y-100024173D01*
X146613075Y-100024171D01*
X146608555Y-100021676D01*
X146603686Y-100019952D01*
X146603682Y-100019950D01*
X146395103Y-99946088D01*
X146395099Y-99946087D01*
X146390228Y-99944362D01*
X146385135Y-99943455D01*
X146385132Y-99943454D01*
X146167295Y-99904651D01*
X146167289Y-99904650D01*
X146162206Y-99903745D01*
X146089296Y-99902854D01*
X145935781Y-99900979D01*
X145935779Y-99900979D01*
X145930611Y-99900916D01*
X145701664Y-99935950D01*
X145481514Y-100007906D01*
X145476926Y-100010294D01*
X145476922Y-100010296D01*
X145450265Y-100024173D01*
X145276072Y-100114852D01*
X145271939Y-100117955D01*
X145271936Y-100117957D01*
X145094990Y-100250812D01*
X145090855Y-100253917D01*
X145087283Y-100257655D01*
X144988279Y-100361257D01*
X144930839Y-100421364D01*
X144927925Y-100425636D01*
X144927924Y-100425637D01*
X144912352Y-100448465D01*
X144800319Y-100612699D01*
X144702802Y-100822781D01*
X144640907Y-101045969D01*
X144616295Y-101276269D01*
X144616592Y-101281422D01*
X144616592Y-101281425D01*
X144627312Y-101467342D01*
X144629627Y-101507497D01*
X144630764Y-101512543D01*
X144630765Y-101512549D01*
X144654300Y-101616979D01*
X144680546Y-101733442D01*
X144682488Y-101738224D01*
X144682489Y-101738228D01*
X144742178Y-101885224D01*
X144767684Y-101948037D01*
X144888701Y-102145519D01*
X145040347Y-102320584D01*
X145119924Y-102386650D01*
X145127640Y-102393056D01*
X145167275Y-102451959D01*
X145168773Y-102522939D01*
X145131658Y-102583462D01*
X145067714Y-102614311D01*
X145047155Y-102616000D01*
X134649770Y-102616000D01*
X134581649Y-102595998D01*
X134575707Y-102591935D01*
X134574091Y-102590761D01*
X134568752Y-102586882D01*
X134434394Y-102527062D01*
X134400319Y-102511891D01*
X134400318Y-102511891D01*
X134394288Y-102509206D01*
X134300887Y-102489353D01*
X134213944Y-102470872D01*
X134213939Y-102470872D01*
X134207487Y-102469500D01*
X134016513Y-102469500D01*
X134010061Y-102470872D01*
X134010056Y-102470872D01*
X133923112Y-102489353D01*
X133829712Y-102509206D01*
X133823682Y-102511891D01*
X133823681Y-102511891D01*
X133789607Y-102527062D01*
X133655248Y-102586882D01*
X133649909Y-102590761D01*
X133648293Y-102591935D01*
X133647199Y-102592325D01*
X133644186Y-102594065D01*
X133643868Y-102593514D01*
X133581425Y-102615794D01*
X133574230Y-102616000D01*
X133125770Y-102616000D01*
X133057649Y-102595998D01*
X133051707Y-102591935D01*
X133050091Y-102590761D01*
X133044752Y-102586882D01*
X132910394Y-102527062D01*
X132876319Y-102511891D01*
X132876318Y-102511891D01*
X132870288Y-102509206D01*
X132776887Y-102489353D01*
X132689944Y-102470872D01*
X132689939Y-102470872D01*
X132683487Y-102469500D01*
X132492513Y-102469500D01*
X132486061Y-102470872D01*
X132486056Y-102470872D01*
X132399112Y-102489353D01*
X132305712Y-102509206D01*
X132299682Y-102511891D01*
X132299681Y-102511891D01*
X132265607Y-102527062D01*
X132131248Y-102586882D01*
X132125909Y-102590761D01*
X132124293Y-102591935D01*
X132123199Y-102592325D01*
X132120186Y-102594065D01*
X132119868Y-102593514D01*
X132057425Y-102615794D01*
X132050230Y-102616000D01*
X131601770Y-102616000D01*
X131533649Y-102595998D01*
X131527707Y-102591935D01*
X131526091Y-102590761D01*
X131520752Y-102586882D01*
X131386394Y-102527062D01*
X131352319Y-102511891D01*
X131352318Y-102511891D01*
X131346288Y-102509206D01*
X131252887Y-102489353D01*
X131165944Y-102470872D01*
X131165939Y-102470872D01*
X131159487Y-102469500D01*
X130968513Y-102469500D01*
X130962061Y-102470872D01*
X130962056Y-102470872D01*
X130875112Y-102489353D01*
X130781712Y-102509206D01*
X130775682Y-102511891D01*
X130775681Y-102511891D01*
X130741607Y-102527062D01*
X130607248Y-102586882D01*
X130601909Y-102590761D01*
X130600293Y-102591935D01*
X130599199Y-102592325D01*
X130596186Y-102594065D01*
X130595868Y-102593514D01*
X130533425Y-102615794D01*
X130526230Y-102616000D01*
X130077770Y-102616000D01*
X130009649Y-102595998D01*
X130003707Y-102591935D01*
X130002091Y-102590761D01*
X129996752Y-102586882D01*
X129862394Y-102527062D01*
X129828319Y-102511891D01*
X129828318Y-102511891D01*
X129822288Y-102509206D01*
X129728887Y-102489353D01*
X129641944Y-102470872D01*
X129641939Y-102470872D01*
X129635487Y-102469500D01*
X129444513Y-102469500D01*
X129438061Y-102470872D01*
X129438056Y-102470872D01*
X129351112Y-102489353D01*
X129257712Y-102509206D01*
X129251682Y-102511891D01*
X129251681Y-102511891D01*
X129217607Y-102527062D01*
X129083248Y-102586882D01*
X129077909Y-102590761D01*
X129076293Y-102591935D01*
X129075199Y-102592325D01*
X129072186Y-102594065D01*
X129071868Y-102593514D01*
X129009425Y-102615794D01*
X129002230Y-102616000D01*
X128807770Y-102616000D01*
X128739649Y-102595998D01*
X128733707Y-102591935D01*
X128732091Y-102590761D01*
X128726752Y-102586882D01*
X128592394Y-102527062D01*
X128558319Y-102511891D01*
X128558318Y-102511891D01*
X128552288Y-102509206D01*
X128458887Y-102489353D01*
X128371944Y-102470872D01*
X128371939Y-102470872D01*
X128365487Y-102469500D01*
X128174513Y-102469500D01*
X128168061Y-102470872D01*
X128168056Y-102470872D01*
X128081112Y-102489353D01*
X127987712Y-102509206D01*
X127981682Y-102511891D01*
X127981681Y-102511891D01*
X127947607Y-102527062D01*
X127813248Y-102586882D01*
X127807909Y-102590761D01*
X127806293Y-102591935D01*
X127805199Y-102592325D01*
X127802186Y-102594065D01*
X127801868Y-102593514D01*
X127739425Y-102615794D01*
X127732230Y-102616000D01*
X127537770Y-102616000D01*
X127469649Y-102595998D01*
X127463707Y-102591935D01*
X127462091Y-102590761D01*
X127456752Y-102586882D01*
X127322394Y-102527062D01*
X127288319Y-102511891D01*
X127288318Y-102511891D01*
X127282288Y-102509206D01*
X127188887Y-102489353D01*
X127101944Y-102470872D01*
X127101939Y-102470872D01*
X127095487Y-102469500D01*
X126904513Y-102469500D01*
X126898061Y-102470872D01*
X126898056Y-102470872D01*
X126811112Y-102489353D01*
X126717712Y-102509206D01*
X126711682Y-102511891D01*
X126711681Y-102511891D01*
X126677607Y-102527062D01*
X126543248Y-102586882D01*
X126537909Y-102590761D01*
X126536293Y-102591935D01*
X126535199Y-102592325D01*
X126532186Y-102594065D01*
X126531868Y-102593514D01*
X126469425Y-102615794D01*
X126462230Y-102616000D01*
X118269720Y-102616000D01*
X118228099Y-102617138D01*
X118214352Y-102617890D01*
X118132910Y-102626755D01*
X118127756Y-102628229D01*
X118127751Y-102628230D01*
X118069429Y-102644910D01*
X118002495Y-102645560D01*
X117972820Y-102637693D01*
X117972821Y-102637693D01*
X117968471Y-102636540D01*
X117792742Y-102616000D01*
X115696000Y-102616000D01*
X115692654Y-102616360D01*
X115692649Y-102616360D01*
X115537393Y-102633051D01*
X115537387Y-102633052D01*
X115534029Y-102633413D01*
X115530729Y-102634131D01*
X115530728Y-102634131D01*
X115482150Y-102644698D01*
X115482120Y-102644705D01*
X115481687Y-102644799D01*
X115456188Y-102650807D01*
X115290914Y-102713949D01*
X115258395Y-102736084D01*
X115147691Y-102811437D01*
X115147686Y-102811441D01*
X115144655Y-102813504D01*
X115141881Y-102815908D01*
X115092271Y-102858894D01*
X115092254Y-102858910D01*
X115090999Y-102859997D01*
X115089796Y-102861157D01*
X115089781Y-102861170D01*
X115047747Y-102901676D01*
X115032984Y-102915903D01*
X114928084Y-103058376D01*
X114925214Y-103065128D01*
X114925212Y-103065131D01*
X114906751Y-103108559D01*
X114858868Y-103221200D01*
X114838866Y-103289321D01*
X114828540Y-103328271D01*
X114808000Y-103504000D01*
X114808000Y-114682000D01*
X99296137Y-114682000D01*
X99293979Y-114642159D01*
X99236066Y-114288505D01*
X99140297Y-113943173D01*
X99137243Y-113935497D01*
X99009052Y-113613369D01*
X99007793Y-113610205D01*
X98977768Y-113553498D01*
X98841702Y-113296513D01*
X98841698Y-113296506D01*
X98840103Y-113293494D01*
X98639190Y-112996746D01*
X98610070Y-112962408D01*
X98526892Y-112864329D01*
X98407403Y-112723432D01*
X98147454Y-112476750D01*
X97862384Y-112259585D01*
X97859472Y-112257828D01*
X97859467Y-112257825D01*
X97558443Y-112076236D01*
X97558437Y-112076233D01*
X97555528Y-112074478D01*
X97230475Y-111923593D01*
X97060751Y-111866145D01*
X96894255Y-111809789D01*
X96894250Y-111809788D01*
X96891028Y-111808697D01*
X96692681Y-111764724D01*
X96544493Y-111731871D01*
X96544487Y-111731870D01*
X96541158Y-111731132D01*
X96537769Y-111730758D01*
X96537764Y-111730757D01*
X96188338Y-111692180D01*
X96188333Y-111692180D01*
X96184957Y-111691807D01*
X96181558Y-111691801D01*
X96181557Y-111691801D01*
X96012080Y-111691505D01*
X95826592Y-111691182D01*
X95713413Y-111703277D01*
X95473639Y-111728901D01*
X95473631Y-111728902D01*
X95470256Y-111729263D01*
X95120117Y-111805606D01*
X94780271Y-111919317D01*
X94777178Y-111920739D01*
X94777177Y-111920740D01*
X94735779Y-111939781D01*
X94454694Y-112069066D01*
X94451760Y-112070822D01*
X94451758Y-112070823D01*
X94351606Y-112130763D01*
X94147193Y-112253101D01*
X94144467Y-112255163D01*
X94144465Y-112255164D01*
X93878071Y-112456637D01*
X93861367Y-112469270D01*
X93600559Y-112715043D01*
X93598347Y-112717633D01*
X93598345Y-112717635D01*
X93557544Y-112765407D01*
X93367819Y-112987546D01*
X93365900Y-112990358D01*
X93365897Y-112990363D01*
X93346321Y-113019061D01*
X93165871Y-113283591D01*
X92997077Y-113599714D01*
X92863411Y-113932218D01*
X92862491Y-113935492D01*
X92862489Y-113935497D01*
X92860332Y-113943173D01*
X92766437Y-114277213D01*
X92707290Y-114630663D01*
X92686661Y-114988434D01*
X81788000Y-114988434D01*
X81788000Y-111382655D01*
X82984858Y-111382655D01*
X83020104Y-111641638D01*
X83021412Y-111646124D01*
X83021412Y-111646126D01*
X83034545Y-111691182D01*
X83093243Y-111892567D01*
X83202668Y-112129928D01*
X83205231Y-112133837D01*
X83343410Y-112344596D01*
X83343414Y-112344601D01*
X83345976Y-112348509D01*
X83520018Y-112543506D01*
X83720970Y-112710637D01*
X83724973Y-112713066D01*
X83940422Y-112843804D01*
X83940426Y-112843806D01*
X83944419Y-112846229D01*
X84185455Y-112947303D01*
X84438783Y-113011641D01*
X84443434Y-113012109D01*
X84443438Y-113012110D01*
X84636308Y-113031531D01*
X84655867Y-113033500D01*
X89311354Y-113033500D01*
X89313679Y-113033327D01*
X89313685Y-113033327D01*
X89501000Y-113019407D01*
X89501004Y-113019406D01*
X89505652Y-113019061D01*
X89510200Y-113018032D01*
X89510206Y-113018031D01*
X89696601Y-112975853D01*
X89760577Y-112961377D01*
X89796769Y-112947303D01*
X89999824Y-112868340D01*
X89999827Y-112868339D01*
X90004177Y-112866647D01*
X90231098Y-112736951D01*
X90436357Y-112575138D01*
X90615443Y-112384763D01*
X90764424Y-112170009D01*
X90766492Y-112165816D01*
X90877960Y-111939781D01*
X90877961Y-111939778D01*
X90880025Y-111935593D01*
X90884780Y-111920740D01*
X90958280Y-111691123D01*
X90959707Y-111686665D01*
X91001721Y-111428693D01*
X91003210Y-111314942D01*
X91005081Y-111172022D01*
X91005081Y-111172019D01*
X91005142Y-111167345D01*
X90969896Y-110908362D01*
X90955473Y-110858877D01*
X90898068Y-110661932D01*
X90896757Y-110657433D01*
X90787332Y-110420072D01*
X90745468Y-110356219D01*
X90646590Y-110205404D01*
X90646586Y-110205399D01*
X90644024Y-110201491D01*
X90469982Y-110006494D01*
X90269030Y-109839363D01*
X90220305Y-109809796D01*
X90049578Y-109706196D01*
X90049574Y-109706194D01*
X90045581Y-109703771D01*
X89804545Y-109602697D01*
X89551217Y-109538359D01*
X89546566Y-109537891D01*
X89546562Y-109537890D01*
X89337271Y-109516816D01*
X89334133Y-109516500D01*
X84678646Y-109516500D01*
X84676321Y-109516673D01*
X84676315Y-109516673D01*
X84489000Y-109530593D01*
X84488996Y-109530594D01*
X84484348Y-109530939D01*
X84479800Y-109531968D01*
X84479794Y-109531969D01*
X84293399Y-109574147D01*
X84229423Y-109588623D01*
X84225071Y-109590315D01*
X84225069Y-109590316D01*
X83990176Y-109681660D01*
X83990173Y-109681661D01*
X83985823Y-109683353D01*
X83981769Y-109685670D01*
X83981767Y-109685671D01*
X83953794Y-109701659D01*
X83758902Y-109813049D01*
X83553643Y-109974862D01*
X83374557Y-110165237D01*
X83225576Y-110379991D01*
X83223510Y-110384181D01*
X83223508Y-110384184D01*
X83114675Y-110604877D01*
X83109975Y-110614407D01*
X83030293Y-110863335D01*
X82988279Y-111121307D01*
X82984858Y-111382655D01*
X81788000Y-111382655D01*
X81788000Y-107316000D01*
X82169000Y-107316000D01*
X82180609Y-107423980D01*
X82191995Y-107476322D01*
X82226293Y-107579372D01*
X82304465Y-107701010D01*
X82350958Y-107754666D01*
X82354352Y-107757607D01*
X82377786Y-107777913D01*
X82460234Y-107849355D01*
X82591760Y-107909421D01*
X82603152Y-107912766D01*
X82655558Y-107928154D01*
X82655562Y-107928155D01*
X82659881Y-107929423D01*
X82664329Y-107930063D01*
X82664336Y-107930064D01*
X82798552Y-107949361D01*
X82798559Y-107949362D01*
X82803000Y-107950000D01*
X91049643Y-107950000D01*
X91117764Y-107970002D01*
X91164257Y-108023658D01*
X91174361Y-108093932D01*
X91157420Y-108141269D01*
X91149528Y-108154301D01*
X91147257Y-108161548D01*
X91147256Y-108161550D01*
X91140201Y-108184064D01*
X91098247Y-108317938D01*
X91091500Y-108391365D01*
X91091501Y-108904634D01*
X91098247Y-108978062D01*
X91100246Y-108984440D01*
X91100246Y-108984441D01*
X91138047Y-109105062D01*
X91149528Y-109141699D01*
X91238361Y-109288381D01*
X91359619Y-109409639D01*
X91506301Y-109498472D01*
X91513548Y-109500743D01*
X91513550Y-109500744D01*
X91563828Y-109516500D01*
X91669938Y-109549753D01*
X91743365Y-109556500D01*
X91746263Y-109556500D01*
X92075860Y-109556499D01*
X92406634Y-109556499D01*
X92409492Y-109556236D01*
X92409501Y-109556236D01*
X92445004Y-109552974D01*
X92480062Y-109549753D01*
X92536811Y-109531969D01*
X92636450Y-109500744D01*
X92636452Y-109500743D01*
X92643699Y-109498472D01*
X92650196Y-109494538D01*
X92650199Y-109494536D01*
X92656495Y-109490723D01*
X92721764Y-109472500D01*
X92916734Y-109472500D01*
X92984855Y-109492502D01*
X93023879Y-109532198D01*
X93034929Y-109550055D01*
X93154947Y-109669864D01*
X93161177Y-109673704D01*
X93161178Y-109673705D01*
X93181561Y-109686269D01*
X93299308Y-109758849D01*
X93306256Y-109761154D01*
X93306257Y-109761154D01*
X93453738Y-109810072D01*
X93453740Y-109810072D01*
X93460269Y-109812238D01*
X93560428Y-109822500D01*
X94094572Y-109822500D01*
X94097818Y-109822163D01*
X94097822Y-109822163D01*
X94131603Y-109818658D01*
X94195982Y-109811978D01*
X94356849Y-109758308D01*
X94501055Y-109669071D01*
X94620864Y-109549053D01*
X94709849Y-109404692D01*
X94749918Y-109283890D01*
X94761072Y-109250262D01*
X94761072Y-109250260D01*
X94763238Y-109243731D01*
X94773500Y-109143572D01*
X94773500Y-108534428D01*
X94771834Y-108518366D01*
X94764905Y-108451592D01*
X94762978Y-108433018D01*
X94709308Y-108272151D01*
X94628956Y-108142303D01*
X94610119Y-108073851D01*
X94631280Y-108006081D01*
X94685721Y-107960510D01*
X94736101Y-107950000D01*
X99188000Y-107950000D01*
X99295980Y-107938391D01*
X99299264Y-107937677D01*
X99299268Y-107937676D01*
X99324339Y-107932222D01*
X99348322Y-107927005D01*
X99451372Y-107892707D01*
X99573010Y-107814535D01*
X99626666Y-107768042D01*
X99638257Y-107754666D01*
X99704706Y-107677980D01*
X99721355Y-107658766D01*
X99781421Y-107527240D01*
X99801423Y-107459119D01*
X99802064Y-107454664D01*
X99821361Y-107320448D01*
X99821362Y-107320441D01*
X99822000Y-107316000D01*
X99822000Y-97789000D01*
X99810391Y-97681020D01*
X99799005Y-97628678D01*
X99764707Y-97525628D01*
X99686535Y-97403990D01*
X99667625Y-97382166D01*
X99642982Y-97353727D01*
X99640042Y-97350334D01*
X99621213Y-97334018D01*
X99587915Y-97305165D01*
X113636900Y-97305165D01*
X113636901Y-97968434D01*
X113643647Y-98041862D01*
X113645646Y-98048240D01*
X113645646Y-98048241D01*
X113690166Y-98190302D01*
X113694928Y-98205499D01*
X113783761Y-98352181D01*
X113905019Y-98473439D01*
X114051701Y-98562272D01*
X114058948Y-98564543D01*
X114058950Y-98564544D01*
X114125236Y-98585317D01*
X114215338Y-98613553D01*
X114288765Y-98620300D01*
X114291663Y-98620300D01*
X114546065Y-98620299D01*
X114802034Y-98620299D01*
X114804892Y-98620036D01*
X114804901Y-98620036D01*
X114840404Y-98616774D01*
X114875462Y-98613553D01*
X114940115Y-98593292D01*
X115031850Y-98564544D01*
X115031852Y-98564543D01*
X115039099Y-98562272D01*
X115185781Y-98473439D01*
X115307039Y-98352181D01*
X115345305Y-98288996D01*
X115350130Y-98281029D01*
X115402527Y-98233122D01*
X115457906Y-98220300D01*
X116741403Y-98220300D01*
X116809524Y-98240302D01*
X116848836Y-98280465D01*
X116888701Y-98345519D01*
X117040347Y-98520584D01*
X117218549Y-98668530D01*
X117418522Y-98785384D01*
X117634894Y-98868009D01*
X117639960Y-98869040D01*
X117639961Y-98869040D01*
X117693046Y-98879840D01*
X117861856Y-98914185D01*
X117992524Y-98918976D01*
X118088149Y-98922483D01*
X118088153Y-98922483D01*
X118093313Y-98922672D01*
X118098433Y-98922016D01*
X118098435Y-98922016D01*
X118171470Y-98912660D01*
X118323047Y-98893242D01*
X118327995Y-98891757D01*
X118328002Y-98891756D01*
X118539947Y-98828169D01*
X118544890Y-98826686D01*
X118625436Y-98787227D01*
X118748249Y-98727062D01*
X118748252Y-98727060D01*
X118752884Y-98724791D01*
X118941443Y-98590294D01*
X119105503Y-98426805D01*
X119240658Y-98238717D01*
X119244271Y-98231408D01*
X119340984Y-98035722D01*
X119340985Y-98035720D01*
X119343278Y-98031080D01*
X119410608Y-97809471D01*
X119440840Y-97579841D01*
X119440991Y-97573668D01*
X119442445Y-97514165D01*
X119442445Y-97514161D01*
X119442527Y-97510800D01*
X119435656Y-97427221D01*
X119423973Y-97285118D01*
X119423972Y-97285112D01*
X119423549Y-97279967D01*
X119388041Y-97138604D01*
X119368384Y-97060344D01*
X119368383Y-97060340D01*
X119367125Y-97055333D01*
X119365066Y-97050597D01*
X119276830Y-96847668D01*
X119276828Y-96847665D01*
X119274770Y-96842931D01*
X119148964Y-96648465D01*
X118993087Y-96477158D01*
X118989036Y-96473959D01*
X118989032Y-96473955D01*
X118815377Y-96336811D01*
X118815372Y-96336808D01*
X118811323Y-96333610D01*
X118806807Y-96331117D01*
X118806804Y-96331115D01*
X118613079Y-96224173D01*
X118613075Y-96224171D01*
X118608555Y-96221676D01*
X118603686Y-96219952D01*
X118603682Y-96219950D01*
X118395103Y-96146088D01*
X118395099Y-96146087D01*
X118390228Y-96144362D01*
X118385135Y-96143455D01*
X118385132Y-96143454D01*
X118167295Y-96104651D01*
X118167289Y-96104650D01*
X118162206Y-96103745D01*
X118089296Y-96102854D01*
X117935781Y-96100979D01*
X117935779Y-96100979D01*
X117930611Y-96100916D01*
X117701664Y-96135950D01*
X117481514Y-96207906D01*
X117476926Y-96210294D01*
X117476922Y-96210296D01*
X117450265Y-96224173D01*
X117276072Y-96314852D01*
X117271939Y-96317955D01*
X117271936Y-96317957D01*
X117246825Y-96336811D01*
X117090855Y-96453917D01*
X116930839Y-96621364D01*
X116927925Y-96625636D01*
X116927924Y-96625637D01*
X116869470Y-96711328D01*
X116800319Y-96812699D01*
X116768916Y-96880352D01*
X116722093Y-96933717D01*
X116654629Y-96953300D01*
X115391110Y-96953300D01*
X115322989Y-96933298D01*
X115302015Y-96916395D01*
X115185781Y-96800161D01*
X115039099Y-96711328D01*
X115031852Y-96709057D01*
X115031850Y-96709056D01*
X114965564Y-96688283D01*
X114875462Y-96660047D01*
X114802035Y-96653300D01*
X114799137Y-96653300D01*
X114544735Y-96653301D01*
X114288766Y-96653301D01*
X114285908Y-96653564D01*
X114285899Y-96653564D01*
X114250396Y-96656826D01*
X114215338Y-96660047D01*
X114208960Y-96662046D01*
X114208959Y-96662046D01*
X114058950Y-96709056D01*
X114058948Y-96709057D01*
X114051701Y-96711328D01*
X113905019Y-96800161D01*
X113783761Y-96921419D01*
X113694928Y-97068101D01*
X113643647Y-97231738D01*
X113636900Y-97305165D01*
X99587915Y-97305165D01*
X99584188Y-97301936D01*
X99530766Y-97255645D01*
X99399240Y-97195579D01*
X99375486Y-97188604D01*
X99335442Y-97176846D01*
X99335438Y-97176845D01*
X99331119Y-97175577D01*
X99326671Y-97174937D01*
X99326664Y-97174936D01*
X99192448Y-97155639D01*
X99192441Y-97155638D01*
X99188000Y-97155000D01*
X82803000Y-97155000D01*
X82695020Y-97166609D01*
X82691736Y-97167323D01*
X82691732Y-97167324D01*
X82666661Y-97172778D01*
X82642678Y-97177995D01*
X82539628Y-97212293D01*
X82417990Y-97290465D01*
X82414595Y-97293407D01*
X82414592Y-97293409D01*
X82382392Y-97321311D01*
X82364334Y-97336958D01*
X82361393Y-97340352D01*
X82349803Y-97353727D01*
X82269645Y-97446234D01*
X82209579Y-97577760D01*
X82189577Y-97645881D01*
X82188937Y-97650329D01*
X82188936Y-97650336D01*
X82169639Y-97784552D01*
X82169638Y-97784559D01*
X82169000Y-97789000D01*
X82169000Y-107316000D01*
X81788000Y-107316000D01*
X81788000Y-95124000D01*
X123698000Y-95124000D01*
X123698360Y-95127346D01*
X123698360Y-95127351D01*
X123698392Y-95127644D01*
X123715413Y-95285971D01*
X123716131Y-95289271D01*
X123716131Y-95289272D01*
X123719352Y-95304077D01*
X123726799Y-95338313D01*
X123732807Y-95363812D01*
X123795949Y-95529086D01*
X123895504Y-95675345D01*
X123897908Y-95678119D01*
X123940894Y-95727729D01*
X123940910Y-95727746D01*
X123941997Y-95729001D01*
X123943157Y-95730204D01*
X123943170Y-95730219D01*
X123978451Y-95766830D01*
X123997903Y-95787016D01*
X124002202Y-95790181D01*
X124002204Y-95790183D01*
X124035226Y-95814496D01*
X124140376Y-95891916D01*
X124147128Y-95894786D01*
X124147131Y-95894788D01*
X124299826Y-95959698D01*
X124299830Y-95959699D01*
X124303200Y-95961132D01*
X124306719Y-95962165D01*
X124306721Y-95962166D01*
X124337799Y-95971291D01*
X124371321Y-95981134D01*
X124410271Y-95991460D01*
X124586000Y-96012000D01*
X145342927Y-96012000D01*
X145411048Y-96032002D01*
X145457541Y-96085658D01*
X145467645Y-96155932D01*
X145438151Y-96220512D01*
X145401107Y-96249763D01*
X145276072Y-96314852D01*
X145271939Y-96317955D01*
X145271936Y-96317957D01*
X145246825Y-96336811D01*
X145090855Y-96453917D01*
X144930839Y-96621364D01*
X144927925Y-96625636D01*
X144927924Y-96625637D01*
X144869470Y-96711328D01*
X144800319Y-96812699D01*
X144702802Y-97022781D01*
X144640907Y-97245969D01*
X144616295Y-97476269D01*
X144616592Y-97481422D01*
X144616592Y-97481425D01*
X144625825Y-97641558D01*
X144629627Y-97707497D01*
X144630764Y-97712543D01*
X144630765Y-97712549D01*
X144662941Y-97855323D01*
X144680546Y-97933442D01*
X144682488Y-97938224D01*
X144682489Y-97938228D01*
X144765740Y-98143250D01*
X144767684Y-98148037D01*
X144888701Y-98345519D01*
X145040347Y-98520584D01*
X145218549Y-98668530D01*
X145418522Y-98785384D01*
X145634894Y-98868009D01*
X145639960Y-98869040D01*
X145639961Y-98869040D01*
X145693046Y-98879840D01*
X145861856Y-98914185D01*
X145992524Y-98918976D01*
X146088149Y-98922483D01*
X146088153Y-98922483D01*
X146093313Y-98922672D01*
X146098433Y-98922016D01*
X146098435Y-98922016D01*
X146171470Y-98912660D01*
X146323047Y-98893242D01*
X146327995Y-98891757D01*
X146328002Y-98891756D01*
X146539947Y-98828169D01*
X146544890Y-98826686D01*
X146625436Y-98787227D01*
X146748249Y-98727062D01*
X146748252Y-98727060D01*
X146752884Y-98724791D01*
X146941443Y-98590294D01*
X147105503Y-98426805D01*
X147240658Y-98238717D01*
X147242951Y-98234077D01*
X147244555Y-98231408D01*
X147296784Y-98183317D01*
X147352560Y-98170300D01*
X148387011Y-98170300D01*
X148455132Y-98190302D01*
X148501625Y-98243958D01*
X148507244Y-98258617D01*
X148514728Y-98282499D01*
X148603561Y-98429181D01*
X148724819Y-98550439D01*
X148871501Y-98639272D01*
X148878748Y-98641543D01*
X148878750Y-98641544D01*
X148945036Y-98662317D01*
X149035138Y-98690553D01*
X149108565Y-98697300D01*
X149111463Y-98697300D01*
X149365865Y-98697299D01*
X149621834Y-98697299D01*
X149624692Y-98697036D01*
X149624701Y-98697036D01*
X149660204Y-98693774D01*
X149695262Y-98690553D01*
X149701647Y-98688552D01*
X149851650Y-98641544D01*
X149851652Y-98641543D01*
X149858899Y-98639272D01*
X150005581Y-98550439D01*
X150101105Y-98454915D01*
X150163417Y-98420889D01*
X150234232Y-98425954D01*
X150279295Y-98454915D01*
X150374819Y-98550439D01*
X150381321Y-98554376D01*
X150381320Y-98554376D01*
X150515001Y-98635336D01*
X150515004Y-98635337D01*
X150521501Y-98639272D01*
X150536381Y-98643935D01*
X150595402Y-98683394D01*
X150623722Y-98748498D01*
X150624700Y-98764169D01*
X150624700Y-99020069D01*
X150604698Y-99088190D01*
X150570970Y-99123282D01*
X150465519Y-99197119D01*
X150313519Y-99349119D01*
X150190224Y-99525204D01*
X150099378Y-99720023D01*
X150097956Y-99725331D01*
X150097955Y-99725333D01*
X150049907Y-99904651D01*
X150043742Y-99927658D01*
X150025007Y-100141800D01*
X150043742Y-100355942D01*
X150045166Y-100361255D01*
X150045166Y-100361257D01*
X150069698Y-100452809D01*
X150099378Y-100563577D01*
X150101700Y-100568557D01*
X150101701Y-100568559D01*
X150136382Y-100642931D01*
X150190224Y-100758396D01*
X150313519Y-100934481D01*
X150465519Y-101086481D01*
X150641603Y-101209776D01*
X150646581Y-101212097D01*
X150646584Y-101212099D01*
X150829953Y-101297605D01*
X150883238Y-101344522D01*
X150902699Y-101412800D01*
X150882157Y-101480759D01*
X150829953Y-101525995D01*
X150646585Y-101611501D01*
X150646582Y-101611503D01*
X150641604Y-101613824D01*
X150465519Y-101737119D01*
X150313519Y-101889119D01*
X150190224Y-102065204D01*
X150187903Y-102070182D01*
X150187901Y-102070185D01*
X150152772Y-102145519D01*
X150099378Y-102260023D01*
X150097956Y-102265331D01*
X150097955Y-102265333D01*
X150045166Y-102462343D01*
X150043742Y-102467658D01*
X150025007Y-102681800D01*
X150043742Y-102895942D01*
X150045166Y-102901255D01*
X150045166Y-102901257D01*
X150049091Y-102915903D01*
X150099378Y-103103577D01*
X150101700Y-103108557D01*
X150101701Y-103108559D01*
X150155869Y-103224721D01*
X150190224Y-103298396D01*
X150313519Y-103474481D01*
X150465519Y-103626481D01*
X150641603Y-103749776D01*
X150646581Y-103752097D01*
X150646584Y-103752099D01*
X150829953Y-103837605D01*
X150883238Y-103884522D01*
X150902699Y-103952800D01*
X150882157Y-104020759D01*
X150829953Y-104065995D01*
X150646585Y-104151501D01*
X150646582Y-104151503D01*
X150641604Y-104153824D01*
X150465519Y-104277119D01*
X150313519Y-104429119D01*
X150190224Y-104605204D01*
X150099378Y-104800023D01*
X150043742Y-105007658D01*
X150025007Y-105221800D01*
X150043742Y-105435942D01*
X150099378Y-105643577D01*
X150190224Y-105838396D01*
X150313519Y-106014481D01*
X150465519Y-106166481D01*
X150641603Y-106289776D01*
X150646581Y-106292097D01*
X150646584Y-106292099D01*
X150810573Y-106368568D01*
X150836423Y-106380622D01*
X150841731Y-106382044D01*
X150841733Y-106382045D01*
X151038743Y-106434834D01*
X151038745Y-106434834D01*
X151044058Y-106436258D01*
X151258200Y-106454993D01*
X151472342Y-106436258D01*
X151477655Y-106434834D01*
X151477657Y-106434834D01*
X151674667Y-106382045D01*
X151674669Y-106382044D01*
X151679977Y-106380622D01*
X151705827Y-106368568D01*
X151869816Y-106292099D01*
X151869819Y-106292097D01*
X151874797Y-106289776D01*
X152050881Y-106166481D01*
X152202881Y-106014481D01*
X152326176Y-105838396D01*
X152417022Y-105643577D01*
X152472658Y-105435942D01*
X152491393Y-105221800D01*
X152472658Y-105007658D01*
X152417022Y-104800023D01*
X152326176Y-104605204D01*
X152202881Y-104429119D01*
X152050881Y-104277119D01*
X151874797Y-104153824D01*
X151869819Y-104151503D01*
X151869816Y-104151501D01*
X151686447Y-104065995D01*
X151633162Y-104019078D01*
X151613701Y-103950800D01*
X151634243Y-103882841D01*
X151686447Y-103837605D01*
X151869816Y-103752099D01*
X151869819Y-103752097D01*
X151874797Y-103749776D01*
X152050881Y-103626481D01*
X152202881Y-103474481D01*
X152326176Y-103298396D01*
X152360532Y-103224721D01*
X152414699Y-103108559D01*
X152414700Y-103108557D01*
X152417022Y-103103577D01*
X152467310Y-102915903D01*
X152471234Y-102901257D01*
X152471234Y-102901255D01*
X152472658Y-102895942D01*
X152491393Y-102681800D01*
X152472658Y-102467658D01*
X152471234Y-102462343D01*
X152418445Y-102265333D01*
X152418444Y-102265331D01*
X152417022Y-102260023D01*
X152363628Y-102145519D01*
X152328499Y-102070185D01*
X152328497Y-102070182D01*
X152326176Y-102065204D01*
X152202881Y-101889119D01*
X152050881Y-101737119D01*
X151874797Y-101613824D01*
X151869819Y-101611503D01*
X151869816Y-101611501D01*
X151686447Y-101525995D01*
X151633162Y-101479078D01*
X151613701Y-101410800D01*
X151634243Y-101342841D01*
X151686447Y-101297605D01*
X151869816Y-101212099D01*
X151869819Y-101212097D01*
X151874797Y-101209776D01*
X152050881Y-101086481D01*
X152202881Y-100934481D01*
X152326176Y-100758396D01*
X152380019Y-100642931D01*
X152414699Y-100568559D01*
X152414700Y-100568557D01*
X152417022Y-100563577D01*
X152446703Y-100452809D01*
X152471234Y-100361257D01*
X152471234Y-100361255D01*
X152472658Y-100355942D01*
X152491393Y-100141800D01*
X152472658Y-99927658D01*
X152466493Y-99904651D01*
X152418445Y-99725333D01*
X152418444Y-99725331D01*
X152417022Y-99720023D01*
X152326176Y-99525204D01*
X152202881Y-99349119D01*
X152050881Y-99197119D01*
X151945430Y-99123282D01*
X151901101Y-99067825D01*
X151891700Y-99020069D01*
X151891700Y-98218724D01*
X151897466Y-98181045D01*
X151914952Y-98125246D01*
X151916953Y-98118862D01*
X151923700Y-98045435D01*
X151923699Y-97382166D01*
X151916953Y-97308738D01*
X151890822Y-97225354D01*
X151867944Y-97152350D01*
X151867943Y-97152348D01*
X151865672Y-97145101D01*
X151776839Y-96998419D01*
X151655581Y-96877161D01*
X151508899Y-96788328D01*
X151501652Y-96786057D01*
X151501650Y-96786056D01*
X151435364Y-96765283D01*
X151345262Y-96737047D01*
X151271835Y-96730300D01*
X151268937Y-96730300D01*
X151014535Y-96730301D01*
X150758566Y-96730301D01*
X150755708Y-96730564D01*
X150755699Y-96730564D01*
X150720196Y-96733826D01*
X150685138Y-96737047D01*
X150678760Y-96739046D01*
X150678759Y-96739046D01*
X150528750Y-96786056D01*
X150528748Y-96786057D01*
X150521501Y-96788328D01*
X150374819Y-96877161D01*
X150279295Y-96972685D01*
X150216983Y-97006711D01*
X150146168Y-97001646D01*
X150101105Y-96972685D01*
X150005581Y-96877161D01*
X149858899Y-96788328D01*
X149851652Y-96786057D01*
X149851650Y-96786056D01*
X149785364Y-96765283D01*
X149695262Y-96737047D01*
X149621835Y-96730300D01*
X149618937Y-96730300D01*
X149364535Y-96730301D01*
X149108566Y-96730301D01*
X149105708Y-96730564D01*
X149105699Y-96730564D01*
X149070196Y-96733826D01*
X149035138Y-96737047D01*
X149028760Y-96739046D01*
X149028759Y-96739046D01*
X148878750Y-96786056D01*
X148878748Y-96786057D01*
X148871501Y-96788328D01*
X148724819Y-96877161D01*
X148724418Y-96877562D01*
X148661254Y-96902746D01*
X148649454Y-96903300D01*
X147382068Y-96903300D01*
X147313947Y-96883298D01*
X147275948Y-96842169D01*
X147274770Y-96842931D01*
X147207565Y-96739048D01*
X147148964Y-96648465D01*
X146993087Y-96477158D01*
X146989036Y-96473959D01*
X146989032Y-96473955D01*
X146815377Y-96336811D01*
X146815372Y-96336808D01*
X146811323Y-96333610D01*
X146806808Y-96331117D01*
X146806795Y-96331109D01*
X146656801Y-96248308D01*
X146606831Y-96197876D01*
X146592059Y-96128433D01*
X146617175Y-96062028D01*
X146674206Y-96019743D01*
X146717695Y-96012000D01*
X149734000Y-96012000D01*
X149737346Y-96011640D01*
X149737351Y-96011640D01*
X149892607Y-95994949D01*
X149892613Y-95994948D01*
X149895971Y-95994587D01*
X149899272Y-95993869D01*
X149947850Y-95983302D01*
X149947880Y-95983295D01*
X149948313Y-95983201D01*
X149973812Y-95977193D01*
X150139086Y-95914051D01*
X150206683Y-95868039D01*
X150282309Y-95816563D01*
X150282314Y-95816559D01*
X150285345Y-95814496D01*
X150317059Y-95787016D01*
X150337729Y-95769106D01*
X150337746Y-95769090D01*
X150339001Y-95768003D01*
X150340204Y-95766843D01*
X150340219Y-95766830D01*
X150393170Y-95715803D01*
X150397016Y-95712097D01*
X150501916Y-95569624D01*
X150522061Y-95522236D01*
X150569698Y-95410174D01*
X150569699Y-95410170D01*
X150571132Y-95406800D01*
X150591134Y-95338679D01*
X150601460Y-95299729D01*
X150622000Y-95124000D01*
X150622000Y-87887655D01*
X173027858Y-87887655D01*
X173063104Y-88146638D01*
X173064412Y-88151124D01*
X173064412Y-88151126D01*
X173084098Y-88218664D01*
X173136243Y-88397567D01*
X173245668Y-88634928D01*
X173248231Y-88638837D01*
X173386410Y-88849596D01*
X173386414Y-88849601D01*
X173388976Y-88853509D01*
X173563018Y-89048506D01*
X173763970Y-89215637D01*
X173767973Y-89218066D01*
X173983422Y-89348804D01*
X173983426Y-89348806D01*
X173987419Y-89351229D01*
X174228455Y-89452303D01*
X174481783Y-89516641D01*
X174486434Y-89517109D01*
X174486438Y-89517110D01*
X174679308Y-89536531D01*
X174698867Y-89538500D01*
X179354354Y-89538500D01*
X179356679Y-89538327D01*
X179356685Y-89538327D01*
X179544000Y-89524407D01*
X179544004Y-89524406D01*
X179548652Y-89524061D01*
X179553200Y-89523032D01*
X179553206Y-89523031D01*
X179739601Y-89480853D01*
X179803577Y-89466377D01*
X179839769Y-89452303D01*
X180042824Y-89373340D01*
X180042827Y-89373339D01*
X180047177Y-89371647D01*
X180274098Y-89241951D01*
X180479357Y-89080138D01*
X180658443Y-88889763D01*
X180807424Y-88675009D01*
X180856729Y-88575029D01*
X180920960Y-88444781D01*
X180920961Y-88444778D01*
X180923025Y-88440593D01*
X180953462Y-88345509D01*
X181001280Y-88196123D01*
X181002707Y-88191665D01*
X181044721Y-87933693D01*
X181046210Y-87819942D01*
X181048081Y-87677022D01*
X181048081Y-87677019D01*
X181048142Y-87672345D01*
X181012896Y-87413362D01*
X180998473Y-87363877D01*
X180991902Y-87341336D01*
X180939757Y-87162433D01*
X180830332Y-86925072D01*
X180784966Y-86855877D01*
X180689590Y-86710404D01*
X180689586Y-86710399D01*
X180687024Y-86706491D01*
X180512982Y-86511494D01*
X180312030Y-86344363D01*
X180232154Y-86295893D01*
X180092578Y-86211196D01*
X180092574Y-86211194D01*
X180088581Y-86208771D01*
X179847545Y-86107697D01*
X179594217Y-86043359D01*
X179589566Y-86042891D01*
X179589562Y-86042890D01*
X179380271Y-86021816D01*
X179377133Y-86021500D01*
X174721646Y-86021500D01*
X174719321Y-86021673D01*
X174719315Y-86021673D01*
X174532000Y-86035593D01*
X174531996Y-86035594D01*
X174527348Y-86035939D01*
X174522800Y-86036968D01*
X174522794Y-86036969D01*
X174336399Y-86079147D01*
X174272423Y-86093623D01*
X174268071Y-86095315D01*
X174268069Y-86095316D01*
X174033176Y-86186660D01*
X174033173Y-86186661D01*
X174028823Y-86188353D01*
X173801902Y-86318049D01*
X173596643Y-86479862D01*
X173417557Y-86670237D01*
X173311884Y-86822563D01*
X173285681Y-86860335D01*
X173268576Y-86884991D01*
X173152975Y-87119407D01*
X173073293Y-87368335D01*
X173031279Y-87626307D01*
X173027858Y-87887655D01*
X150622000Y-87887655D01*
X150622000Y-82605442D01*
X150616823Y-82516771D01*
X150613411Y-82487649D01*
X150604545Y-82444220D01*
X150602851Y-82404389D01*
X150621574Y-82244202D01*
X150622000Y-82240558D01*
X150622000Y-78358000D01*
X150621640Y-78354649D01*
X150604949Y-78199393D01*
X150604948Y-78199387D01*
X150604587Y-78196029D01*
X150601594Y-78182271D01*
X150593302Y-78144150D01*
X150593292Y-78144106D01*
X150593201Y-78143687D01*
X150587193Y-78118188D01*
X150524051Y-77952914D01*
X150424496Y-77806655D01*
X150409783Y-77789676D01*
X150379106Y-77754271D01*
X150379090Y-77754254D01*
X150378003Y-77752999D01*
X150376843Y-77751796D01*
X150376830Y-77751781D01*
X150325803Y-77698830D01*
X150322097Y-77694984D01*
X150288040Y-77669908D01*
X150185536Y-77594437D01*
X150185537Y-77594437D01*
X150179624Y-77590084D01*
X150172872Y-77587214D01*
X150172869Y-77587212D01*
X150020174Y-77522302D01*
X150020170Y-77522301D01*
X150016800Y-77520868D01*
X150013281Y-77519835D01*
X150013279Y-77519834D01*
X149982201Y-77510709D01*
X149948679Y-77500866D01*
X149909729Y-77490540D01*
X149734000Y-77470000D01*
X124586000Y-77470000D01*
X124582654Y-77470360D01*
X124582649Y-77470360D01*
X124427393Y-77487051D01*
X124427387Y-77487052D01*
X124424029Y-77487413D01*
X124420729Y-77488131D01*
X124420728Y-77488131D01*
X124372150Y-77498698D01*
X124372120Y-77498705D01*
X124371687Y-77498799D01*
X124346188Y-77504807D01*
X124180914Y-77567949D01*
X124148395Y-77590084D01*
X124037691Y-77665437D01*
X124037686Y-77665441D01*
X124034655Y-77667504D01*
X124031881Y-77669908D01*
X123982271Y-77712894D01*
X123982254Y-77712910D01*
X123980999Y-77713997D01*
X123979796Y-77715157D01*
X123979781Y-77715170D01*
X123941790Y-77751781D01*
X123922984Y-77769903D01*
X123818084Y-77912376D01*
X123815214Y-77919128D01*
X123815212Y-77919131D01*
X123750302Y-78071826D01*
X123748868Y-78075200D01*
X123728866Y-78143321D01*
X123718540Y-78182271D01*
X123698000Y-78358000D01*
X123698000Y-95124000D01*
X81788000Y-95124000D01*
X81788000Y-93676269D01*
X116616295Y-93676269D01*
X116616592Y-93681422D01*
X116616592Y-93681425D01*
X116622267Y-93779841D01*
X116629627Y-93907497D01*
X116630764Y-93912543D01*
X116630765Y-93912549D01*
X116662941Y-94055323D01*
X116680546Y-94133442D01*
X116682488Y-94138224D01*
X116682489Y-94138228D01*
X116765740Y-94343250D01*
X116767684Y-94348037D01*
X116888701Y-94545519D01*
X117040347Y-94720584D01*
X117218549Y-94868530D01*
X117418522Y-94985384D01*
X117634894Y-95068009D01*
X117639960Y-95069040D01*
X117639961Y-95069040D01*
X117693046Y-95079840D01*
X117861856Y-95114185D01*
X117992524Y-95118976D01*
X118088149Y-95122483D01*
X118088153Y-95122483D01*
X118093313Y-95122672D01*
X118098433Y-95122016D01*
X118098435Y-95122016D01*
X118171470Y-95112660D01*
X118323047Y-95093242D01*
X118327995Y-95091757D01*
X118328002Y-95091756D01*
X118539947Y-95028169D01*
X118544890Y-95026686D01*
X118625436Y-94987227D01*
X118748249Y-94927062D01*
X118748252Y-94927060D01*
X118752884Y-94924791D01*
X118941443Y-94790294D01*
X119105503Y-94626805D01*
X119240658Y-94438717D01*
X119287841Y-94343250D01*
X119340984Y-94235722D01*
X119340985Y-94235720D01*
X119343278Y-94231080D01*
X119410608Y-94009471D01*
X119440840Y-93779841D01*
X119442527Y-93710800D01*
X119436232Y-93634234D01*
X119423973Y-93485118D01*
X119423972Y-93485112D01*
X119423549Y-93479967D01*
X119367125Y-93255333D01*
X119365066Y-93250597D01*
X119276830Y-93047668D01*
X119276828Y-93047665D01*
X119274770Y-93042931D01*
X119148964Y-92848465D01*
X118993087Y-92677158D01*
X118989036Y-92673959D01*
X118989032Y-92673955D01*
X118815377Y-92536811D01*
X118815372Y-92536808D01*
X118811323Y-92533610D01*
X118806807Y-92531117D01*
X118806804Y-92531115D01*
X118613079Y-92424173D01*
X118613075Y-92424171D01*
X118608555Y-92421676D01*
X118603686Y-92419952D01*
X118603682Y-92419950D01*
X118395103Y-92346088D01*
X118395099Y-92346087D01*
X118390228Y-92344362D01*
X118385135Y-92343455D01*
X118385132Y-92343454D01*
X118167295Y-92304651D01*
X118167289Y-92304650D01*
X118162206Y-92303745D01*
X118089296Y-92302854D01*
X117935781Y-92300979D01*
X117935779Y-92300979D01*
X117930611Y-92300916D01*
X117701664Y-92335950D01*
X117481514Y-92407906D01*
X117476926Y-92410294D01*
X117476922Y-92410296D01*
X117450265Y-92424173D01*
X117276072Y-92514852D01*
X117271939Y-92517955D01*
X117271936Y-92517957D01*
X117246825Y-92536811D01*
X117090855Y-92653917D01*
X116930839Y-92821364D01*
X116927925Y-92825636D01*
X116927924Y-92825637D01*
X116912352Y-92848465D01*
X116800319Y-93012699D01*
X116702802Y-93222781D01*
X116640907Y-93445969D01*
X116616295Y-93676269D01*
X81788000Y-93676269D01*
X81788000Y-87379655D01*
X82984858Y-87379655D01*
X83020104Y-87638638D01*
X83021412Y-87643124D01*
X83021412Y-87643126D01*
X83041098Y-87710664D01*
X83093243Y-87889567D01*
X83202668Y-88126928D01*
X83218533Y-88151126D01*
X83343410Y-88341596D01*
X83343414Y-88341601D01*
X83345976Y-88345509D01*
X83520018Y-88540506D01*
X83720970Y-88707637D01*
X83724973Y-88710066D01*
X83940422Y-88840804D01*
X83940426Y-88840806D01*
X83944419Y-88843229D01*
X84185455Y-88944303D01*
X84438783Y-89008641D01*
X84443434Y-89009109D01*
X84443438Y-89009110D01*
X84636308Y-89028531D01*
X84655867Y-89030500D01*
X89311354Y-89030500D01*
X89313679Y-89030327D01*
X89313685Y-89030327D01*
X89501000Y-89016407D01*
X89501004Y-89016406D01*
X89505652Y-89016061D01*
X89510200Y-89015032D01*
X89510206Y-89015031D01*
X89696601Y-88972853D01*
X89760577Y-88958377D01*
X89796769Y-88944303D01*
X89999824Y-88865340D01*
X89999827Y-88865339D01*
X90004177Y-88863647D01*
X90231098Y-88733951D01*
X90436357Y-88572138D01*
X90615443Y-88381763D01*
X90744227Y-88196123D01*
X90761759Y-88170851D01*
X90761761Y-88170848D01*
X90764424Y-88167009D01*
X90880025Y-87932593D01*
X90959707Y-87683665D01*
X91001721Y-87425693D01*
X91005142Y-87164345D01*
X90969896Y-86905362D01*
X90963959Y-86884991D01*
X90911930Y-86706491D01*
X90896757Y-86654433D01*
X90787332Y-86417072D01*
X90715856Y-86308053D01*
X90646590Y-86202404D01*
X90646586Y-86202399D01*
X90644024Y-86198491D01*
X90469982Y-86003494D01*
X90269030Y-85836363D01*
X90174205Y-85778822D01*
X90049578Y-85703196D01*
X90049574Y-85703194D01*
X90045581Y-85700771D01*
X89804545Y-85599697D01*
X89551217Y-85535359D01*
X89546566Y-85534891D01*
X89546562Y-85534890D01*
X89337271Y-85513816D01*
X89334133Y-85513500D01*
X84678646Y-85513500D01*
X84676321Y-85513673D01*
X84676315Y-85513673D01*
X84489000Y-85527593D01*
X84488996Y-85527594D01*
X84484348Y-85527939D01*
X84479800Y-85528968D01*
X84479794Y-85528969D01*
X84293399Y-85571147D01*
X84229423Y-85585623D01*
X84225071Y-85587315D01*
X84225069Y-85587316D01*
X83990176Y-85678660D01*
X83990173Y-85678661D01*
X83985823Y-85680353D01*
X83758902Y-85810049D01*
X83553643Y-85971862D01*
X83374557Y-86162237D01*
X83225576Y-86376991D01*
X83223510Y-86381181D01*
X83223508Y-86381184D01*
X83124890Y-86581163D01*
X83109975Y-86611407D01*
X83108553Y-86615850D01*
X83108552Y-86615852D01*
X83078286Y-86710404D01*
X83030293Y-86860335D01*
X82988279Y-87118307D01*
X82987676Y-87164345D01*
X82984946Y-87372959D01*
X82984858Y-87379655D01*
X81788000Y-87379655D01*
X81788000Y-84075000D01*
X82677000Y-84075000D01*
X82688609Y-84182980D01*
X82699995Y-84235322D01*
X82734293Y-84338372D01*
X82812465Y-84460010D01*
X82815407Y-84463405D01*
X82815409Y-84463408D01*
X82852135Y-84505792D01*
X82858958Y-84513666D01*
X82862352Y-84516607D01*
X82885786Y-84536913D01*
X82968234Y-84608355D01*
X83099760Y-84668421D01*
X83123514Y-84675396D01*
X83163558Y-84687154D01*
X83163562Y-84687155D01*
X83167881Y-84688423D01*
X83172329Y-84689063D01*
X83172336Y-84689064D01*
X83306552Y-84708361D01*
X83306559Y-84708362D01*
X83311000Y-84709000D01*
X91243790Y-84709000D01*
X91311911Y-84729002D01*
X91332885Y-84745905D01*
X91333885Y-84746905D01*
X91367911Y-84809217D01*
X91362846Y-84880032D01*
X91333885Y-84925095D01*
X91238361Y-85020619D01*
X91149528Y-85167301D01*
X91147257Y-85174548D01*
X91147256Y-85174550D01*
X91126483Y-85240836D01*
X91098247Y-85330938D01*
X91091500Y-85404365D01*
X91091501Y-85917634D01*
X91098247Y-85991062D01*
X91100246Y-85997440D01*
X91100246Y-85997441D01*
X91142648Y-86132744D01*
X91149528Y-86154699D01*
X91238361Y-86301381D01*
X91359619Y-86422639D01*
X91506301Y-86511472D01*
X91513548Y-86513743D01*
X91513550Y-86513744D01*
X91534005Y-86520154D01*
X91669938Y-86562753D01*
X91743365Y-86569500D01*
X91746263Y-86569500D01*
X92075860Y-86569499D01*
X92406634Y-86569499D01*
X92409492Y-86569236D01*
X92409501Y-86569236D01*
X92445004Y-86565974D01*
X92480062Y-86562753D01*
X92486447Y-86560752D01*
X92636450Y-86513744D01*
X92636452Y-86513743D01*
X92643699Y-86511472D01*
X92790381Y-86422639D01*
X92816927Y-86396093D01*
X92879239Y-86362067D01*
X92950054Y-86367132D01*
X92995039Y-86396014D01*
X93016134Y-86417072D01*
X93027947Y-86428864D01*
X93034177Y-86432704D01*
X93034178Y-86432705D01*
X93065514Y-86452020D01*
X93172308Y-86517849D01*
X93179256Y-86520154D01*
X93179257Y-86520154D01*
X93326738Y-86569072D01*
X93326740Y-86569072D01*
X93333269Y-86571238D01*
X93433428Y-86581500D01*
X93967572Y-86581500D01*
X93970818Y-86581163D01*
X93970822Y-86581163D01*
X94004603Y-86577658D01*
X94068982Y-86570978D01*
X94229849Y-86517308D01*
X94374055Y-86428071D01*
X94493864Y-86308053D01*
X94500867Y-86296693D01*
X94556177Y-86206962D01*
X94582849Y-86163692D01*
X94622380Y-86044511D01*
X94634072Y-86009262D01*
X94634072Y-86009260D01*
X94636238Y-86002731D01*
X94646500Y-85902572D01*
X94646500Y-85293428D01*
X94635978Y-85192018D01*
X94582308Y-85031151D01*
X94501956Y-84901303D01*
X94483119Y-84832851D01*
X94504280Y-84765081D01*
X94558721Y-84719510D01*
X94609101Y-84709000D01*
X99696000Y-84709000D01*
X99803980Y-84697391D01*
X99807264Y-84696677D01*
X99807268Y-84696676D01*
X99832339Y-84691222D01*
X99856322Y-84686005D01*
X99959372Y-84651707D01*
X100081010Y-84573535D01*
X100084639Y-84570391D01*
X100131273Y-84529982D01*
X100134666Y-84527042D01*
X100146257Y-84513666D01*
X100174254Y-84481355D01*
X100229355Y-84417766D01*
X100289421Y-84286240D01*
X100309423Y-84218119D01*
X100310064Y-84213664D01*
X100329361Y-84079448D01*
X100329362Y-84079441D01*
X100330000Y-84075000D01*
X100330000Y-82538434D01*
X111748661Y-82538434D01*
X111748833Y-82541829D01*
X111748833Y-82541830D01*
X111752149Y-82607293D01*
X111766792Y-82896340D01*
X111767329Y-82899695D01*
X111767330Y-82899701D01*
X111772316Y-82930828D01*
X111823470Y-83250195D01*
X111918033Y-83595859D01*
X112049374Y-83929288D01*
X112080151Y-83987909D01*
X112211730Y-84238530D01*
X112215957Y-84246582D01*
X112217858Y-84249411D01*
X112217864Y-84249421D01*
X112390740Y-84506686D01*
X112415834Y-84544029D01*
X112646665Y-84818150D01*
X112905751Y-85065738D01*
X113190061Y-85283897D01*
X113222056Y-85303350D01*
X113493355Y-85468303D01*
X113493360Y-85468306D01*
X113496270Y-85470075D01*
X113499358Y-85471521D01*
X113499357Y-85471521D01*
X113817710Y-85620649D01*
X113817720Y-85620653D01*
X113820794Y-85622093D01*
X113824012Y-85623195D01*
X113824015Y-85623196D01*
X114156615Y-85737071D01*
X114156623Y-85737073D01*
X114159838Y-85738174D01*
X114509435Y-85816959D01*
X114561728Y-85822917D01*
X114862114Y-85857142D01*
X114862122Y-85857142D01*
X114865497Y-85857527D01*
X114868901Y-85857545D01*
X114868904Y-85857545D01*
X115063227Y-85858562D01*
X115223857Y-85859403D01*
X115227243Y-85859053D01*
X115227245Y-85859053D01*
X115576932Y-85822917D01*
X115576941Y-85822916D01*
X115580324Y-85822566D01*
X115583657Y-85821852D01*
X115583660Y-85821851D01*
X115808268Y-85773699D01*
X115930727Y-85747446D01*
X116270968Y-85634922D01*
X116597066Y-85486311D01*
X116858744Y-85330938D01*
X116902262Y-85305099D01*
X116902267Y-85305096D01*
X116905207Y-85303350D01*
X116922751Y-85290178D01*
X117076752Y-85174550D01*
X117191786Y-85088180D01*
X117453451Y-84843319D01*
X117687140Y-84571630D01*
X117817491Y-84381968D01*
X117888190Y-84279101D01*
X117888195Y-84279094D01*
X117890120Y-84276292D01*
X117891732Y-84273298D01*
X117891737Y-84273290D01*
X118058395Y-83963772D01*
X118060017Y-83960760D01*
X118194842Y-83628724D01*
X118205142Y-83592568D01*
X118225527Y-83521006D01*
X118293020Y-83284070D01*
X118353401Y-82930828D01*
X118355511Y-82896340D01*
X118375168Y-82574928D01*
X118375278Y-82573131D01*
X118375359Y-82550000D01*
X118355979Y-82192159D01*
X118298066Y-81838505D01*
X118202297Y-81493173D01*
X118199243Y-81485497D01*
X118071052Y-81163369D01*
X118069793Y-81160205D01*
X118039768Y-81103498D01*
X117903702Y-80846513D01*
X117903698Y-80846506D01*
X117902103Y-80843494D01*
X117701190Y-80546746D01*
X117469403Y-80273432D01*
X117209454Y-80026750D01*
X116924384Y-79809585D01*
X116921472Y-79807828D01*
X116921467Y-79807825D01*
X116620443Y-79626236D01*
X116620437Y-79626233D01*
X116617528Y-79624478D01*
X116292475Y-79473593D01*
X116122752Y-79416145D01*
X115956255Y-79359789D01*
X115956250Y-79359788D01*
X115953028Y-79358697D01*
X115754681Y-79314724D01*
X115606493Y-79281871D01*
X115606487Y-79281870D01*
X115603158Y-79281132D01*
X115599769Y-79280758D01*
X115599764Y-79280757D01*
X115250338Y-79242180D01*
X115250333Y-79242180D01*
X115246957Y-79241807D01*
X115243558Y-79241801D01*
X115243557Y-79241801D01*
X115074080Y-79241505D01*
X114888592Y-79241182D01*
X114775413Y-79253277D01*
X114535639Y-79278901D01*
X114535631Y-79278902D01*
X114532256Y-79279263D01*
X114182117Y-79355606D01*
X113842271Y-79469317D01*
X113839178Y-79470739D01*
X113839177Y-79470740D01*
X113832974Y-79473593D01*
X113516694Y-79619066D01*
X113209193Y-79803101D01*
X113206467Y-79805163D01*
X113206465Y-79805164D01*
X113200620Y-79809585D01*
X112923367Y-80019270D01*
X112662559Y-80265043D01*
X112429819Y-80537546D01*
X112427900Y-80540358D01*
X112427897Y-80540363D01*
X112334624Y-80677097D01*
X112227871Y-80833591D01*
X112059077Y-81149714D01*
X111925411Y-81482218D01*
X111924491Y-81485492D01*
X111924489Y-81485497D01*
X111922332Y-81493173D01*
X111828437Y-81827213D01*
X111769290Y-82180663D01*
X111748661Y-82538434D01*
X100330000Y-82538434D01*
X100330000Y-74167000D01*
X100318391Y-74059020D01*
X100307005Y-74006678D01*
X100279956Y-73925409D01*
X100275197Y-73911109D01*
X100275197Y-73911108D01*
X100272707Y-73903628D01*
X100194535Y-73781990D01*
X100184245Y-73770114D01*
X100150982Y-73731727D01*
X100148042Y-73728334D01*
X100129213Y-73712018D01*
X100121214Y-73705087D01*
X100038766Y-73633645D01*
X99907240Y-73573579D01*
X99883486Y-73566604D01*
X99843442Y-73554846D01*
X99843438Y-73554845D01*
X99839119Y-73553577D01*
X99834671Y-73552937D01*
X99834664Y-73552936D01*
X99700448Y-73533639D01*
X99700441Y-73533638D01*
X99696000Y-73533000D01*
X83311000Y-73533000D01*
X83203020Y-73544609D01*
X83199736Y-73545323D01*
X83199732Y-73545324D01*
X83174661Y-73550778D01*
X83150678Y-73555995D01*
X83047628Y-73590293D01*
X82925990Y-73668465D01*
X82872334Y-73714958D01*
X82869393Y-73718352D01*
X82857803Y-73731727D01*
X82777645Y-73824234D01*
X82717579Y-73955760D01*
X82697577Y-74023881D01*
X82696937Y-74028329D01*
X82696936Y-74028336D01*
X82677639Y-74162552D01*
X82677638Y-74162559D01*
X82677000Y-74167000D01*
X82677000Y-84075000D01*
X81788000Y-84075000D01*
X81788000Y-67988434D01*
X92686661Y-67988434D01*
X92704792Y-68346340D01*
X92705329Y-68349695D01*
X92705330Y-68349701D01*
X92710316Y-68380828D01*
X92761470Y-68700195D01*
X92856033Y-69045859D01*
X92987374Y-69379288D01*
X93153957Y-69696582D01*
X93155858Y-69699411D01*
X93155864Y-69699421D01*
X93339569Y-69972800D01*
X93353834Y-69994029D01*
X93584665Y-70268150D01*
X93843751Y-70515738D01*
X94128061Y-70733897D01*
X94160056Y-70753350D01*
X94431355Y-70918303D01*
X94431360Y-70918306D01*
X94434270Y-70920075D01*
X94437358Y-70921521D01*
X94437357Y-70921521D01*
X94755710Y-71070649D01*
X94755720Y-71070653D01*
X94758794Y-71072093D01*
X94762012Y-71073195D01*
X94762015Y-71073196D01*
X95094615Y-71187071D01*
X95094623Y-71187073D01*
X95097838Y-71188174D01*
X95447435Y-71266959D01*
X95499728Y-71272917D01*
X95800114Y-71307142D01*
X95800122Y-71307142D01*
X95803497Y-71307527D01*
X95806901Y-71307545D01*
X95806904Y-71307545D01*
X96001227Y-71308562D01*
X96161857Y-71309403D01*
X96165243Y-71309053D01*
X96165245Y-71309053D01*
X96514932Y-71272917D01*
X96514941Y-71272916D01*
X96518324Y-71272566D01*
X96521657Y-71271852D01*
X96521660Y-71271851D01*
X96694186Y-71234864D01*
X96868727Y-71197446D01*
X97208968Y-71084922D01*
X97535066Y-70936311D01*
X97629052Y-70880506D01*
X97840262Y-70755099D01*
X97840267Y-70755096D01*
X97843207Y-70753350D01*
X98129786Y-70538180D01*
X98391451Y-70293319D01*
X98625140Y-70021630D01*
X98731750Y-69866512D01*
X98826190Y-69729101D01*
X98826195Y-69729094D01*
X98828120Y-69726292D01*
X98829732Y-69723298D01*
X98829737Y-69723290D01*
X98996395Y-69413772D01*
X98998017Y-69410760D01*
X99132842Y-69078724D01*
X99143142Y-69042568D01*
X99163527Y-68971006D01*
X99231020Y-68734070D01*
X99291401Y-68380828D01*
X99293511Y-68346340D01*
X99313168Y-68024928D01*
X99313278Y-68023131D01*
X99313359Y-68000000D01*
X99293979Y-67642159D01*
X99236066Y-67288505D01*
X99140297Y-66943173D01*
X99137243Y-66935497D01*
X99009052Y-66613369D01*
X99007793Y-66610205D01*
X98977768Y-66553498D01*
X98841702Y-66296513D01*
X98841698Y-66296506D01*
X98840103Y-66293494D01*
X98639190Y-65996746D01*
X98620441Y-65974637D01*
X98543506Y-65883919D01*
X98407403Y-65723432D01*
X98147454Y-65476750D01*
X97862384Y-65259585D01*
X97859472Y-65257828D01*
X97859467Y-65257825D01*
X97558443Y-65076236D01*
X97558437Y-65076233D01*
X97555528Y-65074478D01*
X97298400Y-64955123D01*
X97233571Y-64925030D01*
X97233569Y-64925029D01*
X97230475Y-64923593D01*
X97060752Y-64866145D01*
X96894255Y-64809789D01*
X96894250Y-64809788D01*
X96891028Y-64808697D01*
X96692681Y-64764724D01*
X96544493Y-64731871D01*
X96544487Y-64731870D01*
X96541158Y-64731132D01*
X96537769Y-64730758D01*
X96537764Y-64730757D01*
X96188338Y-64692180D01*
X96188333Y-64692180D01*
X96184957Y-64691807D01*
X96181558Y-64691801D01*
X96181557Y-64691801D01*
X96012080Y-64691505D01*
X95826592Y-64691182D01*
X95713413Y-64703277D01*
X95473639Y-64728901D01*
X95473631Y-64728902D01*
X95470256Y-64729263D01*
X95120117Y-64805606D01*
X94780271Y-64919317D01*
X94777178Y-64920739D01*
X94777177Y-64920740D01*
X94770974Y-64923593D01*
X94454694Y-65069066D01*
X94451760Y-65070822D01*
X94451758Y-65070823D01*
X94236599Y-65199593D01*
X94147193Y-65253101D01*
X94144467Y-65255163D01*
X94144465Y-65255164D01*
X93960987Y-65393928D01*
X93861367Y-65469270D01*
X93600559Y-65715043D01*
X93367819Y-65987546D01*
X93365900Y-65990358D01*
X93365897Y-65990363D01*
X93285785Y-66107804D01*
X93165871Y-66283591D01*
X92997077Y-66599714D01*
X92863411Y-66932218D01*
X92862491Y-66935492D01*
X92862489Y-66935497D01*
X92860332Y-66943173D01*
X92766437Y-67277213D01*
X92707290Y-67630663D01*
X92686661Y-67988434D01*
X81788000Y-67988434D01*
X81788000Y-51996207D01*
X81789746Y-51975303D01*
X81792264Y-51960335D01*
X81793071Y-51955539D01*
X81793224Y-51943000D01*
X81792535Y-51938187D01*
X81792218Y-51933328D01*
X81792506Y-51933309D01*
X81792105Y-51906570D01*
X81802332Y-51815803D01*
X81808611Y-51788296D01*
X81846196Y-51680884D01*
X81858438Y-51655463D01*
X81880702Y-51620031D01*
X81918985Y-51559103D01*
X81936577Y-51537044D01*
X82017044Y-51456577D01*
X82039103Y-51438985D01*
X82087389Y-51408645D01*
X82135465Y-51378437D01*
X82160884Y-51366196D01*
X82268296Y-51328611D01*
X82295803Y-51322332D01*
X82331103Y-51318354D01*
X82383258Y-51312478D01*
X82398900Y-51311695D01*
X82407856Y-51311804D01*
X82416730Y-51313186D01*
X82448252Y-51309064D01*
X82464589Y-51308000D01*
X82651277Y-51308000D01*
X82719398Y-51328002D01*
G37*
G04 #@! TD.AperFunction*
G04 #@! TA.AperFunction,Conductor*
G36*
X153231121Y-51836002D02*
G01*
X153277614Y-51889658D01*
X153289000Y-51942000D01*
X153289000Y-72645000D01*
X153268998Y-72713121D01*
X153215342Y-72759614D01*
X153163000Y-72771000D01*
X144525000Y-72771000D01*
X144456879Y-72750998D01*
X144410386Y-72697342D01*
X144399000Y-72645000D01*
X144399000Y-51942000D01*
X144419002Y-51873879D01*
X144472658Y-51827386D01*
X144525000Y-51816000D01*
X153163000Y-51816000D01*
X153231121Y-51836002D01*
G37*
G04 #@! TD.AperFunction*
G04 #@! TA.AperFunction,Conductor*
G36*
X181298121Y-74315002D02*
G01*
X181344614Y-74368658D01*
X181356000Y-74421000D01*
X181356000Y-83948000D01*
X181335998Y-84016121D01*
X181282342Y-84062614D01*
X181230000Y-84074000D01*
X164845000Y-84074000D01*
X164776879Y-84053998D01*
X164730386Y-84000342D01*
X164719000Y-83948000D01*
X164719000Y-74421000D01*
X164739002Y-74352879D01*
X164792658Y-74306386D01*
X164845000Y-74295000D01*
X181230000Y-74295000D01*
X181298121Y-74315002D01*
G37*
G04 #@! TD.AperFunction*
G04 #@! TA.AperFunction,Conductor*
G36*
X99256121Y-97683002D02*
G01*
X99302614Y-97736658D01*
X99314000Y-97789000D01*
X99314000Y-107316000D01*
X99293998Y-107384121D01*
X99240342Y-107430614D01*
X99188000Y-107442000D01*
X82803000Y-107442000D01*
X82734879Y-107421998D01*
X82688386Y-107368342D01*
X82677000Y-107316000D01*
X82677000Y-97789000D01*
X82697002Y-97720879D01*
X82750658Y-97674386D01*
X82803000Y-97663000D01*
X99188000Y-97663000D01*
X99256121Y-97683002D01*
G37*
G04 #@! TD.AperFunction*
G04 #@! TA.AperFunction,Conductor*
G36*
X117860863Y-103398002D02*
G01*
X117907356Y-103451658D01*
X117917460Y-103521932D01*
X117887966Y-103586512D01*
X117828240Y-103624896D01*
X117811801Y-103628550D01*
X117685965Y-103647806D01*
X117675937Y-103650195D01*
X117451630Y-103723509D01*
X117442120Y-103727506D01*
X117288913Y-103807261D01*
X117278743Y-103817035D01*
X117281168Y-103823953D01*
X118016388Y-104559173D01*
X118030332Y-104566787D01*
X118032165Y-104566656D01*
X118038780Y-104562405D01*
X118771765Y-103829420D01*
X118778525Y-103817040D01*
X118773711Y-103810610D01*
X118649893Y-103742258D01*
X118640496Y-103738035D01*
X118418044Y-103659261D01*
X118408073Y-103656627D01*
X118247624Y-103628047D01*
X118184066Y-103596409D01*
X118147703Y-103535432D01*
X118150080Y-103464475D01*
X118190441Y-103406067D01*
X118255973Y-103378752D01*
X118269720Y-103378000D01*
X145792742Y-103378000D01*
X145860863Y-103398002D01*
X145907356Y-103451658D01*
X145917460Y-103521932D01*
X145887966Y-103586512D01*
X145828240Y-103624896D01*
X145811801Y-103628550D01*
X145685965Y-103647806D01*
X145675937Y-103650195D01*
X145451630Y-103723509D01*
X145442120Y-103727506D01*
X145288913Y-103807261D01*
X145278743Y-103817035D01*
X145281168Y-103823953D01*
X146304000Y-104846785D01*
X146304000Y-105374815D01*
X145286948Y-106391867D01*
X145280188Y-106404247D01*
X145285469Y-106411301D01*
X145375255Y-106463768D01*
X145384543Y-106468218D01*
X145605008Y-106552405D01*
X145614906Y-106555281D01*
X145846162Y-106602330D01*
X145856390Y-106603549D01*
X146092223Y-106612198D01*
X146102509Y-106611731D01*
X146161990Y-106604111D01*
X146232100Y-106615295D01*
X146285034Y-106662608D01*
X146304000Y-106729090D01*
X146304000Y-114682000D01*
X146283998Y-114750121D01*
X146230342Y-114796614D01*
X146178000Y-114808000D01*
X133157734Y-114808000D01*
X133089613Y-114787998D01*
X133043120Y-114734342D01*
X133034134Y-114657527D01*
X133070409Y-114474321D01*
X133071387Y-114467364D01*
X133099430Y-114133421D01*
X133099643Y-114129055D01*
X133100773Y-114048178D01*
X133100682Y-114043828D01*
X133081974Y-113709220D01*
X133081190Y-113702230D01*
X133025528Y-113373137D01*
X133023967Y-113366266D01*
X132931964Y-113045415D01*
X132929656Y-113038787D01*
X132802455Y-112730172D01*
X132799426Y-112723852D01*
X132638617Y-112431340D01*
X132634894Y-112425384D01*
X132468524Y-112189538D01*
X132457956Y-112181151D01*
X132444629Y-112188186D01*
X130137095Y-114495720D01*
X130074783Y-114529746D01*
X130003968Y-114524681D01*
X129958905Y-114495720D01*
X127651917Y-112188732D01*
X127639806Y-112182119D01*
X127628188Y-112190946D01*
X127483990Y-112389418D01*
X127480173Y-112395340D01*
X127315307Y-112685555D01*
X127312181Y-112691853D01*
X127180692Y-112998642D01*
X127178286Y-113005252D01*
X127081811Y-113324791D01*
X127080161Y-113331612D01*
X127019905Y-113659916D01*
X127019023Y-113666899D01*
X126995741Y-113999858D01*
X126995643Y-114006903D01*
X127009620Y-114340384D01*
X127010305Y-114347374D01*
X127059123Y-114662724D01*
X127049778Y-114733103D01*
X127003866Y-114787257D01*
X126934606Y-114808000D01*
X115696000Y-114808000D01*
X115627879Y-114787998D01*
X115581386Y-114734342D01*
X115570000Y-114682000D01*
X115570000Y-111635212D01*
X128182492Y-111635212D01*
X128189593Y-111648778D01*
X130035188Y-113494373D01*
X130049132Y-113501987D01*
X130050965Y-113501856D01*
X130057580Y-113497605D01*
X131905807Y-111649378D01*
X131912348Y-111637400D01*
X131903335Y-111625624D01*
X131686628Y-111470476D01*
X131680703Y-111466717D01*
X131389336Y-111303878D01*
X131383018Y-111300796D01*
X131075310Y-111171447D01*
X131068695Y-111169091D01*
X130748476Y-111074846D01*
X130741654Y-111073246D01*
X130412924Y-111015282D01*
X130405952Y-111014451D01*
X130072830Y-110993492D01*
X130065799Y-110993443D01*
X129732402Y-111009749D01*
X129725424Y-111010483D01*
X129395930Y-111063849D01*
X129389070Y-111065357D01*
X129067565Y-111155123D01*
X129060930Y-111157382D01*
X128751437Y-111282425D01*
X128745093Y-111285410D01*
X128451471Y-111444171D01*
X128445482Y-111447855D01*
X128190854Y-111624825D01*
X128182492Y-111635212D01*
X115570000Y-111635212D01*
X115570000Y-106404247D01*
X117280188Y-106404247D01*
X117285469Y-106411301D01*
X117375255Y-106463768D01*
X117384543Y-106468218D01*
X117605008Y-106552405D01*
X117614906Y-106555281D01*
X117846162Y-106602330D01*
X117856390Y-106603549D01*
X118092223Y-106612198D01*
X118102509Y-106611731D01*
X118336588Y-106581744D01*
X118346674Y-106579601D01*
X118572716Y-106511785D01*
X118575230Y-106510800D01*
X136661559Y-106510800D01*
X136682090Y-106771677D01*
X136683244Y-106776484D01*
X136683245Y-106776490D01*
X136721725Y-106936766D01*
X136743179Y-107026129D01*
X136843321Y-107267893D01*
X136980050Y-107491015D01*
X137150000Y-107690000D01*
X137348985Y-107859950D01*
X137572107Y-107996679D01*
X137576677Y-107998572D01*
X137576681Y-107998574D01*
X137809298Y-108094927D01*
X137813871Y-108096821D01*
X137903234Y-108118275D01*
X138063510Y-108156755D01*
X138063516Y-108156756D01*
X138068323Y-108157910D01*
X138329200Y-108178441D01*
X138590077Y-108157910D01*
X138594884Y-108156756D01*
X138594890Y-108156755D01*
X138755166Y-108118275D01*
X138844529Y-108096821D01*
X138849102Y-108094927D01*
X139081719Y-107998574D01*
X139081723Y-107998572D01*
X139086293Y-107996679D01*
X139309415Y-107859950D01*
X139508400Y-107690000D01*
X139678350Y-107491015D01*
X139815079Y-107267893D01*
X139915221Y-107026129D01*
X139936675Y-106936766D01*
X139975155Y-106776490D01*
X139975156Y-106776484D01*
X139976310Y-106771677D01*
X139996841Y-106510800D01*
X140461559Y-106510800D01*
X140482090Y-106771677D01*
X140483244Y-106776484D01*
X140483245Y-106776490D01*
X140521725Y-106936766D01*
X140543179Y-107026129D01*
X140643321Y-107267893D01*
X140780050Y-107491015D01*
X140950000Y-107690000D01*
X141148985Y-107859950D01*
X141372107Y-107996679D01*
X141376677Y-107998572D01*
X141376681Y-107998574D01*
X141609298Y-108094927D01*
X141613871Y-108096821D01*
X141703234Y-108118275D01*
X141863510Y-108156755D01*
X141863516Y-108156756D01*
X141868323Y-108157910D01*
X142129200Y-108178441D01*
X142390077Y-108157910D01*
X142394884Y-108156756D01*
X142394890Y-108156755D01*
X142555166Y-108118275D01*
X142644529Y-108096821D01*
X142649102Y-108094927D01*
X142881719Y-107998574D01*
X142881723Y-107998572D01*
X142886293Y-107996679D01*
X143109415Y-107859950D01*
X143308400Y-107690000D01*
X143478350Y-107491015D01*
X143615079Y-107267893D01*
X143715221Y-107026129D01*
X143736675Y-106936766D01*
X143775155Y-106776490D01*
X143775156Y-106776484D01*
X143776310Y-106771677D01*
X143796841Y-106510800D01*
X143776310Y-106249923D01*
X143775156Y-106245116D01*
X143775155Y-106245110D01*
X143716376Y-106000283D01*
X143715221Y-105995471D01*
X143713327Y-105990898D01*
X143616974Y-105758281D01*
X143616972Y-105758277D01*
X143615079Y-105753707D01*
X143478350Y-105530585D01*
X143308400Y-105331600D01*
X143109415Y-105161650D01*
X142974919Y-105079231D01*
X144526812Y-105079231D01*
X144540396Y-105314828D01*
X144541832Y-105325048D01*
X144593713Y-105555255D01*
X144596792Y-105565084D01*
X144685580Y-105783741D01*
X144690225Y-105792937D01*
X144725604Y-105850670D01*
X144736060Y-105860131D01*
X144744838Y-105856347D01*
X145477573Y-105123612D01*
X145485187Y-105109668D01*
X145485056Y-105107835D01*
X145480805Y-105101220D01*
X144745463Y-104365878D01*
X144733927Y-104359579D01*
X144722700Y-104368375D01*
X144720055Y-104373032D01*
X144620694Y-104587085D01*
X144617140Y-104596745D01*
X144554070Y-104824169D01*
X144552143Y-104834273D01*
X144527064Y-105068942D01*
X144526812Y-105079231D01*
X142974919Y-105079231D01*
X142886293Y-105024921D01*
X142881723Y-105023028D01*
X142881719Y-105023026D01*
X142649102Y-104926673D01*
X142649100Y-104926672D01*
X142644529Y-104924779D01*
X142555166Y-104903325D01*
X142394890Y-104864845D01*
X142394884Y-104864844D01*
X142390077Y-104863690D01*
X142129200Y-104843159D01*
X141868323Y-104863690D01*
X141863516Y-104864844D01*
X141863510Y-104864845D01*
X141703234Y-104903325D01*
X141613871Y-104924779D01*
X141609300Y-104926672D01*
X141609298Y-104926673D01*
X141376681Y-105023026D01*
X141376677Y-105023028D01*
X141372107Y-105024921D01*
X141148985Y-105161650D01*
X140950000Y-105331600D01*
X140780050Y-105530585D01*
X140643321Y-105753707D01*
X140641428Y-105758277D01*
X140641426Y-105758281D01*
X140545073Y-105990898D01*
X140543179Y-105995471D01*
X140542024Y-106000283D01*
X140483245Y-106245110D01*
X140483244Y-106245116D01*
X140482090Y-106249923D01*
X140461559Y-106510800D01*
X139996841Y-106510800D01*
X139976310Y-106249923D01*
X139975156Y-106245116D01*
X139975155Y-106245110D01*
X139916376Y-106000283D01*
X139915221Y-105995471D01*
X139913327Y-105990898D01*
X139816974Y-105758281D01*
X139816972Y-105758277D01*
X139815079Y-105753707D01*
X139678350Y-105530585D01*
X139508400Y-105331600D01*
X139309415Y-105161650D01*
X139086293Y-105024921D01*
X139081723Y-105023028D01*
X139081719Y-105023026D01*
X138849102Y-104926673D01*
X138849100Y-104926672D01*
X138844529Y-104924779D01*
X138755166Y-104903325D01*
X138594890Y-104864845D01*
X138594884Y-104864844D01*
X138590077Y-104863690D01*
X138329200Y-104843159D01*
X138068323Y-104863690D01*
X138063516Y-104864844D01*
X138063510Y-104864845D01*
X137903234Y-104903325D01*
X137813871Y-104924779D01*
X137809300Y-104926672D01*
X137809298Y-104926673D01*
X137576681Y-105023026D01*
X137576677Y-105023028D01*
X137572107Y-105024921D01*
X137348985Y-105161650D01*
X137150000Y-105331600D01*
X136980050Y-105530585D01*
X136843321Y-105753707D01*
X136841428Y-105758277D01*
X136841426Y-105758281D01*
X136745073Y-105990898D01*
X136743179Y-105995471D01*
X136742024Y-106000283D01*
X136683245Y-106245110D01*
X136683244Y-106245116D01*
X136682090Y-106249923D01*
X136661559Y-106510800D01*
X118575230Y-106510800D01*
X118582293Y-106508032D01*
X118770953Y-106415608D01*
X118781358Y-106406086D01*
X118779297Y-106399712D01*
X118042012Y-105662427D01*
X118028068Y-105654813D01*
X118026235Y-105654944D01*
X118019620Y-105659195D01*
X117286948Y-106391867D01*
X117280188Y-106404247D01*
X115570000Y-106404247D01*
X115570000Y-105079231D01*
X116526812Y-105079231D01*
X116540396Y-105314828D01*
X116541832Y-105325048D01*
X116593713Y-105555255D01*
X116596792Y-105565084D01*
X116685580Y-105783741D01*
X116690225Y-105792937D01*
X116725604Y-105850670D01*
X116736060Y-105860131D01*
X116744838Y-105856347D01*
X117477573Y-105123612D01*
X117483951Y-105111932D01*
X118573213Y-105111932D01*
X118573344Y-105113765D01*
X118577595Y-105120380D01*
X119312945Y-105855730D01*
X119325325Y-105862490D01*
X119330758Y-105858423D01*
X119424485Y-105668783D01*
X119428283Y-105659190D01*
X119496885Y-105433393D01*
X119499062Y-105423323D01*
X119530102Y-105187550D01*
X119530621Y-105180875D01*
X119532252Y-105114164D01*
X119532058Y-105107447D01*
X119512574Y-104870450D01*
X119510891Y-104860288D01*
X119453400Y-104631404D01*
X119450079Y-104621649D01*
X119355981Y-104405241D01*
X119351106Y-104396149D01*
X119334063Y-104369803D01*
X119323378Y-104360600D01*
X119313812Y-104365003D01*
X118580827Y-105097988D01*
X118573213Y-105111932D01*
X117483951Y-105111932D01*
X117485187Y-105109668D01*
X117485056Y-105107835D01*
X117480805Y-105101220D01*
X116745463Y-104365878D01*
X116733927Y-104359579D01*
X116722700Y-104368375D01*
X116720055Y-104373032D01*
X116620694Y-104587085D01*
X116617140Y-104596745D01*
X116554070Y-104824169D01*
X116552143Y-104834273D01*
X116527064Y-105068942D01*
X116526812Y-105079231D01*
X115570000Y-105079231D01*
X115570000Y-103504000D01*
X115590002Y-103435879D01*
X115643658Y-103389386D01*
X115696000Y-103378000D01*
X117792742Y-103378000D01*
X117860863Y-103398002D01*
G37*
G04 #@! TD.AperFunction*
G04 #@! TA.AperFunction,Conductor*
G36*
X99510121Y-51963002D02*
G01*
X99556614Y-52016658D01*
X99568000Y-52069000D01*
X99568000Y-61723000D01*
X99547998Y-61791121D01*
X99494342Y-61837614D01*
X99442000Y-61849000D01*
X83057000Y-61849000D01*
X82988879Y-61828998D01*
X82942386Y-61775342D01*
X82931000Y-61723000D01*
X82931000Y-52069000D01*
X82951002Y-52000879D01*
X83004658Y-51954386D01*
X83057000Y-51943000D01*
X99442000Y-51943000D01*
X99510121Y-51963002D01*
G37*
G04 #@! TD.AperFunction*
G04 #@! TA.AperFunction,Conductor*
G36*
X118814121Y-51836002D02*
G01*
X118860614Y-51889658D01*
X118872000Y-51942000D01*
X118872000Y-72645000D01*
X118851998Y-72713121D01*
X118798342Y-72759614D01*
X118746000Y-72771000D01*
X110108000Y-72771000D01*
X110039879Y-72750998D01*
X109993386Y-72697342D01*
X109982000Y-72645000D01*
X109982000Y-51942000D01*
X110002002Y-51873879D01*
X110055658Y-51827386D01*
X110108000Y-51816000D01*
X118746000Y-51816000D01*
X118814121Y-51836002D01*
G37*
G04 #@! TD.AperFunction*
M02*
