G04 #@! TF.GenerationSoftware,KiCad,Pcbnew,(6.0.1)*
G04 #@! TF.CreationDate,2022-02-13T17:33:35-07:00*
G04 #@! TF.ProjectId,MinesRobotics_PDB,4d696e65-7352-46f6-926f-746963735f50,rev?*
G04 #@! TF.SameCoordinates,Original*
G04 #@! TF.FileFunction,Soldermask,Bot*
G04 #@! TF.FilePolarity,Negative*
%FSLAX46Y46*%
G04 Gerber Fmt 4.6, Leading zero omitted, Abs format (unit mm)*
G04 Created by KiCad (PCBNEW (6.0.1)) date 2022-02-13 17:33:35*
%MOMM*%
%LPD*%
G01*
G04 APERTURE LIST*
G04 Aperture macros list*
%AMRoundRect*
0 Rectangle with rounded corners*
0 $1 Rounding radius*
0 $2 $3 $4 $5 $6 $7 $8 $9 X,Y pos of 4 corners*
0 Add a 4 corners polygon primitive as box body*
4,1,4,$2,$3,$4,$5,$6,$7,$8,$9,$2,$3,0*
0 Add four circle primitives for the rounded corners*
1,1,$1+$1,$2,$3*
1,1,$1+$1,$4,$5*
1,1,$1+$1,$6,$7*
1,1,$1+$1,$8,$9*
0 Add four rect primitives between the rounded corners*
20,1,$1+$1,$2,$3,$4,$5,0*
20,1,$1+$1,$4,$5,$6,$7,0*
20,1,$1+$1,$6,$7,$8,$9,0*
20,1,$1+$1,$8,$9,$2,$3,0*%
G04 Aperture macros list end*
%ADD10C,2.882000*%
%ADD11C,5.702000*%
%ADD12O,7.102000X2.602000*%
%ADD13O,2.602000X7.102000*%
%ADD14C,1.902000*%
%ADD15C,2.602000*%
%ADD16C,1.542000*%
%ADD17RoundRect,0.301000X-0.600000X-0.750000X0.600000X-0.750000X0.600000X0.750000X-0.600000X0.750000X0*%
%ADD18O,1.802000X2.102000*%
%ADD19RoundRect,0.276000X0.250000X-0.225000X0.250000X0.225000X-0.250000X0.225000X-0.250000X-0.225000X0*%
%ADD20RoundRect,0.276000X0.225000X0.250000X-0.225000X0.250000X-0.225000X-0.250000X0.225000X-0.250000X0*%
%ADD21RoundRect,0.276000X-0.225000X-0.250000X0.225000X-0.250000X0.225000X0.250000X-0.225000X0.250000X0*%
G04 APERTURE END LIST*
D10*
X159403400Y-108862600D03*
X159403400Y-105462600D03*
X169323400Y-105462600D03*
X169323400Y-108862600D03*
X138042000Y-73200000D03*
X138042000Y-69800000D03*
X147962000Y-69800000D03*
X147962000Y-73200000D03*
X159040000Y-86200000D03*
X159040000Y-82800000D03*
X168960000Y-82800000D03*
X168960000Y-86200000D03*
X104883600Y-75084200D03*
X104883600Y-78484200D03*
X94963600Y-78484200D03*
X94963600Y-75084200D03*
X159555800Y-101191800D03*
X159555800Y-97791800D03*
X169475800Y-97791800D03*
X169475800Y-101191800D03*
X138040000Y-65700000D03*
X138040000Y-62300000D03*
X147960000Y-62300000D03*
X147960000Y-65700000D03*
X159040000Y-78700000D03*
X159040000Y-75300000D03*
X168960000Y-75300000D03*
X168960000Y-78700000D03*
X104883600Y-82729600D03*
X104883600Y-86129600D03*
X94963600Y-86129600D03*
X94963600Y-82729600D03*
X104680400Y-106046800D03*
X104680400Y-109446800D03*
X94760400Y-109446800D03*
X94760400Y-106046800D03*
X125305200Y-69978800D03*
X125305200Y-73378800D03*
X115385200Y-73378800D03*
X115385200Y-69978800D03*
X158616000Y-57072000D03*
X158616000Y-53672000D03*
X168536000Y-53672000D03*
X168536000Y-57072000D03*
X105206800Y-61292000D03*
X105206800Y-64692000D03*
X95286800Y-64692000D03*
X95286800Y-61292000D03*
X104705800Y-98553800D03*
X104705800Y-101953800D03*
X94785800Y-101953800D03*
X94785800Y-98553800D03*
X125305200Y-62460400D03*
X125305200Y-65860400D03*
X115385200Y-65860400D03*
X115385200Y-62460400D03*
X158616000Y-64692000D03*
X158616000Y-61292000D03*
X168536000Y-61292000D03*
X168536000Y-64692000D03*
X105156000Y-53672000D03*
X105156000Y-57072000D03*
X95236000Y-57072000D03*
X95236000Y-53672000D03*
D11*
X102870000Y-69850000D03*
D12*
X86995000Y-111275000D03*
X86995000Y-103355000D03*
D13*
X146962000Y-55626000D03*
X139042000Y-55626000D03*
D12*
X86995000Y-56619000D03*
X86995000Y-64539000D03*
D11*
X158500000Y-70000000D03*
D12*
X177038000Y-79860000D03*
X177038000Y-87780000D03*
D13*
X124460000Y-55500000D03*
X116540000Y-55500000D03*
D12*
X177038000Y-103101000D03*
X177038000Y-111021000D03*
D11*
X146050000Y-82423000D03*
X115062000Y-82423000D03*
D14*
X118029200Y-89910800D03*
X118029200Y-97510800D03*
D15*
X118029200Y-105110800D03*
X146029200Y-105110800D03*
D14*
X146029200Y-101310800D03*
X146029200Y-97510800D03*
X146029200Y-93710800D03*
D15*
X146029200Y-89910800D03*
D14*
X138329200Y-106510800D03*
X142129200Y-106510800D03*
X118029200Y-93710800D03*
D16*
X151258200Y-100141800D03*
X151258200Y-102681800D03*
X151258200Y-105221800D03*
D11*
X130048000Y-114046000D03*
X167000000Y-115000000D03*
D12*
X177038000Y-56619000D03*
X177038000Y-64539000D03*
X86995000Y-79352000D03*
X86995000Y-87272000D03*
D11*
X96000000Y-115000000D03*
D17*
X130000000Y-81280000D03*
D18*
X132500000Y-81280000D03*
D19*
X146020000Y-88028600D03*
X146020000Y-86478600D03*
D20*
X117310200Y-87807800D03*
X115760200Y-87807800D03*
D21*
X119951200Y-90093800D03*
X121501200Y-90093800D03*
D20*
X144255000Y-89895200D03*
X142705000Y-89895200D03*
D21*
X119951200Y-88315800D03*
X121501200Y-88315800D03*
G36*
X182246444Y-118744558D02*
G01*
X182314494Y-118764800D01*
X182360797Y-118818619D01*
X182372000Y-118870557D01*
X182372000Y-125596813D01*
X182371393Y-125609163D01*
X182351254Y-125813638D01*
X182346435Y-125837864D01*
X182288597Y-126028530D01*
X182279145Y-126051350D01*
X182185220Y-126227072D01*
X182171497Y-126247610D01*
X182045095Y-126401630D01*
X182027630Y-126419095D01*
X181873610Y-126545497D01*
X181853072Y-126559220D01*
X181677350Y-126653145D01*
X181654530Y-126662597D01*
X181463864Y-126720435D01*
X181439638Y-126725254D01*
X181235163Y-126745393D01*
X181222813Y-126746000D01*
X82429187Y-126746000D01*
X82416837Y-126745393D01*
X82212362Y-126725254D01*
X82188136Y-126720435D01*
X81997470Y-126662597D01*
X81974650Y-126653145D01*
X81798928Y-126559220D01*
X81778390Y-126545497D01*
X81624370Y-126419095D01*
X81606905Y-126401630D01*
X81480503Y-126247610D01*
X81466780Y-126227072D01*
X81372855Y-126051350D01*
X81363403Y-126028530D01*
X81305565Y-125837864D01*
X81300746Y-125813638D01*
X81280607Y-125609163D01*
X81280000Y-125596813D01*
X81280000Y-118871000D01*
X81300002Y-118802879D01*
X81353658Y-118756386D01*
X81406000Y-118745000D01*
X115444000Y-118745000D01*
X115512121Y-118765002D01*
X115558614Y-118818658D01*
X115570000Y-118871000D01*
X115570000Y-125711885D01*
X115574475Y-125727124D01*
X115575865Y-125728329D01*
X115583548Y-125730000D01*
X146285885Y-125730000D01*
X146301124Y-125725525D01*
X146302329Y-125724135D01*
X146304000Y-125716452D01*
X146304000Y-118744444D01*
X146324002Y-118676323D01*
X146377658Y-118629830D01*
X146430444Y-118618445D01*
X182246444Y-118744558D01*
G37*
G36*
X144754864Y-90156037D02*
G01*
X144755477Y-90157023D01*
X144808547Y-90355081D01*
X144836783Y-90415634D01*
X144836608Y-90417626D01*
X144834796Y-90418471D01*
X144833404Y-90417723D01*
X144791134Y-90364513D01*
X144725574Y-90342183D01*
X144658188Y-90358883D01*
X144650726Y-90364637D01*
X144650413Y-90364835D01*
X144615440Y-90382655D01*
X144613443Y-90382550D01*
X144612535Y-90380768D01*
X144613421Y-90379210D01*
X144673719Y-90338919D01*
X144733106Y-90250042D01*
X144751583Y-90157151D01*
X144752902Y-90155647D01*
X144754864Y-90156037D01*
G37*
G36*
X144901342Y-89265783D02*
G01*
X144901353Y-89267495D01*
X144808547Y-89466519D01*
X144757932Y-89655415D01*
X144756518Y-89656829D01*
X144754586Y-89656311D01*
X144754000Y-89654897D01*
X144754000Y-89645399D01*
X144733106Y-89540358D01*
X144673719Y-89451481D01*
X144613419Y-89411189D01*
X144612534Y-89409395D01*
X144613645Y-89407732D01*
X144615438Y-89407744D01*
X144642220Y-89421390D01*
X144642285Y-89421437D01*
X144642287Y-89421434D01*
X144703589Y-89454906D01*
X144772671Y-89449966D01*
X144828269Y-89408345D01*
X144841327Y-89386491D01*
X144896537Y-89267551D01*
X144896699Y-89267266D01*
X144897888Y-89265523D01*
X144899690Y-89264656D01*
X144901342Y-89265783D01*
G37*
G36*
X145596992Y-88461158D02*
G01*
X145665158Y-88506706D01*
X145770199Y-88527600D01*
X146269801Y-88527600D01*
X146374842Y-88506706D01*
X146443008Y-88461158D01*
X146445004Y-88461027D01*
X146446115Y-88462690D01*
X146445533Y-88464235D01*
X146423478Y-88486290D01*
X146390144Y-88547339D01*
X146395084Y-88616421D01*
X146436676Y-88671981D01*
X146452453Y-88680425D01*
X146453508Y-88682124D01*
X146452564Y-88683887D01*
X146450991Y-88684120D01*
X146254764Y-88631541D01*
X146029200Y-88611807D01*
X145803636Y-88631541D01*
X145585053Y-88690111D01*
X145583121Y-88689593D01*
X145582603Y-88687661D01*
X145583403Y-88686530D01*
X145629099Y-88655166D01*
X145655948Y-88591323D01*
X145643997Y-88522971D01*
X145620669Y-88490437D01*
X145594467Y-88464235D01*
X145593949Y-88462303D01*
X145595363Y-88460889D01*
X145596992Y-88461158D01*
G37*
M02*
