M48
; DRILL file {KiCad (6.0.1)} date Sun 13 Feb 2022 04:01:37 PM MST
; FORMAT={-:-/ absolute / metric / decimal}
; #@! TF.CreationDate,2022-02-13T16:01:37-07:00
; #@! TF.GenerationSoftware,Kicad,Pcbnew,(6.0.1)
; #@! TF.FileFunction,Plated,1,2,PTH
FMAT,2
METRIC
; #@! TA.AperFunction,Plated,PTH,ViaDrill
T1C0.400
; #@! TA.AperFunction,Plated,PTH,ComponentDrill
T2C0.800
; #@! TA.AperFunction,Plated,PTH,ComponentDrill
T3C1.000
; #@! TA.AperFunction,Plated,PTH,ComponentDrill
T4C1.200
; #@! TA.AperFunction,Plated,PTH,ComponentDrill
T5C1.270
; #@! TA.AperFunction,Plated,PTH,ComponentDrill
T6C1.500
; #@! TA.AperFunction,Plated,PTH,ComponentDrill
T7C2.000
; #@! TA.AperFunction,Plated,PTH,ComponentDrill
T8C3.200
%
G90
G05
T1
X119.634Y-107.95
X119.634Y-109.22
X119.634Y-110.49
X119.634Y-112.014
X119.634Y-113.538
X121.158Y-107.95
X121.158Y-109.22
X121.158Y-110.49
X121.158Y-112.014
X121.158Y-113.538
X122.682Y-107.95
X122.682Y-109.22
X122.682Y-110.49
X122.682Y-112.014
X122.682Y-113.538
X127.0Y-103.378
X127.0Y-104.902
X127.0Y-106.426
X128.27Y-103.378
X128.27Y-104.902
X128.27Y-106.426
X129.54Y-103.378
X129.54Y-104.902
X129.54Y-106.426
X131.064Y-103.378
X131.064Y-104.902
X131.064Y-106.426
X132.588Y-103.378
X132.588Y-104.902
X132.588Y-106.426
X134.112Y-103.378
X134.112Y-104.902
X134.112Y-106.426
X138.684Y-108.966
X138.684Y-110.236
X138.684Y-111.506
X138.684Y-113.03
X138.684Y-114.554
X140.208Y-108.966
X140.208Y-110.236
X140.208Y-111.506
X140.208Y-113.03
X140.208Y-114.554
X141.732Y-108.966
X141.732Y-110.236
X141.732Y-111.506
X141.732Y-113.03
X141.732Y-114.554
T2
X151.258Y-100.142
X151.258Y-102.682
X151.258Y-105.222
T3
X130.0Y-81.28
X132.5Y-81.28
T4
X118.029Y-89.911
X118.029Y-93.711
X118.029Y-97.511
X138.329Y-106.511
X142.129Y-106.511
X146.029Y-93.711
X146.029Y-97.511
X146.029Y-101.311
T6
X118.029Y-105.111
X146.029Y-89.911
X146.029Y-105.111
T8
X96.0Y-68.0
X96.0Y-115.0
X115.062Y-82.55
X130.048Y-114.046
X146.05Y-82.423
X167.0Y-68.0
X167.0Y-115.0
T5
X85.015Y-56.619G85X88.975Y-56.619
G05
X85.015Y-64.539G85X88.975Y-64.539
G05
X85.015Y-79.352G85X88.975Y-79.352
G05
X85.015Y-87.272G85X88.975Y-87.272
G05
X85.015Y-103.355G85X88.975Y-103.355
G05
X85.015Y-111.275G85X88.975Y-111.275
G05
X116.182Y-57.733G85X116.182Y-53.773
G05
X124.102Y-57.733G85X124.102Y-53.773
G05
X139.042Y-53.646G85X139.042Y-57.606
G05
X146.962Y-53.646G85X146.962Y-57.606
G05
X175.058Y-56.619G85X179.018Y-56.619
G05
X175.058Y-64.539G85X179.018Y-64.539
G05
X175.058Y-79.86G85X179.018Y-79.86
G05
X175.058Y-87.78G85X179.018Y-87.78
G05
X175.058Y-103.101G85X179.018Y-103.101
G05
X175.058Y-111.021G85X179.018Y-111.021
G05
T7
X96.395Y-54.745G85X94.895Y-54.745
G05
X96.395Y-59.69G85X94.895Y-59.69
G05
X96.795Y-77.055G85X95.295Y-77.055
G05
X96.795Y-82.0G85X95.295Y-82.0
G05
X96.89Y-100.465G85X95.39Y-100.465
G05
X96.89Y-105.41G85X95.39Y-105.41
G05
X104.395Y-54.745G85X102.895Y-54.745
G05
X104.395Y-59.69G85X102.895Y-59.69
G05
X104.795Y-77.055G85X103.295Y-77.055
G05
X104.795Y-82.0G85X103.295Y-82.0
G05
X104.89Y-100.465G85X103.39Y-100.465
G05
X104.89Y-105.41G85X103.39Y-105.41
G05
X104.393Y-65.54G85X105.893Y-65.54
G05
X104.393Y-70.485G85X105.893Y-70.485
G05
X112.393Y-65.54G85X113.893Y-65.54
G05
X112.393Y-70.485G85X113.893Y-70.485
G05
X149.989Y-64.786G85X148.489Y-64.786
G05
X149.989Y-70.231G85X148.489Y-70.231
G05
X157.989Y-64.786G85X156.489Y-64.786
G05
X157.989Y-70.231G85X156.489Y-70.231
G05
X158.895Y-54.11G85X160.395Y-54.11
G05
X158.955Y-59.055G85X160.455Y-59.055
G05
X159.13Y-76.99G85X160.63Y-76.99
G05
X159.13Y-81.935G85X160.63Y-81.935
G05
X159.27Y-100.465G85X160.77Y-100.465
G05
X159.27Y-105.435G85X160.77Y-105.435
G05
X166.895Y-54.11G85X168.395Y-54.11
G05
X166.955Y-59.055G85X168.455Y-59.055
G05
X167.13Y-76.99G85X168.63Y-76.99
G05
X167.13Y-81.935G85X168.63Y-81.935
G05
X167.27Y-100.465G85X168.77Y-100.465
G05
X167.27Y-105.435G85X168.77Y-105.435
G05
T0
M30
