G04 #@! TF.GenerationSoftware,KiCad,Pcbnew,(6.0.1)*
G04 #@! TF.CreationDate,2022-02-16T22:07:21-07:00*
G04 #@! TF.ProjectId,MinesRobotics_PDB,4d696e65-7352-46f6-926f-746963735f50,rev?*
G04 #@! TF.SameCoordinates,Original*
G04 #@! TF.FileFunction,Paste,Top*
G04 #@! TF.FilePolarity,Positive*
%FSLAX46Y46*%
G04 Gerber Fmt 4.6, Leading zero omitted, Abs format (unit mm)*
G04 Created by KiCad (PCBNEW (6.0.1)) date 2022-02-16 22:07:21*
%MOMM*%
%LPD*%
G01*
G04 APERTURE LIST*
G04 Aperture macros list*
%AMRoundRect*
0 Rectangle with rounded corners*
0 $1 Rounding radius*
0 $2 $3 $4 $5 $6 $7 $8 $9 X,Y pos of 4 corners*
0 Add a 4 corners polygon primitive as box body*
4,1,4,$2,$3,$4,$5,$6,$7,$8,$9,$2,$3,0*
0 Add four circle primitives for the rounded corners*
1,1,$1+$1,$2,$3*
1,1,$1+$1,$4,$5*
1,1,$1+$1,$6,$7*
1,1,$1+$1,$8,$9*
0 Add four rect primitives between the rounded corners*
20,1,$1+$1,$2,$3,$4,$5,0*
20,1,$1+$1,$4,$5,$6,$7,0*
20,1,$1+$1,$6,$7,$8,$9,0*
20,1,$1+$1,$8,$9,$2,$3,0*%
G04 Aperture macros list end*
G04 #@! TA.AperFunction,Profile*
%ADD10C,0.150000*%
G04 #@! TD*
%ADD11RoundRect,0.250000X-0.262500X-0.450000X0.262500X-0.450000X0.262500X0.450000X-0.262500X0.450000X0*%
%ADD12RoundRect,0.243750X-0.456250X0.243750X-0.456250X-0.243750X0.456250X-0.243750X0.456250X0.243750X0*%
%ADD13RoundRect,0.243750X0.243750X0.456250X-0.243750X0.456250X-0.243750X-0.456250X0.243750X-0.456250X0*%
%ADD14RoundRect,0.250000X-0.450000X0.262500X-0.450000X-0.262500X0.450000X-0.262500X0.450000X0.262500X0*%
%ADD15RoundRect,0.243750X-0.243750X-0.456250X0.243750X-0.456250X0.243750X0.456250X-0.243750X0.456250X0*%
%ADD16RoundRect,0.250000X0.450000X-0.262500X0.450000X0.262500X-0.450000X0.262500X-0.450000X-0.262500X0*%
%ADD17RoundRect,0.250000X0.262500X0.450000X-0.262500X0.450000X-0.262500X-0.450000X0.262500X-0.450000X0*%
G04 APERTURE END LIST*
D10*
X181229000Y-126746000D02*
G75*
G03*
X182372000Y-125603000I0J1143000D01*
G01*
X82423000Y-50800000D02*
G75*
G03*
X81280000Y-51943000I0J-1143000D01*
G01*
X181229000Y-50800000D02*
X82423000Y-50800000D01*
X82423000Y-126746000D02*
X181229000Y-126746000D01*
X81280000Y-51943000D02*
X81280000Y-125603000D01*
X182372000Y-51943000D02*
G75*
G03*
X181229000Y-50800000I-1143000J0D01*
G01*
X81280000Y-125603000D02*
G75*
G03*
X82423000Y-126746000I1143000J0D01*
G01*
X182372000Y-125603000D02*
X182372000Y-51943000D01*
D11*
X108561500Y-68072000D03*
X110386500Y-68072000D03*
D12*
X154432000Y-75770500D03*
X154432000Y-77645500D03*
X108966000Y-70182500D03*
X108966000Y-72057500D03*
D13*
X168577500Y-69596000D03*
X166702500Y-69596000D03*
D14*
X176960000Y-72603500D03*
X176960000Y-74428500D03*
D13*
X88567500Y-95500000D03*
X86692500Y-95500000D03*
D11*
X112807900Y-97636800D03*
X114632900Y-97636800D03*
D15*
X175846500Y-94742000D03*
X177721500Y-94742000D03*
D16*
X92561600Y-69548900D03*
X92561600Y-67723900D03*
D17*
X154396500Y-73612400D03*
X152571500Y-73612400D03*
D15*
X94566500Y-69500000D03*
X96441500Y-69500000D03*
D13*
X86789500Y-71628000D03*
X84914500Y-71628000D03*
D14*
X173909200Y-95205100D03*
X173909200Y-97030100D03*
D11*
X149709500Y-97536000D03*
X151534500Y-97536000D03*
D15*
X178894500Y-72500000D03*
X180769500Y-72500000D03*
D16*
X170421000Y-69523500D03*
X170421000Y-67698500D03*
D14*
X90170000Y-71731500D03*
X90170000Y-73556500D03*
X90540000Y-95603500D03*
X90540000Y-97428500D03*
M02*
