G04 #@! TF.GenerationSoftware,KiCad,Pcbnew,(6.0.1)*
G04 #@! TF.CreationDate,2022-02-16T22:07:23-07:00*
G04 #@! TF.ProjectId,MinesRobotics_PDB,4d696e65-7352-46f6-926f-746963735f50,rev?*
G04 #@! TF.SameCoordinates,Original*
G04 #@! TF.FileFunction,AssemblyDrawing,Bot*
%FSLAX46Y46*%
G04 Gerber Fmt 4.6, Leading zero omitted, Abs format (unit mm)*
G04 Created by KiCad (PCBNEW (6.0.1)) date 2022-02-16 22:07:23*
%MOMM*%
%LPD*%
G01*
G04 APERTURE LIST*
G04 #@! TA.AperFunction,Profile*
%ADD10C,0.150000*%
G04 #@! TD*
%ADD11C,0.150000*%
%ADD12C,0.060000*%
%ADD13C,0.100000*%
G04 APERTURE END LIST*
D10*
X181229000Y-126746000D02*
G75*
G03*
X182372000Y-125603000I0J1143000D01*
G01*
X82423000Y-50800000D02*
G75*
G03*
X81280000Y-51943000I0J-1143000D01*
G01*
X181229000Y-50800000D02*
X82423000Y-50800000D01*
X82423000Y-126746000D02*
X181229000Y-126746000D01*
X81280000Y-51943000D02*
X81280000Y-125603000D01*
X182372000Y-51943000D02*
G75*
G03*
X181229000Y-50800000I-1143000J0D01*
G01*
X81280000Y-125603000D02*
G75*
G03*
X82423000Y-126746000I1143000J0D01*
G01*
X182372000Y-125603000D02*
X182372000Y-51943000D01*
D11*
X146815619Y-88955714D02*
X146768000Y-89003333D01*
X146720380Y-89098571D01*
X146720380Y-89336666D01*
X146768000Y-89431904D01*
X146815619Y-89479523D01*
X146910857Y-89527142D01*
X147006095Y-89527142D01*
X147148952Y-89479523D01*
X147720380Y-88908095D01*
X147720380Y-89527142D01*
X146815619Y-89908095D02*
X146768000Y-89955714D01*
X146720380Y-90050952D01*
X146720380Y-90289047D01*
X146768000Y-90384285D01*
X146815619Y-90431904D01*
X146910857Y-90479523D01*
X147006095Y-90479523D01*
X147148952Y-90431904D01*
X147720380Y-89860476D01*
X147720380Y-90479523D01*
X147053714Y-91336666D02*
X147720380Y-91336666D01*
X147053714Y-90908095D02*
X147577523Y-90908095D01*
X147672761Y-90955714D01*
X147720380Y-91050952D01*
X147720380Y-91193809D01*
X147672761Y-91289047D01*
X147625142Y-91336666D01*
X150725142Y-90003333D02*
X150772761Y-89955714D01*
X150820380Y-89812857D01*
X150820380Y-89717619D01*
X150772761Y-89574761D01*
X150677523Y-89479523D01*
X150582285Y-89431904D01*
X150391809Y-89384285D01*
X150248952Y-89384285D01*
X150058476Y-89431904D01*
X149963238Y-89479523D01*
X149868000Y-89574761D01*
X149820380Y-89717619D01*
X149820380Y-89812857D01*
X149868000Y-89955714D01*
X149915619Y-90003333D01*
X149820380Y-90336666D02*
X149820380Y-90955714D01*
X150201333Y-90622380D01*
X150201333Y-90765238D01*
X150248952Y-90860476D01*
X150296571Y-90908095D01*
X150391809Y-90955714D01*
X150629904Y-90955714D01*
X150725142Y-90908095D01*
X150772761Y-90860476D01*
X150820380Y-90765238D01*
X150820380Y-90479523D01*
X150772761Y-90384285D01*
X150725142Y-90336666D01*
D12*
X116601866Y-87950657D02*
X116620914Y-87969704D01*
X116678057Y-87988752D01*
X116716152Y-87988752D01*
X116773295Y-87969704D01*
X116811390Y-87931609D01*
X116830438Y-87893514D01*
X116849485Y-87817323D01*
X116849485Y-87760180D01*
X116830438Y-87683990D01*
X116811390Y-87645895D01*
X116773295Y-87607800D01*
X116716152Y-87588752D01*
X116678057Y-87588752D01*
X116620914Y-87607800D01*
X116601866Y-87626847D01*
X116468533Y-87588752D02*
X116201866Y-87588752D01*
X116373295Y-87988752D01*
D11*
X125071142Y-93559333D02*
X125118761Y-93511714D01*
X125166380Y-93368857D01*
X125166380Y-93273619D01*
X125118761Y-93130761D01*
X125023523Y-93035523D01*
X124928285Y-92987904D01*
X124737809Y-92940285D01*
X124594952Y-92940285D01*
X124404476Y-92987904D01*
X124309238Y-93035523D01*
X124214000Y-93130761D01*
X124166380Y-93273619D01*
X124166380Y-93368857D01*
X124214000Y-93511714D01*
X124261619Y-93559333D01*
X125166380Y-94511714D02*
X125166380Y-93940285D01*
X125166380Y-94226000D02*
X124166380Y-94226000D01*
X124309238Y-94130761D01*
X124404476Y-94035523D01*
X124452095Y-93940285D01*
D12*
X143546666Y-90038057D02*
X143565714Y-90057104D01*
X143622857Y-90076152D01*
X143660952Y-90076152D01*
X143718095Y-90057104D01*
X143756190Y-90019009D01*
X143775238Y-89980914D01*
X143794285Y-89904723D01*
X143794285Y-89847580D01*
X143775238Y-89771390D01*
X143756190Y-89733295D01*
X143718095Y-89695200D01*
X143660952Y-89676152D01*
X143622857Y-89676152D01*
X143565714Y-89695200D01*
X143546666Y-89714247D01*
X143394285Y-89714247D02*
X143375238Y-89695200D01*
X143337142Y-89676152D01*
X143241904Y-89676152D01*
X143203809Y-89695200D01*
X143184761Y-89714247D01*
X143165714Y-89752342D01*
X143165714Y-89790438D01*
X143184761Y-89847580D01*
X143413333Y-90076152D01*
X143165714Y-90076152D01*
X115636666Y-91582857D02*
X115655714Y-91601904D01*
X115712857Y-91620952D01*
X115750952Y-91620952D01*
X115808095Y-91601904D01*
X115846190Y-91563809D01*
X115865238Y-91525714D01*
X115884285Y-91449523D01*
X115884285Y-91392380D01*
X115865238Y-91316190D01*
X115846190Y-91278095D01*
X115808095Y-91240000D01*
X115750952Y-91220952D01*
X115712857Y-91220952D01*
X115655714Y-91240000D01*
X115636666Y-91259047D01*
X115408095Y-91392380D02*
X115446190Y-91373333D01*
X115465238Y-91354285D01*
X115484285Y-91316190D01*
X115484285Y-91297142D01*
X115465238Y-91259047D01*
X115446190Y-91240000D01*
X115408095Y-91220952D01*
X115331904Y-91220952D01*
X115293809Y-91240000D01*
X115274761Y-91259047D01*
X115255714Y-91297142D01*
X115255714Y-91316190D01*
X115274761Y-91354285D01*
X115293809Y-91373333D01*
X115331904Y-91392380D01*
X115408095Y-91392380D01*
X115446190Y-91411428D01*
X115465238Y-91430476D01*
X115484285Y-91468571D01*
X115484285Y-91544761D01*
X115465238Y-91582857D01*
X115446190Y-91601904D01*
X115408095Y-91620952D01*
X115331904Y-91620952D01*
X115293809Y-91601904D01*
X115274761Y-91582857D01*
X115255714Y-91544761D01*
X115255714Y-91468571D01*
X115274761Y-91430476D01*
X115293809Y-91411428D01*
X115331904Y-91392380D01*
D13*
X152518000Y-92820000D02*
X151518000Y-93820000D01*
X151518000Y-93820000D02*
X148218000Y-93820000D01*
X148218000Y-86520000D02*
X152518000Y-86520000D01*
X148218000Y-93820000D02*
X148218000Y-86520000D01*
X152518000Y-86520000D02*
X152518000Y-92820000D01*
X115735200Y-87407800D02*
X115735200Y-88207800D01*
X117335200Y-88207800D02*
X117335200Y-87407800D01*
X117335200Y-87407800D02*
X115735200Y-87407800D01*
X115735200Y-88207800D02*
X117335200Y-88207800D01*
X123014000Y-89167675D02*
X123014000Y-90167675D01*
X119564000Y-98876000D02*
X129864000Y-98876000D01*
X119564000Y-89576000D02*
X119564000Y-98876000D01*
X129864000Y-89576000D02*
X129864000Y-98876000D01*
X122514000Y-89667675D02*
X123514000Y-89667675D01*
X120564000Y-88576000D02*
X119564000Y-89576000D01*
X120564000Y-88576000D02*
X128864000Y-88576000D01*
X128864000Y-88576000D02*
X129864000Y-89576000D01*
X129714000Y-93726000D02*
G75*
G03*
X129714000Y-93726000I-5000000J0D01*
G01*
X142680000Y-90295200D02*
X144280000Y-90295200D01*
X142680000Y-89495200D02*
X142680000Y-90295200D01*
X144280000Y-90295200D02*
X144280000Y-89495200D01*
X144280000Y-89495200D02*
X142680000Y-89495200D01*
X114770000Y-91840000D02*
X116370000Y-91840000D01*
X116370000Y-91840000D02*
X116370000Y-91040000D01*
X116370000Y-91040000D02*
X114770000Y-91040000D01*
X114770000Y-91040000D02*
X114770000Y-91840000D01*
M02*
