G04 #@! TF.GenerationSoftware,KiCad,Pcbnew,(6.0.1)*
G04 #@! TF.CreationDate,2022-02-16T22:07:20-07:00*
G04 #@! TF.ProjectId,MinesRobotics_PDB,4d696e65-7352-46f6-926f-746963735f50,rev?*
G04 #@! TF.SameCoordinates,Original*
G04 #@! TF.FileFunction,Copper,L1,Top*
G04 #@! TF.FilePolarity,Positive*
%FSLAX46Y46*%
G04 Gerber Fmt 4.6, Leading zero omitted, Abs format (unit mm)*
G04 Created by KiCad (PCBNEW (6.0.1)) date 2022-02-16 22:07:20*
%MOMM*%
%LPD*%
G01*
G04 APERTURE LIST*
G04 Aperture macros list*
%AMRoundRect*
0 Rectangle with rounded corners*
0 $1 Rounding radius*
0 $2 $3 $4 $5 $6 $7 $8 $9 X,Y pos of 4 corners*
0 Add a 4 corners polygon primitive as box body*
4,1,4,$2,$3,$4,$5,$6,$7,$8,$9,$2,$3,0*
0 Add four circle primitives for the rounded corners*
1,1,$1+$1,$2,$3*
1,1,$1+$1,$4,$5*
1,1,$1+$1,$6,$7*
1,1,$1+$1,$8,$9*
0 Add four rect primitives between the rounded corners*
20,1,$1+$1,$2,$3,$4,$5,0*
20,1,$1+$1,$4,$5,$6,$7,0*
20,1,$1+$1,$6,$7,$8,$9,0*
20,1,$1+$1,$8,$9,$2,$3,0*%
G04 Aperture macros list end*
G04 #@! TA.AperFunction,Profile*
%ADD10C,0.150000*%
G04 #@! TD*
G04 #@! TA.AperFunction,ComponentPad*
%ADD11C,5.600000*%
G04 #@! TD*
G04 #@! TA.AperFunction,ComponentPad*
%ADD12C,2.780000*%
G04 #@! TD*
G04 #@! TA.AperFunction,SMDPad,CuDef*
%ADD13RoundRect,0.250000X-0.262500X-0.450000X0.262500X-0.450000X0.262500X0.450000X-0.262500X0.450000X0*%
G04 #@! TD*
G04 #@! TA.AperFunction,SMDPad,CuDef*
%ADD14RoundRect,0.243750X-0.456250X0.243750X-0.456250X-0.243750X0.456250X-0.243750X0.456250X0.243750X0*%
G04 #@! TD*
G04 #@! TA.AperFunction,ComponentPad*
%ADD15O,7.000000X2.500000*%
G04 #@! TD*
G04 #@! TA.AperFunction,ComponentPad*
%ADD16O,2.500000X7.000000*%
G04 #@! TD*
G04 #@! TA.AperFunction,SMDPad,CuDef*
%ADD17RoundRect,0.243750X0.243750X0.456250X-0.243750X0.456250X-0.243750X-0.456250X0.243750X-0.456250X0*%
G04 #@! TD*
G04 #@! TA.AperFunction,SMDPad,CuDef*
%ADD18RoundRect,0.250000X-0.450000X0.262500X-0.450000X-0.262500X0.450000X-0.262500X0.450000X0.262500X0*%
G04 #@! TD*
G04 #@! TA.AperFunction,SMDPad,CuDef*
%ADD19RoundRect,0.243750X-0.243750X-0.456250X0.243750X-0.456250X0.243750X0.456250X-0.243750X0.456250X0*%
G04 #@! TD*
G04 #@! TA.AperFunction,SMDPad,CuDef*
%ADD20RoundRect,0.250000X0.450000X-0.262500X0.450000X0.262500X-0.450000X0.262500X-0.450000X-0.262500X0*%
G04 #@! TD*
G04 #@! TA.AperFunction,SMDPad,CuDef*
%ADD21RoundRect,0.250000X0.262500X0.450000X-0.262500X0.450000X-0.262500X-0.450000X0.262500X-0.450000X0*%
G04 #@! TD*
G04 #@! TA.AperFunction,ComponentPad*
%ADD22C,1.800000*%
G04 #@! TD*
G04 #@! TA.AperFunction,ComponentPad*
%ADD23C,2.500000*%
G04 #@! TD*
G04 #@! TA.AperFunction,ComponentPad*
%ADD24C,1.440000*%
G04 #@! TD*
G04 #@! TA.AperFunction,ComponentPad*
%ADD25RoundRect,0.250000X-0.750000X0.600000X-0.750000X-0.600000X0.750000X-0.600000X0.750000X0.600000X0*%
G04 #@! TD*
G04 #@! TA.AperFunction,ComponentPad*
%ADD26O,2.000000X1.700000*%
G04 #@! TD*
G04 #@! TA.AperFunction,ViaPad*
%ADD27C,0.800000*%
G04 #@! TD*
G04 #@! TA.AperFunction,Conductor*
%ADD28C,0.250000*%
G04 #@! TD*
G04 APERTURE END LIST*
D10*
X181229000Y-126746000D02*
G75*
G03*
X182372000Y-125603000I0J1143000D01*
G01*
X82423000Y-50800000D02*
G75*
G03*
X81280000Y-51943000I0J-1143000D01*
G01*
X181229000Y-50800000D02*
X82423000Y-50800000D01*
X82423000Y-126746000D02*
X181229000Y-126746000D01*
X81280000Y-51943000D02*
X81280000Y-125603000D01*
X182372000Y-51943000D02*
G75*
G03*
X181229000Y-50800000I-1143000J0D01*
G01*
X81280000Y-125603000D02*
G75*
G03*
X82423000Y-126746000I1143000J0D01*
G01*
X182372000Y-125603000D02*
X182372000Y-51943000D01*
D11*
X102870000Y-69850000D03*
D12*
X125305200Y-62460400D03*
X125305200Y-65860400D03*
X115385200Y-62460400D03*
X115385200Y-65860400D03*
D13*
X108561500Y-68072000D03*
X110386500Y-68072000D03*
D12*
X158616000Y-64692000D03*
X158616000Y-61292000D03*
X168536000Y-64692000D03*
X168536000Y-61292000D03*
D14*
X154432000Y-75770500D03*
X154432000Y-77645500D03*
D12*
X159040000Y-86200000D03*
X159040000Y-82800000D03*
X168960000Y-86200000D03*
X168960000Y-82800000D03*
D15*
X86995000Y-103355000D03*
X86995000Y-111275000D03*
D14*
X108966000Y-70182500D03*
X108966000Y-72057500D03*
D16*
X146962000Y-55626000D03*
X139042000Y-55626000D03*
D12*
X159403400Y-108862600D03*
X159403400Y-105462600D03*
X169323400Y-108862600D03*
X169323400Y-105462600D03*
D17*
X168577500Y-69596000D03*
X166702500Y-69596000D03*
D15*
X86995000Y-56619000D03*
X86995000Y-64539000D03*
D12*
X159555800Y-101191800D03*
X159555800Y-97791800D03*
X169475800Y-97791800D03*
X169475800Y-101191800D03*
D18*
X176960000Y-72603500D03*
X176960000Y-74428500D03*
D17*
X88567500Y-95500000D03*
X86692500Y-95500000D03*
D11*
X158500000Y-70000000D03*
D15*
X177038000Y-79860000D03*
X177038000Y-87780000D03*
D13*
X112807900Y-97636800D03*
X114632900Y-97636800D03*
D19*
X175846500Y-94742000D03*
X177721500Y-94742000D03*
D16*
X116540000Y-55500000D03*
X124460000Y-55500000D03*
D20*
X92561600Y-69548900D03*
X92561600Y-67723900D03*
D12*
X125305200Y-69978800D03*
X125305200Y-73378800D03*
X115385200Y-69978800D03*
X115385200Y-73378800D03*
D21*
X154396500Y-73612400D03*
X152571500Y-73612400D03*
D12*
X138040000Y-62300000D03*
X138040000Y-65700000D03*
X147960000Y-62300000D03*
X147960000Y-65700000D03*
D19*
X94566500Y-69500000D03*
X96441500Y-69500000D03*
D12*
X159040000Y-75300000D03*
X159040000Y-78700000D03*
X168960000Y-78700000D03*
X168960000Y-75300000D03*
D15*
X177038000Y-103101000D03*
X177038000Y-111021000D03*
D17*
X86789500Y-71628000D03*
X84914500Y-71628000D03*
D12*
X104883600Y-82729600D03*
X104883600Y-86129600D03*
X94963600Y-82729600D03*
X94963600Y-86129600D03*
D11*
X146050000Y-82423000D03*
D18*
X173909200Y-95205100D03*
X173909200Y-97030100D03*
D13*
X149709500Y-97536000D03*
X151534500Y-97536000D03*
D12*
X104883600Y-75084200D03*
X104883600Y-78484200D03*
X94963600Y-78484200D03*
X94963600Y-75084200D03*
D19*
X178894500Y-72500000D03*
X180769500Y-72500000D03*
D20*
X170421000Y-69523500D03*
X170421000Y-67698500D03*
D11*
X115062000Y-82423000D03*
D22*
X118029200Y-89910800D03*
X118029200Y-97510800D03*
D23*
X118029200Y-105110800D03*
X146029200Y-105110800D03*
D22*
X146029200Y-101310800D03*
X146029200Y-97510800D03*
X146029200Y-93710800D03*
D23*
X146029200Y-89910800D03*
D22*
X138329200Y-106510800D03*
X142129200Y-106510800D03*
X118029200Y-93710800D03*
D18*
X90170000Y-71731500D03*
X90170000Y-73556500D03*
D24*
X151258200Y-100141800D03*
X151258200Y-102681800D03*
X151258200Y-105221800D03*
D11*
X130048000Y-114046000D03*
X167000000Y-115000000D03*
D15*
X177038000Y-56619000D03*
X177038000Y-64539000D03*
D12*
X105156000Y-53672000D03*
X105156000Y-57072000D03*
X95236000Y-57072000D03*
X95236000Y-53672000D03*
D18*
X90540000Y-95603500D03*
X90540000Y-97428500D03*
D15*
X86995000Y-79352000D03*
X86995000Y-87272000D03*
D12*
X158616000Y-57072000D03*
X158616000Y-53672000D03*
X168536000Y-57072000D03*
X168536000Y-53672000D03*
X138042000Y-69800000D03*
X138042000Y-73200000D03*
X147962000Y-69800000D03*
X147962000Y-73200000D03*
D11*
X96000000Y-115000000D03*
D25*
X122682000Y-80010000D03*
D26*
X122682000Y-82510000D03*
D12*
X105206800Y-64692000D03*
X105206800Y-61292000D03*
X95286800Y-64692000D03*
X95286800Y-61292000D03*
X104705800Y-98553800D03*
X104705800Y-101953800D03*
X94785800Y-98553800D03*
X94785800Y-101953800D03*
X104680400Y-106046800D03*
X104680400Y-109446800D03*
X94760400Y-106046800D03*
X94760400Y-109446800D03*
D27*
X122428000Y-91186000D03*
X120904000Y-91186000D03*
X119634000Y-91186000D03*
X120904000Y-88138000D03*
X120904000Y-89662000D03*
X119634000Y-89662000D03*
X119634000Y-88138000D03*
X122174000Y-89662000D03*
X134112000Y-106426000D03*
X141732000Y-108966000D03*
X138684000Y-111506000D03*
X132588000Y-106426000D03*
X121158000Y-107950000D03*
X138684000Y-113030000D03*
X119634000Y-107950000D03*
X134112000Y-103378000D03*
X127000000Y-104902000D03*
X121158000Y-112014000D03*
X122682000Y-109220000D03*
X127000000Y-103378000D03*
X121158000Y-113538000D03*
X141732000Y-114554000D03*
X140208000Y-113030000D03*
X140208000Y-111506000D03*
X119634000Y-109220000D03*
X128270000Y-104902000D03*
X141732000Y-113030000D03*
X121158000Y-109220000D03*
X122682000Y-107950000D03*
X132588000Y-103378000D03*
X140208000Y-110236000D03*
X119634000Y-112014000D03*
X141732000Y-111506000D03*
X141732000Y-110236000D03*
X129540000Y-106426000D03*
X122682000Y-110490000D03*
X134112000Y-104902000D03*
X140208000Y-114554000D03*
X131064000Y-106426000D03*
X132588000Y-104902000D03*
X131064000Y-103378000D03*
X119634000Y-113538000D03*
X128270000Y-103378000D03*
X138684000Y-108966000D03*
X140208000Y-108966000D03*
X122682000Y-112014000D03*
X128270000Y-106426000D03*
X119634000Y-110490000D03*
X138684000Y-114554000D03*
X127000000Y-106426000D03*
X129540000Y-104902000D03*
X138684000Y-110236000D03*
X121158000Y-110490000D03*
X122682000Y-113538000D03*
X129540000Y-103378000D03*
X131064000Y-104902000D03*
X144526000Y-91948000D03*
X147574000Y-91948000D03*
X146050000Y-91948000D03*
X149606000Y-90678000D03*
X149606000Y-89408000D03*
D28*
X114595400Y-97586800D02*
X118059200Y-97586800D01*
X114545400Y-97636800D02*
X114595400Y-97586800D01*
X146029200Y-97536800D02*
X149188200Y-97536800D01*
X151258200Y-97956800D02*
X151258200Y-100141800D01*
X94212500Y-69500000D02*
X92600200Y-69500000D01*
X170357000Y-69500000D02*
X170421000Y-69436000D01*
X168643000Y-69500000D02*
X170357000Y-69500000D01*
X109000000Y-69032000D02*
X108555000Y-68587000D01*
X109000000Y-70212500D02*
X109000000Y-69032000D01*
X90286000Y-95500000D02*
X88787500Y-95500000D01*
X90477000Y-95691000D02*
X90286000Y-95500000D01*
X90540000Y-95691000D02*
X90477000Y-95691000D01*
X86789500Y-71628000D02*
X90066500Y-71628000D01*
X90066500Y-71628000D02*
X90170000Y-71731500D01*
X178712500Y-72500000D02*
X177151000Y-72500000D01*
X177151000Y-72500000D02*
X176960000Y-72691000D01*
X154500000Y-73803400D02*
X154309000Y-73612400D01*
X154500000Y-75212500D02*
X154500000Y-73803400D01*
X174201800Y-95000000D02*
X173909200Y-95292600D01*
X175712500Y-95000000D02*
X174201800Y-95000000D01*
G04 #@! TA.AperFunction,Conductor*
G36*
X172974272Y-96057402D02*
G01*
X172981659Y-96062675D01*
X172985897Y-96066905D01*
X172992124Y-96070743D01*
X172992126Y-96070745D01*
X173130232Y-96155875D01*
X173136462Y-96159715D01*
X173216205Y-96186164D01*
X173297811Y-96213232D01*
X173297813Y-96213232D01*
X173304339Y-96215397D01*
X173311175Y-96216097D01*
X173311178Y-96216098D01*
X173354231Y-96220509D01*
X173408800Y-96226100D01*
X174409600Y-96226100D01*
X174412846Y-96225763D01*
X174412850Y-96225763D01*
X174508508Y-96215838D01*
X174508512Y-96215837D01*
X174515366Y-96215126D01*
X174521902Y-96212945D01*
X174521904Y-96212945D01*
X174670407Y-96163400D01*
X174683146Y-96159150D01*
X174833548Y-96066078D01*
X174835642Y-96063980D01*
X174899793Y-96038017D01*
X174912244Y-96037400D01*
X181230000Y-96037400D01*
X181298121Y-96057402D01*
X181344614Y-96111058D01*
X181356000Y-96163400D01*
X181356000Y-110643400D01*
X181335998Y-110711521D01*
X181282342Y-110758014D01*
X181230000Y-110769400D01*
X181138566Y-110769400D01*
X181070445Y-110749398D01*
X181023952Y-110695742D01*
X181014627Y-110663542D01*
X181014499Y-110663569D01*
X181014123Y-110661798D01*
X181013718Y-110660401D01*
X181013526Y-110658993D01*
X181012896Y-110654362D01*
X180998473Y-110604877D01*
X180941068Y-110407932D01*
X180939757Y-110403433D01*
X180830332Y-110166072D01*
X180797519Y-110116024D01*
X180689590Y-109951404D01*
X180689586Y-109951399D01*
X180687024Y-109947491D01*
X180512982Y-109752494D01*
X180312030Y-109585363D01*
X180264844Y-109556730D01*
X180092578Y-109452196D01*
X180092574Y-109452194D01*
X180088581Y-109449771D01*
X179847545Y-109348697D01*
X179594217Y-109284359D01*
X179589566Y-109283891D01*
X179589562Y-109283890D01*
X179380271Y-109262816D01*
X179377133Y-109262500D01*
X174721646Y-109262500D01*
X174719321Y-109262673D01*
X174719315Y-109262673D01*
X174532000Y-109276593D01*
X174531996Y-109276594D01*
X174527348Y-109276939D01*
X174522800Y-109277968D01*
X174522794Y-109277969D01*
X174336399Y-109320147D01*
X174272423Y-109334623D01*
X174268071Y-109336315D01*
X174268069Y-109336316D01*
X174033176Y-109427660D01*
X174033173Y-109427661D01*
X174028823Y-109429353D01*
X173801902Y-109559049D01*
X173596643Y-109720862D01*
X173417557Y-109911237D01*
X173268576Y-110125991D01*
X173152975Y-110360407D01*
X173073293Y-110609335D01*
X173072541Y-110613954D01*
X173072540Y-110613957D01*
X173064446Y-110663655D01*
X173033754Y-110727674D01*
X172973322Y-110764937D01*
X172940085Y-110769400D01*
X164845000Y-110769400D01*
X164776879Y-110749398D01*
X164730386Y-110695742D01*
X164719000Y-110643400D01*
X164719000Y-96163400D01*
X164739002Y-96095279D01*
X164792658Y-96048786D01*
X164845000Y-96037400D01*
X172906151Y-96037400D01*
X172974272Y-96057402D01*
G37*
G04 #@! TD.AperFunction*
G04 #@! TA.AperFunction,Conductor*
G36*
X152088121Y-78252002D02*
G01*
X152134614Y-78305658D01*
X152146000Y-78358000D01*
X152146000Y-95124000D01*
X152125998Y-95192121D01*
X152072342Y-95238614D01*
X152020000Y-95250000D01*
X124586000Y-95250000D01*
X124517879Y-95229998D01*
X124471386Y-95176342D01*
X124460000Y-95124000D01*
X124460000Y-94746331D01*
X145538103Y-94746331D01*
X145541449Y-94750801D01*
X145667622Y-94805010D01*
X145678565Y-94808565D01*
X145873078Y-94852580D01*
X145884487Y-94854082D01*
X146083771Y-94861911D01*
X146095253Y-94861309D01*
X146292629Y-94832692D01*
X146303812Y-94830007D01*
X146492666Y-94765899D01*
X146503171Y-94761222D01*
X146511491Y-94756563D01*
X146521355Y-94746486D01*
X146518400Y-94738816D01*
X146042011Y-94262426D01*
X146028068Y-94254813D01*
X146026234Y-94254944D01*
X146019620Y-94259195D01*
X145544860Y-94733956D01*
X145538103Y-94746331D01*
X124460000Y-94746331D01*
X124460000Y-93686386D01*
X144877055Y-93686386D01*
X144890098Y-93885389D01*
X144891898Y-93896757D01*
X144940991Y-94090057D01*
X144944829Y-94100895D01*
X144986299Y-94190849D01*
X144995571Y-94201474D01*
X145001463Y-94199721D01*
X145477574Y-93723611D01*
X145483951Y-93711932D01*
X146573213Y-93711932D01*
X146573344Y-93713766D01*
X146577595Y-93720380D01*
X147053304Y-94196088D01*
X147065679Y-94202845D01*
X147072259Y-94197920D01*
X147079622Y-94184771D01*
X147084299Y-94174266D01*
X147148407Y-93985412D01*
X147151092Y-93974229D01*
X147180005Y-93774813D01*
X147180635Y-93767430D01*
X147182021Y-93714504D01*
X147181778Y-93707105D01*
X147163341Y-93506454D01*
X147161243Y-93495133D01*
X147107111Y-93303196D01*
X147102987Y-93292449D01*
X147072482Y-93230592D01*
X147062936Y-93220216D01*
X147056501Y-93222315D01*
X146580826Y-93697989D01*
X146573213Y-93711932D01*
X145483951Y-93711932D01*
X145485187Y-93709668D01*
X145485056Y-93707834D01*
X145480805Y-93701220D01*
X145006202Y-93226618D01*
X144993827Y-93219861D01*
X144987861Y-93224327D01*
X144966736Y-93264478D01*
X144962328Y-93275121D01*
X144903188Y-93465580D01*
X144900798Y-93476824D01*
X144877356Y-93674885D01*
X144877055Y-93686386D01*
X124460000Y-93686386D01*
X124460000Y-92673294D01*
X145535413Y-92673294D01*
X145538901Y-92681685D01*
X146016389Y-93159174D01*
X146030332Y-93166787D01*
X146032166Y-93166656D01*
X146038780Y-93162405D01*
X146514807Y-92686377D01*
X146521564Y-92674002D01*
X146518525Y-92669943D01*
X146362009Y-92607499D01*
X146350983Y-92604232D01*
X146155380Y-92565325D01*
X146143934Y-92564122D01*
X145944525Y-92561512D01*
X145933045Y-92562415D01*
X145736493Y-92596189D01*
X145725385Y-92599166D01*
X145541127Y-92667142D01*
X145535413Y-92673294D01*
X124460000Y-92673294D01*
X124460000Y-91204247D01*
X145280188Y-91204247D01*
X145285469Y-91211301D01*
X145375255Y-91263768D01*
X145384543Y-91268218D01*
X145605008Y-91352405D01*
X145614906Y-91355281D01*
X145846162Y-91402330D01*
X145856390Y-91403549D01*
X146092223Y-91412198D01*
X146102509Y-91411731D01*
X146336588Y-91381744D01*
X146346674Y-91379601D01*
X146572716Y-91311785D01*
X146582293Y-91308032D01*
X146770953Y-91215608D01*
X146781358Y-91206086D01*
X146779297Y-91199712D01*
X146042012Y-90462427D01*
X146028068Y-90454813D01*
X146026235Y-90454944D01*
X146019620Y-90459195D01*
X145286948Y-91191867D01*
X145280188Y-91204247D01*
X124460000Y-91204247D01*
X124460000Y-89879231D01*
X144526812Y-89879231D01*
X144540396Y-90114828D01*
X144541832Y-90125048D01*
X144593713Y-90355255D01*
X144596792Y-90365084D01*
X144685580Y-90583741D01*
X144690225Y-90592937D01*
X144725604Y-90650670D01*
X144736060Y-90660131D01*
X144744838Y-90656347D01*
X145477573Y-89923612D01*
X145483951Y-89911932D01*
X146573213Y-89911932D01*
X146573344Y-89913765D01*
X146577595Y-89920380D01*
X147312945Y-90655730D01*
X147325325Y-90662490D01*
X147330758Y-90658423D01*
X147424485Y-90468783D01*
X147428283Y-90459190D01*
X147496885Y-90233393D01*
X147499062Y-90223323D01*
X147530102Y-89987550D01*
X147530621Y-89980875D01*
X147532252Y-89914164D01*
X147532058Y-89907447D01*
X147512574Y-89670450D01*
X147510891Y-89660288D01*
X147453400Y-89431404D01*
X147450079Y-89421649D01*
X147355981Y-89205241D01*
X147351106Y-89196149D01*
X147334063Y-89169803D01*
X147323378Y-89160600D01*
X147313812Y-89165003D01*
X146580827Y-89897988D01*
X146573213Y-89911932D01*
X145483951Y-89911932D01*
X145485187Y-89909668D01*
X145485056Y-89907835D01*
X145480805Y-89901220D01*
X144745463Y-89165878D01*
X144733927Y-89159579D01*
X144722700Y-89168375D01*
X144720055Y-89173032D01*
X144620694Y-89387085D01*
X144617140Y-89396745D01*
X144554070Y-89624169D01*
X144552143Y-89634273D01*
X144527064Y-89868942D01*
X144526812Y-89879231D01*
X124460000Y-89879231D01*
X124460000Y-88617035D01*
X145278743Y-88617035D01*
X145281168Y-88623953D01*
X146016388Y-89359173D01*
X146030332Y-89366787D01*
X146032165Y-89366656D01*
X146038780Y-89362405D01*
X146771765Y-88629420D01*
X146778525Y-88617040D01*
X146773711Y-88610610D01*
X146649893Y-88542258D01*
X146640496Y-88538035D01*
X146418044Y-88459261D01*
X146408073Y-88456627D01*
X146175746Y-88415243D01*
X146165494Y-88414274D01*
X145929517Y-88411391D01*
X145919233Y-88412111D01*
X145685965Y-88447806D01*
X145675937Y-88450195D01*
X145451630Y-88523509D01*
X145442120Y-88527506D01*
X145288913Y-88607261D01*
X145278743Y-88617035D01*
X124460000Y-88617035D01*
X124460000Y-86868000D01*
X121284000Y-86868000D01*
X121215879Y-86847998D01*
X121169386Y-86794342D01*
X121158000Y-86742000D01*
X121158000Y-83725668D01*
X121178002Y-83657547D01*
X121231658Y-83611054D01*
X121301932Y-83600950D01*
X121366512Y-83630444D01*
X121379810Y-83643836D01*
X121388265Y-83653735D01*
X121581266Y-83818574D01*
X121797677Y-83951191D01*
X121802247Y-83953084D01*
X121802251Y-83953086D01*
X122027596Y-84046427D01*
X122032169Y-84048321D01*
X122117146Y-84068722D01*
X122274156Y-84106417D01*
X122274162Y-84106418D01*
X122278969Y-84107572D01*
X122367643Y-84114551D01*
X122466190Y-84122307D01*
X122466199Y-84122307D01*
X122468647Y-84122500D01*
X122895353Y-84122500D01*
X122897801Y-84122307D01*
X122897810Y-84122307D01*
X122996357Y-84114551D01*
X123085031Y-84107572D01*
X123089838Y-84106418D01*
X123089844Y-84106417D01*
X123246854Y-84068722D01*
X123331831Y-84048321D01*
X123336404Y-84046427D01*
X123561749Y-83953086D01*
X123561753Y-83953084D01*
X123566323Y-83951191D01*
X123782734Y-83818574D01*
X123975735Y-83653735D01*
X124140574Y-83460734D01*
X124273191Y-83244323D01*
X124304851Y-83167891D01*
X124368427Y-83014404D01*
X124368428Y-83014402D01*
X124370321Y-83009831D01*
X124420903Y-82799142D01*
X124428417Y-82767844D01*
X124428418Y-82767838D01*
X124429572Y-82763031D01*
X124449486Y-82510000D01*
X124442639Y-82423000D01*
X142482611Y-82423000D01*
X142502154Y-82795894D01*
X142560567Y-83164702D01*
X142657211Y-83525384D01*
X142658396Y-83528472D01*
X142658397Y-83528474D01*
X142707712Y-83656943D01*
X142791028Y-83873988D01*
X142792526Y-83876928D01*
X142917652Y-84122500D01*
X142960551Y-84206694D01*
X143163922Y-84519859D01*
X143398913Y-84810049D01*
X143662951Y-85074087D01*
X143953141Y-85309078D01*
X144266305Y-85512449D01*
X144269239Y-85513944D01*
X144269246Y-85513948D01*
X144596072Y-85680474D01*
X144599012Y-85681972D01*
X144947616Y-85815789D01*
X145308298Y-85912433D01*
X145504368Y-85943487D01*
X145673858Y-85970332D01*
X145673866Y-85970333D01*
X145677106Y-85970846D01*
X146050000Y-85990389D01*
X146422894Y-85970846D01*
X146426134Y-85970333D01*
X146426142Y-85970332D01*
X146595632Y-85943487D01*
X146791702Y-85912433D01*
X147152384Y-85815789D01*
X147500988Y-85681972D01*
X147503928Y-85680474D01*
X147830754Y-85513948D01*
X147830761Y-85513944D01*
X147833695Y-85512449D01*
X148146859Y-85309078D01*
X148437049Y-85074087D01*
X148701087Y-84810049D01*
X148936078Y-84519859D01*
X149139449Y-84206694D01*
X149182349Y-84122500D01*
X149307474Y-83876928D01*
X149308972Y-83873988D01*
X149392288Y-83656943D01*
X149441603Y-83528474D01*
X149441604Y-83528472D01*
X149442789Y-83525384D01*
X149539433Y-83164702D01*
X149597846Y-82795894D01*
X149617389Y-82423000D01*
X149597846Y-82050106D01*
X149590797Y-82005596D01*
X149554381Y-81775677D01*
X149539433Y-81681298D01*
X149442789Y-81320616D01*
X149439924Y-81313151D01*
X149336096Y-81042673D01*
X149308972Y-80972012D01*
X149139449Y-80639306D01*
X148936078Y-80326141D01*
X148701087Y-80035951D01*
X148437049Y-79771913D01*
X148146859Y-79536922D01*
X147833695Y-79333551D01*
X147830761Y-79332056D01*
X147830754Y-79332052D01*
X147503928Y-79165526D01*
X147500988Y-79164028D01*
X147152384Y-79030211D01*
X146791702Y-78933567D01*
X146595632Y-78902513D01*
X146426142Y-78875668D01*
X146426134Y-78875667D01*
X146422894Y-78875154D01*
X146050000Y-78855611D01*
X145677106Y-78875154D01*
X145673866Y-78875667D01*
X145673858Y-78875668D01*
X145504368Y-78902513D01*
X145308298Y-78933567D01*
X144947616Y-79030211D01*
X144599012Y-79164028D01*
X144596072Y-79165526D01*
X144269247Y-79332052D01*
X144269240Y-79332056D01*
X144266306Y-79333551D01*
X143953141Y-79536922D01*
X143662951Y-79771913D01*
X143398913Y-80035951D01*
X143163922Y-80326141D01*
X142960551Y-80639306D01*
X142791028Y-80972012D01*
X142763904Y-81042673D01*
X142660077Y-81313151D01*
X142657211Y-81320616D01*
X142560567Y-81681298D01*
X142545619Y-81775677D01*
X142509204Y-82005596D01*
X142502154Y-82050106D01*
X142482611Y-82423000D01*
X124442639Y-82423000D01*
X124429572Y-82256969D01*
X124370321Y-82010169D01*
X124273191Y-81775677D01*
X124140574Y-81559266D01*
X123975735Y-81366265D01*
X123782734Y-81201426D01*
X123770733Y-81194072D01*
X123723102Y-81141427D01*
X123711495Y-81071385D01*
X123739597Y-81006187D01*
X123761003Y-80985814D01*
X123780581Y-80971141D01*
X123793139Y-80958583D01*
X123867928Y-80858793D01*
X123876463Y-80843204D01*
X123920611Y-80725436D01*
X123924237Y-80710185D01*
X123929631Y-80660535D01*
X123930000Y-80653721D01*
X123930000Y-80409115D01*
X123925525Y-80393876D01*
X123924135Y-80392671D01*
X123916452Y-80391000D01*
X121452115Y-80391000D01*
X121436876Y-80395475D01*
X121435671Y-80396865D01*
X121434000Y-80404548D01*
X121434000Y-80653721D01*
X121434369Y-80660535D01*
X121439763Y-80710185D01*
X121443389Y-80725436D01*
X121487537Y-80843204D01*
X121496072Y-80858793D01*
X121570861Y-80958583D01*
X121583419Y-80971141D01*
X121602997Y-80985814D01*
X121645512Y-81042673D01*
X121650538Y-81113492D01*
X121616478Y-81175785D01*
X121593271Y-81194069D01*
X121581266Y-81201426D01*
X121388265Y-81366265D01*
X121385057Y-81370021D01*
X121385056Y-81370022D01*
X121379810Y-81376164D01*
X121320358Y-81414972D01*
X121249364Y-81415478D01*
X121189366Y-81377521D01*
X121159413Y-81313151D01*
X121158000Y-81294332D01*
X121158000Y-79610885D01*
X121434000Y-79610885D01*
X121438475Y-79626124D01*
X121439865Y-79627329D01*
X121447548Y-79629000D01*
X122282885Y-79629000D01*
X122298124Y-79624525D01*
X122299329Y-79623135D01*
X122301000Y-79615452D01*
X122301000Y-79610885D01*
X123063000Y-79610885D01*
X123067475Y-79626124D01*
X123068865Y-79627329D01*
X123076548Y-79629000D01*
X123911885Y-79629000D01*
X123927124Y-79624525D01*
X123928329Y-79623135D01*
X123930000Y-79615452D01*
X123930000Y-79366279D01*
X123929631Y-79359465D01*
X123924237Y-79309815D01*
X123920611Y-79294564D01*
X123876463Y-79176796D01*
X123867928Y-79161207D01*
X123793139Y-79061417D01*
X123780583Y-79048861D01*
X123680793Y-78974072D01*
X123665204Y-78965537D01*
X123547436Y-78921389D01*
X123532185Y-78917763D01*
X123482535Y-78912369D01*
X123475721Y-78912000D01*
X123081115Y-78912000D01*
X123065876Y-78916475D01*
X123064671Y-78917865D01*
X123063000Y-78925548D01*
X123063000Y-79610885D01*
X122301000Y-79610885D01*
X122301000Y-78930115D01*
X122296525Y-78914876D01*
X122295135Y-78913671D01*
X122287452Y-78912000D01*
X121888279Y-78912000D01*
X121881465Y-78912369D01*
X121831815Y-78917763D01*
X121816564Y-78921389D01*
X121698796Y-78965537D01*
X121683207Y-78974072D01*
X121583417Y-79048861D01*
X121570861Y-79061417D01*
X121496072Y-79161207D01*
X121487537Y-79176796D01*
X121443389Y-79294564D01*
X121439763Y-79309815D01*
X121434369Y-79359465D01*
X121434000Y-79366279D01*
X121434000Y-79610885D01*
X121158000Y-79610885D01*
X121158000Y-78358000D01*
X121178002Y-78289879D01*
X121231658Y-78243386D01*
X121284000Y-78232000D01*
X152020000Y-78232000D01*
X152088121Y-78252002D01*
G37*
G04 #@! TD.AperFunction*
G04 #@! TA.AperFunction,Conductor*
G36*
X99764121Y-73375202D02*
G01*
X99810614Y-73428858D01*
X99822000Y-73481200D01*
X99822000Y-87935800D01*
X99801998Y-88003921D01*
X99748342Y-88050414D01*
X99696000Y-88061800D01*
X91011296Y-88061800D01*
X90943175Y-88041798D01*
X90896682Y-87988142D01*
X90886578Y-87917868D01*
X90891294Y-87897387D01*
X90893798Y-87889567D01*
X90959707Y-87683665D01*
X91001721Y-87425693D01*
X91005142Y-87164345D01*
X90969896Y-86905362D01*
X90896757Y-86654433D01*
X90787332Y-86417072D01*
X90754519Y-86367024D01*
X90646590Y-86202404D01*
X90646586Y-86202399D01*
X90644024Y-86198491D01*
X90469982Y-86003494D01*
X90269030Y-85836363D01*
X90221844Y-85807730D01*
X90049578Y-85703196D01*
X90049574Y-85703194D01*
X90045581Y-85700771D01*
X89804545Y-85599697D01*
X89551217Y-85535359D01*
X89546566Y-85534891D01*
X89546562Y-85534890D01*
X89337271Y-85513816D01*
X89334133Y-85513500D01*
X84678646Y-85513500D01*
X84676321Y-85513673D01*
X84676315Y-85513673D01*
X84489000Y-85527593D01*
X84488996Y-85527594D01*
X84484348Y-85527939D01*
X84479800Y-85528968D01*
X84479794Y-85528969D01*
X84293399Y-85571147D01*
X84229423Y-85585623D01*
X84225071Y-85587315D01*
X84225069Y-85587316D01*
X83990176Y-85678660D01*
X83990173Y-85678661D01*
X83985823Y-85680353D01*
X83758902Y-85810049D01*
X83553643Y-85971862D01*
X83550443Y-85975264D01*
X83402775Y-86132240D01*
X83341531Y-86168152D01*
X83270594Y-86165252D01*
X83212485Y-86124461D01*
X83185654Y-86058730D01*
X83185000Y-86045907D01*
X83185000Y-73481200D01*
X83205002Y-73413079D01*
X83258658Y-73366586D01*
X83311000Y-73355200D01*
X99696000Y-73355200D01*
X99764121Y-73375202D01*
G37*
G04 #@! TD.AperFunction*
G04 #@! TA.AperFunction,Conductor*
G36*
X181044121Y-52344002D02*
G01*
X181090614Y-52397658D01*
X181102000Y-52450000D01*
X181102000Y-63699090D01*
X181081998Y-63767211D01*
X181028342Y-63813704D01*
X180958068Y-63823808D01*
X180893488Y-63794314D01*
X180861574Y-63751841D01*
X180832289Y-63688318D01*
X180830332Y-63684072D01*
X180797519Y-63634024D01*
X180689590Y-63469404D01*
X180689586Y-63469399D01*
X180687024Y-63465491D01*
X180512982Y-63270494D01*
X180312030Y-63103363D01*
X180264844Y-63074730D01*
X180092578Y-62970196D01*
X180092574Y-62970194D01*
X180088581Y-62967771D01*
X179847545Y-62866697D01*
X179594217Y-62802359D01*
X179589566Y-62801891D01*
X179589562Y-62801890D01*
X179380271Y-62780816D01*
X179377133Y-62780500D01*
X174721646Y-62780500D01*
X174719321Y-62780673D01*
X174719315Y-62780673D01*
X174532000Y-62794593D01*
X174531996Y-62794594D01*
X174527348Y-62794939D01*
X174522800Y-62795968D01*
X174522794Y-62795969D01*
X174336399Y-62838147D01*
X174272423Y-62852623D01*
X174268071Y-62854315D01*
X174268069Y-62854316D01*
X174033176Y-62945660D01*
X174033173Y-62945661D01*
X174028823Y-62947353D01*
X173801902Y-63077049D01*
X173596643Y-63238862D01*
X173417557Y-63429237D01*
X173268576Y-63643991D01*
X173266510Y-63648181D01*
X173266508Y-63648184D01*
X173207811Y-63767211D01*
X173152975Y-63878407D01*
X173073293Y-64127335D01*
X173031279Y-64385307D01*
X173027858Y-64646655D01*
X173063104Y-64905638D01*
X173136243Y-65156567D01*
X173245668Y-65393928D01*
X173248231Y-65397837D01*
X173386410Y-65608596D01*
X173386414Y-65608601D01*
X173388976Y-65612509D01*
X173563018Y-65807506D01*
X173763970Y-65974637D01*
X173767973Y-65977066D01*
X173983422Y-66107804D01*
X173983426Y-66107806D01*
X173987419Y-66110229D01*
X174228455Y-66211303D01*
X174481783Y-66275641D01*
X174486434Y-66276109D01*
X174486438Y-66276110D01*
X174679308Y-66295531D01*
X174698867Y-66297500D01*
X179354354Y-66297500D01*
X179356679Y-66297327D01*
X179356685Y-66297327D01*
X179544000Y-66283407D01*
X179544004Y-66283406D01*
X179548652Y-66283061D01*
X179553200Y-66282032D01*
X179553206Y-66282031D01*
X179739601Y-66239853D01*
X179803577Y-66225377D01*
X179839769Y-66211303D01*
X180042824Y-66132340D01*
X180042827Y-66132339D01*
X180047177Y-66130647D01*
X180274098Y-66000951D01*
X180479357Y-65839138D01*
X180658443Y-65648763D01*
X180807424Y-65434009D01*
X180862994Y-65321324D01*
X180911062Y-65269075D01*
X180979748Y-65251108D01*
X181047243Y-65273127D01*
X181092120Y-65328142D01*
X181102000Y-65377052D01*
X181102000Y-67588000D01*
X181081998Y-67656121D01*
X181028342Y-67702614D01*
X180976000Y-67714000D01*
X164591000Y-67714000D01*
X164522879Y-67693998D01*
X164476386Y-67640342D01*
X164465000Y-67588000D01*
X164465000Y-52450000D01*
X164485002Y-52381879D01*
X164538658Y-52335386D01*
X164591000Y-52324000D01*
X180976000Y-52324000D01*
X181044121Y-52344002D01*
G37*
G04 #@! TD.AperFunction*
G04 #@! TA.AperFunction,Conductor*
G36*
X82719398Y-51328002D02*
G01*
X82765891Y-51381658D01*
X82775995Y-51451932D01*
X82746501Y-51516512D01*
X82719397Y-51539998D01*
X82675778Y-51568030D01*
X82675772Y-51568034D01*
X82671990Y-51570465D01*
X82618334Y-51616958D01*
X82615393Y-51620352D01*
X82603803Y-51633727D01*
X82523645Y-51726234D01*
X82463579Y-51857760D01*
X82462311Y-51862079D01*
X82445336Y-51919891D01*
X82443577Y-51925881D01*
X82442937Y-51930329D01*
X82442936Y-51930336D01*
X82423639Y-52064552D01*
X82423638Y-52064559D01*
X82423000Y-52069000D01*
X82423000Y-63700948D01*
X82433058Y-63801534D01*
X82433678Y-63804605D01*
X82433680Y-63804616D01*
X82441274Y-63842209D01*
X82442938Y-63850444D01*
X82472715Y-63947053D01*
X82476656Y-63953606D01*
X82544914Y-64067103D01*
X82544918Y-64067108D01*
X82547236Y-64070963D01*
X82592113Y-64125978D01*
X82698523Y-64223872D01*
X82828203Y-64287823D01*
X82832471Y-64289215D01*
X82832475Y-64289217D01*
X82880568Y-64304906D01*
X82892297Y-64308733D01*
X82892298Y-64308733D01*
X82895698Y-64309842D01*
X82895457Y-64310581D01*
X82953371Y-64344472D01*
X82985533Y-64407766D01*
X82987661Y-64432533D01*
X82984885Y-64644580D01*
X82984885Y-64644581D01*
X82984858Y-64646649D01*
X82984858Y-64646655D01*
X82984413Y-64646649D01*
X82969234Y-64713127D01*
X82918518Y-64762811D01*
X82894772Y-64772504D01*
X82839332Y-64788783D01*
X82793628Y-64802203D01*
X82671990Y-64880375D01*
X82618334Y-64926868D01*
X82523645Y-65036144D01*
X82463579Y-65167670D01*
X82443577Y-65235791D01*
X82442937Y-65240239D01*
X82442936Y-65240246D01*
X82423639Y-65374462D01*
X82423638Y-65374469D01*
X82423000Y-65378910D01*
X82423000Y-67988800D01*
X82434609Y-68096780D01*
X82445995Y-68149122D01*
X82480293Y-68252172D01*
X82558465Y-68373810D01*
X82604958Y-68427466D01*
X82714234Y-68522155D01*
X82845760Y-68582221D01*
X82869514Y-68589196D01*
X82909558Y-68600954D01*
X82909562Y-68600955D01*
X82913881Y-68602223D01*
X82918329Y-68602863D01*
X82918336Y-68602864D01*
X83052552Y-68622161D01*
X83052559Y-68622162D01*
X83057000Y-68622800D01*
X91403914Y-68622800D01*
X91472035Y-68642802D01*
X91518528Y-68696458D01*
X91528632Y-68766732D01*
X91511174Y-68814915D01*
X91488206Y-68852176D01*
X91431604Y-68944002D01*
X91419485Y-68963662D01*
X91412021Y-68986165D01*
X91368913Y-69116134D01*
X91363803Y-69131539D01*
X91363103Y-69138375D01*
X91363102Y-69138378D01*
X91358691Y-69181431D01*
X91353100Y-69236000D01*
X91353100Y-69861800D01*
X91353437Y-69865046D01*
X91353437Y-69865050D01*
X91360594Y-69934022D01*
X91364074Y-69967566D01*
X91366255Y-69974102D01*
X91366255Y-69974104D01*
X91407912Y-70098963D01*
X91420050Y-70135346D01*
X91513122Y-70285748D01*
X91638297Y-70410705D01*
X91644527Y-70414545D01*
X91644528Y-70414546D01*
X91781690Y-70499094D01*
X91788862Y-70503515D01*
X91843547Y-70521653D01*
X91950211Y-70557032D01*
X91950213Y-70557032D01*
X91956739Y-70559197D01*
X91963575Y-70559897D01*
X91963578Y-70559898D01*
X92006631Y-70564309D01*
X92061200Y-70569900D01*
X93062000Y-70569900D01*
X93065246Y-70569563D01*
X93065250Y-70569563D01*
X93160908Y-70559638D01*
X93160912Y-70559637D01*
X93167766Y-70558926D01*
X93174302Y-70556745D01*
X93174304Y-70556745D01*
X93306406Y-70512672D01*
X93335546Y-70502950D01*
X93485948Y-70409878D01*
X93517179Y-70378592D01*
X93579460Y-70344513D01*
X93650281Y-70349516D01*
X93707154Y-70392012D01*
X93713496Y-70401307D01*
X93729203Y-70426689D01*
X93853347Y-70550617D01*
X93859577Y-70554457D01*
X93859578Y-70554458D01*
X93884083Y-70569563D01*
X94002671Y-70642661D01*
X94009619Y-70644966D01*
X94009620Y-70644966D01*
X94162634Y-70695719D01*
X94162636Y-70695719D01*
X94169165Y-70697885D01*
X94272769Y-70708500D01*
X94564234Y-70708500D01*
X94860230Y-70708499D01*
X94965129Y-70697616D01*
X94971660Y-70695437D01*
X94971665Y-70695436D01*
X95124578Y-70644420D01*
X95131526Y-70642102D01*
X95280689Y-70549797D01*
X95404617Y-70425653D01*
X95411464Y-70414546D01*
X95432247Y-70380828D01*
X95496661Y-70276329D01*
X95522078Y-70199701D01*
X95549719Y-70116366D01*
X95549719Y-70116364D01*
X95551885Y-70109835D01*
X95562500Y-70006231D01*
X95562499Y-68993770D01*
X95551616Y-68888871D01*
X95549436Y-68882337D01*
X95549435Y-68882332D01*
X95518189Y-68788675D01*
X95515605Y-68717726D01*
X95551789Y-68656642D01*
X95615253Y-68624818D01*
X95637713Y-68622800D01*
X99442000Y-68622800D01*
X99549980Y-68611191D01*
X99554513Y-68610205D01*
X99593932Y-68601631D01*
X99664747Y-68606697D01*
X99721582Y-68649245D01*
X99746392Y-68715765D01*
X99737618Y-68771753D01*
X99733411Y-68782218D01*
X99732491Y-68785492D01*
X99732489Y-68785497D01*
X99638098Y-69121305D01*
X99636437Y-69127213D01*
X99635875Y-69130570D01*
X99635875Y-69130571D01*
X99592042Y-69392511D01*
X99577290Y-69480663D01*
X99556661Y-69838434D01*
X99556833Y-69841829D01*
X99556833Y-69841830D01*
X99569859Y-70098963D01*
X99574792Y-70196340D01*
X99575329Y-70199695D01*
X99575330Y-70199701D01*
X99612351Y-70430833D01*
X99631470Y-70550195D01*
X99726033Y-70895859D01*
X99857374Y-71229288D01*
X99885728Y-71283294D01*
X99976078Y-71455385D01*
X100023957Y-71546582D01*
X100025858Y-71549411D01*
X100025864Y-71549421D01*
X100146605Y-71729101D01*
X100223834Y-71844029D01*
X100454665Y-72118150D01*
X100713751Y-72365738D01*
X100998061Y-72583897D01*
X101077221Y-72632027D01*
X101301355Y-72768303D01*
X101301360Y-72768306D01*
X101304270Y-72770075D01*
X101307358Y-72771521D01*
X101307357Y-72771521D01*
X101625710Y-72920649D01*
X101625720Y-72920653D01*
X101628794Y-72922093D01*
X101632012Y-72923195D01*
X101632015Y-72923196D01*
X101964615Y-73037071D01*
X101964623Y-73037073D01*
X101967838Y-73038174D01*
X102317435Y-73116959D01*
X102369728Y-73122917D01*
X102670114Y-73157142D01*
X102670122Y-73157142D01*
X102673497Y-73157527D01*
X102676901Y-73157545D01*
X102676904Y-73157545D01*
X102871227Y-73158562D01*
X103031857Y-73159403D01*
X103035243Y-73159053D01*
X103035245Y-73159053D01*
X103384932Y-73122917D01*
X103384941Y-73122916D01*
X103388324Y-73122566D01*
X103391657Y-73121852D01*
X103391660Y-73121851D01*
X103630495Y-73070649D01*
X103738727Y-73047446D01*
X104078968Y-72934922D01*
X104405066Y-72786311D01*
X104527266Y-72713754D01*
X104710262Y-72605099D01*
X104710267Y-72605096D01*
X104713207Y-72603350D01*
X104759935Y-72568266D01*
X104878921Y-72478928D01*
X104999786Y-72388180D01*
X105261451Y-72143319D01*
X105495140Y-71871630D01*
X105645190Y-71653306D01*
X105696190Y-71579101D01*
X105696195Y-71579094D01*
X105698120Y-71576292D01*
X105699732Y-71573298D01*
X105699737Y-71573290D01*
X105845605Y-71302384D01*
X105868017Y-71260760D01*
X106002842Y-70928724D01*
X106011968Y-70896689D01*
X106054458Y-70747526D01*
X106101020Y-70584070D01*
X106109983Y-70531632D01*
X106160829Y-70234175D01*
X106160829Y-70234173D01*
X106161401Y-70230828D01*
X106162851Y-70207129D01*
X106182125Y-69891986D01*
X106183278Y-69873131D01*
X106183359Y-69850000D01*
X106163979Y-69492159D01*
X106106066Y-69138505D01*
X106010297Y-68793173D01*
X106008508Y-68788675D01*
X105879052Y-68463369D01*
X105877793Y-68460205D01*
X105858662Y-68424073D01*
X105711702Y-68146513D01*
X105711698Y-68146506D01*
X105710103Y-68143494D01*
X105509190Y-67846746D01*
X105277403Y-67573432D01*
X105017454Y-67326750D01*
X104732384Y-67109585D01*
X104729472Y-67107828D01*
X104729467Y-67107825D01*
X104428443Y-66926236D01*
X104428437Y-66926233D01*
X104425528Y-66924478D01*
X104100475Y-66773593D01*
X103857019Y-66691188D01*
X103764255Y-66659789D01*
X103764250Y-66659788D01*
X103761028Y-66658697D01*
X103562681Y-66614724D01*
X103414493Y-66581871D01*
X103414487Y-66581870D01*
X103411158Y-66581132D01*
X103407769Y-66580758D01*
X103407764Y-66580757D01*
X103058338Y-66542180D01*
X103058333Y-66542180D01*
X103054957Y-66541807D01*
X103051558Y-66541801D01*
X103051557Y-66541801D01*
X102882080Y-66541505D01*
X102696592Y-66541182D01*
X102583413Y-66553277D01*
X102343639Y-66578901D01*
X102343631Y-66578902D01*
X102340256Y-66579263D01*
X101990117Y-66655606D01*
X101650271Y-66769317D01*
X101647178Y-66770739D01*
X101647177Y-66770740D01*
X101640974Y-66773593D01*
X101324694Y-66919066D01*
X101321760Y-66920822D01*
X101321758Y-66920823D01*
X101065019Y-67074478D01*
X101017193Y-67103101D01*
X101014467Y-67105163D01*
X101014465Y-67105164D01*
X100748637Y-67306209D01*
X100731367Y-67319270D01*
X100470559Y-67565043D01*
X100468342Y-67567639D01*
X100468337Y-67567644D01*
X100297811Y-67767304D01*
X100238361Y-67806114D01*
X100167366Y-67806620D01*
X100107367Y-67768664D01*
X100077414Y-67704296D01*
X100076000Y-67685474D01*
X100076000Y-52069000D01*
X100074543Y-52055443D01*
X100066925Y-51984589D01*
X100064391Y-51961020D01*
X100062313Y-51951465D01*
X100055444Y-51919891D01*
X100053005Y-51908678D01*
X100018707Y-51805628D01*
X99940535Y-51683990D01*
X99894042Y-51630334D01*
X99875213Y-51614018D01*
X99791576Y-51541546D01*
X99784766Y-51535645D01*
X99785081Y-51535282D01*
X99742674Y-51486341D01*
X99732571Y-51416067D01*
X99762065Y-51351486D01*
X99821791Y-51313103D01*
X99857288Y-51308000D01*
X109551100Y-51308000D01*
X109619221Y-51328002D01*
X109665714Y-51381658D01*
X109675818Y-51451932D01*
X109646324Y-51516512D01*
X109574645Y-51599234D01*
X109514579Y-51730760D01*
X109511580Y-51740975D01*
X109496278Y-51793089D01*
X109494577Y-51798881D01*
X109493937Y-51803329D01*
X109493936Y-51803336D01*
X109474639Y-51937552D01*
X109474638Y-51937559D01*
X109474000Y-51942000D01*
X109474000Y-66905931D01*
X109453998Y-66974052D01*
X109400342Y-67020545D01*
X109330068Y-67030649D01*
X109281886Y-67013192D01*
X109198317Y-66961679D01*
X109152968Y-66933725D01*
X109152966Y-66933724D01*
X109146738Y-66929885D01*
X108986254Y-66876655D01*
X108985389Y-66876368D01*
X108985387Y-66876368D01*
X108978861Y-66874203D01*
X108972025Y-66873503D01*
X108972022Y-66873502D01*
X108928969Y-66869091D01*
X108874400Y-66863500D01*
X108248600Y-66863500D01*
X108245354Y-66863837D01*
X108245350Y-66863837D01*
X108149692Y-66873762D01*
X108149688Y-66873763D01*
X108142834Y-66874474D01*
X108136298Y-66876655D01*
X108136296Y-66876655D01*
X108048546Y-66905931D01*
X107975054Y-66930450D01*
X107824652Y-67023522D01*
X107699695Y-67148697D01*
X107695855Y-67154927D01*
X107695854Y-67154928D01*
X107634068Y-67255164D01*
X107606885Y-67299262D01*
X107551203Y-67467139D01*
X107540500Y-67571600D01*
X107540500Y-68572400D01*
X107540837Y-68575646D01*
X107540837Y-68575650D01*
X107550663Y-68670347D01*
X107551474Y-68678166D01*
X107553655Y-68684702D01*
X107553655Y-68684704D01*
X107587668Y-68786652D01*
X107607450Y-68845946D01*
X107700522Y-68996348D01*
X107825697Y-69121305D01*
X107831927Y-69125145D01*
X107831928Y-69125146D01*
X107960733Y-69204543D01*
X108008227Y-69257316D01*
X108019650Y-69327387D01*
X107991376Y-69392511D01*
X107983792Y-69400818D01*
X107915383Y-69469347D01*
X107911543Y-69475577D01*
X107911542Y-69475578D01*
X107890949Y-69508986D01*
X107823339Y-69618671D01*
X107821034Y-69625619D01*
X107821034Y-69625620D01*
X107820478Y-69627298D01*
X107768115Y-69785165D01*
X107757500Y-69888769D01*
X107757501Y-70476230D01*
X107768384Y-70581129D01*
X107770563Y-70587660D01*
X107770564Y-70587665D01*
X107810878Y-70708499D01*
X107823898Y-70747526D01*
X107916203Y-70896689D01*
X108040347Y-71020617D01*
X108189671Y-71112661D01*
X108196619Y-71114966D01*
X108196620Y-71114966D01*
X108349634Y-71165719D01*
X108349636Y-71165719D01*
X108356165Y-71167885D01*
X108459769Y-71178500D01*
X108485640Y-71178500D01*
X109349549Y-71178499D01*
X109417670Y-71198501D01*
X109464163Y-71252157D01*
X109475076Y-71295760D01*
X109475239Y-71295748D01*
X109477104Y-71320821D01*
X109478369Y-71325951D01*
X109478370Y-71325956D01*
X109508811Y-71449383D01*
X109511727Y-71461207D01*
X109538364Y-71527017D01*
X109540624Y-71530898D01*
X109540626Y-71530901D01*
X109575062Y-71590021D01*
X109578177Y-71595368D01*
X109580613Y-71599551D01*
X109585316Y-71609706D01*
X109583821Y-71610632D01*
X109587672Y-71616855D01*
X109590946Y-71622146D01*
X109590947Y-71622148D01*
X109637226Y-71696934D01*
X109649603Y-71723355D01*
X109659706Y-71753634D01*
X109665510Y-71780519D01*
X109665828Y-71783588D01*
X109666499Y-71796574D01*
X109666500Y-72318841D01*
X109665842Y-72331702D01*
X109665606Y-72334002D01*
X109659857Y-72360808D01*
X109658222Y-72365738D01*
X109649761Y-72391247D01*
X109637428Y-72417694D01*
X109604977Y-72470340D01*
X109598469Y-72479889D01*
X109595621Y-72483681D01*
X109588505Y-72493652D01*
X109574645Y-72514107D01*
X109514579Y-72645633D01*
X109513311Y-72649952D01*
X109500287Y-72694309D01*
X109494577Y-72713754D01*
X109493937Y-72718202D01*
X109493936Y-72718209D01*
X109474639Y-72852425D01*
X109474638Y-72852432D01*
X109474000Y-72856873D01*
X109474000Y-75167600D01*
X109485609Y-75275580D01*
X109496995Y-75327922D01*
X109531293Y-75430972D01*
X109609465Y-75552610D01*
X109655958Y-75606266D01*
X109659352Y-75609207D01*
X109682786Y-75629513D01*
X109765234Y-75700955D01*
X109896760Y-75761021D01*
X109920514Y-75767996D01*
X109960558Y-75779754D01*
X109960562Y-75779755D01*
X109964881Y-75781023D01*
X109969329Y-75781663D01*
X109969336Y-75781664D01*
X110103552Y-75800961D01*
X110103559Y-75800962D01*
X110108000Y-75801600D01*
X118746000Y-75801600D01*
X118853980Y-75789991D01*
X118857264Y-75789277D01*
X118857268Y-75789276D01*
X118882339Y-75783822D01*
X118906322Y-75778605D01*
X119009372Y-75744307D01*
X119131010Y-75666135D01*
X119184666Y-75619642D01*
X119196257Y-75606266D01*
X119273453Y-75517177D01*
X119279355Y-75510366D01*
X119339421Y-75378840D01*
X119359423Y-75310719D01*
X119360673Y-75302025D01*
X119379361Y-75172048D01*
X119379362Y-75172041D01*
X119380000Y-75167600D01*
X119380000Y-51942000D01*
X119368391Y-51834020D01*
X119366997Y-51827609D01*
X119359185Y-51791699D01*
X119357005Y-51781678D01*
X119322707Y-51678628D01*
X119244535Y-51556990D01*
X119235952Y-51547084D01*
X119209461Y-51516512D01*
X119179968Y-51451931D01*
X119190073Y-51381657D01*
X119236566Y-51328002D01*
X119304686Y-51308000D01*
X123955652Y-51308000D01*
X124023773Y-51328002D01*
X124070266Y-51381658D01*
X124080370Y-51451932D01*
X124050876Y-51516512D01*
X123990910Y-51554966D01*
X123842433Y-51598243D01*
X123838180Y-51600203D01*
X123838179Y-51600204D01*
X123804223Y-51615858D01*
X123605072Y-51707668D01*
X123569851Y-51730760D01*
X123390404Y-51848410D01*
X123390399Y-51848414D01*
X123386491Y-51850976D01*
X123191494Y-52025018D01*
X123024363Y-52225970D01*
X123021934Y-52229973D01*
X122924887Y-52389902D01*
X122888771Y-52449419D01*
X122787697Y-52690455D01*
X122723359Y-52943783D01*
X122722891Y-52948434D01*
X122722890Y-52948438D01*
X122710203Y-53074438D01*
X122701500Y-53160867D01*
X122701500Y-57816354D01*
X122701673Y-57818679D01*
X122701673Y-57818685D01*
X122712790Y-57968271D01*
X122715939Y-58010652D01*
X122716968Y-58015200D01*
X122716969Y-58015206D01*
X122753707Y-58177562D01*
X122773623Y-58265577D01*
X122775315Y-58269929D01*
X122775316Y-58269931D01*
X122837960Y-58431020D01*
X122868353Y-58509177D01*
X122998049Y-58736098D01*
X123159862Y-58941357D01*
X123350237Y-59120443D01*
X123564991Y-59269424D01*
X123569181Y-59271490D01*
X123569184Y-59271492D01*
X123795219Y-59382960D01*
X123795222Y-59382961D01*
X123799407Y-59385025D01*
X123803850Y-59386447D01*
X123803852Y-59386448D01*
X123909572Y-59420289D01*
X124048335Y-59464707D01*
X124306307Y-59506721D01*
X124420058Y-59508210D01*
X124562978Y-59510081D01*
X124562981Y-59510081D01*
X124567655Y-59510142D01*
X124826638Y-59474896D01*
X125077567Y-59401757D01*
X125086819Y-59397492D01*
X125132112Y-59376611D01*
X125314928Y-59292332D01*
X125389810Y-59243237D01*
X125529596Y-59151590D01*
X125529601Y-59151586D01*
X125533509Y-59149024D01*
X125728506Y-58974982D01*
X125895637Y-58774030D01*
X125952345Y-58680578D01*
X126028804Y-58554578D01*
X126028806Y-58554574D01*
X126031229Y-58550581D01*
X126132303Y-58309545D01*
X126196641Y-58056217D01*
X126208106Y-57942354D01*
X137283500Y-57942354D01*
X137283673Y-57944679D01*
X137283673Y-57944685D01*
X137292299Y-58060752D01*
X137297939Y-58136652D01*
X137298968Y-58141200D01*
X137298969Y-58141206D01*
X137326081Y-58261020D01*
X137355623Y-58391577D01*
X137450353Y-58635177D01*
X137580049Y-58862098D01*
X137741862Y-59067357D01*
X137932237Y-59246443D01*
X138146991Y-59395424D01*
X138151181Y-59397490D01*
X138151184Y-59397492D01*
X138377219Y-59508960D01*
X138377222Y-59508961D01*
X138381407Y-59511025D01*
X138385850Y-59512447D01*
X138385852Y-59512448D01*
X138625877Y-59589280D01*
X138630335Y-59590707D01*
X138888307Y-59632721D01*
X139002058Y-59634210D01*
X139144978Y-59636081D01*
X139144981Y-59636081D01*
X139149655Y-59636142D01*
X139408638Y-59600896D01*
X139659567Y-59527757D01*
X139695862Y-59511025D01*
X139714112Y-59502611D01*
X139896928Y-59418332D01*
X139950879Y-59382960D01*
X140111596Y-59277590D01*
X140111601Y-59277586D01*
X140115509Y-59275024D01*
X140310506Y-59100982D01*
X140477637Y-58900030D01*
X140556525Y-58770027D01*
X140610804Y-58680578D01*
X140610806Y-58680574D01*
X140613229Y-58676581D01*
X140714303Y-58435545D01*
X140778641Y-58182217D01*
X140791329Y-58056217D01*
X140800184Y-57968271D01*
X140800500Y-57965133D01*
X140800500Y-53309646D01*
X140791311Y-53185990D01*
X140786407Y-53120000D01*
X140786406Y-53119996D01*
X140786061Y-53115348D01*
X140774725Y-53065248D01*
X140729408Y-52864980D01*
X140728377Y-52860423D01*
X140677686Y-52730069D01*
X140635340Y-52621176D01*
X140635339Y-52621173D01*
X140633647Y-52616823D01*
X140503951Y-52389902D01*
X140342138Y-52184643D01*
X140151763Y-52005557D01*
X139966290Y-51876889D01*
X139940851Y-51859241D01*
X139940848Y-51859239D01*
X139937009Y-51856576D01*
X139931974Y-51854093D01*
X139706781Y-51743040D01*
X139706778Y-51743039D01*
X139702593Y-51740975D01*
X139670682Y-51730760D01*
X139458123Y-51662720D01*
X139453665Y-51661293D01*
X139195693Y-51619279D01*
X139081942Y-51617790D01*
X138939022Y-51615919D01*
X138939019Y-51615919D01*
X138934345Y-51615858D01*
X138675362Y-51651104D01*
X138424433Y-51724243D01*
X138420180Y-51726203D01*
X138420179Y-51726204D01*
X138383659Y-51743040D01*
X138187072Y-51833668D01*
X138152127Y-51856579D01*
X137972404Y-51974410D01*
X137972399Y-51974414D01*
X137968491Y-51976976D01*
X137773494Y-52151018D01*
X137606363Y-52351970D01*
X137603934Y-52355973D01*
X137519464Y-52495176D01*
X137470771Y-52575419D01*
X137369697Y-52816455D01*
X137305359Y-53069783D01*
X137283500Y-53286867D01*
X137283500Y-57942354D01*
X126208106Y-57942354D01*
X126218500Y-57839133D01*
X126218500Y-53183646D01*
X126213086Y-53110794D01*
X126204407Y-52994000D01*
X126204406Y-52993996D01*
X126204061Y-52989348D01*
X126192725Y-52939248D01*
X126147408Y-52738980D01*
X126146377Y-52734423D01*
X126051647Y-52490823D01*
X126030885Y-52454496D01*
X125949062Y-52311336D01*
X125921951Y-52263902D01*
X125760138Y-52058643D01*
X125569763Y-51879557D01*
X125361500Y-51735079D01*
X125358851Y-51733241D01*
X125358848Y-51733239D01*
X125355009Y-51730576D01*
X125350816Y-51728508D01*
X125124781Y-51617040D01*
X125124778Y-51617039D01*
X125120593Y-51614975D01*
X125064227Y-51596932D01*
X124930112Y-51554002D01*
X124871332Y-51514185D01*
X124843410Y-51448909D01*
X124855211Y-51378900D01*
X124902989Y-51326385D01*
X124968525Y-51308000D01*
X143968100Y-51308000D01*
X144036221Y-51328002D01*
X144082714Y-51381658D01*
X144092818Y-51451932D01*
X144063324Y-51516512D01*
X143991645Y-51599234D01*
X143931579Y-51730760D01*
X143928580Y-51740975D01*
X143913278Y-51793089D01*
X143911577Y-51798881D01*
X143910937Y-51803329D01*
X143910936Y-51803336D01*
X143891639Y-51937552D01*
X143891638Y-51937559D01*
X143891000Y-51942000D01*
X143891000Y-75145000D01*
X143902609Y-75252980D01*
X143913995Y-75305322D01*
X143948293Y-75408372D01*
X144026465Y-75530010D01*
X144072958Y-75583666D01*
X144182234Y-75678355D01*
X144313760Y-75738421D01*
X144319291Y-75740045D01*
X144377558Y-75757154D01*
X144377562Y-75757155D01*
X144381881Y-75758423D01*
X144386329Y-75759063D01*
X144386336Y-75759064D01*
X144520552Y-75778361D01*
X144520559Y-75778362D01*
X144525000Y-75779000D01*
X153097501Y-75779000D01*
X153165622Y-75799002D01*
X153212115Y-75852658D01*
X153223501Y-75905000D01*
X153223501Y-76064230D01*
X153234384Y-76169129D01*
X153236563Y-76175660D01*
X153236564Y-76175665D01*
X153285990Y-76323811D01*
X153289898Y-76335526D01*
X153382203Y-76484689D01*
X153506347Y-76608617D01*
X153655671Y-76700661D01*
X153662619Y-76702966D01*
X153662620Y-76702966D01*
X153815634Y-76753719D01*
X153815636Y-76753719D01*
X153822165Y-76755885D01*
X153925769Y-76766500D01*
X154428096Y-76766500D01*
X154938230Y-76766499D01*
X155043129Y-76755616D01*
X155049660Y-76753437D01*
X155049665Y-76753436D01*
X155202578Y-76702420D01*
X155209526Y-76700102D01*
X155358689Y-76607797D01*
X155482617Y-76483653D01*
X155574661Y-76334329D01*
X155629885Y-76167835D01*
X155640500Y-76064231D01*
X155640499Y-75476770D01*
X155629616Y-75371871D01*
X155627437Y-75365340D01*
X155627436Y-75365335D01*
X155576420Y-75212422D01*
X155574102Y-75205474D01*
X155481797Y-75056311D01*
X155357653Y-74932383D01*
X155208329Y-74840339D01*
X155205055Y-74839253D01*
X155152965Y-74793388D01*
X155133500Y-74726110D01*
X155133500Y-74712853D01*
X155153502Y-74644732D01*
X155170327Y-74623835D01*
X155253134Y-74540884D01*
X155253138Y-74540879D01*
X155258305Y-74535703D01*
X155351115Y-74385138D01*
X155406797Y-74217261D01*
X155417500Y-74112800D01*
X155417500Y-73112000D01*
X155415507Y-73092792D01*
X155407238Y-73013092D01*
X155407237Y-73013088D01*
X155406526Y-73006234D01*
X155378264Y-72921521D01*
X155352868Y-72845402D01*
X155350550Y-72838454D01*
X155257478Y-72688052D01*
X155132303Y-72563095D01*
X155118666Y-72554689D01*
X154987968Y-72474125D01*
X154987966Y-72474124D01*
X154981738Y-72470285D01*
X154901995Y-72443836D01*
X154820389Y-72416768D01*
X154820387Y-72416768D01*
X154813861Y-72414603D01*
X154807025Y-72413903D01*
X154807022Y-72413902D01*
X154763969Y-72409491D01*
X154709400Y-72403900D01*
X154083600Y-72403900D01*
X154080354Y-72404237D01*
X154080350Y-72404237D01*
X153984692Y-72414162D01*
X153984688Y-72414163D01*
X153977834Y-72414874D01*
X153971293Y-72417056D01*
X153971294Y-72417056D01*
X153962873Y-72419865D01*
X153891924Y-72422448D01*
X153830841Y-72386262D01*
X153799017Y-72322797D01*
X153797000Y-72300340D01*
X153797000Y-69988434D01*
X155186661Y-69988434D01*
X155186833Y-69991829D01*
X155186833Y-69991830D01*
X155192426Y-70102230D01*
X155204792Y-70346340D01*
X155205329Y-70349695D01*
X155205330Y-70349701D01*
X155238886Y-70559197D01*
X155261470Y-70700195D01*
X155356033Y-71045859D01*
X155487374Y-71379288D01*
X155506307Y-71415350D01*
X155637728Y-71665670D01*
X155653957Y-71696582D01*
X155655858Y-71699411D01*
X155655864Y-71699421D01*
X155754791Y-71846638D01*
X155853834Y-71994029D01*
X156084665Y-72268150D01*
X156343751Y-72515738D01*
X156628061Y-72733897D01*
X156660056Y-72753350D01*
X156931355Y-72918303D01*
X156931360Y-72918306D01*
X156934270Y-72920075D01*
X156937358Y-72921521D01*
X156937357Y-72921521D01*
X157255710Y-73070649D01*
X157255720Y-73070653D01*
X157258794Y-73072093D01*
X157262012Y-73073195D01*
X157262015Y-73073196D01*
X157594615Y-73187071D01*
X157594623Y-73187073D01*
X157597838Y-73188174D01*
X157947435Y-73266959D01*
X157999728Y-73272917D01*
X158300114Y-73307142D01*
X158300122Y-73307142D01*
X158303497Y-73307527D01*
X158306901Y-73307545D01*
X158306904Y-73307545D01*
X158501227Y-73308562D01*
X158661857Y-73309403D01*
X158665243Y-73309053D01*
X158665245Y-73309053D01*
X159014932Y-73272917D01*
X159014941Y-73272916D01*
X159018324Y-73272566D01*
X159021657Y-73271852D01*
X159021660Y-73271851D01*
X159238758Y-73225309D01*
X159368727Y-73197446D01*
X159708968Y-73084922D01*
X160035066Y-72936311D01*
X160203167Y-72836500D01*
X160340262Y-72755099D01*
X160340267Y-72755096D01*
X160343207Y-72753350D01*
X160390011Y-72718209D01*
X160542988Y-72603350D01*
X160629786Y-72538180D01*
X160891451Y-72293319D01*
X161125140Y-72021630D01*
X161249150Y-71841194D01*
X161326190Y-71729101D01*
X161326195Y-71729094D01*
X161328120Y-71726292D01*
X161329732Y-71723298D01*
X161329737Y-71723290D01*
X161476779Y-71450203D01*
X161498017Y-71410760D01*
X161614057Y-71124986D01*
X161631562Y-71081877D01*
X161631564Y-71081872D01*
X161632842Y-71078724D01*
X161643142Y-71042568D01*
X161685870Y-70892568D01*
X161731020Y-70734070D01*
X161737504Y-70696138D01*
X161790829Y-70384175D01*
X161790829Y-70384173D01*
X161791401Y-70380828D01*
X161793317Y-70349516D01*
X161813168Y-70024928D01*
X161813278Y-70023131D01*
X161813337Y-70006231D01*
X161813353Y-70001819D01*
X161813353Y-70001806D01*
X161813359Y-70000000D01*
X161793979Y-69642159D01*
X161736066Y-69288505D01*
X161640297Y-68943173D01*
X161637243Y-68935497D01*
X161528283Y-68661695D01*
X161507793Y-68610205D01*
X161473906Y-68546203D01*
X161341702Y-68296513D01*
X161341698Y-68296506D01*
X161340103Y-68293494D01*
X161139190Y-67996746D01*
X161135292Y-67992149D01*
X161009772Y-67844142D01*
X160907403Y-67723432D01*
X160764687Y-67588000D01*
X163957000Y-67588000D01*
X163968609Y-67695980D01*
X163969323Y-67699264D01*
X163969324Y-67699268D01*
X163972756Y-67715043D01*
X163979995Y-67748322D01*
X164014293Y-67851372D01*
X164092465Y-67973010D01*
X164095407Y-67976405D01*
X164095409Y-67976408D01*
X164105060Y-67987546D01*
X164138958Y-68026666D01*
X164142352Y-68029607D01*
X164165786Y-68049913D01*
X164248234Y-68121355D01*
X164379760Y-68181421D01*
X164403514Y-68188396D01*
X164443558Y-68200154D01*
X164443562Y-68200155D01*
X164447881Y-68201423D01*
X164452329Y-68202063D01*
X164452336Y-68202064D01*
X164586552Y-68221361D01*
X164586559Y-68221362D01*
X164591000Y-68222000D01*
X167944157Y-68222000D01*
X168012278Y-68242002D01*
X168058771Y-68295658D01*
X168068875Y-68365932D01*
X168039381Y-68430512D01*
X168010460Y-68455144D01*
X167902382Y-68522025D01*
X167863311Y-68546203D01*
X167739383Y-68670347D01*
X167647339Y-68819671D01*
X167645034Y-68826619D01*
X167645034Y-68826620D01*
X167597275Y-68970609D01*
X167592115Y-68986165D01*
X167581500Y-69089769D01*
X167581501Y-70102230D01*
X167592384Y-70207129D01*
X167594563Y-70213660D01*
X167594564Y-70213665D01*
X167618613Y-70285748D01*
X167647898Y-70373526D01*
X167740203Y-70522689D01*
X167864347Y-70646617D01*
X168013671Y-70738661D01*
X168020619Y-70740966D01*
X168020620Y-70740966D01*
X168173634Y-70791719D01*
X168173636Y-70791719D01*
X168180165Y-70793885D01*
X168283769Y-70804500D01*
X168575234Y-70804500D01*
X168871230Y-70804499D01*
X168976129Y-70793616D01*
X168982660Y-70791437D01*
X168982665Y-70791436D01*
X169135578Y-70740420D01*
X169142526Y-70738102D01*
X169291689Y-70645797D01*
X169415617Y-70521653D01*
X169433005Y-70493444D01*
X169485776Y-70445950D01*
X169555848Y-70434526D01*
X169606381Y-70452299D01*
X169641090Y-70473694D01*
X169648262Y-70478115D01*
X169683353Y-70489754D01*
X169809611Y-70531632D01*
X169809613Y-70531632D01*
X169816139Y-70533797D01*
X169822975Y-70534497D01*
X169822978Y-70534498D01*
X169866031Y-70538909D01*
X169920600Y-70544500D01*
X170921400Y-70544500D01*
X170924646Y-70544163D01*
X170924650Y-70544163D01*
X171020308Y-70534238D01*
X171020312Y-70534237D01*
X171027166Y-70533526D01*
X171033702Y-70531345D01*
X171033704Y-70531345D01*
X171178508Y-70483034D01*
X171194946Y-70477550D01*
X171345348Y-70384478D01*
X171470305Y-70259303D01*
X171506692Y-70200273D01*
X171559275Y-70114968D01*
X171559276Y-70114966D01*
X171563115Y-70108738D01*
X171599781Y-69998194D01*
X171616632Y-69947389D01*
X171616632Y-69947387D01*
X171618797Y-69940861D01*
X171629500Y-69836400D01*
X171629500Y-69210600D01*
X171622020Y-69138505D01*
X171619238Y-69111692D01*
X171619237Y-69111688D01*
X171618526Y-69104834D01*
X171581219Y-68993010D01*
X171564868Y-68944002D01*
X171562550Y-68937054D01*
X171469478Y-68786652D01*
X171382891Y-68700216D01*
X171348812Y-68637934D01*
X171353815Y-68567114D01*
X171382736Y-68522025D01*
X171465134Y-68439483D01*
X171470305Y-68434303D01*
X171474520Y-68427466D01*
X171563115Y-68283738D01*
X171565470Y-68285189D01*
X171603936Y-68241481D01*
X171671239Y-68222000D01*
X180976000Y-68222000D01*
X181083980Y-68210391D01*
X181087264Y-68209677D01*
X181087268Y-68209676D01*
X181112339Y-68204222D01*
X181136322Y-68199005D01*
X181239372Y-68164707D01*
X181361010Y-68086535D01*
X181414666Y-68040042D01*
X181426257Y-68026666D01*
X181449735Y-67999570D01*
X181509355Y-67930766D01*
X181569421Y-67799240D01*
X181589423Y-67731119D01*
X181590154Y-67726035D01*
X181609361Y-67592448D01*
X181609362Y-67592441D01*
X181610000Y-67588000D01*
X181610000Y-65377052D01*
X181599942Y-65276466D01*
X181599322Y-65273395D01*
X181599320Y-65273384D01*
X181590683Y-65230630D01*
X181590683Y-65230629D01*
X181590062Y-65227556D01*
X181560285Y-65130947D01*
X181508200Y-65044342D01*
X181488086Y-65010897D01*
X181488082Y-65010892D01*
X181485764Y-65007037D01*
X181440887Y-64952022D01*
X181334477Y-64854128D01*
X181204797Y-64790177D01*
X181200529Y-64788785D01*
X181200525Y-64788783D01*
X181141584Y-64769555D01*
X181141585Y-64769555D01*
X181140703Y-64769267D01*
X181140702Y-64769267D01*
X181137302Y-64768158D01*
X181137543Y-64767419D01*
X181079629Y-64733528D01*
X181047467Y-64670234D01*
X181045339Y-64645465D01*
X181045360Y-64643912D01*
X181048127Y-64432535D01*
X181048142Y-64431345D01*
X181048587Y-64431351D01*
X181063766Y-64364873D01*
X181114482Y-64315189D01*
X181138228Y-64305496D01*
X181230725Y-64278336D01*
X181239372Y-64275797D01*
X181361010Y-64197625D01*
X181414666Y-64151132D01*
X181509355Y-64041856D01*
X181569421Y-63910330D01*
X181589423Y-63842209D01*
X181594828Y-63804616D01*
X181609361Y-63703538D01*
X181609362Y-63703531D01*
X181610000Y-63699090D01*
X181610000Y-52450000D01*
X181598391Y-52342020D01*
X181587005Y-52289678D01*
X181552707Y-52186628D01*
X181474535Y-52064990D01*
X181469036Y-52058643D01*
X181430982Y-52014727D01*
X181428042Y-52011334D01*
X181409213Y-51995018D01*
X181388391Y-51976976D01*
X181318766Y-51916645D01*
X181187240Y-51856579D01*
X181159419Y-51848410D01*
X181123442Y-51837846D01*
X181123438Y-51837845D01*
X181119119Y-51836577D01*
X181114671Y-51835937D01*
X181114664Y-51835936D01*
X180980448Y-51816639D01*
X180980441Y-51816638D01*
X180976000Y-51816000D01*
X168951347Y-51816000D01*
X168922896Y-51812746D01*
X168892187Y-51805628D01*
X168833750Y-51792083D01*
X168565897Y-51768885D01*
X168561462Y-51769129D01*
X168561458Y-51769129D01*
X168443232Y-51775635D01*
X168297447Y-51783658D01*
X168186998Y-51805628D01*
X168147026Y-51813579D01*
X168122444Y-51816000D01*
X164591000Y-51816000D01*
X164483020Y-51827609D01*
X164479736Y-51828323D01*
X164479732Y-51828324D01*
X164455166Y-51833668D01*
X164430678Y-51838995D01*
X164327628Y-51873293D01*
X164205990Y-51951465D01*
X164202595Y-51954407D01*
X164202592Y-51954409D01*
X164172951Y-51980093D01*
X164152334Y-51997958D01*
X164149393Y-52001352D01*
X164137803Y-52014727D01*
X164057645Y-52107234D01*
X163997579Y-52238760D01*
X163977577Y-52306881D01*
X163976937Y-52311329D01*
X163976936Y-52311336D01*
X163957639Y-52445552D01*
X163957638Y-52445559D01*
X163957000Y-52450000D01*
X163957000Y-67588000D01*
X160764687Y-67588000D01*
X160647454Y-67476750D01*
X160414468Y-67299262D01*
X160365091Y-67261647D01*
X160365089Y-67261646D01*
X160362384Y-67259585D01*
X160359472Y-67257828D01*
X160359467Y-67257825D01*
X160058443Y-67076236D01*
X160058437Y-67076233D01*
X160055528Y-67074478D01*
X159753554Y-66934306D01*
X159733571Y-66925030D01*
X159733569Y-66925029D01*
X159730475Y-66923593D01*
X159552937Y-66863500D01*
X159394255Y-66809789D01*
X159394250Y-66809788D01*
X159391028Y-66808697D01*
X159192681Y-66764724D01*
X159044493Y-66731871D01*
X159044487Y-66731870D01*
X159041158Y-66731132D01*
X159037769Y-66730758D01*
X159037764Y-66730757D01*
X158688338Y-66692180D01*
X158688333Y-66692180D01*
X158684957Y-66691807D01*
X158681558Y-66691801D01*
X158681557Y-66691801D01*
X158512080Y-66691505D01*
X158326592Y-66691182D01*
X158213413Y-66703277D01*
X157973639Y-66728901D01*
X157973631Y-66728902D01*
X157970256Y-66729263D01*
X157620117Y-66805606D01*
X157280271Y-66919317D01*
X157277178Y-66920739D01*
X157277177Y-66920740D01*
X157161269Y-66974052D01*
X156954694Y-67069066D01*
X156951760Y-67070822D01*
X156951758Y-67070823D01*
X156684272Y-67230910D01*
X156647193Y-67253101D01*
X156644467Y-67255163D01*
X156644465Y-67255164D01*
X156364185Y-67467139D01*
X156361367Y-67469270D01*
X156100559Y-67715043D01*
X156098347Y-67717633D01*
X156098345Y-67717635D01*
X156074952Y-67745025D01*
X155867819Y-67987546D01*
X155865900Y-67990358D01*
X155865897Y-67990363D01*
X155800293Y-68086535D01*
X155665871Y-68283591D01*
X155497077Y-68599714D01*
X155363411Y-68932218D01*
X155362491Y-68935492D01*
X155362489Y-68935497D01*
X155268101Y-69271294D01*
X155266437Y-69277213D01*
X155265875Y-69280570D01*
X155265875Y-69280571D01*
X155230468Y-69492159D01*
X155207290Y-69630663D01*
X155186661Y-69988434D01*
X153797000Y-69988434D01*
X153797000Y-51942000D01*
X153785391Y-51834020D01*
X153783997Y-51827609D01*
X153776185Y-51791699D01*
X153774005Y-51781678D01*
X153739707Y-51678628D01*
X153661535Y-51556990D01*
X153652952Y-51547084D01*
X153626461Y-51516512D01*
X153596968Y-51451931D01*
X153607073Y-51381657D01*
X153653566Y-51328002D01*
X153721686Y-51308000D01*
X181179672Y-51308000D01*
X181199057Y-51309500D01*
X181213858Y-51311805D01*
X181213861Y-51311805D01*
X181222730Y-51313186D01*
X181231632Y-51312022D01*
X181231636Y-51312022D01*
X181231732Y-51312009D01*
X181262170Y-51311738D01*
X181356196Y-51322332D01*
X181383704Y-51328611D01*
X181491116Y-51366196D01*
X181516535Y-51378437D01*
X181564611Y-51408645D01*
X181612897Y-51438985D01*
X181634956Y-51456577D01*
X181715423Y-51537044D01*
X181733015Y-51559103D01*
X181771299Y-51620031D01*
X181793562Y-51655463D01*
X181805804Y-51680884D01*
X181843389Y-51788296D01*
X181849668Y-51815803D01*
X181859522Y-51903254D01*
X181860305Y-51918900D01*
X181860196Y-51927856D01*
X181858814Y-51936730D01*
X181862936Y-51968251D01*
X181864000Y-51984589D01*
X181864000Y-73364100D01*
X181843998Y-73432221D01*
X181790342Y-73478714D01*
X181720068Y-73488818D01*
X181655487Y-73459324D01*
X181616348Y-73425409D01*
X181572766Y-73387645D01*
X181441240Y-73327579D01*
X181407493Y-73317670D01*
X181377442Y-73308846D01*
X181377438Y-73308845D01*
X181373119Y-73307577D01*
X181368671Y-73306937D01*
X181368664Y-73306936D01*
X181234448Y-73287639D01*
X181234441Y-73287638D01*
X181230000Y-73287000D01*
X179995665Y-73287000D01*
X179927544Y-73266998D01*
X179881051Y-73213342D01*
X179870947Y-73143068D01*
X179876071Y-73121336D01*
X179877718Y-73116371D01*
X179877720Y-73116363D01*
X179879885Y-73109835D01*
X179890500Y-73006231D01*
X179890499Y-71993770D01*
X179879616Y-71888871D01*
X179877437Y-71882340D01*
X179877436Y-71882335D01*
X179826420Y-71729422D01*
X179824102Y-71722474D01*
X179731797Y-71573311D01*
X179607653Y-71449383D01*
X179458329Y-71357339D01*
X179363713Y-71325956D01*
X179298366Y-71304281D01*
X179298364Y-71304281D01*
X179291835Y-71302115D01*
X179188231Y-71291500D01*
X178896766Y-71291500D01*
X178600770Y-71291501D01*
X178495871Y-71302384D01*
X178489340Y-71304563D01*
X178489335Y-71304564D01*
X178341189Y-71353990D01*
X178329474Y-71357898D01*
X178180311Y-71450203D01*
X178056383Y-71574347D01*
X178052543Y-71580577D01*
X178052542Y-71580578D01*
X178000091Y-71665670D01*
X177947319Y-71713163D01*
X177877247Y-71724587D01*
X177826718Y-71706815D01*
X177732738Y-71648885D01*
X177572254Y-71595655D01*
X177571389Y-71595368D01*
X177571387Y-71595368D01*
X177564861Y-71593203D01*
X177558025Y-71592503D01*
X177558022Y-71592502D01*
X177514969Y-71588091D01*
X177460400Y-71582500D01*
X176459600Y-71582500D01*
X176456354Y-71582837D01*
X176456350Y-71582837D01*
X176360692Y-71592762D01*
X176360688Y-71592763D01*
X176353834Y-71593474D01*
X176347298Y-71595655D01*
X176347296Y-71595655D01*
X176267888Y-71622148D01*
X176186054Y-71649450D01*
X176035652Y-71742522D01*
X175910695Y-71867697D01*
X175906855Y-71873927D01*
X175906854Y-71873928D01*
X175832823Y-71994029D01*
X175817885Y-72018262D01*
X175762203Y-72186139D01*
X175751500Y-72290600D01*
X175751500Y-72916400D01*
X175751837Y-72919646D01*
X175751837Y-72919650D01*
X175761533Y-73013092D01*
X175762474Y-73022166D01*
X175764655Y-73028702D01*
X175764655Y-73028704D01*
X175795489Y-73121124D01*
X175798073Y-73192073D01*
X175761890Y-73253157D01*
X175698425Y-73284982D01*
X175675965Y-73287000D01*
X164845000Y-73287000D01*
X164737020Y-73298609D01*
X164733736Y-73299323D01*
X164733732Y-73299324D01*
X164708661Y-73304778D01*
X164684678Y-73309995D01*
X164581628Y-73344293D01*
X164459990Y-73422465D01*
X164406334Y-73468958D01*
X164403393Y-73472352D01*
X164392809Y-73484567D01*
X164311645Y-73578234D01*
X164251579Y-73709760D01*
X164231577Y-73777881D01*
X164230937Y-73782329D01*
X164230936Y-73782336D01*
X164211639Y-73916552D01*
X164211638Y-73916559D01*
X164211000Y-73921000D01*
X164211000Y-87534600D01*
X164222609Y-87642580D01*
X164223323Y-87645864D01*
X164223324Y-87645868D01*
X164228778Y-87670939D01*
X164233995Y-87694922D01*
X164268293Y-87797972D01*
X164346465Y-87919610D01*
X164349407Y-87923005D01*
X164349409Y-87923008D01*
X164364348Y-87940248D01*
X164392958Y-87973266D01*
X164502234Y-88067955D01*
X164633760Y-88128021D01*
X164657514Y-88134996D01*
X164697558Y-88146754D01*
X164697562Y-88146755D01*
X164701881Y-88148023D01*
X164706329Y-88148663D01*
X164706336Y-88148664D01*
X164840552Y-88167961D01*
X164840559Y-88167962D01*
X164845000Y-88168600D01*
X172918555Y-88168600D01*
X172920627Y-88168462D01*
X172920643Y-88168461D01*
X172965589Y-88165457D01*
X173034892Y-88180873D01*
X173084859Y-88231309D01*
X173094956Y-88255918D01*
X173136243Y-88397567D01*
X173245668Y-88634928D01*
X173248231Y-88638837D01*
X173386410Y-88849596D01*
X173386414Y-88849601D01*
X173388976Y-88853509D01*
X173563018Y-89048506D01*
X173763970Y-89215637D01*
X173767973Y-89218066D01*
X173983422Y-89348804D01*
X173983426Y-89348806D01*
X173987419Y-89351229D01*
X174228455Y-89452303D01*
X174481783Y-89516641D01*
X174486434Y-89517109D01*
X174486438Y-89517110D01*
X174679308Y-89536531D01*
X174698867Y-89538500D01*
X179354354Y-89538500D01*
X179356679Y-89538327D01*
X179356685Y-89538327D01*
X179544000Y-89524407D01*
X179544004Y-89524406D01*
X179548652Y-89524061D01*
X179553200Y-89523032D01*
X179553206Y-89523031D01*
X179739601Y-89480853D01*
X179803577Y-89466377D01*
X179839769Y-89452303D01*
X180042824Y-89373340D01*
X180042827Y-89373339D01*
X180047177Y-89371647D01*
X180274098Y-89241951D01*
X180479357Y-89080138D01*
X180658443Y-88889763D01*
X180807424Y-88675009D01*
X180856729Y-88575029D01*
X180920960Y-88444781D01*
X180920961Y-88444778D01*
X180923025Y-88440593D01*
X180952344Y-88349001D01*
X180984055Y-88249935D01*
X181023873Y-88191155D01*
X181089148Y-88163233D01*
X181121988Y-88163630D01*
X181152109Y-88167961D01*
X181152116Y-88167962D01*
X181156557Y-88168600D01*
X181230000Y-88168600D01*
X181337980Y-88156991D01*
X181341264Y-88156277D01*
X181341268Y-88156276D01*
X181367732Y-88150519D01*
X181390322Y-88145605D01*
X181493372Y-88111307D01*
X181615010Y-88033135D01*
X181655487Y-87998061D01*
X181720069Y-87968568D01*
X181790343Y-87978673D01*
X181843998Y-88025166D01*
X181864000Y-88093286D01*
X181864000Y-95606500D01*
X181843998Y-95674621D01*
X181790342Y-95721114D01*
X181720068Y-95731218D01*
X181655487Y-95701724D01*
X181625045Y-95675345D01*
X181572766Y-95630045D01*
X181441240Y-95569979D01*
X181417025Y-95562869D01*
X181377442Y-95551246D01*
X181377438Y-95551245D01*
X181373119Y-95549977D01*
X181368671Y-95549337D01*
X181368664Y-95549336D01*
X181234448Y-95530039D01*
X181234441Y-95530038D01*
X181230000Y-95529400D01*
X176947532Y-95529400D01*
X176879411Y-95509398D01*
X176832918Y-95455742D01*
X176822814Y-95385468D01*
X176827939Y-95363733D01*
X176829718Y-95358370D01*
X176829719Y-95358365D01*
X176831885Y-95351835D01*
X176842500Y-95248231D01*
X176842499Y-94235770D01*
X176831616Y-94130871D01*
X176829437Y-94124340D01*
X176829436Y-94124335D01*
X176778420Y-93971422D01*
X176776102Y-93964474D01*
X176683797Y-93815311D01*
X176559653Y-93691383D01*
X176535134Y-93676269D01*
X176520014Y-93666949D01*
X176410329Y-93599339D01*
X176403380Y-93597034D01*
X176250366Y-93546281D01*
X176250364Y-93546281D01*
X176243835Y-93544115D01*
X176140231Y-93533500D01*
X175848766Y-93533500D01*
X175552770Y-93533501D01*
X175447871Y-93544384D01*
X175441340Y-93546563D01*
X175441335Y-93546564D01*
X175293189Y-93595990D01*
X175281474Y-93599898D01*
X175132311Y-93692203D01*
X175008383Y-93816347D01*
X174916339Y-93965671D01*
X174914034Y-93972619D01*
X174914034Y-93972620D01*
X174900171Y-94014417D01*
X174861115Y-94132165D01*
X174860414Y-94139010D01*
X174859338Y-94149510D01*
X174832498Y-94215237D01*
X174774383Y-94256020D01*
X174703446Y-94258910D01*
X174684999Y-94252372D01*
X174681938Y-94250485D01*
X174521454Y-94197255D01*
X174520589Y-94196968D01*
X174520587Y-94196968D01*
X174514061Y-94194803D01*
X174507225Y-94194103D01*
X174507222Y-94194102D01*
X174464169Y-94189691D01*
X174409600Y-94184100D01*
X173408800Y-94184100D01*
X173405554Y-94184437D01*
X173405550Y-94184437D01*
X173309892Y-94194362D01*
X173309888Y-94194363D01*
X173303034Y-94195074D01*
X173296498Y-94197255D01*
X173296496Y-94197255D01*
X173242598Y-94215237D01*
X173135254Y-94251050D01*
X172984852Y-94344122D01*
X172859895Y-94469297D01*
X172856055Y-94475527D01*
X172856054Y-94475528D01*
X172789908Y-94582837D01*
X172767085Y-94619862D01*
X172711403Y-94787739D01*
X172710703Y-94794575D01*
X172710702Y-94794578D01*
X172706291Y-94837631D01*
X172700700Y-94892200D01*
X172700700Y-95403400D01*
X172680698Y-95471521D01*
X172627042Y-95518014D01*
X172574700Y-95529400D01*
X164845000Y-95529400D01*
X164737020Y-95541009D01*
X164733736Y-95541723D01*
X164733732Y-95541724D01*
X164708661Y-95547178D01*
X164684678Y-95552395D01*
X164581628Y-95586693D01*
X164459990Y-95664865D01*
X164406334Y-95711358D01*
X164403393Y-95714752D01*
X164392148Y-95727729D01*
X164311645Y-95820634D01*
X164251579Y-95952160D01*
X164250311Y-95956479D01*
X164234009Y-96012000D01*
X164231577Y-96020281D01*
X164230937Y-96024729D01*
X164230936Y-96024736D01*
X164211639Y-96158952D01*
X164211638Y-96158959D01*
X164211000Y-96163400D01*
X164211000Y-110643400D01*
X164222609Y-110751380D01*
X164233995Y-110803722D01*
X164268293Y-110906772D01*
X164346465Y-111028410D01*
X164392958Y-111082066D01*
X164502234Y-111176755D01*
X164633760Y-111236821D01*
X164657514Y-111243796D01*
X164697558Y-111255554D01*
X164697562Y-111255555D01*
X164701881Y-111256823D01*
X164706329Y-111257463D01*
X164706336Y-111257464D01*
X164840552Y-111276761D01*
X164840559Y-111276762D01*
X164845000Y-111277400D01*
X172938088Y-111277400D01*
X173006209Y-111297402D01*
X173052702Y-111351058D01*
X173060675Y-111378607D01*
X173061501Y-111378431D01*
X173062474Y-111383008D01*
X173063104Y-111387638D01*
X173064412Y-111392124D01*
X173064412Y-111392126D01*
X173082640Y-111454664D01*
X173136243Y-111638567D01*
X173138203Y-111642820D01*
X173138204Y-111642821D01*
X173145555Y-111658766D01*
X173245668Y-111875928D01*
X173248231Y-111879837D01*
X173386410Y-112090596D01*
X173386414Y-112090601D01*
X173388976Y-112094509D01*
X173563018Y-112289506D01*
X173763970Y-112456637D01*
X173767973Y-112459066D01*
X173983422Y-112589804D01*
X173983426Y-112589806D01*
X173987419Y-112592229D01*
X174228455Y-112693303D01*
X174481783Y-112757641D01*
X174486434Y-112758109D01*
X174486438Y-112758110D01*
X174679308Y-112777531D01*
X174698867Y-112779500D01*
X179354354Y-112779500D01*
X179356679Y-112779327D01*
X179356685Y-112779327D01*
X179544000Y-112765407D01*
X179544004Y-112765406D01*
X179548652Y-112765061D01*
X179553200Y-112764032D01*
X179553206Y-112764031D01*
X179780044Y-112712702D01*
X179803577Y-112707377D01*
X179839769Y-112693303D01*
X180042824Y-112614340D01*
X180042827Y-112614339D01*
X180047177Y-112612647D01*
X180274098Y-112482951D01*
X180479357Y-112321138D01*
X180658443Y-112130763D01*
X180769968Y-111970002D01*
X180804759Y-111919851D01*
X180804761Y-111919848D01*
X180807424Y-111916009D01*
X180816482Y-111897641D01*
X180920960Y-111685781D01*
X180920961Y-111685778D01*
X180923025Y-111681593D01*
X180953624Y-111586003D01*
X181001280Y-111437123D01*
X181002707Y-111432665D01*
X181010812Y-111382900D01*
X181041502Y-111318884D01*
X181101933Y-111281620D01*
X181138566Y-111278028D01*
X181138566Y-111277400D01*
X181230000Y-111277400D01*
X181337980Y-111265791D01*
X181341264Y-111265077D01*
X181341268Y-111265076D01*
X181366339Y-111259622D01*
X181390322Y-111254405D01*
X181493372Y-111220107D01*
X181615010Y-111141935D01*
X181655487Y-111106861D01*
X181720069Y-111077368D01*
X181790343Y-111087473D01*
X181843998Y-111133966D01*
X181864000Y-111202086D01*
X181864000Y-125553672D01*
X181862500Y-125573056D01*
X181858814Y-125596730D01*
X181859978Y-125605632D01*
X181859978Y-125605636D01*
X181859991Y-125605732D01*
X181860262Y-125636170D01*
X181849668Y-125730196D01*
X181843389Y-125757704D01*
X181805804Y-125865116D01*
X181793562Y-125890537D01*
X181733015Y-125986897D01*
X181715423Y-126008956D01*
X181634956Y-126089423D01*
X181612897Y-126107015D01*
X181516537Y-126167562D01*
X181491116Y-126179804D01*
X181383704Y-126217389D01*
X181356197Y-126223668D01*
X181320897Y-126227646D01*
X181268742Y-126233522D01*
X181253100Y-126234305D01*
X181244144Y-126234196D01*
X181235270Y-126232814D01*
X181203749Y-126236936D01*
X181187411Y-126238000D01*
X82472328Y-126238000D01*
X82452943Y-126236500D01*
X82438142Y-126234195D01*
X82438139Y-126234195D01*
X82429270Y-126232814D01*
X82420368Y-126233978D01*
X82420364Y-126233978D01*
X82420268Y-126233991D01*
X82389830Y-126234262D01*
X82295804Y-126223668D01*
X82268296Y-126217389D01*
X82160884Y-126179804D01*
X82135463Y-126167562D01*
X82039103Y-126107015D01*
X82017044Y-126089423D01*
X81936577Y-126008956D01*
X81918985Y-125986897D01*
X81858438Y-125890537D01*
X81846196Y-125865116D01*
X81808611Y-125757704D01*
X81802332Y-125730197D01*
X81792667Y-125644420D01*
X81792385Y-125619614D01*
X81793071Y-125615539D01*
X81793224Y-125603000D01*
X81789273Y-125575412D01*
X81788000Y-125557549D01*
X81788000Y-111316000D01*
X82169000Y-111316000D01*
X82180609Y-111423980D01*
X82191995Y-111476322D01*
X82226293Y-111579372D01*
X82304465Y-111701010D01*
X82307407Y-111704405D01*
X82307409Y-111704408D01*
X82328946Y-111729263D01*
X82350958Y-111754666D01*
X82354352Y-111757607D01*
X82377786Y-111777913D01*
X82460234Y-111849355D01*
X82591760Y-111909421D01*
X82599917Y-111911816D01*
X82655558Y-111928154D01*
X82655562Y-111928155D01*
X82659881Y-111929423D01*
X82664329Y-111930063D01*
X82664336Y-111930064D01*
X82798552Y-111949361D01*
X82798559Y-111949362D01*
X82803000Y-111950000D01*
X82859720Y-111950000D01*
X82917624Y-111943966D01*
X82961200Y-111939426D01*
X82961205Y-111939425D01*
X82964451Y-111939087D01*
X82967640Y-111938415D01*
X82967647Y-111938414D01*
X82992868Y-111933100D01*
X83003058Y-111930953D01*
X83073838Y-111936481D01*
X83130394Y-111979399D01*
X83143460Y-112001494D01*
X83202668Y-112129928D01*
X83226197Y-112165816D01*
X83343410Y-112344596D01*
X83343414Y-112344601D01*
X83345976Y-112348509D01*
X83520018Y-112543506D01*
X83720970Y-112710637D01*
X83724973Y-112713066D01*
X83940422Y-112843804D01*
X83940426Y-112843806D01*
X83944419Y-112846229D01*
X84185455Y-112947303D01*
X84438783Y-113011641D01*
X84443434Y-113012109D01*
X84443438Y-113012110D01*
X84636308Y-113031531D01*
X84655867Y-113033500D01*
X89311354Y-113033500D01*
X89313679Y-113033327D01*
X89313685Y-113033327D01*
X89501000Y-113019407D01*
X89501004Y-113019406D01*
X89505652Y-113019061D01*
X89510200Y-113018032D01*
X89510206Y-113018031D01*
X89696601Y-112975853D01*
X89760577Y-112961377D01*
X89796769Y-112947303D01*
X89999824Y-112868340D01*
X89999827Y-112868339D01*
X90004177Y-112866647D01*
X90231098Y-112736951D01*
X90436357Y-112575138D01*
X90615443Y-112384763D01*
X90754638Y-112184116D01*
X90761759Y-112173851D01*
X90761761Y-112173848D01*
X90764424Y-112170009D01*
X90849638Y-111997212D01*
X90897705Y-111944964D01*
X90966391Y-111926997D01*
X90986026Y-111929405D01*
X90986088Y-111929423D01*
X91029002Y-111935593D01*
X91124759Y-111949361D01*
X91124766Y-111949362D01*
X91129207Y-111950000D01*
X94197753Y-111950000D01*
X94265874Y-111970002D01*
X94312367Y-112023658D01*
X94322471Y-112093932D01*
X94292977Y-112158512D01*
X94262459Y-112184116D01*
X94147193Y-112253101D01*
X94144467Y-112255163D01*
X94144465Y-112255164D01*
X93878071Y-112456637D01*
X93861367Y-112469270D01*
X93600559Y-112715043D01*
X93598347Y-112717633D01*
X93598345Y-112717635D01*
X93557544Y-112765407D01*
X93367819Y-112987546D01*
X93365900Y-112990358D01*
X93365897Y-112990363D01*
X93346321Y-113019061D01*
X93165871Y-113283591D01*
X92997077Y-113599714D01*
X92863411Y-113932218D01*
X92862491Y-113935492D01*
X92862489Y-113935497D01*
X92860332Y-113943173D01*
X92766437Y-114277213D01*
X92707290Y-114630663D01*
X92686661Y-114988434D01*
X92704792Y-115346340D01*
X92705329Y-115349695D01*
X92705330Y-115349701D01*
X92736003Y-115541201D01*
X92761470Y-115700195D01*
X92856033Y-116045859D01*
X92867688Y-116075446D01*
X92970614Y-116336739D01*
X92987374Y-116379288D01*
X93018151Y-116437909D01*
X93094945Y-116584180D01*
X93153957Y-116696582D01*
X93155858Y-116699411D01*
X93155864Y-116699421D01*
X93333859Y-116964303D01*
X93353834Y-116994029D01*
X93584665Y-117268150D01*
X93843751Y-117515738D01*
X94128061Y-117733897D01*
X94160056Y-117753350D01*
X94431355Y-117918303D01*
X94431360Y-117918306D01*
X94434270Y-117920075D01*
X94437358Y-117921521D01*
X94437357Y-117921521D01*
X94755710Y-118070649D01*
X94755720Y-118070653D01*
X94758794Y-118072093D01*
X94762012Y-118073195D01*
X94762015Y-118073196D01*
X95094615Y-118187071D01*
X95094623Y-118187073D01*
X95097838Y-118188174D01*
X95447435Y-118266959D01*
X95499728Y-118272917D01*
X95800114Y-118307142D01*
X95800122Y-118307142D01*
X95803497Y-118307527D01*
X95806901Y-118307545D01*
X95806904Y-118307545D01*
X96001227Y-118308562D01*
X96161857Y-118309403D01*
X96165243Y-118309053D01*
X96165245Y-118309053D01*
X96514932Y-118272917D01*
X96514941Y-118272916D01*
X96518324Y-118272566D01*
X96521657Y-118271852D01*
X96521660Y-118271851D01*
X96694186Y-118234864D01*
X96868727Y-118197446D01*
X97208968Y-118084922D01*
X97535066Y-117936311D01*
X97629052Y-117880506D01*
X97840262Y-117755099D01*
X97840267Y-117755096D01*
X97843207Y-117753350D01*
X98129786Y-117538180D01*
X98391451Y-117293319D01*
X98625140Y-117021630D01*
X98777909Y-116799350D01*
X98826190Y-116729101D01*
X98826195Y-116729094D01*
X98828120Y-116726292D01*
X98829732Y-116723298D01*
X98829737Y-116723290D01*
X98996395Y-116413772D01*
X98998017Y-116410760D01*
X99132842Y-116078724D01*
X99143122Y-116042638D01*
X99163527Y-115971006D01*
X99231020Y-115734070D01*
X99265271Y-115533695D01*
X99290829Y-115384175D01*
X99290829Y-115384173D01*
X99291401Y-115380828D01*
X99291785Y-115374563D01*
X99313168Y-115024928D01*
X99313278Y-115023131D01*
X99313359Y-115000000D01*
X99296137Y-114682000D01*
X114808000Y-114682000D01*
X114808360Y-114685346D01*
X114808360Y-114685351D01*
X114808392Y-114685644D01*
X114825413Y-114843971D01*
X114826131Y-114847271D01*
X114826131Y-114847272D01*
X114829352Y-114862077D01*
X114836799Y-114896313D01*
X114842807Y-114921812D01*
X114905949Y-115087086D01*
X115005504Y-115233345D01*
X115007908Y-115236119D01*
X115050894Y-115285729D01*
X115050910Y-115285746D01*
X115051997Y-115287001D01*
X115053157Y-115288204D01*
X115053170Y-115288219D01*
X115088451Y-115324830D01*
X115107903Y-115345016D01*
X115112202Y-115348181D01*
X115112204Y-115348183D01*
X115145226Y-115372496D01*
X115250376Y-115449916D01*
X115257128Y-115452786D01*
X115257131Y-115452788D01*
X115409826Y-115517698D01*
X115409830Y-115517699D01*
X115413200Y-115519132D01*
X115416719Y-115520165D01*
X115416721Y-115520166D01*
X115447799Y-115529291D01*
X115481321Y-115539134D01*
X115520271Y-115549460D01*
X115696000Y-115570000D01*
X126934606Y-115570000D01*
X126978992Y-115568706D01*
X127008850Y-115563438D01*
X127079409Y-115571301D01*
X127134517Y-115616063D01*
X127142300Y-115628952D01*
X127199209Y-115737347D01*
X127201957Y-115742582D01*
X127203858Y-115745411D01*
X127203864Y-115745421D01*
X127387569Y-116018800D01*
X127401834Y-116040029D01*
X127632665Y-116314150D01*
X127891751Y-116561738D01*
X128176061Y-116779897D01*
X128208056Y-116799350D01*
X128479355Y-116964303D01*
X128479360Y-116964306D01*
X128482270Y-116966075D01*
X128485358Y-116967521D01*
X128485357Y-116967521D01*
X128803710Y-117116649D01*
X128803720Y-117116653D01*
X128806794Y-117118093D01*
X128810012Y-117119195D01*
X128810015Y-117119196D01*
X129142615Y-117233071D01*
X129142623Y-117233073D01*
X129145838Y-117234174D01*
X129495435Y-117312959D01*
X129547728Y-117318917D01*
X129848114Y-117353142D01*
X129848122Y-117353142D01*
X129851497Y-117353527D01*
X129854901Y-117353545D01*
X129854904Y-117353545D01*
X130049227Y-117354562D01*
X130209857Y-117355403D01*
X130213243Y-117355053D01*
X130213245Y-117355053D01*
X130562932Y-117318917D01*
X130562941Y-117318916D01*
X130566324Y-117318566D01*
X130569657Y-117317852D01*
X130569660Y-117317851D01*
X130801493Y-117268150D01*
X130916727Y-117243446D01*
X131256968Y-117130922D01*
X131583066Y-116982311D01*
X131677052Y-116926506D01*
X131888262Y-116801099D01*
X131888267Y-116801096D01*
X131891207Y-116799350D01*
X132177786Y-116584180D01*
X132439451Y-116339319D01*
X132673140Y-116067630D01*
X132779750Y-115912512D01*
X132874190Y-115775101D01*
X132874195Y-115775094D01*
X132876120Y-115772292D01*
X132877732Y-115769298D01*
X132877737Y-115769290D01*
X132928228Y-115675518D01*
X132954698Y-115626357D01*
X133004603Y-115575862D01*
X133080265Y-115560945D01*
X133157734Y-115570000D01*
X146178000Y-115570000D01*
X146181346Y-115569640D01*
X146181351Y-115569640D01*
X146336607Y-115552949D01*
X146336613Y-115552948D01*
X146339971Y-115552587D01*
X146347221Y-115551010D01*
X146391850Y-115541302D01*
X146391880Y-115541295D01*
X146392313Y-115541201D01*
X146417812Y-115535193D01*
X146583086Y-115472051D01*
X146650683Y-115426039D01*
X146726309Y-115374563D01*
X146726314Y-115374559D01*
X146729345Y-115372496D01*
X146763449Y-115342945D01*
X146781729Y-115327106D01*
X146781746Y-115327090D01*
X146783001Y-115326003D01*
X146784204Y-115324843D01*
X146784219Y-115324830D01*
X146837170Y-115273803D01*
X146841016Y-115270097D01*
X146945916Y-115127624D01*
X146966061Y-115080236D01*
X147005086Y-114988434D01*
X163686661Y-114988434D01*
X163704792Y-115346340D01*
X163705329Y-115349695D01*
X163705330Y-115349701D01*
X163736003Y-115541201D01*
X163761470Y-115700195D01*
X163856033Y-116045859D01*
X163867688Y-116075446D01*
X163970614Y-116336739D01*
X163987374Y-116379288D01*
X164018151Y-116437909D01*
X164094945Y-116584180D01*
X164153957Y-116696582D01*
X164155858Y-116699411D01*
X164155864Y-116699421D01*
X164333859Y-116964303D01*
X164353834Y-116994029D01*
X164584665Y-117268150D01*
X164843751Y-117515738D01*
X165128061Y-117733897D01*
X165160056Y-117753350D01*
X165431355Y-117918303D01*
X165431360Y-117918306D01*
X165434270Y-117920075D01*
X165437358Y-117921521D01*
X165437357Y-117921521D01*
X165755710Y-118070649D01*
X165755720Y-118070653D01*
X165758794Y-118072093D01*
X165762012Y-118073195D01*
X165762015Y-118073196D01*
X166094615Y-118187071D01*
X166094623Y-118187073D01*
X166097838Y-118188174D01*
X166447435Y-118266959D01*
X166499728Y-118272917D01*
X166800114Y-118307142D01*
X166800122Y-118307142D01*
X166803497Y-118307527D01*
X166806901Y-118307545D01*
X166806904Y-118307545D01*
X167001227Y-118308562D01*
X167161857Y-118309403D01*
X167165243Y-118309053D01*
X167165245Y-118309053D01*
X167514932Y-118272917D01*
X167514941Y-118272916D01*
X167518324Y-118272566D01*
X167521657Y-118271852D01*
X167521660Y-118271851D01*
X167694186Y-118234864D01*
X167868727Y-118197446D01*
X168208968Y-118084922D01*
X168535066Y-117936311D01*
X168629052Y-117880506D01*
X168840262Y-117755099D01*
X168840267Y-117755096D01*
X168843207Y-117753350D01*
X169129786Y-117538180D01*
X169391451Y-117293319D01*
X169625140Y-117021630D01*
X169777909Y-116799350D01*
X169826190Y-116729101D01*
X169826195Y-116729094D01*
X169828120Y-116726292D01*
X169829732Y-116723298D01*
X169829737Y-116723290D01*
X169996395Y-116413772D01*
X169998017Y-116410760D01*
X170132842Y-116078724D01*
X170143122Y-116042638D01*
X170163527Y-115971006D01*
X170231020Y-115734070D01*
X170265271Y-115533695D01*
X170290829Y-115384175D01*
X170290829Y-115384173D01*
X170291401Y-115380828D01*
X170291785Y-115374563D01*
X170313168Y-115024928D01*
X170313278Y-115023131D01*
X170313359Y-115000000D01*
X170293979Y-114642159D01*
X170236066Y-114288505D01*
X170140297Y-113943173D01*
X170137243Y-113935497D01*
X170009052Y-113613369D01*
X170007793Y-113610205D01*
X169977768Y-113553498D01*
X169841702Y-113296513D01*
X169841698Y-113296506D01*
X169840103Y-113293494D01*
X169639190Y-112996746D01*
X169610070Y-112962408D01*
X169526892Y-112864329D01*
X169407403Y-112723432D01*
X169147454Y-112476750D01*
X168862384Y-112259585D01*
X168859472Y-112257828D01*
X168859467Y-112257825D01*
X168558443Y-112076236D01*
X168558437Y-112076233D01*
X168555528Y-112074478D01*
X168287364Y-111950000D01*
X168233571Y-111925030D01*
X168233569Y-111925029D01*
X168230475Y-111923593D01*
X168022209Y-111853099D01*
X167894255Y-111809789D01*
X167894250Y-111809788D01*
X167891028Y-111808697D01*
X167660578Y-111757607D01*
X167544493Y-111731871D01*
X167544487Y-111731870D01*
X167541158Y-111731132D01*
X167537769Y-111730758D01*
X167537764Y-111730757D01*
X167188338Y-111692180D01*
X167188333Y-111692180D01*
X167184957Y-111691807D01*
X167181558Y-111691801D01*
X167181557Y-111691801D01*
X167012080Y-111691505D01*
X166826592Y-111691182D01*
X166713413Y-111703277D01*
X166473639Y-111728901D01*
X166473631Y-111728902D01*
X166470256Y-111729263D01*
X166120117Y-111805606D01*
X165780271Y-111919317D01*
X165777178Y-111920739D01*
X165777177Y-111920740D01*
X165670074Y-111970002D01*
X165454694Y-112069066D01*
X165451760Y-112070822D01*
X165451758Y-112070823D01*
X165262837Y-112183890D01*
X165147193Y-112253101D01*
X165144467Y-112255163D01*
X165144465Y-112255164D01*
X164878071Y-112456637D01*
X164861367Y-112469270D01*
X164600559Y-112715043D01*
X164598347Y-112717633D01*
X164598345Y-112717635D01*
X164557544Y-112765407D01*
X164367819Y-112987546D01*
X164365900Y-112990358D01*
X164365897Y-112990363D01*
X164346321Y-113019061D01*
X164165871Y-113283591D01*
X163997077Y-113599714D01*
X163863411Y-113932218D01*
X163862491Y-113935492D01*
X163862489Y-113935497D01*
X163860332Y-113943173D01*
X163766437Y-114277213D01*
X163707290Y-114630663D01*
X163686661Y-114988434D01*
X147005086Y-114988434D01*
X147013698Y-114968174D01*
X147013699Y-114968170D01*
X147015132Y-114964800D01*
X147035134Y-114896679D01*
X147045460Y-114857729D01*
X147066000Y-114682000D01*
X147066000Y-106729090D01*
X147065222Y-106694669D01*
X147064517Y-106690342D01*
X147064516Y-106690333D01*
X147054235Y-106627243D01*
X147063019Y-106556792D01*
X147097181Y-106510811D01*
X147224553Y-106402983D01*
X147261639Y-106371587D01*
X147261640Y-106371586D01*
X147265205Y-106368568D01*
X147337071Y-106286621D01*
X147434457Y-106175574D01*
X147434461Y-106175569D01*
X147437539Y-106172059D01*
X147578933Y-105952237D01*
X147686283Y-105713929D01*
X147704719Y-105648559D01*
X147755960Y-105466876D01*
X147755961Y-105466873D01*
X147757230Y-105462372D01*
X147761289Y-105430462D01*
X147789816Y-105206221D01*
X147789816Y-105206217D01*
X147790214Y-105203091D01*
X147792631Y-105110800D01*
X147773261Y-104850148D01*
X147763121Y-104805333D01*
X147730053Y-104659199D01*
X147715577Y-104595223D01*
X147620847Y-104351623D01*
X147491151Y-104124702D01*
X147329338Y-103919443D01*
X147138963Y-103740357D01*
X146924209Y-103591376D01*
X146739503Y-103500289D01*
X146687255Y-103452222D01*
X146670515Y-103405216D01*
X146661840Y-103344883D01*
X146661600Y-103343213D01*
X146645935Y-103264188D01*
X146582793Y-103098914D01*
X146483238Y-102952655D01*
X146468525Y-102935676D01*
X146437848Y-102900271D01*
X146437832Y-102900254D01*
X146436745Y-102898999D01*
X146400781Y-102861679D01*
X146367917Y-102798748D01*
X146374292Y-102728038D01*
X146417883Y-102672000D01*
X146455304Y-102653563D01*
X146477626Y-102646866D01*
X146544890Y-102626686D01*
X146549524Y-102624416D01*
X146748249Y-102527062D01*
X146748252Y-102527060D01*
X146752884Y-102524791D01*
X146941443Y-102390294D01*
X147105503Y-102226805D01*
X147240658Y-102038717D01*
X147287841Y-101943250D01*
X147340984Y-101835722D01*
X147340985Y-101835720D01*
X147343278Y-101831080D01*
X147410608Y-101609471D01*
X147440840Y-101379841D01*
X147440922Y-101376491D01*
X147442445Y-101314165D01*
X147442445Y-101314161D01*
X147442527Y-101310800D01*
X147433962Y-101206621D01*
X147423973Y-101085118D01*
X147423972Y-101085112D01*
X147423549Y-101079967D01*
X147367125Y-100855333D01*
X147365066Y-100850597D01*
X147276830Y-100647668D01*
X147276828Y-100647665D01*
X147274770Y-100642931D01*
X147148964Y-100448465D01*
X146993087Y-100277158D01*
X146989036Y-100273959D01*
X146989032Y-100273955D01*
X146815377Y-100136811D01*
X146815372Y-100136808D01*
X146811323Y-100133610D01*
X146806807Y-100131117D01*
X146806804Y-100131115D01*
X146613079Y-100024173D01*
X146613075Y-100024171D01*
X146608555Y-100021676D01*
X146603686Y-100019952D01*
X146603682Y-100019950D01*
X146395103Y-99946088D01*
X146395099Y-99946087D01*
X146390228Y-99944362D01*
X146385135Y-99943455D01*
X146385132Y-99943454D01*
X146167295Y-99904651D01*
X146167289Y-99904650D01*
X146162206Y-99903745D01*
X146089296Y-99902854D01*
X145935781Y-99900979D01*
X145935779Y-99900979D01*
X145930611Y-99900916D01*
X145701664Y-99935950D01*
X145481514Y-100007906D01*
X145476926Y-100010294D01*
X145476922Y-100010296D01*
X145450265Y-100024173D01*
X145276072Y-100114852D01*
X145271939Y-100117955D01*
X145271936Y-100117957D01*
X145094990Y-100250812D01*
X145090855Y-100253917D01*
X145087283Y-100257655D01*
X144988279Y-100361257D01*
X144930839Y-100421364D01*
X144927925Y-100425636D01*
X144927924Y-100425637D01*
X144912352Y-100448465D01*
X144800319Y-100612699D01*
X144702802Y-100822781D01*
X144640907Y-101045969D01*
X144616295Y-101276269D01*
X144616592Y-101281422D01*
X144616592Y-101281425D01*
X144627312Y-101467342D01*
X144629627Y-101507497D01*
X144630764Y-101512543D01*
X144630765Y-101512549D01*
X144654300Y-101616979D01*
X144680546Y-101733442D01*
X144682488Y-101738224D01*
X144682489Y-101738228D01*
X144742178Y-101885224D01*
X144767684Y-101948037D01*
X144888701Y-102145519D01*
X145040347Y-102320584D01*
X145119924Y-102386650D01*
X145127640Y-102393056D01*
X145167275Y-102451959D01*
X145168773Y-102522939D01*
X145131658Y-102583462D01*
X145067714Y-102614311D01*
X145047155Y-102616000D01*
X134649770Y-102616000D01*
X134581649Y-102595998D01*
X134575707Y-102591935D01*
X134574091Y-102590761D01*
X134568752Y-102586882D01*
X134434394Y-102527062D01*
X134400319Y-102511891D01*
X134400318Y-102511891D01*
X134394288Y-102509206D01*
X134300887Y-102489353D01*
X134213944Y-102470872D01*
X134213939Y-102470872D01*
X134207487Y-102469500D01*
X134016513Y-102469500D01*
X134010061Y-102470872D01*
X134010056Y-102470872D01*
X133923112Y-102489353D01*
X133829712Y-102509206D01*
X133823682Y-102511891D01*
X133823681Y-102511891D01*
X133789607Y-102527062D01*
X133655248Y-102586882D01*
X133649909Y-102590761D01*
X133648293Y-102591935D01*
X133647199Y-102592325D01*
X133644186Y-102594065D01*
X133643868Y-102593514D01*
X133581425Y-102615794D01*
X133574230Y-102616000D01*
X133125770Y-102616000D01*
X133057649Y-102595998D01*
X133051707Y-102591935D01*
X133050091Y-102590761D01*
X133044752Y-102586882D01*
X132910394Y-102527062D01*
X132876319Y-102511891D01*
X132876318Y-102511891D01*
X132870288Y-102509206D01*
X132776887Y-102489353D01*
X132689944Y-102470872D01*
X132689939Y-102470872D01*
X132683487Y-102469500D01*
X132492513Y-102469500D01*
X132486061Y-102470872D01*
X132486056Y-102470872D01*
X132399112Y-102489353D01*
X132305712Y-102509206D01*
X132299682Y-102511891D01*
X132299681Y-102511891D01*
X132265607Y-102527062D01*
X132131248Y-102586882D01*
X132125909Y-102590761D01*
X132124293Y-102591935D01*
X132123199Y-102592325D01*
X132120186Y-102594065D01*
X132119868Y-102593514D01*
X132057425Y-102615794D01*
X132050230Y-102616000D01*
X131601770Y-102616000D01*
X131533649Y-102595998D01*
X131527707Y-102591935D01*
X131526091Y-102590761D01*
X131520752Y-102586882D01*
X131386394Y-102527062D01*
X131352319Y-102511891D01*
X131352318Y-102511891D01*
X131346288Y-102509206D01*
X131252887Y-102489353D01*
X131165944Y-102470872D01*
X131165939Y-102470872D01*
X131159487Y-102469500D01*
X130968513Y-102469500D01*
X130962061Y-102470872D01*
X130962056Y-102470872D01*
X130875112Y-102489353D01*
X130781712Y-102509206D01*
X130775682Y-102511891D01*
X130775681Y-102511891D01*
X130741607Y-102527062D01*
X130607248Y-102586882D01*
X130601909Y-102590761D01*
X130600293Y-102591935D01*
X130599199Y-102592325D01*
X130596186Y-102594065D01*
X130595868Y-102593514D01*
X130533425Y-102615794D01*
X130526230Y-102616000D01*
X130077770Y-102616000D01*
X130009649Y-102595998D01*
X130003707Y-102591935D01*
X130002091Y-102590761D01*
X129996752Y-102586882D01*
X129862394Y-102527062D01*
X129828319Y-102511891D01*
X129828318Y-102511891D01*
X129822288Y-102509206D01*
X129728887Y-102489353D01*
X129641944Y-102470872D01*
X129641939Y-102470872D01*
X129635487Y-102469500D01*
X129444513Y-102469500D01*
X129438061Y-102470872D01*
X129438056Y-102470872D01*
X129351112Y-102489353D01*
X129257712Y-102509206D01*
X129251682Y-102511891D01*
X129251681Y-102511891D01*
X129217607Y-102527062D01*
X129083248Y-102586882D01*
X129077909Y-102590761D01*
X129076293Y-102591935D01*
X129075199Y-102592325D01*
X129072186Y-102594065D01*
X129071868Y-102593514D01*
X129009425Y-102615794D01*
X129002230Y-102616000D01*
X128807770Y-102616000D01*
X128739649Y-102595998D01*
X128733707Y-102591935D01*
X128732091Y-102590761D01*
X128726752Y-102586882D01*
X128592394Y-102527062D01*
X128558319Y-102511891D01*
X128558318Y-102511891D01*
X128552288Y-102509206D01*
X128458887Y-102489353D01*
X128371944Y-102470872D01*
X128371939Y-102470872D01*
X128365487Y-102469500D01*
X128174513Y-102469500D01*
X128168061Y-102470872D01*
X128168056Y-102470872D01*
X128081112Y-102489353D01*
X127987712Y-102509206D01*
X127981682Y-102511891D01*
X127981681Y-102511891D01*
X127947607Y-102527062D01*
X127813248Y-102586882D01*
X127807909Y-102590761D01*
X127806293Y-102591935D01*
X127805199Y-102592325D01*
X127802186Y-102594065D01*
X127801868Y-102593514D01*
X127739425Y-102615794D01*
X127732230Y-102616000D01*
X127537770Y-102616000D01*
X127469649Y-102595998D01*
X127463707Y-102591935D01*
X127462091Y-102590761D01*
X127456752Y-102586882D01*
X127322394Y-102527062D01*
X127288319Y-102511891D01*
X127288318Y-102511891D01*
X127282288Y-102509206D01*
X127188887Y-102489353D01*
X127101944Y-102470872D01*
X127101939Y-102470872D01*
X127095487Y-102469500D01*
X126904513Y-102469500D01*
X126898061Y-102470872D01*
X126898056Y-102470872D01*
X126811112Y-102489353D01*
X126717712Y-102509206D01*
X126711682Y-102511891D01*
X126711681Y-102511891D01*
X126677607Y-102527062D01*
X126543248Y-102586882D01*
X126537909Y-102590761D01*
X126536293Y-102591935D01*
X126535199Y-102592325D01*
X126532186Y-102594065D01*
X126531868Y-102593514D01*
X126469425Y-102615794D01*
X126462230Y-102616000D01*
X118269720Y-102616000D01*
X118228099Y-102617138D01*
X118214352Y-102617890D01*
X118132910Y-102626755D01*
X118127756Y-102628229D01*
X118127751Y-102628230D01*
X118069429Y-102644910D01*
X118002495Y-102645560D01*
X117972820Y-102637693D01*
X117972821Y-102637693D01*
X117968471Y-102636540D01*
X117792742Y-102616000D01*
X115696000Y-102616000D01*
X115692654Y-102616360D01*
X115692649Y-102616360D01*
X115537393Y-102633051D01*
X115537387Y-102633052D01*
X115534029Y-102633413D01*
X115530729Y-102634131D01*
X115530728Y-102634131D01*
X115482150Y-102644698D01*
X115482120Y-102644705D01*
X115481687Y-102644799D01*
X115456188Y-102650807D01*
X115290914Y-102713949D01*
X115258395Y-102736084D01*
X115147691Y-102811437D01*
X115147686Y-102811441D01*
X115144655Y-102813504D01*
X115141881Y-102815908D01*
X115092271Y-102858894D01*
X115092254Y-102858910D01*
X115090999Y-102859997D01*
X115089796Y-102861157D01*
X115089781Y-102861170D01*
X115047747Y-102901676D01*
X115032984Y-102915903D01*
X114928084Y-103058376D01*
X114925214Y-103065128D01*
X114925212Y-103065131D01*
X114906751Y-103108559D01*
X114858868Y-103221200D01*
X114838866Y-103289321D01*
X114828540Y-103328271D01*
X114808000Y-103504000D01*
X114808000Y-114682000D01*
X99296137Y-114682000D01*
X99293979Y-114642159D01*
X99236066Y-114288505D01*
X99140297Y-113943173D01*
X99137243Y-113935497D01*
X99009052Y-113613369D01*
X99007793Y-113610205D01*
X98977768Y-113553498D01*
X98841702Y-113296513D01*
X98841698Y-113296506D01*
X98840103Y-113293494D01*
X98639190Y-112996746D01*
X98610070Y-112962408D01*
X98526892Y-112864329D01*
X98407403Y-112723432D01*
X98147454Y-112476750D01*
X97862384Y-112259585D01*
X97859472Y-112257828D01*
X97859467Y-112257825D01*
X97736903Y-112183890D01*
X97688905Y-112131576D01*
X97676810Y-112061617D01*
X97704457Y-111996225D01*
X97763069Y-111956161D01*
X97801986Y-111950000D01*
X99188000Y-111950000D01*
X99295980Y-111938391D01*
X99299264Y-111937677D01*
X99299268Y-111937676D01*
X99330173Y-111930953D01*
X99348322Y-111927005D01*
X99451372Y-111892707D01*
X99573010Y-111814535D01*
X99578488Y-111809789D01*
X99623273Y-111770982D01*
X99626666Y-111768042D01*
X99638257Y-111754666D01*
X99692401Y-111692180D01*
X99721355Y-111658766D01*
X99781421Y-111527240D01*
X99801423Y-111459119D01*
X99802064Y-111454664D01*
X99821361Y-111320448D01*
X99821362Y-111320441D01*
X99822000Y-111316000D01*
X99822000Y-98137200D01*
X113611900Y-98137200D01*
X113612237Y-98140446D01*
X113612237Y-98140450D01*
X113621952Y-98234078D01*
X113622874Y-98242966D01*
X113625055Y-98249502D01*
X113625055Y-98249504D01*
X113642904Y-98303002D01*
X113678850Y-98410746D01*
X113771922Y-98561148D01*
X113897097Y-98686105D01*
X113903327Y-98689945D01*
X113903328Y-98689946D01*
X114040490Y-98774494D01*
X114047662Y-98778915D01*
X114127405Y-98805364D01*
X114209011Y-98832432D01*
X114209013Y-98832432D01*
X114215539Y-98834597D01*
X114222375Y-98835297D01*
X114222378Y-98835298D01*
X114265431Y-98839709D01*
X114320000Y-98845300D01*
X114945800Y-98845300D01*
X114949046Y-98844963D01*
X114949050Y-98844963D01*
X115044708Y-98835038D01*
X115044712Y-98835037D01*
X115051566Y-98834326D01*
X115058102Y-98832145D01*
X115058104Y-98832145D01*
X115206077Y-98782777D01*
X115219346Y-98778350D01*
X115369748Y-98685278D01*
X115494705Y-98560103D01*
X115521473Y-98516677D01*
X115583675Y-98415768D01*
X115583676Y-98415766D01*
X115587515Y-98409538D01*
X115621647Y-98306633D01*
X115662078Y-98248273D01*
X115727642Y-98221036D01*
X115741240Y-98220300D01*
X116741403Y-98220300D01*
X116809524Y-98240302D01*
X116848836Y-98280465D01*
X116888701Y-98345519D01*
X117040347Y-98520584D01*
X117218549Y-98668530D01*
X117418522Y-98785384D01*
X117634894Y-98868009D01*
X117639960Y-98869040D01*
X117639961Y-98869040D01*
X117693046Y-98879840D01*
X117861856Y-98914185D01*
X117992524Y-98918976D01*
X118088149Y-98922483D01*
X118088153Y-98922483D01*
X118093313Y-98922672D01*
X118098433Y-98922016D01*
X118098435Y-98922016D01*
X118171470Y-98912660D01*
X118323047Y-98893242D01*
X118327995Y-98891757D01*
X118328002Y-98891756D01*
X118539947Y-98828169D01*
X118544890Y-98826686D01*
X118625436Y-98787227D01*
X118748249Y-98727062D01*
X118748252Y-98727060D01*
X118752884Y-98724791D01*
X118941443Y-98590294D01*
X119105503Y-98426805D01*
X119240658Y-98238717D01*
X119244271Y-98231408D01*
X119340984Y-98035722D01*
X119340985Y-98035720D01*
X119343278Y-98031080D01*
X119410608Y-97809471D01*
X119440840Y-97579841D01*
X119442527Y-97510800D01*
X119436232Y-97434234D01*
X119423973Y-97285118D01*
X119423972Y-97285112D01*
X119423549Y-97279967D01*
X119367125Y-97055333D01*
X119356953Y-97031939D01*
X119276830Y-96847668D01*
X119276828Y-96847665D01*
X119274770Y-96842931D01*
X119148964Y-96648465D01*
X119133960Y-96631975D01*
X119089991Y-96583654D01*
X118993087Y-96477158D01*
X118989036Y-96473959D01*
X118989032Y-96473955D01*
X118815377Y-96336811D01*
X118815372Y-96336808D01*
X118811323Y-96333610D01*
X118806807Y-96331117D01*
X118806804Y-96331115D01*
X118613079Y-96224173D01*
X118613075Y-96224171D01*
X118608555Y-96221676D01*
X118603686Y-96219952D01*
X118603682Y-96219950D01*
X118395103Y-96146088D01*
X118395099Y-96146087D01*
X118390228Y-96144362D01*
X118385135Y-96143455D01*
X118385132Y-96143454D01*
X118167295Y-96104651D01*
X118167289Y-96104650D01*
X118162206Y-96103745D01*
X118089296Y-96102854D01*
X117935781Y-96100979D01*
X117935779Y-96100979D01*
X117930611Y-96100916D01*
X117701664Y-96135950D01*
X117481514Y-96207906D01*
X117476926Y-96210294D01*
X117476922Y-96210296D01*
X117280661Y-96312463D01*
X117276072Y-96314852D01*
X117271939Y-96317955D01*
X117271936Y-96317957D01*
X117094990Y-96450812D01*
X117090855Y-96453917D01*
X116930839Y-96621364D01*
X116927925Y-96625636D01*
X116927924Y-96625637D01*
X116909389Y-96652809D01*
X116800319Y-96812699D01*
X116768916Y-96880352D01*
X116722093Y-96933717D01*
X116654629Y-96953300D01*
X115707916Y-96953300D01*
X115639795Y-96933298D01*
X115593302Y-96879642D01*
X115590263Y-96871926D01*
X115589268Y-96869803D01*
X115586950Y-96862854D01*
X115493878Y-96712452D01*
X115368703Y-96587495D01*
X115352910Y-96577760D01*
X115224368Y-96498525D01*
X115224366Y-96498524D01*
X115218138Y-96494685D01*
X115138395Y-96468236D01*
X115056789Y-96441168D01*
X115056787Y-96441168D01*
X115050261Y-96439003D01*
X115043425Y-96438303D01*
X115043422Y-96438302D01*
X115000369Y-96433891D01*
X114945800Y-96428300D01*
X114320000Y-96428300D01*
X114316754Y-96428637D01*
X114316750Y-96428637D01*
X114221092Y-96438562D01*
X114221088Y-96438563D01*
X114214234Y-96439274D01*
X114207698Y-96441455D01*
X114207696Y-96441455D01*
X114100682Y-96477158D01*
X114046454Y-96495250D01*
X113896052Y-96588322D01*
X113771095Y-96713497D01*
X113767255Y-96719727D01*
X113767254Y-96719728D01*
X113707054Y-96817391D01*
X113678285Y-96864062D01*
X113658638Y-96923296D01*
X113625641Y-97022781D01*
X113622603Y-97031939D01*
X113611900Y-97136400D01*
X113611900Y-98137200D01*
X99822000Y-98137200D01*
X99822000Y-96789000D01*
X99810391Y-96681020D01*
X99799005Y-96628678D01*
X99764707Y-96525628D01*
X99686535Y-96403990D01*
X99681107Y-96397725D01*
X99642982Y-96353727D01*
X99640042Y-96350334D01*
X99621213Y-96334018D01*
X99596337Y-96312463D01*
X99530766Y-96255645D01*
X99399240Y-96195579D01*
X99370833Y-96187238D01*
X99335442Y-96176846D01*
X99335438Y-96176845D01*
X99331119Y-96175577D01*
X99326671Y-96174937D01*
X99326664Y-96174936D01*
X99192448Y-96155639D01*
X99192441Y-96155638D01*
X99188000Y-96155000D01*
X91863623Y-96155000D01*
X91795502Y-96134998D01*
X91749009Y-96081342D01*
X91738279Y-96016157D01*
X91740809Y-95991460D01*
X91748500Y-95916400D01*
X91748500Y-95290600D01*
X91737526Y-95184834D01*
X91681550Y-95017054D01*
X91588478Y-94866652D01*
X91463303Y-94741695D01*
X91423953Y-94717439D01*
X91318968Y-94652725D01*
X91318966Y-94652724D01*
X91312738Y-94648885D01*
X91152254Y-94595655D01*
X91151389Y-94595368D01*
X91151387Y-94595368D01*
X91144861Y-94593203D01*
X91138025Y-94592503D01*
X91138022Y-94592502D01*
X91094969Y-94588091D01*
X91040400Y-94582500D01*
X90039600Y-94582500D01*
X90036354Y-94582837D01*
X90036350Y-94582837D01*
X89940692Y-94592762D01*
X89940688Y-94592763D01*
X89933834Y-94593474D01*
X89927298Y-94595655D01*
X89927296Y-94595655D01*
X89846509Y-94622608D01*
X89766054Y-94649450D01*
X89651104Y-94720584D01*
X89646044Y-94723715D01*
X89577592Y-94742553D01*
X89509823Y-94721392D01*
X89472597Y-94682874D01*
X89408651Y-94579539D01*
X89404797Y-94573311D01*
X89280653Y-94449383D01*
X89263350Y-94438717D01*
X89241014Y-94424949D01*
X89131329Y-94357339D01*
X89116562Y-94352441D01*
X88971366Y-94304281D01*
X88971364Y-94304281D01*
X88964835Y-94302115D01*
X88861231Y-94291500D01*
X88569766Y-94291500D01*
X88273770Y-94291501D01*
X88168871Y-94302384D01*
X88162340Y-94304563D01*
X88162335Y-94304564D01*
X88018831Y-94352441D01*
X88002474Y-94357898D01*
X87853311Y-94450203D01*
X87729383Y-94574347D01*
X87725543Y-94580577D01*
X87725542Y-94580578D01*
X87716249Y-94595655D01*
X87637339Y-94723671D01*
X87635034Y-94730619D01*
X87635034Y-94730620D01*
X87603229Y-94826510D01*
X87582115Y-94890165D01*
X87571500Y-94993769D01*
X87571501Y-96006230D01*
X87572062Y-96011640D01*
X87572515Y-96016003D01*
X87559646Y-96085823D01*
X87511073Y-96137603D01*
X87447187Y-96155000D01*
X87215352Y-96155000D01*
X87188799Y-96157142D01*
X87136441Y-96161366D01*
X87136430Y-96161367D01*
X87133918Y-96161570D01*
X87131428Y-96161974D01*
X87131423Y-96161975D01*
X87122650Y-96163400D01*
X87094042Y-96168046D01*
X87038691Y-96181680D01*
X87017180Y-96186978D01*
X87017177Y-96186979D01*
X87014704Y-96187588D01*
X87012289Y-96188394D01*
X87012281Y-96188396D01*
X86996367Y-96193705D01*
X86969504Y-96199507D01*
X86966441Y-96199825D01*
X86953430Y-96200499D01*
X86690232Y-96200500D01*
X86431159Y-96200500D01*
X86418292Y-96199841D01*
X86415993Y-96199605D01*
X86389195Y-96193858D01*
X86371630Y-96188032D01*
X86371621Y-96188029D01*
X86369235Y-96187238D01*
X86290308Y-96167907D01*
X86250641Y-96161500D01*
X86210140Y-96158250D01*
X86172162Y-96155202D01*
X86172151Y-96155202D01*
X86169639Y-96155000D01*
X82803000Y-96155000D01*
X82695020Y-96166609D01*
X82691736Y-96167323D01*
X82691732Y-96167324D01*
X82666661Y-96172778D01*
X82642678Y-96177995D01*
X82539628Y-96212293D01*
X82417990Y-96290465D01*
X82364334Y-96336958D01*
X82361393Y-96340352D01*
X82349803Y-96353727D01*
X82269645Y-96446234D01*
X82209579Y-96577760D01*
X82189577Y-96645881D01*
X82188937Y-96650329D01*
X82188936Y-96650336D01*
X82169639Y-96784552D01*
X82169638Y-96784559D01*
X82169000Y-96789000D01*
X82169000Y-111316000D01*
X81788000Y-111316000D01*
X81788000Y-93676269D01*
X116616295Y-93676269D01*
X116616592Y-93681422D01*
X116616592Y-93681425D01*
X116624671Y-93821539D01*
X116629627Y-93907497D01*
X116630764Y-93912543D01*
X116630765Y-93912549D01*
X116662941Y-94055323D01*
X116680546Y-94133442D01*
X116682488Y-94138224D01*
X116682489Y-94138228D01*
X116750031Y-94304564D01*
X116767684Y-94348037D01*
X116888701Y-94545519D01*
X117040347Y-94720584D01*
X117218549Y-94868530D01*
X117418522Y-94985384D01*
X117423347Y-94987226D01*
X117423348Y-94987227D01*
X117440480Y-94993769D01*
X117634894Y-95068009D01*
X117639960Y-95069040D01*
X117639961Y-95069040D01*
X117693046Y-95079840D01*
X117861856Y-95114185D01*
X117992524Y-95118976D01*
X118088149Y-95122483D01*
X118088153Y-95122483D01*
X118093313Y-95122672D01*
X118098433Y-95122016D01*
X118098435Y-95122016D01*
X118171470Y-95112660D01*
X118323047Y-95093242D01*
X118327995Y-95091757D01*
X118328002Y-95091756D01*
X118539947Y-95028169D01*
X118544890Y-95026686D01*
X118550369Y-95024002D01*
X118748249Y-94927062D01*
X118748252Y-94927060D01*
X118752884Y-94924791D01*
X118941443Y-94790294D01*
X119105503Y-94626805D01*
X119129649Y-94593203D01*
X119146920Y-94569167D01*
X119240658Y-94438717D01*
X119278696Y-94361754D01*
X119340984Y-94235722D01*
X119340985Y-94235720D01*
X119343278Y-94231080D01*
X119410608Y-94009471D01*
X119440840Y-93779841D01*
X119442527Y-93710800D01*
X119433174Y-93597034D01*
X119423973Y-93485118D01*
X119423972Y-93485112D01*
X119423549Y-93479967D01*
X119367125Y-93255333D01*
X119365066Y-93250597D01*
X119276830Y-93047668D01*
X119276828Y-93047665D01*
X119274770Y-93042931D01*
X119148964Y-92848465D01*
X118993087Y-92677158D01*
X118989036Y-92673959D01*
X118989032Y-92673955D01*
X118815377Y-92536811D01*
X118815372Y-92536808D01*
X118811323Y-92533610D01*
X118806807Y-92531117D01*
X118806804Y-92531115D01*
X118613079Y-92424173D01*
X118613075Y-92424171D01*
X118608555Y-92421676D01*
X118603686Y-92419952D01*
X118603682Y-92419950D01*
X118395103Y-92346088D01*
X118395099Y-92346087D01*
X118390228Y-92344362D01*
X118385135Y-92343455D01*
X118385132Y-92343454D01*
X118167295Y-92304651D01*
X118167289Y-92304650D01*
X118162206Y-92303745D01*
X118089296Y-92302854D01*
X117935781Y-92300979D01*
X117935779Y-92300979D01*
X117930611Y-92300916D01*
X117701664Y-92335950D01*
X117481514Y-92407906D01*
X117476926Y-92410294D01*
X117476922Y-92410296D01*
X117450265Y-92424173D01*
X117276072Y-92514852D01*
X117271939Y-92517955D01*
X117271936Y-92517957D01*
X117246825Y-92536811D01*
X117090855Y-92653917D01*
X116930839Y-92821364D01*
X116927925Y-92825636D01*
X116927924Y-92825637D01*
X116912352Y-92848465D01*
X116800319Y-93012699D01*
X116702802Y-93222781D01*
X116640907Y-93445969D01*
X116616295Y-93676269D01*
X81788000Y-93676269D01*
X81788000Y-86045907D01*
X82677000Y-86045907D01*
X82677659Y-86071782D01*
X82678313Y-86084605D01*
X82680292Y-86110431D01*
X82715328Y-86250714D01*
X82742159Y-86316445D01*
X82815298Y-86441174D01*
X82920616Y-86540245D01*
X82978725Y-86581036D01*
X82982739Y-86583071D01*
X83004263Y-86593985D01*
X83055974Y-86642631D01*
X83073176Y-86711512D01*
X83067283Y-86744777D01*
X83031720Y-86855877D01*
X83030293Y-86860335D01*
X82988279Y-87118307D01*
X82988218Y-87122980D01*
X82986028Y-87290309D01*
X82984858Y-87379655D01*
X83020104Y-87638638D01*
X83093243Y-87889567D01*
X83095203Y-87893820D01*
X83095204Y-87893821D01*
X83112484Y-87931304D01*
X83202668Y-88126928D01*
X83216919Y-88148664D01*
X83343410Y-88341596D01*
X83343414Y-88341601D01*
X83345976Y-88345509D01*
X83520018Y-88540506D01*
X83720970Y-88707637D01*
X83724973Y-88710066D01*
X83940422Y-88840804D01*
X83940426Y-88840806D01*
X83944419Y-88843229D01*
X84185455Y-88944303D01*
X84438783Y-89008641D01*
X84443434Y-89009109D01*
X84443438Y-89009110D01*
X84636308Y-89028531D01*
X84655867Y-89030500D01*
X89311354Y-89030500D01*
X89313679Y-89030327D01*
X89313685Y-89030327D01*
X89501000Y-89016407D01*
X89501004Y-89016406D01*
X89505652Y-89016061D01*
X89510200Y-89015032D01*
X89510206Y-89015031D01*
X89696601Y-88972853D01*
X89760577Y-88958377D01*
X89796769Y-88944303D01*
X89999824Y-88865340D01*
X89999827Y-88865339D01*
X90004177Y-88863647D01*
X90231098Y-88733951D01*
X90436357Y-88572138D01*
X90513331Y-88490313D01*
X90574574Y-88454401D01*
X90645511Y-88457301D01*
X90666536Y-88467427D01*
X90668530Y-88469155D01*
X90676723Y-88472896D01*
X90676725Y-88472898D01*
X90714859Y-88490313D01*
X90800056Y-88529221D01*
X90823810Y-88536196D01*
X90863854Y-88547954D01*
X90863858Y-88547955D01*
X90868177Y-88549223D01*
X90872625Y-88549863D01*
X90872632Y-88549864D01*
X91006848Y-88569161D01*
X91006855Y-88569162D01*
X91011296Y-88569800D01*
X99696000Y-88569800D01*
X99803980Y-88558191D01*
X99807264Y-88557477D01*
X99807268Y-88557476D01*
X99832339Y-88552022D01*
X99856322Y-88546805D01*
X99959372Y-88512507D01*
X100081010Y-88434335D01*
X100134666Y-88387842D01*
X100229355Y-88278566D01*
X100289421Y-88147040D01*
X100301165Y-88107045D01*
X100308154Y-88083242D01*
X100308155Y-88083238D01*
X100309423Y-88078919D01*
X100310064Y-88074464D01*
X100329361Y-87940248D01*
X100329362Y-87940241D01*
X100330000Y-87935800D01*
X100330000Y-86742000D01*
X120396000Y-86742000D01*
X120396360Y-86745346D01*
X120396360Y-86745351D01*
X120408243Y-86855877D01*
X120413413Y-86903971D01*
X120424799Y-86956313D01*
X120430807Y-86981812D01*
X120493949Y-87147086D01*
X120593504Y-87293345D01*
X120595908Y-87296119D01*
X120638894Y-87345729D01*
X120638910Y-87345746D01*
X120639997Y-87347001D01*
X120641157Y-87348204D01*
X120641170Y-87348219D01*
X120666957Y-87374978D01*
X120695903Y-87405016D01*
X120838376Y-87509916D01*
X120845128Y-87512786D01*
X120845131Y-87512788D01*
X120997826Y-87577698D01*
X120997830Y-87577699D01*
X121001200Y-87579132D01*
X121004719Y-87580165D01*
X121004721Y-87580166D01*
X121035799Y-87589291D01*
X121069321Y-87599134D01*
X121108271Y-87609460D01*
X121284000Y-87630000D01*
X123572000Y-87630000D01*
X123640121Y-87650002D01*
X123686614Y-87703658D01*
X123698000Y-87756000D01*
X123698000Y-95124000D01*
X123698360Y-95127346D01*
X123698360Y-95127351D01*
X123711700Y-95251430D01*
X123715413Y-95285971D01*
X123716131Y-95289271D01*
X123716131Y-95289272D01*
X123719352Y-95304077D01*
X123726799Y-95338313D01*
X123732807Y-95363812D01*
X123795949Y-95529086D01*
X123833466Y-95584203D01*
X123888371Y-95664865D01*
X123895504Y-95675345D01*
X123897908Y-95678119D01*
X123940894Y-95727729D01*
X123940910Y-95727746D01*
X123941997Y-95729001D01*
X123943157Y-95730204D01*
X123943170Y-95730219D01*
X123944133Y-95731218D01*
X123997903Y-95787016D01*
X124002202Y-95790181D01*
X124002204Y-95790183D01*
X124094312Y-95858000D01*
X124140376Y-95891916D01*
X124147128Y-95894786D01*
X124147131Y-95894788D01*
X124299826Y-95959698D01*
X124299830Y-95959699D01*
X124303200Y-95961132D01*
X124306719Y-95962165D01*
X124306721Y-95962166D01*
X124337799Y-95971291D01*
X124371321Y-95981134D01*
X124410271Y-95991460D01*
X124586000Y-96012000D01*
X145342927Y-96012000D01*
X145411048Y-96032002D01*
X145457541Y-96085658D01*
X145467645Y-96155932D01*
X145438151Y-96220512D01*
X145401107Y-96249763D01*
X145276072Y-96314852D01*
X145271939Y-96317955D01*
X145271936Y-96317957D01*
X145094990Y-96450812D01*
X145090855Y-96453917D01*
X144930839Y-96621364D01*
X144927925Y-96625636D01*
X144927924Y-96625637D01*
X144912352Y-96648465D01*
X144800319Y-96812699D01*
X144702802Y-97022781D01*
X144640907Y-97245969D01*
X144616295Y-97476269D01*
X144616592Y-97481422D01*
X144616592Y-97481425D01*
X144622267Y-97579841D01*
X144629627Y-97707497D01*
X144630764Y-97712543D01*
X144630765Y-97712549D01*
X144662941Y-97855323D01*
X144680546Y-97933442D01*
X144682488Y-97938224D01*
X144682489Y-97938228D01*
X144764603Y-98140450D01*
X144767684Y-98148037D01*
X144888701Y-98345519D01*
X145040347Y-98520584D01*
X145218549Y-98668530D01*
X145418522Y-98785384D01*
X145634894Y-98868009D01*
X145639960Y-98869040D01*
X145639961Y-98869040D01*
X145693046Y-98879840D01*
X145861856Y-98914185D01*
X145992524Y-98918976D01*
X146088149Y-98922483D01*
X146088153Y-98922483D01*
X146093313Y-98922672D01*
X146098433Y-98922016D01*
X146098435Y-98922016D01*
X146171470Y-98912660D01*
X146323047Y-98893242D01*
X146327995Y-98891757D01*
X146328002Y-98891756D01*
X146539947Y-98828169D01*
X146544890Y-98826686D01*
X146625436Y-98787227D01*
X146748249Y-98727062D01*
X146748252Y-98727060D01*
X146752884Y-98724791D01*
X146941443Y-98590294D01*
X147105503Y-98426805D01*
X147240658Y-98238717D01*
X147242951Y-98234077D01*
X147244555Y-98231408D01*
X147296784Y-98183317D01*
X147352560Y-98170300D01*
X148618070Y-98170300D01*
X148686191Y-98190302D01*
X148732684Y-98243958D01*
X148737593Y-98256423D01*
X148755450Y-98309946D01*
X148759301Y-98316170D01*
X148759302Y-98316171D01*
X148796991Y-98377075D01*
X148848522Y-98460348D01*
X148973697Y-98585305D01*
X148979927Y-98589145D01*
X148979928Y-98589146D01*
X149117090Y-98673694D01*
X149124262Y-98678115D01*
X149204005Y-98704564D01*
X149285611Y-98731632D01*
X149285613Y-98731632D01*
X149292139Y-98733797D01*
X149298975Y-98734497D01*
X149298978Y-98734498D01*
X149342031Y-98738909D01*
X149396600Y-98744500D01*
X150022400Y-98744500D01*
X150025646Y-98744163D01*
X150025650Y-98744163D01*
X150121308Y-98734238D01*
X150121312Y-98734237D01*
X150128166Y-98733526D01*
X150134702Y-98731345D01*
X150134704Y-98731345D01*
X150285803Y-98680934D01*
X150295946Y-98677550D01*
X150432398Y-98593111D01*
X150500849Y-98574273D01*
X150568618Y-98595434D01*
X150614190Y-98649875D01*
X150624700Y-98700255D01*
X150624700Y-99020069D01*
X150604698Y-99088190D01*
X150570970Y-99123282D01*
X150465519Y-99197119D01*
X150313519Y-99349119D01*
X150190224Y-99525204D01*
X150099378Y-99720023D01*
X150097956Y-99725331D01*
X150097955Y-99725333D01*
X150049907Y-99904651D01*
X150043742Y-99927658D01*
X150025007Y-100141800D01*
X150043742Y-100355942D01*
X150045166Y-100361255D01*
X150045166Y-100361257D01*
X150069698Y-100452809D01*
X150099378Y-100563577D01*
X150101700Y-100568557D01*
X150101701Y-100568559D01*
X150136382Y-100642931D01*
X150190224Y-100758396D01*
X150313519Y-100934481D01*
X150465519Y-101086481D01*
X150641603Y-101209776D01*
X150646581Y-101212097D01*
X150646584Y-101212099D01*
X150829953Y-101297605D01*
X150883238Y-101344522D01*
X150902699Y-101412800D01*
X150882157Y-101480759D01*
X150829953Y-101525995D01*
X150646585Y-101611501D01*
X150646582Y-101611503D01*
X150641604Y-101613824D01*
X150465519Y-101737119D01*
X150313519Y-101889119D01*
X150190224Y-102065204D01*
X150187903Y-102070182D01*
X150187901Y-102070185D01*
X150152772Y-102145519D01*
X150099378Y-102260023D01*
X150097956Y-102265331D01*
X150097955Y-102265333D01*
X150045166Y-102462343D01*
X150043742Y-102467658D01*
X150025007Y-102681800D01*
X150043742Y-102895942D01*
X150045166Y-102901255D01*
X150045166Y-102901257D01*
X150049091Y-102915903D01*
X150099378Y-103103577D01*
X150101700Y-103108557D01*
X150101701Y-103108559D01*
X150155869Y-103224721D01*
X150190224Y-103298396D01*
X150313519Y-103474481D01*
X150465519Y-103626481D01*
X150641603Y-103749776D01*
X150646581Y-103752097D01*
X150646584Y-103752099D01*
X150829953Y-103837605D01*
X150883238Y-103884522D01*
X150902699Y-103952800D01*
X150882157Y-104020759D01*
X150829953Y-104065995D01*
X150646585Y-104151501D01*
X150646582Y-104151503D01*
X150641604Y-104153824D01*
X150465519Y-104277119D01*
X150313519Y-104429119D01*
X150190224Y-104605204D01*
X150099378Y-104800023D01*
X150043742Y-105007658D01*
X150025007Y-105221800D01*
X150043742Y-105435942D01*
X150099378Y-105643577D01*
X150190224Y-105838396D01*
X150313519Y-106014481D01*
X150465519Y-106166481D01*
X150641603Y-106289776D01*
X150646581Y-106292097D01*
X150646584Y-106292099D01*
X150810573Y-106368568D01*
X150836423Y-106380622D01*
X150841731Y-106382044D01*
X150841733Y-106382045D01*
X151038743Y-106434834D01*
X151038745Y-106434834D01*
X151044058Y-106436258D01*
X151258200Y-106454993D01*
X151472342Y-106436258D01*
X151477655Y-106434834D01*
X151477657Y-106434834D01*
X151674667Y-106382045D01*
X151674669Y-106382044D01*
X151679977Y-106380622D01*
X151705827Y-106368568D01*
X151869816Y-106292099D01*
X151869819Y-106292097D01*
X151874797Y-106289776D01*
X152050881Y-106166481D01*
X152202881Y-106014481D01*
X152326176Y-105838396D01*
X152417022Y-105643577D01*
X152472658Y-105435942D01*
X152491393Y-105221800D01*
X152472658Y-105007658D01*
X152417022Y-104800023D01*
X152326176Y-104605204D01*
X152202881Y-104429119D01*
X152050881Y-104277119D01*
X151874797Y-104153824D01*
X151869819Y-104151503D01*
X151869816Y-104151501D01*
X151686447Y-104065995D01*
X151633162Y-104019078D01*
X151613701Y-103950800D01*
X151634243Y-103882841D01*
X151686447Y-103837605D01*
X151869816Y-103752099D01*
X151869819Y-103752097D01*
X151874797Y-103749776D01*
X152050881Y-103626481D01*
X152202881Y-103474481D01*
X152326176Y-103298396D01*
X152360532Y-103224721D01*
X152414699Y-103108559D01*
X152414700Y-103108557D01*
X152417022Y-103103577D01*
X152467310Y-102915903D01*
X152471234Y-102901257D01*
X152471234Y-102901255D01*
X152472658Y-102895942D01*
X152491393Y-102681800D01*
X152472658Y-102467658D01*
X152471234Y-102462343D01*
X152418445Y-102265333D01*
X152418444Y-102265331D01*
X152417022Y-102260023D01*
X152363628Y-102145519D01*
X152328499Y-102070185D01*
X152328497Y-102070182D01*
X152326176Y-102065204D01*
X152202881Y-101889119D01*
X152050881Y-101737119D01*
X151874797Y-101613824D01*
X151869819Y-101611503D01*
X151869816Y-101611501D01*
X151686447Y-101525995D01*
X151633162Y-101479078D01*
X151613701Y-101410800D01*
X151634243Y-101342841D01*
X151686447Y-101297605D01*
X151869816Y-101212099D01*
X151869819Y-101212097D01*
X151874797Y-101209776D01*
X152050881Y-101086481D01*
X152202881Y-100934481D01*
X152326176Y-100758396D01*
X152380019Y-100642931D01*
X152414699Y-100568559D01*
X152414700Y-100568557D01*
X152417022Y-100563577D01*
X152446703Y-100452809D01*
X152471234Y-100361257D01*
X152471234Y-100361255D01*
X152472658Y-100355942D01*
X152491393Y-100141800D01*
X152472658Y-99927658D01*
X152466493Y-99904651D01*
X152418445Y-99725333D01*
X152418444Y-99725331D01*
X152417022Y-99720023D01*
X152326176Y-99525204D01*
X152202881Y-99349119D01*
X152050881Y-99197119D01*
X151945430Y-99123282D01*
X151901101Y-99067825D01*
X151891700Y-99020069D01*
X151891700Y-98844823D01*
X151911702Y-98776702D01*
X151965358Y-98730209D01*
X151977817Y-98725302D01*
X152120946Y-98677550D01*
X152271348Y-98584478D01*
X152396305Y-98459303D01*
X152400146Y-98453072D01*
X152485275Y-98314968D01*
X152485276Y-98314966D01*
X152489115Y-98308738D01*
X152544797Y-98140861D01*
X152555500Y-98036400D01*
X152555500Y-97035600D01*
X152554170Y-97022781D01*
X152545238Y-96936692D01*
X152545237Y-96936688D01*
X152544526Y-96929834D01*
X152524901Y-96871009D01*
X152490868Y-96769002D01*
X152488550Y-96762054D01*
X152395478Y-96611652D01*
X152270303Y-96486695D01*
X152217963Y-96454432D01*
X152125968Y-96397725D01*
X152125966Y-96397724D01*
X152119738Y-96393885D01*
X151988435Y-96350334D01*
X151958389Y-96340368D01*
X151958387Y-96340368D01*
X151951861Y-96338203D01*
X151945025Y-96337503D01*
X151945022Y-96337502D01*
X151901969Y-96333091D01*
X151847400Y-96327500D01*
X151221600Y-96327500D01*
X151218354Y-96327837D01*
X151218350Y-96327837D01*
X151122692Y-96337762D01*
X151122688Y-96337763D01*
X151115834Y-96338474D01*
X151109298Y-96340655D01*
X151109296Y-96340655D01*
X151080285Y-96350334D01*
X150948054Y-96394450D01*
X150797652Y-96487522D01*
X150792479Y-96492704D01*
X150711216Y-96574109D01*
X150648934Y-96608188D01*
X150578114Y-96603185D01*
X150533025Y-96574264D01*
X150450483Y-96491866D01*
X150445303Y-96486695D01*
X150392963Y-96454432D01*
X150300968Y-96397725D01*
X150300966Y-96397724D01*
X150294738Y-96393885D01*
X150163435Y-96350334D01*
X150133389Y-96340368D01*
X150133387Y-96340368D01*
X150126861Y-96338203D01*
X150120025Y-96337503D01*
X150120022Y-96337502D01*
X150076969Y-96333091D01*
X150022400Y-96327500D01*
X149396600Y-96327500D01*
X149393354Y-96327837D01*
X149393350Y-96327837D01*
X149297692Y-96337762D01*
X149297688Y-96337763D01*
X149290834Y-96338474D01*
X149284298Y-96340655D01*
X149284296Y-96340655D01*
X149255285Y-96350334D01*
X149123054Y-96394450D01*
X148972652Y-96487522D01*
X148847695Y-96612697D01*
X148843855Y-96618927D01*
X148843854Y-96618928D01*
X148789394Y-96707279D01*
X148754885Y-96763262D01*
X148752581Y-96770209D01*
X148737072Y-96816967D01*
X148696642Y-96875327D01*
X148631077Y-96902564D01*
X148617479Y-96903300D01*
X147382068Y-96903300D01*
X147313947Y-96883298D01*
X147275948Y-96842169D01*
X147274770Y-96842931D01*
X147187684Y-96708317D01*
X147148964Y-96648465D01*
X147133960Y-96631975D01*
X147089991Y-96583654D01*
X146993087Y-96477158D01*
X146989036Y-96473959D01*
X146989032Y-96473955D01*
X146815377Y-96336811D01*
X146815372Y-96336808D01*
X146811323Y-96333610D01*
X146806808Y-96331117D01*
X146806795Y-96331109D01*
X146656801Y-96248308D01*
X146606831Y-96197876D01*
X146592059Y-96128433D01*
X146617175Y-96062028D01*
X146674206Y-96019743D01*
X146717695Y-96012000D01*
X152020000Y-96012000D01*
X152023346Y-96011640D01*
X152023351Y-96011640D01*
X152178607Y-95994949D01*
X152178613Y-95994948D01*
X152181971Y-95994587D01*
X152185272Y-95993869D01*
X152233850Y-95983302D01*
X152233880Y-95983295D01*
X152234313Y-95983201D01*
X152259812Y-95977193D01*
X152425086Y-95914051D01*
X152550284Y-95828832D01*
X152568309Y-95816563D01*
X152568314Y-95816559D01*
X152571345Y-95814496D01*
X152603059Y-95787016D01*
X152623729Y-95769106D01*
X152623746Y-95769090D01*
X152625001Y-95768003D01*
X152626204Y-95766843D01*
X152626219Y-95766830D01*
X152679170Y-95715803D01*
X152683016Y-95712097D01*
X152690654Y-95701724D01*
X152783563Y-95575536D01*
X152787916Y-95569624D01*
X152795729Y-95551246D01*
X152855698Y-95410174D01*
X152855699Y-95410170D01*
X152857132Y-95406800D01*
X152877134Y-95338679D01*
X152887460Y-95299729D01*
X152908000Y-95124000D01*
X152908000Y-78358000D01*
X152907640Y-78354649D01*
X152890949Y-78199393D01*
X152890948Y-78199387D01*
X152890587Y-78196029D01*
X152887594Y-78182271D01*
X152879302Y-78144150D01*
X152879292Y-78144106D01*
X152879201Y-78143687D01*
X152873193Y-78118188D01*
X152810051Y-77952914D01*
X152710496Y-77806655D01*
X152695783Y-77789676D01*
X152665106Y-77754271D01*
X152665090Y-77754254D01*
X152664003Y-77752999D01*
X152662843Y-77751796D01*
X152662830Y-77751781D01*
X152611803Y-77698830D01*
X152608097Y-77694984D01*
X152574040Y-77669908D01*
X152471536Y-77594437D01*
X152471537Y-77594437D01*
X152465624Y-77590084D01*
X152458872Y-77587214D01*
X152458869Y-77587212D01*
X152306174Y-77522302D01*
X152306170Y-77522301D01*
X152302800Y-77520868D01*
X152299281Y-77519835D01*
X152299279Y-77519834D01*
X152268201Y-77510709D01*
X152234679Y-77500866D01*
X152195729Y-77490540D01*
X152020000Y-77470000D01*
X121284000Y-77470000D01*
X121280654Y-77470360D01*
X121280649Y-77470360D01*
X121125393Y-77487051D01*
X121125387Y-77487052D01*
X121122029Y-77487413D01*
X121118729Y-77488131D01*
X121118728Y-77488131D01*
X121070150Y-77498698D01*
X121070120Y-77498705D01*
X121069687Y-77498799D01*
X121044188Y-77504807D01*
X120878914Y-77567949D01*
X120846395Y-77590084D01*
X120735691Y-77665437D01*
X120735686Y-77665441D01*
X120732655Y-77667504D01*
X120729881Y-77669908D01*
X120680271Y-77712894D01*
X120680254Y-77712910D01*
X120678999Y-77713997D01*
X120677796Y-77715157D01*
X120677781Y-77715170D01*
X120639790Y-77751781D01*
X120620984Y-77769903D01*
X120516084Y-77912376D01*
X120513214Y-77919128D01*
X120513212Y-77919131D01*
X120448302Y-78071826D01*
X120446868Y-78075200D01*
X120426866Y-78143321D01*
X120416540Y-78182271D01*
X120396000Y-78358000D01*
X120396000Y-81294332D01*
X120398139Y-81351385D01*
X120399552Y-81370204D01*
X120413031Y-81466638D01*
X120414813Y-81472029D01*
X120414814Y-81472035D01*
X120467396Y-81631147D01*
X120468547Y-81634629D01*
X120498500Y-81698999D01*
X120536303Y-81770144D01*
X120644451Y-81910167D01*
X120781976Y-82021476D01*
X120785068Y-82023432D01*
X120785072Y-82023435D01*
X120821500Y-82046481D01*
X120841974Y-82059433D01*
X120912241Y-82098846D01*
X120917269Y-82100636D01*
X120917270Y-82100636D01*
X121072009Y-82155711D01*
X121072011Y-82155711D01*
X121078924Y-82158172D01*
X121086217Y-82158972D01*
X121092723Y-82160465D01*
X121154643Y-82195199D01*
X121187955Y-82257895D01*
X121189445Y-82299827D01*
X121173360Y-82421194D01*
X121170102Y-82445774D01*
X121178751Y-82676158D01*
X121186761Y-82714333D01*
X121181174Y-82785108D01*
X121138209Y-82841628D01*
X121087946Y-82863801D01*
X121049418Y-82871438D01*
X121049415Y-82871439D01*
X121044188Y-82872475D01*
X120878914Y-82935617D01*
X120811317Y-82981629D01*
X120735691Y-83033105D01*
X120735686Y-83033109D01*
X120732655Y-83035172D01*
X120729881Y-83037576D01*
X120680271Y-83080562D01*
X120680254Y-83080578D01*
X120678999Y-83081665D01*
X120677796Y-83082825D01*
X120677781Y-83082838D01*
X120639395Y-83119829D01*
X120620984Y-83137571D01*
X120516084Y-83280044D01*
X120446868Y-83442868D01*
X120426866Y-83510989D01*
X120416540Y-83549939D01*
X120396000Y-83725668D01*
X120396000Y-86742000D01*
X100330000Y-86742000D01*
X100330000Y-82411434D01*
X111748661Y-82411434D01*
X111766792Y-82769340D01*
X111767329Y-82772695D01*
X111767330Y-82772701D01*
X111779095Y-82846152D01*
X111823470Y-83123195D01*
X111918033Y-83468859D01*
X112049374Y-83802288D01*
X112215957Y-84119582D01*
X112217858Y-84122411D01*
X112217864Y-84122421D01*
X112401569Y-84395800D01*
X112415834Y-84417029D01*
X112646665Y-84691150D01*
X112905751Y-84938738D01*
X113190061Y-85156897D01*
X113222056Y-85176350D01*
X113493355Y-85341303D01*
X113493360Y-85341306D01*
X113496270Y-85343075D01*
X113499358Y-85344521D01*
X113499357Y-85344521D01*
X113817710Y-85493649D01*
X113817720Y-85493653D01*
X113820794Y-85495093D01*
X113824012Y-85496195D01*
X113824015Y-85496196D01*
X114156615Y-85610071D01*
X114156623Y-85610073D01*
X114159838Y-85611174D01*
X114509435Y-85689959D01*
X114561728Y-85695917D01*
X114862114Y-85730142D01*
X114862122Y-85730142D01*
X114865497Y-85730527D01*
X114868901Y-85730545D01*
X114868904Y-85730545D01*
X115063227Y-85731562D01*
X115223857Y-85732403D01*
X115227243Y-85732053D01*
X115227245Y-85732053D01*
X115576932Y-85695917D01*
X115576941Y-85695916D01*
X115580324Y-85695566D01*
X115583657Y-85694852D01*
X115583660Y-85694851D01*
X115756186Y-85657864D01*
X115930727Y-85620446D01*
X116270968Y-85507922D01*
X116597066Y-85359311D01*
X116691052Y-85303506D01*
X116902262Y-85178099D01*
X116902267Y-85178096D01*
X116905207Y-85176350D01*
X117191786Y-84961180D01*
X117453451Y-84716319D01*
X117687140Y-84444630D01*
X117793750Y-84289512D01*
X117888190Y-84152101D01*
X117888195Y-84152094D01*
X117890120Y-84149292D01*
X117891732Y-84146298D01*
X117891737Y-84146290D01*
X118058395Y-83836772D01*
X118060017Y-83833760D01*
X118194842Y-83501724D01*
X118205142Y-83465568D01*
X118256065Y-83286799D01*
X118293020Y-83157070D01*
X118313446Y-83037576D01*
X118352829Y-82807175D01*
X118352829Y-82807173D01*
X118353401Y-82803828D01*
X118355511Y-82769340D01*
X118375168Y-82447928D01*
X118375278Y-82446131D01*
X118375359Y-82423000D01*
X118355979Y-82065159D01*
X118298066Y-81711505D01*
X118202297Y-81366173D01*
X118199243Y-81358497D01*
X118071052Y-81036369D01*
X118069793Y-81033205D01*
X118039768Y-80976498D01*
X117903702Y-80719513D01*
X117903698Y-80719506D01*
X117902103Y-80716494D01*
X117701190Y-80419746D01*
X117469403Y-80146432D01*
X117209454Y-79899750D01*
X116924384Y-79682585D01*
X116921472Y-79680828D01*
X116921467Y-79680825D01*
X116620443Y-79499236D01*
X116620437Y-79499233D01*
X116617528Y-79497478D01*
X116292475Y-79346593D01*
X116122752Y-79289145D01*
X115956255Y-79232789D01*
X115956250Y-79232788D01*
X115953028Y-79231697D01*
X115754681Y-79187724D01*
X115606493Y-79154871D01*
X115606487Y-79154870D01*
X115603158Y-79154132D01*
X115599769Y-79153758D01*
X115599764Y-79153757D01*
X115250338Y-79115180D01*
X115250333Y-79115180D01*
X115246957Y-79114807D01*
X115243558Y-79114801D01*
X115243557Y-79114801D01*
X115074080Y-79114505D01*
X114888592Y-79114182D01*
X114775413Y-79126277D01*
X114535639Y-79151901D01*
X114535631Y-79151902D01*
X114532256Y-79152263D01*
X114182117Y-79228606D01*
X113842271Y-79342317D01*
X113839178Y-79343739D01*
X113839177Y-79343740D01*
X113832974Y-79346593D01*
X113516694Y-79492066D01*
X113209193Y-79676101D01*
X113206467Y-79678163D01*
X113206465Y-79678164D01*
X113200620Y-79682585D01*
X112923367Y-79892270D01*
X112662559Y-80138043D01*
X112429819Y-80410546D01*
X112427900Y-80413358D01*
X112427897Y-80413363D01*
X112334624Y-80550097D01*
X112227871Y-80706591D01*
X112059077Y-81022714D01*
X111925411Y-81355218D01*
X111924491Y-81358492D01*
X111924489Y-81358497D01*
X111846872Y-81634629D01*
X111828437Y-81700213D01*
X111769290Y-82053663D01*
X111748661Y-82411434D01*
X100330000Y-82411434D01*
X100330000Y-73481200D01*
X100318391Y-73373220D01*
X100307005Y-73320878D01*
X100272707Y-73217828D01*
X100194535Y-73096190D01*
X100185699Y-73085992D01*
X100150982Y-73045927D01*
X100148042Y-73042534D01*
X100129213Y-73026218D01*
X100098605Y-72999696D01*
X100038766Y-72947845D01*
X99907240Y-72887779D01*
X99883486Y-72880804D01*
X99843442Y-72869046D01*
X99843438Y-72869045D01*
X99839119Y-72867777D01*
X99834671Y-72867137D01*
X99834664Y-72867136D01*
X99700448Y-72847839D01*
X99700441Y-72847838D01*
X99696000Y-72847200D01*
X91298201Y-72847200D01*
X91230080Y-72827198D01*
X91209183Y-72810373D01*
X91168842Y-72770102D01*
X91131891Y-72733216D01*
X91097812Y-72670934D01*
X91102815Y-72600114D01*
X91131736Y-72555025D01*
X91214134Y-72472483D01*
X91219305Y-72467303D01*
X91246954Y-72422448D01*
X91308275Y-72322968D01*
X91308276Y-72322966D01*
X91312115Y-72316738D01*
X91367797Y-72148861D01*
X91370703Y-72120504D01*
X91378172Y-72047598D01*
X91378500Y-72044400D01*
X91378500Y-71418600D01*
X91374421Y-71379288D01*
X91368238Y-71319692D01*
X91368237Y-71319688D01*
X91367526Y-71312834D01*
X91364673Y-71304281D01*
X91313868Y-71152002D01*
X91311550Y-71145054D01*
X91218478Y-70994652D01*
X91093303Y-70869695D01*
X91053953Y-70845439D01*
X90948968Y-70780725D01*
X90948966Y-70780724D01*
X90942738Y-70776885D01*
X90827496Y-70738661D01*
X90781389Y-70723368D01*
X90781387Y-70723368D01*
X90774861Y-70721203D01*
X90768025Y-70720503D01*
X90768022Y-70720502D01*
X90724969Y-70716091D01*
X90670400Y-70710500D01*
X89669600Y-70710500D01*
X89666354Y-70710837D01*
X89666350Y-70710837D01*
X89570692Y-70720762D01*
X89570688Y-70720763D01*
X89563834Y-70721474D01*
X89557298Y-70723655D01*
X89557296Y-70723655D01*
X89485747Y-70747526D01*
X89396054Y-70777450D01*
X89245652Y-70870522D01*
X89187552Y-70928724D01*
X89158808Y-70957518D01*
X89096526Y-70991597D01*
X89069635Y-70994500D01*
X87857944Y-70994500D01*
X87789823Y-70974498D01*
X87743330Y-70920842D01*
X87738421Y-70908377D01*
X87721422Y-70857427D01*
X87721421Y-70857425D01*
X87719102Y-70850474D01*
X87626797Y-70701311D01*
X87502653Y-70577383D01*
X87353329Y-70485339D01*
X87335674Y-70479483D01*
X87193366Y-70432281D01*
X87193364Y-70432281D01*
X87186835Y-70430115D01*
X87083231Y-70419500D01*
X86791766Y-70419500D01*
X86495770Y-70419501D01*
X86390871Y-70430384D01*
X86384340Y-70432563D01*
X86384335Y-70432564D01*
X86253453Y-70476230D01*
X86224474Y-70485898D01*
X86075311Y-70578203D01*
X85951383Y-70702347D01*
X85947543Y-70708577D01*
X85947542Y-70708578D01*
X85938249Y-70723655D01*
X85859339Y-70851671D01*
X85857034Y-70858619D01*
X85857034Y-70858620D01*
X85832736Y-70931877D01*
X85804115Y-71018165D01*
X85793500Y-71121769D01*
X85793501Y-72134230D01*
X85804384Y-72239129D01*
X85806563Y-72245660D01*
X85806564Y-72245665D01*
X85844979Y-72360809D01*
X85859898Y-72405526D01*
X85952203Y-72554689D01*
X85957385Y-72559862D01*
X86029676Y-72632027D01*
X86063755Y-72694309D01*
X86058752Y-72765130D01*
X86016255Y-72822002D01*
X85949756Y-72846871D01*
X85940658Y-72847200D01*
X83311000Y-72847200D01*
X83203020Y-72858809D01*
X83199736Y-72859523D01*
X83199732Y-72859524D01*
X83174661Y-72864978D01*
X83150678Y-72870195D01*
X83047628Y-72904493D01*
X82925990Y-72982665D01*
X82872334Y-73029158D01*
X82869393Y-73032552D01*
X82857803Y-73045927D01*
X82777645Y-73138434D01*
X82773901Y-73146631D01*
X82773901Y-73146632D01*
X82768917Y-73157545D01*
X82717579Y-73269960D01*
X82716311Y-73274279D01*
X82700661Y-73327579D01*
X82697577Y-73338081D01*
X82696937Y-73342529D01*
X82696936Y-73342536D01*
X82677639Y-73476752D01*
X82677638Y-73476759D01*
X82677000Y-73481200D01*
X82677000Y-86045907D01*
X81788000Y-86045907D01*
X81788000Y-51996207D01*
X81789746Y-51975303D01*
X81792264Y-51960335D01*
X81793071Y-51955539D01*
X81793224Y-51943000D01*
X81792535Y-51938187D01*
X81792218Y-51933328D01*
X81792506Y-51933309D01*
X81792105Y-51906570D01*
X81802332Y-51815803D01*
X81808611Y-51788296D01*
X81846196Y-51680884D01*
X81858438Y-51655463D01*
X81880702Y-51620031D01*
X81918985Y-51559103D01*
X81936577Y-51537044D01*
X82017044Y-51456577D01*
X82039103Y-51438985D01*
X82087389Y-51408645D01*
X82135465Y-51378437D01*
X82160884Y-51366196D01*
X82268296Y-51328611D01*
X82295803Y-51322332D01*
X82331103Y-51318354D01*
X82383258Y-51312478D01*
X82398900Y-51311695D01*
X82407856Y-51311804D01*
X82416730Y-51313186D01*
X82448252Y-51309064D01*
X82464589Y-51308000D01*
X82651277Y-51308000D01*
X82719398Y-51328002D01*
G37*
G04 #@! TD.AperFunction*
G04 #@! TA.AperFunction,Conductor*
G36*
X153231121Y-51836002D02*
G01*
X153277614Y-51889658D01*
X153289000Y-51942000D01*
X153289000Y-75145000D01*
X153268998Y-75213121D01*
X153215342Y-75259614D01*
X153163000Y-75271000D01*
X144525000Y-75271000D01*
X144456879Y-75250998D01*
X144410386Y-75197342D01*
X144399000Y-75145000D01*
X144399000Y-51942000D01*
X144419002Y-51873879D01*
X144472658Y-51827386D01*
X144525000Y-51816000D01*
X153163000Y-51816000D01*
X153231121Y-51836002D01*
G37*
G04 #@! TD.AperFunction*
G04 #@! TA.AperFunction,Conductor*
G36*
X181298121Y-73815002D02*
G01*
X181344614Y-73868658D01*
X181356000Y-73921000D01*
X181356000Y-87534600D01*
X181335998Y-87602721D01*
X181282342Y-87649214D01*
X181230000Y-87660600D01*
X181156557Y-87660600D01*
X181088436Y-87640598D01*
X181041943Y-87586942D01*
X181031708Y-87551591D01*
X181013526Y-87417993D01*
X181012896Y-87413362D01*
X180998473Y-87363877D01*
X180941068Y-87166932D01*
X180939757Y-87162433D01*
X180830332Y-86925072D01*
X180797519Y-86875024D01*
X180689590Y-86710404D01*
X180689586Y-86710399D01*
X180687024Y-86706491D01*
X180512982Y-86511494D01*
X180312030Y-86344363D01*
X180264844Y-86315730D01*
X180092578Y-86211196D01*
X180092574Y-86211194D01*
X180088581Y-86208771D01*
X179847545Y-86107697D01*
X179594217Y-86043359D01*
X179589566Y-86042891D01*
X179589562Y-86042890D01*
X179380271Y-86021816D01*
X179377133Y-86021500D01*
X174721646Y-86021500D01*
X174719321Y-86021673D01*
X174719315Y-86021673D01*
X174532000Y-86035593D01*
X174531996Y-86035594D01*
X174527348Y-86035939D01*
X174522800Y-86036968D01*
X174522794Y-86036969D01*
X174336399Y-86079147D01*
X174272423Y-86093623D01*
X174268071Y-86095315D01*
X174268069Y-86095316D01*
X174033176Y-86186660D01*
X174033173Y-86186661D01*
X174028823Y-86188353D01*
X173801902Y-86318049D01*
X173596643Y-86479862D01*
X173417557Y-86670237D01*
X173268576Y-86884991D01*
X173152975Y-87119407D01*
X173073293Y-87368335D01*
X173072540Y-87372959D01*
X173042916Y-87554854D01*
X173012224Y-87618874D01*
X172951793Y-87656137D01*
X172918555Y-87660600D01*
X164845000Y-87660600D01*
X164776879Y-87640598D01*
X164730386Y-87586942D01*
X164719000Y-87534600D01*
X164719000Y-73921000D01*
X164739002Y-73852879D01*
X164792658Y-73806386D01*
X164845000Y-73795000D01*
X181230000Y-73795000D01*
X181298121Y-73815002D01*
G37*
G04 #@! TD.AperFunction*
G04 #@! TA.AperFunction,Conductor*
G36*
X86209306Y-96669407D02*
G01*
X86288631Y-96695718D01*
X86288633Y-96695718D01*
X86295165Y-96697885D01*
X86398769Y-96708500D01*
X86690234Y-96708500D01*
X86986230Y-96708499D01*
X87091129Y-96697616D01*
X87097660Y-96695437D01*
X87097665Y-96695436D01*
X87175476Y-96669476D01*
X87215352Y-96663000D01*
X88044639Y-96663000D01*
X88084306Y-96669407D01*
X88163631Y-96695718D01*
X88163633Y-96695718D01*
X88170165Y-96697885D01*
X88273769Y-96708500D01*
X88565234Y-96708500D01*
X88861230Y-96708499D01*
X88966129Y-96697616D01*
X88972660Y-96695437D01*
X88972665Y-96695436D01*
X89050476Y-96669476D01*
X89090352Y-96663000D01*
X99188000Y-96663000D01*
X99256121Y-96683002D01*
X99302614Y-96736658D01*
X99314000Y-96789000D01*
X99314000Y-111316000D01*
X99293998Y-111384121D01*
X99240342Y-111430614D01*
X99188000Y-111442000D01*
X91129207Y-111442000D01*
X91061086Y-111421998D01*
X91014593Y-111368342D01*
X91003218Y-111314351D01*
X91005081Y-111172022D01*
X91005081Y-111172019D01*
X91005142Y-111167345D01*
X90969896Y-110908362D01*
X90955473Y-110858877D01*
X90898068Y-110661932D01*
X90896757Y-110657433D01*
X90787332Y-110420072D01*
X90754519Y-110370024D01*
X90646590Y-110205404D01*
X90646586Y-110205399D01*
X90644024Y-110201491D01*
X90469982Y-110006494D01*
X90269030Y-109839363D01*
X90221844Y-109810730D01*
X90049578Y-109706196D01*
X90049574Y-109706194D01*
X90045581Y-109703771D01*
X89804545Y-109602697D01*
X89551217Y-109538359D01*
X89546566Y-109537891D01*
X89546562Y-109537890D01*
X89337271Y-109516816D01*
X89334133Y-109516500D01*
X84678646Y-109516500D01*
X84676321Y-109516673D01*
X84676315Y-109516673D01*
X84489000Y-109530593D01*
X84488996Y-109530594D01*
X84484348Y-109530939D01*
X84479800Y-109531968D01*
X84479794Y-109531969D01*
X84293399Y-109574147D01*
X84229423Y-109588623D01*
X84225071Y-109590315D01*
X84225069Y-109590316D01*
X83990176Y-109681660D01*
X83990173Y-109681661D01*
X83985823Y-109683353D01*
X83758902Y-109813049D01*
X83553643Y-109974862D01*
X83374557Y-110165237D01*
X83225576Y-110379991D01*
X83109975Y-110614407D01*
X83030293Y-110863335D01*
X82988279Y-111121307D01*
X82987615Y-111172022D01*
X82985709Y-111317649D01*
X82964817Y-111385502D01*
X82910558Y-111431289D01*
X82859720Y-111442000D01*
X82803000Y-111442000D01*
X82734879Y-111421998D01*
X82688386Y-111368342D01*
X82677000Y-111316000D01*
X82677000Y-96789000D01*
X82697002Y-96720879D01*
X82750658Y-96674386D01*
X82803000Y-96663000D01*
X86169639Y-96663000D01*
X86209306Y-96669407D01*
G37*
G04 #@! TD.AperFunction*
G04 #@! TA.AperFunction,Conductor*
G36*
X117860863Y-103398002D02*
G01*
X117907356Y-103451658D01*
X117917460Y-103521932D01*
X117887966Y-103586512D01*
X117828240Y-103624896D01*
X117811801Y-103628550D01*
X117685965Y-103647806D01*
X117675937Y-103650195D01*
X117451630Y-103723509D01*
X117442120Y-103727506D01*
X117288913Y-103807261D01*
X117278743Y-103817035D01*
X117281168Y-103823953D01*
X118016388Y-104559173D01*
X118030332Y-104566787D01*
X118032165Y-104566656D01*
X118038780Y-104562405D01*
X118771765Y-103829420D01*
X118778525Y-103817040D01*
X118773711Y-103810610D01*
X118649893Y-103742258D01*
X118640496Y-103738035D01*
X118418044Y-103659261D01*
X118408073Y-103656627D01*
X118247624Y-103628047D01*
X118184066Y-103596409D01*
X118147703Y-103535432D01*
X118150080Y-103464475D01*
X118190441Y-103406067D01*
X118255973Y-103378752D01*
X118269720Y-103378000D01*
X145792742Y-103378000D01*
X145860863Y-103398002D01*
X145907356Y-103451658D01*
X145917460Y-103521932D01*
X145887966Y-103586512D01*
X145828240Y-103624896D01*
X145811801Y-103628550D01*
X145685965Y-103647806D01*
X145675937Y-103650195D01*
X145451630Y-103723509D01*
X145442120Y-103727506D01*
X145288913Y-103807261D01*
X145278743Y-103817035D01*
X145281168Y-103823953D01*
X146304000Y-104846785D01*
X146304000Y-105374815D01*
X145286948Y-106391867D01*
X145280188Y-106404247D01*
X145285469Y-106411301D01*
X145375255Y-106463768D01*
X145384543Y-106468218D01*
X145605008Y-106552405D01*
X145614906Y-106555281D01*
X145846162Y-106602330D01*
X145856390Y-106603549D01*
X146092223Y-106612198D01*
X146102509Y-106611731D01*
X146161990Y-106604111D01*
X146232100Y-106615295D01*
X146285034Y-106662608D01*
X146304000Y-106729090D01*
X146304000Y-114682000D01*
X146283998Y-114750121D01*
X146230342Y-114796614D01*
X146178000Y-114808000D01*
X133157734Y-114808000D01*
X133089613Y-114787998D01*
X133043120Y-114734342D01*
X133034134Y-114657527D01*
X133070409Y-114474321D01*
X133071387Y-114467364D01*
X133099430Y-114133421D01*
X133099643Y-114129055D01*
X133100773Y-114048178D01*
X133100682Y-114043828D01*
X133081974Y-113709220D01*
X133081190Y-113702230D01*
X133025528Y-113373137D01*
X133023967Y-113366266D01*
X132931964Y-113045415D01*
X132929656Y-113038787D01*
X132802455Y-112730172D01*
X132799426Y-112723852D01*
X132638617Y-112431340D01*
X132634894Y-112425384D01*
X132468524Y-112189538D01*
X132457956Y-112181151D01*
X132444629Y-112188186D01*
X130137095Y-114495720D01*
X130074783Y-114529746D01*
X130003968Y-114524681D01*
X129958905Y-114495720D01*
X127651917Y-112188732D01*
X127639806Y-112182119D01*
X127628188Y-112190946D01*
X127483990Y-112389418D01*
X127480173Y-112395340D01*
X127315307Y-112685555D01*
X127312181Y-112691853D01*
X127180692Y-112998642D01*
X127178286Y-113005252D01*
X127081811Y-113324791D01*
X127080161Y-113331612D01*
X127019905Y-113659916D01*
X127019023Y-113666899D01*
X126995741Y-113999858D01*
X126995643Y-114006903D01*
X127009620Y-114340384D01*
X127010305Y-114347374D01*
X127059123Y-114662724D01*
X127049778Y-114733103D01*
X127003866Y-114787257D01*
X126934606Y-114808000D01*
X115696000Y-114808000D01*
X115627879Y-114787998D01*
X115581386Y-114734342D01*
X115570000Y-114682000D01*
X115570000Y-111635212D01*
X128182492Y-111635212D01*
X128189593Y-111648778D01*
X130035188Y-113494373D01*
X130049132Y-113501987D01*
X130050965Y-113501856D01*
X130057580Y-113497605D01*
X131905807Y-111649378D01*
X131912348Y-111637400D01*
X131903335Y-111625624D01*
X131686628Y-111470476D01*
X131680703Y-111466717D01*
X131389336Y-111303878D01*
X131383018Y-111300796D01*
X131075310Y-111171447D01*
X131068695Y-111169091D01*
X130748476Y-111074846D01*
X130741654Y-111073246D01*
X130412924Y-111015282D01*
X130405952Y-111014451D01*
X130072830Y-110993492D01*
X130065799Y-110993443D01*
X129732402Y-111009749D01*
X129725424Y-111010483D01*
X129395930Y-111063849D01*
X129389070Y-111065357D01*
X129067565Y-111155123D01*
X129060930Y-111157382D01*
X128751437Y-111282425D01*
X128745093Y-111285410D01*
X128451471Y-111444171D01*
X128445482Y-111447855D01*
X128190854Y-111624825D01*
X128182492Y-111635212D01*
X115570000Y-111635212D01*
X115570000Y-106404247D01*
X117280188Y-106404247D01*
X117285469Y-106411301D01*
X117375255Y-106463768D01*
X117384543Y-106468218D01*
X117605008Y-106552405D01*
X117614906Y-106555281D01*
X117846162Y-106602330D01*
X117856390Y-106603549D01*
X118092223Y-106612198D01*
X118102509Y-106611731D01*
X118336588Y-106581744D01*
X118346674Y-106579601D01*
X118572716Y-106511785D01*
X118575230Y-106510800D01*
X136661559Y-106510800D01*
X136682090Y-106771677D01*
X136683244Y-106776484D01*
X136683245Y-106776490D01*
X136721725Y-106936766D01*
X136743179Y-107026129D01*
X136843321Y-107267893D01*
X136980050Y-107491015D01*
X137150000Y-107690000D01*
X137348985Y-107859950D01*
X137572107Y-107996679D01*
X137576677Y-107998572D01*
X137576681Y-107998574D01*
X137809298Y-108094927D01*
X137813871Y-108096821D01*
X137903234Y-108118275D01*
X138063510Y-108156755D01*
X138063516Y-108156756D01*
X138068323Y-108157910D01*
X138329200Y-108178441D01*
X138590077Y-108157910D01*
X138594884Y-108156756D01*
X138594890Y-108156755D01*
X138755166Y-108118275D01*
X138844529Y-108096821D01*
X138849102Y-108094927D01*
X139081719Y-107998574D01*
X139081723Y-107998572D01*
X139086293Y-107996679D01*
X139309415Y-107859950D01*
X139508400Y-107690000D01*
X139678350Y-107491015D01*
X139815079Y-107267893D01*
X139915221Y-107026129D01*
X139936675Y-106936766D01*
X139975155Y-106776490D01*
X139975156Y-106776484D01*
X139976310Y-106771677D01*
X139996841Y-106510800D01*
X140461559Y-106510800D01*
X140482090Y-106771677D01*
X140483244Y-106776484D01*
X140483245Y-106776490D01*
X140521725Y-106936766D01*
X140543179Y-107026129D01*
X140643321Y-107267893D01*
X140780050Y-107491015D01*
X140950000Y-107690000D01*
X141148985Y-107859950D01*
X141372107Y-107996679D01*
X141376677Y-107998572D01*
X141376681Y-107998574D01*
X141609298Y-108094927D01*
X141613871Y-108096821D01*
X141703234Y-108118275D01*
X141863510Y-108156755D01*
X141863516Y-108156756D01*
X141868323Y-108157910D01*
X142129200Y-108178441D01*
X142390077Y-108157910D01*
X142394884Y-108156756D01*
X142394890Y-108156755D01*
X142555166Y-108118275D01*
X142644529Y-108096821D01*
X142649102Y-108094927D01*
X142881719Y-107998574D01*
X142881723Y-107998572D01*
X142886293Y-107996679D01*
X143109415Y-107859950D01*
X143308400Y-107690000D01*
X143478350Y-107491015D01*
X143615079Y-107267893D01*
X143715221Y-107026129D01*
X143736675Y-106936766D01*
X143775155Y-106776490D01*
X143775156Y-106776484D01*
X143776310Y-106771677D01*
X143796841Y-106510800D01*
X143776310Y-106249923D01*
X143775156Y-106245116D01*
X143775155Y-106245110D01*
X143716376Y-106000283D01*
X143715221Y-105995471D01*
X143713327Y-105990898D01*
X143616974Y-105758281D01*
X143616972Y-105758277D01*
X143615079Y-105753707D01*
X143478350Y-105530585D01*
X143308400Y-105331600D01*
X143109415Y-105161650D01*
X142974919Y-105079231D01*
X144526812Y-105079231D01*
X144540396Y-105314828D01*
X144541832Y-105325048D01*
X144593713Y-105555255D01*
X144596792Y-105565084D01*
X144685580Y-105783741D01*
X144690225Y-105792937D01*
X144725604Y-105850670D01*
X144736060Y-105860131D01*
X144744838Y-105856347D01*
X145477573Y-105123612D01*
X145485187Y-105109668D01*
X145485056Y-105107835D01*
X145480805Y-105101220D01*
X144745463Y-104365878D01*
X144733927Y-104359579D01*
X144722700Y-104368375D01*
X144720055Y-104373032D01*
X144620694Y-104587085D01*
X144617140Y-104596745D01*
X144554070Y-104824169D01*
X144552143Y-104834273D01*
X144527064Y-105068942D01*
X144526812Y-105079231D01*
X142974919Y-105079231D01*
X142886293Y-105024921D01*
X142881723Y-105023028D01*
X142881719Y-105023026D01*
X142649102Y-104926673D01*
X142649100Y-104926672D01*
X142644529Y-104924779D01*
X142555166Y-104903325D01*
X142394890Y-104864845D01*
X142394884Y-104864844D01*
X142390077Y-104863690D01*
X142129200Y-104843159D01*
X141868323Y-104863690D01*
X141863516Y-104864844D01*
X141863510Y-104864845D01*
X141703234Y-104903325D01*
X141613871Y-104924779D01*
X141609300Y-104926672D01*
X141609298Y-104926673D01*
X141376681Y-105023026D01*
X141376677Y-105023028D01*
X141372107Y-105024921D01*
X141148985Y-105161650D01*
X140950000Y-105331600D01*
X140780050Y-105530585D01*
X140643321Y-105753707D01*
X140641428Y-105758277D01*
X140641426Y-105758281D01*
X140545073Y-105990898D01*
X140543179Y-105995471D01*
X140542024Y-106000283D01*
X140483245Y-106245110D01*
X140483244Y-106245116D01*
X140482090Y-106249923D01*
X140461559Y-106510800D01*
X139996841Y-106510800D01*
X139976310Y-106249923D01*
X139975156Y-106245116D01*
X139975155Y-106245110D01*
X139916376Y-106000283D01*
X139915221Y-105995471D01*
X139913327Y-105990898D01*
X139816974Y-105758281D01*
X139816972Y-105758277D01*
X139815079Y-105753707D01*
X139678350Y-105530585D01*
X139508400Y-105331600D01*
X139309415Y-105161650D01*
X139086293Y-105024921D01*
X139081723Y-105023028D01*
X139081719Y-105023026D01*
X138849102Y-104926673D01*
X138849100Y-104926672D01*
X138844529Y-104924779D01*
X138755166Y-104903325D01*
X138594890Y-104864845D01*
X138594884Y-104864844D01*
X138590077Y-104863690D01*
X138329200Y-104843159D01*
X138068323Y-104863690D01*
X138063516Y-104864844D01*
X138063510Y-104864845D01*
X137903234Y-104903325D01*
X137813871Y-104924779D01*
X137809300Y-104926672D01*
X137809298Y-104926673D01*
X137576681Y-105023026D01*
X137576677Y-105023028D01*
X137572107Y-105024921D01*
X137348985Y-105161650D01*
X137150000Y-105331600D01*
X136980050Y-105530585D01*
X136843321Y-105753707D01*
X136841428Y-105758277D01*
X136841426Y-105758281D01*
X136745073Y-105990898D01*
X136743179Y-105995471D01*
X136742024Y-106000283D01*
X136683245Y-106245110D01*
X136683244Y-106245116D01*
X136682090Y-106249923D01*
X136661559Y-106510800D01*
X118575230Y-106510800D01*
X118582293Y-106508032D01*
X118770953Y-106415608D01*
X118781358Y-106406086D01*
X118779297Y-106399712D01*
X118042012Y-105662427D01*
X118028068Y-105654813D01*
X118026235Y-105654944D01*
X118019620Y-105659195D01*
X117286948Y-106391867D01*
X117280188Y-106404247D01*
X115570000Y-106404247D01*
X115570000Y-105079231D01*
X116526812Y-105079231D01*
X116540396Y-105314828D01*
X116541832Y-105325048D01*
X116593713Y-105555255D01*
X116596792Y-105565084D01*
X116685580Y-105783741D01*
X116690225Y-105792937D01*
X116725604Y-105850670D01*
X116736060Y-105860131D01*
X116744838Y-105856347D01*
X117477573Y-105123612D01*
X117483951Y-105111932D01*
X118573213Y-105111932D01*
X118573344Y-105113765D01*
X118577595Y-105120380D01*
X119312945Y-105855730D01*
X119325325Y-105862490D01*
X119330758Y-105858423D01*
X119424485Y-105668783D01*
X119428283Y-105659190D01*
X119496885Y-105433393D01*
X119499062Y-105423323D01*
X119530102Y-105187550D01*
X119530621Y-105180875D01*
X119532252Y-105114164D01*
X119532058Y-105107447D01*
X119512574Y-104870450D01*
X119510891Y-104860288D01*
X119453400Y-104631404D01*
X119450079Y-104621649D01*
X119355981Y-104405241D01*
X119351106Y-104396149D01*
X119334063Y-104369803D01*
X119323378Y-104360600D01*
X119313812Y-104365003D01*
X118580827Y-105097988D01*
X118573213Y-105111932D01*
X117483951Y-105111932D01*
X117485187Y-105109668D01*
X117485056Y-105107835D01*
X117480805Y-105101220D01*
X116745463Y-104365878D01*
X116733927Y-104359579D01*
X116722700Y-104368375D01*
X116720055Y-104373032D01*
X116620694Y-104587085D01*
X116617140Y-104596745D01*
X116554070Y-104824169D01*
X116552143Y-104834273D01*
X116527064Y-105068942D01*
X116526812Y-105079231D01*
X115570000Y-105079231D01*
X115570000Y-103504000D01*
X115590002Y-103435879D01*
X115643658Y-103389386D01*
X115696000Y-103378000D01*
X117792742Y-103378000D01*
X117860863Y-103398002D01*
G37*
G04 #@! TD.AperFunction*
G04 #@! TA.AperFunction,Conductor*
G36*
X99510121Y-51963002D02*
G01*
X99556614Y-52016658D01*
X99568000Y-52069000D01*
X99568000Y-67988800D01*
X99547998Y-68056921D01*
X99494342Y-68103414D01*
X99442000Y-68114800D01*
X83057000Y-68114800D01*
X82988879Y-68094798D01*
X82942386Y-68041142D01*
X82931000Y-67988800D01*
X82931000Y-65378910D01*
X82951002Y-65310789D01*
X83004658Y-65264296D01*
X83074932Y-65254192D01*
X83139512Y-65283686D01*
X83171426Y-65326159D01*
X83202668Y-65393928D01*
X83205231Y-65397837D01*
X83343410Y-65608596D01*
X83343414Y-65608601D01*
X83345976Y-65612509D01*
X83520018Y-65807506D01*
X83720970Y-65974637D01*
X83724973Y-65977066D01*
X83940422Y-66107804D01*
X83940426Y-66107806D01*
X83944419Y-66110229D01*
X84185455Y-66211303D01*
X84438783Y-66275641D01*
X84443434Y-66276109D01*
X84443438Y-66276110D01*
X84636308Y-66295531D01*
X84655867Y-66297500D01*
X89311354Y-66297500D01*
X89313679Y-66297327D01*
X89313685Y-66297327D01*
X89501000Y-66283407D01*
X89501004Y-66283406D01*
X89505652Y-66283061D01*
X89510200Y-66282032D01*
X89510206Y-66282031D01*
X89696601Y-66239853D01*
X89760577Y-66225377D01*
X89796769Y-66211303D01*
X89999824Y-66132340D01*
X89999827Y-66132339D01*
X90004177Y-66130647D01*
X90231098Y-66000951D01*
X90436357Y-65839138D01*
X90615443Y-65648763D01*
X90764424Y-65434009D01*
X90817610Y-65326159D01*
X90877960Y-65203781D01*
X90877961Y-65203778D01*
X90880025Y-65199593D01*
X90959707Y-64950665D01*
X91001721Y-64692693D01*
X91005142Y-64431345D01*
X90969896Y-64172362D01*
X90896757Y-63921433D01*
X90787332Y-63684072D01*
X90754519Y-63634024D01*
X90646590Y-63469404D01*
X90646586Y-63469399D01*
X90644024Y-63465491D01*
X90469982Y-63270494D01*
X90269030Y-63103363D01*
X90221844Y-63074730D01*
X90049578Y-62970196D01*
X90049574Y-62970194D01*
X90045581Y-62967771D01*
X89804545Y-62866697D01*
X89551217Y-62802359D01*
X89546566Y-62801891D01*
X89546562Y-62801890D01*
X89337271Y-62780816D01*
X89334133Y-62780500D01*
X84678646Y-62780500D01*
X84676321Y-62780673D01*
X84676315Y-62780673D01*
X84489000Y-62794593D01*
X84488996Y-62794594D01*
X84484348Y-62794939D01*
X84479800Y-62795968D01*
X84479794Y-62795969D01*
X84293399Y-62838147D01*
X84229423Y-62852623D01*
X84225071Y-62854315D01*
X84225069Y-62854316D01*
X83990176Y-62945660D01*
X83990173Y-62945661D01*
X83985823Y-62947353D01*
X83758902Y-63077049D01*
X83553643Y-63238862D01*
X83374557Y-63429237D01*
X83225576Y-63643991D01*
X83223510Y-63648181D01*
X83223508Y-63648184D01*
X83170006Y-63756676D01*
X83121938Y-63808925D01*
X83053252Y-63826892D01*
X82985757Y-63804873D01*
X82940880Y-63749858D01*
X82931000Y-63700948D01*
X82931000Y-52069000D01*
X82951002Y-52000879D01*
X83004658Y-51954386D01*
X83057000Y-51943000D01*
X99442000Y-51943000D01*
X99510121Y-51963002D01*
G37*
G04 #@! TD.AperFunction*
G04 #@! TA.AperFunction,Conductor*
G36*
X118814121Y-51836002D02*
G01*
X118860614Y-51889658D01*
X118872000Y-51942000D01*
X118872000Y-75167600D01*
X118851998Y-75235721D01*
X118798342Y-75282214D01*
X118746000Y-75293600D01*
X110108000Y-75293600D01*
X110039879Y-75273598D01*
X109993386Y-75219942D01*
X109982000Y-75167600D01*
X109982000Y-72856873D01*
X110002002Y-72788752D01*
X110009118Y-72778781D01*
X110011447Y-72775832D01*
X110016617Y-72770653D01*
X110108661Y-72621329D01*
X110163885Y-72454835D01*
X110174500Y-72351231D01*
X110174499Y-71763770D01*
X110163616Y-71658871D01*
X110161437Y-71652340D01*
X110161436Y-71652335D01*
X110110420Y-71499422D01*
X110108102Y-71492474D01*
X110088954Y-71461530D01*
X110019651Y-71349538D01*
X110019648Y-71349534D01*
X110015797Y-71343311D01*
X110010615Y-71338138D01*
X110009254Y-71336421D01*
X109982617Y-71270611D01*
X109982000Y-71258157D01*
X109982000Y-70981873D01*
X110002002Y-70913752D01*
X110009118Y-70903781D01*
X110011447Y-70900832D01*
X110016617Y-70895653D01*
X110108661Y-70746329D01*
X110163885Y-70579835D01*
X110174500Y-70476231D01*
X110174499Y-69888770D01*
X110163616Y-69783871D01*
X110161437Y-69777340D01*
X110161436Y-69777335D01*
X110110420Y-69624422D01*
X110108102Y-69617474D01*
X110088954Y-69586530D01*
X110019651Y-69474538D01*
X110019648Y-69474534D01*
X110015797Y-69468311D01*
X110010615Y-69463138D01*
X110009254Y-69461421D01*
X109982617Y-69395611D01*
X109982000Y-69383157D01*
X109982000Y-51942000D01*
X110002002Y-51873879D01*
X110055658Y-51827386D01*
X110108000Y-51816000D01*
X118746000Y-51816000D01*
X118814121Y-51836002D01*
G37*
G04 #@! TD.AperFunction*
M02*
