G04 #@! TF.GenerationSoftware,KiCad,Pcbnew,(6.0.1)*
G04 #@! TF.CreationDate,2022-02-13T16:01:42-07:00*
G04 #@! TF.ProjectId,MinesRobotics_PDB,4d696e65-7352-46f6-926f-746963735f50,rev?*
G04 #@! TF.SameCoordinates,Original*
G04 #@! TF.FileFunction,Copper,L2,Bot*
G04 #@! TF.FilePolarity,Positive*
%FSLAX46Y46*%
G04 Gerber Fmt 4.6, Leading zero omitted, Abs format (unit mm)*
G04 Created by KiCad (PCBNEW (6.0.1)) date 2022-02-13 16:01:42*
%MOMM*%
%LPD*%
G01*
G04 APERTURE LIST*
G04 Aperture macros list*
%AMRoundRect*
0 Rectangle with rounded corners*
0 $1 Rounding radius*
0 $2 $3 $4 $5 $6 $7 $8 $9 X,Y pos of 4 corners*
0 Add a 4 corners polygon primitive as box body*
4,1,4,$2,$3,$4,$5,$6,$7,$8,$9,$2,$3,0*
0 Add four circle primitives for the rounded corners*
1,1,$1+$1,$2,$3*
1,1,$1+$1,$4,$5*
1,1,$1+$1,$6,$7*
1,1,$1+$1,$8,$9*
0 Add four rect primitives between the rounded corners*
20,1,$1+$1,$2,$3,$4,$5,0*
20,1,$1+$1,$4,$5,$6,$7,0*
20,1,$1+$1,$6,$7,$8,$9,0*
20,1,$1+$1,$8,$9,$2,$3,0*%
G04 Aperture macros list end*
G04 #@! TA.AperFunction,ComponentPad*
%ADD10C,5.600000*%
G04 #@! TD*
G04 #@! TA.AperFunction,ComponentPad*
%ADD11O,5.500000X3.800000*%
G04 #@! TD*
G04 #@! TA.AperFunction,ComponentPad*
%ADD12O,5.300000X3.800000*%
G04 #@! TD*
G04 #@! TA.AperFunction,ComponentPad*
%ADD13O,7.000000X2.500000*%
G04 #@! TD*
G04 #@! TA.AperFunction,ComponentPad*
%ADD14O,2.500000X7.000000*%
G04 #@! TD*
G04 #@! TA.AperFunction,ComponentPad*
%ADD15C,1.800000*%
G04 #@! TD*
G04 #@! TA.AperFunction,ComponentPad*
%ADD16C,2.500000*%
G04 #@! TD*
G04 #@! TA.AperFunction,ComponentPad*
%ADD17C,1.440000*%
G04 #@! TD*
G04 #@! TA.AperFunction,ComponentPad*
%ADD18RoundRect,0.250000X-0.600000X-0.750000X0.600000X-0.750000X0.600000X0.750000X-0.600000X0.750000X0*%
G04 #@! TD*
G04 #@! TA.AperFunction,ComponentPad*
%ADD19O,1.700000X2.000000*%
G04 #@! TD*
G04 #@! TA.AperFunction,SMDPad,CuDef*
%ADD20RoundRect,0.225000X0.250000X-0.225000X0.250000X0.225000X-0.250000X0.225000X-0.250000X-0.225000X0*%
G04 #@! TD*
G04 #@! TA.AperFunction,SMDPad,CuDef*
%ADD21RoundRect,0.225000X0.225000X0.250000X-0.225000X0.250000X-0.225000X-0.250000X0.225000X-0.250000X0*%
G04 #@! TD*
G04 #@! TA.AperFunction,SMDPad,CuDef*
%ADD22RoundRect,0.225000X-0.225000X-0.250000X0.225000X-0.250000X0.225000X0.250000X-0.225000X0.250000X0*%
G04 #@! TD*
G04 #@! TA.AperFunction,ViaPad*
%ADD23C,0.800000*%
G04 #@! TD*
G04 #@! TA.AperFunction,Conductor*
%ADD24C,0.250000*%
G04 #@! TD*
G04 APERTURE END LIST*
D10*
X96000000Y-68000000D03*
D11*
X105143000Y-70485000D03*
D12*
X113143000Y-70485000D03*
D11*
X159705000Y-59055000D03*
D12*
X167705000Y-59055000D03*
D11*
X159880000Y-81935000D03*
D12*
X167880000Y-81935000D03*
D13*
X86995000Y-103355000D03*
X86995000Y-111275000D03*
D14*
X146962000Y-55626000D03*
X139042000Y-55626000D03*
D11*
X160020000Y-105435000D03*
D12*
X168020000Y-105435000D03*
D13*
X86995000Y-56619000D03*
X86995000Y-64539000D03*
D11*
X160020000Y-100465000D03*
D12*
X168020000Y-100465000D03*
D10*
X167000000Y-68000000D03*
D13*
X177038000Y-79860000D03*
X177038000Y-87780000D03*
D14*
X116182000Y-55753000D03*
X124102000Y-55753000D03*
D11*
X105143000Y-65540000D03*
D12*
X113143000Y-65540000D03*
D11*
X157239000Y-70231000D03*
D12*
X149239000Y-70231000D03*
D11*
X159880000Y-76990000D03*
D12*
X167880000Y-76990000D03*
D13*
X177038000Y-103101000D03*
X177038000Y-111021000D03*
D11*
X104045000Y-82000000D03*
D12*
X96045000Y-82000000D03*
D10*
X146050000Y-82423000D03*
D11*
X104045000Y-77055000D03*
D12*
X96045000Y-77055000D03*
D10*
X115062000Y-82550000D03*
D15*
X118029200Y-89910800D03*
X118029200Y-97510800D03*
D16*
X118029200Y-105110800D03*
X146029200Y-105110800D03*
D15*
X146029200Y-101310800D03*
X146029200Y-97510800D03*
X146029200Y-93710800D03*
D16*
X146029200Y-89910800D03*
D15*
X138329200Y-106510800D03*
X142129200Y-106510800D03*
X118029200Y-93710800D03*
D17*
X151258200Y-100141800D03*
X151258200Y-102681800D03*
X151258200Y-105221800D03*
D10*
X130048000Y-114046000D03*
X167000000Y-115000000D03*
D13*
X177038000Y-56619000D03*
X177038000Y-64539000D03*
D11*
X103645000Y-54745000D03*
D12*
X95645000Y-54745000D03*
D13*
X86995000Y-79352000D03*
X86995000Y-87272000D03*
D11*
X159645000Y-54110000D03*
D12*
X167645000Y-54110000D03*
D11*
X157239000Y-64786000D03*
D12*
X149239000Y-64786000D03*
D10*
X96000000Y-115000000D03*
D18*
X130000000Y-81280000D03*
D19*
X132500000Y-81280000D03*
D11*
X103645000Y-59690000D03*
D12*
X95645000Y-59690000D03*
D11*
X104140000Y-100465000D03*
D12*
X96140000Y-100465000D03*
D11*
X104140000Y-105410000D03*
D12*
X96140000Y-105410000D03*
D20*
X146020000Y-88028600D03*
X146020000Y-86478600D03*
D21*
X117310200Y-87807800D03*
X115760200Y-87807800D03*
D22*
X119951200Y-90093800D03*
X121501200Y-90093800D03*
D21*
X144255000Y-89895200D03*
X142705000Y-89895200D03*
D22*
X119951200Y-88315800D03*
X121501200Y-88315800D03*
D23*
X134112000Y-106426000D03*
X141732000Y-108966000D03*
X138684000Y-111506000D03*
X132588000Y-106426000D03*
X121158000Y-107950000D03*
X138684000Y-113030000D03*
X119634000Y-107950000D03*
X134112000Y-103378000D03*
X127000000Y-104902000D03*
X121158000Y-112014000D03*
X122682000Y-109220000D03*
X127000000Y-103378000D03*
X121158000Y-113538000D03*
X141732000Y-114554000D03*
X140208000Y-113030000D03*
X140208000Y-111506000D03*
X119634000Y-109220000D03*
X128270000Y-104902000D03*
X141732000Y-113030000D03*
X121158000Y-109220000D03*
X122682000Y-107950000D03*
X132588000Y-103378000D03*
X140208000Y-110236000D03*
X119634000Y-112014000D03*
X141732000Y-111506000D03*
X141732000Y-110236000D03*
X129540000Y-106426000D03*
X122682000Y-110490000D03*
X134112000Y-104902000D03*
X140208000Y-114554000D03*
X131064000Y-106426000D03*
X132588000Y-104902000D03*
X131064000Y-103378000D03*
X119634000Y-113538000D03*
X128270000Y-103378000D03*
X138684000Y-108966000D03*
X140208000Y-108966000D03*
X122682000Y-112014000D03*
X128270000Y-106426000D03*
X119634000Y-110490000D03*
X138684000Y-114554000D03*
X127000000Y-106426000D03*
X129540000Y-104902000D03*
X138684000Y-110236000D03*
X121158000Y-110490000D03*
X122682000Y-113538000D03*
X129540000Y-103378000D03*
X131064000Y-104902000D03*
D24*
X146020000Y-89946000D02*
X145999200Y-89966800D01*
X144255000Y-89895200D02*
X144255000Y-89933000D01*
X144221200Y-89966800D02*
X145999200Y-89966800D01*
X146020000Y-88028600D02*
X146020000Y-89946000D01*
X144255000Y-89933000D02*
X144221200Y-89966800D01*
G04 #@! TA.AperFunction,Conductor*
G36*
X181199057Y-51309500D02*
G01*
X181213858Y-51311805D01*
X181213861Y-51311805D01*
X181222730Y-51313186D01*
X181231632Y-51312022D01*
X181231636Y-51312022D01*
X181231732Y-51312009D01*
X181262170Y-51311738D01*
X181356196Y-51322332D01*
X181383704Y-51328611D01*
X181491116Y-51366196D01*
X181516537Y-51378438D01*
X181612897Y-51438985D01*
X181634956Y-51456577D01*
X181715423Y-51537044D01*
X181733015Y-51559103D01*
X181771299Y-51620031D01*
X181793562Y-51655463D01*
X181805804Y-51680884D01*
X181843389Y-51788296D01*
X181849668Y-51815803D01*
X181859522Y-51903254D01*
X181860305Y-51918900D01*
X181860196Y-51927856D01*
X181858814Y-51936730D01*
X181862936Y-51968251D01*
X181864000Y-51984589D01*
X181864000Y-125553672D01*
X181862500Y-125573056D01*
X181858814Y-125596730D01*
X181859978Y-125605632D01*
X181859978Y-125605636D01*
X181859991Y-125605732D01*
X181860262Y-125636170D01*
X181849668Y-125730196D01*
X181843389Y-125757704D01*
X181805804Y-125865116D01*
X181793562Y-125890537D01*
X181733015Y-125986897D01*
X181715423Y-126008956D01*
X181634956Y-126089423D01*
X181612897Y-126107015D01*
X181516537Y-126167562D01*
X181491116Y-126179804D01*
X181383704Y-126217389D01*
X181356197Y-126223668D01*
X181320897Y-126227646D01*
X181268742Y-126233522D01*
X181253100Y-126234305D01*
X181244144Y-126234196D01*
X181235270Y-126232814D01*
X181203749Y-126236936D01*
X181187411Y-126238000D01*
X82472328Y-126238000D01*
X82452943Y-126236500D01*
X82438142Y-126234195D01*
X82438139Y-126234195D01*
X82429270Y-126232814D01*
X82420368Y-126233978D01*
X82420364Y-126233978D01*
X82420268Y-126233991D01*
X82389830Y-126234262D01*
X82295804Y-126223668D01*
X82268296Y-126217389D01*
X82160884Y-126179804D01*
X82135463Y-126167562D01*
X82039103Y-126107015D01*
X82017044Y-126089423D01*
X81936577Y-126008956D01*
X81918985Y-125986897D01*
X81858438Y-125890537D01*
X81846196Y-125865116D01*
X81808611Y-125757704D01*
X81802332Y-125730197D01*
X81792667Y-125644420D01*
X81792385Y-125619614D01*
X81793071Y-125615539D01*
X81793224Y-125603000D01*
X81789273Y-125575412D01*
X81788000Y-125557549D01*
X81788000Y-105308935D01*
X92978658Y-105308935D01*
X92978745Y-105312936D01*
X92978745Y-105312943D01*
X92985273Y-105612134D01*
X92985361Y-105616150D01*
X93031047Y-105920024D01*
X93032142Y-105923882D01*
X93032143Y-105923885D01*
X93085470Y-106111712D01*
X93114973Y-106215629D01*
X93235781Y-106498174D01*
X93391510Y-106763079D01*
X93579638Y-107006049D01*
X93797113Y-107223145D01*
X93800294Y-107225599D01*
X93800295Y-107225600D01*
X93996862Y-107377250D01*
X94040411Y-107410848D01*
X94073894Y-107430453D01*
X94266952Y-107543493D01*
X94305587Y-107566115D01*
X94309272Y-107567683D01*
X94309276Y-107567685D01*
X94368030Y-107592685D01*
X94588343Y-107686429D01*
X94884094Y-107769840D01*
X95105560Y-107802741D01*
X95184748Y-107814505D01*
X95184750Y-107814505D01*
X95188047Y-107814995D01*
X95191378Y-107815135D01*
X95191382Y-107815135D01*
X95228335Y-107816683D01*
X95271677Y-107818500D01*
X96967740Y-107818500D01*
X97091644Y-107810596D01*
X97192657Y-107804153D01*
X97192662Y-107804152D01*
X97196665Y-107803897D01*
X97200602Y-107803135D01*
X97200604Y-107803135D01*
X97282825Y-107787227D01*
X97498359Y-107745526D01*
X97502174Y-107744268D01*
X97502178Y-107744267D01*
X97786368Y-107650556D01*
X97786373Y-107650554D01*
X97790191Y-107649295D01*
X98067429Y-107516762D01*
X98070794Y-107514589D01*
X98070798Y-107514587D01*
X98322214Y-107352250D01*
X98322220Y-107352245D01*
X98325580Y-107350076D01*
X98560459Y-107151939D01*
X98671400Y-107031080D01*
X98765543Y-106928521D01*
X98765545Y-106928519D01*
X98768258Y-106925563D01*
X98945608Y-106674619D01*
X99089634Y-106403173D01*
X99136067Y-106279967D01*
X99196585Y-106119388D01*
X99196587Y-106119382D01*
X99198002Y-106115627D01*
X99238488Y-105945024D01*
X99268026Y-105820558D01*
X99268027Y-105820553D01*
X99268955Y-105816642D01*
X99301342Y-105511065D01*
X99300603Y-105477158D01*
X99296932Y-105308935D01*
X100878658Y-105308935D01*
X100878745Y-105312936D01*
X100878745Y-105312943D01*
X100885273Y-105612134D01*
X100885361Y-105616150D01*
X100931047Y-105920024D01*
X100932142Y-105923882D01*
X100932143Y-105923885D01*
X100985470Y-106111712D01*
X101014973Y-106215629D01*
X101135781Y-106498174D01*
X101291510Y-106763079D01*
X101479638Y-107006049D01*
X101697113Y-107223145D01*
X101700294Y-107225599D01*
X101700295Y-107225600D01*
X101896862Y-107377250D01*
X101940411Y-107410848D01*
X101973894Y-107430453D01*
X102166952Y-107543493D01*
X102205587Y-107566115D01*
X102209272Y-107567683D01*
X102209276Y-107567685D01*
X102268030Y-107592685D01*
X102488343Y-107686429D01*
X102784094Y-107769840D01*
X103005560Y-107802741D01*
X103084748Y-107814505D01*
X103084750Y-107814505D01*
X103088047Y-107814995D01*
X103091378Y-107815135D01*
X103091382Y-107815135D01*
X103128335Y-107816683D01*
X103171677Y-107818500D01*
X105067740Y-107818500D01*
X105191644Y-107810596D01*
X105292657Y-107804153D01*
X105292662Y-107804152D01*
X105296665Y-107803897D01*
X105300602Y-107803135D01*
X105300604Y-107803135D01*
X105382825Y-107787227D01*
X105598359Y-107745526D01*
X105602174Y-107744268D01*
X105602178Y-107744267D01*
X105886368Y-107650556D01*
X105886373Y-107650554D01*
X105890191Y-107649295D01*
X106167429Y-107516762D01*
X106170794Y-107514589D01*
X106170798Y-107514587D01*
X106422214Y-107352250D01*
X106422220Y-107352245D01*
X106425580Y-107350076D01*
X106660459Y-107151939D01*
X106771400Y-107031080D01*
X106865543Y-106928521D01*
X106865545Y-106928519D01*
X106868258Y-106925563D01*
X107045608Y-106674619D01*
X107150850Y-106476269D01*
X136916295Y-106476269D01*
X136916592Y-106481422D01*
X136916592Y-106481425D01*
X136922267Y-106579841D01*
X136929627Y-106707497D01*
X136930764Y-106712543D01*
X136930765Y-106712549D01*
X136962941Y-106855323D01*
X136980546Y-106933442D01*
X136982488Y-106938224D01*
X136982489Y-106938228D01*
X137065740Y-107143250D01*
X137067684Y-107148037D01*
X137188701Y-107345519D01*
X137340347Y-107520584D01*
X137518549Y-107668530D01*
X137718522Y-107785384D01*
X137723347Y-107787226D01*
X137723348Y-107787227D01*
X137744832Y-107795431D01*
X137934894Y-107868009D01*
X137939960Y-107869040D01*
X137939961Y-107869040D01*
X137993046Y-107879840D01*
X138161856Y-107914185D01*
X138292524Y-107918976D01*
X138388149Y-107922483D01*
X138388153Y-107922483D01*
X138393313Y-107922672D01*
X138398433Y-107922016D01*
X138398435Y-107922016D01*
X138471470Y-107912660D01*
X138623047Y-107893242D01*
X138627995Y-107891757D01*
X138628002Y-107891756D01*
X138839947Y-107828169D01*
X138844890Y-107826686D01*
X138868469Y-107815135D01*
X139048249Y-107727062D01*
X139048252Y-107727060D01*
X139052884Y-107724791D01*
X139241443Y-107590294D01*
X139405503Y-107426805D01*
X139540658Y-107238717D01*
X139571191Y-107176939D01*
X139640984Y-107035722D01*
X139640985Y-107035720D01*
X139643278Y-107031080D01*
X139710608Y-106809471D01*
X139740840Y-106579841D01*
X139742527Y-106510800D01*
X139739688Y-106476269D01*
X140716295Y-106476269D01*
X140716592Y-106481422D01*
X140716592Y-106481425D01*
X140722267Y-106579841D01*
X140729627Y-106707497D01*
X140730764Y-106712543D01*
X140730765Y-106712549D01*
X140762941Y-106855323D01*
X140780546Y-106933442D01*
X140782488Y-106938224D01*
X140782489Y-106938228D01*
X140865740Y-107143250D01*
X140867684Y-107148037D01*
X140988701Y-107345519D01*
X141140347Y-107520584D01*
X141318549Y-107668530D01*
X141518522Y-107785384D01*
X141523347Y-107787226D01*
X141523348Y-107787227D01*
X141544832Y-107795431D01*
X141734894Y-107868009D01*
X141739960Y-107869040D01*
X141739961Y-107869040D01*
X141793046Y-107879840D01*
X141961856Y-107914185D01*
X142092524Y-107918976D01*
X142188149Y-107922483D01*
X142188153Y-107922483D01*
X142193313Y-107922672D01*
X142198433Y-107922016D01*
X142198435Y-107922016D01*
X142271470Y-107912660D01*
X142423047Y-107893242D01*
X142427995Y-107891757D01*
X142428002Y-107891756D01*
X142639947Y-107828169D01*
X142644890Y-107826686D01*
X142668469Y-107815135D01*
X142848249Y-107727062D01*
X142848252Y-107727060D01*
X142852884Y-107724791D01*
X143041443Y-107590294D01*
X143205503Y-107426805D01*
X143340658Y-107238717D01*
X143371191Y-107176939D01*
X143440984Y-107035722D01*
X143440985Y-107035720D01*
X143443278Y-107031080D01*
X143510608Y-106809471D01*
X143540840Y-106579841D01*
X143542527Y-106510800D01*
X143533970Y-106406722D01*
X143523973Y-106285118D01*
X143523972Y-106285112D01*
X143523549Y-106279967D01*
X143487566Y-106136712D01*
X143468384Y-106060344D01*
X143468383Y-106060340D01*
X143467125Y-106055333D01*
X143465066Y-106050597D01*
X143376830Y-105847668D01*
X143376828Y-105847665D01*
X143374770Y-105842931D01*
X143248964Y-105648465D01*
X143215906Y-105612134D01*
X143143041Y-105532057D01*
X143093087Y-105477158D01*
X143089036Y-105473959D01*
X143089032Y-105473955D01*
X142915377Y-105336811D01*
X142915372Y-105336808D01*
X142911734Y-105333935D01*
X156758658Y-105333935D01*
X156758745Y-105337936D01*
X156758745Y-105337943D01*
X156765273Y-105637134D01*
X156765361Y-105641150D01*
X156811047Y-105945024D01*
X156812142Y-105948882D01*
X156812143Y-105948885D01*
X156842365Y-106055333D01*
X156894973Y-106240629D01*
X157015781Y-106523174D01*
X157171510Y-106788079D01*
X157173963Y-106791247D01*
X157173965Y-106791250D01*
X157191903Y-106814417D01*
X157359638Y-107031049D01*
X157362473Y-107033879D01*
X157567669Y-107238717D01*
X157577113Y-107248145D01*
X157580294Y-107250599D01*
X157580295Y-107250600D01*
X157808690Y-107426805D01*
X157820411Y-107435848D01*
X157823890Y-107437885D01*
X158045572Y-107567685D01*
X158085587Y-107591115D01*
X158089272Y-107592683D01*
X158089276Y-107592685D01*
X158090703Y-107593292D01*
X158368343Y-107711429D01*
X158664094Y-107794840D01*
X158863180Y-107824416D01*
X158964748Y-107839505D01*
X158964750Y-107839505D01*
X158968047Y-107839995D01*
X158971378Y-107840135D01*
X158971382Y-107840135D01*
X159008335Y-107841683D01*
X159051677Y-107843500D01*
X160947740Y-107843500D01*
X161071644Y-107835596D01*
X161172657Y-107829153D01*
X161172662Y-107829152D01*
X161176665Y-107828897D01*
X161180602Y-107828135D01*
X161180604Y-107828135D01*
X161251051Y-107814505D01*
X161478359Y-107770526D01*
X161482174Y-107769268D01*
X161482178Y-107769267D01*
X161766368Y-107675556D01*
X161766373Y-107675554D01*
X161770191Y-107674295D01*
X162047429Y-107541762D01*
X162050794Y-107539589D01*
X162050798Y-107539587D01*
X162302214Y-107377250D01*
X162302220Y-107377245D01*
X162305580Y-107375076D01*
X162540459Y-107176939D01*
X162671779Y-107033879D01*
X162745543Y-106953521D01*
X162745545Y-106953519D01*
X162748258Y-106950563D01*
X162925608Y-106699619D01*
X163069634Y-106428173D01*
X163080472Y-106399416D01*
X163176585Y-106144388D01*
X163176587Y-106144382D01*
X163178002Y-106140627D01*
X163248955Y-105841642D01*
X163281342Y-105536065D01*
X163280710Y-105507057D01*
X163276932Y-105333935D01*
X164858658Y-105333935D01*
X164858745Y-105337936D01*
X164858745Y-105337943D01*
X164865273Y-105637134D01*
X164865361Y-105641150D01*
X164911047Y-105945024D01*
X164912142Y-105948882D01*
X164912143Y-105948885D01*
X164942365Y-106055333D01*
X164994973Y-106240629D01*
X165115781Y-106523174D01*
X165271510Y-106788079D01*
X165273963Y-106791247D01*
X165273965Y-106791250D01*
X165291903Y-106814417D01*
X165459638Y-107031049D01*
X165462473Y-107033879D01*
X165667669Y-107238717D01*
X165677113Y-107248145D01*
X165680294Y-107250599D01*
X165680295Y-107250600D01*
X165908690Y-107426805D01*
X165920411Y-107435848D01*
X165923890Y-107437885D01*
X166145572Y-107567685D01*
X166185587Y-107591115D01*
X166189272Y-107592683D01*
X166189276Y-107592685D01*
X166190703Y-107593292D01*
X166468343Y-107711429D01*
X166764094Y-107794840D01*
X166963180Y-107824416D01*
X167064748Y-107839505D01*
X167064750Y-107839505D01*
X167068047Y-107839995D01*
X167071378Y-107840135D01*
X167071382Y-107840135D01*
X167108335Y-107841683D01*
X167151677Y-107843500D01*
X168847740Y-107843500D01*
X168971644Y-107835596D01*
X169072657Y-107829153D01*
X169072662Y-107829152D01*
X169076665Y-107828897D01*
X169080602Y-107828135D01*
X169080604Y-107828135D01*
X169151051Y-107814505D01*
X169378359Y-107770526D01*
X169382174Y-107769268D01*
X169382178Y-107769267D01*
X169666368Y-107675556D01*
X169666373Y-107675554D01*
X169670191Y-107674295D01*
X169947429Y-107541762D01*
X169950794Y-107539589D01*
X169950798Y-107539587D01*
X170202214Y-107377250D01*
X170202220Y-107377245D01*
X170205580Y-107375076D01*
X170440459Y-107176939D01*
X170571779Y-107033879D01*
X170645543Y-106953521D01*
X170645545Y-106953519D01*
X170648258Y-106950563D01*
X170825608Y-106699619D01*
X170969634Y-106428173D01*
X170980472Y-106399416D01*
X171076585Y-106144388D01*
X171076587Y-106144382D01*
X171078002Y-106140627D01*
X171148955Y-105841642D01*
X171181342Y-105536065D01*
X171180710Y-105507057D01*
X171174727Y-105232866D01*
X171174726Y-105232860D01*
X171174639Y-105228850D01*
X171128953Y-104924976D01*
X171110315Y-104859327D01*
X171046121Y-104633224D01*
X171046121Y-104633223D01*
X171045027Y-104629371D01*
X170924219Y-104346826D01*
X170768490Y-104081921D01*
X170580362Y-103838951D01*
X170362887Y-103621855D01*
X170359705Y-103619400D01*
X170122782Y-103436615D01*
X170122778Y-103436612D01*
X170119589Y-103434152D01*
X169938702Y-103328238D01*
X169857877Y-103280913D01*
X169857874Y-103280911D01*
X169854413Y-103278885D01*
X169850728Y-103277317D01*
X169850724Y-103277315D01*
X169713035Y-103218728D01*
X169689362Y-103208655D01*
X173027858Y-103208655D01*
X173063104Y-103467638D01*
X173064412Y-103472124D01*
X173064412Y-103472126D01*
X173084098Y-103539664D01*
X173136243Y-103718567D01*
X173245668Y-103955928D01*
X173248231Y-103959837D01*
X173386410Y-104170596D01*
X173386414Y-104170601D01*
X173388976Y-104174509D01*
X173420589Y-104209928D01*
X173546071Y-104350518D01*
X173563018Y-104369506D01*
X173763970Y-104536637D01*
X173767973Y-104539066D01*
X173983422Y-104669804D01*
X173983426Y-104669806D01*
X173987419Y-104672229D01*
X174228455Y-104773303D01*
X174481783Y-104837641D01*
X174486434Y-104838109D01*
X174486438Y-104838110D01*
X174679308Y-104857531D01*
X174698867Y-104859500D01*
X179354354Y-104859500D01*
X179356679Y-104859327D01*
X179356685Y-104859327D01*
X179544000Y-104845407D01*
X179544004Y-104845406D01*
X179548652Y-104845061D01*
X179553200Y-104844032D01*
X179553206Y-104844031D01*
X179778435Y-104793066D01*
X179803577Y-104787377D01*
X179839769Y-104773303D01*
X180042824Y-104694340D01*
X180042827Y-104694339D01*
X180047177Y-104692647D01*
X180274098Y-104562951D01*
X180479357Y-104401138D01*
X180658443Y-104210763D01*
X180807424Y-103996009D01*
X180809492Y-103991816D01*
X180920960Y-103765781D01*
X180920961Y-103765778D01*
X180923025Y-103761593D01*
X180952018Y-103671020D01*
X181001280Y-103517123D01*
X181002707Y-103512665D01*
X181044721Y-103254693D01*
X181047844Y-103016103D01*
X181048081Y-102998022D01*
X181048081Y-102998019D01*
X181048142Y-102993345D01*
X181012896Y-102734362D01*
X181009298Y-102722016D01*
X180980345Y-102622685D01*
X180939757Y-102483433D01*
X180830332Y-102246072D01*
X180797519Y-102196024D01*
X180689590Y-102031404D01*
X180689586Y-102031399D01*
X180687024Y-102027491D01*
X180512982Y-101832494D01*
X180312030Y-101665363D01*
X180233797Y-101617890D01*
X180092578Y-101532196D01*
X180092574Y-101532194D01*
X180088581Y-101529771D01*
X179847545Y-101428697D01*
X179594217Y-101364359D01*
X179589566Y-101363891D01*
X179589562Y-101363890D01*
X179380271Y-101342816D01*
X179377133Y-101342500D01*
X174721646Y-101342500D01*
X174719321Y-101342673D01*
X174719315Y-101342673D01*
X174532000Y-101356593D01*
X174531996Y-101356594D01*
X174527348Y-101356939D01*
X174522800Y-101357968D01*
X174522794Y-101357969D01*
X174336399Y-101400147D01*
X174272423Y-101414623D01*
X174268071Y-101416315D01*
X174268069Y-101416316D01*
X174033176Y-101507660D01*
X174033173Y-101507661D01*
X174028823Y-101509353D01*
X173801902Y-101639049D01*
X173596643Y-101800862D01*
X173417557Y-101991237D01*
X173268576Y-102205991D01*
X173266510Y-102210181D01*
X173266508Y-102210184D01*
X173171674Y-102402490D01*
X173152975Y-102440407D01*
X173073293Y-102689335D01*
X173031279Y-102947307D01*
X173030051Y-103041103D01*
X173028015Y-103196692D01*
X173027858Y-103208655D01*
X169689362Y-103208655D01*
X169571657Y-103158571D01*
X169275906Y-103075160D01*
X169260044Y-103072804D01*
X169195604Y-103043011D01*
X169157500Y-102983106D01*
X169157831Y-102912110D01*
X169196492Y-102852564D01*
X169254625Y-102824466D01*
X169374416Y-102801289D01*
X169374418Y-102801289D01*
X169378359Y-102800526D01*
X169382174Y-102799268D01*
X169382178Y-102799267D01*
X169666368Y-102705556D01*
X169666373Y-102705554D01*
X169670191Y-102704295D01*
X169947429Y-102571762D01*
X169950794Y-102569589D01*
X169950798Y-102569587D01*
X170202214Y-102407250D01*
X170202220Y-102407245D01*
X170205580Y-102405076D01*
X170440459Y-102206939D01*
X170605181Y-102027491D01*
X170645543Y-101983521D01*
X170645545Y-101983519D01*
X170648258Y-101980563D01*
X170825608Y-101729619D01*
X170969634Y-101458173D01*
X171007786Y-101356939D01*
X171076585Y-101174388D01*
X171076587Y-101174382D01*
X171078002Y-101170627D01*
X171133118Y-100938376D01*
X171148026Y-100875558D01*
X171148027Y-100875553D01*
X171148955Y-100871642D01*
X171181342Y-100566065D01*
X171178777Y-100448465D01*
X171174727Y-100262866D01*
X171174726Y-100262860D01*
X171174639Y-100258850D01*
X171128953Y-99954976D01*
X171063755Y-99725333D01*
X171046121Y-99663224D01*
X171046121Y-99663223D01*
X171045027Y-99659371D01*
X170924219Y-99376826D01*
X170768490Y-99111921D01*
X170737194Y-99071501D01*
X170668651Y-98982978D01*
X170580362Y-98868951D01*
X170362887Y-98651855D01*
X170359705Y-98649400D01*
X170122782Y-98466615D01*
X170122778Y-98466612D01*
X170119589Y-98464152D01*
X169938702Y-98358238D01*
X169857877Y-98310913D01*
X169857874Y-98310911D01*
X169854413Y-98308885D01*
X169850728Y-98307317D01*
X169850724Y-98307315D01*
X169655964Y-98224444D01*
X169571657Y-98188571D01*
X169275906Y-98105160D01*
X169044934Y-98070847D01*
X168975252Y-98060495D01*
X168975250Y-98060495D01*
X168971953Y-98060005D01*
X168968622Y-98059865D01*
X168968618Y-98059865D01*
X168931665Y-98058317D01*
X168888323Y-98056500D01*
X167192260Y-98056500D01*
X167068356Y-98064404D01*
X166967343Y-98070847D01*
X166967338Y-98070848D01*
X166963335Y-98071103D01*
X166959398Y-98071865D01*
X166959396Y-98071865D01*
X166903805Y-98082621D01*
X166661641Y-98129474D01*
X166657826Y-98130732D01*
X166657822Y-98130733D01*
X166373632Y-98224444D01*
X166373627Y-98224446D01*
X166369809Y-98225705D01*
X166092571Y-98358238D01*
X166089206Y-98360411D01*
X166089202Y-98360413D01*
X165837786Y-98522750D01*
X165837780Y-98522755D01*
X165834420Y-98524924D01*
X165599541Y-98723061D01*
X165542332Y-98785384D01*
X165410717Y-98928766D01*
X165391742Y-98949437D01*
X165214392Y-99200381D01*
X165070366Y-99471827D01*
X165068951Y-99475583D01*
X165068950Y-99475584D01*
X164974827Y-99725333D01*
X164961998Y-99759373D01*
X164961069Y-99763288D01*
X164899158Y-100024173D01*
X164891045Y-100058358D01*
X164858658Y-100363935D01*
X164858745Y-100367936D01*
X164858745Y-100367943D01*
X164865273Y-100667134D01*
X164865361Y-100671150D01*
X164865958Y-100675119D01*
X164904952Y-100934481D01*
X164911047Y-100975024D01*
X164912142Y-100978882D01*
X164912143Y-100978885D01*
X164993879Y-101266776D01*
X164994973Y-101270629D01*
X165115781Y-101553174D01*
X165271510Y-101818079D01*
X165273963Y-101821247D01*
X165273965Y-101821250D01*
X165327763Y-101890730D01*
X165459638Y-102061049D01*
X165677113Y-102278145D01*
X165680294Y-102280599D01*
X165680295Y-102280600D01*
X165887435Y-102440407D01*
X165920411Y-102465848D01*
X165923890Y-102467885D01*
X166127711Y-102587227D01*
X166185587Y-102621115D01*
X166189272Y-102622683D01*
X166189276Y-102622685D01*
X166291459Y-102666164D01*
X166468343Y-102741429D01*
X166764094Y-102824840D01*
X166779956Y-102827196D01*
X166844396Y-102856989D01*
X166882500Y-102916894D01*
X166882169Y-102987890D01*
X166843508Y-103047436D01*
X166785375Y-103075534D01*
X166665584Y-103098711D01*
X166665582Y-103098711D01*
X166661641Y-103099474D01*
X166657826Y-103100732D01*
X166657822Y-103100733D01*
X166373632Y-103194444D01*
X166373627Y-103194446D01*
X166369809Y-103195705D01*
X166092571Y-103328238D01*
X166089206Y-103330411D01*
X166089202Y-103330413D01*
X165837786Y-103492750D01*
X165837780Y-103492755D01*
X165834420Y-103494924D01*
X165599541Y-103693061D01*
X165540713Y-103757148D01*
X165411680Y-103897717D01*
X165391742Y-103919437D01*
X165214392Y-104170381D01*
X165070366Y-104441827D01*
X165068951Y-104445583D01*
X165068950Y-104445584D01*
X164971420Y-104704373D01*
X164961998Y-104729373D01*
X164961069Y-104733288D01*
X164915282Y-104926229D01*
X164891045Y-105028358D01*
X164858658Y-105333935D01*
X163276932Y-105333935D01*
X163274727Y-105232866D01*
X163274726Y-105232860D01*
X163274639Y-105228850D01*
X163228953Y-104924976D01*
X163210315Y-104859327D01*
X163146121Y-104633224D01*
X163146121Y-104633223D01*
X163145027Y-104629371D01*
X163024219Y-104346826D01*
X162868490Y-104081921D01*
X162680362Y-103838951D01*
X162462887Y-103621855D01*
X162459705Y-103619400D01*
X162222782Y-103436615D01*
X162222778Y-103436612D01*
X162219589Y-103434152D01*
X162038702Y-103328238D01*
X161957877Y-103280913D01*
X161957874Y-103280911D01*
X161954413Y-103278885D01*
X161950728Y-103277317D01*
X161950724Y-103277315D01*
X161813035Y-103218728D01*
X161671657Y-103158571D01*
X161375906Y-103075160D01*
X161360044Y-103072804D01*
X161295604Y-103043011D01*
X161257500Y-102983106D01*
X161257831Y-102912110D01*
X161296492Y-102852564D01*
X161354625Y-102824466D01*
X161474416Y-102801289D01*
X161474418Y-102801289D01*
X161478359Y-102800526D01*
X161482174Y-102799268D01*
X161482178Y-102799267D01*
X161766368Y-102705556D01*
X161766373Y-102705554D01*
X161770191Y-102704295D01*
X162047429Y-102571762D01*
X162050794Y-102569589D01*
X162050798Y-102569587D01*
X162302214Y-102407250D01*
X162302220Y-102407245D01*
X162305580Y-102405076D01*
X162540459Y-102206939D01*
X162705181Y-102027491D01*
X162745543Y-101983521D01*
X162745545Y-101983519D01*
X162748258Y-101980563D01*
X162925608Y-101729619D01*
X163069634Y-101458173D01*
X163107786Y-101356939D01*
X163176585Y-101174388D01*
X163176587Y-101174382D01*
X163178002Y-101170627D01*
X163233118Y-100938376D01*
X163248026Y-100875558D01*
X163248027Y-100875553D01*
X163248955Y-100871642D01*
X163281342Y-100566065D01*
X163278777Y-100448465D01*
X163274727Y-100262866D01*
X163274726Y-100262860D01*
X163274639Y-100258850D01*
X163228953Y-99954976D01*
X163163755Y-99725333D01*
X163146121Y-99663224D01*
X163146121Y-99663223D01*
X163145027Y-99659371D01*
X163024219Y-99376826D01*
X162868490Y-99111921D01*
X162837194Y-99071501D01*
X162768651Y-98982978D01*
X162680362Y-98868951D01*
X162462887Y-98651855D01*
X162459705Y-98649400D01*
X162222782Y-98466615D01*
X162222778Y-98466612D01*
X162219589Y-98464152D01*
X162038702Y-98358238D01*
X161957877Y-98310913D01*
X161957874Y-98310911D01*
X161954413Y-98308885D01*
X161950728Y-98307317D01*
X161950724Y-98307315D01*
X161755964Y-98224444D01*
X161671657Y-98188571D01*
X161375906Y-98105160D01*
X161144934Y-98070847D01*
X161075252Y-98060495D01*
X161075250Y-98060495D01*
X161071953Y-98060005D01*
X161068622Y-98059865D01*
X161068618Y-98059865D01*
X161031665Y-98058317D01*
X160988323Y-98056500D01*
X159092260Y-98056500D01*
X158968356Y-98064404D01*
X158867343Y-98070847D01*
X158867338Y-98070848D01*
X158863335Y-98071103D01*
X158859398Y-98071865D01*
X158859396Y-98071865D01*
X158803805Y-98082621D01*
X158561641Y-98129474D01*
X158557826Y-98130732D01*
X158557822Y-98130733D01*
X158273632Y-98224444D01*
X158273627Y-98224446D01*
X158269809Y-98225705D01*
X157992571Y-98358238D01*
X157989206Y-98360411D01*
X157989202Y-98360413D01*
X157737786Y-98522750D01*
X157737780Y-98522755D01*
X157734420Y-98524924D01*
X157499541Y-98723061D01*
X157442332Y-98785384D01*
X157310717Y-98928766D01*
X157291742Y-98949437D01*
X157114392Y-99200381D01*
X156970366Y-99471827D01*
X156968951Y-99475583D01*
X156968950Y-99475584D01*
X156874827Y-99725333D01*
X156861998Y-99759373D01*
X156861069Y-99763288D01*
X156799158Y-100024173D01*
X156791045Y-100058358D01*
X156758658Y-100363935D01*
X156758745Y-100367936D01*
X156758745Y-100367943D01*
X156765273Y-100667134D01*
X156765361Y-100671150D01*
X156765958Y-100675119D01*
X156804952Y-100934481D01*
X156811047Y-100975024D01*
X156812142Y-100978882D01*
X156812143Y-100978885D01*
X156893879Y-101266776D01*
X156894973Y-101270629D01*
X157015781Y-101553174D01*
X157171510Y-101818079D01*
X157173963Y-101821247D01*
X157173965Y-101821250D01*
X157227763Y-101890730D01*
X157359638Y-102061049D01*
X157577113Y-102278145D01*
X157580294Y-102280599D01*
X157580295Y-102280600D01*
X157787435Y-102440407D01*
X157820411Y-102465848D01*
X157823890Y-102467885D01*
X158027711Y-102587227D01*
X158085587Y-102621115D01*
X158089272Y-102622683D01*
X158089276Y-102622685D01*
X158191459Y-102666164D01*
X158368343Y-102741429D01*
X158664094Y-102824840D01*
X158679956Y-102827196D01*
X158744396Y-102856989D01*
X158782500Y-102916894D01*
X158782169Y-102987890D01*
X158743508Y-103047436D01*
X158685375Y-103075534D01*
X158565584Y-103098711D01*
X158565582Y-103098711D01*
X158561641Y-103099474D01*
X158557826Y-103100732D01*
X158557822Y-103100733D01*
X158273632Y-103194444D01*
X158273627Y-103194446D01*
X158269809Y-103195705D01*
X157992571Y-103328238D01*
X157989206Y-103330411D01*
X157989202Y-103330413D01*
X157737786Y-103492750D01*
X157737780Y-103492755D01*
X157734420Y-103494924D01*
X157499541Y-103693061D01*
X157440713Y-103757148D01*
X157311680Y-103897717D01*
X157291742Y-103919437D01*
X157114392Y-104170381D01*
X156970366Y-104441827D01*
X156968951Y-104445583D01*
X156968950Y-104445584D01*
X156871420Y-104704373D01*
X156861998Y-104729373D01*
X156861069Y-104733288D01*
X156815282Y-104926229D01*
X156791045Y-105028358D01*
X156758658Y-105333935D01*
X142911734Y-105333935D01*
X142911323Y-105333610D01*
X142906807Y-105331117D01*
X142906804Y-105331115D01*
X142713079Y-105224173D01*
X142713075Y-105224171D01*
X142708555Y-105221676D01*
X142703686Y-105219952D01*
X142703682Y-105219950D01*
X142495103Y-105146088D01*
X142495099Y-105146087D01*
X142490228Y-105144362D01*
X142485135Y-105143455D01*
X142485132Y-105143454D01*
X142267295Y-105104651D01*
X142267289Y-105104650D01*
X142262206Y-105103745D01*
X142189296Y-105102854D01*
X142035781Y-105100979D01*
X142035779Y-105100979D01*
X142030611Y-105100916D01*
X141801664Y-105135950D01*
X141581514Y-105207906D01*
X141576926Y-105210294D01*
X141576922Y-105210296D01*
X141395101Y-105304946D01*
X141376072Y-105314852D01*
X141371939Y-105317955D01*
X141371936Y-105317957D01*
X141194990Y-105450812D01*
X141190855Y-105453917D01*
X141187283Y-105457655D01*
X141035822Y-105616150D01*
X141030839Y-105621364D01*
X141027925Y-105625636D01*
X141027924Y-105625637D01*
X141014634Y-105645119D01*
X140900319Y-105812699D01*
X140802802Y-106022781D01*
X140740907Y-106245969D01*
X140716295Y-106476269D01*
X139739688Y-106476269D01*
X139733970Y-106406722D01*
X139723973Y-106285118D01*
X139723972Y-106285112D01*
X139723549Y-106279967D01*
X139687566Y-106136712D01*
X139668384Y-106060344D01*
X139668383Y-106060340D01*
X139667125Y-106055333D01*
X139665066Y-106050597D01*
X139576830Y-105847668D01*
X139576828Y-105847665D01*
X139574770Y-105842931D01*
X139448964Y-105648465D01*
X139415906Y-105612134D01*
X139343041Y-105532057D01*
X139293087Y-105477158D01*
X139289036Y-105473959D01*
X139289032Y-105473955D01*
X139115377Y-105336811D01*
X139115372Y-105336808D01*
X139111323Y-105333610D01*
X139106807Y-105331117D01*
X139106804Y-105331115D01*
X138913079Y-105224173D01*
X138913075Y-105224171D01*
X138908555Y-105221676D01*
X138903686Y-105219952D01*
X138903682Y-105219950D01*
X138695103Y-105146088D01*
X138695099Y-105146087D01*
X138690228Y-105144362D01*
X138685135Y-105143455D01*
X138685132Y-105143454D01*
X138467295Y-105104651D01*
X138467289Y-105104650D01*
X138462206Y-105103745D01*
X138389296Y-105102854D01*
X138235781Y-105100979D01*
X138235779Y-105100979D01*
X138230611Y-105100916D01*
X138001664Y-105135950D01*
X137781514Y-105207906D01*
X137776926Y-105210294D01*
X137776922Y-105210296D01*
X137595101Y-105304946D01*
X137576072Y-105314852D01*
X137571939Y-105317955D01*
X137571936Y-105317957D01*
X137394990Y-105450812D01*
X137390855Y-105453917D01*
X137387283Y-105457655D01*
X137235822Y-105616150D01*
X137230839Y-105621364D01*
X137227925Y-105625636D01*
X137227924Y-105625637D01*
X137214634Y-105645119D01*
X137100319Y-105812699D01*
X137002802Y-106022781D01*
X136940907Y-106245969D01*
X136916295Y-106476269D01*
X107150850Y-106476269D01*
X107189634Y-106403173D01*
X107236067Y-106279967D01*
X107296585Y-106119388D01*
X107296587Y-106119382D01*
X107298002Y-106115627D01*
X107338488Y-105945024D01*
X107368026Y-105820558D01*
X107368027Y-105820553D01*
X107368955Y-105816642D01*
X107401342Y-105511065D01*
X107400603Y-105477158D01*
X107394727Y-105207866D01*
X107394726Y-105207860D01*
X107394639Y-105203850D01*
X107352712Y-104924976D01*
X107349550Y-104903946D01*
X107349550Y-104903944D01*
X107348953Y-104899976D01*
X107337462Y-104859500D01*
X107266121Y-104608224D01*
X107266121Y-104608223D01*
X107265027Y-104604371D01*
X107144219Y-104321826D01*
X106988490Y-104056921D01*
X106800362Y-103813951D01*
X106582887Y-103596855D01*
X106579705Y-103594400D01*
X106342782Y-103411615D01*
X106342778Y-103411612D01*
X106339589Y-103409152D01*
X106205113Y-103330413D01*
X106077877Y-103255913D01*
X106077874Y-103255911D01*
X106074413Y-103253885D01*
X106070728Y-103252317D01*
X106070724Y-103252315D01*
X105854100Y-103160141D01*
X105791657Y-103133571D01*
X105588421Y-103076252D01*
X105523617Y-103057975D01*
X105463483Y-103020233D01*
X105433301Y-102955972D01*
X105442652Y-102885594D01*
X105488567Y-102831443D01*
X105533884Y-102813001D01*
X105598359Y-102800526D01*
X105602174Y-102799268D01*
X105602178Y-102799267D01*
X105886368Y-102705556D01*
X105886373Y-102705554D01*
X105890191Y-102704295D01*
X106167429Y-102571762D01*
X106170794Y-102569589D01*
X106170798Y-102569587D01*
X106422214Y-102407250D01*
X106422220Y-102407245D01*
X106425580Y-102405076D01*
X106660459Y-102206939D01*
X106825181Y-102027491D01*
X106865543Y-101983521D01*
X106865545Y-101983519D01*
X106868258Y-101980563D01*
X107045608Y-101729619D01*
X107189634Y-101458173D01*
X107227786Y-101356939D01*
X107258189Y-101276269D01*
X144616295Y-101276269D01*
X144616592Y-101281422D01*
X144616592Y-101281425D01*
X144625188Y-101430504D01*
X144629627Y-101507497D01*
X144630764Y-101512543D01*
X144630765Y-101512549D01*
X144654505Y-101617890D01*
X144680546Y-101733442D01*
X144682488Y-101738224D01*
X144682489Y-101738228D01*
X144765740Y-101943250D01*
X144767684Y-101948037D01*
X144888701Y-102145519D01*
X145040347Y-102320584D01*
X145218549Y-102468530D01*
X145418522Y-102585384D01*
X145634894Y-102668009D01*
X145639960Y-102669040D01*
X145639961Y-102669040D01*
X145693046Y-102679840D01*
X145861856Y-102714185D01*
X145992524Y-102718976D01*
X146088149Y-102722483D01*
X146088153Y-102722483D01*
X146093313Y-102722672D01*
X146098433Y-102722016D01*
X146098435Y-102722016D01*
X146226922Y-102705556D01*
X146323047Y-102693242D01*
X146327995Y-102691757D01*
X146328002Y-102691756D01*
X146539947Y-102628169D01*
X146544890Y-102626686D01*
X146625436Y-102587227D01*
X146748249Y-102527062D01*
X146748252Y-102527060D01*
X146752884Y-102524791D01*
X146941443Y-102390294D01*
X147105503Y-102226805D01*
X147240658Y-102038717D01*
X147244273Y-102031404D01*
X147340984Y-101835722D01*
X147340985Y-101835720D01*
X147343278Y-101831080D01*
X147410608Y-101609471D01*
X147440840Y-101379841D01*
X147440922Y-101376491D01*
X147442445Y-101314165D01*
X147442445Y-101314161D01*
X147442527Y-101310800D01*
X147430681Y-101166712D01*
X147423973Y-101085118D01*
X147423972Y-101085112D01*
X147423549Y-101079967D01*
X147371222Y-100871642D01*
X147368384Y-100860344D01*
X147368383Y-100860340D01*
X147367125Y-100855333D01*
X147365066Y-100850597D01*
X147276830Y-100647668D01*
X147276828Y-100647665D01*
X147274770Y-100642931D01*
X147148964Y-100448465D01*
X146993087Y-100277158D01*
X146989036Y-100273959D01*
X146989032Y-100273955D01*
X146821694Y-100141800D01*
X150025007Y-100141800D01*
X150043742Y-100355942D01*
X150045166Y-100361255D01*
X150045166Y-100361257D01*
X150069698Y-100452809D01*
X150099378Y-100563577D01*
X150101700Y-100568557D01*
X150101701Y-100568559D01*
X150147668Y-100667134D01*
X150190224Y-100758396D01*
X150313519Y-100934481D01*
X150465519Y-101086481D01*
X150641603Y-101209776D01*
X150646581Y-101212097D01*
X150646584Y-101212099D01*
X150831441Y-101298299D01*
X150836423Y-101300622D01*
X150841731Y-101302044D01*
X150841733Y-101302045D01*
X151038743Y-101354834D01*
X151038745Y-101354834D01*
X151044058Y-101356258D01*
X151258200Y-101374993D01*
X151472342Y-101356258D01*
X151477655Y-101354834D01*
X151477657Y-101354834D01*
X151674667Y-101302045D01*
X151674669Y-101302044D01*
X151679977Y-101300622D01*
X151684959Y-101298299D01*
X151869816Y-101212099D01*
X151869819Y-101212097D01*
X151874797Y-101209776D01*
X152050881Y-101086481D01*
X152202881Y-100934481D01*
X152326176Y-100758396D01*
X152368733Y-100667134D01*
X152414699Y-100568559D01*
X152414700Y-100568557D01*
X152417022Y-100563577D01*
X152446703Y-100452809D01*
X152471234Y-100361257D01*
X152471234Y-100361255D01*
X152472658Y-100355942D01*
X152491393Y-100141800D01*
X152472658Y-99927658D01*
X152466493Y-99904651D01*
X152418445Y-99725333D01*
X152418444Y-99725331D01*
X152417022Y-99720023D01*
X152390536Y-99663224D01*
X152328499Y-99530185D01*
X152328497Y-99530182D01*
X152326176Y-99525204D01*
X152202881Y-99349119D01*
X152050881Y-99197119D01*
X151874797Y-99073824D01*
X151869819Y-99071503D01*
X151869816Y-99071501D01*
X151684959Y-98985301D01*
X151684958Y-98985300D01*
X151679977Y-98982978D01*
X151674669Y-98981556D01*
X151674667Y-98981555D01*
X151477657Y-98928766D01*
X151477655Y-98928766D01*
X151472342Y-98927342D01*
X151258200Y-98908607D01*
X151044058Y-98927342D01*
X151038745Y-98928766D01*
X151038743Y-98928766D01*
X150841733Y-98981555D01*
X150841731Y-98981556D01*
X150836423Y-98982978D01*
X150831443Y-98985300D01*
X150831441Y-98985301D01*
X150646585Y-99071501D01*
X150646582Y-99071503D01*
X150641604Y-99073824D01*
X150465519Y-99197119D01*
X150313519Y-99349119D01*
X150190224Y-99525204D01*
X150187903Y-99530182D01*
X150187901Y-99530185D01*
X150125864Y-99663224D01*
X150099378Y-99720023D01*
X150097956Y-99725331D01*
X150097955Y-99725333D01*
X150049907Y-99904651D01*
X150043742Y-99927658D01*
X150025007Y-100141800D01*
X146821694Y-100141800D01*
X146815377Y-100136811D01*
X146815372Y-100136808D01*
X146811323Y-100133610D01*
X146806807Y-100131117D01*
X146806804Y-100131115D01*
X146613079Y-100024173D01*
X146613075Y-100024171D01*
X146608555Y-100021676D01*
X146603686Y-100019952D01*
X146603682Y-100019950D01*
X146395103Y-99946088D01*
X146395099Y-99946087D01*
X146390228Y-99944362D01*
X146385135Y-99943455D01*
X146385132Y-99943454D01*
X146167295Y-99904651D01*
X146167289Y-99904650D01*
X146162206Y-99903745D01*
X146089296Y-99902854D01*
X145935781Y-99900979D01*
X145935779Y-99900979D01*
X145930611Y-99900916D01*
X145701664Y-99935950D01*
X145481514Y-100007906D01*
X145476926Y-100010294D01*
X145476922Y-100010296D01*
X145280661Y-100112463D01*
X145276072Y-100114852D01*
X145271939Y-100117955D01*
X145271936Y-100117957D01*
X145094990Y-100250812D01*
X145090855Y-100253917D01*
X145087283Y-100257655D01*
X144988279Y-100361257D01*
X144930839Y-100421364D01*
X144927925Y-100425636D01*
X144927924Y-100425637D01*
X144912352Y-100448465D01*
X144800319Y-100612699D01*
X144702802Y-100822781D01*
X144640907Y-101045969D01*
X144616295Y-101276269D01*
X107258189Y-101276269D01*
X107296585Y-101174388D01*
X107296587Y-101174382D01*
X107298002Y-101170627D01*
X107353118Y-100938376D01*
X107368026Y-100875558D01*
X107368027Y-100875553D01*
X107368955Y-100871642D01*
X107401342Y-100566065D01*
X107398777Y-100448465D01*
X107394727Y-100262866D01*
X107394726Y-100262860D01*
X107394639Y-100258850D01*
X107348953Y-99954976D01*
X107283755Y-99725333D01*
X107266121Y-99663224D01*
X107266121Y-99663223D01*
X107265027Y-99659371D01*
X107144219Y-99376826D01*
X106988490Y-99111921D01*
X106957194Y-99071501D01*
X106888651Y-98982978D01*
X106800362Y-98868951D01*
X106582887Y-98651855D01*
X106579705Y-98649400D01*
X106342782Y-98466615D01*
X106342778Y-98466612D01*
X106339589Y-98464152D01*
X106158702Y-98358238D01*
X106077877Y-98310913D01*
X106077874Y-98310911D01*
X106074413Y-98308885D01*
X106070728Y-98307317D01*
X106070724Y-98307315D01*
X105875964Y-98224444D01*
X105791657Y-98188571D01*
X105495906Y-98105160D01*
X105264934Y-98070847D01*
X105195252Y-98060495D01*
X105195250Y-98060495D01*
X105191953Y-98060005D01*
X105188622Y-98059865D01*
X105188618Y-98059865D01*
X105151665Y-98058317D01*
X105108323Y-98056500D01*
X103212260Y-98056500D01*
X103088356Y-98064404D01*
X102987343Y-98070847D01*
X102987338Y-98070848D01*
X102983335Y-98071103D01*
X102979398Y-98071865D01*
X102979396Y-98071865D01*
X102923805Y-98082621D01*
X102681641Y-98129474D01*
X102677826Y-98130732D01*
X102677822Y-98130733D01*
X102393632Y-98224444D01*
X102393627Y-98224446D01*
X102389809Y-98225705D01*
X102112571Y-98358238D01*
X102109206Y-98360411D01*
X102109202Y-98360413D01*
X101857786Y-98522750D01*
X101857780Y-98522755D01*
X101854420Y-98524924D01*
X101619541Y-98723061D01*
X101562332Y-98785384D01*
X101430717Y-98928766D01*
X101411742Y-98949437D01*
X101234392Y-99200381D01*
X101090366Y-99471827D01*
X101088951Y-99475583D01*
X101088950Y-99475584D01*
X100994827Y-99725333D01*
X100981998Y-99759373D01*
X100981069Y-99763288D01*
X100919158Y-100024173D01*
X100911045Y-100058358D01*
X100878658Y-100363935D01*
X100878745Y-100367936D01*
X100878745Y-100367943D01*
X100885273Y-100667134D01*
X100885361Y-100671150D01*
X100885958Y-100675119D01*
X100924952Y-100934481D01*
X100931047Y-100975024D01*
X100932142Y-100978882D01*
X100932143Y-100978885D01*
X101013879Y-101266776D01*
X101014973Y-101270629D01*
X101135781Y-101553174D01*
X101291510Y-101818079D01*
X101293963Y-101821247D01*
X101293965Y-101821250D01*
X101347763Y-101890730D01*
X101479638Y-102061049D01*
X101697113Y-102278145D01*
X101700294Y-102280599D01*
X101700295Y-102280600D01*
X101907435Y-102440407D01*
X101940411Y-102465848D01*
X101943890Y-102467885D01*
X102147711Y-102587227D01*
X102205587Y-102621115D01*
X102209272Y-102622683D01*
X102209276Y-102622685D01*
X102311459Y-102666164D01*
X102488343Y-102741429D01*
X102586913Y-102769229D01*
X102756383Y-102817025D01*
X102816517Y-102854767D01*
X102846699Y-102919028D01*
X102837348Y-102989406D01*
X102791433Y-103043557D01*
X102746116Y-103061999D01*
X102681641Y-103074474D01*
X102677826Y-103075732D01*
X102677822Y-103075733D01*
X102393632Y-103169444D01*
X102393627Y-103169446D01*
X102389809Y-103170705D01*
X102112571Y-103303238D01*
X102109206Y-103305411D01*
X102109202Y-103305413D01*
X101857786Y-103467750D01*
X101857780Y-103467755D01*
X101854420Y-103469924D01*
X101619541Y-103668061D01*
X101411742Y-103894437D01*
X101234392Y-104145381D01*
X101090366Y-104416827D01*
X101088951Y-104420583D01*
X101088950Y-104420584D01*
X100987291Y-104690329D01*
X100981998Y-104704373D01*
X100981069Y-104708288D01*
X100929349Y-104926229D01*
X100911045Y-105003358D01*
X100878658Y-105308935D01*
X99296932Y-105308935D01*
X99294727Y-105207866D01*
X99294726Y-105207860D01*
X99294639Y-105203850D01*
X99252712Y-104924976D01*
X99249550Y-104903946D01*
X99249550Y-104903944D01*
X99248953Y-104899976D01*
X99237462Y-104859500D01*
X99166121Y-104608224D01*
X99166121Y-104608223D01*
X99165027Y-104604371D01*
X99044219Y-104321826D01*
X98888490Y-104056921D01*
X98700362Y-103813951D01*
X98482887Y-103596855D01*
X98479705Y-103594400D01*
X98242782Y-103411615D01*
X98242778Y-103411612D01*
X98239589Y-103409152D01*
X98105113Y-103330413D01*
X97977877Y-103255913D01*
X97977874Y-103255911D01*
X97974413Y-103253885D01*
X97970728Y-103252317D01*
X97970724Y-103252315D01*
X97754100Y-103160141D01*
X97691657Y-103133571D01*
X97488421Y-103076252D01*
X97423617Y-103057975D01*
X97363483Y-103020233D01*
X97333301Y-102955972D01*
X97342652Y-102885594D01*
X97388567Y-102831443D01*
X97433884Y-102813001D01*
X97498359Y-102800526D01*
X97502174Y-102799268D01*
X97502178Y-102799267D01*
X97786368Y-102705556D01*
X97786373Y-102705554D01*
X97790191Y-102704295D01*
X98067429Y-102571762D01*
X98070794Y-102569589D01*
X98070798Y-102569587D01*
X98322214Y-102407250D01*
X98322220Y-102407245D01*
X98325580Y-102405076D01*
X98560459Y-102206939D01*
X98725181Y-102027491D01*
X98765543Y-101983521D01*
X98765545Y-101983519D01*
X98768258Y-101980563D01*
X98945608Y-101729619D01*
X99089634Y-101458173D01*
X99127786Y-101356939D01*
X99196585Y-101174388D01*
X99196587Y-101174382D01*
X99198002Y-101170627D01*
X99253118Y-100938376D01*
X99268026Y-100875558D01*
X99268027Y-100875553D01*
X99268955Y-100871642D01*
X99301342Y-100566065D01*
X99298777Y-100448465D01*
X99294727Y-100262866D01*
X99294726Y-100262860D01*
X99294639Y-100258850D01*
X99248953Y-99954976D01*
X99183755Y-99725333D01*
X99166121Y-99663224D01*
X99166121Y-99663223D01*
X99165027Y-99659371D01*
X99044219Y-99376826D01*
X98888490Y-99111921D01*
X98857194Y-99071501D01*
X98788651Y-98982978D01*
X98700362Y-98868951D01*
X98482887Y-98651855D01*
X98479705Y-98649400D01*
X98242782Y-98466615D01*
X98242778Y-98466612D01*
X98239589Y-98464152D01*
X98058702Y-98358238D01*
X97977877Y-98310913D01*
X97977874Y-98310911D01*
X97974413Y-98308885D01*
X97970728Y-98307317D01*
X97970724Y-98307315D01*
X97775964Y-98224444D01*
X97691657Y-98188571D01*
X97395906Y-98105160D01*
X97164934Y-98070847D01*
X97095252Y-98060495D01*
X97095250Y-98060495D01*
X97091953Y-98060005D01*
X97088622Y-98059865D01*
X97088618Y-98059865D01*
X97051665Y-98058317D01*
X97008323Y-98056500D01*
X95312260Y-98056500D01*
X95188356Y-98064404D01*
X95087343Y-98070847D01*
X95087338Y-98070848D01*
X95083335Y-98071103D01*
X95079398Y-98071865D01*
X95079396Y-98071865D01*
X95023805Y-98082621D01*
X94781641Y-98129474D01*
X94777826Y-98130732D01*
X94777822Y-98130733D01*
X94493632Y-98224444D01*
X94493627Y-98224446D01*
X94489809Y-98225705D01*
X94212571Y-98358238D01*
X94209206Y-98360411D01*
X94209202Y-98360413D01*
X93957786Y-98522750D01*
X93957780Y-98522755D01*
X93954420Y-98524924D01*
X93719541Y-98723061D01*
X93662332Y-98785384D01*
X93530717Y-98928766D01*
X93511742Y-98949437D01*
X93334392Y-99200381D01*
X93190366Y-99471827D01*
X93188951Y-99475583D01*
X93188950Y-99475584D01*
X93094827Y-99725333D01*
X93081998Y-99759373D01*
X93081069Y-99763288D01*
X93019158Y-100024173D01*
X93011045Y-100058358D01*
X92978658Y-100363935D01*
X92978745Y-100367936D01*
X92978745Y-100367943D01*
X92985273Y-100667134D01*
X92985361Y-100671150D01*
X92985958Y-100675119D01*
X93024952Y-100934481D01*
X93031047Y-100975024D01*
X93032142Y-100978882D01*
X93032143Y-100978885D01*
X93113879Y-101266776D01*
X93114973Y-101270629D01*
X93235781Y-101553174D01*
X93391510Y-101818079D01*
X93393963Y-101821247D01*
X93393965Y-101821250D01*
X93447763Y-101890730D01*
X93579638Y-102061049D01*
X93797113Y-102278145D01*
X93800294Y-102280599D01*
X93800295Y-102280600D01*
X94007435Y-102440407D01*
X94040411Y-102465848D01*
X94043890Y-102467885D01*
X94247711Y-102587227D01*
X94305587Y-102621115D01*
X94309272Y-102622683D01*
X94309276Y-102622685D01*
X94411459Y-102666164D01*
X94588343Y-102741429D01*
X94686913Y-102769229D01*
X94856383Y-102817025D01*
X94916517Y-102854767D01*
X94946699Y-102919028D01*
X94937348Y-102989406D01*
X94891433Y-103043557D01*
X94846116Y-103061999D01*
X94781641Y-103074474D01*
X94777826Y-103075732D01*
X94777822Y-103075733D01*
X94493632Y-103169444D01*
X94493627Y-103169446D01*
X94489809Y-103170705D01*
X94212571Y-103303238D01*
X94209206Y-103305411D01*
X94209202Y-103305413D01*
X93957786Y-103467750D01*
X93957780Y-103467755D01*
X93954420Y-103469924D01*
X93719541Y-103668061D01*
X93511742Y-103894437D01*
X93334392Y-104145381D01*
X93190366Y-104416827D01*
X93188951Y-104420583D01*
X93188950Y-104420584D01*
X93087291Y-104690329D01*
X93081998Y-104704373D01*
X93081069Y-104708288D01*
X93029349Y-104926229D01*
X93011045Y-105003358D01*
X92978658Y-105308935D01*
X81788000Y-105308935D01*
X81788000Y-103462655D01*
X82984858Y-103462655D01*
X83020104Y-103721638D01*
X83021412Y-103726124D01*
X83021412Y-103726126D01*
X83041098Y-103793664D01*
X83093243Y-103972567D01*
X83202668Y-104209928D01*
X83205231Y-104213837D01*
X83343410Y-104424596D01*
X83343414Y-104424601D01*
X83345976Y-104428509D01*
X83520018Y-104623506D01*
X83720970Y-104790637D01*
X83724973Y-104793066D01*
X83940422Y-104923804D01*
X83940426Y-104923806D01*
X83944419Y-104926229D01*
X84185455Y-105027303D01*
X84438783Y-105091641D01*
X84443434Y-105092109D01*
X84443438Y-105092110D01*
X84636308Y-105111531D01*
X84655867Y-105113500D01*
X89311354Y-105113500D01*
X89313679Y-105113327D01*
X89313685Y-105113327D01*
X89501000Y-105099407D01*
X89501004Y-105099406D01*
X89505652Y-105099061D01*
X89510200Y-105098032D01*
X89510206Y-105098031D01*
X89696601Y-105055853D01*
X89760577Y-105041377D01*
X89764931Y-105039684D01*
X89999824Y-104948340D01*
X89999827Y-104948339D01*
X90004177Y-104946647D01*
X90035148Y-104928946D01*
X90092590Y-104896115D01*
X90231098Y-104816951D01*
X90436357Y-104655138D01*
X90615443Y-104464763D01*
X90764424Y-104250009D01*
X90766492Y-104245816D01*
X90877960Y-104019781D01*
X90877961Y-104019778D01*
X90880025Y-104015593D01*
X90911752Y-103916479D01*
X90958280Y-103771123D01*
X90959707Y-103766665D01*
X91001721Y-103508693D01*
X91004382Y-103305413D01*
X91005081Y-103252022D01*
X91005081Y-103252019D01*
X91005142Y-103247345D01*
X90969896Y-102988362D01*
X90955473Y-102938877D01*
X90930957Y-102854767D01*
X90896757Y-102737433D01*
X90882062Y-102705556D01*
X90864752Y-102668009D01*
X90787332Y-102500072D01*
X90725050Y-102405076D01*
X90646590Y-102285404D01*
X90646586Y-102285399D01*
X90644024Y-102281491D01*
X90469982Y-102086494D01*
X90269030Y-101919363D01*
X90221844Y-101890730D01*
X90049578Y-101786196D01*
X90049574Y-101786194D01*
X90045581Y-101783771D01*
X89804545Y-101682697D01*
X89551217Y-101618359D01*
X89546566Y-101617891D01*
X89546562Y-101617890D01*
X89337271Y-101596816D01*
X89334133Y-101596500D01*
X84678646Y-101596500D01*
X84676321Y-101596673D01*
X84676315Y-101596673D01*
X84489000Y-101610593D01*
X84488996Y-101610594D01*
X84484348Y-101610939D01*
X84479800Y-101611968D01*
X84479794Y-101611969D01*
X84293399Y-101654147D01*
X84229423Y-101668623D01*
X84225071Y-101670315D01*
X84225069Y-101670316D01*
X83990176Y-101761660D01*
X83990173Y-101761661D01*
X83985823Y-101763353D01*
X83758902Y-101893049D01*
X83553643Y-102054862D01*
X83374557Y-102245237D01*
X83225576Y-102459991D01*
X83223510Y-102464181D01*
X83223508Y-102464184D01*
X83114675Y-102684877D01*
X83109975Y-102694407D01*
X83108553Y-102698850D01*
X83108552Y-102698852D01*
X83101137Y-102722016D01*
X83030293Y-102943335D01*
X82988279Y-103201307D01*
X82984858Y-103462655D01*
X81788000Y-103462655D01*
X81788000Y-97476269D01*
X116616295Y-97476269D01*
X116616592Y-97481422D01*
X116616592Y-97481425D01*
X116622267Y-97579841D01*
X116629627Y-97707497D01*
X116630764Y-97712543D01*
X116630765Y-97712549D01*
X116662941Y-97855323D01*
X116680546Y-97933442D01*
X116682488Y-97938224D01*
X116682489Y-97938228D01*
X116765740Y-98143250D01*
X116767684Y-98148037D01*
X116888701Y-98345519D01*
X117040347Y-98520584D01*
X117218549Y-98668530D01*
X117418522Y-98785384D01*
X117634894Y-98868009D01*
X117639960Y-98869040D01*
X117639961Y-98869040D01*
X117693046Y-98879840D01*
X117861856Y-98914185D01*
X117992524Y-98918976D01*
X118088149Y-98922483D01*
X118088153Y-98922483D01*
X118093313Y-98922672D01*
X118098433Y-98922016D01*
X118098435Y-98922016D01*
X118171470Y-98912660D01*
X118323047Y-98893242D01*
X118327995Y-98891757D01*
X118328002Y-98891756D01*
X118539947Y-98828169D01*
X118544890Y-98826686D01*
X118625436Y-98787227D01*
X118748249Y-98727062D01*
X118748252Y-98727060D01*
X118752884Y-98724791D01*
X118941443Y-98590294D01*
X119105503Y-98426805D01*
X119240658Y-98238717D01*
X119287841Y-98143250D01*
X119340984Y-98035722D01*
X119340985Y-98035720D01*
X119343278Y-98031080D01*
X119410608Y-97809471D01*
X119440840Y-97579841D01*
X119442527Y-97510800D01*
X119439688Y-97476269D01*
X144616295Y-97476269D01*
X144616592Y-97481422D01*
X144616592Y-97481425D01*
X144622267Y-97579841D01*
X144629627Y-97707497D01*
X144630764Y-97712543D01*
X144630765Y-97712549D01*
X144662941Y-97855323D01*
X144680546Y-97933442D01*
X144682488Y-97938224D01*
X144682489Y-97938228D01*
X144765740Y-98143250D01*
X144767684Y-98148037D01*
X144888701Y-98345519D01*
X145040347Y-98520584D01*
X145218549Y-98668530D01*
X145418522Y-98785384D01*
X145634894Y-98868009D01*
X145639960Y-98869040D01*
X145639961Y-98869040D01*
X145693046Y-98879840D01*
X145861856Y-98914185D01*
X145992524Y-98918976D01*
X146088149Y-98922483D01*
X146088153Y-98922483D01*
X146093313Y-98922672D01*
X146098433Y-98922016D01*
X146098435Y-98922016D01*
X146171470Y-98912660D01*
X146323047Y-98893242D01*
X146327995Y-98891757D01*
X146328002Y-98891756D01*
X146539947Y-98828169D01*
X146544890Y-98826686D01*
X146625436Y-98787227D01*
X146748249Y-98727062D01*
X146748252Y-98727060D01*
X146752884Y-98724791D01*
X146941443Y-98590294D01*
X147105503Y-98426805D01*
X147240658Y-98238717D01*
X147287841Y-98143250D01*
X147340984Y-98035722D01*
X147340985Y-98035720D01*
X147343278Y-98031080D01*
X147410608Y-97809471D01*
X147440840Y-97579841D01*
X147442527Y-97510800D01*
X147436232Y-97434234D01*
X147423973Y-97285118D01*
X147423972Y-97285112D01*
X147423549Y-97279967D01*
X147367125Y-97055333D01*
X147365066Y-97050597D01*
X147276830Y-96847668D01*
X147276828Y-96847665D01*
X147274770Y-96842931D01*
X147148964Y-96648465D01*
X146993087Y-96477158D01*
X146989036Y-96473959D01*
X146989032Y-96473955D01*
X146815377Y-96336811D01*
X146815372Y-96336808D01*
X146811323Y-96333610D01*
X146806807Y-96331117D01*
X146806804Y-96331115D01*
X146613079Y-96224173D01*
X146613075Y-96224171D01*
X146608555Y-96221676D01*
X146603686Y-96219952D01*
X146603682Y-96219950D01*
X146395103Y-96146088D01*
X146395099Y-96146087D01*
X146390228Y-96144362D01*
X146385135Y-96143455D01*
X146385132Y-96143454D01*
X146167295Y-96104651D01*
X146167289Y-96104650D01*
X146162206Y-96103745D01*
X146089296Y-96102854D01*
X145935781Y-96100979D01*
X145935779Y-96100979D01*
X145930611Y-96100916D01*
X145701664Y-96135950D01*
X145481514Y-96207906D01*
X145476926Y-96210294D01*
X145476922Y-96210296D01*
X145450265Y-96224173D01*
X145276072Y-96314852D01*
X145271939Y-96317955D01*
X145271936Y-96317957D01*
X145246825Y-96336811D01*
X145090855Y-96453917D01*
X144930839Y-96621364D01*
X144927925Y-96625636D01*
X144927924Y-96625637D01*
X144912352Y-96648465D01*
X144800319Y-96812699D01*
X144702802Y-97022781D01*
X144640907Y-97245969D01*
X144616295Y-97476269D01*
X119439688Y-97476269D01*
X119436232Y-97434234D01*
X119423973Y-97285118D01*
X119423972Y-97285112D01*
X119423549Y-97279967D01*
X119367125Y-97055333D01*
X119365066Y-97050597D01*
X119276830Y-96847668D01*
X119276828Y-96847665D01*
X119274770Y-96842931D01*
X119148964Y-96648465D01*
X118993087Y-96477158D01*
X118989036Y-96473959D01*
X118989032Y-96473955D01*
X118815377Y-96336811D01*
X118815372Y-96336808D01*
X118811323Y-96333610D01*
X118806807Y-96331117D01*
X118806804Y-96331115D01*
X118613079Y-96224173D01*
X118613075Y-96224171D01*
X118608555Y-96221676D01*
X118603686Y-96219952D01*
X118603682Y-96219950D01*
X118395103Y-96146088D01*
X118395099Y-96146087D01*
X118390228Y-96144362D01*
X118385135Y-96143455D01*
X118385132Y-96143454D01*
X118167295Y-96104651D01*
X118167289Y-96104650D01*
X118162206Y-96103745D01*
X118089296Y-96102854D01*
X117935781Y-96100979D01*
X117935779Y-96100979D01*
X117930611Y-96100916D01*
X117701664Y-96135950D01*
X117481514Y-96207906D01*
X117476926Y-96210294D01*
X117476922Y-96210296D01*
X117450265Y-96224173D01*
X117276072Y-96314852D01*
X117271939Y-96317955D01*
X117271936Y-96317957D01*
X117246825Y-96336811D01*
X117090855Y-96453917D01*
X116930839Y-96621364D01*
X116927925Y-96625636D01*
X116927924Y-96625637D01*
X116912352Y-96648465D01*
X116800319Y-96812699D01*
X116702802Y-97022781D01*
X116640907Y-97245969D01*
X116616295Y-97476269D01*
X81788000Y-97476269D01*
X81788000Y-91872800D01*
X116027200Y-91872800D01*
X116038809Y-91980780D01*
X116050195Y-92033122D01*
X116084493Y-92136172D01*
X116162665Y-92257810D01*
X116209158Y-92311466D01*
X116212552Y-92314407D01*
X116235986Y-92334713D01*
X116318434Y-92406155D01*
X116326631Y-92409899D01*
X116326632Y-92409899D01*
X116348641Y-92419950D01*
X116449960Y-92466221D01*
X116473714Y-92473196D01*
X116513758Y-92484954D01*
X116513762Y-92484955D01*
X116518081Y-92486223D01*
X116522529Y-92486863D01*
X116522536Y-92486864D01*
X116656752Y-92506161D01*
X116656759Y-92506162D01*
X116661200Y-92506800D01*
X116936753Y-92506800D01*
X117004874Y-92526802D01*
X117051367Y-92580458D01*
X117061471Y-92650732D01*
X117027847Y-92719851D01*
X116930839Y-92821364D01*
X116927925Y-92825636D01*
X116927924Y-92825637D01*
X116912352Y-92848465D01*
X116800319Y-93012699D01*
X116702802Y-93222781D01*
X116640907Y-93445969D01*
X116616295Y-93676269D01*
X116616592Y-93681422D01*
X116616592Y-93681425D01*
X116622267Y-93779841D01*
X116629627Y-93907497D01*
X116630764Y-93912543D01*
X116630765Y-93912549D01*
X116662941Y-94055323D01*
X116680546Y-94133442D01*
X116682488Y-94138224D01*
X116682489Y-94138228D01*
X116765740Y-94343250D01*
X116767684Y-94348037D01*
X116888701Y-94545519D01*
X117040347Y-94720584D01*
X117218549Y-94868530D01*
X117418522Y-94985384D01*
X117634894Y-95068009D01*
X117639960Y-95069040D01*
X117639961Y-95069040D01*
X117693046Y-95079840D01*
X117861856Y-95114185D01*
X117992524Y-95118976D01*
X118088149Y-95122483D01*
X118088153Y-95122483D01*
X118093313Y-95122672D01*
X118098433Y-95122016D01*
X118098435Y-95122016D01*
X118171470Y-95112660D01*
X118323047Y-95093242D01*
X118327995Y-95091757D01*
X118328002Y-95091756D01*
X118539947Y-95028169D01*
X118544890Y-95026686D01*
X118625436Y-94987227D01*
X118748249Y-94927062D01*
X118748252Y-94927060D01*
X118752884Y-94924791D01*
X118941443Y-94790294D01*
X119105503Y-94626805D01*
X119240658Y-94438717D01*
X119287841Y-94343250D01*
X119340984Y-94235722D01*
X119340985Y-94235720D01*
X119343278Y-94231080D01*
X119410608Y-94009471D01*
X119440840Y-93779841D01*
X119442527Y-93710800D01*
X119439688Y-93676269D01*
X144616295Y-93676269D01*
X144616592Y-93681422D01*
X144616592Y-93681425D01*
X144622267Y-93779841D01*
X144629627Y-93907497D01*
X144630764Y-93912543D01*
X144630765Y-93912549D01*
X144662941Y-94055323D01*
X144680546Y-94133442D01*
X144682488Y-94138224D01*
X144682489Y-94138228D01*
X144765740Y-94343250D01*
X144767684Y-94348037D01*
X144888701Y-94545519D01*
X145040347Y-94720584D01*
X145218549Y-94868530D01*
X145418522Y-94985384D01*
X145634894Y-95068009D01*
X145639960Y-95069040D01*
X145639961Y-95069040D01*
X145693046Y-95079840D01*
X145861856Y-95114185D01*
X145992524Y-95118976D01*
X146088149Y-95122483D01*
X146088153Y-95122483D01*
X146093313Y-95122672D01*
X146098433Y-95122016D01*
X146098435Y-95122016D01*
X146171470Y-95112660D01*
X146323047Y-95093242D01*
X146327995Y-95091757D01*
X146328002Y-95091756D01*
X146539947Y-95028169D01*
X146544890Y-95026686D01*
X146625436Y-94987227D01*
X146748249Y-94927062D01*
X146748252Y-94927060D01*
X146752884Y-94924791D01*
X146941443Y-94790294D01*
X147105503Y-94626805D01*
X147240658Y-94438717D01*
X147287841Y-94343250D01*
X147340984Y-94235722D01*
X147340985Y-94235720D01*
X147343278Y-94231080D01*
X147410608Y-94009471D01*
X147440840Y-93779841D01*
X147442527Y-93710800D01*
X147436232Y-93634234D01*
X147423973Y-93485118D01*
X147423972Y-93485112D01*
X147423549Y-93479967D01*
X147367125Y-93255333D01*
X147365066Y-93250597D01*
X147276830Y-93047668D01*
X147276828Y-93047665D01*
X147274770Y-93042931D01*
X147148964Y-92848465D01*
X146993087Y-92677158D01*
X146989036Y-92673959D01*
X146989032Y-92673955D01*
X146815377Y-92536811D01*
X146815372Y-92536808D01*
X146811323Y-92533610D01*
X146806807Y-92531117D01*
X146806804Y-92531115D01*
X146613079Y-92424173D01*
X146613075Y-92424171D01*
X146608555Y-92421676D01*
X146603686Y-92419952D01*
X146603682Y-92419950D01*
X146395103Y-92346088D01*
X146395099Y-92346087D01*
X146390228Y-92344362D01*
X146385135Y-92343455D01*
X146385132Y-92343454D01*
X146167295Y-92304651D01*
X146167289Y-92304650D01*
X146162206Y-92303745D01*
X146089296Y-92302854D01*
X145935781Y-92300979D01*
X145935779Y-92300979D01*
X145930611Y-92300916D01*
X145701664Y-92335950D01*
X145481514Y-92407906D01*
X145476926Y-92410294D01*
X145476922Y-92410296D01*
X145313149Y-92495551D01*
X145276072Y-92514852D01*
X145271939Y-92517955D01*
X145271936Y-92517957D01*
X145095097Y-92650732D01*
X145090855Y-92653917D01*
X144930839Y-92821364D01*
X144927925Y-92825636D01*
X144927924Y-92825637D01*
X144912352Y-92848465D01*
X144800319Y-93012699D01*
X144702802Y-93222781D01*
X144640907Y-93445969D01*
X144616295Y-93676269D01*
X119439688Y-93676269D01*
X119436232Y-93634234D01*
X119423973Y-93485118D01*
X119423972Y-93485112D01*
X119423549Y-93479967D01*
X119367125Y-93255333D01*
X119365066Y-93250597D01*
X119276830Y-93047668D01*
X119276828Y-93047665D01*
X119274770Y-93042931D01*
X119148964Y-92848465D01*
X119029886Y-92717599D01*
X118998834Y-92653754D01*
X119007229Y-92583255D01*
X119052405Y-92528487D01*
X119123079Y-92506800D01*
X120727200Y-92506800D01*
X120835180Y-92495191D01*
X120838464Y-92494477D01*
X120838468Y-92494476D01*
X120863539Y-92489022D01*
X120887522Y-92483805D01*
X120990572Y-92449507D01*
X121112210Y-92371335D01*
X121165866Y-92324842D01*
X121177457Y-92311466D01*
X121254653Y-92222377D01*
X121260555Y-92215566D01*
X121320621Y-92084040D01*
X121340623Y-92015919D01*
X121341264Y-92011464D01*
X121360561Y-91877248D01*
X121360562Y-91877241D01*
X121361200Y-91872800D01*
X121361200Y-91010249D01*
X121358265Y-90955725D01*
X121355362Y-90928834D01*
X121346593Y-90874943D01*
X121343318Y-90866184D01*
X121300705Y-90752237D01*
X121295946Y-90739511D01*
X121293792Y-90735574D01*
X121293789Y-90735568D01*
X121264028Y-90681179D01*
X121261867Y-90677229D01*
X121206883Y-90603913D01*
X121177818Y-90565157D01*
X121177817Y-90565156D01*
X121175115Y-90561553D01*
X121171933Y-90558376D01*
X121171929Y-90558372D01*
X121108656Y-90495210D01*
X121090532Y-90472343D01*
X121078317Y-90452604D01*
X121065940Y-90426181D01*
X121057222Y-90400050D01*
X121051432Y-90373305D01*
X121051386Y-90372866D01*
X121050700Y-90359735D01*
X121050700Y-90193932D01*
X143296500Y-90193932D01*
X143307113Y-90296219D01*
X143309295Y-90302759D01*
X143355121Y-90440114D01*
X143361244Y-90458468D01*
X143451248Y-90603913D01*
X143572298Y-90724752D01*
X143578528Y-90728592D01*
X143578529Y-90728593D01*
X143589845Y-90735568D01*
X143717899Y-90814502D01*
X143880243Y-90868349D01*
X143887080Y-90869049D01*
X143887082Y-90869050D01*
X143928401Y-90873283D01*
X143981268Y-90878700D01*
X144494012Y-90878700D01*
X144562133Y-90898702D01*
X144594970Y-90929311D01*
X144695530Y-91063977D01*
X144695535Y-91063983D01*
X144698322Y-91067715D01*
X144701631Y-91070995D01*
X144701636Y-91071001D01*
X144880626Y-91248435D01*
X144883943Y-91251723D01*
X144887705Y-91254481D01*
X144887708Y-91254484D01*
X145090950Y-91403507D01*
X145094724Y-91406274D01*
X145098867Y-91408454D01*
X145098869Y-91408455D01*
X145321884Y-91525789D01*
X145321889Y-91525791D01*
X145326034Y-91527972D01*
X145572790Y-91614144D01*
X145577383Y-91615016D01*
X145824985Y-91662024D01*
X145824988Y-91662024D01*
X145829574Y-91662895D01*
X145960158Y-91668026D01*
X146086075Y-91672974D01*
X146086081Y-91672974D01*
X146090743Y-91673157D01*
X146170177Y-91664457D01*
X146345907Y-91645212D01*
X146345912Y-91645211D01*
X146350560Y-91644702D01*
X146463316Y-91615016D01*
X146598794Y-91579348D01*
X146598796Y-91579347D01*
X146603317Y-91578157D01*
X146843462Y-91474982D01*
X147065719Y-91337446D01*
X147069282Y-91334429D01*
X147069287Y-91334426D01*
X147261639Y-91171587D01*
X147261640Y-91171586D01*
X147265205Y-91168568D01*
X147402548Y-91011959D01*
X147434457Y-90975574D01*
X147434461Y-90975569D01*
X147437539Y-90972059D01*
X147448046Y-90955725D01*
X147576405Y-90756167D01*
X147578933Y-90752237D01*
X147686283Y-90513929D01*
X147711031Y-90426181D01*
X147755960Y-90266876D01*
X147755961Y-90266873D01*
X147757230Y-90262372D01*
X147765523Y-90197182D01*
X147789816Y-90006221D01*
X147789816Y-90006217D01*
X147790214Y-90003091D01*
X147792631Y-89910800D01*
X147777195Y-89703082D01*
X147773607Y-89654800D01*
X147773606Y-89654796D01*
X147773261Y-89650148D01*
X147761843Y-89599685D01*
X147716608Y-89399780D01*
X147715577Y-89395223D01*
X147713884Y-89390869D01*
X147622540Y-89155976D01*
X147622539Y-89155973D01*
X147620847Y-89151623D01*
X147491151Y-88924702D01*
X147329338Y-88719443D01*
X147138963Y-88540357D01*
X147050824Y-88479212D01*
X147006254Y-88423950D01*
X146997300Y-88362843D01*
X147003500Y-88302332D01*
X147003500Y-87754868D01*
X146992887Y-87652581D01*
X146957525Y-87546588D01*
X146941073Y-87497276D01*
X146941072Y-87497274D01*
X146938756Y-87490332D01*
X146882329Y-87399146D01*
X146852606Y-87351115D01*
X146848752Y-87344887D01*
X146727702Y-87224048D01*
X146679231Y-87194170D01*
X146588331Y-87138138D01*
X146588329Y-87138137D01*
X146582101Y-87134298D01*
X146419757Y-87080451D01*
X146412920Y-87079751D01*
X146412918Y-87079750D01*
X146371599Y-87075517D01*
X146318732Y-87070100D01*
X145721268Y-87070100D01*
X145718022Y-87070437D01*
X145718018Y-87070437D01*
X145683917Y-87073975D01*
X145618981Y-87080713D01*
X145612440Y-87082895D01*
X145612441Y-87082895D01*
X145463676Y-87132527D01*
X145463674Y-87132528D01*
X145456732Y-87134844D01*
X145450508Y-87138696D01*
X145450507Y-87138696D01*
X145444455Y-87142441D01*
X145311287Y-87224848D01*
X145190448Y-87345898D01*
X145186608Y-87352128D01*
X145186607Y-87352129D01*
X145105255Y-87484107D01*
X145100698Y-87491499D01*
X145046851Y-87653843D01*
X145036500Y-87754868D01*
X145036500Y-88302332D01*
X145036837Y-88305576D01*
X145036837Y-88305584D01*
X145043782Y-88372520D01*
X145030917Y-88442341D01*
X144987540Y-88490895D01*
X144959604Y-88509210D01*
X144959599Y-88509213D01*
X144955691Y-88511776D01*
X144760694Y-88685818D01*
X144735390Y-88716243D01*
X144610613Y-88866270D01*
X144551675Y-88905853D01*
X144513739Y-88911700D01*
X143981268Y-88911700D01*
X143978022Y-88912037D01*
X143978018Y-88912037D01*
X143943917Y-88915575D01*
X143878981Y-88922313D01*
X143859657Y-88928760D01*
X143723676Y-88974127D01*
X143723674Y-88974128D01*
X143716732Y-88976444D01*
X143571287Y-89066448D01*
X143450448Y-89187498D01*
X143446608Y-89193728D01*
X143446607Y-89193729D01*
X143390672Y-89284473D01*
X143360698Y-89333099D01*
X143306851Y-89495443D01*
X143296500Y-89596468D01*
X143296500Y-90193932D01*
X121050700Y-90193932D01*
X121050700Y-89827650D01*
X121057107Y-89787983D01*
X121065796Y-89761786D01*
X121078130Y-89735336D01*
X121090303Y-89715588D01*
X121108389Y-89692688D01*
X121145956Y-89655056D01*
X121145972Y-89655038D01*
X121148348Y-89652658D01*
X121216422Y-89568030D01*
X121245341Y-89522944D01*
X121293868Y-89425787D01*
X121324480Y-89284473D01*
X121329483Y-89213653D01*
X121319042Y-89069440D01*
X121268395Y-88934008D01*
X121266241Y-88930071D01*
X121266238Y-88930065D01*
X121236477Y-88875676D01*
X121234316Y-88871726D01*
X121231616Y-88868126D01*
X121231613Y-88868121D01*
X121150267Y-88759653D01*
X121150266Y-88759651D01*
X121147564Y-88756049D01*
X121144375Y-88752865D01*
X121144371Y-88752861D01*
X121108655Y-88717207D01*
X121090526Y-88694334D01*
X121078318Y-88674605D01*
X121065940Y-88648181D01*
X121057222Y-88622050D01*
X121051432Y-88595305D01*
X121051386Y-88594866D01*
X121050700Y-88581735D01*
X121050700Y-88049650D01*
X121057107Y-88009983D01*
X121065796Y-87983786D01*
X121078130Y-87957336D01*
X121090305Y-87937585D01*
X121108391Y-87914684D01*
X121174713Y-87848246D01*
X121175896Y-87847061D01*
X121177006Y-87845824D01*
X121177018Y-87845811D01*
X121210945Y-87807991D01*
X121210946Y-87807989D01*
X121212060Y-87806748D01*
X121228885Y-87785851D01*
X121260555Y-87741912D01*
X121320621Y-87610386D01*
X121340623Y-87542265D01*
X121345524Y-87508180D01*
X121360561Y-87403594D01*
X121360562Y-87403587D01*
X121361200Y-87399146D01*
X121361200Y-87298800D01*
X121349591Y-87190820D01*
X121338205Y-87138478D01*
X121303907Y-87035428D01*
X121225735Y-86913790D01*
X121179242Y-86860134D01*
X121069966Y-86765445D01*
X121041702Y-86752537D01*
X120976440Y-86722733D01*
X120938440Y-86705379D01*
X120914686Y-86698404D01*
X120874642Y-86686646D01*
X120874638Y-86686645D01*
X120870319Y-86685377D01*
X120865871Y-86684737D01*
X120865864Y-86684736D01*
X120731648Y-86665439D01*
X120731641Y-86665438D01*
X120727200Y-86664800D01*
X116804889Y-86664800D01*
X116803492Y-86664863D01*
X116803475Y-86664863D01*
X116779850Y-86665923D01*
X116759429Y-86666838D01*
X116758035Y-86666963D01*
X116758024Y-86666964D01*
X116738366Y-86668730D01*
X116738345Y-86668732D01*
X116736969Y-86668856D01*
X116723370Y-86670695D01*
X116697732Y-86674161D01*
X116697727Y-86674162D01*
X116691878Y-86674953D01*
X116686280Y-86676821D01*
X116686274Y-86676822D01*
X116558986Y-86719289D01*
X116554718Y-86720713D01*
X116491254Y-86752537D01*
X116372540Y-86835086D01*
X116366891Y-86842106D01*
X116366889Y-86842108D01*
X116354751Y-86857193D01*
X116281893Y-86947736D01*
X116245709Y-87008820D01*
X116243993Y-87012972D01*
X116194791Y-87131994D01*
X116190472Y-87142441D01*
X116189515Y-87151398D01*
X116189515Y-87151400D01*
X116181205Y-87229219D01*
X116175118Y-87286215D01*
X116175699Y-87302167D01*
X116177519Y-87352129D01*
X116177702Y-87357164D01*
X116178504Y-87361589D01*
X116178504Y-87361593D01*
X116200908Y-87485269D01*
X116203476Y-87499446D01*
X116204897Y-87503706D01*
X116206016Y-87508077D01*
X116205612Y-87508180D01*
X116209974Y-87528355D01*
X116210020Y-87528796D01*
X116210700Y-87541868D01*
X116210700Y-88073950D01*
X116204293Y-88113617D01*
X116195604Y-88139814D01*
X116183272Y-88166261D01*
X116151197Y-88218295D01*
X116146500Y-88225368D01*
X116142174Y-88231428D01*
X116142133Y-88231487D01*
X116141724Y-88232060D01*
X116127845Y-88252542D01*
X116067779Y-88384068D01*
X116066511Y-88388387D01*
X116050669Y-88442341D01*
X116047777Y-88452189D01*
X116047137Y-88456637D01*
X116047136Y-88456644D01*
X116027839Y-88590860D01*
X116027838Y-88590867D01*
X116027200Y-88595308D01*
X116027200Y-91872800D01*
X81788000Y-91872800D01*
X81788000Y-81898935D01*
X92883658Y-81898935D01*
X92883745Y-81902936D01*
X92883745Y-81902943D01*
X92890273Y-82202134D01*
X92890361Y-82206150D01*
X92913518Y-82360176D01*
X92935037Y-82503303D01*
X92936047Y-82510024D01*
X92937142Y-82513882D01*
X92937143Y-82513885D01*
X92990470Y-82701712D01*
X93019973Y-82805629D01*
X93140781Y-83088174D01*
X93296510Y-83353079D01*
X93484638Y-83596049D01*
X93702113Y-83813145D01*
X93945411Y-84000848D01*
X93948890Y-84002885D01*
X94129255Y-84108493D01*
X94210587Y-84156115D01*
X94214272Y-84157683D01*
X94214276Y-84157685D01*
X94351965Y-84216272D01*
X94493343Y-84276429D01*
X94789094Y-84359840D01*
X95010560Y-84392741D01*
X95089748Y-84404505D01*
X95089750Y-84404505D01*
X95093047Y-84404995D01*
X95096378Y-84405135D01*
X95096382Y-84405135D01*
X95133335Y-84406683D01*
X95176677Y-84408500D01*
X96872740Y-84408500D01*
X96996644Y-84400596D01*
X97097657Y-84394153D01*
X97097662Y-84394152D01*
X97101665Y-84393897D01*
X97105602Y-84393135D01*
X97105604Y-84393135D01*
X97161195Y-84382379D01*
X97403359Y-84335526D01*
X97407174Y-84334268D01*
X97407178Y-84334267D01*
X97691368Y-84240556D01*
X97691373Y-84240554D01*
X97695191Y-84239295D01*
X97972429Y-84106762D01*
X97975794Y-84104589D01*
X97975798Y-84104587D01*
X98227214Y-83942250D01*
X98227220Y-83942245D01*
X98230580Y-83940076D01*
X98465459Y-83741939D01*
X98673258Y-83515563D01*
X98850608Y-83264619D01*
X98994634Y-82993173D01*
X99066766Y-82801776D01*
X99101585Y-82709388D01*
X99101587Y-82709382D01*
X99103002Y-82705627D01*
X99149421Y-82510024D01*
X99173026Y-82410558D01*
X99173027Y-82410553D01*
X99173955Y-82406642D01*
X99206342Y-82101065D01*
X99205892Y-82080400D01*
X99201932Y-81898935D01*
X100783658Y-81898935D01*
X100783745Y-81902936D01*
X100783745Y-81902943D01*
X100790273Y-82202134D01*
X100790361Y-82206150D01*
X100813518Y-82360176D01*
X100835037Y-82503303D01*
X100836047Y-82510024D01*
X100837142Y-82513882D01*
X100837143Y-82513885D01*
X100890470Y-82701712D01*
X100919973Y-82805629D01*
X101040781Y-83088174D01*
X101196510Y-83353079D01*
X101384638Y-83596049D01*
X101602113Y-83813145D01*
X101845411Y-84000848D01*
X101848890Y-84002885D01*
X102029255Y-84108493D01*
X102110587Y-84156115D01*
X102114272Y-84157683D01*
X102114276Y-84157685D01*
X102251965Y-84216272D01*
X102393343Y-84276429D01*
X102689094Y-84359840D01*
X102910560Y-84392741D01*
X102989748Y-84404505D01*
X102989750Y-84404505D01*
X102993047Y-84404995D01*
X102996378Y-84405135D01*
X102996382Y-84405135D01*
X103033335Y-84406683D01*
X103076677Y-84408500D01*
X104972740Y-84408500D01*
X105096644Y-84400596D01*
X105197657Y-84394153D01*
X105197662Y-84394152D01*
X105201665Y-84393897D01*
X105205602Y-84393135D01*
X105205604Y-84393135D01*
X105261195Y-84382379D01*
X105503359Y-84335526D01*
X105507174Y-84334268D01*
X105507178Y-84334267D01*
X105791368Y-84240556D01*
X105791373Y-84240554D01*
X105795191Y-84239295D01*
X106072429Y-84106762D01*
X106075794Y-84104589D01*
X106075798Y-84104587D01*
X106327214Y-83942250D01*
X106327220Y-83942245D01*
X106330580Y-83940076D01*
X106565459Y-83741939D01*
X106773258Y-83515563D01*
X106950608Y-83264619D01*
X107094634Y-82993173D01*
X107166766Y-82801776D01*
X107201585Y-82709388D01*
X107201587Y-82709382D01*
X107203002Y-82705627D01*
X107249421Y-82510024D01*
X107273026Y-82410558D01*
X107273027Y-82410553D01*
X107273955Y-82406642D01*
X107306342Y-82101065D01*
X107305892Y-82080400D01*
X128641500Y-82080400D01*
X128641837Y-82083646D01*
X128641837Y-82083650D01*
X128647387Y-82137134D01*
X128652474Y-82186166D01*
X128708450Y-82353946D01*
X128801522Y-82504348D01*
X128926697Y-82629305D01*
X128932927Y-82633145D01*
X128932928Y-82633146D01*
X129070090Y-82717694D01*
X129077262Y-82722115D01*
X129144199Y-82744317D01*
X129238611Y-82775632D01*
X129238613Y-82775632D01*
X129245139Y-82777797D01*
X129251975Y-82778497D01*
X129251978Y-82778498D01*
X129295031Y-82782909D01*
X129349600Y-82788500D01*
X130650400Y-82788500D01*
X130653646Y-82788163D01*
X130653650Y-82788163D01*
X130749308Y-82778238D01*
X130749312Y-82778237D01*
X130756166Y-82777526D01*
X130762702Y-82775345D01*
X130762704Y-82775345D01*
X130894806Y-82731272D01*
X130923946Y-82721550D01*
X131074348Y-82628478D01*
X131199305Y-82503303D01*
X131292115Y-82352738D01*
X131318564Y-82272995D01*
X131345632Y-82191389D01*
X131345632Y-82191387D01*
X131347797Y-82184861D01*
X131358500Y-82080400D01*
X131358500Y-81833935D01*
X156618658Y-81833935D01*
X156618745Y-81837936D01*
X156618745Y-81837943D01*
X156624105Y-82083598D01*
X156625361Y-82141150D01*
X156635730Y-82210119D01*
X156658291Y-82360176D01*
X156671047Y-82445024D01*
X156672142Y-82448882D01*
X156672143Y-82448885D01*
X156723132Y-82628478D01*
X156754973Y-82740629D01*
X156875781Y-83023174D01*
X157031510Y-83288079D01*
X157033963Y-83291247D01*
X157033965Y-83291250D01*
X157084294Y-83356250D01*
X157219638Y-83531049D01*
X157437113Y-83748145D01*
X157680411Y-83935848D01*
X157683890Y-83937885D01*
X157864255Y-84043493D01*
X157945587Y-84091115D01*
X157949272Y-84092683D01*
X157949276Y-84092685D01*
X158086965Y-84151272D01*
X158228343Y-84211429D01*
X158524094Y-84294840D01*
X158745560Y-84327741D01*
X158824748Y-84339505D01*
X158824750Y-84339505D01*
X158828047Y-84339995D01*
X158831378Y-84340135D01*
X158831382Y-84340135D01*
X158868335Y-84341683D01*
X158911677Y-84343500D01*
X160807740Y-84343500D01*
X160932745Y-84335526D01*
X161032657Y-84329153D01*
X161032662Y-84329152D01*
X161036665Y-84328897D01*
X161040602Y-84328135D01*
X161040604Y-84328135D01*
X161096195Y-84317379D01*
X161338359Y-84270526D01*
X161342174Y-84269268D01*
X161342178Y-84269267D01*
X161626368Y-84175556D01*
X161626373Y-84175554D01*
X161630191Y-84174295D01*
X161907429Y-84041762D01*
X161910794Y-84039589D01*
X161910798Y-84039587D01*
X162162214Y-83877250D01*
X162162220Y-83877245D01*
X162165580Y-83875076D01*
X162400459Y-83676939D01*
X162608258Y-83450563D01*
X162785608Y-83199619D01*
X162929634Y-82928173D01*
X162931050Y-82924416D01*
X163036585Y-82644388D01*
X163036587Y-82644382D01*
X163038002Y-82640627D01*
X163069115Y-82509521D01*
X163108026Y-82345558D01*
X163108027Y-82345553D01*
X163108955Y-82341642D01*
X163141342Y-82036065D01*
X163138438Y-81902943D01*
X163136932Y-81833935D01*
X164718658Y-81833935D01*
X164718745Y-81837936D01*
X164718745Y-81837943D01*
X164724105Y-82083598D01*
X164725361Y-82141150D01*
X164735730Y-82210119D01*
X164758291Y-82360176D01*
X164771047Y-82445024D01*
X164772142Y-82448882D01*
X164772143Y-82448885D01*
X164823132Y-82628478D01*
X164854973Y-82740629D01*
X164975781Y-83023174D01*
X165131510Y-83288079D01*
X165133963Y-83291247D01*
X165133965Y-83291250D01*
X165184294Y-83356250D01*
X165319638Y-83531049D01*
X165537113Y-83748145D01*
X165780411Y-83935848D01*
X165783890Y-83937885D01*
X165964255Y-84043493D01*
X166045587Y-84091115D01*
X166049272Y-84092683D01*
X166049276Y-84092685D01*
X166186965Y-84151272D01*
X166328343Y-84211429D01*
X166624094Y-84294840D01*
X166845560Y-84327741D01*
X166924748Y-84339505D01*
X166924750Y-84339505D01*
X166928047Y-84339995D01*
X166931378Y-84340135D01*
X166931382Y-84340135D01*
X166968335Y-84341683D01*
X167011677Y-84343500D01*
X168707740Y-84343500D01*
X168832745Y-84335526D01*
X168932657Y-84329153D01*
X168932662Y-84329152D01*
X168936665Y-84328897D01*
X168940602Y-84328135D01*
X168940604Y-84328135D01*
X168996195Y-84317379D01*
X169238359Y-84270526D01*
X169242174Y-84269268D01*
X169242178Y-84269267D01*
X169526368Y-84175556D01*
X169526373Y-84175554D01*
X169530191Y-84174295D01*
X169807429Y-84041762D01*
X169810794Y-84039589D01*
X169810798Y-84039587D01*
X170062214Y-83877250D01*
X170062220Y-83877245D01*
X170065580Y-83875076D01*
X170300459Y-83676939D01*
X170508258Y-83450563D01*
X170685608Y-83199619D01*
X170829634Y-82928173D01*
X170831050Y-82924416D01*
X170936585Y-82644388D01*
X170936587Y-82644382D01*
X170938002Y-82640627D01*
X170969115Y-82509521D01*
X171008026Y-82345558D01*
X171008027Y-82345553D01*
X171008955Y-82341642D01*
X171041342Y-82036065D01*
X171038438Y-81902943D01*
X171034727Y-81732866D01*
X171034726Y-81732860D01*
X171034639Y-81728850D01*
X170988953Y-81424976D01*
X170950806Y-81290612D01*
X170906121Y-81133224D01*
X170906121Y-81133223D01*
X170905027Y-81129371D01*
X170784219Y-80846826D01*
X170628490Y-80581921D01*
X170440362Y-80338951D01*
X170222887Y-80121855D01*
X170131716Y-80051517D01*
X170023016Y-79967655D01*
X173027858Y-79967655D01*
X173063104Y-80226638D01*
X173064412Y-80231124D01*
X173064412Y-80231126D01*
X173084098Y-80298664D01*
X173136243Y-80477567D01*
X173245668Y-80714928D01*
X173248231Y-80718837D01*
X173386410Y-80929596D01*
X173386414Y-80929601D01*
X173388976Y-80933509D01*
X173563018Y-81128506D01*
X173763970Y-81295637D01*
X173767973Y-81298066D01*
X173983422Y-81428804D01*
X173983426Y-81428806D01*
X173987419Y-81431229D01*
X174228455Y-81532303D01*
X174481783Y-81596641D01*
X174486434Y-81597109D01*
X174486438Y-81597110D01*
X174679308Y-81616531D01*
X174698867Y-81618500D01*
X179354354Y-81618500D01*
X179356679Y-81618327D01*
X179356685Y-81618327D01*
X179544000Y-81604407D01*
X179544004Y-81604406D01*
X179548652Y-81604061D01*
X179553200Y-81603032D01*
X179553206Y-81603031D01*
X179739601Y-81560853D01*
X179803577Y-81546377D01*
X179839769Y-81532303D01*
X180042824Y-81453340D01*
X180042827Y-81453339D01*
X180047177Y-81451647D01*
X180274098Y-81321951D01*
X180479357Y-81160138D01*
X180658443Y-80969763D01*
X180807424Y-80755009D01*
X180815356Y-80738925D01*
X180920960Y-80524781D01*
X180920961Y-80524778D01*
X180923025Y-80520593D01*
X180935102Y-80482866D01*
X181001280Y-80276123D01*
X181002707Y-80271665D01*
X181044721Y-80013693D01*
X181046964Y-79842315D01*
X181048081Y-79757022D01*
X181048081Y-79757019D01*
X181048142Y-79752345D01*
X181012896Y-79493362D01*
X180998517Y-79444028D01*
X180954367Y-79292559D01*
X180939757Y-79242433D01*
X180830332Y-79005072D01*
X180782588Y-78932250D01*
X180689590Y-78790404D01*
X180689586Y-78790399D01*
X180687024Y-78786491D01*
X180512982Y-78591494D01*
X180312030Y-78424363D01*
X180172376Y-78339619D01*
X180092578Y-78291196D01*
X180092574Y-78291194D01*
X180088581Y-78288771D01*
X179847545Y-78187697D01*
X179594217Y-78123359D01*
X179589566Y-78122891D01*
X179589562Y-78122890D01*
X179380271Y-78101816D01*
X179377133Y-78101500D01*
X174721646Y-78101500D01*
X174719321Y-78101673D01*
X174719315Y-78101673D01*
X174532000Y-78115593D01*
X174531996Y-78115594D01*
X174527348Y-78115939D01*
X174522800Y-78116968D01*
X174522794Y-78116969D01*
X174336399Y-78159147D01*
X174272423Y-78173623D01*
X174268071Y-78175315D01*
X174268069Y-78175316D01*
X174033176Y-78266660D01*
X174033173Y-78266661D01*
X174028823Y-78268353D01*
X173801902Y-78398049D01*
X173596643Y-78559862D01*
X173417557Y-78750237D01*
X173337728Y-78865309D01*
X173285681Y-78940335D01*
X173268576Y-78964991D01*
X173266510Y-78969181D01*
X173266508Y-78969184D01*
X173179256Y-79146115D01*
X173152975Y-79199407D01*
X173151553Y-79203850D01*
X173151552Y-79203852D01*
X173143408Y-79229295D01*
X173073293Y-79448335D01*
X173031279Y-79706307D01*
X173030567Y-79760705D01*
X173028297Y-79934152D01*
X173027858Y-79967655D01*
X170023016Y-79967655D01*
X169982782Y-79936615D01*
X169982778Y-79936612D01*
X169979589Y-79934152D01*
X169821736Y-79841725D01*
X169717877Y-79780913D01*
X169717874Y-79780911D01*
X169714413Y-79778885D01*
X169710728Y-79777317D01*
X169710724Y-79777315D01*
X169515964Y-79694444D01*
X169431657Y-79658571D01*
X169245621Y-79606103D01*
X169163617Y-79582975D01*
X169103483Y-79545233D01*
X169073301Y-79480972D01*
X169082652Y-79410594D01*
X169128567Y-79356443D01*
X169173884Y-79338001D01*
X169238359Y-79325526D01*
X169242174Y-79324268D01*
X169242178Y-79324267D01*
X169526368Y-79230556D01*
X169526373Y-79230554D01*
X169530191Y-79229295D01*
X169807429Y-79096762D01*
X169810794Y-79094589D01*
X169810798Y-79094587D01*
X170062214Y-78932250D01*
X170062220Y-78932245D01*
X170065580Y-78930076D01*
X170262521Y-78763942D01*
X170297390Y-78734528D01*
X170297391Y-78734527D01*
X170300459Y-78731939D01*
X170508258Y-78505563D01*
X170685608Y-78254619D01*
X170829634Y-77983173D01*
X170865604Y-77887730D01*
X170936585Y-77699388D01*
X170936587Y-77699382D01*
X170938002Y-77695627D01*
X170958567Y-77608969D01*
X171008026Y-77400558D01*
X171008027Y-77400553D01*
X171008955Y-77396642D01*
X171041342Y-77091065D01*
X171038438Y-76957943D01*
X171034727Y-76787866D01*
X171034726Y-76787860D01*
X171034639Y-76783850D01*
X170988953Y-76479976D01*
X170950806Y-76345612D01*
X170906121Y-76188224D01*
X170906121Y-76188223D01*
X170905027Y-76184371D01*
X170784219Y-75901826D01*
X170628490Y-75636921D01*
X170440362Y-75393951D01*
X170222887Y-75176855D01*
X169979589Y-74989152D01*
X169798702Y-74883238D01*
X169717877Y-74835913D01*
X169717874Y-74835911D01*
X169714413Y-74833885D01*
X169710728Y-74832317D01*
X169710724Y-74832315D01*
X169515964Y-74749444D01*
X169431657Y-74713571D01*
X169135906Y-74630160D01*
X168904934Y-74595847D01*
X168835252Y-74585495D01*
X168835250Y-74585495D01*
X168831953Y-74585005D01*
X168828622Y-74584865D01*
X168828618Y-74584865D01*
X168791665Y-74583317D01*
X168748323Y-74581500D01*
X167052260Y-74581500D01*
X166928356Y-74589404D01*
X166827343Y-74595847D01*
X166827338Y-74595848D01*
X166823335Y-74596103D01*
X166819398Y-74596865D01*
X166819396Y-74596865D01*
X166763805Y-74607621D01*
X166521641Y-74654474D01*
X166517826Y-74655732D01*
X166517822Y-74655733D01*
X166233632Y-74749444D01*
X166233627Y-74749446D01*
X166229809Y-74750705D01*
X165952571Y-74883238D01*
X165949206Y-74885411D01*
X165949202Y-74885413D01*
X165697786Y-75047750D01*
X165697780Y-75047755D01*
X165694420Y-75049924D01*
X165459541Y-75248061D01*
X165251742Y-75474437D01*
X165074392Y-75725381D01*
X164930366Y-75996827D01*
X164821998Y-76284373D01*
X164821069Y-76288288D01*
X164760154Y-76544976D01*
X164751045Y-76583358D01*
X164718658Y-76888935D01*
X164718745Y-76892936D01*
X164718745Y-76892943D01*
X164723068Y-77091065D01*
X164725361Y-77196150D01*
X164771047Y-77500024D01*
X164772142Y-77503882D01*
X164772143Y-77503885D01*
X164797586Y-77593500D01*
X164854973Y-77795629D01*
X164975781Y-78078174D01*
X165131510Y-78343079D01*
X165133963Y-78346247D01*
X165133965Y-78346250D01*
X165184294Y-78411250D01*
X165319638Y-78586049D01*
X165537113Y-78803145D01*
X165540294Y-78805599D01*
X165540295Y-78805600D01*
X165767483Y-78980874D01*
X165780411Y-78990848D01*
X165783890Y-78992885D01*
X165964255Y-79098493D01*
X166045587Y-79146115D01*
X166049272Y-79147683D01*
X166049276Y-79147685D01*
X166157400Y-79193692D01*
X166328343Y-79266429D01*
X166420992Y-79292559D01*
X166596383Y-79342025D01*
X166656517Y-79379767D01*
X166686699Y-79444028D01*
X166677348Y-79514406D01*
X166631433Y-79568557D01*
X166586116Y-79586999D01*
X166521641Y-79599474D01*
X166517826Y-79600732D01*
X166517822Y-79600733D01*
X166233632Y-79694444D01*
X166233627Y-79694446D01*
X166229809Y-79695705D01*
X165952571Y-79828238D01*
X165949206Y-79830411D01*
X165949202Y-79830413D01*
X165697786Y-79992750D01*
X165697780Y-79992755D01*
X165694420Y-79994924D01*
X165459541Y-80193061D01*
X165251742Y-80419437D01*
X165074392Y-80670381D01*
X164930366Y-80941827D01*
X164928951Y-80945583D01*
X164928950Y-80945584D01*
X164848091Y-81160138D01*
X164821998Y-81229373D01*
X164821069Y-81233288D01*
X164760154Y-81489976D01*
X164751045Y-81528358D01*
X164718658Y-81833935D01*
X163136932Y-81833935D01*
X163134727Y-81732866D01*
X163134726Y-81732860D01*
X163134639Y-81728850D01*
X163088953Y-81424976D01*
X163050806Y-81290612D01*
X163006121Y-81133224D01*
X163006121Y-81133223D01*
X163005027Y-81129371D01*
X162884219Y-80846826D01*
X162728490Y-80581921D01*
X162540362Y-80338951D01*
X162322887Y-80121855D01*
X162231716Y-80051517D01*
X162082782Y-79936615D01*
X162082778Y-79936612D01*
X162079589Y-79934152D01*
X161921736Y-79841725D01*
X161817877Y-79780913D01*
X161817874Y-79780911D01*
X161814413Y-79778885D01*
X161810728Y-79777317D01*
X161810724Y-79777315D01*
X161615964Y-79694444D01*
X161531657Y-79658571D01*
X161345621Y-79606103D01*
X161263617Y-79582975D01*
X161203483Y-79545233D01*
X161173301Y-79480972D01*
X161182652Y-79410594D01*
X161228567Y-79356443D01*
X161273884Y-79338001D01*
X161338359Y-79325526D01*
X161342174Y-79324268D01*
X161342178Y-79324267D01*
X161626368Y-79230556D01*
X161626373Y-79230554D01*
X161630191Y-79229295D01*
X161907429Y-79096762D01*
X161910794Y-79094589D01*
X161910798Y-79094587D01*
X162162214Y-78932250D01*
X162162220Y-78932245D01*
X162165580Y-78930076D01*
X162362521Y-78763942D01*
X162397390Y-78734528D01*
X162397391Y-78734527D01*
X162400459Y-78731939D01*
X162608258Y-78505563D01*
X162785608Y-78254619D01*
X162929634Y-77983173D01*
X162965604Y-77887730D01*
X163036585Y-77699388D01*
X163036587Y-77699382D01*
X163038002Y-77695627D01*
X163058567Y-77608969D01*
X163108026Y-77400558D01*
X163108027Y-77400553D01*
X163108955Y-77396642D01*
X163141342Y-77091065D01*
X163138438Y-76957943D01*
X163134727Y-76787866D01*
X163134726Y-76787860D01*
X163134639Y-76783850D01*
X163088953Y-76479976D01*
X163050806Y-76345612D01*
X163006121Y-76188224D01*
X163006121Y-76188223D01*
X163005027Y-76184371D01*
X162884219Y-75901826D01*
X162728490Y-75636921D01*
X162540362Y-75393951D01*
X162322887Y-75176855D01*
X162079589Y-74989152D01*
X161898702Y-74883238D01*
X161817877Y-74835913D01*
X161817874Y-74835911D01*
X161814413Y-74833885D01*
X161810728Y-74832317D01*
X161810724Y-74832315D01*
X161615964Y-74749444D01*
X161531657Y-74713571D01*
X161235906Y-74630160D01*
X161004934Y-74595847D01*
X160935252Y-74585495D01*
X160935250Y-74585495D01*
X160931953Y-74585005D01*
X160928622Y-74584865D01*
X160928618Y-74584865D01*
X160891665Y-74583317D01*
X160848323Y-74581500D01*
X158952260Y-74581500D01*
X158828356Y-74589404D01*
X158727343Y-74595847D01*
X158727338Y-74595848D01*
X158723335Y-74596103D01*
X158719398Y-74596865D01*
X158719396Y-74596865D01*
X158663805Y-74607621D01*
X158421641Y-74654474D01*
X158417826Y-74655732D01*
X158417822Y-74655733D01*
X158133632Y-74749444D01*
X158133627Y-74749446D01*
X158129809Y-74750705D01*
X157852571Y-74883238D01*
X157849206Y-74885411D01*
X157849202Y-74885413D01*
X157597786Y-75047750D01*
X157597780Y-75047755D01*
X157594420Y-75049924D01*
X157359541Y-75248061D01*
X157151742Y-75474437D01*
X156974392Y-75725381D01*
X156830366Y-75996827D01*
X156721998Y-76284373D01*
X156721069Y-76288288D01*
X156660154Y-76544976D01*
X156651045Y-76583358D01*
X156618658Y-76888935D01*
X156618745Y-76892936D01*
X156618745Y-76892943D01*
X156623068Y-77091065D01*
X156625361Y-77196150D01*
X156671047Y-77500024D01*
X156672142Y-77503882D01*
X156672143Y-77503885D01*
X156697586Y-77593500D01*
X156754973Y-77795629D01*
X156875781Y-78078174D01*
X157031510Y-78343079D01*
X157033963Y-78346247D01*
X157033965Y-78346250D01*
X157084294Y-78411250D01*
X157219638Y-78586049D01*
X157437113Y-78803145D01*
X157440294Y-78805599D01*
X157440295Y-78805600D01*
X157667483Y-78980874D01*
X157680411Y-78990848D01*
X157683890Y-78992885D01*
X157864255Y-79098493D01*
X157945587Y-79146115D01*
X157949272Y-79147683D01*
X157949276Y-79147685D01*
X158057400Y-79193692D01*
X158228343Y-79266429D01*
X158320992Y-79292559D01*
X158496383Y-79342025D01*
X158556517Y-79379767D01*
X158586699Y-79444028D01*
X158577348Y-79514406D01*
X158531433Y-79568557D01*
X158486116Y-79586999D01*
X158421641Y-79599474D01*
X158417826Y-79600732D01*
X158417822Y-79600733D01*
X158133632Y-79694444D01*
X158133627Y-79694446D01*
X158129809Y-79695705D01*
X157852571Y-79828238D01*
X157849206Y-79830411D01*
X157849202Y-79830413D01*
X157597786Y-79992750D01*
X157597780Y-79992755D01*
X157594420Y-79994924D01*
X157359541Y-80193061D01*
X157151742Y-80419437D01*
X156974392Y-80670381D01*
X156830366Y-80941827D01*
X156828951Y-80945583D01*
X156828950Y-80945584D01*
X156748091Y-81160138D01*
X156721998Y-81229373D01*
X156721069Y-81233288D01*
X156660154Y-81489976D01*
X156651045Y-81528358D01*
X156618658Y-81833935D01*
X131358500Y-81833935D01*
X131358500Y-80479600D01*
X131357003Y-80465171D01*
X131348238Y-80380692D01*
X131348237Y-80380688D01*
X131347526Y-80373834D01*
X131291550Y-80206054D01*
X131198478Y-80055652D01*
X131073303Y-79930695D01*
X131067072Y-79926854D01*
X130928968Y-79841725D01*
X130928966Y-79841724D01*
X130922738Y-79837885D01*
X130762254Y-79784655D01*
X130761389Y-79784368D01*
X130761387Y-79784368D01*
X130754861Y-79782203D01*
X130748025Y-79781503D01*
X130748022Y-79781502D01*
X130704969Y-79777091D01*
X130650400Y-79771500D01*
X129349600Y-79771500D01*
X129346354Y-79771837D01*
X129346350Y-79771837D01*
X129250692Y-79781762D01*
X129250688Y-79781763D01*
X129243834Y-79782474D01*
X129237298Y-79784655D01*
X129237296Y-79784655D01*
X129111851Y-79826507D01*
X129076054Y-79838450D01*
X128925652Y-79931522D01*
X128800695Y-80056697D01*
X128796855Y-80062927D01*
X128796854Y-80062928D01*
X128714815Y-80196020D01*
X128707885Y-80207262D01*
X128701458Y-80226638D01*
X128665145Y-80336121D01*
X128652203Y-80375139D01*
X128641500Y-80479600D01*
X128641500Y-82080400D01*
X107305892Y-82080400D01*
X107299727Y-81797866D01*
X107299726Y-81797860D01*
X107299639Y-81793850D01*
X107253953Y-81489976D01*
X107236586Y-81428804D01*
X107171121Y-81198224D01*
X107171121Y-81198223D01*
X107170027Y-81194371D01*
X107049219Y-80911826D01*
X106893490Y-80646921D01*
X106843162Y-80581921D01*
X106792234Y-80516148D01*
X106705362Y-80403951D01*
X106487887Y-80186855D01*
X106326713Y-80062510D01*
X106247782Y-80001615D01*
X106247778Y-80001612D01*
X106244589Y-79999152D01*
X106186378Y-79965068D01*
X105982877Y-79845913D01*
X105982874Y-79845911D01*
X105979413Y-79843885D01*
X105975728Y-79842317D01*
X105975724Y-79842315D01*
X105764280Y-79752345D01*
X105696657Y-79723571D01*
X105593381Y-79694444D01*
X105428617Y-79647975D01*
X105368483Y-79610233D01*
X105338301Y-79545972D01*
X105347652Y-79475594D01*
X105393567Y-79421443D01*
X105438884Y-79403001D01*
X105503359Y-79390526D01*
X105507174Y-79389268D01*
X105507178Y-79389267D01*
X105791368Y-79295556D01*
X105791373Y-79295554D01*
X105795191Y-79294295D01*
X106072429Y-79161762D01*
X106075794Y-79159589D01*
X106075798Y-79159587D01*
X106327214Y-78997250D01*
X106327220Y-78997245D01*
X106330580Y-78995076D01*
X106565459Y-78796939D01*
X106756445Y-78588879D01*
X106770543Y-78573521D01*
X106770545Y-78573519D01*
X106773258Y-78570563D01*
X106950608Y-78319619D01*
X107076879Y-78081635D01*
X107092751Y-78051722D01*
X107092751Y-78051721D01*
X107094634Y-78048173D01*
X107143182Y-77919355D01*
X107201585Y-77764388D01*
X107201587Y-77764382D01*
X107203002Y-77760627D01*
X107237587Y-77614890D01*
X107273026Y-77465558D01*
X107273027Y-77465553D01*
X107273955Y-77461642D01*
X107306342Y-77156065D01*
X107304837Y-77087057D01*
X107299727Y-76852866D01*
X107299726Y-76852860D01*
X107299639Y-76848850D01*
X107253953Y-76544976D01*
X107234403Y-76476115D01*
X107171121Y-76253224D01*
X107171121Y-76253223D01*
X107170027Y-76249371D01*
X107049219Y-75966826D01*
X106893490Y-75701921D01*
X106843162Y-75636921D01*
X106836770Y-75628667D01*
X106705362Y-75458951D01*
X106487887Y-75241855D01*
X106244589Y-75054152D01*
X106137784Y-74991615D01*
X105982877Y-74900913D01*
X105982874Y-74900911D01*
X105979413Y-74898885D01*
X105975728Y-74897317D01*
X105975724Y-74897315D01*
X105780964Y-74814444D01*
X105696657Y-74778571D01*
X105400906Y-74695160D01*
X105135510Y-74655733D01*
X105100252Y-74650495D01*
X105100250Y-74650495D01*
X105096953Y-74650005D01*
X105093622Y-74649865D01*
X105093618Y-74649865D01*
X105056665Y-74648317D01*
X105013323Y-74646500D01*
X103117260Y-74646500D01*
X102993356Y-74654404D01*
X102892343Y-74660847D01*
X102892338Y-74660848D01*
X102888335Y-74661103D01*
X102884398Y-74661865D01*
X102884396Y-74661865D01*
X102828805Y-74672621D01*
X102586641Y-74719474D01*
X102582826Y-74720732D01*
X102582822Y-74720733D01*
X102298632Y-74814444D01*
X102298627Y-74814446D01*
X102294809Y-74815705D01*
X102017571Y-74948238D01*
X102014206Y-74950411D01*
X102014202Y-74950413D01*
X101762786Y-75112750D01*
X101762780Y-75112755D01*
X101759420Y-75114924D01*
X101524541Y-75313061D01*
X101316742Y-75539437D01*
X101139392Y-75790381D01*
X100995366Y-76061827D01*
X100993951Y-76065583D01*
X100993950Y-76065584D01*
X100911495Y-76284373D01*
X100886998Y-76349373D01*
X100886069Y-76353288D01*
X100830521Y-76587360D01*
X100816045Y-76648358D01*
X100783658Y-76953935D01*
X100783745Y-76957936D01*
X100783745Y-76957943D01*
X100789029Y-77200119D01*
X100790361Y-77261150D01*
X100836047Y-77565024D01*
X100837142Y-77568882D01*
X100837143Y-77568885D01*
X100890470Y-77756712D01*
X100919973Y-77860629D01*
X101040781Y-78143174D01*
X101196510Y-78408079D01*
X101198963Y-78411247D01*
X101198965Y-78411250D01*
X101209118Y-78424363D01*
X101384638Y-78651049D01*
X101602113Y-78868145D01*
X101605294Y-78870599D01*
X101605295Y-78870600D01*
X101779596Y-79005072D01*
X101845411Y-79055848D01*
X101848890Y-79057885D01*
X102098183Y-79203852D01*
X102110587Y-79211115D01*
X102114272Y-79212683D01*
X102114276Y-79212685D01*
X102251965Y-79271272D01*
X102393343Y-79331429D01*
X102458623Y-79349840D01*
X102661383Y-79407025D01*
X102721517Y-79444767D01*
X102751699Y-79509028D01*
X102742348Y-79579406D01*
X102696433Y-79633557D01*
X102651116Y-79651999D01*
X102586641Y-79664474D01*
X102582826Y-79665732D01*
X102582822Y-79665733D01*
X102298632Y-79759444D01*
X102298627Y-79759446D01*
X102294809Y-79760705D01*
X102017571Y-79893238D01*
X102014206Y-79895411D01*
X102014202Y-79895413D01*
X101762786Y-80057750D01*
X101762780Y-80057755D01*
X101759420Y-80059924D01*
X101524541Y-80258061D01*
X101507961Y-80276123D01*
X101324118Y-80476402D01*
X101316742Y-80484437D01*
X101139392Y-80735381D01*
X100995366Y-81006827D01*
X100993951Y-81010583D01*
X100993950Y-81010584D01*
X100911495Y-81229373D01*
X100886998Y-81294373D01*
X100886069Y-81298288D01*
X100826950Y-81547408D01*
X100816045Y-81593358D01*
X100783658Y-81898935D01*
X99201932Y-81898935D01*
X99199727Y-81797866D01*
X99199726Y-81797860D01*
X99199639Y-81793850D01*
X99153953Y-81489976D01*
X99136586Y-81428804D01*
X99071121Y-81198224D01*
X99071121Y-81198223D01*
X99070027Y-81194371D01*
X98949219Y-80911826D01*
X98793490Y-80646921D01*
X98743162Y-80581921D01*
X98692234Y-80516148D01*
X98605362Y-80403951D01*
X98387887Y-80186855D01*
X98226713Y-80062510D01*
X98147782Y-80001615D01*
X98147778Y-80001612D01*
X98144589Y-79999152D01*
X98086378Y-79965068D01*
X97882877Y-79845913D01*
X97882874Y-79845911D01*
X97879413Y-79843885D01*
X97875728Y-79842317D01*
X97875724Y-79842315D01*
X97664280Y-79752345D01*
X97596657Y-79723571D01*
X97493381Y-79694444D01*
X97328617Y-79647975D01*
X97268483Y-79610233D01*
X97238301Y-79545972D01*
X97247652Y-79475594D01*
X97293567Y-79421443D01*
X97338884Y-79403001D01*
X97403359Y-79390526D01*
X97407174Y-79389268D01*
X97407178Y-79389267D01*
X97691368Y-79295556D01*
X97691373Y-79295554D01*
X97695191Y-79294295D01*
X97972429Y-79161762D01*
X97975794Y-79159589D01*
X97975798Y-79159587D01*
X98227214Y-78997250D01*
X98227220Y-78997245D01*
X98230580Y-78995076D01*
X98465459Y-78796939D01*
X98656445Y-78588879D01*
X98670543Y-78573521D01*
X98670545Y-78573519D01*
X98673258Y-78570563D01*
X98850608Y-78319619D01*
X98976879Y-78081635D01*
X98992751Y-78051722D01*
X98992751Y-78051721D01*
X98994634Y-78048173D01*
X99043182Y-77919355D01*
X99101585Y-77764388D01*
X99101587Y-77764382D01*
X99103002Y-77760627D01*
X99137587Y-77614890D01*
X99173026Y-77465558D01*
X99173027Y-77465553D01*
X99173955Y-77461642D01*
X99206342Y-77156065D01*
X99204837Y-77087057D01*
X99199727Y-76852866D01*
X99199726Y-76852860D01*
X99199639Y-76848850D01*
X99153953Y-76544976D01*
X99134403Y-76476115D01*
X99071121Y-76253224D01*
X99071121Y-76253223D01*
X99070027Y-76249371D01*
X98949219Y-75966826D01*
X98793490Y-75701921D01*
X98743162Y-75636921D01*
X98736770Y-75628667D01*
X98605362Y-75458951D01*
X98387887Y-75241855D01*
X98144589Y-75054152D01*
X98037784Y-74991615D01*
X97882877Y-74900913D01*
X97882874Y-74900911D01*
X97879413Y-74898885D01*
X97875728Y-74897317D01*
X97875724Y-74897315D01*
X97680964Y-74814444D01*
X97596657Y-74778571D01*
X97300906Y-74695160D01*
X97035510Y-74655733D01*
X97000252Y-74650495D01*
X97000250Y-74650495D01*
X96996953Y-74650005D01*
X96993622Y-74649865D01*
X96993618Y-74649865D01*
X96956665Y-74648317D01*
X96913323Y-74646500D01*
X95217260Y-74646500D01*
X95093356Y-74654404D01*
X94992343Y-74660847D01*
X94992338Y-74660848D01*
X94988335Y-74661103D01*
X94984398Y-74661865D01*
X94984396Y-74661865D01*
X94928805Y-74672621D01*
X94686641Y-74719474D01*
X94682826Y-74720732D01*
X94682822Y-74720733D01*
X94398632Y-74814444D01*
X94398627Y-74814446D01*
X94394809Y-74815705D01*
X94117571Y-74948238D01*
X94114206Y-74950411D01*
X94114202Y-74950413D01*
X93862786Y-75112750D01*
X93862780Y-75112755D01*
X93859420Y-75114924D01*
X93624541Y-75313061D01*
X93416742Y-75539437D01*
X93239392Y-75790381D01*
X93095366Y-76061827D01*
X93093951Y-76065583D01*
X93093950Y-76065584D01*
X93011495Y-76284373D01*
X92986998Y-76349373D01*
X92986069Y-76353288D01*
X92930521Y-76587360D01*
X92916045Y-76648358D01*
X92883658Y-76953935D01*
X92883745Y-76957936D01*
X92883745Y-76957943D01*
X92889029Y-77200119D01*
X92890361Y-77261150D01*
X92936047Y-77565024D01*
X92937142Y-77568882D01*
X92937143Y-77568885D01*
X92990470Y-77756712D01*
X93019973Y-77860629D01*
X93140781Y-78143174D01*
X93296510Y-78408079D01*
X93298963Y-78411247D01*
X93298965Y-78411250D01*
X93309118Y-78424363D01*
X93484638Y-78651049D01*
X93702113Y-78868145D01*
X93705294Y-78870599D01*
X93705295Y-78870600D01*
X93879596Y-79005072D01*
X93945411Y-79055848D01*
X93948890Y-79057885D01*
X94198183Y-79203852D01*
X94210587Y-79211115D01*
X94214272Y-79212683D01*
X94214276Y-79212685D01*
X94351965Y-79271272D01*
X94493343Y-79331429D01*
X94558623Y-79349840D01*
X94761383Y-79407025D01*
X94821517Y-79444767D01*
X94851699Y-79509028D01*
X94842348Y-79579406D01*
X94796433Y-79633557D01*
X94751116Y-79651999D01*
X94686641Y-79664474D01*
X94682826Y-79665732D01*
X94682822Y-79665733D01*
X94398632Y-79759444D01*
X94398627Y-79759446D01*
X94394809Y-79760705D01*
X94117571Y-79893238D01*
X94114206Y-79895411D01*
X94114202Y-79895413D01*
X93862786Y-80057750D01*
X93862780Y-80057755D01*
X93859420Y-80059924D01*
X93624541Y-80258061D01*
X93607961Y-80276123D01*
X93424118Y-80476402D01*
X93416742Y-80484437D01*
X93239392Y-80735381D01*
X93095366Y-81006827D01*
X93093951Y-81010583D01*
X93093950Y-81010584D01*
X93011495Y-81229373D01*
X92986998Y-81294373D01*
X92986069Y-81298288D01*
X92926950Y-81547408D01*
X92916045Y-81593358D01*
X92883658Y-81898935D01*
X81788000Y-81898935D01*
X81788000Y-79459655D01*
X82984858Y-79459655D01*
X83020104Y-79718638D01*
X83021412Y-79723124D01*
X83021412Y-79723126D01*
X83035512Y-79771500D01*
X83093243Y-79969567D01*
X83095203Y-79973820D01*
X83095204Y-79973821D01*
X83104933Y-79994924D01*
X83202668Y-80206928D01*
X83218533Y-80231126D01*
X83343410Y-80421596D01*
X83343414Y-80421601D01*
X83345976Y-80425509D01*
X83520018Y-80620506D01*
X83720970Y-80787637D01*
X83724973Y-80790066D01*
X83940422Y-80920804D01*
X83940426Y-80920806D01*
X83944419Y-80923229D01*
X84185455Y-81024303D01*
X84438783Y-81088641D01*
X84443434Y-81089109D01*
X84443438Y-81089110D01*
X84636308Y-81108531D01*
X84655867Y-81110500D01*
X89311354Y-81110500D01*
X89313679Y-81110327D01*
X89313685Y-81110327D01*
X89501000Y-81096407D01*
X89501004Y-81096406D01*
X89505652Y-81096061D01*
X89510200Y-81095032D01*
X89510206Y-81095031D01*
X89696601Y-81052853D01*
X89760577Y-81038377D01*
X89796769Y-81024303D01*
X89999824Y-80945340D01*
X89999827Y-80945339D01*
X90004177Y-80943647D01*
X90231098Y-80813951D01*
X90436357Y-80652138D01*
X90615443Y-80461763D01*
X90744227Y-80276123D01*
X90761759Y-80250851D01*
X90761761Y-80250848D01*
X90764424Y-80247009D01*
X90780599Y-80214209D01*
X90877960Y-80016781D01*
X90877961Y-80016778D01*
X90880025Y-80012593D01*
X90884328Y-79999152D01*
X90958280Y-79768123D01*
X90959707Y-79763665D01*
X91001721Y-79505693D01*
X91004853Y-79266429D01*
X91005081Y-79249022D01*
X91005081Y-79249019D01*
X91005142Y-79244345D01*
X90969896Y-78985362D01*
X90963959Y-78964991D01*
X90917500Y-78805600D01*
X90896757Y-78734433D01*
X90787332Y-78497072D01*
X90686370Y-78343079D01*
X90646590Y-78282404D01*
X90646586Y-78282399D01*
X90644024Y-78278491D01*
X90469982Y-78083494D01*
X90269030Y-77916363D01*
X90170834Y-77856776D01*
X90049578Y-77783196D01*
X90049574Y-77783194D01*
X90045581Y-77780771D01*
X89804545Y-77679697D01*
X89551217Y-77615359D01*
X89546566Y-77614891D01*
X89546562Y-77614890D01*
X89337271Y-77593816D01*
X89334133Y-77593500D01*
X84678646Y-77593500D01*
X84676321Y-77593673D01*
X84676315Y-77593673D01*
X84489000Y-77607593D01*
X84488996Y-77607594D01*
X84484348Y-77607939D01*
X84479800Y-77608968D01*
X84479794Y-77608969D01*
X84293399Y-77651147D01*
X84229423Y-77665623D01*
X84225071Y-77667315D01*
X84225069Y-77667316D01*
X83990176Y-77758660D01*
X83990173Y-77758661D01*
X83985823Y-77760353D01*
X83758902Y-77890049D01*
X83553643Y-78051862D01*
X83374557Y-78242237D01*
X83225576Y-78456991D01*
X83223510Y-78461181D01*
X83223508Y-78461184D01*
X83128482Y-78653879D01*
X83109975Y-78691407D01*
X83108553Y-78695850D01*
X83108552Y-78695852D01*
X83078286Y-78790404D01*
X83030293Y-78940335D01*
X82988279Y-79198307D01*
X82987676Y-79244345D01*
X82984946Y-79452959D01*
X82984858Y-79459655D01*
X81788000Y-79459655D01*
X81788000Y-70383935D01*
X101881658Y-70383935D01*
X101881745Y-70387936D01*
X101881745Y-70387943D01*
X101887279Y-70641558D01*
X101888361Y-70691150D01*
X101934047Y-70995024D01*
X102017973Y-71290629D01*
X102138781Y-71573174D01*
X102294510Y-71838079D01*
X102482638Y-72081049D01*
X102700113Y-72298145D01*
X102703294Y-72300599D01*
X102703295Y-72300600D01*
X102924886Y-72471556D01*
X102943411Y-72485848D01*
X102946890Y-72487885D01*
X103200082Y-72636135D01*
X103208587Y-72641115D01*
X103212272Y-72642683D01*
X103212276Y-72642685D01*
X103349965Y-72701272D01*
X103491343Y-72761429D01*
X103787094Y-72844840D01*
X104008560Y-72877741D01*
X104087748Y-72889505D01*
X104087750Y-72889505D01*
X104091047Y-72889995D01*
X104094378Y-72890135D01*
X104094382Y-72890135D01*
X104131335Y-72891683D01*
X104174677Y-72893500D01*
X106070740Y-72893500D01*
X106194644Y-72885596D01*
X106295657Y-72879153D01*
X106295662Y-72879152D01*
X106299665Y-72878897D01*
X106303602Y-72878135D01*
X106303604Y-72878135D01*
X106359195Y-72867379D01*
X106601359Y-72820526D01*
X106605174Y-72819268D01*
X106605178Y-72819267D01*
X106889368Y-72725556D01*
X106889373Y-72725554D01*
X106893191Y-72724295D01*
X107170429Y-72591762D01*
X107173794Y-72589589D01*
X107173798Y-72589587D01*
X107425214Y-72427250D01*
X107425220Y-72427245D01*
X107428580Y-72425076D01*
X107663459Y-72226939D01*
X107828999Y-72046600D01*
X107868543Y-72003521D01*
X107868545Y-72003519D01*
X107871258Y-72000563D01*
X108048608Y-71749619D01*
X108192634Y-71478173D01*
X108251252Y-71322635D01*
X108299585Y-71194388D01*
X108299587Y-71194382D01*
X108301002Y-71190627D01*
X108360387Y-70940388D01*
X108371026Y-70895558D01*
X108371027Y-70895553D01*
X108371955Y-70891642D01*
X108404342Y-70586065D01*
X108401180Y-70441119D01*
X108399932Y-70383935D01*
X109981658Y-70383935D01*
X109981745Y-70387936D01*
X109981745Y-70387943D01*
X109987279Y-70641558D01*
X109988361Y-70691150D01*
X110034047Y-70995024D01*
X110117973Y-71290629D01*
X110238781Y-71573174D01*
X110394510Y-71838079D01*
X110582638Y-72081049D01*
X110800113Y-72298145D01*
X110803294Y-72300599D01*
X110803295Y-72300600D01*
X111024886Y-72471556D01*
X111043411Y-72485848D01*
X111046890Y-72487885D01*
X111300082Y-72636135D01*
X111308587Y-72641115D01*
X111312272Y-72642683D01*
X111312276Y-72642685D01*
X111449965Y-72701272D01*
X111591343Y-72761429D01*
X111887094Y-72844840D01*
X112108560Y-72877741D01*
X112187748Y-72889505D01*
X112187750Y-72889505D01*
X112191047Y-72889995D01*
X112194378Y-72890135D01*
X112194382Y-72890135D01*
X112231335Y-72891683D01*
X112274677Y-72893500D01*
X113970740Y-72893500D01*
X114094644Y-72885596D01*
X114195657Y-72879153D01*
X114195662Y-72879152D01*
X114199665Y-72878897D01*
X114203602Y-72878135D01*
X114203604Y-72878135D01*
X114259195Y-72867379D01*
X114501359Y-72820526D01*
X114505174Y-72819268D01*
X114505178Y-72819267D01*
X114789368Y-72725556D01*
X114789373Y-72725554D01*
X114793191Y-72724295D01*
X115070429Y-72591762D01*
X115073794Y-72589589D01*
X115073798Y-72589587D01*
X115325214Y-72427250D01*
X115325220Y-72427245D01*
X115328580Y-72425076D01*
X115563459Y-72226939D01*
X115728999Y-72046600D01*
X115768543Y-72003521D01*
X115768545Y-72003519D01*
X115771258Y-72000563D01*
X115948608Y-71749619D01*
X116092634Y-71478173D01*
X116151252Y-71322635D01*
X116199585Y-71194388D01*
X116199587Y-71194382D01*
X116201002Y-71190627D01*
X116260387Y-70940388D01*
X116271026Y-70895558D01*
X116271027Y-70895553D01*
X116271955Y-70891642D01*
X116304342Y-70586065D01*
X116301180Y-70441119D01*
X116297727Y-70282866D01*
X116297726Y-70282860D01*
X116297639Y-70278850D01*
X116275250Y-70129935D01*
X146077658Y-70129935D01*
X146077745Y-70133936D01*
X146077745Y-70133943D01*
X146083200Y-70383935D01*
X146084361Y-70437150D01*
X146130047Y-70741024D01*
X146213973Y-71036629D01*
X146334781Y-71319174D01*
X146490510Y-71584079D01*
X146678638Y-71827049D01*
X146896113Y-72044145D01*
X146899294Y-72046599D01*
X146899295Y-72046600D01*
X147129213Y-72223980D01*
X147139411Y-72231848D01*
X147142890Y-72233885D01*
X147323255Y-72339493D01*
X147404587Y-72387115D01*
X147408272Y-72388683D01*
X147408276Y-72388685D01*
X147493801Y-72425076D01*
X147687343Y-72507429D01*
X147983094Y-72590840D01*
X148204560Y-72623741D01*
X148283748Y-72635505D01*
X148283750Y-72635505D01*
X148287047Y-72635995D01*
X148290378Y-72636135D01*
X148290382Y-72636135D01*
X148327335Y-72637683D01*
X148370677Y-72639500D01*
X150066740Y-72639500D01*
X150190644Y-72631596D01*
X150291657Y-72625153D01*
X150291662Y-72625152D01*
X150295665Y-72624897D01*
X150299602Y-72624135D01*
X150299604Y-72624135D01*
X150355195Y-72613379D01*
X150597359Y-72566526D01*
X150601174Y-72565268D01*
X150601178Y-72565267D01*
X150885368Y-72471556D01*
X150885373Y-72471554D01*
X150889191Y-72470295D01*
X151166429Y-72337762D01*
X151169794Y-72335589D01*
X151169798Y-72335587D01*
X151421214Y-72173250D01*
X151421220Y-72173245D01*
X151424580Y-72171076D01*
X151659459Y-71972939D01*
X151867258Y-71746563D01*
X152044608Y-71495619D01*
X152188634Y-71224173D01*
X152297002Y-70936627D01*
X152367955Y-70637642D01*
X152400342Y-70332065D01*
X152399095Y-70274881D01*
X152395932Y-70129935D01*
X153977658Y-70129935D01*
X153977745Y-70133936D01*
X153977745Y-70133943D01*
X153983200Y-70383935D01*
X153984361Y-70437150D01*
X154030047Y-70741024D01*
X154113973Y-71036629D01*
X154234781Y-71319174D01*
X154390510Y-71584079D01*
X154578638Y-71827049D01*
X154796113Y-72044145D01*
X154799294Y-72046599D01*
X154799295Y-72046600D01*
X155029213Y-72223980D01*
X155039411Y-72231848D01*
X155042890Y-72233885D01*
X155223255Y-72339493D01*
X155304587Y-72387115D01*
X155308272Y-72388683D01*
X155308276Y-72388685D01*
X155393801Y-72425076D01*
X155587343Y-72507429D01*
X155883094Y-72590840D01*
X156104560Y-72623741D01*
X156183748Y-72635505D01*
X156183750Y-72635505D01*
X156187047Y-72635995D01*
X156190378Y-72636135D01*
X156190382Y-72636135D01*
X156227335Y-72637683D01*
X156270677Y-72639500D01*
X158166740Y-72639500D01*
X158290644Y-72631596D01*
X158391657Y-72625153D01*
X158391662Y-72625152D01*
X158395665Y-72624897D01*
X158399602Y-72624135D01*
X158399604Y-72624135D01*
X158455195Y-72613379D01*
X158697359Y-72566526D01*
X158701174Y-72565268D01*
X158701178Y-72565267D01*
X158985368Y-72471556D01*
X158985373Y-72471554D01*
X158989191Y-72470295D01*
X159266429Y-72337762D01*
X159269794Y-72335589D01*
X159269798Y-72335587D01*
X159521214Y-72173250D01*
X159521220Y-72173245D01*
X159524580Y-72171076D01*
X159759459Y-71972939D01*
X159967258Y-71746563D01*
X160144608Y-71495619D01*
X160288634Y-71224173D01*
X160397002Y-70936627D01*
X160467955Y-70637642D01*
X160500342Y-70332065D01*
X160499095Y-70274881D01*
X160493727Y-70028866D01*
X160493726Y-70028860D01*
X160493639Y-70024850D01*
X160447953Y-69720976D01*
X160364027Y-69425371D01*
X160243219Y-69142826D01*
X160087490Y-68877921D01*
X159899362Y-68634951D01*
X159681887Y-68417855D01*
X159630536Y-68378238D01*
X159441782Y-68232615D01*
X159441778Y-68232612D01*
X159438589Y-68230152D01*
X159302952Y-68150733D01*
X159176877Y-68076913D01*
X159176874Y-68076911D01*
X159173413Y-68074885D01*
X159169728Y-68073317D01*
X159169724Y-68073315D01*
X158974964Y-67990444D01*
X158890657Y-67954571D01*
X158594906Y-67871160D01*
X158363934Y-67836847D01*
X158294252Y-67826495D01*
X158294250Y-67826495D01*
X158290953Y-67826005D01*
X158287622Y-67825865D01*
X158287618Y-67825865D01*
X158250665Y-67824317D01*
X158207323Y-67822500D01*
X156311260Y-67822500D01*
X156187356Y-67830404D01*
X156086343Y-67836847D01*
X156086338Y-67836848D01*
X156082335Y-67837103D01*
X156078398Y-67837865D01*
X156078396Y-67837865D01*
X156022805Y-67848621D01*
X155780641Y-67895474D01*
X155776826Y-67896732D01*
X155776822Y-67896733D01*
X155492632Y-67990444D01*
X155492627Y-67990446D01*
X155488809Y-67991705D01*
X155211571Y-68124238D01*
X155208206Y-68126411D01*
X155208202Y-68126413D01*
X154956786Y-68288750D01*
X154956780Y-68288755D01*
X154953420Y-68290924D01*
X154718541Y-68489061D01*
X154633700Y-68581487D01*
X154550748Y-68671855D01*
X154510742Y-68715437D01*
X154333392Y-68966381D01*
X154189366Y-69237827D01*
X154187951Y-69241583D01*
X154187950Y-69241584D01*
X154092225Y-69495584D01*
X154080998Y-69525373D01*
X154080069Y-69529288D01*
X154020721Y-69779373D01*
X154010045Y-69824358D01*
X153977658Y-70129935D01*
X152395932Y-70129935D01*
X152393727Y-70028866D01*
X152393726Y-70028860D01*
X152393639Y-70024850D01*
X152347953Y-69720976D01*
X152264027Y-69425371D01*
X152143219Y-69142826D01*
X151987490Y-68877921D01*
X151799362Y-68634951D01*
X151581887Y-68417855D01*
X151530536Y-68378238D01*
X151341782Y-68232615D01*
X151341778Y-68232612D01*
X151338589Y-68230152D01*
X151202952Y-68150733D01*
X151076877Y-68076913D01*
X151076874Y-68076911D01*
X151073413Y-68074885D01*
X151069728Y-68073317D01*
X151069724Y-68073315D01*
X150874964Y-67990444D01*
X150790657Y-67954571D01*
X150494906Y-67871160D01*
X150263934Y-67836847D01*
X150194252Y-67826495D01*
X150194250Y-67826495D01*
X150190953Y-67826005D01*
X150187622Y-67825865D01*
X150187618Y-67825865D01*
X150150665Y-67824317D01*
X150107323Y-67822500D01*
X148411260Y-67822500D01*
X148287356Y-67830404D01*
X148186343Y-67836847D01*
X148186338Y-67836848D01*
X148182335Y-67837103D01*
X148178398Y-67837865D01*
X148178396Y-67837865D01*
X148122805Y-67848621D01*
X147880641Y-67895474D01*
X147876826Y-67896732D01*
X147876822Y-67896733D01*
X147592632Y-67990444D01*
X147592627Y-67990446D01*
X147588809Y-67991705D01*
X147311571Y-68124238D01*
X147308206Y-68126411D01*
X147308202Y-68126413D01*
X147056786Y-68288750D01*
X147056780Y-68288755D01*
X147053420Y-68290924D01*
X146818541Y-68489061D01*
X146733700Y-68581487D01*
X146650748Y-68671855D01*
X146610742Y-68715437D01*
X146433392Y-68966381D01*
X146289366Y-69237827D01*
X146287951Y-69241583D01*
X146287950Y-69241584D01*
X146192225Y-69495584D01*
X146180998Y-69525373D01*
X146180069Y-69529288D01*
X146120721Y-69779373D01*
X146110045Y-69824358D01*
X146077658Y-70129935D01*
X116275250Y-70129935D01*
X116251953Y-69974976D01*
X116168027Y-69679371D01*
X116047219Y-69396826D01*
X115891490Y-69131921D01*
X115703362Y-68888951D01*
X115485887Y-68671855D01*
X115438053Y-68634951D01*
X115245782Y-68486615D01*
X115245778Y-68486612D01*
X115242589Y-68484152D01*
X115129362Y-68417855D01*
X114980877Y-68330913D01*
X114980874Y-68330911D01*
X114977413Y-68328885D01*
X114973728Y-68327317D01*
X114973724Y-68327315D01*
X114751164Y-68232615D01*
X114694657Y-68208571D01*
X114596087Y-68180771D01*
X114426617Y-68132975D01*
X114366483Y-68095233D01*
X114336301Y-68030972D01*
X114345652Y-67960594D01*
X114391567Y-67906443D01*
X114436884Y-67888001D01*
X114501359Y-67875526D01*
X114505174Y-67874268D01*
X114505178Y-67874267D01*
X114789368Y-67780556D01*
X114789373Y-67780554D01*
X114793191Y-67779295D01*
X115070429Y-67646762D01*
X115073794Y-67644589D01*
X115073798Y-67644587D01*
X115325214Y-67482250D01*
X115325220Y-67482245D01*
X115328580Y-67480076D01*
X115563459Y-67281939D01*
X115763956Y-67063518D01*
X115768543Y-67058521D01*
X115768545Y-67058519D01*
X115771258Y-67055563D01*
X115948608Y-66804619D01*
X116092634Y-66533173D01*
X116148522Y-66384879D01*
X116199585Y-66249388D01*
X116199587Y-66249382D01*
X116201002Y-66245627D01*
X116271955Y-65946642D01*
X116304342Y-65641065D01*
X116303264Y-65591629D01*
X116297727Y-65337866D01*
X116297726Y-65337860D01*
X116297639Y-65333850D01*
X116251953Y-65029976D01*
X116168027Y-64734371D01*
X116146890Y-64684935D01*
X146077658Y-64684935D01*
X146077745Y-64688936D01*
X146077745Y-64688943D01*
X146082068Y-64887065D01*
X146084361Y-64992150D01*
X146130047Y-65296024D01*
X146213973Y-65591629D01*
X146334781Y-65874174D01*
X146490510Y-66139079D01*
X146678638Y-66382049D01*
X146896113Y-66599145D01*
X147139411Y-66786848D01*
X147142890Y-66788885D01*
X147323255Y-66894493D01*
X147404587Y-66942115D01*
X147408272Y-66943683D01*
X147408276Y-66943685D01*
X147545965Y-67002272D01*
X147687343Y-67062429D01*
X147983094Y-67145840D01*
X148204560Y-67178741D01*
X148283748Y-67190505D01*
X148283750Y-67190505D01*
X148287047Y-67190995D01*
X148290378Y-67191135D01*
X148290382Y-67191135D01*
X148327335Y-67192683D01*
X148370677Y-67194500D01*
X150066740Y-67194500D01*
X150190644Y-67186596D01*
X150291657Y-67180153D01*
X150291662Y-67180152D01*
X150295665Y-67179897D01*
X150299602Y-67179135D01*
X150299604Y-67179135D01*
X150355195Y-67168379D01*
X150597359Y-67121526D01*
X150601174Y-67120268D01*
X150601178Y-67120267D01*
X150885368Y-67026556D01*
X150885373Y-67026554D01*
X150889191Y-67025295D01*
X151166429Y-66892762D01*
X151169794Y-66890589D01*
X151169798Y-66890587D01*
X151421214Y-66728250D01*
X151421220Y-66728245D01*
X151424580Y-66726076D01*
X151649047Y-66536722D01*
X151656390Y-66530528D01*
X151656391Y-66530527D01*
X151659459Y-66527939D01*
X151867258Y-66301563D01*
X152044608Y-66050619D01*
X152188634Y-65779173D01*
X152199584Y-65750119D01*
X152295585Y-65495388D01*
X152295587Y-65495382D01*
X152297002Y-65491627D01*
X152311847Y-65429071D01*
X152367026Y-65196558D01*
X152367027Y-65196553D01*
X152367955Y-65192642D01*
X152400342Y-64887065D01*
X152399193Y-64834373D01*
X152395932Y-64684935D01*
X153977658Y-64684935D01*
X153977745Y-64688936D01*
X153977745Y-64688943D01*
X153982068Y-64887065D01*
X153984361Y-64992150D01*
X154030047Y-65296024D01*
X154113973Y-65591629D01*
X154234781Y-65874174D01*
X154390510Y-66139079D01*
X154578638Y-66382049D01*
X154796113Y-66599145D01*
X155039411Y-66786848D01*
X155042890Y-66788885D01*
X155223255Y-66894493D01*
X155304587Y-66942115D01*
X155308272Y-66943683D01*
X155308276Y-66943685D01*
X155445965Y-67002272D01*
X155587343Y-67062429D01*
X155883094Y-67145840D01*
X156104560Y-67178741D01*
X156183748Y-67190505D01*
X156183750Y-67190505D01*
X156187047Y-67190995D01*
X156190378Y-67191135D01*
X156190382Y-67191135D01*
X156227335Y-67192683D01*
X156270677Y-67194500D01*
X158166740Y-67194500D01*
X158290644Y-67186596D01*
X158391657Y-67180153D01*
X158391662Y-67180152D01*
X158395665Y-67179897D01*
X158399602Y-67179135D01*
X158399604Y-67179135D01*
X158455195Y-67168379D01*
X158697359Y-67121526D01*
X158701174Y-67120268D01*
X158701178Y-67120267D01*
X158985368Y-67026556D01*
X158985373Y-67026554D01*
X158989191Y-67025295D01*
X159266429Y-66892762D01*
X159269794Y-66890589D01*
X159269798Y-66890587D01*
X159521214Y-66728250D01*
X159521220Y-66728245D01*
X159524580Y-66726076D01*
X159749047Y-66536722D01*
X159756390Y-66530528D01*
X159756391Y-66530527D01*
X159759459Y-66527939D01*
X159967258Y-66301563D01*
X160144608Y-66050619D01*
X160288634Y-65779173D01*
X160299584Y-65750119D01*
X160395585Y-65495388D01*
X160395587Y-65495382D01*
X160397002Y-65491627D01*
X160411847Y-65429071D01*
X160467026Y-65196558D01*
X160467027Y-65196553D01*
X160467955Y-65192642D01*
X160500342Y-64887065D01*
X160499193Y-64834373D01*
X160493727Y-64583866D01*
X160493726Y-64583860D01*
X160493639Y-64579850D01*
X160447953Y-64275976D01*
X160423652Y-64190381D01*
X160365121Y-63984224D01*
X160365121Y-63984223D01*
X160364027Y-63980371D01*
X160243219Y-63697826D01*
X160087490Y-63432921D01*
X160051093Y-63385913D01*
X159984141Y-63299444D01*
X159899362Y-63189951D01*
X159681887Y-62972855D01*
X159438589Y-62785152D01*
X159257702Y-62679238D01*
X159176877Y-62631913D01*
X159176874Y-62631911D01*
X159173413Y-62629885D01*
X159169728Y-62628317D01*
X159169724Y-62628315D01*
X158974964Y-62545444D01*
X158890657Y-62509571D01*
X158594906Y-62426160D01*
X158363934Y-62391847D01*
X158294252Y-62381495D01*
X158294250Y-62381495D01*
X158290953Y-62381005D01*
X158287622Y-62380865D01*
X158287618Y-62380865D01*
X158250665Y-62379317D01*
X158207323Y-62377500D01*
X156311260Y-62377500D01*
X156187356Y-62385404D01*
X156086343Y-62391847D01*
X156086338Y-62391848D01*
X156082335Y-62392103D01*
X156078398Y-62392865D01*
X156078396Y-62392865D01*
X156022805Y-62403621D01*
X155780641Y-62450474D01*
X155776826Y-62451732D01*
X155776822Y-62451733D01*
X155492632Y-62545444D01*
X155492627Y-62545446D01*
X155488809Y-62546705D01*
X155211571Y-62679238D01*
X155208206Y-62681411D01*
X155208202Y-62681413D01*
X154956786Y-62843750D01*
X154956780Y-62843755D01*
X154953420Y-62845924D01*
X154718541Y-63044061D01*
X154715825Y-63047020D01*
X154517045Y-63263571D01*
X154510742Y-63270437D01*
X154333392Y-63521381D01*
X154189366Y-63792827D01*
X154187951Y-63796583D01*
X154187950Y-63796584D01*
X154100843Y-64027717D01*
X154080998Y-64080373D01*
X154010045Y-64379358D01*
X153977658Y-64684935D01*
X152395932Y-64684935D01*
X152393727Y-64583866D01*
X152393726Y-64583860D01*
X152393639Y-64579850D01*
X152347953Y-64275976D01*
X152323652Y-64190381D01*
X152265121Y-63984224D01*
X152265121Y-63984223D01*
X152264027Y-63980371D01*
X152143219Y-63697826D01*
X151987490Y-63432921D01*
X151951093Y-63385913D01*
X151884141Y-63299444D01*
X151799362Y-63189951D01*
X151581887Y-62972855D01*
X151338589Y-62785152D01*
X151157702Y-62679238D01*
X151076877Y-62631913D01*
X151076874Y-62631911D01*
X151073413Y-62629885D01*
X151069728Y-62628317D01*
X151069724Y-62628315D01*
X150874964Y-62545444D01*
X150790657Y-62509571D01*
X150494906Y-62426160D01*
X150263934Y-62391847D01*
X150194252Y-62381495D01*
X150194250Y-62381495D01*
X150190953Y-62381005D01*
X150187622Y-62380865D01*
X150187618Y-62380865D01*
X150150665Y-62379317D01*
X150107323Y-62377500D01*
X148411260Y-62377500D01*
X148287356Y-62385404D01*
X148186343Y-62391847D01*
X148186338Y-62391848D01*
X148182335Y-62392103D01*
X148178398Y-62392865D01*
X148178396Y-62392865D01*
X148122805Y-62403621D01*
X147880641Y-62450474D01*
X147876826Y-62451732D01*
X147876822Y-62451733D01*
X147592632Y-62545444D01*
X147592627Y-62545446D01*
X147588809Y-62546705D01*
X147311571Y-62679238D01*
X147308206Y-62681411D01*
X147308202Y-62681413D01*
X147056786Y-62843750D01*
X147056780Y-62843755D01*
X147053420Y-62845924D01*
X146818541Y-63044061D01*
X146815825Y-63047020D01*
X146617045Y-63263571D01*
X146610742Y-63270437D01*
X146433392Y-63521381D01*
X146289366Y-63792827D01*
X146287951Y-63796583D01*
X146287950Y-63796584D01*
X146200843Y-64027717D01*
X146180998Y-64080373D01*
X146110045Y-64379358D01*
X146077658Y-64684935D01*
X116146890Y-64684935D01*
X116047219Y-64451826D01*
X115891490Y-64186921D01*
X115703362Y-63943951D01*
X115485887Y-63726855D01*
X115242589Y-63539152D01*
X115204891Y-63517079D01*
X114980877Y-63385913D01*
X114980874Y-63385911D01*
X114977413Y-63383885D01*
X114973728Y-63382317D01*
X114973724Y-63382315D01*
X114778964Y-63299444D01*
X114694657Y-63263571D01*
X114398906Y-63180160D01*
X114167934Y-63145847D01*
X114098252Y-63135495D01*
X114098250Y-63135495D01*
X114094953Y-63135005D01*
X114091622Y-63134865D01*
X114091618Y-63134865D01*
X114054665Y-63133317D01*
X114011323Y-63131500D01*
X112315260Y-63131500D01*
X112191356Y-63139404D01*
X112090343Y-63145847D01*
X112090338Y-63145848D01*
X112086335Y-63146103D01*
X112082398Y-63146865D01*
X112082396Y-63146865D01*
X112026805Y-63157621D01*
X111784641Y-63204474D01*
X111780826Y-63205732D01*
X111780822Y-63205733D01*
X111496632Y-63299444D01*
X111496627Y-63299446D01*
X111492809Y-63300705D01*
X111215571Y-63433238D01*
X111212206Y-63435411D01*
X111212202Y-63435413D01*
X110960786Y-63597750D01*
X110960780Y-63597755D01*
X110957420Y-63599924D01*
X110836987Y-63701518D01*
X110728746Y-63792827D01*
X110722541Y-63798061D01*
X110514742Y-64024437D01*
X110337392Y-64275381D01*
X110193366Y-64546827D01*
X110191951Y-64550583D01*
X110191950Y-64550584D01*
X110180921Y-64579850D01*
X110084998Y-64834373D01*
X110084069Y-64838288D01*
X110046614Y-64996119D01*
X110014045Y-65133358D01*
X109981658Y-65438935D01*
X109981745Y-65442936D01*
X109981745Y-65442943D01*
X109986068Y-65641065D01*
X109988361Y-65746150D01*
X110034047Y-66050024D01*
X110035142Y-66053882D01*
X110035143Y-66053885D01*
X110059331Y-66139079D01*
X110117973Y-66345629D01*
X110238781Y-66628174D01*
X110394510Y-66893079D01*
X110396963Y-66896247D01*
X110396965Y-66896250D01*
X110432478Y-66942115D01*
X110582638Y-67136049D01*
X110800113Y-67353145D01*
X111043411Y-67540848D01*
X111046890Y-67542885D01*
X111227255Y-67648493D01*
X111308587Y-67696115D01*
X111312272Y-67697683D01*
X111312276Y-67697685D01*
X111449965Y-67756272D01*
X111591343Y-67816429D01*
X111663739Y-67836847D01*
X111859383Y-67892025D01*
X111919517Y-67929767D01*
X111949699Y-67994028D01*
X111940348Y-68064406D01*
X111894433Y-68118557D01*
X111849116Y-68136999D01*
X111784641Y-68149474D01*
X111780826Y-68150732D01*
X111780822Y-68150733D01*
X111496632Y-68244444D01*
X111496627Y-68244446D01*
X111492809Y-68245705D01*
X111215571Y-68378238D01*
X111212206Y-68380411D01*
X111212202Y-68380413D01*
X110960786Y-68542750D01*
X110960780Y-68542755D01*
X110957420Y-68544924D01*
X110722541Y-68743061D01*
X110514742Y-68969437D01*
X110337392Y-69220381D01*
X110193366Y-69491827D01*
X110084998Y-69779373D01*
X110014045Y-70078358D01*
X109981658Y-70383935D01*
X108399932Y-70383935D01*
X108397727Y-70282866D01*
X108397726Y-70282860D01*
X108397639Y-70278850D01*
X108351953Y-69974976D01*
X108268027Y-69679371D01*
X108147219Y-69396826D01*
X107991490Y-69131921D01*
X107803362Y-68888951D01*
X107585887Y-68671855D01*
X107538053Y-68634951D01*
X107345782Y-68486615D01*
X107345778Y-68486612D01*
X107342589Y-68484152D01*
X107229362Y-68417855D01*
X107080877Y-68330913D01*
X107080874Y-68330911D01*
X107077413Y-68328885D01*
X107073728Y-68327317D01*
X107073724Y-68327315D01*
X106851164Y-68232615D01*
X106794657Y-68208571D01*
X106696087Y-68180771D01*
X106526617Y-68132975D01*
X106466483Y-68095233D01*
X106436301Y-68030972D01*
X106445652Y-67960594D01*
X106491567Y-67906443D01*
X106536884Y-67888001D01*
X106601359Y-67875526D01*
X106605174Y-67874268D01*
X106605178Y-67874267D01*
X106889368Y-67780556D01*
X106889373Y-67780554D01*
X106893191Y-67779295D01*
X107170429Y-67646762D01*
X107173794Y-67644589D01*
X107173798Y-67644587D01*
X107425214Y-67482250D01*
X107425220Y-67482245D01*
X107428580Y-67480076D01*
X107663459Y-67281939D01*
X107863956Y-67063518D01*
X107868543Y-67058521D01*
X107868545Y-67058519D01*
X107871258Y-67055563D01*
X108048608Y-66804619D01*
X108192634Y-66533173D01*
X108248522Y-66384879D01*
X108299585Y-66249388D01*
X108299587Y-66249382D01*
X108301002Y-66245627D01*
X108371955Y-65946642D01*
X108404342Y-65641065D01*
X108403264Y-65591629D01*
X108397727Y-65337866D01*
X108397726Y-65337860D01*
X108397639Y-65333850D01*
X108351953Y-65029976D01*
X108268027Y-64734371D01*
X108147219Y-64451826D01*
X107991490Y-64186921D01*
X107803362Y-63943951D01*
X107585887Y-63726855D01*
X107342589Y-63539152D01*
X107304891Y-63517079D01*
X107080877Y-63385913D01*
X107080874Y-63385911D01*
X107077413Y-63383885D01*
X107073728Y-63382317D01*
X107073724Y-63382315D01*
X106878964Y-63299444D01*
X106794657Y-63263571D01*
X106498906Y-63180160D01*
X106267934Y-63145847D01*
X106198252Y-63135495D01*
X106198250Y-63135495D01*
X106194953Y-63135005D01*
X106191622Y-63134865D01*
X106191618Y-63134865D01*
X106154665Y-63133317D01*
X106111323Y-63131500D01*
X104215260Y-63131500D01*
X104091356Y-63139404D01*
X103990343Y-63145847D01*
X103990338Y-63145848D01*
X103986335Y-63146103D01*
X103982398Y-63146865D01*
X103982396Y-63146865D01*
X103926805Y-63157621D01*
X103684641Y-63204474D01*
X103680826Y-63205732D01*
X103680822Y-63205733D01*
X103396632Y-63299444D01*
X103396627Y-63299446D01*
X103392809Y-63300705D01*
X103115571Y-63433238D01*
X103112206Y-63435411D01*
X103112202Y-63435413D01*
X102860786Y-63597750D01*
X102860780Y-63597755D01*
X102857420Y-63599924D01*
X102736987Y-63701518D01*
X102628746Y-63792827D01*
X102622541Y-63798061D01*
X102414742Y-64024437D01*
X102237392Y-64275381D01*
X102093366Y-64546827D01*
X102091951Y-64550583D01*
X102091950Y-64550584D01*
X102080921Y-64579850D01*
X101984998Y-64834373D01*
X101984069Y-64838288D01*
X101946614Y-64996119D01*
X101914045Y-65133358D01*
X101881658Y-65438935D01*
X101881745Y-65442936D01*
X101881745Y-65442943D01*
X101886068Y-65641065D01*
X101888361Y-65746150D01*
X101934047Y-66050024D01*
X101935142Y-66053882D01*
X101935143Y-66053885D01*
X101959331Y-66139079D01*
X102017973Y-66345629D01*
X102138781Y-66628174D01*
X102294510Y-66893079D01*
X102296963Y-66896247D01*
X102296965Y-66896250D01*
X102332478Y-66942115D01*
X102482638Y-67136049D01*
X102700113Y-67353145D01*
X102943411Y-67540848D01*
X102946890Y-67542885D01*
X103127255Y-67648493D01*
X103208587Y-67696115D01*
X103212272Y-67697683D01*
X103212276Y-67697685D01*
X103349965Y-67756272D01*
X103491343Y-67816429D01*
X103563739Y-67836847D01*
X103759383Y-67892025D01*
X103819517Y-67929767D01*
X103849699Y-67994028D01*
X103840348Y-68064406D01*
X103794433Y-68118557D01*
X103749116Y-68136999D01*
X103684641Y-68149474D01*
X103680826Y-68150732D01*
X103680822Y-68150733D01*
X103396632Y-68244444D01*
X103396627Y-68244446D01*
X103392809Y-68245705D01*
X103115571Y-68378238D01*
X103112206Y-68380411D01*
X103112202Y-68380413D01*
X102860786Y-68542750D01*
X102860780Y-68542755D01*
X102857420Y-68544924D01*
X102622541Y-68743061D01*
X102414742Y-68969437D01*
X102237392Y-69220381D01*
X102093366Y-69491827D01*
X101984998Y-69779373D01*
X101914045Y-70078358D01*
X101881658Y-70383935D01*
X81788000Y-70383935D01*
X81788000Y-59588935D01*
X92483658Y-59588935D01*
X92483745Y-59592936D01*
X92483745Y-59592943D01*
X92488068Y-59791065D01*
X92490361Y-59896150D01*
X92536047Y-60200024D01*
X92537142Y-60203882D01*
X92537143Y-60203885D01*
X92570931Y-60322894D01*
X92619973Y-60495629D01*
X92740781Y-60778174D01*
X92896510Y-61043079D01*
X93084638Y-61286049D01*
X93302113Y-61503145D01*
X93545411Y-61690848D01*
X93548890Y-61692885D01*
X93729255Y-61798493D01*
X93810587Y-61846115D01*
X93814272Y-61847683D01*
X93814276Y-61847685D01*
X93951965Y-61906272D01*
X94093343Y-61966429D01*
X94389094Y-62049840D01*
X94610560Y-62082741D01*
X94689748Y-62094505D01*
X94689750Y-62094505D01*
X94693047Y-62094995D01*
X94696378Y-62095135D01*
X94696382Y-62095135D01*
X94733335Y-62096683D01*
X94776677Y-62098500D01*
X96472740Y-62098500D01*
X96596644Y-62090596D01*
X96697657Y-62084153D01*
X96697662Y-62084152D01*
X96701665Y-62083897D01*
X96705602Y-62083135D01*
X96705604Y-62083135D01*
X96761195Y-62072379D01*
X97003359Y-62025526D01*
X97007174Y-62024268D01*
X97007178Y-62024267D01*
X97291368Y-61930556D01*
X97291373Y-61930554D01*
X97295191Y-61929295D01*
X97572429Y-61796762D01*
X97575794Y-61794589D01*
X97575798Y-61794587D01*
X97827214Y-61632250D01*
X97827220Y-61632245D01*
X97830580Y-61630076D01*
X98065459Y-61431939D01*
X98202282Y-61282884D01*
X98270543Y-61208521D01*
X98270545Y-61208519D01*
X98273258Y-61205563D01*
X98450608Y-60954619D01*
X98594634Y-60683173D01*
X98606741Y-60651049D01*
X98701585Y-60399388D01*
X98701587Y-60399382D01*
X98703002Y-60395627D01*
X98762091Y-60146635D01*
X98773026Y-60100558D01*
X98773027Y-60100553D01*
X98773955Y-60096642D01*
X98806342Y-59791065D01*
X98805732Y-59763081D01*
X98801932Y-59588935D01*
X100383658Y-59588935D01*
X100383745Y-59592936D01*
X100383745Y-59592943D01*
X100388068Y-59791065D01*
X100390361Y-59896150D01*
X100436047Y-60200024D01*
X100437142Y-60203882D01*
X100437143Y-60203885D01*
X100470931Y-60322894D01*
X100519973Y-60495629D01*
X100640781Y-60778174D01*
X100796510Y-61043079D01*
X100984638Y-61286049D01*
X101202113Y-61503145D01*
X101445411Y-61690848D01*
X101448890Y-61692885D01*
X101629255Y-61798493D01*
X101710587Y-61846115D01*
X101714272Y-61847683D01*
X101714276Y-61847685D01*
X101851965Y-61906272D01*
X101993343Y-61966429D01*
X102289094Y-62049840D01*
X102510560Y-62082741D01*
X102589748Y-62094505D01*
X102589750Y-62094505D01*
X102593047Y-62094995D01*
X102596378Y-62095135D01*
X102596382Y-62095135D01*
X102633335Y-62096683D01*
X102676677Y-62098500D01*
X104572740Y-62098500D01*
X104696644Y-62090596D01*
X104797657Y-62084153D01*
X104797662Y-62084152D01*
X104801665Y-62083897D01*
X104805602Y-62083135D01*
X104805604Y-62083135D01*
X104861195Y-62072379D01*
X105103359Y-62025526D01*
X105107174Y-62024268D01*
X105107178Y-62024267D01*
X105391368Y-61930556D01*
X105391373Y-61930554D01*
X105395191Y-61929295D01*
X105672429Y-61796762D01*
X105675794Y-61794589D01*
X105675798Y-61794587D01*
X105927214Y-61632250D01*
X105927220Y-61632245D01*
X105930580Y-61630076D01*
X106165459Y-61431939D01*
X106302282Y-61282884D01*
X106370543Y-61208521D01*
X106370545Y-61208519D01*
X106373258Y-61205563D01*
X106550608Y-60954619D01*
X106694634Y-60683173D01*
X106706741Y-60651049D01*
X106801585Y-60399388D01*
X106801587Y-60399382D01*
X106803002Y-60395627D01*
X106862091Y-60146635D01*
X106873026Y-60100558D01*
X106873027Y-60100553D01*
X106873955Y-60096642D01*
X106906342Y-59791065D01*
X106905732Y-59763081D01*
X106899727Y-59487866D01*
X106899726Y-59487860D01*
X106899639Y-59483850D01*
X106861639Y-59231097D01*
X106854550Y-59183946D01*
X106854550Y-59183944D01*
X106853953Y-59179976D01*
X106847165Y-59156065D01*
X106771121Y-58888224D01*
X106771121Y-58888223D01*
X106770027Y-58884371D01*
X106649219Y-58601826D01*
X106493490Y-58336921D01*
X106305362Y-58093951D01*
X106280722Y-58069354D01*
X114423500Y-58069354D01*
X114423673Y-58071679D01*
X114423673Y-58071685D01*
X114436878Y-58249371D01*
X114437939Y-58263652D01*
X114438968Y-58268200D01*
X114438969Y-58268206D01*
X114467871Y-58395931D01*
X114495623Y-58518577D01*
X114497315Y-58522929D01*
X114497316Y-58522931D01*
X114546092Y-58648358D01*
X114590353Y-58762177D01*
X114720049Y-58989098D01*
X114881862Y-59194357D01*
X115072237Y-59373443D01*
X115224563Y-59479116D01*
X115272611Y-59512448D01*
X115286991Y-59522424D01*
X115291181Y-59524490D01*
X115291184Y-59524492D01*
X115517219Y-59635960D01*
X115517222Y-59635961D01*
X115521407Y-59638025D01*
X115525850Y-59639447D01*
X115525852Y-59639448D01*
X115765877Y-59716280D01*
X115770335Y-59717707D01*
X116028307Y-59759721D01*
X116142058Y-59761210D01*
X116284978Y-59763081D01*
X116284981Y-59763081D01*
X116289655Y-59763142D01*
X116548638Y-59727896D01*
X116799567Y-59654757D01*
X116835862Y-59638025D01*
X116916400Y-59600896D01*
X117036928Y-59545332D01*
X117130704Y-59483850D01*
X117251596Y-59404590D01*
X117251601Y-59404586D01*
X117255509Y-59402024D01*
X117450506Y-59227982D01*
X117617637Y-59027030D01*
X117692520Y-58903627D01*
X117750804Y-58807578D01*
X117750806Y-58807574D01*
X117753229Y-58803581D01*
X117854303Y-58562545D01*
X117918641Y-58309217D01*
X117925039Y-58245683D01*
X117940184Y-58095271D01*
X117940500Y-58092133D01*
X117940500Y-57942354D01*
X145203500Y-57942354D01*
X145203673Y-57944679D01*
X145203673Y-57944685D01*
X145214766Y-58093951D01*
X145217939Y-58136652D01*
X145218968Y-58141200D01*
X145218969Y-58141206D01*
X145242610Y-58245683D01*
X145275623Y-58391577D01*
X145277315Y-58395929D01*
X145277316Y-58395931D01*
X145357384Y-58601826D01*
X145370353Y-58635177D01*
X145372670Y-58639231D01*
X145372671Y-58639233D01*
X145380174Y-58652360D01*
X145500049Y-58862098D01*
X145661862Y-59067357D01*
X145852237Y-59246443D01*
X146004563Y-59352116D01*
X146039152Y-59376111D01*
X146066991Y-59395424D01*
X146071181Y-59397490D01*
X146071184Y-59397492D01*
X146297219Y-59508960D01*
X146297222Y-59508961D01*
X146301407Y-59511025D01*
X146305850Y-59512447D01*
X146305852Y-59512448D01*
X146544799Y-59588935D01*
X146550335Y-59590707D01*
X146808307Y-59632721D01*
X146922058Y-59634210D01*
X147064978Y-59636081D01*
X147064981Y-59636081D01*
X147069655Y-59636142D01*
X147328638Y-59600896D01*
X147369675Y-59588935D01*
X147465330Y-59561054D01*
X147579567Y-59527757D01*
X147586650Y-59524492D01*
X147666097Y-59487866D01*
X147816928Y-59418332D01*
X147890285Y-59370237D01*
X148031596Y-59277590D01*
X148031601Y-59277586D01*
X148035509Y-59275024D01*
X148230506Y-59100982D01*
X148397637Y-58900030D01*
X148456164Y-58803581D01*
X148530804Y-58680578D01*
X148530806Y-58680574D01*
X148533229Y-58676581D01*
X148634303Y-58435545D01*
X148698641Y-58182217D01*
X148699425Y-58174437D01*
X148720184Y-57968271D01*
X148720500Y-57965133D01*
X148720500Y-54008935D01*
X156383658Y-54008935D01*
X156383745Y-54012936D01*
X156383745Y-54012943D01*
X156390273Y-54312134D01*
X156390361Y-54316150D01*
X156436047Y-54620024D01*
X156437142Y-54623882D01*
X156437143Y-54623885D01*
X156508713Y-54875969D01*
X156519973Y-54915629D01*
X156640781Y-55198174D01*
X156796510Y-55463079D01*
X156984638Y-55706049D01*
X157202113Y-55923145D01*
X157205294Y-55925599D01*
X157205295Y-55925600D01*
X157309606Y-56006075D01*
X157445411Y-56110848D01*
X157448890Y-56112885D01*
X157706157Y-56263521D01*
X157710587Y-56266115D01*
X157714272Y-56267683D01*
X157714276Y-56267685D01*
X157851965Y-56326272D01*
X157993343Y-56386429D01*
X158169075Y-56435991D01*
X158285796Y-56468910D01*
X158345929Y-56506652D01*
X158376112Y-56570913D01*
X158366762Y-56641291D01*
X158320846Y-56695441D01*
X158275528Y-56713885D01*
X158246641Y-56719474D01*
X158242826Y-56720732D01*
X158242822Y-56720733D01*
X157958632Y-56814444D01*
X157958627Y-56814446D01*
X157954809Y-56815705D01*
X157677571Y-56948238D01*
X157674206Y-56950411D01*
X157674202Y-56950413D01*
X157422786Y-57112750D01*
X157422780Y-57112755D01*
X157419420Y-57114924D01*
X157184541Y-57313061D01*
X157145371Y-57355733D01*
X156983280Y-57532315D01*
X156976742Y-57539437D01*
X156799392Y-57790381D01*
X156655366Y-58061827D01*
X156653951Y-58065583D01*
X156653950Y-58065584D01*
X156550387Y-58340381D01*
X156546998Y-58349373D01*
X156546069Y-58353288D01*
X156487088Y-58601826D01*
X156476045Y-58648358D01*
X156443658Y-58953935D01*
X156443745Y-58957936D01*
X156443745Y-58957943D01*
X156448973Y-59197557D01*
X156450361Y-59261150D01*
X156470859Y-59397492D01*
X156487929Y-59511025D01*
X156496047Y-59565024D01*
X156497142Y-59568882D01*
X156497143Y-59568885D01*
X156538990Y-59716280D01*
X156579973Y-59860629D01*
X156700781Y-60143174D01*
X156856510Y-60408079D01*
X157044638Y-60651049D01*
X157262113Y-60868145D01*
X157265294Y-60870599D01*
X157265295Y-60870600D01*
X157369606Y-60951075D01*
X157505411Y-61055848D01*
X157508890Y-61057885D01*
X157766157Y-61208521D01*
X157770587Y-61211115D01*
X157774272Y-61212683D01*
X157774276Y-61212685D01*
X157911965Y-61271272D01*
X158053343Y-61331429D01*
X158349094Y-61414840D01*
X158570560Y-61447741D01*
X158649748Y-61459505D01*
X158649750Y-61459505D01*
X158653047Y-61459995D01*
X158656378Y-61460135D01*
X158656382Y-61460135D01*
X158693335Y-61461683D01*
X158736677Y-61463500D01*
X160632740Y-61463500D01*
X160756644Y-61455596D01*
X160857657Y-61449153D01*
X160857662Y-61449152D01*
X160861665Y-61448897D01*
X160865602Y-61448135D01*
X160865604Y-61448135D01*
X160964607Y-61428980D01*
X161163359Y-61390526D01*
X161167174Y-61389268D01*
X161167178Y-61389267D01*
X161451368Y-61295556D01*
X161451373Y-61295554D01*
X161455191Y-61294295D01*
X161732429Y-61161762D01*
X161735794Y-61159589D01*
X161735798Y-61159587D01*
X161987214Y-60997250D01*
X161987220Y-60997245D01*
X161990580Y-60995076D01*
X162225459Y-60796939D01*
X162433258Y-60570563D01*
X162610608Y-60319619D01*
X162754634Y-60048173D01*
X162756050Y-60044416D01*
X162861585Y-59764388D01*
X162861587Y-59764382D01*
X162863002Y-59760627D01*
X162903747Y-59588935D01*
X162933026Y-59465558D01*
X162933027Y-59465553D01*
X162933955Y-59461642D01*
X162966342Y-59156065D01*
X162965209Y-59104097D01*
X162959727Y-58852866D01*
X162959726Y-58852860D01*
X162959639Y-58848850D01*
X162917242Y-58566854D01*
X162914550Y-58548946D01*
X162914550Y-58548944D01*
X162913953Y-58544976D01*
X162881600Y-58431020D01*
X162831121Y-58253224D01*
X162831121Y-58253223D01*
X162830027Y-58249371D01*
X162709219Y-57966826D01*
X162553490Y-57701921D01*
X162546203Y-57692509D01*
X162496770Y-57628667D01*
X162365362Y-57458951D01*
X162147887Y-57241855D01*
X162049039Y-57165594D01*
X161907782Y-57056615D01*
X161907778Y-57056612D01*
X161904589Y-57054152D01*
X161785282Y-56984295D01*
X161642877Y-56900913D01*
X161642874Y-56900911D01*
X161639413Y-56898885D01*
X161635728Y-56897317D01*
X161635724Y-56897315D01*
X161440964Y-56814444D01*
X161356657Y-56778571D01*
X161144411Y-56718711D01*
X161064204Y-56696090D01*
X161004071Y-56658348D01*
X160973888Y-56594087D01*
X160983238Y-56523709D01*
X161029154Y-56469559D01*
X161074472Y-56451115D01*
X161075283Y-56450958D01*
X161103359Y-56445526D01*
X161107174Y-56444268D01*
X161107178Y-56444267D01*
X161391368Y-56350556D01*
X161391373Y-56350554D01*
X161395191Y-56349295D01*
X161672429Y-56216762D01*
X161675794Y-56214589D01*
X161675798Y-56214587D01*
X161927214Y-56052250D01*
X161927220Y-56052245D01*
X161930580Y-56050076D01*
X162165459Y-55851939D01*
X162373258Y-55625563D01*
X162550608Y-55374619D01*
X162694634Y-55103173D01*
X162714600Y-55050196D01*
X162801585Y-54819388D01*
X162801587Y-54819382D01*
X162803002Y-54815627D01*
X162843747Y-54643935D01*
X162873026Y-54520558D01*
X162873027Y-54520553D01*
X162873955Y-54516642D01*
X162906342Y-54211065D01*
X162902682Y-54043288D01*
X162901932Y-54008935D01*
X164483658Y-54008935D01*
X164483745Y-54012936D01*
X164483745Y-54012943D01*
X164490273Y-54312134D01*
X164490361Y-54316150D01*
X164536047Y-54620024D01*
X164537142Y-54623882D01*
X164537143Y-54623885D01*
X164608713Y-54875969D01*
X164619973Y-54915629D01*
X164740781Y-55198174D01*
X164896510Y-55463079D01*
X165084638Y-55706049D01*
X165302113Y-55923145D01*
X165305294Y-55925599D01*
X165305295Y-55925600D01*
X165409606Y-56006075D01*
X165545411Y-56110848D01*
X165548890Y-56112885D01*
X165806157Y-56263521D01*
X165810587Y-56266115D01*
X165814272Y-56267683D01*
X165814276Y-56267685D01*
X165951965Y-56326272D01*
X166093343Y-56386429D01*
X166269075Y-56435991D01*
X166385796Y-56468910D01*
X166445929Y-56506652D01*
X166476112Y-56570913D01*
X166466762Y-56641291D01*
X166420846Y-56695441D01*
X166375528Y-56713885D01*
X166346641Y-56719474D01*
X166342826Y-56720732D01*
X166342822Y-56720733D01*
X166058632Y-56814444D01*
X166058627Y-56814446D01*
X166054809Y-56815705D01*
X165777571Y-56948238D01*
X165774206Y-56950411D01*
X165774202Y-56950413D01*
X165522786Y-57112750D01*
X165522780Y-57112755D01*
X165519420Y-57114924D01*
X165284541Y-57313061D01*
X165245371Y-57355733D01*
X165083280Y-57532315D01*
X165076742Y-57539437D01*
X164899392Y-57790381D01*
X164755366Y-58061827D01*
X164753951Y-58065583D01*
X164753950Y-58065584D01*
X164650387Y-58340381D01*
X164646998Y-58349373D01*
X164646069Y-58353288D01*
X164587088Y-58601826D01*
X164576045Y-58648358D01*
X164543658Y-58953935D01*
X164543745Y-58957936D01*
X164543745Y-58957943D01*
X164548973Y-59197557D01*
X164550361Y-59261150D01*
X164570859Y-59397492D01*
X164587929Y-59511025D01*
X164596047Y-59565024D01*
X164597142Y-59568882D01*
X164597143Y-59568885D01*
X164638990Y-59716280D01*
X164679973Y-59860629D01*
X164800781Y-60143174D01*
X164956510Y-60408079D01*
X165144638Y-60651049D01*
X165362113Y-60868145D01*
X165365294Y-60870599D01*
X165365295Y-60870600D01*
X165469606Y-60951075D01*
X165605411Y-61055848D01*
X165608890Y-61057885D01*
X165866157Y-61208521D01*
X165870587Y-61211115D01*
X165874272Y-61212683D01*
X165874276Y-61212685D01*
X166011965Y-61271272D01*
X166153343Y-61331429D01*
X166449094Y-61414840D01*
X166670560Y-61447741D01*
X166749748Y-61459505D01*
X166749750Y-61459505D01*
X166753047Y-61459995D01*
X166756378Y-61460135D01*
X166756382Y-61460135D01*
X166793335Y-61461683D01*
X166836677Y-61463500D01*
X168532740Y-61463500D01*
X168656644Y-61455596D01*
X168757657Y-61449153D01*
X168757662Y-61449152D01*
X168761665Y-61448897D01*
X168765602Y-61448135D01*
X168765604Y-61448135D01*
X168864607Y-61428980D01*
X169063359Y-61390526D01*
X169067174Y-61389268D01*
X169067178Y-61389267D01*
X169351368Y-61295556D01*
X169351373Y-61295554D01*
X169355191Y-61294295D01*
X169632429Y-61161762D01*
X169635794Y-61159589D01*
X169635798Y-61159587D01*
X169887214Y-60997250D01*
X169887220Y-60997245D01*
X169890580Y-60995076D01*
X170125459Y-60796939D01*
X170333258Y-60570563D01*
X170510608Y-60319619D01*
X170654634Y-60048173D01*
X170656050Y-60044416D01*
X170761585Y-59764388D01*
X170761587Y-59764382D01*
X170763002Y-59760627D01*
X170803747Y-59588935D01*
X170833026Y-59465558D01*
X170833027Y-59465553D01*
X170833955Y-59461642D01*
X170866342Y-59156065D01*
X170865209Y-59104097D01*
X170859727Y-58852866D01*
X170859726Y-58852860D01*
X170859639Y-58848850D01*
X170817242Y-58566854D01*
X170814550Y-58548946D01*
X170814550Y-58548944D01*
X170813953Y-58544976D01*
X170781600Y-58431020D01*
X170731121Y-58253224D01*
X170731121Y-58253223D01*
X170730027Y-58249371D01*
X170609219Y-57966826D01*
X170453490Y-57701921D01*
X170446203Y-57692509D01*
X170396770Y-57628667D01*
X170265362Y-57458951D01*
X170047887Y-57241855D01*
X169949039Y-57165594D01*
X169807782Y-57056615D01*
X169807778Y-57056612D01*
X169804589Y-57054152D01*
X169685282Y-56984295D01*
X169542877Y-56900913D01*
X169542874Y-56900911D01*
X169539413Y-56898885D01*
X169535728Y-56897317D01*
X169535724Y-56897315D01*
X169340964Y-56814444D01*
X169256657Y-56778571D01*
X169072578Y-56726655D01*
X173027858Y-56726655D01*
X173063104Y-56985638D01*
X173064412Y-56990124D01*
X173064412Y-56990126D01*
X173082480Y-57052115D01*
X173136243Y-57236567D01*
X173245668Y-57473928D01*
X173248231Y-57477837D01*
X173386410Y-57688596D01*
X173386414Y-57688601D01*
X173388976Y-57692509D01*
X173563018Y-57887506D01*
X173763970Y-58054637D01*
X173767973Y-58057066D01*
X173983422Y-58187804D01*
X173983426Y-58187806D01*
X173987419Y-58190229D01*
X174228455Y-58291303D01*
X174481783Y-58355641D01*
X174486434Y-58356109D01*
X174486438Y-58356110D01*
X174679308Y-58375531D01*
X174698867Y-58377500D01*
X179354354Y-58377500D01*
X179356679Y-58377327D01*
X179356685Y-58377327D01*
X179544000Y-58363407D01*
X179544004Y-58363406D01*
X179548652Y-58363061D01*
X179553200Y-58362032D01*
X179553206Y-58362031D01*
X179766565Y-58313752D01*
X179803577Y-58305377D01*
X179839769Y-58291303D01*
X180042824Y-58212340D01*
X180042827Y-58212339D01*
X180047177Y-58210647D01*
X180274098Y-58080951D01*
X180479357Y-57919138D01*
X180658443Y-57728763D01*
X180764116Y-57576437D01*
X180804759Y-57517851D01*
X180804761Y-57517848D01*
X180807424Y-57514009D01*
X180856180Y-57415141D01*
X180920960Y-57283781D01*
X180920961Y-57283778D01*
X180923025Y-57279593D01*
X180963388Y-57153500D01*
X181001280Y-57035123D01*
X181002707Y-57030665D01*
X181044721Y-56772693D01*
X181047497Y-56560600D01*
X181048081Y-56516022D01*
X181048081Y-56516019D01*
X181048142Y-56511345D01*
X181012896Y-56252362D01*
X180998473Y-56202877D01*
X180972242Y-56112885D01*
X180939757Y-56001433D01*
X180830332Y-55764072D01*
X180690393Y-55550629D01*
X180689590Y-55549404D01*
X180689586Y-55549399D01*
X180687024Y-55545491D01*
X180512982Y-55350494D01*
X180312030Y-55183363D01*
X180253160Y-55147640D01*
X180092578Y-55050196D01*
X180092574Y-55050194D01*
X180088581Y-55047771D01*
X179847545Y-54946697D01*
X179594217Y-54882359D01*
X179589566Y-54881891D01*
X179589562Y-54881890D01*
X179380271Y-54860816D01*
X179377133Y-54860500D01*
X174721646Y-54860500D01*
X174719321Y-54860673D01*
X174719315Y-54860673D01*
X174532000Y-54874593D01*
X174531996Y-54874594D01*
X174527348Y-54874939D01*
X174522800Y-54875968D01*
X174522794Y-54875969D01*
X174364553Y-54911776D01*
X174272423Y-54932623D01*
X174268071Y-54934315D01*
X174268069Y-54934316D01*
X174033176Y-55025660D01*
X174033173Y-55025661D01*
X174028823Y-55027353D01*
X173801902Y-55157049D01*
X173596643Y-55318862D01*
X173417557Y-55509237D01*
X173334806Y-55628521D01*
X173279060Y-55708879D01*
X173268576Y-55723991D01*
X173266510Y-55728181D01*
X173266508Y-55728184D01*
X173169154Y-55925600D01*
X173152975Y-55958407D01*
X173151553Y-55962850D01*
X173151552Y-55962852D01*
X173074720Y-56202877D01*
X173073293Y-56207335D01*
X173031279Y-56465307D01*
X173031218Y-56469980D01*
X173027936Y-56720733D01*
X173027858Y-56726655D01*
X169072578Y-56726655D01*
X169044411Y-56718711D01*
X168964204Y-56696090D01*
X168904071Y-56658348D01*
X168873888Y-56594087D01*
X168883238Y-56523709D01*
X168929154Y-56469559D01*
X168974472Y-56451115D01*
X168975283Y-56450958D01*
X169003359Y-56445526D01*
X169007174Y-56444268D01*
X169007178Y-56444267D01*
X169291368Y-56350556D01*
X169291373Y-56350554D01*
X169295191Y-56349295D01*
X169572429Y-56216762D01*
X169575794Y-56214589D01*
X169575798Y-56214587D01*
X169827214Y-56052250D01*
X169827220Y-56052245D01*
X169830580Y-56050076D01*
X170065459Y-55851939D01*
X170273258Y-55625563D01*
X170450608Y-55374619D01*
X170594634Y-55103173D01*
X170614600Y-55050196D01*
X170701585Y-54819388D01*
X170701587Y-54819382D01*
X170703002Y-54815627D01*
X170743747Y-54643935D01*
X170773026Y-54520558D01*
X170773027Y-54520553D01*
X170773955Y-54516642D01*
X170806342Y-54211065D01*
X170802682Y-54043288D01*
X170799727Y-53907866D01*
X170799726Y-53907860D01*
X170799639Y-53903850D01*
X170753953Y-53599976D01*
X170719999Y-53480381D01*
X170671121Y-53308224D01*
X170671121Y-53308223D01*
X170670027Y-53304371D01*
X170549219Y-53021826D01*
X170393490Y-52756921D01*
X170383349Y-52743823D01*
X170336770Y-52683667D01*
X170205362Y-52513951D01*
X169987887Y-52296855D01*
X169847194Y-52188311D01*
X169747782Y-52111615D01*
X169747778Y-52111612D01*
X169744589Y-52109152D01*
X169563106Y-52002889D01*
X169482877Y-51955913D01*
X169482874Y-51955911D01*
X169479413Y-51953885D01*
X169475728Y-51952317D01*
X169475724Y-51952315D01*
X169283927Y-51870705D01*
X169196657Y-51833571D01*
X168900906Y-51750160D01*
X168669934Y-51715847D01*
X168600252Y-51705495D01*
X168600250Y-51705495D01*
X168596953Y-51705005D01*
X168593622Y-51704865D01*
X168593618Y-51704865D01*
X168556665Y-51703317D01*
X168513323Y-51701500D01*
X166817260Y-51701500D01*
X166693356Y-51709404D01*
X166592343Y-51715847D01*
X166592338Y-51715848D01*
X166588335Y-51716103D01*
X166584398Y-51716865D01*
X166584396Y-51716865D01*
X166553039Y-51722932D01*
X166286641Y-51774474D01*
X166282826Y-51775732D01*
X166282822Y-51775733D01*
X165998632Y-51869444D01*
X165998627Y-51869446D01*
X165994809Y-51870705D01*
X165717571Y-52003238D01*
X165714206Y-52005411D01*
X165714202Y-52005413D01*
X165462786Y-52167750D01*
X165462780Y-52167755D01*
X165459420Y-52169924D01*
X165224541Y-52368061D01*
X165185371Y-52410733D01*
X165023280Y-52587315D01*
X165016742Y-52594437D01*
X164839392Y-52845381D01*
X164695366Y-53116827D01*
X164693951Y-53120583D01*
X164693950Y-53120584D01*
X164590387Y-53395381D01*
X164586998Y-53404373D01*
X164579892Y-53434315D01*
X164527088Y-53656826D01*
X164516045Y-53703358D01*
X164483658Y-54008935D01*
X162901932Y-54008935D01*
X162899727Y-53907866D01*
X162899726Y-53907860D01*
X162899639Y-53903850D01*
X162853953Y-53599976D01*
X162819999Y-53480381D01*
X162771121Y-53308224D01*
X162771121Y-53308223D01*
X162770027Y-53304371D01*
X162649219Y-53021826D01*
X162493490Y-52756921D01*
X162483349Y-52743823D01*
X162436770Y-52683667D01*
X162305362Y-52513951D01*
X162087887Y-52296855D01*
X161947194Y-52188311D01*
X161847782Y-52111615D01*
X161847778Y-52111612D01*
X161844589Y-52109152D01*
X161663106Y-52002889D01*
X161582877Y-51955913D01*
X161582874Y-51955911D01*
X161579413Y-51953885D01*
X161575728Y-51952317D01*
X161575724Y-51952315D01*
X161383927Y-51870705D01*
X161296657Y-51833571D01*
X161000906Y-51750160D01*
X160769934Y-51715847D01*
X160700252Y-51705495D01*
X160700250Y-51705495D01*
X160696953Y-51705005D01*
X160693622Y-51704865D01*
X160693618Y-51704865D01*
X160656665Y-51703317D01*
X160613323Y-51701500D01*
X158717260Y-51701500D01*
X158593356Y-51709404D01*
X158492343Y-51715847D01*
X158492338Y-51715848D01*
X158488335Y-51716103D01*
X158484398Y-51716865D01*
X158484396Y-51716865D01*
X158453039Y-51722932D01*
X158186641Y-51774474D01*
X158182826Y-51775732D01*
X158182822Y-51775733D01*
X157898632Y-51869444D01*
X157898627Y-51869446D01*
X157894809Y-51870705D01*
X157617571Y-52003238D01*
X157614206Y-52005411D01*
X157614202Y-52005413D01*
X157362786Y-52167750D01*
X157362780Y-52167755D01*
X157359420Y-52169924D01*
X157124541Y-52368061D01*
X157085371Y-52410733D01*
X156923280Y-52587315D01*
X156916742Y-52594437D01*
X156739392Y-52845381D01*
X156595366Y-53116827D01*
X156593951Y-53120583D01*
X156593950Y-53120584D01*
X156490387Y-53395381D01*
X156486998Y-53404373D01*
X156479892Y-53434315D01*
X156427088Y-53656826D01*
X156416045Y-53703358D01*
X156383658Y-54008935D01*
X148720500Y-54008935D01*
X148720500Y-53309646D01*
X148715499Y-53242348D01*
X148706407Y-53120000D01*
X148706406Y-53119996D01*
X148706061Y-53115348D01*
X148694725Y-53065248D01*
X148649408Y-52864980D01*
X148648377Y-52860423D01*
X148629603Y-52812146D01*
X148555340Y-52621176D01*
X148555339Y-52621173D01*
X148553647Y-52616823D01*
X148540853Y-52594437D01*
X148477145Y-52482973D01*
X148423951Y-52389902D01*
X148262138Y-52184643D01*
X148071763Y-52005557D01*
X147875558Y-51869444D01*
X147860851Y-51859241D01*
X147860848Y-51859239D01*
X147857009Y-51856576D01*
X147852816Y-51854508D01*
X147626781Y-51743040D01*
X147626778Y-51743039D01*
X147622593Y-51740975D01*
X147576449Y-51726204D01*
X147378123Y-51662720D01*
X147373665Y-51661293D01*
X147115693Y-51619279D01*
X147001942Y-51617790D01*
X146859022Y-51615919D01*
X146859019Y-51615919D01*
X146854345Y-51615858D01*
X146595362Y-51651104D01*
X146344433Y-51724243D01*
X146340180Y-51726203D01*
X146340179Y-51726204D01*
X146304054Y-51742858D01*
X146107072Y-51833668D01*
X146068067Y-51859241D01*
X145892404Y-51974410D01*
X145892399Y-51974414D01*
X145888491Y-51976976D01*
X145693494Y-52151018D01*
X145526363Y-52351970D01*
X145523934Y-52355973D01*
X145428071Y-52513951D01*
X145390771Y-52575419D01*
X145289697Y-52816455D01*
X145225359Y-53069783D01*
X145224891Y-53074434D01*
X145224890Y-53074438D01*
X145212571Y-53196783D01*
X145203500Y-53286867D01*
X145203500Y-57942354D01*
X117940500Y-57942354D01*
X117940500Y-53436646D01*
X117937822Y-53400612D01*
X117926407Y-53247000D01*
X117926406Y-53246996D01*
X117926061Y-53242348D01*
X117922471Y-53226479D01*
X117876162Y-53021826D01*
X117868377Y-52987423D01*
X117814519Y-52848925D01*
X117775340Y-52748176D01*
X117775339Y-52748173D01*
X117773647Y-52743823D01*
X117643951Y-52516902D01*
X117482138Y-52311643D01*
X117291763Y-52132557D01*
X117113316Y-52008763D01*
X117080851Y-51986241D01*
X117080848Y-51986239D01*
X117077009Y-51983576D01*
X117072816Y-51981508D01*
X116846781Y-51870040D01*
X116846778Y-51870039D01*
X116842593Y-51867975D01*
X116806983Y-51856576D01*
X116598123Y-51789720D01*
X116593665Y-51788293D01*
X116335693Y-51746279D01*
X116221942Y-51744790D01*
X116079022Y-51742919D01*
X116079019Y-51742919D01*
X116074345Y-51742858D01*
X115815362Y-51778104D01*
X115564433Y-51851243D01*
X115560180Y-51853203D01*
X115560179Y-51853204D01*
X115524952Y-51869444D01*
X115327072Y-51960668D01*
X115290586Y-51984589D01*
X115112404Y-52101410D01*
X115112399Y-52101414D01*
X115108491Y-52103976D01*
X114913494Y-52278018D01*
X114746363Y-52478970D01*
X114743934Y-52482973D01*
X114674306Y-52597717D01*
X114610771Y-52702419D01*
X114509697Y-52943455D01*
X114445359Y-53196783D01*
X114444891Y-53201434D01*
X114444890Y-53201438D01*
X114433994Y-53309646D01*
X114423500Y-53413867D01*
X114423500Y-58069354D01*
X106280722Y-58069354D01*
X106087887Y-57876855D01*
X106084705Y-57874400D01*
X105847782Y-57691615D01*
X105847778Y-57691612D01*
X105844589Y-57689152D01*
X105663702Y-57583238D01*
X105582877Y-57535913D01*
X105582874Y-57535911D01*
X105579413Y-57533885D01*
X105575728Y-57532317D01*
X105575724Y-57532315D01*
X105380964Y-57449444D01*
X105296657Y-57413571D01*
X105198087Y-57385771D01*
X105028617Y-57337975D01*
X104968483Y-57300233D01*
X104938301Y-57235972D01*
X104947652Y-57165594D01*
X104993567Y-57111443D01*
X105038884Y-57093001D01*
X105103359Y-57080526D01*
X105107174Y-57079268D01*
X105107178Y-57079267D01*
X105391368Y-56985556D01*
X105391373Y-56985554D01*
X105395191Y-56984295D01*
X105672429Y-56851762D01*
X105675794Y-56849589D01*
X105675798Y-56849587D01*
X105927214Y-56687250D01*
X105927220Y-56687245D01*
X105930580Y-56685076D01*
X106142021Y-56506711D01*
X106162390Y-56489528D01*
X106162391Y-56489527D01*
X106165459Y-56486939D01*
X106302282Y-56337884D01*
X106370543Y-56263521D01*
X106370545Y-56263519D01*
X106373258Y-56260563D01*
X106550608Y-56009619D01*
X106694634Y-55738173D01*
X106706741Y-55706049D01*
X106801585Y-55454388D01*
X106801587Y-55454382D01*
X106803002Y-55450627D01*
X106862091Y-55201635D01*
X106873026Y-55155558D01*
X106873027Y-55155553D01*
X106873955Y-55151642D01*
X106906342Y-54846065D01*
X106905593Y-54811712D01*
X106899727Y-54542866D01*
X106899726Y-54542860D01*
X106899639Y-54538850D01*
X106853953Y-54234976D01*
X106847165Y-54211065D01*
X106771121Y-53943224D01*
X106771121Y-53943223D01*
X106770027Y-53939371D01*
X106649219Y-53656826D01*
X106493490Y-53391921D01*
X106305362Y-53148951D01*
X106087887Y-52931855D01*
X105995298Y-52860423D01*
X105847782Y-52746615D01*
X105847778Y-52746612D01*
X105844589Y-52744152D01*
X105663702Y-52638238D01*
X105582877Y-52590913D01*
X105582874Y-52590911D01*
X105579413Y-52588885D01*
X105575728Y-52587317D01*
X105575724Y-52587315D01*
X105380964Y-52504444D01*
X105296657Y-52468571D01*
X105000906Y-52385160D01*
X104753281Y-52348373D01*
X104700252Y-52340495D01*
X104700250Y-52340495D01*
X104696953Y-52340005D01*
X104693622Y-52339865D01*
X104693618Y-52339865D01*
X104656665Y-52338317D01*
X104613323Y-52336500D01*
X102717260Y-52336500D01*
X102593356Y-52344404D01*
X102492343Y-52350847D01*
X102492338Y-52350848D01*
X102488335Y-52351103D01*
X102484398Y-52351865D01*
X102484396Y-52351865D01*
X102463164Y-52355973D01*
X102186641Y-52409474D01*
X102182826Y-52410732D01*
X102182822Y-52410733D01*
X101898632Y-52504444D01*
X101898627Y-52504446D01*
X101894809Y-52505705D01*
X101617571Y-52638238D01*
X101614206Y-52640411D01*
X101614202Y-52640413D01*
X101362786Y-52802750D01*
X101362780Y-52802755D01*
X101359420Y-52804924D01*
X101124541Y-53003061D01*
X100916742Y-53229437D01*
X100739392Y-53480381D01*
X100595366Y-53751827D01*
X100593951Y-53755583D01*
X100593950Y-53755584D01*
X100496959Y-54012943D01*
X100486998Y-54039373D01*
X100486069Y-54043288D01*
X100445307Y-54215054D01*
X100416045Y-54338358D01*
X100383658Y-54643935D01*
X100383745Y-54647936D01*
X100383745Y-54647943D01*
X100390273Y-54947134D01*
X100390361Y-54951150D01*
X100436047Y-55255024D01*
X100437142Y-55258882D01*
X100437143Y-55258885D01*
X100470931Y-55377894D01*
X100519973Y-55550629D01*
X100640781Y-55833174D01*
X100796510Y-56098079D01*
X100984638Y-56341049D01*
X101202113Y-56558145D01*
X101205294Y-56560599D01*
X101205295Y-56560600D01*
X101426540Y-56731289D01*
X101445411Y-56745848D01*
X101448890Y-56747885D01*
X101629255Y-56853493D01*
X101710587Y-56901115D01*
X101714272Y-56902683D01*
X101714276Y-56902685D01*
X101817265Y-56946507D01*
X101993343Y-57021429D01*
X102041898Y-57035123D01*
X102261383Y-57097025D01*
X102321517Y-57134767D01*
X102351699Y-57199028D01*
X102342348Y-57269406D01*
X102296433Y-57323557D01*
X102251116Y-57341999D01*
X102186641Y-57354474D01*
X102182826Y-57355732D01*
X102182822Y-57355733D01*
X101898632Y-57449444D01*
X101898627Y-57449446D01*
X101894809Y-57450705D01*
X101617571Y-57583238D01*
X101614206Y-57585411D01*
X101614202Y-57585413D01*
X101362786Y-57747750D01*
X101362780Y-57747755D01*
X101359420Y-57749924D01*
X101124541Y-57948061D01*
X101103927Y-57970518D01*
X100955697Y-58132000D01*
X100916742Y-58174437D01*
X100739392Y-58425381D01*
X100630386Y-58630824D01*
X100603988Y-58680578D01*
X100595366Y-58696827D01*
X100593951Y-58700583D01*
X100593950Y-58700584D01*
X100496959Y-58957943D01*
X100486998Y-58984373D01*
X100486069Y-58988288D01*
X100418023Y-59275024D01*
X100416045Y-59283358D01*
X100383658Y-59588935D01*
X98801932Y-59588935D01*
X98799727Y-59487866D01*
X98799726Y-59487860D01*
X98799639Y-59483850D01*
X98761639Y-59231097D01*
X98754550Y-59183946D01*
X98754550Y-59183944D01*
X98753953Y-59179976D01*
X98747165Y-59156065D01*
X98671121Y-58888224D01*
X98671121Y-58888223D01*
X98670027Y-58884371D01*
X98549219Y-58601826D01*
X98393490Y-58336921D01*
X98205362Y-58093951D01*
X97987887Y-57876855D01*
X97984705Y-57874400D01*
X97747782Y-57691615D01*
X97747778Y-57691612D01*
X97744589Y-57689152D01*
X97563702Y-57583238D01*
X97482877Y-57535913D01*
X97482874Y-57535911D01*
X97479413Y-57533885D01*
X97475728Y-57532317D01*
X97475724Y-57532315D01*
X97280964Y-57449444D01*
X97196657Y-57413571D01*
X97098087Y-57385771D01*
X96928617Y-57337975D01*
X96868483Y-57300233D01*
X96838301Y-57235972D01*
X96847652Y-57165594D01*
X96893567Y-57111443D01*
X96938884Y-57093001D01*
X97003359Y-57080526D01*
X97007174Y-57079268D01*
X97007178Y-57079267D01*
X97291368Y-56985556D01*
X97291373Y-56985554D01*
X97295191Y-56984295D01*
X97572429Y-56851762D01*
X97575794Y-56849589D01*
X97575798Y-56849587D01*
X97827214Y-56687250D01*
X97827220Y-56687245D01*
X97830580Y-56685076D01*
X98042021Y-56506711D01*
X98062390Y-56489528D01*
X98062391Y-56489527D01*
X98065459Y-56486939D01*
X98202282Y-56337884D01*
X98270543Y-56263521D01*
X98270545Y-56263519D01*
X98273258Y-56260563D01*
X98450608Y-56009619D01*
X98594634Y-55738173D01*
X98606741Y-55706049D01*
X98701585Y-55454388D01*
X98701587Y-55454382D01*
X98703002Y-55450627D01*
X98762091Y-55201635D01*
X98773026Y-55155558D01*
X98773027Y-55155553D01*
X98773955Y-55151642D01*
X98806342Y-54846065D01*
X98805593Y-54811712D01*
X98799727Y-54542866D01*
X98799726Y-54542860D01*
X98799639Y-54538850D01*
X98753953Y-54234976D01*
X98747165Y-54211065D01*
X98671121Y-53943224D01*
X98671121Y-53943223D01*
X98670027Y-53939371D01*
X98549219Y-53656826D01*
X98393490Y-53391921D01*
X98205362Y-53148951D01*
X97987887Y-52931855D01*
X97895298Y-52860423D01*
X97747782Y-52746615D01*
X97747778Y-52746612D01*
X97744589Y-52744152D01*
X97563702Y-52638238D01*
X97482877Y-52590913D01*
X97482874Y-52590911D01*
X97479413Y-52588885D01*
X97475728Y-52587317D01*
X97475724Y-52587315D01*
X97280964Y-52504444D01*
X97196657Y-52468571D01*
X96900906Y-52385160D01*
X96653281Y-52348373D01*
X96600252Y-52340495D01*
X96600250Y-52340495D01*
X96596953Y-52340005D01*
X96593622Y-52339865D01*
X96593618Y-52339865D01*
X96556665Y-52338317D01*
X96513323Y-52336500D01*
X94817260Y-52336500D01*
X94693356Y-52344404D01*
X94592343Y-52350847D01*
X94592338Y-52350848D01*
X94588335Y-52351103D01*
X94584398Y-52351865D01*
X94584396Y-52351865D01*
X94563164Y-52355973D01*
X94286641Y-52409474D01*
X94282826Y-52410732D01*
X94282822Y-52410733D01*
X93998632Y-52504444D01*
X93998627Y-52504446D01*
X93994809Y-52505705D01*
X93717571Y-52638238D01*
X93714206Y-52640411D01*
X93714202Y-52640413D01*
X93462786Y-52802750D01*
X93462780Y-52802755D01*
X93459420Y-52804924D01*
X93224541Y-53003061D01*
X93016742Y-53229437D01*
X92839392Y-53480381D01*
X92695366Y-53751827D01*
X92693951Y-53755583D01*
X92693950Y-53755584D01*
X92596959Y-54012943D01*
X92586998Y-54039373D01*
X92586069Y-54043288D01*
X92545307Y-54215054D01*
X92516045Y-54338358D01*
X92483658Y-54643935D01*
X92483745Y-54647936D01*
X92483745Y-54647943D01*
X92490273Y-54947134D01*
X92490361Y-54951150D01*
X92536047Y-55255024D01*
X92537142Y-55258882D01*
X92537143Y-55258885D01*
X92570931Y-55377894D01*
X92619973Y-55550629D01*
X92740781Y-55833174D01*
X92896510Y-56098079D01*
X93084638Y-56341049D01*
X93302113Y-56558145D01*
X93305294Y-56560599D01*
X93305295Y-56560600D01*
X93526540Y-56731289D01*
X93545411Y-56745848D01*
X93548890Y-56747885D01*
X93729255Y-56853493D01*
X93810587Y-56901115D01*
X93814272Y-56902683D01*
X93814276Y-56902685D01*
X93917265Y-56946507D01*
X94093343Y-57021429D01*
X94141898Y-57035123D01*
X94361383Y-57097025D01*
X94421517Y-57134767D01*
X94451699Y-57199028D01*
X94442348Y-57269406D01*
X94396433Y-57323557D01*
X94351116Y-57341999D01*
X94286641Y-57354474D01*
X94282826Y-57355732D01*
X94282822Y-57355733D01*
X93998632Y-57449444D01*
X93998627Y-57449446D01*
X93994809Y-57450705D01*
X93717571Y-57583238D01*
X93714206Y-57585411D01*
X93714202Y-57585413D01*
X93462786Y-57747750D01*
X93462780Y-57747755D01*
X93459420Y-57749924D01*
X93224541Y-57948061D01*
X93203927Y-57970518D01*
X93055697Y-58132000D01*
X93016742Y-58174437D01*
X92839392Y-58425381D01*
X92730386Y-58630824D01*
X92703988Y-58680578D01*
X92695366Y-58696827D01*
X92693951Y-58700583D01*
X92693950Y-58700584D01*
X92596959Y-58957943D01*
X92586998Y-58984373D01*
X92586069Y-58988288D01*
X92518023Y-59275024D01*
X92516045Y-59283358D01*
X92483658Y-59588935D01*
X81788000Y-59588935D01*
X81788000Y-56726655D01*
X82984858Y-56726655D01*
X83020104Y-56985638D01*
X83021412Y-56990124D01*
X83021412Y-56990126D01*
X83039480Y-57052115D01*
X83093243Y-57236567D01*
X83202668Y-57473928D01*
X83205231Y-57477837D01*
X83343410Y-57688596D01*
X83343414Y-57688601D01*
X83345976Y-57692509D01*
X83520018Y-57887506D01*
X83720970Y-58054637D01*
X83724973Y-58057066D01*
X83940422Y-58187804D01*
X83940426Y-58187806D01*
X83944419Y-58190229D01*
X84185455Y-58291303D01*
X84438783Y-58355641D01*
X84443434Y-58356109D01*
X84443438Y-58356110D01*
X84636308Y-58375531D01*
X84655867Y-58377500D01*
X89311354Y-58377500D01*
X89313679Y-58377327D01*
X89313685Y-58377327D01*
X89501000Y-58363407D01*
X89501004Y-58363406D01*
X89505652Y-58363061D01*
X89510200Y-58362032D01*
X89510206Y-58362031D01*
X89723565Y-58313752D01*
X89760577Y-58305377D01*
X89796769Y-58291303D01*
X89999824Y-58212340D01*
X89999827Y-58212339D01*
X90004177Y-58210647D01*
X90231098Y-58080951D01*
X90436357Y-57919138D01*
X90615443Y-57728763D01*
X90721116Y-57576437D01*
X90761759Y-57517851D01*
X90761761Y-57517848D01*
X90764424Y-57514009D01*
X90813180Y-57415141D01*
X90877960Y-57283781D01*
X90877961Y-57283778D01*
X90880025Y-57279593D01*
X90920388Y-57153500D01*
X90958280Y-57035123D01*
X90959707Y-57030665D01*
X91001721Y-56772693D01*
X91004497Y-56560600D01*
X91005081Y-56516022D01*
X91005081Y-56516019D01*
X91005142Y-56511345D01*
X90969896Y-56252362D01*
X90955473Y-56202877D01*
X90929242Y-56112885D01*
X90896757Y-56001433D01*
X90787332Y-55764072D01*
X90647393Y-55550629D01*
X90646590Y-55549404D01*
X90646586Y-55549399D01*
X90644024Y-55545491D01*
X90469982Y-55350494D01*
X90269030Y-55183363D01*
X90210160Y-55147640D01*
X90049578Y-55050196D01*
X90049574Y-55050194D01*
X90045581Y-55047771D01*
X89804545Y-54946697D01*
X89551217Y-54882359D01*
X89546566Y-54881891D01*
X89546562Y-54881890D01*
X89337271Y-54860816D01*
X89334133Y-54860500D01*
X84678646Y-54860500D01*
X84676321Y-54860673D01*
X84676315Y-54860673D01*
X84489000Y-54874593D01*
X84488996Y-54874594D01*
X84484348Y-54874939D01*
X84479800Y-54875968D01*
X84479794Y-54875969D01*
X84321553Y-54911776D01*
X84229423Y-54932623D01*
X84225071Y-54934315D01*
X84225069Y-54934316D01*
X83990176Y-55025660D01*
X83990173Y-55025661D01*
X83985823Y-55027353D01*
X83758902Y-55157049D01*
X83553643Y-55318862D01*
X83374557Y-55509237D01*
X83291806Y-55628521D01*
X83236060Y-55708879D01*
X83225576Y-55723991D01*
X83223510Y-55728181D01*
X83223508Y-55728184D01*
X83126154Y-55925600D01*
X83109975Y-55958407D01*
X83108553Y-55962850D01*
X83108552Y-55962852D01*
X83031720Y-56202877D01*
X83030293Y-56207335D01*
X82988279Y-56465307D01*
X82988218Y-56469980D01*
X82984936Y-56720733D01*
X82984858Y-56726655D01*
X81788000Y-56726655D01*
X81788000Y-51996207D01*
X81789746Y-51975303D01*
X81792264Y-51960335D01*
X81793071Y-51955539D01*
X81793224Y-51943000D01*
X81792535Y-51938187D01*
X81792218Y-51933328D01*
X81792506Y-51933309D01*
X81792105Y-51906570D01*
X81802332Y-51815803D01*
X81808611Y-51788296D01*
X81846196Y-51680884D01*
X81858438Y-51655463D01*
X81880702Y-51620031D01*
X81918985Y-51559103D01*
X81936577Y-51537044D01*
X82017044Y-51456577D01*
X82039103Y-51438985D01*
X82135463Y-51378438D01*
X82160884Y-51366196D01*
X82268296Y-51328611D01*
X82295803Y-51322332D01*
X82331103Y-51318354D01*
X82383258Y-51312478D01*
X82398900Y-51311695D01*
X82407856Y-51311804D01*
X82416730Y-51313186D01*
X82448252Y-51309064D01*
X82464589Y-51308000D01*
X181179672Y-51308000D01*
X181199057Y-51309500D01*
G37*
G04 #@! TD.AperFunction*
G04 #@! TA.AperFunction,Conductor*
G36*
X120795321Y-87192802D02*
G01*
X120841814Y-87246458D01*
X120853200Y-87298800D01*
X120853200Y-87399146D01*
X120833198Y-87467267D01*
X120816373Y-87488164D01*
X120696648Y-87608098D01*
X120606898Y-87753699D01*
X120553051Y-87916043D01*
X120542700Y-88017068D01*
X120542700Y-88614532D01*
X120553313Y-88716819D01*
X120607444Y-88879068D01*
X120697448Y-89024513D01*
X120702630Y-89029686D01*
X120788667Y-89115573D01*
X120822746Y-89177855D01*
X120817743Y-89248675D01*
X120788824Y-89293761D01*
X120696648Y-89386098D01*
X120606898Y-89531699D01*
X120553051Y-89694043D01*
X120542700Y-89795068D01*
X120542700Y-90392532D01*
X120553313Y-90494819D01*
X120607444Y-90657068D01*
X120697448Y-90802513D01*
X120702630Y-90807686D01*
X120816218Y-90921076D01*
X120850297Y-90983358D01*
X120853200Y-91010249D01*
X120853200Y-91872800D01*
X120833198Y-91940921D01*
X120779542Y-91987414D01*
X120727200Y-91998800D01*
X116661200Y-91998800D01*
X116593079Y-91978798D01*
X116546586Y-91925142D01*
X116535200Y-91872800D01*
X116535200Y-88595308D01*
X116555202Y-88527187D01*
X116560506Y-88519756D01*
X116564752Y-88515502D01*
X116654502Y-88369901D01*
X116708349Y-88207557D01*
X116718700Y-88106532D01*
X116718700Y-87509068D01*
X116708087Y-87406781D01*
X116685365Y-87338675D01*
X116682781Y-87267726D01*
X116718965Y-87206642D01*
X116782429Y-87174818D01*
X116804889Y-87172800D01*
X120727200Y-87172800D01*
X120795321Y-87192802D01*
G37*
G04 #@! TD.AperFunction*
M02*
