G04 #@! TF.GenerationSoftware,KiCad,Pcbnew,(6.0.1)*
G04 #@! TF.CreationDate,2022-02-16T22:07:21-07:00*
G04 #@! TF.ProjectId,MinesRobotics_PDB,4d696e65-7352-46f6-926f-746963735f50,rev?*
G04 #@! TF.SameCoordinates,Original*
G04 #@! TF.FileFunction,Legend,Bot*
G04 #@! TF.FilePolarity,Positive*
%FSLAX46Y46*%
G04 Gerber Fmt 4.6, Leading zero omitted, Abs format (unit mm)*
G04 Created by KiCad (PCBNEW (6.0.1)) date 2022-02-16 22:07:21*
%MOMM*%
%LPD*%
G01*
G04 APERTURE LIST*
G04 #@! TA.AperFunction,Profile*
%ADD10C,0.150000*%
G04 #@! TD*
%ADD11C,0.150000*%
%ADD12C,0.120000*%
G04 APERTURE END LIST*
D10*
X181229000Y-126746000D02*
G75*
G03*
X182372000Y-125603000I0J1143000D01*
G01*
X82423000Y-50800000D02*
G75*
G03*
X81280000Y-51943000I0J-1143000D01*
G01*
X181229000Y-50800000D02*
X82423000Y-50800000D01*
X82423000Y-126746000D02*
X181229000Y-126746000D01*
X81280000Y-51943000D02*
X81280000Y-125603000D01*
X182372000Y-51943000D02*
G75*
G03*
X181229000Y-50800000I-1143000J0D01*
G01*
X81280000Y-125603000D02*
G75*
G03*
X82423000Y-126746000I1143000J0D01*
G01*
X182372000Y-125603000D02*
X182372000Y-51943000D01*
D11*
X153825142Y-90003333D02*
X153872761Y-89955714D01*
X153920380Y-89812857D01*
X153920380Y-89717619D01*
X153872761Y-89574761D01*
X153777523Y-89479523D01*
X153682285Y-89431904D01*
X153491809Y-89384285D01*
X153348952Y-89384285D01*
X153158476Y-89431904D01*
X153063238Y-89479523D01*
X152968000Y-89574761D01*
X152920380Y-89717619D01*
X152920380Y-89812857D01*
X152968000Y-89955714D01*
X153015619Y-90003333D01*
X152920380Y-90336666D02*
X152920380Y-90955714D01*
X153301333Y-90622380D01*
X153301333Y-90765238D01*
X153348952Y-90860476D01*
X153396571Y-90908095D01*
X153491809Y-90955714D01*
X153729904Y-90955714D01*
X153825142Y-90908095D01*
X153872761Y-90860476D01*
X153920380Y-90765238D01*
X153920380Y-90479523D01*
X153872761Y-90384285D01*
X153825142Y-90336666D01*
X116701866Y-86734942D02*
X116749485Y-86782561D01*
X116892342Y-86830180D01*
X116987580Y-86830180D01*
X117130438Y-86782561D01*
X117225676Y-86687323D01*
X117273295Y-86592085D01*
X117320914Y-86401609D01*
X117320914Y-86258752D01*
X117273295Y-86068276D01*
X117225676Y-85973038D01*
X117130438Y-85877800D01*
X116987580Y-85830180D01*
X116892342Y-85830180D01*
X116749485Y-85877800D01*
X116701866Y-85925419D01*
X116368533Y-85830180D02*
X115701866Y-85830180D01*
X116130438Y-86830180D01*
X127928666Y-87987142D02*
X127976285Y-88034761D01*
X128119142Y-88082380D01*
X128214380Y-88082380D01*
X128357238Y-88034761D01*
X128452476Y-87939523D01*
X128500095Y-87844285D01*
X128547714Y-87653809D01*
X128547714Y-87510952D01*
X128500095Y-87320476D01*
X128452476Y-87225238D01*
X128357238Y-87130000D01*
X128214380Y-87082380D01*
X128119142Y-87082380D01*
X127976285Y-87130000D01*
X127928666Y-87177619D01*
X126976285Y-88082380D02*
X127547714Y-88082380D01*
X127262000Y-88082380D02*
X127262000Y-87082380D01*
X127357238Y-87225238D01*
X127452476Y-87320476D01*
X127547714Y-87368095D01*
X143646666Y-88822342D02*
X143694285Y-88869961D01*
X143837142Y-88917580D01*
X143932380Y-88917580D01*
X144075238Y-88869961D01*
X144170476Y-88774723D01*
X144218095Y-88679485D01*
X144265714Y-88489009D01*
X144265714Y-88346152D01*
X144218095Y-88155676D01*
X144170476Y-88060438D01*
X144075238Y-87965200D01*
X143932380Y-87917580D01*
X143837142Y-87917580D01*
X143694285Y-87965200D01*
X143646666Y-88012819D01*
X143265714Y-88012819D02*
X143218095Y-87965200D01*
X143122857Y-87917580D01*
X142884761Y-87917580D01*
X142789523Y-87965200D01*
X142741904Y-88012819D01*
X142694285Y-88108057D01*
X142694285Y-88203295D01*
X142741904Y-88346152D01*
X143313333Y-88917580D01*
X142694285Y-88917580D01*
X115482666Y-93194142D02*
X115530285Y-93241761D01*
X115673142Y-93289380D01*
X115768380Y-93289380D01*
X115911238Y-93241761D01*
X116006476Y-93146523D01*
X116054095Y-93051285D01*
X116101714Y-92860809D01*
X116101714Y-92717952D01*
X116054095Y-92527476D01*
X116006476Y-92432238D01*
X115911238Y-92337000D01*
X115768380Y-92289380D01*
X115673142Y-92289380D01*
X115530285Y-92337000D01*
X115482666Y-92384619D01*
X114911238Y-92717952D02*
X115006476Y-92670333D01*
X115054095Y-92622714D01*
X115101714Y-92527476D01*
X115101714Y-92479857D01*
X115054095Y-92384619D01*
X115006476Y-92337000D01*
X114911238Y-92289380D01*
X114720761Y-92289380D01*
X114625523Y-92337000D01*
X114577904Y-92384619D01*
X114530285Y-92479857D01*
X114530285Y-92527476D01*
X114577904Y-92622714D01*
X114625523Y-92670333D01*
X114720761Y-92717952D01*
X114911238Y-92717952D01*
X115006476Y-92765571D01*
X115054095Y-92813190D01*
X115101714Y-92908428D01*
X115101714Y-93098904D01*
X115054095Y-93194142D01*
X115006476Y-93241761D01*
X114911238Y-93289380D01*
X114720761Y-93289380D01*
X114625523Y-93241761D01*
X114577904Y-93194142D01*
X114530285Y-93098904D01*
X114530285Y-92908428D01*
X114577904Y-92813190D01*
X114625523Y-92765571D01*
X114720761Y-92717952D01*
D12*
X152628000Y-94580000D02*
X148108000Y-94580000D01*
X148108000Y-94580000D02*
X148108000Y-86520000D01*
X152628000Y-86520000D02*
X152628000Y-94580000D01*
X116675780Y-88317800D02*
X116394620Y-88317800D01*
X116675780Y-87297800D02*
X116394620Y-87297800D01*
X128909563Y-88466000D02*
X129974000Y-89530437D01*
X121329000Y-87601000D02*
X122579000Y-87601000D01*
X129974000Y-98986000D02*
X126224000Y-98986000D01*
X121954000Y-86976000D02*
X121954000Y-88226000D01*
X120518437Y-88466000D02*
X119454000Y-89530437D01*
X119454000Y-89530437D02*
X119454000Y-98986000D01*
X119454000Y-98986000D02*
X123204000Y-98986000D01*
X120518437Y-88466000D02*
X123204000Y-88466000D01*
X129974000Y-89530437D02*
X129974000Y-98986000D01*
X128909563Y-88466000D02*
X126224000Y-88466000D01*
X143620580Y-89385200D02*
X143339420Y-89385200D01*
X143620580Y-90405200D02*
X143339420Y-90405200D01*
X115710580Y-90930000D02*
X115429420Y-90930000D01*
X115710580Y-91950000D02*
X115429420Y-91950000D01*
M02*
