G04 #@! TF.GenerationSoftware,KiCad,Pcbnew,(6.0.1)*
G04 #@! TF.CreationDate,2022-02-13T16:01:43-07:00*
G04 #@! TF.ProjectId,MinesRobotics_PDB,4d696e65-7352-46f6-926f-746963735f50,rev?*
G04 #@! TF.SameCoordinates,Original*
G04 #@! TF.FileFunction,Legend,Top*
G04 #@! TF.FilePolarity,Positive*
%FSLAX46Y46*%
G04 Gerber Fmt 4.6, Leading zero omitted, Abs format (unit mm)*
G04 Created by KiCad (PCBNEW (6.0.1)) date 2022-02-13 16:01:43*
%MOMM*%
%LPD*%
G01*
G04 APERTURE LIST*
%ADD10C,0.150000*%
%ADD11C,0.120000*%
G04 APERTURE END LIST*
D10*
X149952942Y-118000000D02*
X149952942Y-77978000D01*
X149952942Y-77978000D02*
X109982000Y-77978000D01*
X109982000Y-118000000D02*
X149952942Y-118000000D01*
X109982000Y-77978000D02*
X109982000Y-118000000D01*
X174942714Y-97734428D02*
X175704619Y-97734428D01*
X175323666Y-98115380D02*
X175323666Y-97353476D01*
X176133190Y-97210619D02*
X176180809Y-97163000D01*
X176276047Y-97115380D01*
X176514142Y-97115380D01*
X176609380Y-97163000D01*
X176657000Y-97210619D01*
X176704619Y-97305857D01*
X176704619Y-97401095D01*
X176657000Y-97543952D01*
X176085571Y-98115380D01*
X176704619Y-98115380D01*
X177561761Y-97448714D02*
X177561761Y-98115380D01*
X177323666Y-97067761D02*
X177085571Y-97782047D01*
X177704619Y-97782047D01*
X177990333Y-97448714D02*
X178228428Y-98115380D01*
X178466523Y-97448714D01*
X174688714Y-74112428D02*
X175450619Y-74112428D01*
X175069666Y-74493380D02*
X175069666Y-73731476D01*
X175879190Y-73588619D02*
X175926809Y-73541000D01*
X176022047Y-73493380D01*
X176260142Y-73493380D01*
X176355380Y-73541000D01*
X176403000Y-73588619D01*
X176450619Y-73683857D01*
X176450619Y-73779095D01*
X176403000Y-73921952D01*
X175831571Y-74493380D01*
X176450619Y-74493380D01*
X177307761Y-73826714D02*
X177307761Y-74493380D01*
X177069666Y-73445761D02*
X176831571Y-74160047D01*
X177450619Y-74160047D01*
X177736333Y-73826714D02*
X177974428Y-74493380D01*
X178212523Y-73826714D01*
X175069714Y-51887428D02*
X175831619Y-51887428D01*
X175450666Y-52268380D02*
X175450666Y-51506476D01*
X176260190Y-51363619D02*
X176307809Y-51316000D01*
X176403047Y-51268380D01*
X176641142Y-51268380D01*
X176736380Y-51316000D01*
X176784000Y-51363619D01*
X176831619Y-51458857D01*
X176831619Y-51554095D01*
X176784000Y-51696952D01*
X176212571Y-52268380D01*
X176831619Y-52268380D01*
X177688761Y-51601714D02*
X177688761Y-52268380D01*
X177450666Y-51220761D02*
X177212571Y-51935047D01*
X177831619Y-51935047D01*
X178117333Y-51601714D02*
X178355428Y-52268380D01*
X178593523Y-51601714D01*
X84772714Y-51633428D02*
X85534619Y-51633428D01*
X85153666Y-52014380D02*
X85153666Y-51252476D01*
X85963190Y-51109619D02*
X86010809Y-51062000D01*
X86106047Y-51014380D01*
X86344142Y-51014380D01*
X86439380Y-51062000D01*
X86487000Y-51109619D01*
X86534619Y-51204857D01*
X86534619Y-51300095D01*
X86487000Y-51442952D01*
X85915571Y-52014380D01*
X86534619Y-52014380D01*
X87391761Y-51347714D02*
X87391761Y-52014380D01*
X87153666Y-50966761D02*
X86915571Y-51681047D01*
X87534619Y-51681047D01*
X87820333Y-51347714D02*
X88058428Y-52014380D01*
X88296523Y-51347714D01*
X125476666Y-121948428D02*
X126238571Y-121948428D01*
X125857619Y-122329380D02*
X125857619Y-121567476D01*
X126667142Y-121424619D02*
X126714761Y-121377000D01*
X126810000Y-121329380D01*
X127048095Y-121329380D01*
X127143333Y-121377000D01*
X127190952Y-121424619D01*
X127238571Y-121519857D01*
X127238571Y-121615095D01*
X127190952Y-121757952D01*
X126619523Y-122329380D01*
X127238571Y-122329380D01*
X128095714Y-121662714D02*
X128095714Y-122329380D01*
X127857619Y-121281761D02*
X127619523Y-121996047D01*
X128238571Y-121996047D01*
X129238571Y-121329380D02*
X129810000Y-121329380D01*
X129524285Y-122329380D02*
X129524285Y-121329380D01*
X130143333Y-122329380D02*
X130143333Y-121329380D01*
X130571904Y-122329380D02*
X130571904Y-121805571D01*
X130524285Y-121710333D01*
X130429047Y-121662714D01*
X130286190Y-121662714D01*
X130190952Y-121710333D01*
X130143333Y-121757952D01*
X131048095Y-122329380D02*
X131048095Y-121662714D01*
X131048095Y-121329380D02*
X131000476Y-121377000D01*
X131048095Y-121424619D01*
X131095714Y-121377000D01*
X131048095Y-121329380D01*
X131048095Y-121424619D01*
X131476666Y-122281761D02*
X131571904Y-122329380D01*
X131762380Y-122329380D01*
X131857619Y-122281761D01*
X131905238Y-122186523D01*
X131905238Y-122138904D01*
X131857619Y-122043666D01*
X131762380Y-121996047D01*
X131619523Y-121996047D01*
X131524285Y-121948428D01*
X131476666Y-121853190D01*
X131476666Y-121805571D01*
X131524285Y-121710333D01*
X131619523Y-121662714D01*
X131762380Y-121662714D01*
X131857619Y-121710333D01*
X133048095Y-122281761D02*
X133143333Y-122329380D01*
X133333809Y-122329380D01*
X133429047Y-122281761D01*
X133476666Y-122186523D01*
X133476666Y-122138904D01*
X133429047Y-122043666D01*
X133333809Y-121996047D01*
X133190952Y-121996047D01*
X133095714Y-121948428D01*
X133048095Y-121853190D01*
X133048095Y-121805571D01*
X133095714Y-121710333D01*
X133190952Y-121662714D01*
X133333809Y-121662714D01*
X133429047Y-121710333D01*
X133905238Y-122329380D02*
X133905238Y-121662714D01*
X133905238Y-121329380D02*
X133857619Y-121377000D01*
X133905238Y-121424619D01*
X133952857Y-121377000D01*
X133905238Y-121329380D01*
X133905238Y-121424619D01*
X134810000Y-122329380D02*
X134810000Y-121329380D01*
X134810000Y-122281761D02*
X134714761Y-122329380D01*
X134524285Y-122329380D01*
X134429047Y-122281761D01*
X134381428Y-122234142D01*
X134333809Y-122138904D01*
X134333809Y-121853190D01*
X134381428Y-121757952D01*
X134429047Y-121710333D01*
X134524285Y-121662714D01*
X134714761Y-121662714D01*
X134810000Y-121710333D01*
X135667142Y-122281761D02*
X135571904Y-122329380D01*
X135381428Y-122329380D01*
X135286190Y-122281761D01*
X135238571Y-122186523D01*
X135238571Y-121805571D01*
X135286190Y-121710333D01*
X135381428Y-121662714D01*
X135571904Y-121662714D01*
X135667142Y-121710333D01*
X135714761Y-121805571D01*
X135714761Y-121900809D01*
X135238571Y-121996047D01*
X136190952Y-122281761D02*
X136190952Y-122329380D01*
X136143333Y-122424619D01*
X136095714Y-122472238D01*
X125786190Y-122987000D02*
X125690952Y-122939380D01*
X125548095Y-122939380D01*
X125405238Y-122987000D01*
X125310000Y-123082238D01*
X125262380Y-123177476D01*
X125214761Y-123367952D01*
X125214761Y-123510809D01*
X125262380Y-123701285D01*
X125310000Y-123796523D01*
X125405238Y-123891761D01*
X125548095Y-123939380D01*
X125643333Y-123939380D01*
X125786190Y-123891761D01*
X125833809Y-123844142D01*
X125833809Y-123510809D01*
X125643333Y-123510809D01*
X126262380Y-123939380D02*
X126262380Y-122939380D01*
X126833809Y-123939380D01*
X126833809Y-122939380D01*
X127310000Y-123939380D02*
X127310000Y-122939380D01*
X127548095Y-122939380D01*
X127690952Y-122987000D01*
X127786190Y-123082238D01*
X127833809Y-123177476D01*
X127881428Y-123367952D01*
X127881428Y-123510809D01*
X127833809Y-123701285D01*
X127786190Y-123796523D01*
X127690952Y-123891761D01*
X127548095Y-123939380D01*
X127310000Y-123939380D01*
X129214761Y-123939380D02*
X129119523Y-123891761D01*
X129071904Y-123844142D01*
X129024285Y-123748904D01*
X129024285Y-123463190D01*
X129071904Y-123367952D01*
X129119523Y-123320333D01*
X129214761Y-123272714D01*
X129357619Y-123272714D01*
X129452857Y-123320333D01*
X129500476Y-123367952D01*
X129548095Y-123463190D01*
X129548095Y-123748904D01*
X129500476Y-123844142D01*
X129452857Y-123891761D01*
X129357619Y-123939380D01*
X129214761Y-123939380D01*
X129976666Y-123272714D02*
X129976666Y-123939380D01*
X129976666Y-123367952D02*
X130024285Y-123320333D01*
X130119523Y-123272714D01*
X130262380Y-123272714D01*
X130357619Y-123320333D01*
X130405238Y-123415571D01*
X130405238Y-123939380D01*
X131643333Y-123939380D02*
X131643333Y-122939380D01*
X131643333Y-123320333D02*
X131738571Y-123272714D01*
X131929047Y-123272714D01*
X132024285Y-123320333D01*
X132071904Y-123367952D01*
X132119523Y-123463190D01*
X132119523Y-123748904D01*
X132071904Y-123844142D01*
X132024285Y-123891761D01*
X131929047Y-123939380D01*
X131738571Y-123939380D01*
X131643333Y-123891761D01*
X132690952Y-123939380D02*
X132595714Y-123891761D01*
X132548095Y-123844142D01*
X132500476Y-123748904D01*
X132500476Y-123463190D01*
X132548095Y-123367952D01*
X132595714Y-123320333D01*
X132690952Y-123272714D01*
X132833809Y-123272714D01*
X132929047Y-123320333D01*
X132976666Y-123367952D01*
X133024285Y-123463190D01*
X133024285Y-123748904D01*
X132976666Y-123844142D01*
X132929047Y-123891761D01*
X132833809Y-123939380D01*
X132690952Y-123939380D01*
X133310000Y-123272714D02*
X133690952Y-123272714D01*
X133452857Y-122939380D02*
X133452857Y-123796523D01*
X133500476Y-123891761D01*
X133595714Y-123939380D01*
X133690952Y-123939380D01*
X133881428Y-123272714D02*
X134262380Y-123272714D01*
X134024285Y-122939380D02*
X134024285Y-123796523D01*
X134071904Y-123891761D01*
X134167142Y-123939380D01*
X134262380Y-123939380D01*
X134738571Y-123939380D02*
X134643333Y-123891761D01*
X134595714Y-123844142D01*
X134548095Y-123748904D01*
X134548095Y-123463190D01*
X134595714Y-123367952D01*
X134643333Y-123320333D01*
X134738571Y-123272714D01*
X134881428Y-123272714D01*
X134976666Y-123320333D01*
X135024285Y-123367952D01*
X135071904Y-123463190D01*
X135071904Y-123748904D01*
X135024285Y-123844142D01*
X134976666Y-123891761D01*
X134881428Y-123939380D01*
X134738571Y-123939380D01*
X135500476Y-123939380D02*
X135500476Y-123272714D01*
X135500476Y-123367952D02*
X135548095Y-123320333D01*
X135643333Y-123272714D01*
X135786190Y-123272714D01*
X135881428Y-123320333D01*
X135929047Y-123415571D01*
X135929047Y-123939380D01*
X135929047Y-123415571D02*
X135976666Y-123320333D01*
X136071904Y-123272714D01*
X136214761Y-123272714D01*
X136310000Y-123320333D01*
X136357619Y-123415571D01*
X136357619Y-123939380D01*
X85153714Y-74366428D02*
X85915619Y-74366428D01*
X85534666Y-74747380D02*
X85534666Y-73985476D01*
X86344190Y-73842619D02*
X86391809Y-73795000D01*
X86487047Y-73747380D01*
X86725142Y-73747380D01*
X86820380Y-73795000D01*
X86868000Y-73842619D01*
X86915619Y-73937857D01*
X86915619Y-74033095D01*
X86868000Y-74175952D01*
X86296571Y-74747380D01*
X86915619Y-74747380D01*
X87772761Y-74080714D02*
X87772761Y-74747380D01*
X87534666Y-73699761D02*
X87296571Y-74414047D01*
X87915619Y-74414047D01*
X88201333Y-74080714D02*
X88439428Y-74747380D01*
X88677523Y-74080714D01*
X108640571Y-116990000D02*
X108640571Y-117323333D01*
X109164380Y-117323333D02*
X108164380Y-117323333D01*
X108164380Y-116847142D01*
X108497714Y-116037619D02*
X109164380Y-116037619D01*
X108497714Y-116466190D02*
X109021523Y-116466190D01*
X109116761Y-116418571D01*
X109164380Y-116323333D01*
X109164380Y-116180476D01*
X109116761Y-116085238D01*
X109069142Y-116037619D01*
X109116761Y-115609047D02*
X109164380Y-115513809D01*
X109164380Y-115323333D01*
X109116761Y-115228095D01*
X109021523Y-115180476D01*
X108973904Y-115180476D01*
X108878666Y-115228095D01*
X108831047Y-115323333D01*
X108831047Y-115466190D01*
X108783428Y-115561428D01*
X108688190Y-115609047D01*
X108640571Y-115609047D01*
X108545333Y-115561428D01*
X108497714Y-115466190D01*
X108497714Y-115323333D01*
X108545333Y-115228095D01*
X109116761Y-114370952D02*
X109164380Y-114466190D01*
X109164380Y-114656666D01*
X109116761Y-114751904D01*
X109021523Y-114799523D01*
X108640571Y-114799523D01*
X108545333Y-114751904D01*
X108497714Y-114656666D01*
X108497714Y-114466190D01*
X108545333Y-114370952D01*
X108640571Y-114323333D01*
X108735809Y-114323333D01*
X108831047Y-114799523D01*
X108640571Y-112799523D02*
X108688190Y-112656666D01*
X108735809Y-112609047D01*
X108831047Y-112561428D01*
X108973904Y-112561428D01*
X109069142Y-112609047D01*
X109116761Y-112656666D01*
X109164380Y-112751904D01*
X109164380Y-113132857D01*
X108164380Y-113132857D01*
X108164380Y-112799523D01*
X108212000Y-112704285D01*
X108259619Y-112656666D01*
X108354857Y-112609047D01*
X108450095Y-112609047D01*
X108545333Y-112656666D01*
X108592952Y-112704285D01*
X108640571Y-112799523D01*
X108640571Y-113132857D01*
X109164380Y-111990000D02*
X109116761Y-112085238D01*
X109069142Y-112132857D01*
X108973904Y-112180476D01*
X108688190Y-112180476D01*
X108592952Y-112132857D01*
X108545333Y-112085238D01*
X108497714Y-111990000D01*
X108497714Y-111847142D01*
X108545333Y-111751904D01*
X108592952Y-111704285D01*
X108688190Y-111656666D01*
X108973904Y-111656666D01*
X109069142Y-111704285D01*
X109116761Y-111751904D01*
X109164380Y-111847142D01*
X109164380Y-111990000D01*
X109164380Y-110799523D02*
X108640571Y-110799523D01*
X108545333Y-110847142D01*
X108497714Y-110942380D01*
X108497714Y-111132857D01*
X108545333Y-111228095D01*
X109116761Y-110799523D02*
X109164380Y-110894761D01*
X109164380Y-111132857D01*
X109116761Y-111228095D01*
X109021523Y-111275714D01*
X108926285Y-111275714D01*
X108831047Y-111228095D01*
X108783428Y-111132857D01*
X108783428Y-110894761D01*
X108735809Y-110799523D01*
X109164380Y-110323333D02*
X108497714Y-110323333D01*
X108688190Y-110323333D02*
X108592952Y-110275714D01*
X108545333Y-110228095D01*
X108497714Y-110132857D01*
X108497714Y-110037619D01*
X109164380Y-109275714D02*
X108164380Y-109275714D01*
X109116761Y-109275714D02*
X109164380Y-109370952D01*
X109164380Y-109561428D01*
X109116761Y-109656666D01*
X109069142Y-109704285D01*
X108973904Y-109751904D01*
X108688190Y-109751904D01*
X108592952Y-109704285D01*
X108545333Y-109656666D01*
X108497714Y-109561428D01*
X108497714Y-109370952D01*
X108545333Y-109275714D01*
X109116761Y-108751904D02*
X109164380Y-108751904D01*
X109259619Y-108799523D01*
X109307238Y-108847142D01*
X109164380Y-106990000D02*
X108688190Y-107323333D01*
X109164380Y-107561428D02*
X108164380Y-107561428D01*
X108164380Y-107180476D01*
X108212000Y-107085238D01*
X108259619Y-107037619D01*
X108354857Y-106990000D01*
X108497714Y-106990000D01*
X108592952Y-107037619D01*
X108640571Y-107085238D01*
X108688190Y-107180476D01*
X108688190Y-107561428D01*
X108640571Y-106561428D02*
X108640571Y-106228095D01*
X109164380Y-106085238D02*
X109164380Y-106561428D01*
X108164380Y-106561428D01*
X108164380Y-106085238D01*
X108164380Y-105799523D02*
X109164380Y-105466190D01*
X108164380Y-105132857D01*
X108878666Y-104085238D02*
X108878666Y-103609047D01*
X109164380Y-104180476D02*
X108164380Y-103847142D01*
X109164380Y-103513809D01*
X145478714Y-61031428D02*
X146240619Y-61031428D01*
X145859666Y-61412380D02*
X145859666Y-60650476D01*
X146669190Y-60507619D02*
X146716809Y-60460000D01*
X146812047Y-60412380D01*
X147050142Y-60412380D01*
X147145380Y-60460000D01*
X147193000Y-60507619D01*
X147240619Y-60602857D01*
X147240619Y-60698095D01*
X147193000Y-60840952D01*
X146621571Y-61412380D01*
X147240619Y-61412380D01*
X148097761Y-60745714D02*
X148097761Y-61412380D01*
X147859666Y-60364761D02*
X147621571Y-61079047D01*
X148240619Y-61079047D01*
X148526333Y-60745714D02*
X148764428Y-61412380D01*
X149002523Y-60745714D01*
X85153714Y-97734428D02*
X85915619Y-97734428D01*
X85534666Y-98115380D02*
X85534666Y-97353476D01*
X86344190Y-97210619D02*
X86391809Y-97163000D01*
X86487047Y-97115380D01*
X86725142Y-97115380D01*
X86820380Y-97163000D01*
X86868000Y-97210619D01*
X86915619Y-97305857D01*
X86915619Y-97401095D01*
X86868000Y-97543952D01*
X86296571Y-98115380D01*
X86915619Y-98115380D01*
X87772761Y-97448714D02*
X87772761Y-98115380D01*
X87534666Y-97067761D02*
X87296571Y-97782047D01*
X87915619Y-97782047D01*
X88201333Y-97448714D02*
X88439428Y-98115380D01*
X88677523Y-97448714D01*
X113855714Y-61031428D02*
X114617619Y-61031428D01*
X114236666Y-61412380D02*
X114236666Y-60650476D01*
X115046190Y-60507619D02*
X115093809Y-60460000D01*
X115189047Y-60412380D01*
X115427142Y-60412380D01*
X115522380Y-60460000D01*
X115570000Y-60507619D01*
X115617619Y-60602857D01*
X115617619Y-60698095D01*
X115570000Y-60840952D01*
X114998571Y-61412380D01*
X115617619Y-61412380D01*
X116474761Y-60745714D02*
X116474761Y-61412380D01*
X116236666Y-60364761D02*
X115998571Y-61079047D01*
X116617619Y-61079047D01*
X116903333Y-60745714D02*
X117141428Y-61412380D01*
X117379523Y-60745714D01*
X108759666Y-73588571D02*
X108426333Y-73588571D01*
X108426333Y-74112380D02*
X108426333Y-73112380D01*
X108902523Y-73112380D01*
X109188238Y-73112380D02*
X109807285Y-73112380D01*
X109473952Y-73493333D01*
X109616809Y-73493333D01*
X109712047Y-73540952D01*
X109759666Y-73588571D01*
X109807285Y-73683809D01*
X109807285Y-73921904D01*
X109759666Y-74017142D01*
X109712047Y-74064761D01*
X109616809Y-74112380D01*
X109331095Y-74112380D01*
X109235857Y-74064761D01*
X109188238Y-74017142D01*
X117308333Y-75636380D02*
X116975000Y-75160190D01*
X116736904Y-75636380D02*
X116736904Y-74636380D01*
X117117857Y-74636380D01*
X117213095Y-74684000D01*
X117260714Y-74731619D01*
X117308333Y-74826857D01*
X117308333Y-74969714D01*
X117260714Y-75064952D01*
X117213095Y-75112571D01*
X117117857Y-75160190D01*
X116736904Y-75160190D01*
X118213095Y-74636380D02*
X117736904Y-74636380D01*
X117689285Y-75112571D01*
X117736904Y-75064952D01*
X117832142Y-75017333D01*
X118070238Y-75017333D01*
X118165476Y-75064952D01*
X118213095Y-75112571D01*
X118260714Y-75207809D01*
X118260714Y-75445904D01*
X118213095Y-75541142D01*
X118165476Y-75588761D01*
X118070238Y-75636380D01*
X117832142Y-75636380D01*
X117736904Y-75588761D01*
X117689285Y-75541142D01*
X155241666Y-58729571D02*
X154908333Y-58729571D01*
X154908333Y-59253380D02*
X154908333Y-58253380D01*
X155384523Y-58253380D01*
X155717857Y-58348619D02*
X155765476Y-58301000D01*
X155860714Y-58253380D01*
X156098809Y-58253380D01*
X156194047Y-58301000D01*
X156241666Y-58348619D01*
X156289285Y-58443857D01*
X156289285Y-58539095D01*
X156241666Y-58681952D01*
X155670238Y-59253380D01*
X156289285Y-59253380D01*
X142213104Y-75847180D02*
X142213104Y-74847180D01*
X142451200Y-74847180D01*
X142594057Y-74894800D01*
X142689295Y-74990038D01*
X142736914Y-75085276D01*
X142784533Y-75275752D01*
X142784533Y-75418609D01*
X142736914Y-75609085D01*
X142689295Y-75704323D01*
X142594057Y-75799561D01*
X142451200Y-75847180D01*
X142213104Y-75847180D01*
X143117866Y-74847180D02*
X143784533Y-74847180D01*
X143355961Y-75847180D01*
X163528476Y-85018571D02*
X163195142Y-85018571D01*
X163195142Y-85542380D02*
X163195142Y-84542380D01*
X163671333Y-84542380D01*
X164576095Y-85542380D02*
X164004666Y-85542380D01*
X164290380Y-85542380D02*
X164290380Y-84542380D01*
X164195142Y-84685238D01*
X164099904Y-84780476D01*
X164004666Y-84828095D01*
X165433238Y-84875714D02*
X165433238Y-85542380D01*
X165195142Y-84494761D02*
X164957047Y-85209047D01*
X165576095Y-85209047D01*
X86788666Y-115657380D02*
X86788666Y-116371666D01*
X86741047Y-116514523D01*
X86645809Y-116609761D01*
X86502952Y-116657380D01*
X86407714Y-116657380D01*
X87741047Y-115657380D02*
X87264857Y-115657380D01*
X87217238Y-116133571D01*
X87264857Y-116085952D01*
X87360095Y-116038333D01*
X87598190Y-116038333D01*
X87693428Y-116085952D01*
X87741047Y-116133571D01*
X87788666Y-116228809D01*
X87788666Y-116466904D01*
X87741047Y-116562142D01*
X87693428Y-116609761D01*
X87598190Y-116657380D01*
X87360095Y-116657380D01*
X87264857Y-116609761D01*
X87217238Y-116562142D01*
X114196904Y-76050380D02*
X114196904Y-75050380D01*
X114435000Y-75050380D01*
X114577857Y-75098000D01*
X114673095Y-75193238D01*
X114720714Y-75288476D01*
X114768333Y-75478952D01*
X114768333Y-75621809D01*
X114720714Y-75812285D01*
X114673095Y-75907523D01*
X114577857Y-76002761D01*
X114435000Y-76050380D01*
X114196904Y-76050380D01*
X115101666Y-75050380D02*
X115720714Y-75050380D01*
X115387380Y-75431333D01*
X115530238Y-75431333D01*
X115625476Y-75478952D01*
X115673095Y-75526571D01*
X115720714Y-75621809D01*
X115720714Y-75859904D01*
X115673095Y-75955142D01*
X115625476Y-76002761D01*
X115530238Y-76050380D01*
X115244523Y-76050380D01*
X115149285Y-76002761D01*
X115101666Y-75955142D01*
X133524666Y-58761380D02*
X133524666Y-59475666D01*
X133477047Y-59618523D01*
X133381809Y-59713761D01*
X133238952Y-59761380D01*
X133143714Y-59761380D01*
X134143714Y-59189952D02*
X134048476Y-59142333D01*
X134000857Y-59094714D01*
X133953238Y-58999476D01*
X133953238Y-58951857D01*
X134000857Y-58856619D01*
X134048476Y-58809000D01*
X134143714Y-58761380D01*
X134334190Y-58761380D01*
X134429428Y-58809000D01*
X134477047Y-58856619D01*
X134524666Y-58951857D01*
X134524666Y-58999476D01*
X134477047Y-59094714D01*
X134429428Y-59142333D01*
X134334190Y-59189952D01*
X134143714Y-59189952D01*
X134048476Y-59237571D01*
X134000857Y-59285190D01*
X133953238Y-59380428D01*
X133953238Y-59570904D01*
X134000857Y-59666142D01*
X134048476Y-59713761D01*
X134143714Y-59761380D01*
X134334190Y-59761380D01*
X134429428Y-59713761D01*
X134477047Y-59666142D01*
X134524666Y-59570904D01*
X134524666Y-59380428D01*
X134477047Y-59285190D01*
X134429428Y-59237571D01*
X134334190Y-59189952D01*
X163782476Y-108386571D02*
X163449142Y-108386571D01*
X163449142Y-108910380D02*
X163449142Y-107910380D01*
X163925333Y-107910380D01*
X164830095Y-108910380D02*
X164258666Y-108910380D01*
X164544380Y-108910380D02*
X164544380Y-107910380D01*
X164449142Y-108053238D01*
X164353904Y-108148476D01*
X164258666Y-108196095D01*
X165687238Y-107910380D02*
X165496761Y-107910380D01*
X165401523Y-107958000D01*
X165353904Y-108005619D01*
X165258666Y-108148476D01*
X165211047Y-108338952D01*
X165211047Y-108719904D01*
X165258666Y-108815142D01*
X165306285Y-108862761D01*
X165401523Y-108910380D01*
X165592000Y-108910380D01*
X165687238Y-108862761D01*
X165734857Y-108815142D01*
X165782476Y-108719904D01*
X165782476Y-108481809D01*
X165734857Y-108386571D01*
X165687238Y-108338952D01*
X165592000Y-108291333D01*
X165401523Y-108291333D01*
X165306285Y-108338952D01*
X165258666Y-108386571D01*
X165211047Y-108481809D01*
X168400404Y-64366380D02*
X168400404Y-63366380D01*
X168638500Y-63366380D01*
X168781357Y-63414000D01*
X168876595Y-63509238D01*
X168924214Y-63604476D01*
X168971833Y-63794952D01*
X168971833Y-63937809D01*
X168924214Y-64128285D01*
X168876595Y-64223523D01*
X168781357Y-64318761D01*
X168638500Y-64366380D01*
X168400404Y-64366380D01*
X169352785Y-63461619D02*
X169400404Y-63414000D01*
X169495642Y-63366380D01*
X169733738Y-63366380D01*
X169828976Y-63414000D01*
X169876595Y-63461619D01*
X169924214Y-63556857D01*
X169924214Y-63652095D01*
X169876595Y-63794952D01*
X169305166Y-64366380D01*
X169924214Y-64366380D01*
X87804666Y-68997580D02*
X87804666Y-69711866D01*
X87757047Y-69854723D01*
X87661809Y-69949961D01*
X87518952Y-69997580D01*
X87423714Y-69997580D01*
X88233238Y-69092819D02*
X88280857Y-69045200D01*
X88376095Y-68997580D01*
X88614190Y-68997580D01*
X88709428Y-69045200D01*
X88757047Y-69092819D01*
X88804666Y-69188057D01*
X88804666Y-69283295D01*
X88757047Y-69426152D01*
X88185619Y-69997580D01*
X88804666Y-69997580D01*
X163160476Y-97543571D02*
X162827142Y-97543571D01*
X162827142Y-98067380D02*
X162827142Y-97067380D01*
X163303333Y-97067380D01*
X164208095Y-98067380D02*
X163636666Y-98067380D01*
X163922380Y-98067380D02*
X163922380Y-97067380D01*
X163827142Y-97210238D01*
X163731904Y-97305476D01*
X163636666Y-97353095D01*
X164589047Y-97162619D02*
X164636666Y-97115000D01*
X164731904Y-97067380D01*
X164970000Y-97067380D01*
X165065238Y-97115000D01*
X165112857Y-97162619D01*
X165160476Y-97257857D01*
X165160476Y-97353095D01*
X165112857Y-97495952D01*
X164541428Y-98067380D01*
X165160476Y-98067380D01*
X171537333Y-87320380D02*
X171204000Y-86844190D01*
X170965904Y-87320380D02*
X170965904Y-86320380D01*
X171346857Y-86320380D01*
X171442095Y-86368000D01*
X171489714Y-86415619D01*
X171537333Y-86510857D01*
X171537333Y-86653714D01*
X171489714Y-86748952D01*
X171442095Y-86796571D01*
X171346857Y-86844190D01*
X170965904Y-86844190D01*
X172108761Y-86748952D02*
X172013523Y-86701333D01*
X171965904Y-86653714D01*
X171918285Y-86558476D01*
X171918285Y-86510857D01*
X171965904Y-86415619D01*
X172013523Y-86368000D01*
X172108761Y-86320380D01*
X172299238Y-86320380D01*
X172394476Y-86368000D01*
X172442095Y-86415619D01*
X172489714Y-86510857D01*
X172489714Y-86558476D01*
X172442095Y-86653714D01*
X172394476Y-86701333D01*
X172299238Y-86748952D01*
X172108761Y-86748952D01*
X172013523Y-86796571D01*
X171965904Y-86844190D01*
X171918285Y-86939428D01*
X171918285Y-87129904D01*
X171965904Y-87225142D01*
X172013523Y-87272761D01*
X172108761Y-87320380D01*
X172299238Y-87320380D01*
X172394476Y-87272761D01*
X172442095Y-87225142D01*
X172489714Y-87129904D01*
X172489714Y-86939428D01*
X172442095Y-86844190D01*
X172394476Y-86796571D01*
X172299238Y-86748952D01*
X96289904Y-109672380D02*
X96289904Y-108672380D01*
X96528000Y-108672380D01*
X96670857Y-108720000D01*
X96766095Y-108815238D01*
X96813714Y-108910476D01*
X96861333Y-109100952D01*
X96861333Y-109243809D01*
X96813714Y-109434285D01*
X96766095Y-109529523D01*
X96670857Y-109624761D01*
X96528000Y-109672380D01*
X96289904Y-109672380D01*
X97718476Y-109005714D02*
X97718476Y-109672380D01*
X97480380Y-108624761D02*
X97242285Y-109339047D01*
X97861333Y-109339047D01*
X162687095Y-65603380D02*
X162687095Y-64603380D01*
X162687095Y-65079571D02*
X163258523Y-65079571D01*
X163258523Y-65603380D02*
X163258523Y-64603380D01*
X163687095Y-64698619D02*
X163734714Y-64651000D01*
X163829952Y-64603380D01*
X164068047Y-64603380D01*
X164163285Y-64651000D01*
X164210904Y-64698619D01*
X164258523Y-64793857D01*
X164258523Y-64889095D01*
X164210904Y-65031952D01*
X163639476Y-65603380D01*
X164258523Y-65603380D01*
X173656666Y-92289380D02*
X173656666Y-93003666D01*
X173609047Y-93146523D01*
X173513809Y-93241761D01*
X173370952Y-93289380D01*
X173275714Y-93289380D01*
X174037619Y-92289380D02*
X174704285Y-92289380D01*
X174275714Y-93289380D01*
X113553733Y-96659180D02*
X113220400Y-96182990D01*
X112982304Y-96659180D02*
X112982304Y-95659180D01*
X113363257Y-95659180D01*
X113458495Y-95706800D01*
X113506114Y-95754419D01*
X113553733Y-95849657D01*
X113553733Y-95992514D01*
X113506114Y-96087752D01*
X113458495Y-96135371D01*
X113363257Y-96182990D01*
X112982304Y-96182990D01*
X114506114Y-96659180D02*
X113934685Y-96659180D01*
X114220400Y-96659180D02*
X114220400Y-95659180D01*
X114125161Y-95802038D01*
X114029923Y-95897276D01*
X113934685Y-95944895D01*
X168629104Y-110949980D02*
X168629104Y-109949980D01*
X168867200Y-109949980D01*
X169010057Y-109997600D01*
X169105295Y-110092838D01*
X169152914Y-110188076D01*
X169200533Y-110378552D01*
X169200533Y-110521409D01*
X169152914Y-110711885D01*
X169105295Y-110807123D01*
X169010057Y-110902361D01*
X168867200Y-110949980D01*
X168629104Y-110949980D01*
X169771961Y-110378552D02*
X169676723Y-110330933D01*
X169629104Y-110283314D01*
X169581485Y-110188076D01*
X169581485Y-110140457D01*
X169629104Y-110045219D01*
X169676723Y-109997600D01*
X169771961Y-109949980D01*
X169962438Y-109949980D01*
X170057676Y-109997600D01*
X170105295Y-110045219D01*
X170152914Y-110140457D01*
X170152914Y-110188076D01*
X170105295Y-110283314D01*
X170057676Y-110330933D01*
X169962438Y-110378552D01*
X169771961Y-110378552D01*
X169676723Y-110426171D01*
X169629104Y-110473790D01*
X169581485Y-110569028D01*
X169581485Y-110759504D01*
X169629104Y-110854742D01*
X169676723Y-110902361D01*
X169771961Y-110949980D01*
X169962438Y-110949980D01*
X170057676Y-110902361D01*
X170105295Y-110854742D01*
X170152914Y-110759504D01*
X170152914Y-110569028D01*
X170105295Y-110473790D01*
X170057676Y-110426171D01*
X169962438Y-110378552D01*
X129333666Y-58761380D02*
X129333666Y-59475666D01*
X129286047Y-59618523D01*
X129190809Y-59713761D01*
X129047952Y-59761380D01*
X128952714Y-59761380D01*
X130238428Y-59094714D02*
X130238428Y-59761380D01*
X130000333Y-58713761D02*
X129762238Y-59428047D01*
X130381285Y-59428047D01*
X91882933Y-65273180D02*
X91549600Y-64796990D01*
X91311504Y-65273180D02*
X91311504Y-64273180D01*
X91692457Y-64273180D01*
X91787695Y-64320800D01*
X91835314Y-64368419D01*
X91882933Y-64463657D01*
X91882933Y-64606514D01*
X91835314Y-64701752D01*
X91787695Y-64749371D01*
X91692457Y-64796990D01*
X91311504Y-64796990D01*
X92216266Y-64273180D02*
X92835314Y-64273180D01*
X92501980Y-64654133D01*
X92644838Y-64654133D01*
X92740076Y-64701752D01*
X92787695Y-64749371D01*
X92835314Y-64844609D01*
X92835314Y-65082704D01*
X92787695Y-65177942D01*
X92740076Y-65225561D01*
X92644838Y-65273180D01*
X92359123Y-65273180D01*
X92263885Y-65225561D01*
X92216266Y-65177942D01*
X108759666Y-62618571D02*
X108426333Y-62618571D01*
X108426333Y-63142380D02*
X108426333Y-62142380D01*
X108902523Y-62142380D01*
X109188238Y-62142380D02*
X109854904Y-62142380D01*
X109426333Y-63142380D01*
X145426133Y-75636380D02*
X145092800Y-75160190D01*
X144854704Y-75636380D02*
X144854704Y-74636380D01*
X145235657Y-74636380D01*
X145330895Y-74684000D01*
X145378514Y-74731619D01*
X145426133Y-74826857D01*
X145426133Y-74969714D01*
X145378514Y-75064952D01*
X145330895Y-75112571D01*
X145235657Y-75160190D01*
X144854704Y-75160190D01*
X145902323Y-75636380D02*
X146092800Y-75636380D01*
X146188038Y-75588761D01*
X146235657Y-75541142D01*
X146330895Y-75398285D01*
X146378514Y-75207809D01*
X146378514Y-74826857D01*
X146330895Y-74731619D01*
X146283276Y-74684000D01*
X146188038Y-74636380D01*
X145997561Y-74636380D01*
X145902323Y-74684000D01*
X145854704Y-74731619D01*
X145807085Y-74826857D01*
X145807085Y-75064952D01*
X145854704Y-75160190D01*
X145902323Y-75207809D01*
X145997561Y-75255428D01*
X146188038Y-75255428D01*
X146283276Y-75207809D01*
X146330895Y-75160190D01*
X146378514Y-75064952D01*
X152479476Y-73009571D02*
X152146142Y-73009571D01*
X152146142Y-73533380D02*
X152146142Y-72533380D01*
X152622333Y-72533380D01*
X153527095Y-73533380D02*
X152955666Y-73533380D01*
X153241380Y-73533380D02*
X153241380Y-72533380D01*
X153146142Y-72676238D01*
X153050904Y-72771476D01*
X152955666Y-72819095D01*
X154479476Y-73533380D02*
X153908047Y-73533380D01*
X154193761Y-73533380D02*
X154193761Y-72533380D01*
X154098523Y-72676238D01*
X154003285Y-72771476D01*
X153908047Y-72819095D01*
X96340704Y-63444380D02*
X96340704Y-62444380D01*
X96578800Y-62444380D01*
X96721657Y-62492000D01*
X96816895Y-62587238D01*
X96864514Y-62682476D01*
X96912133Y-62872952D01*
X96912133Y-63015809D01*
X96864514Y-63206285D01*
X96816895Y-63301523D01*
X96721657Y-63396761D01*
X96578800Y-63444380D01*
X96340704Y-63444380D01*
X97864514Y-63444380D02*
X97293085Y-63444380D01*
X97578800Y-63444380D02*
X97578800Y-62444380D01*
X97483561Y-62587238D01*
X97388323Y-62682476D01*
X97293085Y-62730095D01*
X163020476Y-74068571D02*
X162687142Y-74068571D01*
X162687142Y-74592380D02*
X162687142Y-73592380D01*
X163163333Y-73592380D01*
X164068095Y-74592380D02*
X163496666Y-74592380D01*
X163782380Y-74592380D02*
X163782380Y-73592380D01*
X163687142Y-73735238D01*
X163591904Y-73830476D01*
X163496666Y-73878095D01*
X164687142Y-73592380D02*
X164782380Y-73592380D01*
X164877619Y-73640000D01*
X164925238Y-73687619D01*
X164972857Y-73782857D01*
X165020476Y-73973333D01*
X165020476Y-74211428D01*
X164972857Y-74401904D01*
X164925238Y-74497142D01*
X164877619Y-74544761D01*
X164782380Y-74592380D01*
X164687142Y-74592380D01*
X164591904Y-74544761D01*
X164544285Y-74497142D01*
X164496666Y-74401904D01*
X164449047Y-74211428D01*
X164449047Y-73973333D01*
X164496666Y-73782857D01*
X164544285Y-73687619D01*
X164591904Y-73640000D01*
X164687142Y-73592380D01*
X176958666Y-115530380D02*
X176958666Y-116244666D01*
X176911047Y-116387523D01*
X176815809Y-116482761D01*
X176672952Y-116530380D01*
X176577714Y-116530380D01*
X177482476Y-116530380D02*
X177672952Y-116530380D01*
X177768190Y-116482761D01*
X177815809Y-116435142D01*
X177911047Y-116292285D01*
X177958666Y-116101809D01*
X177958666Y-115720857D01*
X177911047Y-115625619D01*
X177863428Y-115578000D01*
X177768190Y-115530380D01*
X177577714Y-115530380D01*
X177482476Y-115578000D01*
X177434857Y-115625619D01*
X177387238Y-115720857D01*
X177387238Y-115958952D01*
X177434857Y-116054190D01*
X177482476Y-116101809D01*
X177577714Y-116149428D01*
X177768190Y-116149428D01*
X177863428Y-116101809D01*
X177911047Y-116054190D01*
X177958666Y-115958952D01*
X93749904Y-87701380D02*
X93749904Y-86701380D01*
X93988000Y-86701380D01*
X94130857Y-86749000D01*
X94226095Y-86844238D01*
X94273714Y-86939476D01*
X94321333Y-87129952D01*
X94321333Y-87272809D01*
X94273714Y-87463285D01*
X94226095Y-87558523D01*
X94130857Y-87653761D01*
X93988000Y-87701380D01*
X93749904Y-87701380D01*
X95226095Y-86701380D02*
X94749904Y-86701380D01*
X94702285Y-87177571D01*
X94749904Y-87129952D01*
X94845142Y-87082333D01*
X95083238Y-87082333D01*
X95178476Y-87129952D01*
X95226095Y-87177571D01*
X95273714Y-87272809D01*
X95273714Y-87510904D01*
X95226095Y-87606142D01*
X95178476Y-87653761D01*
X95083238Y-87701380D01*
X94845142Y-87701380D01*
X94749904Y-87653761D01*
X94702285Y-87606142D01*
X99761666Y-84778571D02*
X99428333Y-84778571D01*
X99428333Y-85302380D02*
X99428333Y-84302380D01*
X99904523Y-84302380D01*
X100333095Y-85302380D02*
X100523571Y-85302380D01*
X100618809Y-85254761D01*
X100666428Y-85207142D01*
X100761666Y-85064285D01*
X100809285Y-84873809D01*
X100809285Y-84492857D01*
X100761666Y-84397619D01*
X100714047Y-84350000D01*
X100618809Y-84302380D01*
X100428333Y-84302380D01*
X100333095Y-84350000D01*
X100285476Y-84397619D01*
X100237857Y-84492857D01*
X100237857Y-84730952D01*
X100285476Y-84826190D01*
X100333095Y-84873809D01*
X100428333Y-84921428D01*
X100618809Y-84921428D01*
X100714047Y-84873809D01*
X100761666Y-84826190D01*
X100809285Y-84730952D01*
X140462095Y-81224380D02*
X140462095Y-80224380D01*
X140462095Y-80700571D02*
X141033523Y-80700571D01*
X141033523Y-81224380D02*
X141033523Y-80224380D01*
X141414476Y-80224380D02*
X142081142Y-80224380D01*
X141652571Y-81224380D01*
X172283380Y-111640857D02*
X171807190Y-111974190D01*
X172283380Y-112212285D02*
X171283380Y-112212285D01*
X171283380Y-111831333D01*
X171331000Y-111736095D01*
X171378619Y-111688476D01*
X171473857Y-111640857D01*
X171616714Y-111640857D01*
X171711952Y-111688476D01*
X171759571Y-111736095D01*
X171807190Y-111831333D01*
X171807190Y-112212285D01*
X172283380Y-110688476D02*
X172283380Y-111259904D01*
X172283380Y-110974190D02*
X171283380Y-110974190D01*
X171426238Y-111069428D01*
X171521476Y-111164666D01*
X171569095Y-111259904D01*
X171283380Y-110069428D02*
X171283380Y-109974190D01*
X171331000Y-109878952D01*
X171378619Y-109831333D01*
X171473857Y-109783714D01*
X171664333Y-109736095D01*
X171902428Y-109736095D01*
X172092904Y-109783714D01*
X172188142Y-109831333D01*
X172235761Y-109878952D01*
X172283380Y-109974190D01*
X172283380Y-110069428D01*
X172235761Y-110164666D01*
X172188142Y-110212285D01*
X172092904Y-110259904D01*
X171902428Y-110307523D01*
X171664333Y-110307523D01*
X171473857Y-110259904D01*
X171378619Y-110212285D01*
X171331000Y-110164666D01*
X171283380Y-110069428D01*
X152487333Y-98242380D02*
X152154000Y-97766190D01*
X151915904Y-98242380D02*
X151915904Y-97242380D01*
X152296857Y-97242380D01*
X152392095Y-97290000D01*
X152439714Y-97337619D01*
X152487333Y-97432857D01*
X152487333Y-97575714D01*
X152439714Y-97670952D01*
X152392095Y-97718571D01*
X152296857Y-97766190D01*
X151915904Y-97766190D01*
X152868285Y-97337619D02*
X152915904Y-97290000D01*
X153011142Y-97242380D01*
X153249238Y-97242380D01*
X153344476Y-97290000D01*
X153392095Y-97337619D01*
X153439714Y-97432857D01*
X153439714Y-97528095D01*
X153392095Y-97670952D01*
X152820666Y-98242380D01*
X153439714Y-98242380D01*
X99266476Y-74104571D02*
X98933142Y-74104571D01*
X98933142Y-74628380D02*
X98933142Y-73628380D01*
X99409333Y-73628380D01*
X100314095Y-74628380D02*
X99742666Y-74628380D01*
X100028380Y-74628380D02*
X100028380Y-73628380D01*
X99933142Y-73771238D01*
X99837904Y-73866476D01*
X99742666Y-73914095D01*
X100647428Y-73628380D02*
X101266476Y-73628380D01*
X100933142Y-74009333D01*
X101076000Y-74009333D01*
X101171238Y-74056952D01*
X101218857Y-74104571D01*
X101266476Y-74199809D01*
X101266476Y-74437904D01*
X101218857Y-74533142D01*
X101171238Y-74580761D01*
X101076000Y-74628380D01*
X100790285Y-74628380D01*
X100695047Y-74580761D01*
X100647428Y-74533142D01*
X168425904Y-87353380D02*
X168425904Y-86353380D01*
X168664000Y-86353380D01*
X168806857Y-86401000D01*
X168902095Y-86496238D01*
X168949714Y-86591476D01*
X168997333Y-86781952D01*
X168997333Y-86924809D01*
X168949714Y-87115285D01*
X168902095Y-87210523D01*
X168806857Y-87305761D01*
X168664000Y-87353380D01*
X168425904Y-87353380D01*
X169854476Y-86353380D02*
X169664000Y-86353380D01*
X169568761Y-86401000D01*
X169521142Y-86448619D01*
X169425904Y-86591476D01*
X169378285Y-86781952D01*
X169378285Y-87162904D01*
X169425904Y-87258142D01*
X169473523Y-87305761D01*
X169568761Y-87353380D01*
X169759238Y-87353380D01*
X169854476Y-87305761D01*
X169902095Y-87258142D01*
X169949714Y-87162904D01*
X169949714Y-86924809D01*
X169902095Y-86829571D01*
X169854476Y-86781952D01*
X169759238Y-86734333D01*
X169568761Y-86734333D01*
X169473523Y-86781952D01*
X169425904Y-86829571D01*
X169378285Y-86924809D01*
X171537333Y-64460380D02*
X171204000Y-63984190D01*
X170965904Y-64460380D02*
X170965904Y-63460380D01*
X171346857Y-63460380D01*
X171442095Y-63508000D01*
X171489714Y-63555619D01*
X171537333Y-63650857D01*
X171537333Y-63793714D01*
X171489714Y-63888952D01*
X171442095Y-63936571D01*
X171346857Y-63984190D01*
X170965904Y-63984190D01*
X172394476Y-63793714D02*
X172394476Y-64460380D01*
X172156380Y-63412761D02*
X171918285Y-64127047D01*
X172537333Y-64127047D01*
X119126095Y-82875380D02*
X119126095Y-81875380D01*
X119126095Y-82351571D02*
X119697523Y-82351571D01*
X119697523Y-82875380D02*
X119697523Y-81875380D01*
X120649904Y-81875380D02*
X120173714Y-81875380D01*
X120126095Y-82351571D01*
X120173714Y-82303952D01*
X120268952Y-82256333D01*
X120507047Y-82256333D01*
X120602285Y-82303952D01*
X120649904Y-82351571D01*
X120697523Y-82446809D01*
X120697523Y-82684904D01*
X120649904Y-82780142D01*
X120602285Y-82827761D01*
X120507047Y-82875380D01*
X120268952Y-82875380D01*
X120173714Y-82827761D01*
X120126095Y-82780142D01*
X131267295Y-98063180D02*
X131267295Y-98872704D01*
X131314914Y-98967942D01*
X131362533Y-99015561D01*
X131457771Y-99063180D01*
X131648247Y-99063180D01*
X131743485Y-99015561D01*
X131791104Y-98967942D01*
X131838723Y-98872704D01*
X131838723Y-98063180D01*
X132838723Y-99063180D02*
X132267295Y-99063180D01*
X132553009Y-99063180D02*
X132553009Y-98063180D01*
X132457771Y-98206038D01*
X132362533Y-98301276D01*
X132267295Y-98348895D01*
X92400380Y-87669666D02*
X91924190Y-88003000D01*
X92400380Y-88241095D02*
X91400380Y-88241095D01*
X91400380Y-87860142D01*
X91448000Y-87764904D01*
X91495619Y-87717285D01*
X91590857Y-87669666D01*
X91733714Y-87669666D01*
X91828952Y-87717285D01*
X91876571Y-87764904D01*
X91924190Y-87860142D01*
X91924190Y-88241095D01*
X91400380Y-87336333D02*
X91400380Y-86669666D01*
X92400380Y-87098238D01*
X152058761Y-107894380D02*
X151725428Y-107418190D01*
X151487333Y-107894380D02*
X151487333Y-106894380D01*
X151868285Y-106894380D01*
X151963523Y-106942000D01*
X152011142Y-106989619D01*
X152058761Y-107084857D01*
X152058761Y-107227714D01*
X152011142Y-107322952D01*
X151963523Y-107370571D01*
X151868285Y-107418190D01*
X151487333Y-107418190D01*
X152344476Y-106894380D02*
X152677809Y-107894380D01*
X153011142Y-106894380D01*
X153868285Y-107894380D02*
X153296857Y-107894380D01*
X153582571Y-107894380D02*
X153582571Y-106894380D01*
X153487333Y-107037238D01*
X153392095Y-107132476D01*
X153296857Y-107180095D01*
X129286095Y-110698380D02*
X129286095Y-109698380D01*
X129286095Y-110174571D02*
X129857523Y-110174571D01*
X129857523Y-110698380D02*
X129857523Y-109698380D01*
X130762285Y-109698380D02*
X130571809Y-109698380D01*
X130476571Y-109746000D01*
X130428952Y-109793619D01*
X130333714Y-109936476D01*
X130286095Y-110126952D01*
X130286095Y-110507904D01*
X130333714Y-110603142D01*
X130381333Y-110650761D01*
X130476571Y-110698380D01*
X130667047Y-110698380D01*
X130762285Y-110650761D01*
X130809904Y-110603142D01*
X130857523Y-110507904D01*
X130857523Y-110269809D01*
X130809904Y-110174571D01*
X130762285Y-110126952D01*
X130667047Y-110079333D01*
X130476571Y-110079333D01*
X130381333Y-110126952D01*
X130333714Y-110174571D01*
X130286095Y-110269809D01*
X177365066Y-69251580D02*
X177365066Y-69965866D01*
X177317447Y-70108723D01*
X177222209Y-70203961D01*
X177079352Y-70251580D01*
X176984114Y-70251580D01*
X177746019Y-69251580D02*
X178365066Y-69251580D01*
X178031733Y-69632533D01*
X178174590Y-69632533D01*
X178269828Y-69680152D01*
X178317447Y-69727771D01*
X178365066Y-69823009D01*
X178365066Y-70061104D01*
X178317447Y-70156342D01*
X178269828Y-70203961D01*
X178174590Y-70251580D01*
X177888876Y-70251580D01*
X177793638Y-70203961D01*
X177746019Y-70156342D01*
X107362666Y-54292571D02*
X107029333Y-54292571D01*
X107029333Y-54816380D02*
X107029333Y-53816380D01*
X107505523Y-53816380D01*
X108410285Y-54816380D02*
X107838857Y-54816380D01*
X108124571Y-54816380D02*
X108124571Y-53816380D01*
X108029333Y-53959238D01*
X107934095Y-54054476D01*
X107838857Y-54102095D01*
X92527380Y-110529666D02*
X92051190Y-110863000D01*
X92527380Y-111101095D02*
X91527380Y-111101095D01*
X91527380Y-110720142D01*
X91575000Y-110624904D01*
X91622619Y-110577285D01*
X91717857Y-110529666D01*
X91860714Y-110529666D01*
X91955952Y-110577285D01*
X92003571Y-110624904D01*
X92051190Y-110720142D01*
X92051190Y-111101095D01*
X91527380Y-109672523D02*
X91527380Y-109863000D01*
X91575000Y-109958238D01*
X91622619Y-110005857D01*
X91765476Y-110101095D01*
X91955952Y-110148714D01*
X92336904Y-110148714D01*
X92432142Y-110101095D01*
X92479761Y-110053476D01*
X92527380Y-109958238D01*
X92527380Y-109767761D01*
X92479761Y-109672523D01*
X92432142Y-109624904D01*
X92336904Y-109577285D01*
X92098809Y-109577285D01*
X92003571Y-109624904D01*
X91955952Y-109672523D01*
X91908333Y-109767761D01*
X91908333Y-109958238D01*
X91955952Y-110053476D01*
X92003571Y-110101095D01*
X92098809Y-110148714D01*
X86788666Y-91781380D02*
X86788666Y-92495666D01*
X86741047Y-92638523D01*
X86645809Y-92733761D01*
X86502952Y-92781380D01*
X86407714Y-92781380D01*
X87693428Y-91781380D02*
X87502952Y-91781380D01*
X87407714Y-91829000D01*
X87360095Y-91876619D01*
X87264857Y-92019476D01*
X87217238Y-92209952D01*
X87217238Y-92590904D01*
X87264857Y-92686142D01*
X87312476Y-92733761D01*
X87407714Y-92781380D01*
X87598190Y-92781380D01*
X87693428Y-92733761D01*
X87741047Y-92686142D01*
X87788666Y-92590904D01*
X87788666Y-92352809D01*
X87741047Y-92257571D01*
X87693428Y-92209952D01*
X87598190Y-92162333D01*
X87407714Y-92162333D01*
X87312476Y-92209952D01*
X87264857Y-92257571D01*
X87217238Y-92352809D01*
X155495666Y-53776571D02*
X155162333Y-53776571D01*
X155162333Y-54300380D02*
X155162333Y-53300380D01*
X155638523Y-53300380D01*
X156448047Y-53300380D02*
X156257571Y-53300380D01*
X156162333Y-53348000D01*
X156114714Y-53395619D01*
X156019476Y-53538476D01*
X155971857Y-53728952D01*
X155971857Y-54109904D01*
X156019476Y-54205142D01*
X156067095Y-54252761D01*
X156162333Y-54300380D01*
X156352809Y-54300380D01*
X156448047Y-54252761D01*
X156495666Y-54205142D01*
X156543285Y-54109904D01*
X156543285Y-53871809D01*
X156495666Y-53776571D01*
X156448047Y-53728952D01*
X156352809Y-53681333D01*
X156162333Y-53681333D01*
X156067095Y-53728952D01*
X156019476Y-53776571D01*
X155971857Y-53871809D01*
X152111476Y-61666571D02*
X151778142Y-61666571D01*
X151778142Y-62190380D02*
X151778142Y-61190380D01*
X152254333Y-61190380D01*
X153159095Y-62190380D02*
X152587666Y-62190380D01*
X152873380Y-62190380D02*
X152873380Y-61190380D01*
X152778142Y-61333238D01*
X152682904Y-61428476D01*
X152587666Y-61476095D01*
X154063857Y-61190380D02*
X153587666Y-61190380D01*
X153540047Y-61666571D01*
X153587666Y-61618952D01*
X153682904Y-61571333D01*
X153921000Y-61571333D01*
X154016238Y-61618952D01*
X154063857Y-61666571D01*
X154111476Y-61761809D01*
X154111476Y-61999904D01*
X154063857Y-62095142D01*
X154016238Y-62142761D01*
X153921000Y-62190380D01*
X153682904Y-62190380D01*
X153587666Y-62142761D01*
X153540047Y-62095142D01*
X95238095Y-111652380D02*
X95238095Y-110652380D01*
X95238095Y-111128571D02*
X95809523Y-111128571D01*
X95809523Y-111652380D02*
X95809523Y-110652380D01*
X96714285Y-110985714D02*
X96714285Y-111652380D01*
X96476190Y-110604761D02*
X96238095Y-111319047D01*
X96857142Y-111319047D01*
X136191666Y-82637380D02*
X136191666Y-83351666D01*
X136144047Y-83494523D01*
X136048809Y-83589761D01*
X135905952Y-83637380D01*
X135810714Y-83637380D01*
X137191666Y-83637380D02*
X136620238Y-83637380D01*
X136905952Y-83637380D02*
X136905952Y-82637380D01*
X136810714Y-82780238D01*
X136715476Y-82875476D01*
X136620238Y-82923095D01*
X107616666Y-59618571D02*
X107283333Y-59618571D01*
X107283333Y-60142380D02*
X107283333Y-59142380D01*
X107759523Y-59142380D01*
X108616666Y-59142380D02*
X108140476Y-59142380D01*
X108092857Y-59618571D01*
X108140476Y-59570952D01*
X108235714Y-59523333D01*
X108473809Y-59523333D01*
X108569047Y-59570952D01*
X108616666Y-59618571D01*
X108664285Y-59713809D01*
X108664285Y-59951904D01*
X108616666Y-60047142D01*
X108569047Y-60094761D01*
X108473809Y-60142380D01*
X108235714Y-60142380D01*
X108140476Y-60094761D01*
X108092857Y-60047142D01*
X99742666Y-97091571D02*
X99409333Y-97091571D01*
X99409333Y-97615380D02*
X99409333Y-96615380D01*
X99885523Y-96615380D01*
X100695047Y-96948714D02*
X100695047Y-97615380D01*
X100456952Y-96567761D02*
X100218857Y-97282047D01*
X100837904Y-97282047D01*
X99221666Y-108513571D02*
X98888333Y-108513571D01*
X98888333Y-109037380D02*
X98888333Y-108037380D01*
X99364523Y-108037380D01*
X99888333Y-108465952D02*
X99793095Y-108418333D01*
X99745476Y-108370714D01*
X99697857Y-108275476D01*
X99697857Y-108227857D01*
X99745476Y-108132619D01*
X99793095Y-108085000D01*
X99888333Y-108037380D01*
X100078809Y-108037380D01*
X100174047Y-108085000D01*
X100221666Y-108132619D01*
X100269285Y-108227857D01*
X100269285Y-108275476D01*
X100221666Y-108370714D01*
X100174047Y-108418333D01*
X100078809Y-108465952D01*
X99888333Y-108465952D01*
X99793095Y-108513571D01*
X99745476Y-108561190D01*
X99697857Y-108656428D01*
X99697857Y-108846904D01*
X99745476Y-108942142D01*
X99793095Y-108989761D01*
X99888333Y-109037380D01*
X100078809Y-109037380D01*
X100174047Y-108989761D01*
X100221666Y-108942142D01*
X100269285Y-108846904D01*
X100269285Y-108656428D01*
X100221666Y-108561190D01*
X100174047Y-108513571D01*
X100078809Y-108465952D01*
D11*
X107543000Y-68485000D02*
X110743000Y-68485000D01*
X108393000Y-70485000D02*
X109993000Y-70485000D01*
X110743000Y-72485000D02*
X107543000Y-72485000D01*
X117870500Y-73135258D02*
X117870500Y-72660742D01*
X116825500Y-73135258D02*
X116825500Y-72660742D01*
X162955000Y-59055000D02*
X164555000Y-59055000D01*
X162105000Y-57055000D02*
X165305000Y-57055000D01*
X165305000Y-61055000D02*
X162105000Y-61055000D01*
X144436200Y-73229800D02*
X142151200Y-73229800D01*
X142151200Y-74699800D02*
X144436200Y-74699800D01*
X144436200Y-74699800D02*
X144436200Y-73229800D01*
X163130000Y-81935000D02*
X164730000Y-81935000D01*
X165480000Y-83935000D02*
X162280000Y-83935000D01*
X162280000Y-79935000D02*
X165480000Y-79935000D01*
D10*
X91059000Y-99187000D02*
X91059000Y-115443000D01*
X82931000Y-99187000D02*
X86995000Y-99187000D01*
X82931000Y-115443000D02*
X82931000Y-99187000D01*
X91059000Y-115443000D02*
X82931000Y-115443000D01*
X86995000Y-99187000D02*
X91059000Y-99187000D01*
D11*
X116420000Y-74903000D02*
X116420000Y-73433000D01*
X116420000Y-73433000D02*
X114135000Y-73433000D01*
X114135000Y-74903000D02*
X116420000Y-74903000D01*
D10*
X151130000Y-59690000D02*
X134874000Y-59690000D01*
X134874000Y-59690000D02*
X134874000Y-51562000D01*
X151130000Y-55626000D02*
X151130000Y-59690000D01*
X134874000Y-51562000D02*
X151130000Y-51562000D01*
X151130000Y-51562000D02*
X151130000Y-55626000D01*
D11*
X162420000Y-103435000D02*
X165620000Y-103435000D01*
X163270000Y-105435000D02*
X164870000Y-105435000D01*
X165620000Y-107435000D02*
X162420000Y-107435000D01*
X170623500Y-63219000D02*
X170623500Y-61749000D01*
X170623500Y-61749000D02*
X168338500Y-61749000D01*
X168338500Y-63219000D02*
X170623500Y-63219000D01*
D10*
X82931000Y-52451000D02*
X86995000Y-52451000D01*
X91059000Y-68707000D02*
X82931000Y-68707000D01*
X82931000Y-68707000D02*
X82931000Y-52451000D01*
X86995000Y-52451000D02*
X91059000Y-52451000D01*
X91059000Y-52451000D02*
X91059000Y-68707000D01*
D11*
X165620000Y-102465000D02*
X162420000Y-102465000D01*
X162420000Y-98465000D02*
X165620000Y-98465000D01*
X163270000Y-100465000D02*
X164870000Y-100465000D01*
X172226500Y-84692258D02*
X172226500Y-84217742D01*
X171181500Y-84692258D02*
X171181500Y-84217742D01*
X95415000Y-108104000D02*
X93130000Y-108104000D01*
X93130000Y-109574000D02*
X95415000Y-109574000D01*
X93130000Y-108104000D02*
X93130000Y-109574000D01*
D10*
X177038000Y-75692000D02*
X181102000Y-75692000D01*
X172974000Y-75692000D02*
X177038000Y-75692000D01*
X172974000Y-91948000D02*
X172974000Y-75692000D01*
X181102000Y-91948000D02*
X172974000Y-91948000D01*
X181102000Y-75692000D02*
X181102000Y-91948000D01*
D11*
X113483142Y-97114300D02*
X113957658Y-97114300D01*
X113483142Y-98159300D02*
X113957658Y-98159300D01*
X168567200Y-109802600D02*
X170852200Y-109802600D01*
X170852200Y-108332600D02*
X168567200Y-108332600D01*
X170852200Y-109802600D02*
X170852200Y-108332600D01*
D10*
X128270000Y-59817000D02*
X112014000Y-59817000D01*
X112014000Y-51689000D02*
X128270000Y-51689000D01*
X112014000Y-55753000D02*
X112014000Y-51689000D01*
X112014000Y-59817000D02*
X112014000Y-55753000D01*
X128270000Y-51689000D02*
X128270000Y-59817000D01*
D11*
X92419700Y-62619658D02*
X92419700Y-62145142D01*
X91374700Y-62619658D02*
X91374700Y-62145142D01*
X108393000Y-65540000D02*
X109993000Y-65540000D01*
X107543000Y-63540000D02*
X110743000Y-63540000D01*
X110743000Y-67540000D02*
X107543000Y-67540000D01*
X145861300Y-73186058D02*
X145861300Y-72711542D01*
X144816300Y-73186058D02*
X144816300Y-72711542D01*
X151639000Y-68231000D02*
X154839000Y-68231000D01*
X153989000Y-70231000D02*
X152389000Y-70231000D01*
X154839000Y-72231000D02*
X151639000Y-72231000D01*
X92850600Y-63981000D02*
X95135600Y-63981000D01*
X95135600Y-62511000D02*
X92850600Y-62511000D01*
X92850600Y-62511000D02*
X92850600Y-63981000D01*
X163130000Y-76990000D02*
X164730000Y-76990000D01*
X165480000Y-78990000D02*
X162280000Y-78990000D01*
X162280000Y-74990000D02*
X165480000Y-74990000D01*
D10*
X177038000Y-98933000D02*
X181102000Y-98933000D01*
X172974000Y-115189000D02*
X172974000Y-98933000D01*
X181102000Y-115189000D02*
X172974000Y-115189000D01*
X172974000Y-98933000D02*
X177038000Y-98933000D01*
X181102000Y-98933000D02*
X181102000Y-115189000D01*
D11*
X93003000Y-86333000D02*
X95288000Y-86333000D01*
X95288000Y-84863000D02*
X93003000Y-84863000D01*
X93003000Y-84863000D02*
X93003000Y-86333000D01*
X98445000Y-80000000D02*
X101645000Y-80000000D01*
X101645000Y-84000000D02*
X98445000Y-84000000D01*
X100795000Y-82000000D02*
X99195000Y-82000000D01*
X171435500Y-108187258D02*
X171435500Y-107712742D01*
X172480500Y-108187258D02*
X172480500Y-107712742D01*
X149952942Y-98236300D02*
X150427458Y-98236300D01*
X149952942Y-97191300D02*
X150427458Y-97191300D01*
X101645000Y-79055000D02*
X98445000Y-79055000D01*
X100795000Y-77055000D02*
X99195000Y-77055000D01*
X98445000Y-75055000D02*
X101645000Y-75055000D01*
X168364000Y-86206000D02*
X170649000Y-86206000D01*
X170649000Y-84736000D02*
X168364000Y-84736000D01*
X170649000Y-86206000D02*
X170649000Y-84736000D01*
X172226500Y-61832258D02*
X172226500Y-61357742D01*
X171181500Y-61832258D02*
X171181500Y-61357742D01*
X115529200Y-87185800D02*
X116629200Y-86110800D01*
X148529200Y-86110800D02*
X148529200Y-109010800D01*
X115529200Y-109010800D02*
X148529200Y-109010800D01*
X148529200Y-86110800D02*
X116629200Y-86110800D01*
X115529200Y-87185800D02*
X115529200Y-109010800D01*
X91552500Y-85073258D02*
X91552500Y-84598742D01*
X92597500Y-85073258D02*
X92597500Y-84598742D01*
X151754200Y-99206800D02*
X153718200Y-99206800D01*
X153718200Y-106156800D02*
X153718200Y-99206800D01*
X148978200Y-106156800D02*
X148978200Y-99206800D01*
X151754200Y-106156800D02*
X153718200Y-106156800D01*
X148978200Y-106156800D02*
X150764200Y-106156800D01*
X148978200Y-99206800D02*
X150764200Y-99206800D01*
D10*
X181102000Y-68707000D02*
X172974000Y-68707000D01*
X172974000Y-52451000D02*
X177038000Y-52451000D01*
X172974000Y-68707000D02*
X172974000Y-52451000D01*
X181102000Y-52451000D02*
X181102000Y-68707000D01*
X177038000Y-52451000D02*
X181102000Y-52451000D01*
D11*
X100395000Y-54745000D02*
X98795000Y-54745000D01*
X98045000Y-52745000D02*
X101245000Y-52745000D01*
X101245000Y-56745000D02*
X98045000Y-56745000D01*
X91552500Y-108060258D02*
X91552500Y-107585742D01*
X92597500Y-108060258D02*
X92597500Y-107585742D01*
D10*
X82931000Y-75184000D02*
X86995000Y-75184000D01*
X91059000Y-75184000D02*
X91059000Y-91440000D01*
X82931000Y-91440000D02*
X82931000Y-75184000D01*
X86995000Y-75184000D02*
X91059000Y-75184000D01*
X91059000Y-91440000D02*
X82931000Y-91440000D01*
D11*
X162895000Y-54110000D02*
X164495000Y-54110000D01*
X165245000Y-56110000D02*
X162045000Y-56110000D01*
X162045000Y-52110000D02*
X165245000Y-52110000D01*
X153989000Y-64786000D02*
X152389000Y-64786000D01*
X151639000Y-62786000D02*
X154839000Y-62786000D01*
X154839000Y-66786000D02*
X151639000Y-66786000D01*
X127150000Y-78530000D02*
X127150000Y-79780000D01*
X134300000Y-84030000D02*
X131250000Y-84030000D01*
X127450000Y-81080000D02*
X128200000Y-81080000D01*
X135050000Y-79580000D02*
X135050000Y-78830000D01*
X130750000Y-78830000D02*
X130750000Y-79580000D01*
X128200000Y-84030000D02*
X131250000Y-84030000D01*
X133250000Y-78830000D02*
X133250000Y-79580000D01*
X135050000Y-81080000D02*
X134300000Y-81080000D01*
X131750000Y-78830000D02*
X130750000Y-78830000D01*
X127450000Y-79580000D02*
X129250000Y-79580000D01*
X128200000Y-81080000D02*
X128200000Y-84030000D01*
X129250000Y-79580000D02*
X129250000Y-78830000D01*
X129250000Y-78830000D02*
X127450000Y-78830000D01*
X135050000Y-78830000D02*
X133250000Y-78830000D01*
X127440000Y-78820000D02*
X127440000Y-84790000D01*
X128400000Y-78530000D02*
X127150000Y-78530000D01*
X135060000Y-84790000D02*
X135060000Y-78820000D01*
X127450000Y-78830000D02*
X127450000Y-79580000D01*
X127440000Y-84790000D02*
X135060000Y-84790000D01*
X133250000Y-79580000D02*
X135050000Y-79580000D01*
X134300000Y-81080000D02*
X134300000Y-84030000D01*
X135060000Y-78820000D02*
X127440000Y-78820000D01*
X130750000Y-79580000D02*
X131750000Y-79580000D01*
X131750000Y-79580000D02*
X131750000Y-78830000D01*
X101245000Y-61690000D02*
X98045000Y-61690000D01*
X100395000Y-59690000D02*
X98795000Y-59690000D01*
X98045000Y-57690000D02*
X101245000Y-57690000D01*
X101740000Y-102465000D02*
X98540000Y-102465000D01*
X98540000Y-98465000D02*
X101740000Y-98465000D01*
X100890000Y-100465000D02*
X99290000Y-100465000D01*
X98540000Y-103410000D02*
X101740000Y-103410000D01*
X100890000Y-105410000D02*
X99290000Y-105410000D01*
X101740000Y-107410000D02*
X98540000Y-107410000D01*
M02*
