M48
; DRILL file {KiCad 6.0.1-79c1e3a40b~116~ubuntu21.10.1} date Tue 15 Mar 2022 08:57:54 PM MDT
; FORMAT={-:-/ absolute / metric / decimal}
; #@! TF.CreationDate,2022-03-15T20:57:54-06:00
; #@! TF.GenerationSoftware,Kicad,Pcbnew,6.0.1-79c1e3a40b~116~ubuntu21.10.1
; #@! TF.FileFunction,Plated,1,2,PTH
FMAT,2
METRIC
; #@! TA.AperFunction,Plated,PTH,ViaDrill
T1C0.400
; #@! TA.AperFunction,Plated,PTH,ComponentDrill
T2C0.800
; #@! TA.AperFunction,Plated,PTH,ComponentDrill
T3C1.200
; #@! TA.AperFunction,Plated,PTH,ComponentDrill
T4C1.270
; #@! TA.AperFunction,Plated,PTH,ComponentDrill
T5C1.500
; #@! TA.AperFunction,Plated,PTH,ComponentDrill
T6C1.780
; #@! TA.AperFunction,Plated,PTH,ComponentDrill
T7C3.200
%
G90
G05
T1
X111.3Y-91.225
X114.0Y-97.9
X119.634Y-86.868
X119.634Y-88.392
X119.634Y-89.916
X119.634Y-106.68
X119.634Y-107.95
X119.634Y-109.22
X119.634Y-110.744
X119.634Y-112.268
X120.904Y-86.868
X121.158Y-106.68
X121.158Y-107.95
X121.158Y-109.22
X121.158Y-110.744
X121.158Y-112.268
X122.428Y-86.868
X122.682Y-106.68
X122.682Y-107.95
X122.682Y-109.22
X122.682Y-110.744
X122.682Y-112.268
X123.952Y-86.868
X123.952Y-88.646
X127.0Y-102.108
X127.0Y-103.632
X127.0Y-105.156
X128.27Y-102.108
X128.27Y-103.632
X128.27Y-105.156
X129.54Y-102.108
X129.54Y-103.632
X129.54Y-105.156
X131.064Y-102.108
X131.064Y-103.632
X131.064Y-105.156
X132.588Y-102.108
X132.588Y-103.632
X132.588Y-105.156
X134.112Y-102.108
X134.112Y-103.632
X134.112Y-105.156
X138.684Y-107.696
X138.684Y-108.966
X138.684Y-110.236
X138.684Y-111.76
X138.684Y-113.284
X140.208Y-107.696
X140.208Y-108.966
X140.208Y-110.236
X140.208Y-111.76
X140.208Y-113.284
X141.732Y-107.696
X141.732Y-108.966
X141.732Y-110.236
X141.732Y-111.76
X141.732Y-113.284
X144.526Y-90.678
X146.05Y-90.678
X147.574Y-90.678
X149.606Y-88.138
X149.606Y-89.408
T2
X151.258Y-98.872
X151.258Y-101.412
X151.258Y-103.952
T3
X118.029Y-88.641
X118.029Y-92.441
X118.029Y-96.241
X138.329Y-105.241
X142.129Y-105.241
X146.029Y-92.441
X146.029Y-96.241
X146.029Y-100.041
T5
X118.029Y-103.841
X122.682Y-78.74
X122.682Y-81.24
X146.029Y-88.641
X146.029Y-103.841
T6
X94.76Y-106.047
X94.76Y-109.447
X94.786Y-98.554
X94.786Y-101.954
X94.964Y-75.084
X94.964Y-78.484
X94.964Y-82.73
X94.964Y-86.13
X95.236Y-53.672
X95.236Y-57.072
X95.287Y-61.292
X95.287Y-64.692
X104.68Y-106.047
X104.68Y-109.447
X104.706Y-98.554
X104.706Y-101.954
X104.884Y-75.084
X104.884Y-78.484
X104.884Y-82.73
X104.884Y-86.13
X105.156Y-53.672
X105.156Y-57.072
X105.207Y-61.292
X105.207Y-64.692
X115.385Y-62.46
X115.385Y-65.86
X115.385Y-69.979
X115.385Y-73.379
X125.305Y-62.46
X125.305Y-65.86
X125.305Y-69.979
X125.305Y-73.379
X138.04Y-62.3
X138.04Y-65.7
X138.042Y-69.8
X138.042Y-73.2
X147.96Y-62.3
X147.96Y-65.7
X147.962Y-69.8
X147.962Y-73.2
X158.616Y-53.672
X158.616Y-57.072
X158.616Y-61.292
X158.616Y-64.692
X159.04Y-75.3
X159.04Y-78.7
X159.04Y-82.8
X159.04Y-86.2
X159.403Y-105.463
X159.403Y-108.863
X159.556Y-97.792
X159.556Y-101.192
X168.536Y-53.672
X168.536Y-57.072
X168.536Y-61.292
X168.536Y-64.692
X168.96Y-75.3
X168.96Y-78.7
X168.96Y-82.8
X168.96Y-86.2
X169.323Y-105.463
X169.323Y-108.863
X169.476Y-97.792
X169.476Y-101.192
T7
X96.0Y-115.0
X102.87Y-69.85
X115.062Y-81.153
X130.048Y-112.776
X146.05Y-81.153
X158.5Y-70.0
X167.0Y-115.0
T4
G00X85.015Y-56.619
M15
G01X88.975Y-56.619
M16
G05
G00X85.015Y-64.539
M15
G01X88.975Y-64.539
M16
G05
G00X85.015Y-79.352
M15
G01X88.975Y-79.352
M16
G05
G00X85.015Y-87.272
M15
G01X88.975Y-87.272
M16
G05
G00X85.015Y-103.355
M15
G01X88.975Y-103.355
M16
G05
G00X85.015Y-111.275
M15
G01X88.975Y-111.275
M16
G05
G00X116.54Y-57.48
M15
G01X116.54Y-53.52
M16
G05
G00X124.46Y-57.48
M15
G01X124.46Y-53.52
M16
G05
G00X139.042Y-53.646
M15
G01X139.042Y-57.606
M16
G05
G00X146.962Y-53.646
M15
G01X146.962Y-57.606
M16
G05
G00X175.058Y-56.619
M15
G01X179.018Y-56.619
M16
G05
G00X175.058Y-64.539
M15
G01X179.018Y-64.539
M16
G05
G00X175.058Y-79.86
M15
G01X179.018Y-79.86
M16
G05
G00X175.058Y-87.78
M15
G01X179.018Y-87.78
M16
G05
G00X175.058Y-103.101
M15
G01X179.018Y-103.101
M16
G05
G00X175.058Y-111.021
M15
G01X179.018Y-111.021
M16
G05
T0
M30
