G04 #@! TF.GenerationSoftware,KiCad,Pcbnew,(6.0.1)*
G04 #@! TF.CreationDate,2022-02-13T18:10:08-07:00*
G04 #@! TF.ProjectId,MinesRobotics_PDB,4d696e65-7352-46f6-926f-746963735f50,rev?*
G04 #@! TF.SameCoordinates,Original*
G04 #@! TF.FileFunction,AssemblyDrawing,Top*
%FSLAX46Y46*%
G04 Gerber Fmt 4.6, Leading zero omitted, Abs format (unit mm)*
G04 Created by KiCad (PCBNEW (6.0.1)) date 2022-02-13 18:10:08*
%MOMM*%
%LPD*%
G01*
G04 APERTURE LIST*
G04 #@! TA.AperFunction,Profile*
%ADD10C,0.150000*%
G04 #@! TD*
%ADD11C,0.150000*%
%ADD12C,0.060000*%
%ADD13C,0.100000*%
G04 APERTURE END LIST*
D10*
X181229000Y-126746000D02*
G75*
G03*
X182372000Y-125603000I0J1143000D01*
G01*
X82423000Y-50800000D02*
G75*
G03*
X81280000Y-51943000I0J-1143000D01*
G01*
X181229000Y-50800000D02*
X82423000Y-50800000D01*
X82423000Y-126746000D02*
X181229000Y-126746000D01*
X81280000Y-51943000D02*
X81280000Y-125603000D01*
X182372000Y-51943000D02*
G75*
G03*
X181229000Y-50800000I-1143000J0D01*
G01*
X81280000Y-125603000D02*
G75*
G03*
X82423000Y-126746000I1143000J0D01*
G01*
X182372000Y-125603000D02*
X182372000Y-51943000D01*
D11*
X131267295Y-101063180D02*
X131267295Y-101872704D01*
X131314914Y-101967942D01*
X131362533Y-102015561D01*
X131457771Y-102063180D01*
X131648247Y-102063180D01*
X131743485Y-102015561D01*
X131791104Y-101967942D01*
X131838723Y-101872704D01*
X131838723Y-101063180D01*
X132838723Y-102063180D02*
X132267295Y-102063180D01*
X132553009Y-102063180D02*
X132553009Y-101063180D01*
X132457771Y-101206038D01*
X132362533Y-101301276D01*
X132267295Y-101348895D01*
X102108095Y-70302380D02*
X102108095Y-69302380D01*
X102108095Y-69778571D02*
X102679523Y-69778571D01*
X102679523Y-70302380D02*
X102679523Y-69302380D01*
X103679523Y-70302380D02*
X103108095Y-70302380D01*
X103393809Y-70302380D02*
X103393809Y-69302380D01*
X103298571Y-69445238D01*
X103203333Y-69540476D01*
X103108095Y-69588095D01*
X120011866Y-64088971D02*
X119678533Y-64088971D01*
X119678533Y-64612780D02*
X119678533Y-63612780D01*
X120154723Y-63612780D01*
X120440438Y-63612780D02*
X121059485Y-63612780D01*
X120726152Y-63993733D01*
X120869009Y-63993733D01*
X120964247Y-64041352D01*
X121011866Y-64088971D01*
X121059485Y-64184209D01*
X121059485Y-64422304D01*
X121011866Y-64517542D01*
X120964247Y-64565161D01*
X120869009Y-64612780D01*
X120583295Y-64612780D01*
X120488057Y-64565161D01*
X120440438Y-64517542D01*
D12*
X109433333Y-68680952D02*
X109300000Y-68490476D01*
X109204761Y-68680952D02*
X109204761Y-68280952D01*
X109357142Y-68280952D01*
X109395238Y-68300000D01*
X109414285Y-68319047D01*
X109433333Y-68357142D01*
X109433333Y-68414285D01*
X109414285Y-68452380D01*
X109395238Y-68471428D01*
X109357142Y-68490476D01*
X109204761Y-68490476D01*
X109795238Y-68280952D02*
X109604761Y-68280952D01*
X109585714Y-68471428D01*
X109604761Y-68452380D01*
X109642857Y-68433333D01*
X109738095Y-68433333D01*
X109776190Y-68452380D01*
X109795238Y-68471428D01*
X109814285Y-68509523D01*
X109814285Y-68604761D01*
X109795238Y-68642857D01*
X109776190Y-68661904D01*
X109738095Y-68680952D01*
X109642857Y-68680952D01*
X109604761Y-68661904D01*
X109585714Y-68642857D01*
D11*
X163242666Y-62920571D02*
X162909333Y-62920571D01*
X162909333Y-63444380D02*
X162909333Y-62444380D01*
X163385523Y-62444380D01*
X163718857Y-62539619D02*
X163766476Y-62492000D01*
X163861714Y-62444380D01*
X164099809Y-62444380D01*
X164195047Y-62492000D01*
X164242666Y-62539619D01*
X164290285Y-62634857D01*
X164290285Y-62730095D01*
X164242666Y-62872952D01*
X163671238Y-63444380D01*
X164290285Y-63444380D01*
D12*
X154680952Y-76295238D02*
X154280952Y-76295238D01*
X154280952Y-76200000D01*
X154300000Y-76142857D01*
X154338095Y-76104761D01*
X154376190Y-76085714D01*
X154452380Y-76066666D01*
X154509523Y-76066666D01*
X154585714Y-76085714D01*
X154623809Y-76104761D01*
X154661904Y-76142857D01*
X154680952Y-76200000D01*
X154680952Y-76295238D01*
X154280952Y-75933333D02*
X154280952Y-75666666D01*
X154680952Y-75838095D01*
D11*
X163190476Y-84428571D02*
X162857142Y-84428571D01*
X162857142Y-84952380D02*
X162857142Y-83952380D01*
X163333333Y-83952380D01*
X164238095Y-84952380D02*
X163666666Y-84952380D01*
X163952380Y-84952380D02*
X163952380Y-83952380D01*
X163857142Y-84095238D01*
X163761904Y-84190476D01*
X163666666Y-84238095D01*
X165095238Y-84285714D02*
X165095238Y-84952380D01*
X164857142Y-83904761D02*
X164619047Y-84619047D01*
X165238095Y-84619047D01*
X86661666Y-106767380D02*
X86661666Y-107481666D01*
X86614047Y-107624523D01*
X86518809Y-107719761D01*
X86375952Y-107767380D01*
X86280714Y-107767380D01*
X87614047Y-106767380D02*
X87137857Y-106767380D01*
X87090238Y-107243571D01*
X87137857Y-107195952D01*
X87233095Y-107148333D01*
X87471190Y-107148333D01*
X87566428Y-107195952D01*
X87614047Y-107243571D01*
X87661666Y-107338809D01*
X87661666Y-107576904D01*
X87614047Y-107672142D01*
X87566428Y-107719761D01*
X87471190Y-107767380D01*
X87233095Y-107767380D01*
X87137857Y-107719761D01*
X87090238Y-107672142D01*
D12*
X109180952Y-71295238D02*
X108780952Y-71295238D01*
X108780952Y-71200000D01*
X108800000Y-71142857D01*
X108838095Y-71104761D01*
X108876190Y-71085714D01*
X108952380Y-71066666D01*
X109009523Y-71066666D01*
X109085714Y-71085714D01*
X109123809Y-71104761D01*
X109161904Y-71142857D01*
X109180952Y-71200000D01*
X109180952Y-71295238D01*
X108780952Y-70933333D02*
X108780952Y-70685714D01*
X108933333Y-70819047D01*
X108933333Y-70761904D01*
X108952380Y-70723809D01*
X108971428Y-70704761D01*
X109009523Y-70685714D01*
X109104761Y-70685714D01*
X109142857Y-70704761D01*
X109161904Y-70723809D01*
X109180952Y-70761904D01*
X109180952Y-70876190D01*
X109161904Y-70914285D01*
X109142857Y-70933333D01*
D11*
X143549619Y-55292666D02*
X142835333Y-55292666D01*
X142692476Y-55245047D01*
X142597238Y-55149809D01*
X142549619Y-55006952D01*
X142549619Y-54911714D01*
X143121047Y-55911714D02*
X143168666Y-55816476D01*
X143216285Y-55768857D01*
X143311523Y-55721238D01*
X143359142Y-55721238D01*
X143454380Y-55768857D01*
X143502000Y-55816476D01*
X143549619Y-55911714D01*
X143549619Y-56102190D01*
X143502000Y-56197428D01*
X143454380Y-56245047D01*
X143359142Y-56292666D01*
X143311523Y-56292666D01*
X143216285Y-56245047D01*
X143168666Y-56197428D01*
X143121047Y-56102190D01*
X143121047Y-55911714D01*
X143073428Y-55816476D01*
X143025809Y-55768857D01*
X142930571Y-55721238D01*
X142740095Y-55721238D01*
X142644857Y-55768857D01*
X142597238Y-55816476D01*
X142549619Y-55911714D01*
X142549619Y-56102190D01*
X142597238Y-56197428D01*
X142644857Y-56245047D01*
X142740095Y-56292666D01*
X142930571Y-56292666D01*
X143025809Y-56245047D01*
X143073428Y-56197428D01*
X143121047Y-56102190D01*
X163553876Y-107091171D02*
X163220542Y-107091171D01*
X163220542Y-107614980D02*
X163220542Y-106614980D01*
X163696733Y-106614980D01*
X164601495Y-107614980D02*
X164030066Y-107614980D01*
X164315780Y-107614980D02*
X164315780Y-106614980D01*
X164220542Y-106757838D01*
X164125304Y-106853076D01*
X164030066Y-106900695D01*
X165458638Y-106614980D02*
X165268161Y-106614980D01*
X165172923Y-106662600D01*
X165125304Y-106710219D01*
X165030066Y-106853076D01*
X164982447Y-107043552D01*
X164982447Y-107424504D01*
X165030066Y-107519742D01*
X165077685Y-107567361D01*
X165172923Y-107614980D01*
X165363400Y-107614980D01*
X165458638Y-107567361D01*
X165506257Y-107519742D01*
X165553876Y-107424504D01*
X165553876Y-107186409D01*
X165506257Y-107091171D01*
X165458638Y-107043552D01*
X165363400Y-106995933D01*
X165172923Y-106995933D01*
X165077685Y-107043552D01*
X165030066Y-107091171D01*
X164982447Y-107186409D01*
D12*
X167560261Y-69680952D02*
X167560261Y-69280952D01*
X167655500Y-69280952D01*
X167712642Y-69300000D01*
X167750738Y-69338095D01*
X167769785Y-69376190D01*
X167788833Y-69452380D01*
X167788833Y-69509523D01*
X167769785Y-69585714D01*
X167750738Y-69623809D01*
X167712642Y-69661904D01*
X167655500Y-69680952D01*
X167560261Y-69680952D01*
X167941214Y-69319047D02*
X167960261Y-69300000D01*
X167998357Y-69280952D01*
X168093595Y-69280952D01*
X168131690Y-69300000D01*
X168150738Y-69319047D01*
X168169785Y-69357142D01*
X168169785Y-69395238D01*
X168150738Y-69452380D01*
X167922166Y-69680952D01*
X168169785Y-69680952D01*
D11*
X86661666Y-60031380D02*
X86661666Y-60745666D01*
X86614047Y-60888523D01*
X86518809Y-60983761D01*
X86375952Y-61031380D01*
X86280714Y-61031380D01*
X87090238Y-60126619D02*
X87137857Y-60079000D01*
X87233095Y-60031380D01*
X87471190Y-60031380D01*
X87566428Y-60079000D01*
X87614047Y-60126619D01*
X87661666Y-60221857D01*
X87661666Y-60317095D01*
X87614047Y-60459952D01*
X87042619Y-61031380D01*
X87661666Y-61031380D01*
X163706276Y-99420371D02*
X163372942Y-99420371D01*
X163372942Y-99944180D02*
X163372942Y-98944180D01*
X163849133Y-98944180D01*
X164753895Y-99944180D02*
X164182466Y-99944180D01*
X164468180Y-99944180D02*
X164468180Y-98944180D01*
X164372942Y-99087038D01*
X164277704Y-99182276D01*
X164182466Y-99229895D01*
X165134847Y-99039419D02*
X165182466Y-98991800D01*
X165277704Y-98944180D01*
X165515800Y-98944180D01*
X165611038Y-98991800D01*
X165658657Y-99039419D01*
X165706276Y-99134657D01*
X165706276Y-99229895D01*
X165658657Y-99372752D01*
X165087228Y-99944180D01*
X165706276Y-99944180D01*
D12*
X177140952Y-73582666D02*
X176950476Y-73716000D01*
X177140952Y-73811238D02*
X176740952Y-73811238D01*
X176740952Y-73658857D01*
X176760000Y-73620761D01*
X176779047Y-73601714D01*
X176817142Y-73582666D01*
X176874285Y-73582666D01*
X176912380Y-73601714D01*
X176931428Y-73620761D01*
X176950476Y-73658857D01*
X176950476Y-73811238D01*
X176912380Y-73354095D02*
X176893333Y-73392190D01*
X176874285Y-73411238D01*
X176836190Y-73430285D01*
X176817142Y-73430285D01*
X176779047Y-73411238D01*
X176760000Y-73392190D01*
X176740952Y-73354095D01*
X176740952Y-73277904D01*
X176760000Y-73239809D01*
X176779047Y-73220761D01*
X176817142Y-73201714D01*
X176836190Y-73201714D01*
X176874285Y-73220761D01*
X176893333Y-73239809D01*
X176912380Y-73277904D01*
X176912380Y-73354095D01*
X176931428Y-73392190D01*
X176950476Y-73411238D01*
X176988571Y-73430285D01*
X177064761Y-73430285D01*
X177102857Y-73411238D01*
X177121904Y-73392190D01*
X177140952Y-73354095D01*
X177140952Y-73277904D01*
X177121904Y-73239809D01*
X177102857Y-73220761D01*
X177064761Y-73201714D01*
X176988571Y-73201714D01*
X176950476Y-73220761D01*
X176931428Y-73239809D01*
X176912380Y-73277904D01*
X87704761Y-95680952D02*
X87704761Y-95280952D01*
X87800000Y-95280952D01*
X87857142Y-95300000D01*
X87895238Y-95338095D01*
X87914285Y-95376190D01*
X87933333Y-95452380D01*
X87933333Y-95509523D01*
X87914285Y-95585714D01*
X87895238Y-95623809D01*
X87857142Y-95661904D01*
X87800000Y-95680952D01*
X87704761Y-95680952D01*
X88276190Y-95414285D02*
X88276190Y-95680952D01*
X88180952Y-95261904D02*
X88085714Y-95547619D01*
X88333333Y-95547619D01*
D11*
X157738095Y-70452380D02*
X157738095Y-69452380D01*
X157738095Y-69928571D02*
X158309523Y-69928571D01*
X158309523Y-70452380D02*
X158309523Y-69452380D01*
X158738095Y-69547619D02*
X158785714Y-69500000D01*
X158880952Y-69452380D01*
X159119047Y-69452380D01*
X159214285Y-69500000D01*
X159261904Y-69547619D01*
X159309523Y-69642857D01*
X159309523Y-69738095D01*
X159261904Y-69880952D01*
X158690476Y-70452380D01*
X159309523Y-70452380D01*
X176704666Y-83272380D02*
X176704666Y-83986666D01*
X176657047Y-84129523D01*
X176561809Y-84224761D01*
X176418952Y-84272380D01*
X176323714Y-84272380D01*
X177085619Y-83272380D02*
X177752285Y-83272380D01*
X177323714Y-84272380D01*
D12*
X113653733Y-97817752D02*
X113520400Y-97627276D01*
X113425161Y-97817752D02*
X113425161Y-97417752D01*
X113577542Y-97417752D01*
X113615638Y-97436800D01*
X113634685Y-97455847D01*
X113653733Y-97493942D01*
X113653733Y-97551085D01*
X113634685Y-97589180D01*
X113615638Y-97608228D01*
X113577542Y-97627276D01*
X113425161Y-97627276D01*
X114034685Y-97817752D02*
X113806114Y-97817752D01*
X113920400Y-97817752D02*
X113920400Y-97417752D01*
X113882304Y-97474895D01*
X113844209Y-97512990D01*
X113806114Y-97532038D01*
X176204761Y-95180952D02*
X176204761Y-94780952D01*
X176300000Y-94780952D01*
X176357142Y-94800000D01*
X176395238Y-94838095D01*
X176414285Y-94876190D01*
X176433333Y-94952380D01*
X176433333Y-95009523D01*
X176414285Y-95085714D01*
X176395238Y-95123809D01*
X176357142Y-95161904D01*
X176300000Y-95180952D01*
X176204761Y-95180952D01*
X176661904Y-94952380D02*
X176623809Y-94933333D01*
X176604761Y-94914285D01*
X176585714Y-94876190D01*
X176585714Y-94857142D01*
X176604761Y-94819047D01*
X176623809Y-94800000D01*
X176661904Y-94780952D01*
X176738095Y-94780952D01*
X176776190Y-94800000D01*
X176795238Y-94819047D01*
X176814285Y-94857142D01*
X176814285Y-94876190D01*
X176795238Y-94914285D01*
X176776190Y-94933333D01*
X176738095Y-94952380D01*
X176661904Y-94952380D01*
X176623809Y-94971428D01*
X176604761Y-94990476D01*
X176585714Y-95028571D01*
X176585714Y-95104761D01*
X176604761Y-95142857D01*
X176623809Y-95161904D01*
X176661904Y-95180952D01*
X176738095Y-95180952D01*
X176776190Y-95161904D01*
X176795238Y-95142857D01*
X176814285Y-95104761D01*
X176814285Y-95028571D01*
X176795238Y-94990476D01*
X176776190Y-94971428D01*
X176738095Y-94952380D01*
D11*
X119952380Y-55833333D02*
X120666666Y-55833333D01*
X120809523Y-55880952D01*
X120904761Y-55976190D01*
X120952380Y-56119047D01*
X120952380Y-56214285D01*
X120285714Y-54928571D02*
X120952380Y-54928571D01*
X119904761Y-55166666D02*
X120619047Y-55404761D01*
X120619047Y-54785714D01*
D12*
X92742552Y-68703066D02*
X92552076Y-68836400D01*
X92742552Y-68931638D02*
X92342552Y-68931638D01*
X92342552Y-68779257D01*
X92361600Y-68741161D01*
X92380647Y-68722114D01*
X92418742Y-68703066D01*
X92475885Y-68703066D01*
X92513980Y-68722114D01*
X92533028Y-68741161D01*
X92552076Y-68779257D01*
X92552076Y-68931638D01*
X92342552Y-68569733D02*
X92342552Y-68322114D01*
X92494933Y-68455447D01*
X92494933Y-68398304D01*
X92513980Y-68360209D01*
X92533028Y-68341161D01*
X92571123Y-68322114D01*
X92666361Y-68322114D01*
X92704457Y-68341161D01*
X92723504Y-68360209D01*
X92742552Y-68398304D01*
X92742552Y-68512590D01*
X92723504Y-68550685D01*
X92704457Y-68569733D01*
D11*
X120011866Y-71607371D02*
X119678533Y-71607371D01*
X119678533Y-72131180D02*
X119678533Y-71131180D01*
X120154723Y-71131180D01*
X120440438Y-71131180D02*
X121107104Y-71131180D01*
X120678533Y-72131180D01*
D12*
X153417333Y-73793352D02*
X153284000Y-73602876D01*
X153188761Y-73793352D02*
X153188761Y-73393352D01*
X153341142Y-73393352D01*
X153379238Y-73412400D01*
X153398285Y-73431447D01*
X153417333Y-73469542D01*
X153417333Y-73526685D01*
X153398285Y-73564780D01*
X153379238Y-73583828D01*
X153341142Y-73602876D01*
X153188761Y-73602876D01*
X153607809Y-73793352D02*
X153684000Y-73793352D01*
X153722095Y-73774304D01*
X153741142Y-73755257D01*
X153779238Y-73698114D01*
X153798285Y-73621923D01*
X153798285Y-73469542D01*
X153779238Y-73431447D01*
X153760190Y-73412400D01*
X153722095Y-73393352D01*
X153645904Y-73393352D01*
X153607809Y-73412400D01*
X153588761Y-73431447D01*
X153569714Y-73469542D01*
X153569714Y-73564780D01*
X153588761Y-73602876D01*
X153607809Y-73621923D01*
X153645904Y-73640971D01*
X153722095Y-73640971D01*
X153760190Y-73621923D01*
X153779238Y-73602876D01*
X153798285Y-73564780D01*
D11*
X142190476Y-63928571D02*
X141857142Y-63928571D01*
X141857142Y-64452380D02*
X141857142Y-63452380D01*
X142333333Y-63452380D01*
X143238095Y-64452380D02*
X142666666Y-64452380D01*
X142952380Y-64452380D02*
X142952380Y-63452380D01*
X142857142Y-63595238D01*
X142761904Y-63690476D01*
X142666666Y-63738095D01*
X144190476Y-64452380D02*
X143619047Y-64452380D01*
X143904761Y-64452380D02*
X143904761Y-63452380D01*
X143809523Y-63595238D01*
X143714285Y-63690476D01*
X143619047Y-63738095D01*
D12*
X94704761Y-69680952D02*
X94704761Y-69280952D01*
X94800000Y-69280952D01*
X94857142Y-69300000D01*
X94895238Y-69338095D01*
X94914285Y-69376190D01*
X94933333Y-69452380D01*
X94933333Y-69509523D01*
X94914285Y-69585714D01*
X94895238Y-69623809D01*
X94857142Y-69661904D01*
X94800000Y-69680952D01*
X94704761Y-69680952D01*
X95314285Y-69680952D02*
X95085714Y-69680952D01*
X95200000Y-69680952D02*
X95200000Y-69280952D01*
X95161904Y-69338095D01*
X95123809Y-69376190D01*
X95085714Y-69395238D01*
D11*
X163190476Y-76928571D02*
X162857142Y-76928571D01*
X162857142Y-77452380D02*
X162857142Y-76452380D01*
X163333333Y-76452380D01*
X164238095Y-77452380D02*
X163666666Y-77452380D01*
X163952380Y-77452380D02*
X163952380Y-76452380D01*
X163857142Y-76595238D01*
X163761904Y-76690476D01*
X163666666Y-76738095D01*
X164857142Y-76452380D02*
X164952380Y-76452380D01*
X165047619Y-76500000D01*
X165095238Y-76547619D01*
X165142857Y-76642857D01*
X165190476Y-76833333D01*
X165190476Y-77071428D01*
X165142857Y-77261904D01*
X165095238Y-77357142D01*
X165047619Y-77404761D01*
X164952380Y-77452380D01*
X164857142Y-77452380D01*
X164761904Y-77404761D01*
X164714285Y-77357142D01*
X164666666Y-77261904D01*
X164619047Y-77071428D01*
X164619047Y-76833333D01*
X164666666Y-76642857D01*
X164714285Y-76547619D01*
X164761904Y-76500000D01*
X164857142Y-76452380D01*
X176704666Y-106513380D02*
X176704666Y-107227666D01*
X176657047Y-107370523D01*
X176561809Y-107465761D01*
X176418952Y-107513380D01*
X176323714Y-107513380D01*
X177228476Y-107513380D02*
X177418952Y-107513380D01*
X177514190Y-107465761D01*
X177561809Y-107418142D01*
X177657047Y-107275285D01*
X177704666Y-107084809D01*
X177704666Y-106703857D01*
X177657047Y-106608619D01*
X177609428Y-106561000D01*
X177514190Y-106513380D01*
X177323714Y-106513380D01*
X177228476Y-106561000D01*
X177180857Y-106608619D01*
X177133238Y-106703857D01*
X177133238Y-106941952D01*
X177180857Y-107037190D01*
X177228476Y-107084809D01*
X177323714Y-107132428D01*
X177514190Y-107132428D01*
X177609428Y-107084809D01*
X177657047Y-107037190D01*
X177704666Y-106941952D01*
D12*
X87417261Y-72680952D02*
X87417261Y-72280952D01*
X87512500Y-72280952D01*
X87569642Y-72300000D01*
X87607738Y-72338095D01*
X87626785Y-72376190D01*
X87645833Y-72452380D01*
X87645833Y-72509523D01*
X87626785Y-72585714D01*
X87607738Y-72623809D01*
X87569642Y-72661904D01*
X87512500Y-72680952D01*
X87417261Y-72680952D01*
X88007738Y-72280952D02*
X87817261Y-72280952D01*
X87798214Y-72471428D01*
X87817261Y-72452380D01*
X87855357Y-72433333D01*
X87950595Y-72433333D01*
X87988690Y-72452380D01*
X88007738Y-72471428D01*
X88026785Y-72509523D01*
X88026785Y-72604761D01*
X88007738Y-72642857D01*
X87988690Y-72661904D01*
X87950595Y-72680952D01*
X87855357Y-72680952D01*
X87817261Y-72661904D01*
X87798214Y-72642857D01*
D11*
X98679142Y-82478571D02*
X98345809Y-82478571D01*
X98345809Y-83002380D02*
X98345809Y-82002380D01*
X98822000Y-82002380D01*
X99631523Y-82335714D02*
X99631523Y-83002380D01*
X99202952Y-82335714D02*
X99202952Y-82859523D01*
X99250571Y-82954761D01*
X99345809Y-83002380D01*
X99488666Y-83002380D01*
X99583904Y-82954761D01*
X99631523Y-82907142D01*
X100060095Y-82954761D02*
X100155333Y-83002380D01*
X100345809Y-83002380D01*
X100441047Y-82954761D01*
X100488666Y-82859523D01*
X100488666Y-82811904D01*
X100441047Y-82716666D01*
X100345809Y-82669047D01*
X100202952Y-82669047D01*
X100107714Y-82621428D01*
X100060095Y-82526190D01*
X100060095Y-82478571D01*
X100107714Y-82383333D01*
X100202952Y-82335714D01*
X100345809Y-82335714D01*
X100441047Y-82383333D01*
X101298190Y-82954761D02*
X101202952Y-83002380D01*
X101012476Y-83002380D01*
X100917238Y-82954761D01*
X100869619Y-82859523D01*
X100869619Y-82478571D01*
X100917238Y-82383333D01*
X101012476Y-82335714D01*
X101202952Y-82335714D01*
X101298190Y-82383333D01*
X101345809Y-82478571D01*
X101345809Y-82573809D01*
X100869619Y-82669047D01*
X99590266Y-84358171D02*
X99256933Y-84358171D01*
X99256933Y-84881980D02*
X99256933Y-83881980D01*
X99733123Y-83881980D01*
X100161695Y-84881980D02*
X100352171Y-84881980D01*
X100447409Y-84834361D01*
X100495028Y-84786742D01*
X100590266Y-84643885D01*
X100637885Y-84453409D01*
X100637885Y-84072457D01*
X100590266Y-83977219D01*
X100542647Y-83929600D01*
X100447409Y-83881980D01*
X100256933Y-83881980D01*
X100161695Y-83929600D01*
X100114076Y-83977219D01*
X100066457Y-84072457D01*
X100066457Y-84310552D01*
X100114076Y-84405790D01*
X100161695Y-84453409D01*
X100256933Y-84501028D01*
X100447409Y-84501028D01*
X100542647Y-84453409D01*
X100590266Y-84405790D01*
X100637885Y-84310552D01*
X145288095Y-82875380D02*
X145288095Y-81875380D01*
X145288095Y-82351571D02*
X145859523Y-82351571D01*
X145859523Y-82875380D02*
X145859523Y-81875380D01*
X146240476Y-81875380D02*
X146907142Y-81875380D01*
X146478571Y-82875380D01*
D12*
X174090152Y-96374742D02*
X173899676Y-96508076D01*
X174090152Y-96603314D02*
X173690152Y-96603314D01*
X173690152Y-96450933D01*
X173709200Y-96412838D01*
X173728247Y-96393790D01*
X173766342Y-96374742D01*
X173823485Y-96374742D01*
X173861580Y-96393790D01*
X173880628Y-96412838D01*
X173899676Y-96450933D01*
X173899676Y-96603314D01*
X174090152Y-95993790D02*
X174090152Y-96222361D01*
X174090152Y-96108076D02*
X173690152Y-96108076D01*
X173747295Y-96146171D01*
X173785390Y-96184266D01*
X173804438Y-96222361D01*
X173690152Y-95746171D02*
X173690152Y-95708076D01*
X173709200Y-95669980D01*
X173728247Y-95650933D01*
X173766342Y-95631885D01*
X173842533Y-95612838D01*
X173937771Y-95612838D01*
X174013961Y-95631885D01*
X174052057Y-95650933D01*
X174071104Y-95669980D01*
X174090152Y-95708076D01*
X174090152Y-95746171D01*
X174071104Y-95784266D01*
X174052057Y-95803314D01*
X174013961Y-95822361D01*
X173937771Y-95841409D01*
X173842533Y-95841409D01*
X173766342Y-95822361D01*
X173728247Y-95803314D01*
X173709200Y-95784266D01*
X173690152Y-95746171D01*
X150123533Y-97894752D02*
X149990200Y-97704276D01*
X149894961Y-97894752D02*
X149894961Y-97494752D01*
X150047342Y-97494752D01*
X150085438Y-97513800D01*
X150104485Y-97532847D01*
X150123533Y-97570942D01*
X150123533Y-97628085D01*
X150104485Y-97666180D01*
X150085438Y-97685228D01*
X150047342Y-97704276D01*
X149894961Y-97704276D01*
X150275914Y-97532847D02*
X150294961Y-97513800D01*
X150333057Y-97494752D01*
X150428295Y-97494752D01*
X150466390Y-97513800D01*
X150485438Y-97532847D01*
X150504485Y-97570942D01*
X150504485Y-97609038D01*
X150485438Y-97666180D01*
X150256866Y-97894752D01*
X150504485Y-97894752D01*
D11*
X98679142Y-75112571D02*
X98345809Y-75112571D01*
X98345809Y-75636380D02*
X98345809Y-74636380D01*
X98822000Y-74636380D01*
X99631523Y-74969714D02*
X99631523Y-75636380D01*
X99202952Y-74969714D02*
X99202952Y-75493523D01*
X99250571Y-75588761D01*
X99345809Y-75636380D01*
X99488666Y-75636380D01*
X99583904Y-75588761D01*
X99631523Y-75541142D01*
X100060095Y-75588761D02*
X100155333Y-75636380D01*
X100345809Y-75636380D01*
X100441047Y-75588761D01*
X100488666Y-75493523D01*
X100488666Y-75445904D01*
X100441047Y-75350666D01*
X100345809Y-75303047D01*
X100202952Y-75303047D01*
X100107714Y-75255428D01*
X100060095Y-75160190D01*
X100060095Y-75112571D01*
X100107714Y-75017333D01*
X100202952Y-74969714D01*
X100345809Y-74969714D01*
X100441047Y-75017333D01*
X101298190Y-75588761D02*
X101202952Y-75636380D01*
X101012476Y-75636380D01*
X100917238Y-75588761D01*
X100869619Y-75493523D01*
X100869619Y-75112571D01*
X100917238Y-75017333D01*
X101012476Y-74969714D01*
X101202952Y-74969714D01*
X101298190Y-75017333D01*
X101345809Y-75112571D01*
X101345809Y-75207809D01*
X100869619Y-75303047D01*
X99114076Y-76712771D02*
X98780742Y-76712771D01*
X98780742Y-77236580D02*
X98780742Y-76236580D01*
X99256933Y-76236580D01*
X100161695Y-77236580D02*
X99590266Y-77236580D01*
X99875980Y-77236580D02*
X99875980Y-76236580D01*
X99780742Y-76379438D01*
X99685504Y-76474676D01*
X99590266Y-76522295D01*
X100495028Y-76236580D02*
X101114076Y-76236580D01*
X100780742Y-76617533D01*
X100923600Y-76617533D01*
X101018838Y-76665152D01*
X101066457Y-76712771D01*
X101114076Y-76808009D01*
X101114076Y-77046104D01*
X101066457Y-77141342D01*
X101018838Y-77188961D01*
X100923600Y-77236580D01*
X100637885Y-77236580D01*
X100542647Y-77188961D01*
X100495028Y-77141342D01*
D12*
X179204761Y-72680952D02*
X179204761Y-72280952D01*
X179300000Y-72280952D01*
X179357142Y-72300000D01*
X179395238Y-72338095D01*
X179414285Y-72376190D01*
X179433333Y-72452380D01*
X179433333Y-72509523D01*
X179414285Y-72585714D01*
X179395238Y-72623809D01*
X179357142Y-72661904D01*
X179300000Y-72680952D01*
X179204761Y-72680952D01*
X179776190Y-72280952D02*
X179700000Y-72280952D01*
X179661904Y-72300000D01*
X179642857Y-72319047D01*
X179604761Y-72376190D01*
X179585714Y-72452380D01*
X179585714Y-72604761D01*
X179604761Y-72642857D01*
X179623809Y-72661904D01*
X179661904Y-72680952D01*
X179738095Y-72680952D01*
X179776190Y-72661904D01*
X179795238Y-72642857D01*
X179814285Y-72604761D01*
X179814285Y-72509523D01*
X179795238Y-72471428D01*
X179776190Y-72452380D01*
X179738095Y-72433333D01*
X179661904Y-72433333D01*
X179623809Y-72452380D01*
X179604761Y-72471428D01*
X179585714Y-72509523D01*
X170601952Y-68677666D02*
X170411476Y-68811000D01*
X170601952Y-68906238D02*
X170201952Y-68906238D01*
X170201952Y-68753857D01*
X170221000Y-68715761D01*
X170240047Y-68696714D01*
X170278142Y-68677666D01*
X170335285Y-68677666D01*
X170373380Y-68696714D01*
X170392428Y-68715761D01*
X170411476Y-68753857D01*
X170411476Y-68906238D01*
X170335285Y-68334809D02*
X170601952Y-68334809D01*
X170182904Y-68430047D02*
X170468619Y-68525285D01*
X170468619Y-68277666D01*
D11*
X114300095Y-82875380D02*
X114300095Y-81875380D01*
X114300095Y-82351571D02*
X114871523Y-82351571D01*
X114871523Y-82875380D02*
X114871523Y-81875380D01*
X115823904Y-81875380D02*
X115347714Y-81875380D01*
X115300095Y-82351571D01*
X115347714Y-82303952D01*
X115442952Y-82256333D01*
X115681047Y-82256333D01*
X115776285Y-82303952D01*
X115823904Y-82351571D01*
X115871523Y-82446809D01*
X115871523Y-82684904D01*
X115823904Y-82780142D01*
X115776285Y-82827761D01*
X115681047Y-82875380D01*
X115442952Y-82875380D01*
X115347714Y-82827761D01*
X115300095Y-82780142D01*
X89147880Y-73857238D02*
X89147880Y-74428666D01*
X89147880Y-74142952D02*
X88147880Y-74142952D01*
X88290738Y-74238190D01*
X88385976Y-74333428D01*
X88433595Y-74428666D01*
X88147880Y-73238190D02*
X88147880Y-73142952D01*
X88195500Y-73047714D01*
X88243119Y-73000095D01*
X88338357Y-72952476D01*
X88528833Y-72904857D01*
X88766928Y-72904857D01*
X88957404Y-72952476D01*
X89052642Y-73000095D01*
X89100261Y-73047714D01*
X89147880Y-73142952D01*
X89147880Y-73238190D01*
X89100261Y-73333428D01*
X89052642Y-73381047D01*
X88957404Y-73428666D01*
X88766928Y-73476285D01*
X88528833Y-73476285D01*
X88338357Y-73428666D01*
X88243119Y-73381047D01*
X88195500Y-73333428D01*
X88147880Y-73238190D01*
X89147880Y-72476285D02*
X88147880Y-72476285D01*
X88766928Y-72381047D02*
X89147880Y-72095333D01*
X88481214Y-72095333D02*
X88862166Y-72476285D01*
D12*
X90306452Y-73328666D02*
X90115976Y-73462000D01*
X90306452Y-73557238D02*
X89906452Y-73557238D01*
X89906452Y-73404857D01*
X89925500Y-73366761D01*
X89944547Y-73347714D01*
X89982642Y-73328666D01*
X90039785Y-73328666D01*
X90077880Y-73347714D01*
X90096928Y-73366761D01*
X90115976Y-73404857D01*
X90115976Y-73557238D01*
X89906452Y-73195333D02*
X89906452Y-72928666D01*
X90306452Y-73100095D01*
D11*
X151764390Y-103839419D02*
X151326295Y-104146085D01*
X151764390Y-104365133D02*
X150844390Y-104365133D01*
X150844390Y-104014657D01*
X150888200Y-103927038D01*
X150932009Y-103883228D01*
X151019628Y-103839419D01*
X151151057Y-103839419D01*
X151238676Y-103883228D01*
X151282485Y-103927038D01*
X151326295Y-104014657D01*
X151326295Y-104365133D01*
X150844390Y-103576561D02*
X151764390Y-103269895D01*
X150844390Y-102963228D01*
X151764390Y-102174657D02*
X151764390Y-102700371D01*
X151764390Y-102437514D02*
X150844390Y-102437514D01*
X150975819Y-102525133D01*
X151063438Y-102612752D01*
X151107247Y-102700371D01*
X129286095Y-114498380D02*
X129286095Y-113498380D01*
X129286095Y-113974571D02*
X129857523Y-113974571D01*
X129857523Y-114498380D02*
X129857523Y-113498380D01*
X130762285Y-113498380D02*
X130571809Y-113498380D01*
X130476571Y-113546000D01*
X130428952Y-113593619D01*
X130333714Y-113736476D01*
X130286095Y-113926952D01*
X130286095Y-114307904D01*
X130333714Y-114403142D01*
X130381333Y-114450761D01*
X130476571Y-114498380D01*
X130667047Y-114498380D01*
X130762285Y-114450761D01*
X130809904Y-114403142D01*
X130857523Y-114307904D01*
X130857523Y-114069809D01*
X130809904Y-113974571D01*
X130762285Y-113926952D01*
X130667047Y-113879333D01*
X130476571Y-113879333D01*
X130381333Y-113926952D01*
X130333714Y-113974571D01*
X130286095Y-114069809D01*
X166238095Y-115452380D02*
X166238095Y-114452380D01*
X166238095Y-114928571D02*
X166809523Y-114928571D01*
X166809523Y-115452380D02*
X166809523Y-114452380D01*
X167190476Y-114452380D02*
X167809523Y-114452380D01*
X167476190Y-114833333D01*
X167619047Y-114833333D01*
X167714285Y-114880952D01*
X167761904Y-114928571D01*
X167809523Y-115023809D01*
X167809523Y-115261904D01*
X167761904Y-115357142D01*
X167714285Y-115404761D01*
X167619047Y-115452380D01*
X167333333Y-115452380D01*
X167238095Y-115404761D01*
X167190476Y-115357142D01*
X181713142Y-67491714D02*
X181760761Y-67539333D01*
X181808380Y-67682190D01*
X181808380Y-67777428D01*
X181760761Y-67920285D01*
X181665523Y-68015523D01*
X181570285Y-68063142D01*
X181379809Y-68110761D01*
X181236952Y-68110761D01*
X181046476Y-68063142D01*
X180951238Y-68015523D01*
X180856000Y-67920285D01*
X180808380Y-67777428D01*
X180808380Y-67682190D01*
X180856000Y-67539333D01*
X180903619Y-67491714D01*
X181808380Y-66920285D02*
X181760761Y-67015523D01*
X181713142Y-67063142D01*
X181617904Y-67110761D01*
X181332190Y-67110761D01*
X181236952Y-67063142D01*
X181189333Y-67015523D01*
X181141714Y-66920285D01*
X181141714Y-66777428D01*
X181189333Y-66682190D01*
X181236952Y-66634571D01*
X181332190Y-66586952D01*
X181617904Y-66586952D01*
X181713142Y-66634571D01*
X181760761Y-66682190D01*
X181808380Y-66777428D01*
X181808380Y-66920285D01*
X181141714Y-66158380D02*
X181808380Y-66158380D01*
X181236952Y-66158380D02*
X181189333Y-66110761D01*
X181141714Y-66015523D01*
X181141714Y-65872666D01*
X181189333Y-65777428D01*
X181284571Y-65729809D01*
X181808380Y-65729809D01*
X181141714Y-65253619D02*
X181808380Y-65253619D01*
X181236952Y-65253619D02*
X181189333Y-65206000D01*
X181141714Y-65110761D01*
X181141714Y-64967904D01*
X181189333Y-64872666D01*
X181284571Y-64825047D01*
X181808380Y-64825047D01*
X181903619Y-64586952D02*
X181903619Y-63825047D01*
X180808380Y-63396476D02*
X180808380Y-63301238D01*
X180856000Y-63206000D01*
X180903619Y-63158380D01*
X180998857Y-63110761D01*
X181189333Y-63063142D01*
X181427428Y-63063142D01*
X181617904Y-63110761D01*
X181713142Y-63158380D01*
X181760761Y-63206000D01*
X181808380Y-63301238D01*
X181808380Y-63396476D01*
X181760761Y-63491714D01*
X181713142Y-63539333D01*
X181617904Y-63586952D01*
X181427428Y-63634571D01*
X181189333Y-63634571D01*
X180998857Y-63586952D01*
X180903619Y-63539333D01*
X180856000Y-63491714D01*
X180808380Y-63396476D01*
X181808380Y-62110761D02*
X181808380Y-62682190D01*
X181808380Y-62396476D02*
X180808380Y-62396476D01*
X180951238Y-62491714D01*
X181046476Y-62586952D01*
X181094095Y-62682190D01*
X181808380Y-61777428D02*
X181141714Y-61253619D01*
X181141714Y-61777428D02*
X181808380Y-61253619D01*
X180808380Y-60682190D02*
X180808380Y-60586952D01*
X180856000Y-60491714D01*
X180903619Y-60444095D01*
X180998857Y-60396476D01*
X181189333Y-60348857D01*
X181427428Y-60348857D01*
X181617904Y-60396476D01*
X181713142Y-60444095D01*
X181760761Y-60491714D01*
X181808380Y-60586952D01*
X181808380Y-60682190D01*
X181760761Y-60777428D01*
X181713142Y-60825047D01*
X181617904Y-60872666D01*
X181427428Y-60920285D01*
X181189333Y-60920285D01*
X180998857Y-60872666D01*
X180903619Y-60825047D01*
X180856000Y-60777428D01*
X180808380Y-60682190D01*
X180903619Y-59967904D02*
X180856000Y-59920285D01*
X180808380Y-59825047D01*
X180808380Y-59586952D01*
X180856000Y-59491714D01*
X180903619Y-59444095D01*
X180998857Y-59396476D01*
X181094095Y-59396476D01*
X181236952Y-59444095D01*
X181808380Y-60015523D01*
X181808380Y-59396476D01*
X181903619Y-59206000D02*
X181903619Y-58444095D01*
X181284571Y-57872666D02*
X181284571Y-58206000D01*
X181808380Y-58206000D02*
X180808380Y-58206000D01*
X180808380Y-57729809D01*
X181760761Y-56967904D02*
X181808380Y-57063142D01*
X181808380Y-57253619D01*
X181760761Y-57348857D01*
X181665523Y-57396476D01*
X181284571Y-57396476D01*
X181189333Y-57348857D01*
X181141714Y-57253619D01*
X181141714Y-57063142D01*
X181189333Y-56967904D01*
X181284571Y-56920285D01*
X181379809Y-56920285D01*
X181475047Y-57396476D01*
X181808380Y-56491714D02*
X181141714Y-56491714D01*
X181236952Y-56491714D02*
X181189333Y-56444095D01*
X181141714Y-56348857D01*
X181141714Y-56206000D01*
X181189333Y-56110761D01*
X181284571Y-56063142D01*
X181808380Y-56063142D01*
X181284571Y-56063142D02*
X181189333Y-56015523D01*
X181141714Y-55920285D01*
X181141714Y-55777428D01*
X181189333Y-55682190D01*
X181284571Y-55634571D01*
X181808380Y-55634571D01*
X181808380Y-54729809D02*
X181284571Y-54729809D01*
X181189333Y-54777428D01*
X181141714Y-54872666D01*
X181141714Y-55063142D01*
X181189333Y-55158380D01*
X181760761Y-54729809D02*
X181808380Y-54825047D01*
X181808380Y-55063142D01*
X181760761Y-55158380D01*
X181665523Y-55206000D01*
X181570285Y-55206000D01*
X181475047Y-55158380D01*
X181427428Y-55063142D01*
X181427428Y-54825047D01*
X181379809Y-54729809D01*
X181808380Y-54110761D02*
X181760761Y-54206000D01*
X181665523Y-54253619D01*
X180808380Y-54253619D01*
X181760761Y-53348857D02*
X181808380Y-53444095D01*
X181808380Y-53634571D01*
X181760761Y-53729809D01*
X181665523Y-53777428D01*
X181284571Y-53777428D01*
X181189333Y-53729809D01*
X181141714Y-53634571D01*
X181141714Y-53444095D01*
X181189333Y-53348857D01*
X181284571Y-53301238D01*
X181379809Y-53301238D01*
X181475047Y-53777428D01*
X176704666Y-60031380D02*
X176704666Y-60745666D01*
X176657047Y-60888523D01*
X176561809Y-60983761D01*
X176418952Y-61031380D01*
X176323714Y-61031380D01*
X177085619Y-60031380D02*
X177704666Y-60031380D01*
X177371333Y-60412333D01*
X177514190Y-60412333D01*
X177609428Y-60459952D01*
X177657047Y-60507571D01*
X177704666Y-60602809D01*
X177704666Y-60840904D01*
X177657047Y-60936142D01*
X177609428Y-60983761D01*
X177514190Y-61031380D01*
X177228476Y-61031380D01*
X177133238Y-60983761D01*
X177085619Y-60936142D01*
X99862666Y-55300571D02*
X99529333Y-55300571D01*
X99529333Y-55824380D02*
X99529333Y-54824380D01*
X100005523Y-54824380D01*
X100910285Y-55824380D02*
X100338857Y-55824380D01*
X100624571Y-55824380D02*
X100624571Y-54824380D01*
X100529333Y-54967238D01*
X100434095Y-55062476D01*
X100338857Y-55110095D01*
D12*
X90720952Y-96582666D02*
X90530476Y-96716000D01*
X90720952Y-96811238D02*
X90320952Y-96811238D01*
X90320952Y-96658857D01*
X90340000Y-96620761D01*
X90359047Y-96601714D01*
X90397142Y-96582666D01*
X90454285Y-96582666D01*
X90492380Y-96601714D01*
X90511428Y-96620761D01*
X90530476Y-96658857D01*
X90530476Y-96811238D01*
X90320952Y-96239809D02*
X90320952Y-96316000D01*
X90340000Y-96354095D01*
X90359047Y-96373142D01*
X90416190Y-96411238D01*
X90492380Y-96430285D01*
X90644761Y-96430285D01*
X90682857Y-96411238D01*
X90701904Y-96392190D01*
X90720952Y-96354095D01*
X90720952Y-96277904D01*
X90701904Y-96239809D01*
X90682857Y-96220761D01*
X90644761Y-96201714D01*
X90549523Y-96201714D01*
X90511428Y-96220761D01*
X90492380Y-96239809D01*
X90473333Y-96277904D01*
X90473333Y-96354095D01*
X90492380Y-96392190D01*
X90511428Y-96411238D01*
X90549523Y-96430285D01*
D11*
X86661666Y-82764380D02*
X86661666Y-83478666D01*
X86614047Y-83621523D01*
X86518809Y-83716761D01*
X86375952Y-83764380D01*
X86280714Y-83764380D01*
X87566428Y-82764380D02*
X87375952Y-82764380D01*
X87280714Y-82812000D01*
X87233095Y-82859619D01*
X87137857Y-83002476D01*
X87090238Y-83192952D01*
X87090238Y-83573904D01*
X87137857Y-83669142D01*
X87185476Y-83716761D01*
X87280714Y-83764380D01*
X87471190Y-83764380D01*
X87566428Y-83716761D01*
X87614047Y-83669142D01*
X87661666Y-83573904D01*
X87661666Y-83335809D01*
X87614047Y-83240571D01*
X87566428Y-83192952D01*
X87471190Y-83145333D01*
X87280714Y-83145333D01*
X87185476Y-83192952D01*
X87137857Y-83240571D01*
X87090238Y-83335809D01*
X163242666Y-55300571D02*
X162909333Y-55300571D01*
X162909333Y-55824380D02*
X162909333Y-54824380D01*
X163385523Y-54824380D01*
X164195047Y-54824380D02*
X164004571Y-54824380D01*
X163909333Y-54872000D01*
X163861714Y-54919619D01*
X163766476Y-55062476D01*
X163718857Y-55252952D01*
X163718857Y-55633904D01*
X163766476Y-55729142D01*
X163814095Y-55776761D01*
X163909333Y-55824380D01*
X164099809Y-55824380D01*
X164195047Y-55776761D01*
X164242666Y-55729142D01*
X164290285Y-55633904D01*
X164290285Y-55395809D01*
X164242666Y-55300571D01*
X164195047Y-55252952D01*
X164099809Y-55205333D01*
X163909333Y-55205333D01*
X163814095Y-55252952D01*
X163766476Y-55300571D01*
X163718857Y-55395809D01*
X142192476Y-71428571D02*
X141859142Y-71428571D01*
X141859142Y-71952380D02*
X141859142Y-70952380D01*
X142335333Y-70952380D01*
X143240095Y-71952380D02*
X142668666Y-71952380D01*
X142954380Y-71952380D02*
X142954380Y-70952380D01*
X142859142Y-71095238D01*
X142763904Y-71190476D01*
X142668666Y-71238095D01*
X144144857Y-70952380D02*
X143668666Y-70952380D01*
X143621047Y-71428571D01*
X143668666Y-71380952D01*
X143763904Y-71333333D01*
X144002000Y-71333333D01*
X144097238Y-71380952D01*
X144144857Y-71428571D01*
X144192476Y-71523809D01*
X144192476Y-71761904D01*
X144144857Y-71857142D01*
X144097238Y-71904761D01*
X144002000Y-71952380D01*
X143763904Y-71952380D01*
X143668666Y-71904761D01*
X143621047Y-71857142D01*
X89428571Y-119252380D02*
X89428571Y-118252380D01*
X89761904Y-118966666D01*
X90095238Y-118252380D01*
X90095238Y-119252380D01*
X90714285Y-119252380D02*
X90619047Y-119204761D01*
X90571428Y-119157142D01*
X90523809Y-119061904D01*
X90523809Y-118776190D01*
X90571428Y-118680952D01*
X90619047Y-118633333D01*
X90714285Y-118585714D01*
X90857142Y-118585714D01*
X90952380Y-118633333D01*
X91000000Y-118680952D01*
X91047619Y-118776190D01*
X91047619Y-119061904D01*
X91000000Y-119157142D01*
X90952380Y-119204761D01*
X90857142Y-119252380D01*
X90714285Y-119252380D01*
X91904761Y-118585714D02*
X91904761Y-119252380D01*
X91476190Y-118585714D02*
X91476190Y-119109523D01*
X91523809Y-119204761D01*
X91619047Y-119252380D01*
X91761904Y-119252380D01*
X91857142Y-119204761D01*
X91904761Y-119157142D01*
X92380952Y-118585714D02*
X92380952Y-119252380D01*
X92380952Y-118680952D02*
X92428571Y-118633333D01*
X92523809Y-118585714D01*
X92666666Y-118585714D01*
X92761904Y-118633333D01*
X92809523Y-118728571D01*
X92809523Y-119252380D01*
X93142857Y-118585714D02*
X93523809Y-118585714D01*
X93285714Y-118252380D02*
X93285714Y-119109523D01*
X93333333Y-119204761D01*
X93428571Y-119252380D01*
X93523809Y-119252380D01*
X93857142Y-119252380D02*
X93857142Y-118585714D01*
X93857142Y-118252380D02*
X93809523Y-118300000D01*
X93857142Y-118347619D01*
X93904761Y-118300000D01*
X93857142Y-118252380D01*
X93857142Y-118347619D01*
X94333333Y-118585714D02*
X94333333Y-119252380D01*
X94333333Y-118680952D02*
X94380952Y-118633333D01*
X94476190Y-118585714D01*
X94619047Y-118585714D01*
X94714285Y-118633333D01*
X94761904Y-118728571D01*
X94761904Y-119252380D01*
X95666666Y-118585714D02*
X95666666Y-119395238D01*
X95619047Y-119490476D01*
X95571428Y-119538095D01*
X95476190Y-119585714D01*
X95333333Y-119585714D01*
X95238095Y-119538095D01*
X95666666Y-119204761D02*
X95571428Y-119252380D01*
X95380952Y-119252380D01*
X95285714Y-119204761D01*
X95238095Y-119157142D01*
X95190476Y-119061904D01*
X95190476Y-118776190D01*
X95238095Y-118680952D01*
X95285714Y-118633333D01*
X95380952Y-118585714D01*
X95571428Y-118585714D01*
X95666666Y-118633333D01*
X96142857Y-119252380D02*
X96142857Y-118252380D01*
X96142857Y-118728571D02*
X96714285Y-118728571D01*
X96714285Y-119252380D02*
X96714285Y-118252380D01*
X97333333Y-119252380D02*
X97238095Y-119204761D01*
X97190476Y-119157142D01*
X97142857Y-119061904D01*
X97142857Y-118776190D01*
X97190476Y-118680952D01*
X97238095Y-118633333D01*
X97333333Y-118585714D01*
X97476190Y-118585714D01*
X97571428Y-118633333D01*
X97619047Y-118680952D01*
X97666666Y-118776190D01*
X97666666Y-119061904D01*
X97619047Y-119157142D01*
X97571428Y-119204761D01*
X97476190Y-119252380D01*
X97333333Y-119252380D01*
X98238095Y-119252380D02*
X98142857Y-119204761D01*
X98095238Y-119109523D01*
X98095238Y-118252380D01*
X99000000Y-119204761D02*
X98904761Y-119252380D01*
X98714285Y-119252380D01*
X98619047Y-119204761D01*
X98571428Y-119109523D01*
X98571428Y-118728571D01*
X98619047Y-118633333D01*
X98714285Y-118585714D01*
X98904761Y-118585714D01*
X99000000Y-118633333D01*
X99047619Y-118728571D01*
X99047619Y-118823809D01*
X98571428Y-118919047D01*
X99238095Y-119347619D02*
X100000000Y-119347619D01*
X100238095Y-119252380D02*
X100238095Y-118252380D01*
X100619047Y-118252380D01*
X100714285Y-118300000D01*
X100761904Y-118347619D01*
X100809523Y-118442857D01*
X100809523Y-118585714D01*
X100761904Y-118680952D01*
X100714285Y-118728571D01*
X100619047Y-118776190D01*
X100238095Y-118776190D01*
X101666666Y-119252380D02*
X101666666Y-118728571D01*
X101619047Y-118633333D01*
X101523809Y-118585714D01*
X101333333Y-118585714D01*
X101238095Y-118633333D01*
X101666666Y-119204761D02*
X101571428Y-119252380D01*
X101333333Y-119252380D01*
X101238095Y-119204761D01*
X101190476Y-119109523D01*
X101190476Y-119014285D01*
X101238095Y-118919047D01*
X101333333Y-118871428D01*
X101571428Y-118871428D01*
X101666666Y-118823809D01*
X102571428Y-119252380D02*
X102571428Y-118252380D01*
X102571428Y-119204761D02*
X102476190Y-119252380D01*
X102285714Y-119252380D01*
X102190476Y-119204761D01*
X102142857Y-119157142D01*
X102095238Y-119061904D01*
X102095238Y-118776190D01*
X102142857Y-118680952D01*
X102190476Y-118633333D01*
X102285714Y-118585714D01*
X102476190Y-118585714D01*
X102571428Y-118633333D01*
X95238095Y-115452380D02*
X95238095Y-114452380D01*
X95238095Y-114928571D02*
X95809523Y-114928571D01*
X95809523Y-115452380D02*
X95809523Y-114452380D01*
X96714285Y-114785714D02*
X96714285Y-115452380D01*
X96476190Y-114404761D02*
X96238095Y-115119047D01*
X96857142Y-115119047D01*
X130916666Y-83432380D02*
X130916666Y-84146666D01*
X130869047Y-84289523D01*
X130773809Y-84384761D01*
X130630952Y-84432380D01*
X130535714Y-84432380D01*
X131916666Y-84432380D02*
X131345238Y-84432380D01*
X131630952Y-84432380D02*
X131630952Y-83432380D01*
X131535714Y-83575238D01*
X131440476Y-83670476D01*
X131345238Y-83718095D01*
X99913466Y-62920571D02*
X99580133Y-62920571D01*
X99580133Y-63444380D02*
X99580133Y-62444380D01*
X100056323Y-62444380D01*
X100913466Y-62444380D02*
X100437276Y-62444380D01*
X100389657Y-62920571D01*
X100437276Y-62872952D01*
X100532514Y-62825333D01*
X100770609Y-62825333D01*
X100865847Y-62872952D01*
X100913466Y-62920571D01*
X100961085Y-63015809D01*
X100961085Y-63253904D01*
X100913466Y-63349142D01*
X100865847Y-63396761D01*
X100770609Y-63444380D01*
X100532514Y-63444380D01*
X100437276Y-63396761D01*
X100389657Y-63349142D01*
X99412466Y-100182371D02*
X99079133Y-100182371D01*
X99079133Y-100706180D02*
X99079133Y-99706180D01*
X99555323Y-99706180D01*
X100364847Y-100039514D02*
X100364847Y-100706180D01*
X100126752Y-99658561D02*
X99888657Y-100372847D01*
X100507704Y-100372847D01*
X99387066Y-107675371D02*
X99053733Y-107675371D01*
X99053733Y-108199180D02*
X99053733Y-107199180D01*
X99529923Y-107199180D01*
X100053733Y-107627752D02*
X99958495Y-107580133D01*
X99910876Y-107532514D01*
X99863257Y-107437276D01*
X99863257Y-107389657D01*
X99910876Y-107294419D01*
X99958495Y-107246800D01*
X100053733Y-107199180D01*
X100244209Y-107199180D01*
X100339447Y-107246800D01*
X100387066Y-107294419D01*
X100434685Y-107389657D01*
X100434685Y-107437276D01*
X100387066Y-107532514D01*
X100339447Y-107580133D01*
X100244209Y-107627752D01*
X100053733Y-107627752D01*
X99958495Y-107675371D01*
X99910876Y-107722990D01*
X99863257Y-107818228D01*
X99863257Y-108008704D01*
X99910876Y-108103942D01*
X99958495Y-108151561D01*
X100053733Y-108199180D01*
X100244209Y-108199180D01*
X100339447Y-108151561D01*
X100387066Y-108103942D01*
X100434685Y-108008704D01*
X100434685Y-107818228D01*
X100387066Y-107722990D01*
X100339447Y-107675371D01*
X100244209Y-107627752D01*
D13*
X112345200Y-60790400D02*
X112345200Y-67530400D01*
X112345200Y-67530400D02*
X128345200Y-67530400D01*
X128345200Y-60790400D02*
X112345200Y-60790400D01*
X128345200Y-67530400D02*
X128345200Y-60790400D01*
X110300000Y-68087500D02*
X110300000Y-68912500D01*
X110300000Y-68912500D02*
X108700000Y-68912500D01*
X108700000Y-68912500D02*
X108700000Y-68087500D01*
X108700000Y-68087500D02*
X110300000Y-68087500D01*
X155576000Y-66362000D02*
X171576000Y-66362000D01*
X171576000Y-66362000D02*
X171576000Y-59622000D01*
X155576000Y-59622000D02*
X155576000Y-66362000D01*
X171576000Y-59622000D02*
X155576000Y-59622000D01*
X154100000Y-75200000D02*
X154100000Y-76800000D01*
X154900000Y-76800000D02*
X154900000Y-75500000D01*
X154600000Y-75200000D02*
X154100000Y-75200000D01*
X154100000Y-76800000D02*
X154900000Y-76800000D01*
X154900000Y-75500000D02*
X154600000Y-75200000D01*
X172000000Y-81130000D02*
X156000000Y-81130000D01*
X156000000Y-81130000D02*
X156000000Y-87870000D01*
X172000000Y-87870000D02*
X172000000Y-81130000D01*
X156000000Y-87870000D02*
X172000000Y-87870000D01*
X109400000Y-70500000D02*
X109100000Y-70200000D01*
X109400000Y-71800000D02*
X109400000Y-70500000D01*
X108600000Y-71800000D02*
X109400000Y-71800000D01*
X109100000Y-70200000D02*
X108600000Y-70200000D01*
X108600000Y-70200000D02*
X108600000Y-71800000D01*
X156363400Y-110532600D02*
X172363400Y-110532600D01*
X156363400Y-103792600D02*
X156363400Y-110532600D01*
X172363400Y-110532600D02*
X172363400Y-103792600D01*
X172363400Y-103792600D02*
X156363400Y-103792600D01*
X167055500Y-69100000D02*
X167055500Y-69900000D01*
X167055500Y-69900000D02*
X168355500Y-69900000D01*
X168355500Y-69900000D02*
X168655500Y-69600000D01*
X168655500Y-69600000D02*
X168655500Y-69100000D01*
X168655500Y-69100000D02*
X167055500Y-69100000D01*
X172515800Y-96121800D02*
X156515800Y-96121800D01*
X156515800Y-102861800D02*
X172515800Y-102861800D01*
X172515800Y-102861800D02*
X172515800Y-96121800D01*
X156515800Y-96121800D02*
X156515800Y-102861800D01*
X176547500Y-74316000D02*
X176547500Y-72716000D01*
X176547500Y-72716000D02*
X177372500Y-72716000D01*
X177372500Y-74316000D02*
X176547500Y-74316000D01*
X177372500Y-72716000D02*
X177372500Y-74316000D01*
X88500000Y-95900000D02*
X88800000Y-95600000D01*
X87200000Y-95100000D02*
X87200000Y-95900000D01*
X87200000Y-95900000D02*
X88500000Y-95900000D01*
X88800000Y-95600000D02*
X88800000Y-95100000D01*
X88800000Y-95100000D02*
X87200000Y-95100000D01*
X114520400Y-98049300D02*
X112920400Y-98049300D01*
X114520400Y-97224300D02*
X114520400Y-98049300D01*
X112920400Y-97224300D02*
X114520400Y-97224300D01*
X112920400Y-98049300D02*
X112920400Y-97224300D01*
X177300000Y-94600000D02*
X176000000Y-94600000D01*
X175700000Y-95400000D02*
X177300000Y-95400000D01*
X177300000Y-95400000D02*
X177300000Y-94600000D01*
X175700000Y-94900000D02*
X175700000Y-95400000D01*
X176000000Y-94600000D02*
X175700000Y-94900000D01*
X92974100Y-69436400D02*
X92149100Y-69436400D01*
X92974100Y-67836400D02*
X92974100Y-69436400D01*
X92149100Y-69436400D02*
X92149100Y-67836400D01*
X92149100Y-67836400D02*
X92974100Y-67836400D01*
X128345200Y-68308800D02*
X112345200Y-68308800D01*
X112345200Y-75048800D02*
X128345200Y-75048800D01*
X128345200Y-75048800D02*
X128345200Y-68308800D01*
X112345200Y-68308800D02*
X112345200Y-75048800D01*
X152684000Y-73199900D02*
X154284000Y-73199900D01*
X154284000Y-73199900D02*
X154284000Y-74024900D01*
X152684000Y-74024900D02*
X152684000Y-73199900D01*
X154284000Y-74024900D02*
X152684000Y-74024900D01*
X151000000Y-67370000D02*
X151000000Y-60630000D01*
X135000000Y-60630000D02*
X135000000Y-67370000D01*
X135000000Y-67370000D02*
X151000000Y-67370000D01*
X151000000Y-60630000D02*
X135000000Y-60630000D01*
X94500000Y-69100000D02*
X94200000Y-69400000D01*
X94200000Y-69400000D02*
X94200000Y-69900000D01*
X95800000Y-69900000D02*
X95800000Y-69100000D01*
X94200000Y-69900000D02*
X95800000Y-69900000D01*
X95800000Y-69100000D02*
X94500000Y-69100000D01*
X156000000Y-73630000D02*
X156000000Y-80370000D01*
X172000000Y-73630000D02*
X156000000Y-73630000D01*
X156000000Y-80370000D02*
X172000000Y-80370000D01*
X172000000Y-80370000D02*
X172000000Y-73630000D01*
X86912500Y-72100000D02*
X86912500Y-72900000D01*
X88212500Y-72900000D02*
X88512500Y-72600000D01*
X88512500Y-72600000D02*
X88512500Y-72100000D01*
X86912500Y-72900000D02*
X88212500Y-72900000D01*
X88512500Y-72100000D02*
X86912500Y-72100000D01*
X107923600Y-81059600D02*
X91923600Y-81059600D01*
X91923600Y-81059600D02*
X91923600Y-87799600D01*
X107923600Y-87799600D02*
X107923600Y-81059600D01*
X91923600Y-87799600D02*
X107923600Y-87799600D01*
X173496700Y-96917600D02*
X173496700Y-95317600D01*
X173496700Y-95317600D02*
X174321700Y-95317600D01*
X174321700Y-96917600D02*
X173496700Y-96917600D01*
X174321700Y-95317600D02*
X174321700Y-96917600D01*
X149390200Y-98126300D02*
X149390200Y-97301300D01*
X150990200Y-98126300D02*
X149390200Y-98126300D01*
X150990200Y-97301300D02*
X150990200Y-98126300D01*
X149390200Y-97301300D02*
X150990200Y-97301300D01*
X91923600Y-73414200D02*
X91923600Y-80154200D01*
X107923600Y-73414200D02*
X91923600Y-73414200D01*
X91923600Y-80154200D02*
X107923600Y-80154200D01*
X107923600Y-80154200D02*
X107923600Y-73414200D01*
X178700000Y-72900000D02*
X180300000Y-72900000D01*
X179000000Y-72100000D02*
X178700000Y-72400000D01*
X178700000Y-72400000D02*
X178700000Y-72900000D01*
X180300000Y-72900000D02*
X180300000Y-72100000D01*
X180300000Y-72100000D02*
X179000000Y-72100000D01*
X170833500Y-69411000D02*
X170008500Y-69411000D01*
X170833500Y-67811000D02*
X170833500Y-69411000D01*
X170008500Y-67811000D02*
X170833500Y-67811000D01*
X170008500Y-69411000D02*
X170008500Y-67811000D01*
X89713000Y-74062000D02*
X89713000Y-72462000D01*
X90538000Y-72462000D02*
X90538000Y-74062000D01*
X89713000Y-72462000D02*
X90538000Y-72462000D01*
X90538000Y-74062000D02*
X89713000Y-74062000D01*
X153598200Y-99326800D02*
X149098200Y-99326800D01*
X153210200Y-100546800D02*
X151447200Y-100545800D01*
X153598200Y-106036800D02*
X153598200Y-99326800D01*
X149098200Y-99326800D02*
X149098200Y-106036800D01*
X149098200Y-106036800D02*
X153598200Y-106036800D01*
X153210200Y-100546800D02*
X151447200Y-100545800D01*
X153218200Y-100546800D02*
G75*
G03*
X153218200Y-100546800I-890000J0D01*
G01*
X108196000Y-58742000D02*
X108196000Y-52002000D01*
X92196000Y-52002000D02*
X92196000Y-58742000D01*
X108196000Y-52002000D02*
X92196000Y-52002000D01*
X92196000Y-58742000D02*
X108196000Y-58742000D01*
X90127500Y-97316000D02*
X90127500Y-95716000D01*
X90952500Y-95716000D02*
X90952500Y-97316000D01*
X90127500Y-95716000D02*
X90952500Y-95716000D01*
X90952500Y-97316000D02*
X90127500Y-97316000D01*
X171576000Y-52002000D02*
X155576000Y-52002000D01*
X155576000Y-58742000D02*
X171576000Y-58742000D01*
X155576000Y-52002000D02*
X155576000Y-58742000D01*
X171576000Y-58742000D02*
X171576000Y-52002000D01*
X135002000Y-74870000D02*
X151002000Y-74870000D01*
X135002000Y-68130000D02*
X135002000Y-74870000D01*
X151002000Y-68130000D02*
X135002000Y-68130000D01*
X151002000Y-74870000D02*
X151002000Y-68130000D01*
X127550000Y-78930000D02*
X127550000Y-84680000D01*
X134950000Y-84680000D02*
X134950000Y-78930000D01*
X127550000Y-84680000D02*
X134950000Y-84680000D01*
X134950000Y-78930000D02*
X127550000Y-78930000D01*
X129375000Y-78930000D02*
X130000000Y-79930000D01*
X130000000Y-79930000D02*
X130625000Y-78930000D01*
X108246800Y-66362000D02*
X108246800Y-59622000D01*
X92246800Y-59622000D02*
X92246800Y-66362000D01*
X108246800Y-59622000D02*
X92246800Y-59622000D01*
X92246800Y-66362000D02*
X108246800Y-66362000D01*
X91745800Y-96883800D02*
X91745800Y-103623800D01*
X107745800Y-96883800D02*
X91745800Y-96883800D01*
X107745800Y-103623800D02*
X107745800Y-96883800D01*
X91745800Y-103623800D02*
X107745800Y-103623800D01*
X91720400Y-111116800D02*
X107720400Y-111116800D01*
X107720400Y-104376800D02*
X91720400Y-104376800D01*
X91720400Y-104376800D02*
X91720400Y-111116800D01*
X107720400Y-111116800D02*
X107720400Y-104376800D01*
M02*
