G04 #@! TF.GenerationSoftware,KiCad,Pcbnew,(5.0.2)-1*
G04 #@! TF.CreationDate,2019-02-23T14:57:53-07:00*
G04 #@! TF.ProjectId,MinesRobotics_PDB,4d696e65-7352-46f6-926f-746963735f50,rev?*
G04 #@! TF.SameCoordinates,Original*
G04 #@! TF.FileFunction,Copper,L2,Bot*
G04 #@! TF.FilePolarity,Positive*
%FSLAX46Y46*%
G04 Gerber Fmt 4.6, Leading zero omitted, Abs format (unit mm)*
G04 Created by KiCad (PCBNEW (5.0.2)-1) date 2/23/2019 2:57:53 PM*
%MOMM*%
%LPD*%
G01*
G04 APERTURE LIST*
G04 #@! TA.AperFunction,ComponentPad*
%ADD10R,1.700000X1.700000*%
G04 #@! TD*
G04 #@! TA.AperFunction,ComponentPad*
%ADD11O,1.700000X1.700000*%
G04 #@! TD*
G04 #@! TA.AperFunction,ComponentPad*
%ADD12C,5.000000*%
G04 #@! TD*
G04 #@! TA.AperFunction,ComponentPad*
%ADD13R,22.000000X5.000000*%
G04 #@! TD*
G04 #@! TA.AperFunction,ComponentPad*
%ADD14R,2.500000X5.000000*%
G04 #@! TD*
G04 #@! TA.AperFunction,ComponentPad*
%ADD15O,2.500000X7.000000*%
G04 #@! TD*
G04 #@! TA.AperFunction,ComponentPad*
%ADD16R,1.500000X2.300000*%
G04 #@! TD*
G04 #@! TA.AperFunction,ComponentPad*
%ADD17O,1.500000X2.300000*%
G04 #@! TD*
G04 #@! TA.AperFunction,ComponentPad*
%ADD18C,1.750000*%
G04 #@! TD*
G04 #@! TA.AperFunction,ViaPad*
%ADD19C,0.800000*%
G04 #@! TD*
G04 #@! TA.AperFunction,Conductor*
%ADD20C,0.250000*%
G04 #@! TD*
G04 #@! TA.AperFunction,Conductor*
%ADD21C,0.254000*%
G04 #@! TD*
G04 APERTURE END LIST*
D10*
G04 #@! TO.P,J14,1*
G04 #@! TO.N,/MOSI*
X69850000Y-67310000D03*
D11*
G04 #@! TO.P,J14,2*
G04 #@! TO.N,+5V*
X69850000Y-69850000D03*
G04 #@! TO.P,J14,3*
G04 #@! TO.N,/SCK*
X67310000Y-67310000D03*
G04 #@! TO.P,J14,4*
G04 #@! TO.N,/MISO*
X67310000Y-69850000D03*
G04 #@! TO.P,J14,5*
G04 #@! TO.N,/RESET*
X64770000Y-67310000D03*
G04 #@! TO.P,J14,6*
G04 #@! TO.N,GND*
X64770000Y-69850000D03*
G04 #@! TD*
D12*
G04 #@! TO.P,F1,2*
G04 #@! TO.N,+12V*
X94690000Y-91440000D03*
X86360000Y-91440000D03*
G04 #@! TO.P,F1,1*
G04 #@! TO.N,Net-(F1-Pad1)*
X65330000Y-91440000D03*
X73660000Y-91440000D03*
G04 #@! TD*
G04 #@! TO.P,F2,1*
G04 #@! TO.N,Net-(F2-Pad1)*
X73660000Y-105410000D03*
X65330000Y-105410000D03*
G04 #@! TO.P,F2,2*
G04 #@! TO.N,+12V*
X86360000Y-105410000D03*
X94690000Y-105410000D03*
G04 #@! TD*
G04 #@! TO.P,F3,2*
G04 #@! TO.N,+12V*
X94690000Y-119380000D03*
X86360000Y-119380000D03*
G04 #@! TO.P,F3,1*
G04 #@! TO.N,Net-(F3-Pad1)*
X65330000Y-119380000D03*
X73660000Y-119380000D03*
G04 #@! TD*
G04 #@! TO.P,F4,1*
G04 #@! TO.N,Net-(F4-Pad1)*
X73660000Y-133350000D03*
X65330000Y-133350000D03*
G04 #@! TO.P,F4,2*
G04 #@! TO.N,+12V*
X86360000Y-133350000D03*
X94690000Y-133350000D03*
G04 #@! TD*
G04 #@! TO.P,F5,1*
G04 #@! TO.N,Net-(F5-Pad1)*
X73660000Y-147320000D03*
X65330000Y-147320000D03*
G04 #@! TO.P,F5,2*
G04 #@! TO.N,+12V*
X86360000Y-147320000D03*
X94690000Y-147320000D03*
G04 #@! TD*
G04 #@! TO.P,F6,2*
G04 #@! TO.N,+12V*
X94690000Y-161290000D03*
X86360000Y-161290000D03*
G04 #@! TO.P,F6,1*
G04 #@! TO.N,Net-(F6-Pad1)*
X65330000Y-161290000D03*
X73660000Y-161290000D03*
G04 #@! TD*
G04 #@! TO.P,F7,2*
G04 #@! TO.N,+12V*
X100890000Y-91440000D03*
X109220000Y-91440000D03*
G04 #@! TO.P,F7,1*
G04 #@! TO.N,Net-(F7-Pad1)*
X130250000Y-91440000D03*
X121920000Y-91440000D03*
G04 #@! TD*
G04 #@! TO.P,F8,1*
G04 #@! TO.N,Net-(F8-Pad1)*
X121920000Y-105410000D03*
X130250000Y-105410000D03*
G04 #@! TO.P,F8,2*
G04 #@! TO.N,+12V*
X109220000Y-105410000D03*
X100890000Y-105410000D03*
G04 #@! TD*
G04 #@! TO.P,F9,2*
G04 #@! TO.N,+12V*
X100890000Y-119380000D03*
X109220000Y-119380000D03*
G04 #@! TO.P,F9,1*
G04 #@! TO.N,Net-(F9-Pad1)*
X130250000Y-119380000D03*
X121920000Y-119380000D03*
G04 #@! TD*
G04 #@! TO.P,F10,1*
G04 #@! TO.N,Net-(F10-Pad1)*
X121920000Y-133350000D03*
X130250000Y-133350000D03*
G04 #@! TO.P,F10,2*
G04 #@! TO.N,+12V*
X109220000Y-133350000D03*
X100890000Y-133350000D03*
G04 #@! TD*
G04 #@! TO.P,F11,2*
G04 #@! TO.N,+12V*
X100890000Y-147320000D03*
X109220000Y-147320000D03*
G04 #@! TO.P,F11,1*
G04 #@! TO.N,Net-(F11-Pad1)*
X130250000Y-147320000D03*
X121920000Y-147320000D03*
G04 #@! TD*
G04 #@! TO.P,F12,1*
G04 #@! TO.N,Net-(F12-Pad1)*
X121920000Y-161290000D03*
X130250000Y-161290000D03*
G04 #@! TO.P,F12,2*
G04 #@! TO.N,+12V*
X109220000Y-161290000D03*
X100890000Y-161290000D03*
G04 #@! TD*
D13*
G04 #@! TO.P,K1,1*
G04 #@! TO.N,/Vbat*
X117090000Y-68230000D03*
G04 #@! TO.P,K1,7*
G04 #@! TO.N,+12V*
X91190000Y-68230000D03*
D14*
G04 #@! TO.P,K1,2*
G04 #@! TO.N,GND*
X120140000Y-49480000D03*
G04 #@! TO.P,K1,6*
G04 #@! TO.N,Net-(K1-Pad6)*
X88140000Y-49480000D03*
G04 #@! TD*
D15*
G04 #@! TO.P,J1,1*
G04 #@! TO.N,Net-(F1-Pad1)*
X56030000Y-91440000D03*
G04 #@! TO.P,J1,2*
G04 #@! TO.N,GND*
X48110000Y-91440000D03*
G04 #@! TD*
G04 #@! TO.P,J2,1*
G04 #@! TO.N,Net-(F2-Pad1)*
X56030000Y-105410000D03*
G04 #@! TO.P,J2,2*
G04 #@! TO.N,GND*
X48110000Y-105410000D03*
G04 #@! TD*
G04 #@! TO.P,J3,2*
G04 #@! TO.N,GND*
X48110000Y-119380000D03*
G04 #@! TO.P,J3,1*
G04 #@! TO.N,Net-(F3-Pad1)*
X56030000Y-119380000D03*
G04 #@! TD*
G04 #@! TO.P,J4,1*
G04 #@! TO.N,Net-(F4-Pad1)*
X56030000Y-133350000D03*
G04 #@! TO.P,J4,2*
G04 #@! TO.N,GND*
X48110000Y-133350000D03*
G04 #@! TD*
G04 #@! TO.P,J5,2*
G04 #@! TO.N,GND*
X48110000Y-147320000D03*
G04 #@! TO.P,J5,1*
G04 #@! TO.N,Net-(F5-Pad1)*
X56030000Y-147320000D03*
G04 #@! TD*
G04 #@! TO.P,J6,1*
G04 #@! TO.N,Net-(F6-Pad1)*
X56030000Y-161290000D03*
G04 #@! TO.P,J6,2*
G04 #@! TO.N,GND*
X48110000Y-161290000D03*
G04 #@! TD*
G04 #@! TO.P,J7,1*
G04 #@! TO.N,Net-(F7-Pad1)*
X139550000Y-91440000D03*
G04 #@! TO.P,J7,2*
G04 #@! TO.N,GND*
X147470000Y-91440000D03*
G04 #@! TD*
G04 #@! TO.P,J8,2*
G04 #@! TO.N,GND*
X147470000Y-105410000D03*
G04 #@! TO.P,J8,1*
G04 #@! TO.N,Net-(F8-Pad1)*
X139550000Y-105410000D03*
G04 #@! TD*
G04 #@! TO.P,J9,1*
G04 #@! TO.N,Net-(F9-Pad1)*
X139550000Y-119380000D03*
G04 #@! TO.P,J9,2*
G04 #@! TO.N,GND*
X147470000Y-119380000D03*
G04 #@! TD*
G04 #@! TO.P,J10,2*
G04 #@! TO.N,GND*
X147470000Y-133350000D03*
G04 #@! TO.P,J10,1*
G04 #@! TO.N,Net-(F10-Pad1)*
X139550000Y-133350000D03*
G04 #@! TD*
G04 #@! TO.P,J11,1*
G04 #@! TO.N,Net-(F11-Pad1)*
X139550000Y-147320000D03*
G04 #@! TO.P,J11,2*
G04 #@! TO.N,GND*
X147470000Y-147320000D03*
G04 #@! TD*
G04 #@! TO.P,J12,2*
G04 #@! TO.N,GND*
X147470000Y-161290000D03*
G04 #@! TO.P,J12,1*
G04 #@! TO.N,Net-(F12-Pad1)*
X139550000Y-161290000D03*
G04 #@! TD*
D16*
G04 #@! TO.P,U1,1*
G04 #@! TO.N,+12V*
X67310000Y-80010000D03*
D17*
G04 #@! TO.P,U1,2*
G04 #@! TO.N,GND*
X69850000Y-80010000D03*
G04 #@! TO.P,U1,3*
G04 #@! TO.N,+5V*
X72390000Y-80010000D03*
G04 #@! TD*
D18*
G04 #@! TO.P,SW1,1*
G04 #@! TO.N,Net-(K1-Pad6)*
X52110000Y-46395000D03*
G04 #@! TO.P,SW1,2*
G04 #@! TO.N,/Vbat*
X57110000Y-46395000D03*
G04 #@! TO.P,SW1,1*
G04 #@! TO.N,Net-(K1-Pad6)*
X52110000Y-51395000D03*
G04 #@! TO.P,SW1,2*
G04 #@! TO.N,/Vbat*
X57110000Y-51395000D03*
G04 #@! TD*
D10*
G04 #@! TO.P,J15,1*
G04 #@! TO.N,+5V*
X56515000Y-67945000D03*
D11*
G04 #@! TO.P,J15,2*
X56515000Y-70485000D03*
G04 #@! TO.P,J15,3*
X56515000Y-73025000D03*
G04 #@! TO.P,J15,4*
X56515000Y-75565000D03*
G04 #@! TO.P,J15,5*
X56515000Y-78105000D03*
G04 #@! TO.P,J15,6*
X56515000Y-80645000D03*
G04 #@! TO.P,J15,7*
X56515000Y-83185000D03*
G04 #@! TD*
D19*
G04 #@! TO.N,/MISO*
X69850000Y-64770000D03*
G04 #@! TO.N,GND*
X61722000Y-60198000D03*
X48514000Y-62484000D03*
X57150000Y-61214000D03*
X146050000Y-77470000D03*
X146050000Y-80010000D03*
X146050000Y-74930000D03*
G04 #@! TO.N,/Battery_Control*
X65278000Y-48514000D03*
X60706000Y-57658000D03*
G04 #@! TD*
D20*
G04 #@! TO.N,/MISO*
X68159999Y-69000001D02*
X67310000Y-69850000D01*
X68580000Y-68580000D02*
X68159999Y-69000001D01*
X68580000Y-66040000D02*
X68580000Y-68580000D01*
X69850000Y-64770000D02*
X68580000Y-66040000D01*
G04 #@! TO.N,/Battery_Control*
X65278000Y-48514000D02*
X60706000Y-53086000D01*
X60706000Y-53086000D02*
X60706000Y-57658000D01*
G04 #@! TD*
D21*
G04 #@! TO.N,GND*
G36*
X151690001Y-166930000D02*
X43890000Y-166930000D01*
X43890000Y-161417000D01*
X46225000Y-161417000D01*
X46225000Y-163667000D01*
X46417088Y-164378691D01*
X46866906Y-164962699D01*
X47505974Y-165330114D01*
X47690355Y-165377695D01*
X47983000Y-165261572D01*
X47983000Y-161417000D01*
X48237000Y-161417000D01*
X48237000Y-165261572D01*
X48529645Y-165377695D01*
X48714026Y-165330114D01*
X49353094Y-164962699D01*
X49802912Y-164378691D01*
X49979169Y-163725654D01*
X54145000Y-163725654D01*
X54254369Y-164275489D01*
X54670991Y-164899009D01*
X55294510Y-165315631D01*
X56030000Y-165461929D01*
X56765489Y-165315631D01*
X57389009Y-164899009D01*
X57805631Y-164275490D01*
X57915000Y-163725655D01*
X57915000Y-160666410D01*
X62195000Y-160666410D01*
X62195000Y-161913590D01*
X62672276Y-163065835D01*
X63554165Y-163947724D01*
X64706410Y-164425000D01*
X65953590Y-164425000D01*
X67105835Y-163947724D01*
X67987724Y-163065835D01*
X68465000Y-161913590D01*
X68465000Y-160666410D01*
X70525000Y-160666410D01*
X70525000Y-161913590D01*
X71002276Y-163065835D01*
X71884165Y-163947724D01*
X73036410Y-164425000D01*
X74283590Y-164425000D01*
X75435835Y-163947724D01*
X76317724Y-163065835D01*
X76795000Y-161913590D01*
X76795000Y-160666410D01*
X83225000Y-160666410D01*
X83225000Y-161913590D01*
X83702276Y-163065835D01*
X84584165Y-163947724D01*
X85736410Y-164425000D01*
X86983590Y-164425000D01*
X88135835Y-163947724D01*
X89017724Y-163065835D01*
X89495000Y-161913590D01*
X89495000Y-160666410D01*
X91555000Y-160666410D01*
X91555000Y-161913590D01*
X92032276Y-163065835D01*
X92914165Y-163947724D01*
X94066410Y-164425000D01*
X95313590Y-164425000D01*
X96465835Y-163947724D01*
X97347724Y-163065835D01*
X97790000Y-161998087D01*
X98232276Y-163065835D01*
X99114165Y-163947724D01*
X100266410Y-164425000D01*
X101513590Y-164425000D01*
X102665835Y-163947724D01*
X103547724Y-163065835D01*
X104025000Y-161913590D01*
X104025000Y-160666410D01*
X106085000Y-160666410D01*
X106085000Y-161913590D01*
X106562276Y-163065835D01*
X107444165Y-163947724D01*
X108596410Y-164425000D01*
X109843590Y-164425000D01*
X110995835Y-163947724D01*
X111877724Y-163065835D01*
X112355000Y-161913590D01*
X112355000Y-160666410D01*
X118785000Y-160666410D01*
X118785000Y-161913590D01*
X119262276Y-163065835D01*
X120144165Y-163947724D01*
X121296410Y-164425000D01*
X122543590Y-164425000D01*
X123695835Y-163947724D01*
X124577724Y-163065835D01*
X125055000Y-161913590D01*
X125055000Y-160666410D01*
X127115000Y-160666410D01*
X127115000Y-161913590D01*
X127592276Y-163065835D01*
X128474165Y-163947724D01*
X129626410Y-164425000D01*
X130873590Y-164425000D01*
X132025835Y-163947724D01*
X132907724Y-163065835D01*
X133385000Y-161913590D01*
X133385000Y-160666410D01*
X132907724Y-159514165D01*
X132247905Y-158854346D01*
X137665000Y-158854346D01*
X137665001Y-163725655D01*
X137774370Y-164275490D01*
X138190992Y-164899009D01*
X138814511Y-165315631D01*
X139550000Y-165461929D01*
X140285490Y-165315631D01*
X140909009Y-164899009D01*
X141325631Y-164275490D01*
X141435000Y-163725655D01*
X141435000Y-161417000D01*
X145585000Y-161417000D01*
X145585000Y-163667000D01*
X145777088Y-164378691D01*
X146226906Y-164962699D01*
X146865974Y-165330114D01*
X147050355Y-165377695D01*
X147343000Y-165261572D01*
X147343000Y-161417000D01*
X147597000Y-161417000D01*
X147597000Y-165261572D01*
X147889645Y-165377695D01*
X148074026Y-165330114D01*
X148713094Y-164962699D01*
X149162912Y-164378691D01*
X149355000Y-163667000D01*
X149355000Y-161417000D01*
X147597000Y-161417000D01*
X147343000Y-161417000D01*
X145585000Y-161417000D01*
X141435000Y-161417000D01*
X141435000Y-158913000D01*
X145585000Y-158913000D01*
X145585000Y-161163000D01*
X147343000Y-161163000D01*
X147343000Y-157318428D01*
X147597000Y-157318428D01*
X147597000Y-161163000D01*
X149355000Y-161163000D01*
X149355000Y-158913000D01*
X149162912Y-158201309D01*
X148713094Y-157617301D01*
X148074026Y-157249886D01*
X147889645Y-157202305D01*
X147597000Y-157318428D01*
X147343000Y-157318428D01*
X147050355Y-157202305D01*
X146865974Y-157249886D01*
X146226906Y-157617301D01*
X145777088Y-158201309D01*
X145585000Y-158913000D01*
X141435000Y-158913000D01*
X141435000Y-158854345D01*
X141325631Y-158304510D01*
X140909009Y-157680991D01*
X140285489Y-157264369D01*
X139550000Y-157118071D01*
X138814510Y-157264369D01*
X138190991Y-157680991D01*
X137774369Y-158304511D01*
X137665000Y-158854346D01*
X132247905Y-158854346D01*
X132025835Y-158632276D01*
X130873590Y-158155000D01*
X129626410Y-158155000D01*
X128474165Y-158632276D01*
X127592276Y-159514165D01*
X127115000Y-160666410D01*
X125055000Y-160666410D01*
X124577724Y-159514165D01*
X123695835Y-158632276D01*
X122543590Y-158155000D01*
X121296410Y-158155000D01*
X120144165Y-158632276D01*
X119262276Y-159514165D01*
X118785000Y-160666410D01*
X112355000Y-160666410D01*
X111877724Y-159514165D01*
X110995835Y-158632276D01*
X109843590Y-158155000D01*
X108596410Y-158155000D01*
X107444165Y-158632276D01*
X106562276Y-159514165D01*
X106085000Y-160666410D01*
X104025000Y-160666410D01*
X103547724Y-159514165D01*
X102665835Y-158632276D01*
X101513590Y-158155000D01*
X100266410Y-158155000D01*
X99114165Y-158632276D01*
X98232276Y-159514165D01*
X97790000Y-160581913D01*
X97347724Y-159514165D01*
X96465835Y-158632276D01*
X95313590Y-158155000D01*
X94066410Y-158155000D01*
X92914165Y-158632276D01*
X92032276Y-159514165D01*
X91555000Y-160666410D01*
X89495000Y-160666410D01*
X89017724Y-159514165D01*
X88135835Y-158632276D01*
X86983590Y-158155000D01*
X85736410Y-158155000D01*
X84584165Y-158632276D01*
X83702276Y-159514165D01*
X83225000Y-160666410D01*
X76795000Y-160666410D01*
X76317724Y-159514165D01*
X75435835Y-158632276D01*
X74283590Y-158155000D01*
X73036410Y-158155000D01*
X71884165Y-158632276D01*
X71002276Y-159514165D01*
X70525000Y-160666410D01*
X68465000Y-160666410D01*
X67987724Y-159514165D01*
X67105835Y-158632276D01*
X65953590Y-158155000D01*
X64706410Y-158155000D01*
X63554165Y-158632276D01*
X62672276Y-159514165D01*
X62195000Y-160666410D01*
X57915000Y-160666410D01*
X57915000Y-158854345D01*
X57805631Y-158304510D01*
X57389009Y-157680991D01*
X56765490Y-157264369D01*
X56030000Y-157118071D01*
X55294511Y-157264369D01*
X54670992Y-157680991D01*
X54254370Y-158304510D01*
X54145001Y-158854345D01*
X54145000Y-163725654D01*
X49979169Y-163725654D01*
X49995000Y-163667000D01*
X49995000Y-161417000D01*
X48237000Y-161417000D01*
X47983000Y-161417000D01*
X46225000Y-161417000D01*
X43890000Y-161417000D01*
X43890000Y-158913000D01*
X46225000Y-158913000D01*
X46225000Y-161163000D01*
X47983000Y-161163000D01*
X47983000Y-157318428D01*
X48237000Y-157318428D01*
X48237000Y-161163000D01*
X49995000Y-161163000D01*
X49995000Y-158913000D01*
X49802912Y-158201309D01*
X49353094Y-157617301D01*
X48714026Y-157249886D01*
X48529645Y-157202305D01*
X48237000Y-157318428D01*
X47983000Y-157318428D01*
X47690355Y-157202305D01*
X47505974Y-157249886D01*
X46866906Y-157617301D01*
X46417088Y-158201309D01*
X46225000Y-158913000D01*
X43890000Y-158913000D01*
X43890000Y-147447000D01*
X46225000Y-147447000D01*
X46225000Y-149697000D01*
X46417088Y-150408691D01*
X46866906Y-150992699D01*
X47505974Y-151360114D01*
X47690355Y-151407695D01*
X47983000Y-151291572D01*
X47983000Y-147447000D01*
X48237000Y-147447000D01*
X48237000Y-151291572D01*
X48529645Y-151407695D01*
X48714026Y-151360114D01*
X49353094Y-150992699D01*
X49802912Y-150408691D01*
X49979169Y-149755654D01*
X54145000Y-149755654D01*
X54254369Y-150305489D01*
X54670991Y-150929009D01*
X55294510Y-151345631D01*
X56030000Y-151491929D01*
X56765489Y-151345631D01*
X57389009Y-150929009D01*
X57805631Y-150305490D01*
X57915000Y-149755655D01*
X57915000Y-146696410D01*
X62195000Y-146696410D01*
X62195000Y-147943590D01*
X62672276Y-149095835D01*
X63554165Y-149977724D01*
X64706410Y-150455000D01*
X65953590Y-150455000D01*
X67105835Y-149977724D01*
X67987724Y-149095835D01*
X68465000Y-147943590D01*
X68465000Y-146696410D01*
X70525000Y-146696410D01*
X70525000Y-147943590D01*
X71002276Y-149095835D01*
X71884165Y-149977724D01*
X73036410Y-150455000D01*
X74283590Y-150455000D01*
X75435835Y-149977724D01*
X76317724Y-149095835D01*
X76795000Y-147943590D01*
X76795000Y-146696410D01*
X83225000Y-146696410D01*
X83225000Y-147943590D01*
X83702276Y-149095835D01*
X84584165Y-149977724D01*
X85736410Y-150455000D01*
X86983590Y-150455000D01*
X88135835Y-149977724D01*
X89017724Y-149095835D01*
X89495000Y-147943590D01*
X89495000Y-146696410D01*
X91555000Y-146696410D01*
X91555000Y-147943590D01*
X92032276Y-149095835D01*
X92914165Y-149977724D01*
X94066410Y-150455000D01*
X95313590Y-150455000D01*
X96465835Y-149977724D01*
X97347724Y-149095835D01*
X97790000Y-148028087D01*
X98232276Y-149095835D01*
X99114165Y-149977724D01*
X100266410Y-150455000D01*
X101513590Y-150455000D01*
X102665835Y-149977724D01*
X103547724Y-149095835D01*
X104025000Y-147943590D01*
X104025000Y-146696410D01*
X106085000Y-146696410D01*
X106085000Y-147943590D01*
X106562276Y-149095835D01*
X107444165Y-149977724D01*
X108596410Y-150455000D01*
X109843590Y-150455000D01*
X110995835Y-149977724D01*
X111877724Y-149095835D01*
X112355000Y-147943590D01*
X112355000Y-146696410D01*
X118785000Y-146696410D01*
X118785000Y-147943590D01*
X119262276Y-149095835D01*
X120144165Y-149977724D01*
X121296410Y-150455000D01*
X122543590Y-150455000D01*
X123695835Y-149977724D01*
X124577724Y-149095835D01*
X125055000Y-147943590D01*
X125055000Y-146696410D01*
X127115000Y-146696410D01*
X127115000Y-147943590D01*
X127592276Y-149095835D01*
X128474165Y-149977724D01*
X129626410Y-150455000D01*
X130873590Y-150455000D01*
X132025835Y-149977724D01*
X132907724Y-149095835D01*
X133385000Y-147943590D01*
X133385000Y-146696410D01*
X132907724Y-145544165D01*
X132247905Y-144884346D01*
X137665000Y-144884346D01*
X137665001Y-149755655D01*
X137774370Y-150305490D01*
X138190992Y-150929009D01*
X138814511Y-151345631D01*
X139550000Y-151491929D01*
X140285490Y-151345631D01*
X140909009Y-150929009D01*
X141325631Y-150305490D01*
X141435000Y-149755655D01*
X141435000Y-147447000D01*
X145585000Y-147447000D01*
X145585000Y-149697000D01*
X145777088Y-150408691D01*
X146226906Y-150992699D01*
X146865974Y-151360114D01*
X147050355Y-151407695D01*
X147343000Y-151291572D01*
X147343000Y-147447000D01*
X147597000Y-147447000D01*
X147597000Y-151291572D01*
X147889645Y-151407695D01*
X148074026Y-151360114D01*
X148713094Y-150992699D01*
X149162912Y-150408691D01*
X149355000Y-149697000D01*
X149355000Y-147447000D01*
X147597000Y-147447000D01*
X147343000Y-147447000D01*
X145585000Y-147447000D01*
X141435000Y-147447000D01*
X141435000Y-144943000D01*
X145585000Y-144943000D01*
X145585000Y-147193000D01*
X147343000Y-147193000D01*
X147343000Y-143348428D01*
X147597000Y-143348428D01*
X147597000Y-147193000D01*
X149355000Y-147193000D01*
X149355000Y-144943000D01*
X149162912Y-144231309D01*
X148713094Y-143647301D01*
X148074026Y-143279886D01*
X147889645Y-143232305D01*
X147597000Y-143348428D01*
X147343000Y-143348428D01*
X147050355Y-143232305D01*
X146865974Y-143279886D01*
X146226906Y-143647301D01*
X145777088Y-144231309D01*
X145585000Y-144943000D01*
X141435000Y-144943000D01*
X141435000Y-144884345D01*
X141325631Y-144334510D01*
X140909009Y-143710991D01*
X140285489Y-143294369D01*
X139550000Y-143148071D01*
X138814510Y-143294369D01*
X138190991Y-143710991D01*
X137774369Y-144334511D01*
X137665000Y-144884346D01*
X132247905Y-144884346D01*
X132025835Y-144662276D01*
X130873590Y-144185000D01*
X129626410Y-144185000D01*
X128474165Y-144662276D01*
X127592276Y-145544165D01*
X127115000Y-146696410D01*
X125055000Y-146696410D01*
X124577724Y-145544165D01*
X123695835Y-144662276D01*
X122543590Y-144185000D01*
X121296410Y-144185000D01*
X120144165Y-144662276D01*
X119262276Y-145544165D01*
X118785000Y-146696410D01*
X112355000Y-146696410D01*
X111877724Y-145544165D01*
X110995835Y-144662276D01*
X109843590Y-144185000D01*
X108596410Y-144185000D01*
X107444165Y-144662276D01*
X106562276Y-145544165D01*
X106085000Y-146696410D01*
X104025000Y-146696410D01*
X103547724Y-145544165D01*
X102665835Y-144662276D01*
X101513590Y-144185000D01*
X100266410Y-144185000D01*
X99114165Y-144662276D01*
X98232276Y-145544165D01*
X97790000Y-146611913D01*
X97347724Y-145544165D01*
X96465835Y-144662276D01*
X95313590Y-144185000D01*
X94066410Y-144185000D01*
X92914165Y-144662276D01*
X92032276Y-145544165D01*
X91555000Y-146696410D01*
X89495000Y-146696410D01*
X89017724Y-145544165D01*
X88135835Y-144662276D01*
X86983590Y-144185000D01*
X85736410Y-144185000D01*
X84584165Y-144662276D01*
X83702276Y-145544165D01*
X83225000Y-146696410D01*
X76795000Y-146696410D01*
X76317724Y-145544165D01*
X75435835Y-144662276D01*
X74283590Y-144185000D01*
X73036410Y-144185000D01*
X71884165Y-144662276D01*
X71002276Y-145544165D01*
X70525000Y-146696410D01*
X68465000Y-146696410D01*
X67987724Y-145544165D01*
X67105835Y-144662276D01*
X65953590Y-144185000D01*
X64706410Y-144185000D01*
X63554165Y-144662276D01*
X62672276Y-145544165D01*
X62195000Y-146696410D01*
X57915000Y-146696410D01*
X57915000Y-144884345D01*
X57805631Y-144334510D01*
X57389009Y-143710991D01*
X56765490Y-143294369D01*
X56030000Y-143148071D01*
X55294511Y-143294369D01*
X54670992Y-143710991D01*
X54254370Y-144334510D01*
X54145001Y-144884345D01*
X54145000Y-149755654D01*
X49979169Y-149755654D01*
X49995000Y-149697000D01*
X49995000Y-147447000D01*
X48237000Y-147447000D01*
X47983000Y-147447000D01*
X46225000Y-147447000D01*
X43890000Y-147447000D01*
X43890000Y-144943000D01*
X46225000Y-144943000D01*
X46225000Y-147193000D01*
X47983000Y-147193000D01*
X47983000Y-143348428D01*
X48237000Y-143348428D01*
X48237000Y-147193000D01*
X49995000Y-147193000D01*
X49995000Y-144943000D01*
X49802912Y-144231309D01*
X49353094Y-143647301D01*
X48714026Y-143279886D01*
X48529645Y-143232305D01*
X48237000Y-143348428D01*
X47983000Y-143348428D01*
X47690355Y-143232305D01*
X47505974Y-143279886D01*
X46866906Y-143647301D01*
X46417088Y-144231309D01*
X46225000Y-144943000D01*
X43890000Y-144943000D01*
X43890000Y-133477000D01*
X46225000Y-133477000D01*
X46225000Y-135727000D01*
X46417088Y-136438691D01*
X46866906Y-137022699D01*
X47505974Y-137390114D01*
X47690355Y-137437695D01*
X47983000Y-137321572D01*
X47983000Y-133477000D01*
X48237000Y-133477000D01*
X48237000Y-137321572D01*
X48529645Y-137437695D01*
X48714026Y-137390114D01*
X49353094Y-137022699D01*
X49802912Y-136438691D01*
X49979169Y-135785654D01*
X54145000Y-135785654D01*
X54254369Y-136335489D01*
X54670991Y-136959009D01*
X55294510Y-137375631D01*
X56030000Y-137521929D01*
X56765489Y-137375631D01*
X57389009Y-136959009D01*
X57805631Y-136335490D01*
X57915000Y-135785655D01*
X57915000Y-132726410D01*
X62195000Y-132726410D01*
X62195000Y-133973590D01*
X62672276Y-135125835D01*
X63554165Y-136007724D01*
X64706410Y-136485000D01*
X65953590Y-136485000D01*
X67105835Y-136007724D01*
X67987724Y-135125835D01*
X68465000Y-133973590D01*
X68465000Y-132726410D01*
X70525000Y-132726410D01*
X70525000Y-133973590D01*
X71002276Y-135125835D01*
X71884165Y-136007724D01*
X73036410Y-136485000D01*
X74283590Y-136485000D01*
X75435835Y-136007724D01*
X76317724Y-135125835D01*
X76795000Y-133973590D01*
X76795000Y-132726410D01*
X83225000Y-132726410D01*
X83225000Y-133973590D01*
X83702276Y-135125835D01*
X84584165Y-136007724D01*
X85736410Y-136485000D01*
X86983590Y-136485000D01*
X88135835Y-136007724D01*
X89017724Y-135125835D01*
X89495000Y-133973590D01*
X89495000Y-132726410D01*
X91555000Y-132726410D01*
X91555000Y-133973590D01*
X92032276Y-135125835D01*
X92914165Y-136007724D01*
X94066410Y-136485000D01*
X95313590Y-136485000D01*
X96465835Y-136007724D01*
X97347724Y-135125835D01*
X97790000Y-134058087D01*
X98232276Y-135125835D01*
X99114165Y-136007724D01*
X100266410Y-136485000D01*
X101513590Y-136485000D01*
X102665835Y-136007724D01*
X103547724Y-135125835D01*
X104025000Y-133973590D01*
X104025000Y-132726410D01*
X106085000Y-132726410D01*
X106085000Y-133973590D01*
X106562276Y-135125835D01*
X107444165Y-136007724D01*
X108596410Y-136485000D01*
X109843590Y-136485000D01*
X110995835Y-136007724D01*
X111877724Y-135125835D01*
X112355000Y-133973590D01*
X112355000Y-132726410D01*
X118785000Y-132726410D01*
X118785000Y-133973590D01*
X119262276Y-135125835D01*
X120144165Y-136007724D01*
X121296410Y-136485000D01*
X122543590Y-136485000D01*
X123695835Y-136007724D01*
X124577724Y-135125835D01*
X125055000Y-133973590D01*
X125055000Y-132726410D01*
X127115000Y-132726410D01*
X127115000Y-133973590D01*
X127592276Y-135125835D01*
X128474165Y-136007724D01*
X129626410Y-136485000D01*
X130873590Y-136485000D01*
X132025835Y-136007724D01*
X132907724Y-135125835D01*
X133385000Y-133973590D01*
X133385000Y-132726410D01*
X132907724Y-131574165D01*
X132247905Y-130914346D01*
X137665000Y-130914346D01*
X137665001Y-135785655D01*
X137774370Y-136335490D01*
X138190992Y-136959009D01*
X138814511Y-137375631D01*
X139550000Y-137521929D01*
X140285490Y-137375631D01*
X140909009Y-136959009D01*
X141325631Y-136335490D01*
X141435000Y-135785655D01*
X141435000Y-133477000D01*
X145585000Y-133477000D01*
X145585000Y-135727000D01*
X145777088Y-136438691D01*
X146226906Y-137022699D01*
X146865974Y-137390114D01*
X147050355Y-137437695D01*
X147343000Y-137321572D01*
X147343000Y-133477000D01*
X147597000Y-133477000D01*
X147597000Y-137321572D01*
X147889645Y-137437695D01*
X148074026Y-137390114D01*
X148713094Y-137022699D01*
X149162912Y-136438691D01*
X149355000Y-135727000D01*
X149355000Y-133477000D01*
X147597000Y-133477000D01*
X147343000Y-133477000D01*
X145585000Y-133477000D01*
X141435000Y-133477000D01*
X141435000Y-130973000D01*
X145585000Y-130973000D01*
X145585000Y-133223000D01*
X147343000Y-133223000D01*
X147343000Y-129378428D01*
X147597000Y-129378428D01*
X147597000Y-133223000D01*
X149355000Y-133223000D01*
X149355000Y-130973000D01*
X149162912Y-130261309D01*
X148713094Y-129677301D01*
X148074026Y-129309886D01*
X147889645Y-129262305D01*
X147597000Y-129378428D01*
X147343000Y-129378428D01*
X147050355Y-129262305D01*
X146865974Y-129309886D01*
X146226906Y-129677301D01*
X145777088Y-130261309D01*
X145585000Y-130973000D01*
X141435000Y-130973000D01*
X141435000Y-130914345D01*
X141325631Y-130364510D01*
X140909009Y-129740991D01*
X140285489Y-129324369D01*
X139550000Y-129178071D01*
X138814510Y-129324369D01*
X138190991Y-129740991D01*
X137774369Y-130364511D01*
X137665000Y-130914346D01*
X132247905Y-130914346D01*
X132025835Y-130692276D01*
X130873590Y-130215000D01*
X129626410Y-130215000D01*
X128474165Y-130692276D01*
X127592276Y-131574165D01*
X127115000Y-132726410D01*
X125055000Y-132726410D01*
X124577724Y-131574165D01*
X123695835Y-130692276D01*
X122543590Y-130215000D01*
X121296410Y-130215000D01*
X120144165Y-130692276D01*
X119262276Y-131574165D01*
X118785000Y-132726410D01*
X112355000Y-132726410D01*
X111877724Y-131574165D01*
X110995835Y-130692276D01*
X109843590Y-130215000D01*
X108596410Y-130215000D01*
X107444165Y-130692276D01*
X106562276Y-131574165D01*
X106085000Y-132726410D01*
X104025000Y-132726410D01*
X103547724Y-131574165D01*
X102665835Y-130692276D01*
X101513590Y-130215000D01*
X100266410Y-130215000D01*
X99114165Y-130692276D01*
X98232276Y-131574165D01*
X97790000Y-132641913D01*
X97347724Y-131574165D01*
X96465835Y-130692276D01*
X95313590Y-130215000D01*
X94066410Y-130215000D01*
X92914165Y-130692276D01*
X92032276Y-131574165D01*
X91555000Y-132726410D01*
X89495000Y-132726410D01*
X89017724Y-131574165D01*
X88135835Y-130692276D01*
X86983590Y-130215000D01*
X85736410Y-130215000D01*
X84584165Y-130692276D01*
X83702276Y-131574165D01*
X83225000Y-132726410D01*
X76795000Y-132726410D01*
X76317724Y-131574165D01*
X75435835Y-130692276D01*
X74283590Y-130215000D01*
X73036410Y-130215000D01*
X71884165Y-130692276D01*
X71002276Y-131574165D01*
X70525000Y-132726410D01*
X68465000Y-132726410D01*
X67987724Y-131574165D01*
X67105835Y-130692276D01*
X65953590Y-130215000D01*
X64706410Y-130215000D01*
X63554165Y-130692276D01*
X62672276Y-131574165D01*
X62195000Y-132726410D01*
X57915000Y-132726410D01*
X57915000Y-130914345D01*
X57805631Y-130364510D01*
X57389009Y-129740991D01*
X56765490Y-129324369D01*
X56030000Y-129178071D01*
X55294511Y-129324369D01*
X54670992Y-129740991D01*
X54254370Y-130364510D01*
X54145001Y-130914345D01*
X54145000Y-135785654D01*
X49979169Y-135785654D01*
X49995000Y-135727000D01*
X49995000Y-133477000D01*
X48237000Y-133477000D01*
X47983000Y-133477000D01*
X46225000Y-133477000D01*
X43890000Y-133477000D01*
X43890000Y-130973000D01*
X46225000Y-130973000D01*
X46225000Y-133223000D01*
X47983000Y-133223000D01*
X47983000Y-129378428D01*
X48237000Y-129378428D01*
X48237000Y-133223000D01*
X49995000Y-133223000D01*
X49995000Y-130973000D01*
X49802912Y-130261309D01*
X49353094Y-129677301D01*
X48714026Y-129309886D01*
X48529645Y-129262305D01*
X48237000Y-129378428D01*
X47983000Y-129378428D01*
X47690355Y-129262305D01*
X47505974Y-129309886D01*
X46866906Y-129677301D01*
X46417088Y-130261309D01*
X46225000Y-130973000D01*
X43890000Y-130973000D01*
X43890000Y-119507000D01*
X46225000Y-119507000D01*
X46225000Y-121757000D01*
X46417088Y-122468691D01*
X46866906Y-123052699D01*
X47505974Y-123420114D01*
X47690355Y-123467695D01*
X47983000Y-123351572D01*
X47983000Y-119507000D01*
X48237000Y-119507000D01*
X48237000Y-123351572D01*
X48529645Y-123467695D01*
X48714026Y-123420114D01*
X49353094Y-123052699D01*
X49802912Y-122468691D01*
X49979169Y-121815654D01*
X54145000Y-121815654D01*
X54254369Y-122365489D01*
X54670991Y-122989009D01*
X55294510Y-123405631D01*
X56030000Y-123551929D01*
X56765489Y-123405631D01*
X57389009Y-122989009D01*
X57805631Y-122365490D01*
X57915000Y-121815655D01*
X57915000Y-118756410D01*
X62195000Y-118756410D01*
X62195000Y-120003590D01*
X62672276Y-121155835D01*
X63554165Y-122037724D01*
X64706410Y-122515000D01*
X65953590Y-122515000D01*
X67105835Y-122037724D01*
X67987724Y-121155835D01*
X68465000Y-120003590D01*
X68465000Y-118756410D01*
X70525000Y-118756410D01*
X70525000Y-120003590D01*
X71002276Y-121155835D01*
X71884165Y-122037724D01*
X73036410Y-122515000D01*
X74283590Y-122515000D01*
X75435835Y-122037724D01*
X76317724Y-121155835D01*
X76795000Y-120003590D01*
X76795000Y-118756410D01*
X83225000Y-118756410D01*
X83225000Y-120003590D01*
X83702276Y-121155835D01*
X84584165Y-122037724D01*
X85736410Y-122515000D01*
X86983590Y-122515000D01*
X88135835Y-122037724D01*
X89017724Y-121155835D01*
X89495000Y-120003590D01*
X89495000Y-118756410D01*
X91555000Y-118756410D01*
X91555000Y-120003590D01*
X92032276Y-121155835D01*
X92914165Y-122037724D01*
X94066410Y-122515000D01*
X95313590Y-122515000D01*
X96465835Y-122037724D01*
X97347724Y-121155835D01*
X97790000Y-120088087D01*
X98232276Y-121155835D01*
X99114165Y-122037724D01*
X100266410Y-122515000D01*
X101513590Y-122515000D01*
X102665835Y-122037724D01*
X103547724Y-121155835D01*
X104025000Y-120003590D01*
X104025000Y-118756410D01*
X106085000Y-118756410D01*
X106085000Y-120003590D01*
X106562276Y-121155835D01*
X107444165Y-122037724D01*
X108596410Y-122515000D01*
X109843590Y-122515000D01*
X110995835Y-122037724D01*
X111877724Y-121155835D01*
X112355000Y-120003590D01*
X112355000Y-118756410D01*
X118785000Y-118756410D01*
X118785000Y-120003590D01*
X119262276Y-121155835D01*
X120144165Y-122037724D01*
X121296410Y-122515000D01*
X122543590Y-122515000D01*
X123695835Y-122037724D01*
X124577724Y-121155835D01*
X125055000Y-120003590D01*
X125055000Y-118756410D01*
X127115000Y-118756410D01*
X127115000Y-120003590D01*
X127592276Y-121155835D01*
X128474165Y-122037724D01*
X129626410Y-122515000D01*
X130873590Y-122515000D01*
X132025835Y-122037724D01*
X132907724Y-121155835D01*
X133385000Y-120003590D01*
X133385000Y-118756410D01*
X132907724Y-117604165D01*
X132247905Y-116944346D01*
X137665000Y-116944346D01*
X137665001Y-121815655D01*
X137774370Y-122365490D01*
X138190992Y-122989009D01*
X138814511Y-123405631D01*
X139550000Y-123551929D01*
X140285490Y-123405631D01*
X140909009Y-122989009D01*
X141325631Y-122365490D01*
X141435000Y-121815655D01*
X141435000Y-119507000D01*
X145585000Y-119507000D01*
X145585000Y-121757000D01*
X145777088Y-122468691D01*
X146226906Y-123052699D01*
X146865974Y-123420114D01*
X147050355Y-123467695D01*
X147343000Y-123351572D01*
X147343000Y-119507000D01*
X147597000Y-119507000D01*
X147597000Y-123351572D01*
X147889645Y-123467695D01*
X148074026Y-123420114D01*
X148713094Y-123052699D01*
X149162912Y-122468691D01*
X149355000Y-121757000D01*
X149355000Y-119507000D01*
X147597000Y-119507000D01*
X147343000Y-119507000D01*
X145585000Y-119507000D01*
X141435000Y-119507000D01*
X141435000Y-117003000D01*
X145585000Y-117003000D01*
X145585000Y-119253000D01*
X147343000Y-119253000D01*
X147343000Y-115408428D01*
X147597000Y-115408428D01*
X147597000Y-119253000D01*
X149355000Y-119253000D01*
X149355000Y-117003000D01*
X149162912Y-116291309D01*
X148713094Y-115707301D01*
X148074026Y-115339886D01*
X147889645Y-115292305D01*
X147597000Y-115408428D01*
X147343000Y-115408428D01*
X147050355Y-115292305D01*
X146865974Y-115339886D01*
X146226906Y-115707301D01*
X145777088Y-116291309D01*
X145585000Y-117003000D01*
X141435000Y-117003000D01*
X141435000Y-116944345D01*
X141325631Y-116394510D01*
X140909009Y-115770991D01*
X140285489Y-115354369D01*
X139550000Y-115208071D01*
X138814510Y-115354369D01*
X138190991Y-115770991D01*
X137774369Y-116394511D01*
X137665000Y-116944346D01*
X132247905Y-116944346D01*
X132025835Y-116722276D01*
X130873590Y-116245000D01*
X129626410Y-116245000D01*
X128474165Y-116722276D01*
X127592276Y-117604165D01*
X127115000Y-118756410D01*
X125055000Y-118756410D01*
X124577724Y-117604165D01*
X123695835Y-116722276D01*
X122543590Y-116245000D01*
X121296410Y-116245000D01*
X120144165Y-116722276D01*
X119262276Y-117604165D01*
X118785000Y-118756410D01*
X112355000Y-118756410D01*
X111877724Y-117604165D01*
X110995835Y-116722276D01*
X109843590Y-116245000D01*
X108596410Y-116245000D01*
X107444165Y-116722276D01*
X106562276Y-117604165D01*
X106085000Y-118756410D01*
X104025000Y-118756410D01*
X103547724Y-117604165D01*
X102665835Y-116722276D01*
X101513590Y-116245000D01*
X100266410Y-116245000D01*
X99114165Y-116722276D01*
X98232276Y-117604165D01*
X97790000Y-118671913D01*
X97347724Y-117604165D01*
X96465835Y-116722276D01*
X95313590Y-116245000D01*
X94066410Y-116245000D01*
X92914165Y-116722276D01*
X92032276Y-117604165D01*
X91555000Y-118756410D01*
X89495000Y-118756410D01*
X89017724Y-117604165D01*
X88135835Y-116722276D01*
X86983590Y-116245000D01*
X85736410Y-116245000D01*
X84584165Y-116722276D01*
X83702276Y-117604165D01*
X83225000Y-118756410D01*
X76795000Y-118756410D01*
X76317724Y-117604165D01*
X75435835Y-116722276D01*
X74283590Y-116245000D01*
X73036410Y-116245000D01*
X71884165Y-116722276D01*
X71002276Y-117604165D01*
X70525000Y-118756410D01*
X68465000Y-118756410D01*
X67987724Y-117604165D01*
X67105835Y-116722276D01*
X65953590Y-116245000D01*
X64706410Y-116245000D01*
X63554165Y-116722276D01*
X62672276Y-117604165D01*
X62195000Y-118756410D01*
X57915000Y-118756410D01*
X57915000Y-116944345D01*
X57805631Y-116394510D01*
X57389009Y-115770991D01*
X56765490Y-115354369D01*
X56030000Y-115208071D01*
X55294511Y-115354369D01*
X54670992Y-115770991D01*
X54254370Y-116394510D01*
X54145001Y-116944345D01*
X54145000Y-121815654D01*
X49979169Y-121815654D01*
X49995000Y-121757000D01*
X49995000Y-119507000D01*
X48237000Y-119507000D01*
X47983000Y-119507000D01*
X46225000Y-119507000D01*
X43890000Y-119507000D01*
X43890000Y-117003000D01*
X46225000Y-117003000D01*
X46225000Y-119253000D01*
X47983000Y-119253000D01*
X47983000Y-115408428D01*
X48237000Y-115408428D01*
X48237000Y-119253000D01*
X49995000Y-119253000D01*
X49995000Y-117003000D01*
X49802912Y-116291309D01*
X49353094Y-115707301D01*
X48714026Y-115339886D01*
X48529645Y-115292305D01*
X48237000Y-115408428D01*
X47983000Y-115408428D01*
X47690355Y-115292305D01*
X47505974Y-115339886D01*
X46866906Y-115707301D01*
X46417088Y-116291309D01*
X46225000Y-117003000D01*
X43890000Y-117003000D01*
X43890000Y-105537000D01*
X46225000Y-105537000D01*
X46225000Y-107787000D01*
X46417088Y-108498691D01*
X46866906Y-109082699D01*
X47505974Y-109450114D01*
X47690355Y-109497695D01*
X47983000Y-109381572D01*
X47983000Y-105537000D01*
X48237000Y-105537000D01*
X48237000Y-109381572D01*
X48529645Y-109497695D01*
X48714026Y-109450114D01*
X49353094Y-109082699D01*
X49802912Y-108498691D01*
X49979169Y-107845654D01*
X54145000Y-107845654D01*
X54254369Y-108395489D01*
X54670991Y-109019009D01*
X55294510Y-109435631D01*
X56030000Y-109581929D01*
X56765489Y-109435631D01*
X57389009Y-109019009D01*
X57805631Y-108395490D01*
X57915000Y-107845655D01*
X57915000Y-104786410D01*
X62195000Y-104786410D01*
X62195000Y-106033590D01*
X62672276Y-107185835D01*
X63554165Y-108067724D01*
X64706410Y-108545000D01*
X65953590Y-108545000D01*
X67105835Y-108067724D01*
X67987724Y-107185835D01*
X68465000Y-106033590D01*
X68465000Y-104786410D01*
X70525000Y-104786410D01*
X70525000Y-106033590D01*
X71002276Y-107185835D01*
X71884165Y-108067724D01*
X73036410Y-108545000D01*
X74283590Y-108545000D01*
X75435835Y-108067724D01*
X76317724Y-107185835D01*
X76795000Y-106033590D01*
X76795000Y-104786410D01*
X83225000Y-104786410D01*
X83225000Y-106033590D01*
X83702276Y-107185835D01*
X84584165Y-108067724D01*
X85736410Y-108545000D01*
X86983590Y-108545000D01*
X88135835Y-108067724D01*
X89017724Y-107185835D01*
X89495000Y-106033590D01*
X89495000Y-104786410D01*
X91555000Y-104786410D01*
X91555000Y-106033590D01*
X92032276Y-107185835D01*
X92914165Y-108067724D01*
X94066410Y-108545000D01*
X95313590Y-108545000D01*
X96465835Y-108067724D01*
X97347724Y-107185835D01*
X97790000Y-106118087D01*
X98232276Y-107185835D01*
X99114165Y-108067724D01*
X100266410Y-108545000D01*
X101513590Y-108545000D01*
X102665835Y-108067724D01*
X103547724Y-107185835D01*
X104025000Y-106033590D01*
X104025000Y-104786410D01*
X106085000Y-104786410D01*
X106085000Y-106033590D01*
X106562276Y-107185835D01*
X107444165Y-108067724D01*
X108596410Y-108545000D01*
X109843590Y-108545000D01*
X110995835Y-108067724D01*
X111877724Y-107185835D01*
X112355000Y-106033590D01*
X112355000Y-104786410D01*
X118785000Y-104786410D01*
X118785000Y-106033590D01*
X119262276Y-107185835D01*
X120144165Y-108067724D01*
X121296410Y-108545000D01*
X122543590Y-108545000D01*
X123695835Y-108067724D01*
X124577724Y-107185835D01*
X125055000Y-106033590D01*
X125055000Y-104786410D01*
X127115000Y-104786410D01*
X127115000Y-106033590D01*
X127592276Y-107185835D01*
X128474165Y-108067724D01*
X129626410Y-108545000D01*
X130873590Y-108545000D01*
X132025835Y-108067724D01*
X132907724Y-107185835D01*
X133385000Y-106033590D01*
X133385000Y-104786410D01*
X132907724Y-103634165D01*
X132247905Y-102974346D01*
X137665000Y-102974346D01*
X137665001Y-107845655D01*
X137774370Y-108395490D01*
X138190992Y-109019009D01*
X138814511Y-109435631D01*
X139550000Y-109581929D01*
X140285490Y-109435631D01*
X140909009Y-109019009D01*
X141325631Y-108395490D01*
X141435000Y-107845655D01*
X141435000Y-105537000D01*
X145585000Y-105537000D01*
X145585000Y-107787000D01*
X145777088Y-108498691D01*
X146226906Y-109082699D01*
X146865974Y-109450114D01*
X147050355Y-109497695D01*
X147343000Y-109381572D01*
X147343000Y-105537000D01*
X147597000Y-105537000D01*
X147597000Y-109381572D01*
X147889645Y-109497695D01*
X148074026Y-109450114D01*
X148713094Y-109082699D01*
X149162912Y-108498691D01*
X149355000Y-107787000D01*
X149355000Y-105537000D01*
X147597000Y-105537000D01*
X147343000Y-105537000D01*
X145585000Y-105537000D01*
X141435000Y-105537000D01*
X141435000Y-103033000D01*
X145585000Y-103033000D01*
X145585000Y-105283000D01*
X147343000Y-105283000D01*
X147343000Y-101438428D01*
X147597000Y-101438428D01*
X147597000Y-105283000D01*
X149355000Y-105283000D01*
X149355000Y-103033000D01*
X149162912Y-102321309D01*
X148713094Y-101737301D01*
X148074026Y-101369886D01*
X147889645Y-101322305D01*
X147597000Y-101438428D01*
X147343000Y-101438428D01*
X147050355Y-101322305D01*
X146865974Y-101369886D01*
X146226906Y-101737301D01*
X145777088Y-102321309D01*
X145585000Y-103033000D01*
X141435000Y-103033000D01*
X141435000Y-102974345D01*
X141325631Y-102424510D01*
X140909009Y-101800991D01*
X140285489Y-101384369D01*
X139550000Y-101238071D01*
X138814510Y-101384369D01*
X138190991Y-101800991D01*
X137774369Y-102424511D01*
X137665000Y-102974346D01*
X132247905Y-102974346D01*
X132025835Y-102752276D01*
X130873590Y-102275000D01*
X129626410Y-102275000D01*
X128474165Y-102752276D01*
X127592276Y-103634165D01*
X127115000Y-104786410D01*
X125055000Y-104786410D01*
X124577724Y-103634165D01*
X123695835Y-102752276D01*
X122543590Y-102275000D01*
X121296410Y-102275000D01*
X120144165Y-102752276D01*
X119262276Y-103634165D01*
X118785000Y-104786410D01*
X112355000Y-104786410D01*
X111877724Y-103634165D01*
X110995835Y-102752276D01*
X109843590Y-102275000D01*
X108596410Y-102275000D01*
X107444165Y-102752276D01*
X106562276Y-103634165D01*
X106085000Y-104786410D01*
X104025000Y-104786410D01*
X103547724Y-103634165D01*
X102665835Y-102752276D01*
X101513590Y-102275000D01*
X100266410Y-102275000D01*
X99114165Y-102752276D01*
X98232276Y-103634165D01*
X97790000Y-104701913D01*
X97347724Y-103634165D01*
X96465835Y-102752276D01*
X95313590Y-102275000D01*
X94066410Y-102275000D01*
X92914165Y-102752276D01*
X92032276Y-103634165D01*
X91555000Y-104786410D01*
X89495000Y-104786410D01*
X89017724Y-103634165D01*
X88135835Y-102752276D01*
X86983590Y-102275000D01*
X85736410Y-102275000D01*
X84584165Y-102752276D01*
X83702276Y-103634165D01*
X83225000Y-104786410D01*
X76795000Y-104786410D01*
X76317724Y-103634165D01*
X75435835Y-102752276D01*
X74283590Y-102275000D01*
X73036410Y-102275000D01*
X71884165Y-102752276D01*
X71002276Y-103634165D01*
X70525000Y-104786410D01*
X68465000Y-104786410D01*
X67987724Y-103634165D01*
X67105835Y-102752276D01*
X65953590Y-102275000D01*
X64706410Y-102275000D01*
X63554165Y-102752276D01*
X62672276Y-103634165D01*
X62195000Y-104786410D01*
X57915000Y-104786410D01*
X57915000Y-102974345D01*
X57805631Y-102424510D01*
X57389009Y-101800991D01*
X56765490Y-101384369D01*
X56030000Y-101238071D01*
X55294511Y-101384369D01*
X54670992Y-101800991D01*
X54254370Y-102424510D01*
X54145001Y-102974345D01*
X54145000Y-107845654D01*
X49979169Y-107845654D01*
X49995000Y-107787000D01*
X49995000Y-105537000D01*
X48237000Y-105537000D01*
X47983000Y-105537000D01*
X46225000Y-105537000D01*
X43890000Y-105537000D01*
X43890000Y-103033000D01*
X46225000Y-103033000D01*
X46225000Y-105283000D01*
X47983000Y-105283000D01*
X47983000Y-101438428D01*
X48237000Y-101438428D01*
X48237000Y-105283000D01*
X49995000Y-105283000D01*
X49995000Y-103033000D01*
X49802912Y-102321309D01*
X49353094Y-101737301D01*
X48714026Y-101369886D01*
X48529645Y-101322305D01*
X48237000Y-101438428D01*
X47983000Y-101438428D01*
X47690355Y-101322305D01*
X47505974Y-101369886D01*
X46866906Y-101737301D01*
X46417088Y-102321309D01*
X46225000Y-103033000D01*
X43890000Y-103033000D01*
X43890000Y-91567000D01*
X46225000Y-91567000D01*
X46225000Y-93817000D01*
X46417088Y-94528691D01*
X46866906Y-95112699D01*
X47505974Y-95480114D01*
X47690355Y-95527695D01*
X47983000Y-95411572D01*
X47983000Y-91567000D01*
X48237000Y-91567000D01*
X48237000Y-95411572D01*
X48529645Y-95527695D01*
X48714026Y-95480114D01*
X49353094Y-95112699D01*
X49802912Y-94528691D01*
X49979169Y-93875654D01*
X54145000Y-93875654D01*
X54254369Y-94425489D01*
X54670991Y-95049009D01*
X55294510Y-95465631D01*
X56030000Y-95611929D01*
X56765489Y-95465631D01*
X57389009Y-95049009D01*
X57805631Y-94425490D01*
X57915000Y-93875655D01*
X57915000Y-90816410D01*
X62195000Y-90816410D01*
X62195000Y-92063590D01*
X62672276Y-93215835D01*
X63554165Y-94097724D01*
X64706410Y-94575000D01*
X65953590Y-94575000D01*
X67105835Y-94097724D01*
X67987724Y-93215835D01*
X68465000Y-92063590D01*
X68465000Y-90816410D01*
X70525000Y-90816410D01*
X70525000Y-92063590D01*
X71002276Y-93215835D01*
X71884165Y-94097724D01*
X73036410Y-94575000D01*
X74283590Y-94575000D01*
X75435835Y-94097724D01*
X76317724Y-93215835D01*
X76795000Y-92063590D01*
X76795000Y-90816410D01*
X83225000Y-90816410D01*
X83225000Y-92063590D01*
X83702276Y-93215835D01*
X84584165Y-94097724D01*
X85736410Y-94575000D01*
X86983590Y-94575000D01*
X88135835Y-94097724D01*
X89017724Y-93215835D01*
X89495000Y-92063590D01*
X89495000Y-90816410D01*
X91555000Y-90816410D01*
X91555000Y-92063590D01*
X92032276Y-93215835D01*
X92914165Y-94097724D01*
X94066410Y-94575000D01*
X95313590Y-94575000D01*
X96465835Y-94097724D01*
X97347724Y-93215835D01*
X97790000Y-92148087D01*
X98232276Y-93215835D01*
X99114165Y-94097724D01*
X100266410Y-94575000D01*
X101513590Y-94575000D01*
X102665835Y-94097724D01*
X103547724Y-93215835D01*
X104025000Y-92063590D01*
X104025000Y-90816410D01*
X106085000Y-90816410D01*
X106085000Y-92063590D01*
X106562276Y-93215835D01*
X107444165Y-94097724D01*
X108596410Y-94575000D01*
X109843590Y-94575000D01*
X110995835Y-94097724D01*
X111877724Y-93215835D01*
X112355000Y-92063590D01*
X112355000Y-90816410D01*
X118785000Y-90816410D01*
X118785000Y-92063590D01*
X119262276Y-93215835D01*
X120144165Y-94097724D01*
X121296410Y-94575000D01*
X122543590Y-94575000D01*
X123695835Y-94097724D01*
X124577724Y-93215835D01*
X125055000Y-92063590D01*
X125055000Y-90816410D01*
X127115000Y-90816410D01*
X127115000Y-92063590D01*
X127592276Y-93215835D01*
X128474165Y-94097724D01*
X129626410Y-94575000D01*
X130873590Y-94575000D01*
X132025835Y-94097724D01*
X132907724Y-93215835D01*
X133385000Y-92063590D01*
X133385000Y-90816410D01*
X132907724Y-89664165D01*
X132247905Y-89004346D01*
X137665000Y-89004346D01*
X137665001Y-93875655D01*
X137774370Y-94425490D01*
X138190992Y-95049009D01*
X138814511Y-95465631D01*
X139550000Y-95611929D01*
X140285490Y-95465631D01*
X140909009Y-95049009D01*
X141325631Y-94425490D01*
X141435000Y-93875655D01*
X141435000Y-91567000D01*
X145585000Y-91567000D01*
X145585000Y-93817000D01*
X145777088Y-94528691D01*
X146226906Y-95112699D01*
X146865974Y-95480114D01*
X147050355Y-95527695D01*
X147343000Y-95411572D01*
X147343000Y-91567000D01*
X147597000Y-91567000D01*
X147597000Y-95411572D01*
X147889645Y-95527695D01*
X148074026Y-95480114D01*
X148713094Y-95112699D01*
X149162912Y-94528691D01*
X149355000Y-93817000D01*
X149355000Y-91567000D01*
X147597000Y-91567000D01*
X147343000Y-91567000D01*
X145585000Y-91567000D01*
X141435000Y-91567000D01*
X141435000Y-89063000D01*
X145585000Y-89063000D01*
X145585000Y-91313000D01*
X147343000Y-91313000D01*
X147343000Y-87468428D01*
X147597000Y-87468428D01*
X147597000Y-91313000D01*
X149355000Y-91313000D01*
X149355000Y-89063000D01*
X149162912Y-88351309D01*
X148713094Y-87767301D01*
X148074026Y-87399886D01*
X147889645Y-87352305D01*
X147597000Y-87468428D01*
X147343000Y-87468428D01*
X147050355Y-87352305D01*
X146865974Y-87399886D01*
X146226906Y-87767301D01*
X145777088Y-88351309D01*
X145585000Y-89063000D01*
X141435000Y-89063000D01*
X141435000Y-89004345D01*
X141325631Y-88454510D01*
X140909009Y-87830991D01*
X140285489Y-87414369D01*
X139550000Y-87268071D01*
X138814510Y-87414369D01*
X138190991Y-87830991D01*
X137774369Y-88454511D01*
X137665000Y-89004346D01*
X132247905Y-89004346D01*
X132025835Y-88782276D01*
X130873590Y-88305000D01*
X129626410Y-88305000D01*
X128474165Y-88782276D01*
X127592276Y-89664165D01*
X127115000Y-90816410D01*
X125055000Y-90816410D01*
X124577724Y-89664165D01*
X123695835Y-88782276D01*
X122543590Y-88305000D01*
X121296410Y-88305000D01*
X120144165Y-88782276D01*
X119262276Y-89664165D01*
X118785000Y-90816410D01*
X112355000Y-90816410D01*
X111877724Y-89664165D01*
X110995835Y-88782276D01*
X109843590Y-88305000D01*
X108596410Y-88305000D01*
X107444165Y-88782276D01*
X106562276Y-89664165D01*
X106085000Y-90816410D01*
X104025000Y-90816410D01*
X103547724Y-89664165D01*
X102665835Y-88782276D01*
X101513590Y-88305000D01*
X100266410Y-88305000D01*
X99114165Y-88782276D01*
X98232276Y-89664165D01*
X97790000Y-90731913D01*
X97347724Y-89664165D01*
X96465835Y-88782276D01*
X95313590Y-88305000D01*
X94066410Y-88305000D01*
X92914165Y-88782276D01*
X92032276Y-89664165D01*
X91555000Y-90816410D01*
X89495000Y-90816410D01*
X89017724Y-89664165D01*
X88135835Y-88782276D01*
X86983590Y-88305000D01*
X85736410Y-88305000D01*
X84584165Y-88782276D01*
X83702276Y-89664165D01*
X83225000Y-90816410D01*
X76795000Y-90816410D01*
X76317724Y-89664165D01*
X75435835Y-88782276D01*
X74283590Y-88305000D01*
X73036410Y-88305000D01*
X71884165Y-88782276D01*
X71002276Y-89664165D01*
X70525000Y-90816410D01*
X68465000Y-90816410D01*
X67987724Y-89664165D01*
X67105835Y-88782276D01*
X65953590Y-88305000D01*
X64706410Y-88305000D01*
X63554165Y-88782276D01*
X62672276Y-89664165D01*
X62195000Y-90816410D01*
X57915000Y-90816410D01*
X57915000Y-89004345D01*
X57805631Y-88454510D01*
X57389009Y-87830991D01*
X56765490Y-87414369D01*
X56030000Y-87268071D01*
X55294511Y-87414369D01*
X54670992Y-87830991D01*
X54254370Y-88454510D01*
X54145001Y-89004345D01*
X54145000Y-93875654D01*
X49979169Y-93875654D01*
X49995000Y-93817000D01*
X49995000Y-91567000D01*
X48237000Y-91567000D01*
X47983000Y-91567000D01*
X46225000Y-91567000D01*
X43890000Y-91567000D01*
X43890000Y-89063000D01*
X46225000Y-89063000D01*
X46225000Y-91313000D01*
X47983000Y-91313000D01*
X47983000Y-87468428D01*
X48237000Y-87468428D01*
X48237000Y-91313000D01*
X49995000Y-91313000D01*
X49995000Y-89063000D01*
X49802912Y-88351309D01*
X49353094Y-87767301D01*
X48714026Y-87399886D01*
X48529645Y-87352305D01*
X48237000Y-87468428D01*
X47983000Y-87468428D01*
X47690355Y-87352305D01*
X47505974Y-87399886D01*
X46866906Y-87767301D01*
X46417088Y-88351309D01*
X46225000Y-89063000D01*
X43890000Y-89063000D01*
X43890000Y-70485000D01*
X55000908Y-70485000D01*
X55116161Y-71064418D01*
X55444375Y-71555625D01*
X55742761Y-71755000D01*
X55444375Y-71954375D01*
X55116161Y-72445582D01*
X55000908Y-73025000D01*
X55116161Y-73604418D01*
X55444375Y-74095625D01*
X55742761Y-74295000D01*
X55444375Y-74494375D01*
X55116161Y-74985582D01*
X55000908Y-75565000D01*
X55116161Y-76144418D01*
X55444375Y-76635625D01*
X55742761Y-76835000D01*
X55444375Y-77034375D01*
X55116161Y-77525582D01*
X55000908Y-78105000D01*
X55116161Y-78684418D01*
X55444375Y-79175625D01*
X55742761Y-79375000D01*
X55444375Y-79574375D01*
X55116161Y-80065582D01*
X55000908Y-80645000D01*
X55116161Y-81224418D01*
X55444375Y-81715625D01*
X55742761Y-81915000D01*
X55444375Y-82114375D01*
X55116161Y-82605582D01*
X55000908Y-83185000D01*
X55116161Y-83764418D01*
X55444375Y-84255625D01*
X55935582Y-84583839D01*
X56368744Y-84670000D01*
X56661256Y-84670000D01*
X57094418Y-84583839D01*
X57585625Y-84255625D01*
X57913839Y-83764418D01*
X58029092Y-83185000D01*
X57913839Y-82605582D01*
X57585625Y-82114375D01*
X57287239Y-81915000D01*
X57585625Y-81715625D01*
X57913839Y-81224418D01*
X58029092Y-80645000D01*
X57913839Y-80065582D01*
X57585625Y-79574375D01*
X57287239Y-79375000D01*
X57585625Y-79175625D01*
X57796518Y-78860000D01*
X65912560Y-78860000D01*
X65912560Y-81160000D01*
X65961843Y-81407765D01*
X66102191Y-81617809D01*
X66312235Y-81758157D01*
X66560000Y-81807440D01*
X68060000Y-81807440D01*
X68307765Y-81758157D01*
X68517809Y-81617809D01*
X68658157Y-81407765D01*
X68706391Y-81165275D01*
X68960460Y-81479145D01*
X69437316Y-81738173D01*
X69508815Y-81752318D01*
X69723000Y-81629656D01*
X69723000Y-80137000D01*
X69703000Y-80137000D01*
X69703000Y-79883000D01*
X69723000Y-79883000D01*
X69723000Y-78390344D01*
X69977000Y-78390344D01*
X69977000Y-79883000D01*
X69997000Y-79883000D01*
X69997000Y-80137000D01*
X69977000Y-80137000D01*
X69977000Y-81629656D01*
X70191185Y-81752318D01*
X70262684Y-81738173D01*
X70739540Y-81479145D01*
X71080972Y-81057349D01*
X71104258Y-80978684D01*
X71391472Y-81408529D01*
X71849601Y-81714641D01*
X72390000Y-81822133D01*
X72930400Y-81714641D01*
X73388529Y-81408529D01*
X73694641Y-80950400D01*
X73775000Y-80546406D01*
X73775000Y-79473593D01*
X73694641Y-79069600D01*
X73388528Y-78611471D01*
X72930399Y-78305359D01*
X72390000Y-78197867D01*
X71849600Y-78305359D01*
X71391471Y-78611472D01*
X71104258Y-79041317D01*
X71080972Y-78962651D01*
X70739540Y-78540855D01*
X70262684Y-78281827D01*
X70191185Y-78267682D01*
X69977000Y-78390344D01*
X69723000Y-78390344D01*
X69508815Y-78267682D01*
X69437316Y-78281827D01*
X68960460Y-78540855D01*
X68706391Y-78854725D01*
X68658157Y-78612235D01*
X68517809Y-78402191D01*
X68307765Y-78261843D01*
X68060000Y-78212560D01*
X66560000Y-78212560D01*
X66312235Y-78261843D01*
X66102191Y-78402191D01*
X65961843Y-78612235D01*
X65912560Y-78860000D01*
X57796518Y-78860000D01*
X57913839Y-78684418D01*
X58029092Y-78105000D01*
X57913839Y-77525582D01*
X57585625Y-77034375D01*
X57287239Y-76835000D01*
X57585625Y-76635625D01*
X57913839Y-76144418D01*
X58029092Y-75565000D01*
X57913839Y-74985582D01*
X57585625Y-74494375D01*
X57287239Y-74295000D01*
X57585625Y-74095625D01*
X57913839Y-73604418D01*
X58029092Y-73025000D01*
X57913839Y-72445582D01*
X57585625Y-71954375D01*
X57287239Y-71755000D01*
X57585625Y-71555625D01*
X57913839Y-71064418D01*
X58029092Y-70485000D01*
X57973774Y-70206892D01*
X63328514Y-70206892D01*
X63574817Y-70731358D01*
X64003076Y-71121645D01*
X64413110Y-71291476D01*
X64643000Y-71170155D01*
X64643000Y-69977000D01*
X63449181Y-69977000D01*
X63328514Y-70206892D01*
X57973774Y-70206892D01*
X57913839Y-69905582D01*
X57585625Y-69414375D01*
X57567381Y-69402184D01*
X57612765Y-69393157D01*
X57822809Y-69252809D01*
X57963157Y-69042765D01*
X58012440Y-68795000D01*
X58012440Y-67310000D01*
X63255908Y-67310000D01*
X63371161Y-67889418D01*
X63699375Y-68380625D01*
X63999786Y-68581353D01*
X63574817Y-68968642D01*
X63328514Y-69493108D01*
X63449181Y-69723000D01*
X64643000Y-69723000D01*
X64643000Y-69703000D01*
X64897000Y-69703000D01*
X64897000Y-69723000D01*
X64917000Y-69723000D01*
X64917000Y-69977000D01*
X64897000Y-69977000D01*
X64897000Y-71170155D01*
X65126890Y-71291476D01*
X65536924Y-71121645D01*
X65965183Y-70731358D01*
X66026157Y-70601522D01*
X66239375Y-70920625D01*
X66730582Y-71248839D01*
X67163744Y-71335000D01*
X67456256Y-71335000D01*
X67889418Y-71248839D01*
X68380625Y-70920625D01*
X68580000Y-70622239D01*
X68779375Y-70920625D01*
X69270582Y-71248839D01*
X69703744Y-71335000D01*
X69996256Y-71335000D01*
X70429418Y-71248839D01*
X70920625Y-70920625D01*
X71248839Y-70429418D01*
X71364092Y-69850000D01*
X71248839Y-69270582D01*
X70920625Y-68779375D01*
X70902381Y-68767184D01*
X70947765Y-68758157D01*
X71157809Y-68617809D01*
X71298157Y-68407765D01*
X71347440Y-68160000D01*
X71347440Y-66460000D01*
X71298157Y-66212235D01*
X71157809Y-66002191D01*
X70947765Y-65861843D01*
X70700000Y-65812560D01*
X69882242Y-65812560D01*
X69889802Y-65805000D01*
X70055874Y-65805000D01*
X70236940Y-65730000D01*
X79542560Y-65730000D01*
X79542560Y-70730000D01*
X79591843Y-70977765D01*
X79732191Y-71187809D01*
X79942235Y-71328157D01*
X80190000Y-71377440D01*
X102190000Y-71377440D01*
X102437765Y-71328157D01*
X102647809Y-71187809D01*
X102788157Y-70977765D01*
X102837440Y-70730000D01*
X102837440Y-65730000D01*
X105442560Y-65730000D01*
X105442560Y-70730000D01*
X105491843Y-70977765D01*
X105632191Y-71187809D01*
X105842235Y-71328157D01*
X106090000Y-71377440D01*
X128090000Y-71377440D01*
X128337765Y-71328157D01*
X128547809Y-71187809D01*
X128688157Y-70977765D01*
X128737440Y-70730000D01*
X128737440Y-65730000D01*
X128688157Y-65482235D01*
X128547809Y-65272191D01*
X128337765Y-65131843D01*
X128090000Y-65082560D01*
X106090000Y-65082560D01*
X105842235Y-65131843D01*
X105632191Y-65272191D01*
X105491843Y-65482235D01*
X105442560Y-65730000D01*
X102837440Y-65730000D01*
X102788157Y-65482235D01*
X102647809Y-65272191D01*
X102437765Y-65131843D01*
X102190000Y-65082560D01*
X80190000Y-65082560D01*
X79942235Y-65131843D01*
X79732191Y-65272191D01*
X79591843Y-65482235D01*
X79542560Y-65730000D01*
X70236940Y-65730000D01*
X70436280Y-65647431D01*
X70727431Y-65356280D01*
X70885000Y-64975874D01*
X70885000Y-64564126D01*
X70727431Y-64183720D01*
X70436280Y-63892569D01*
X70055874Y-63735000D01*
X69644126Y-63735000D01*
X69263720Y-63892569D01*
X68972569Y-64183720D01*
X68815000Y-64564126D01*
X68815000Y-64730198D01*
X68095530Y-65449669D01*
X68032071Y-65492071D01*
X67864096Y-65743464D01*
X67832972Y-65899933D01*
X67456256Y-65825000D01*
X67163744Y-65825000D01*
X66730582Y-65911161D01*
X66239375Y-66239375D01*
X66040000Y-66537761D01*
X65840625Y-66239375D01*
X65349418Y-65911161D01*
X64916256Y-65825000D01*
X64623744Y-65825000D01*
X64190582Y-65911161D01*
X63699375Y-66239375D01*
X63371161Y-66730582D01*
X63255908Y-67310000D01*
X58012440Y-67310000D01*
X58012440Y-67095000D01*
X57963157Y-66847235D01*
X57822809Y-66637191D01*
X57612765Y-66496843D01*
X57365000Y-66447560D01*
X55665000Y-66447560D01*
X55417235Y-66496843D01*
X55207191Y-66637191D01*
X55066843Y-66847235D01*
X55017560Y-67095000D01*
X55017560Y-68795000D01*
X55066843Y-69042765D01*
X55207191Y-69252809D01*
X55417235Y-69393157D01*
X55462619Y-69402184D01*
X55444375Y-69414375D01*
X55116161Y-69905582D01*
X55000908Y-70485000D01*
X43890000Y-70485000D01*
X43890000Y-57452126D01*
X59671000Y-57452126D01*
X59671000Y-57863874D01*
X59828569Y-58244280D01*
X60119720Y-58535431D01*
X60500126Y-58693000D01*
X60911874Y-58693000D01*
X61292280Y-58535431D01*
X61583431Y-58244280D01*
X61741000Y-57863874D01*
X61741000Y-57452126D01*
X61583431Y-57071720D01*
X61466000Y-56954289D01*
X61466000Y-53400801D01*
X65317803Y-49549000D01*
X65483874Y-49549000D01*
X65864280Y-49391431D01*
X66155431Y-49100280D01*
X66313000Y-48719874D01*
X66313000Y-48308126D01*
X66155431Y-47927720D01*
X65864280Y-47636569D01*
X65483874Y-47479000D01*
X65072126Y-47479000D01*
X64691720Y-47636569D01*
X64400569Y-47927720D01*
X64243000Y-48308126D01*
X64243000Y-48474197D01*
X60221530Y-52495669D01*
X60158071Y-52538071D01*
X59990096Y-52789464D01*
X59946000Y-53011149D01*
X59946000Y-53011153D01*
X59931112Y-53086000D01*
X59946000Y-53160847D01*
X59946001Y-56954288D01*
X59828569Y-57071720D01*
X59671000Y-57452126D01*
X43890000Y-57452126D01*
X43890000Y-51094642D01*
X50600000Y-51094642D01*
X50600000Y-51695358D01*
X50829884Y-52250346D01*
X51254654Y-52675116D01*
X51809642Y-52905000D01*
X52410358Y-52905000D01*
X52965346Y-52675116D01*
X53390116Y-52250346D01*
X53620000Y-51695358D01*
X53620000Y-51094642D01*
X55600000Y-51094642D01*
X55600000Y-51695358D01*
X55829884Y-52250346D01*
X56254654Y-52675116D01*
X56809642Y-52905000D01*
X57410358Y-52905000D01*
X57965346Y-52675116D01*
X58390116Y-52250346D01*
X58620000Y-51695358D01*
X58620000Y-51094642D01*
X58390116Y-50539654D01*
X57965346Y-50114884D01*
X57410358Y-49885000D01*
X56809642Y-49885000D01*
X56254654Y-50114884D01*
X55829884Y-50539654D01*
X55600000Y-51094642D01*
X53620000Y-51094642D01*
X53390116Y-50539654D01*
X52965346Y-50114884D01*
X52410358Y-49885000D01*
X51809642Y-49885000D01*
X51254654Y-50114884D01*
X50829884Y-50539654D01*
X50600000Y-51094642D01*
X43890000Y-51094642D01*
X43890000Y-46094642D01*
X50600000Y-46094642D01*
X50600000Y-46695358D01*
X50829884Y-47250346D01*
X51254654Y-47675116D01*
X51809642Y-47905000D01*
X52410358Y-47905000D01*
X52965346Y-47675116D01*
X53390116Y-47250346D01*
X53620000Y-46695358D01*
X53620000Y-46094642D01*
X55600000Y-46094642D01*
X55600000Y-46695358D01*
X55829884Y-47250346D01*
X56254654Y-47675116D01*
X56809642Y-47905000D01*
X57410358Y-47905000D01*
X57965346Y-47675116D01*
X58390116Y-47250346D01*
X58502097Y-46980000D01*
X86242560Y-46980000D01*
X86242560Y-51980000D01*
X86291843Y-52227765D01*
X86432191Y-52437809D01*
X86642235Y-52578157D01*
X86890000Y-52627440D01*
X89390000Y-52627440D01*
X89637765Y-52578157D01*
X89847809Y-52437809D01*
X89988157Y-52227765D01*
X90037440Y-51980000D01*
X90037440Y-49765750D01*
X118255000Y-49765750D01*
X118255000Y-52106310D01*
X118351673Y-52339699D01*
X118530302Y-52518327D01*
X118763691Y-52615000D01*
X119854250Y-52615000D01*
X120013000Y-52456250D01*
X120013000Y-49607000D01*
X120267000Y-49607000D01*
X120267000Y-52456250D01*
X120425750Y-52615000D01*
X121516309Y-52615000D01*
X121749698Y-52518327D01*
X121928327Y-52339699D01*
X122025000Y-52106310D01*
X122025000Y-49765750D01*
X121866250Y-49607000D01*
X120267000Y-49607000D01*
X120013000Y-49607000D01*
X118413750Y-49607000D01*
X118255000Y-49765750D01*
X90037440Y-49765750D01*
X90037440Y-46980000D01*
X90012316Y-46853690D01*
X118255000Y-46853690D01*
X118255000Y-49194250D01*
X118413750Y-49353000D01*
X120013000Y-49353000D01*
X120013000Y-46503750D01*
X120267000Y-46503750D01*
X120267000Y-49353000D01*
X121866250Y-49353000D01*
X122025000Y-49194250D01*
X122025000Y-46853690D01*
X121928327Y-46620301D01*
X121749698Y-46441673D01*
X121516309Y-46345000D01*
X120425750Y-46345000D01*
X120267000Y-46503750D01*
X120013000Y-46503750D01*
X119854250Y-46345000D01*
X118763691Y-46345000D01*
X118530302Y-46441673D01*
X118351673Y-46620301D01*
X118255000Y-46853690D01*
X90012316Y-46853690D01*
X89988157Y-46732235D01*
X89847809Y-46522191D01*
X89637765Y-46381843D01*
X89390000Y-46332560D01*
X86890000Y-46332560D01*
X86642235Y-46381843D01*
X86432191Y-46522191D01*
X86291843Y-46732235D01*
X86242560Y-46980000D01*
X58502097Y-46980000D01*
X58620000Y-46695358D01*
X58620000Y-46094642D01*
X58390116Y-45539654D01*
X57965346Y-45114884D01*
X57410358Y-44885000D01*
X56809642Y-44885000D01*
X56254654Y-45114884D01*
X55829884Y-45539654D01*
X55600000Y-46094642D01*
X53620000Y-46094642D01*
X53390116Y-45539654D01*
X52965346Y-45114884D01*
X52410358Y-44885000D01*
X51809642Y-44885000D01*
X51254654Y-45114884D01*
X50829884Y-45539654D01*
X50600000Y-46094642D01*
X43890000Y-46094642D01*
X43890000Y-41350000D01*
X151690000Y-41350000D01*
X151690001Y-166930000D01*
X151690001Y-166930000D01*
G37*
X151690001Y-166930000D02*
X43890000Y-166930000D01*
X43890000Y-161417000D01*
X46225000Y-161417000D01*
X46225000Y-163667000D01*
X46417088Y-164378691D01*
X46866906Y-164962699D01*
X47505974Y-165330114D01*
X47690355Y-165377695D01*
X47983000Y-165261572D01*
X47983000Y-161417000D01*
X48237000Y-161417000D01*
X48237000Y-165261572D01*
X48529645Y-165377695D01*
X48714026Y-165330114D01*
X49353094Y-164962699D01*
X49802912Y-164378691D01*
X49979169Y-163725654D01*
X54145000Y-163725654D01*
X54254369Y-164275489D01*
X54670991Y-164899009D01*
X55294510Y-165315631D01*
X56030000Y-165461929D01*
X56765489Y-165315631D01*
X57389009Y-164899009D01*
X57805631Y-164275490D01*
X57915000Y-163725655D01*
X57915000Y-160666410D01*
X62195000Y-160666410D01*
X62195000Y-161913590D01*
X62672276Y-163065835D01*
X63554165Y-163947724D01*
X64706410Y-164425000D01*
X65953590Y-164425000D01*
X67105835Y-163947724D01*
X67987724Y-163065835D01*
X68465000Y-161913590D01*
X68465000Y-160666410D01*
X70525000Y-160666410D01*
X70525000Y-161913590D01*
X71002276Y-163065835D01*
X71884165Y-163947724D01*
X73036410Y-164425000D01*
X74283590Y-164425000D01*
X75435835Y-163947724D01*
X76317724Y-163065835D01*
X76795000Y-161913590D01*
X76795000Y-160666410D01*
X83225000Y-160666410D01*
X83225000Y-161913590D01*
X83702276Y-163065835D01*
X84584165Y-163947724D01*
X85736410Y-164425000D01*
X86983590Y-164425000D01*
X88135835Y-163947724D01*
X89017724Y-163065835D01*
X89495000Y-161913590D01*
X89495000Y-160666410D01*
X91555000Y-160666410D01*
X91555000Y-161913590D01*
X92032276Y-163065835D01*
X92914165Y-163947724D01*
X94066410Y-164425000D01*
X95313590Y-164425000D01*
X96465835Y-163947724D01*
X97347724Y-163065835D01*
X97790000Y-161998087D01*
X98232276Y-163065835D01*
X99114165Y-163947724D01*
X100266410Y-164425000D01*
X101513590Y-164425000D01*
X102665835Y-163947724D01*
X103547724Y-163065835D01*
X104025000Y-161913590D01*
X104025000Y-160666410D01*
X106085000Y-160666410D01*
X106085000Y-161913590D01*
X106562276Y-163065835D01*
X107444165Y-163947724D01*
X108596410Y-164425000D01*
X109843590Y-164425000D01*
X110995835Y-163947724D01*
X111877724Y-163065835D01*
X112355000Y-161913590D01*
X112355000Y-160666410D01*
X118785000Y-160666410D01*
X118785000Y-161913590D01*
X119262276Y-163065835D01*
X120144165Y-163947724D01*
X121296410Y-164425000D01*
X122543590Y-164425000D01*
X123695835Y-163947724D01*
X124577724Y-163065835D01*
X125055000Y-161913590D01*
X125055000Y-160666410D01*
X127115000Y-160666410D01*
X127115000Y-161913590D01*
X127592276Y-163065835D01*
X128474165Y-163947724D01*
X129626410Y-164425000D01*
X130873590Y-164425000D01*
X132025835Y-163947724D01*
X132907724Y-163065835D01*
X133385000Y-161913590D01*
X133385000Y-160666410D01*
X132907724Y-159514165D01*
X132247905Y-158854346D01*
X137665000Y-158854346D01*
X137665001Y-163725655D01*
X137774370Y-164275490D01*
X138190992Y-164899009D01*
X138814511Y-165315631D01*
X139550000Y-165461929D01*
X140285490Y-165315631D01*
X140909009Y-164899009D01*
X141325631Y-164275490D01*
X141435000Y-163725655D01*
X141435000Y-161417000D01*
X145585000Y-161417000D01*
X145585000Y-163667000D01*
X145777088Y-164378691D01*
X146226906Y-164962699D01*
X146865974Y-165330114D01*
X147050355Y-165377695D01*
X147343000Y-165261572D01*
X147343000Y-161417000D01*
X147597000Y-161417000D01*
X147597000Y-165261572D01*
X147889645Y-165377695D01*
X148074026Y-165330114D01*
X148713094Y-164962699D01*
X149162912Y-164378691D01*
X149355000Y-163667000D01*
X149355000Y-161417000D01*
X147597000Y-161417000D01*
X147343000Y-161417000D01*
X145585000Y-161417000D01*
X141435000Y-161417000D01*
X141435000Y-158913000D01*
X145585000Y-158913000D01*
X145585000Y-161163000D01*
X147343000Y-161163000D01*
X147343000Y-157318428D01*
X147597000Y-157318428D01*
X147597000Y-161163000D01*
X149355000Y-161163000D01*
X149355000Y-158913000D01*
X149162912Y-158201309D01*
X148713094Y-157617301D01*
X148074026Y-157249886D01*
X147889645Y-157202305D01*
X147597000Y-157318428D01*
X147343000Y-157318428D01*
X147050355Y-157202305D01*
X146865974Y-157249886D01*
X146226906Y-157617301D01*
X145777088Y-158201309D01*
X145585000Y-158913000D01*
X141435000Y-158913000D01*
X141435000Y-158854345D01*
X141325631Y-158304510D01*
X140909009Y-157680991D01*
X140285489Y-157264369D01*
X139550000Y-157118071D01*
X138814510Y-157264369D01*
X138190991Y-157680991D01*
X137774369Y-158304511D01*
X137665000Y-158854346D01*
X132247905Y-158854346D01*
X132025835Y-158632276D01*
X130873590Y-158155000D01*
X129626410Y-158155000D01*
X128474165Y-158632276D01*
X127592276Y-159514165D01*
X127115000Y-160666410D01*
X125055000Y-160666410D01*
X124577724Y-159514165D01*
X123695835Y-158632276D01*
X122543590Y-158155000D01*
X121296410Y-158155000D01*
X120144165Y-158632276D01*
X119262276Y-159514165D01*
X118785000Y-160666410D01*
X112355000Y-160666410D01*
X111877724Y-159514165D01*
X110995835Y-158632276D01*
X109843590Y-158155000D01*
X108596410Y-158155000D01*
X107444165Y-158632276D01*
X106562276Y-159514165D01*
X106085000Y-160666410D01*
X104025000Y-160666410D01*
X103547724Y-159514165D01*
X102665835Y-158632276D01*
X101513590Y-158155000D01*
X100266410Y-158155000D01*
X99114165Y-158632276D01*
X98232276Y-159514165D01*
X97790000Y-160581913D01*
X97347724Y-159514165D01*
X96465835Y-158632276D01*
X95313590Y-158155000D01*
X94066410Y-158155000D01*
X92914165Y-158632276D01*
X92032276Y-159514165D01*
X91555000Y-160666410D01*
X89495000Y-160666410D01*
X89017724Y-159514165D01*
X88135835Y-158632276D01*
X86983590Y-158155000D01*
X85736410Y-158155000D01*
X84584165Y-158632276D01*
X83702276Y-159514165D01*
X83225000Y-160666410D01*
X76795000Y-160666410D01*
X76317724Y-159514165D01*
X75435835Y-158632276D01*
X74283590Y-158155000D01*
X73036410Y-158155000D01*
X71884165Y-158632276D01*
X71002276Y-159514165D01*
X70525000Y-160666410D01*
X68465000Y-160666410D01*
X67987724Y-159514165D01*
X67105835Y-158632276D01*
X65953590Y-158155000D01*
X64706410Y-158155000D01*
X63554165Y-158632276D01*
X62672276Y-159514165D01*
X62195000Y-160666410D01*
X57915000Y-160666410D01*
X57915000Y-158854345D01*
X57805631Y-158304510D01*
X57389009Y-157680991D01*
X56765490Y-157264369D01*
X56030000Y-157118071D01*
X55294511Y-157264369D01*
X54670992Y-157680991D01*
X54254370Y-158304510D01*
X54145001Y-158854345D01*
X54145000Y-163725654D01*
X49979169Y-163725654D01*
X49995000Y-163667000D01*
X49995000Y-161417000D01*
X48237000Y-161417000D01*
X47983000Y-161417000D01*
X46225000Y-161417000D01*
X43890000Y-161417000D01*
X43890000Y-158913000D01*
X46225000Y-158913000D01*
X46225000Y-161163000D01*
X47983000Y-161163000D01*
X47983000Y-157318428D01*
X48237000Y-157318428D01*
X48237000Y-161163000D01*
X49995000Y-161163000D01*
X49995000Y-158913000D01*
X49802912Y-158201309D01*
X49353094Y-157617301D01*
X48714026Y-157249886D01*
X48529645Y-157202305D01*
X48237000Y-157318428D01*
X47983000Y-157318428D01*
X47690355Y-157202305D01*
X47505974Y-157249886D01*
X46866906Y-157617301D01*
X46417088Y-158201309D01*
X46225000Y-158913000D01*
X43890000Y-158913000D01*
X43890000Y-147447000D01*
X46225000Y-147447000D01*
X46225000Y-149697000D01*
X46417088Y-150408691D01*
X46866906Y-150992699D01*
X47505974Y-151360114D01*
X47690355Y-151407695D01*
X47983000Y-151291572D01*
X47983000Y-147447000D01*
X48237000Y-147447000D01*
X48237000Y-151291572D01*
X48529645Y-151407695D01*
X48714026Y-151360114D01*
X49353094Y-150992699D01*
X49802912Y-150408691D01*
X49979169Y-149755654D01*
X54145000Y-149755654D01*
X54254369Y-150305489D01*
X54670991Y-150929009D01*
X55294510Y-151345631D01*
X56030000Y-151491929D01*
X56765489Y-151345631D01*
X57389009Y-150929009D01*
X57805631Y-150305490D01*
X57915000Y-149755655D01*
X57915000Y-146696410D01*
X62195000Y-146696410D01*
X62195000Y-147943590D01*
X62672276Y-149095835D01*
X63554165Y-149977724D01*
X64706410Y-150455000D01*
X65953590Y-150455000D01*
X67105835Y-149977724D01*
X67987724Y-149095835D01*
X68465000Y-147943590D01*
X68465000Y-146696410D01*
X70525000Y-146696410D01*
X70525000Y-147943590D01*
X71002276Y-149095835D01*
X71884165Y-149977724D01*
X73036410Y-150455000D01*
X74283590Y-150455000D01*
X75435835Y-149977724D01*
X76317724Y-149095835D01*
X76795000Y-147943590D01*
X76795000Y-146696410D01*
X83225000Y-146696410D01*
X83225000Y-147943590D01*
X83702276Y-149095835D01*
X84584165Y-149977724D01*
X85736410Y-150455000D01*
X86983590Y-150455000D01*
X88135835Y-149977724D01*
X89017724Y-149095835D01*
X89495000Y-147943590D01*
X89495000Y-146696410D01*
X91555000Y-146696410D01*
X91555000Y-147943590D01*
X92032276Y-149095835D01*
X92914165Y-149977724D01*
X94066410Y-150455000D01*
X95313590Y-150455000D01*
X96465835Y-149977724D01*
X97347724Y-149095835D01*
X97790000Y-148028087D01*
X98232276Y-149095835D01*
X99114165Y-149977724D01*
X100266410Y-150455000D01*
X101513590Y-150455000D01*
X102665835Y-149977724D01*
X103547724Y-149095835D01*
X104025000Y-147943590D01*
X104025000Y-146696410D01*
X106085000Y-146696410D01*
X106085000Y-147943590D01*
X106562276Y-149095835D01*
X107444165Y-149977724D01*
X108596410Y-150455000D01*
X109843590Y-150455000D01*
X110995835Y-149977724D01*
X111877724Y-149095835D01*
X112355000Y-147943590D01*
X112355000Y-146696410D01*
X118785000Y-146696410D01*
X118785000Y-147943590D01*
X119262276Y-149095835D01*
X120144165Y-149977724D01*
X121296410Y-150455000D01*
X122543590Y-150455000D01*
X123695835Y-149977724D01*
X124577724Y-149095835D01*
X125055000Y-147943590D01*
X125055000Y-146696410D01*
X127115000Y-146696410D01*
X127115000Y-147943590D01*
X127592276Y-149095835D01*
X128474165Y-149977724D01*
X129626410Y-150455000D01*
X130873590Y-150455000D01*
X132025835Y-149977724D01*
X132907724Y-149095835D01*
X133385000Y-147943590D01*
X133385000Y-146696410D01*
X132907724Y-145544165D01*
X132247905Y-144884346D01*
X137665000Y-144884346D01*
X137665001Y-149755655D01*
X137774370Y-150305490D01*
X138190992Y-150929009D01*
X138814511Y-151345631D01*
X139550000Y-151491929D01*
X140285490Y-151345631D01*
X140909009Y-150929009D01*
X141325631Y-150305490D01*
X141435000Y-149755655D01*
X141435000Y-147447000D01*
X145585000Y-147447000D01*
X145585000Y-149697000D01*
X145777088Y-150408691D01*
X146226906Y-150992699D01*
X146865974Y-151360114D01*
X147050355Y-151407695D01*
X147343000Y-151291572D01*
X147343000Y-147447000D01*
X147597000Y-147447000D01*
X147597000Y-151291572D01*
X147889645Y-151407695D01*
X148074026Y-151360114D01*
X148713094Y-150992699D01*
X149162912Y-150408691D01*
X149355000Y-149697000D01*
X149355000Y-147447000D01*
X147597000Y-147447000D01*
X147343000Y-147447000D01*
X145585000Y-147447000D01*
X141435000Y-147447000D01*
X141435000Y-144943000D01*
X145585000Y-144943000D01*
X145585000Y-147193000D01*
X147343000Y-147193000D01*
X147343000Y-143348428D01*
X147597000Y-143348428D01*
X147597000Y-147193000D01*
X149355000Y-147193000D01*
X149355000Y-144943000D01*
X149162912Y-144231309D01*
X148713094Y-143647301D01*
X148074026Y-143279886D01*
X147889645Y-143232305D01*
X147597000Y-143348428D01*
X147343000Y-143348428D01*
X147050355Y-143232305D01*
X146865974Y-143279886D01*
X146226906Y-143647301D01*
X145777088Y-144231309D01*
X145585000Y-144943000D01*
X141435000Y-144943000D01*
X141435000Y-144884345D01*
X141325631Y-144334510D01*
X140909009Y-143710991D01*
X140285489Y-143294369D01*
X139550000Y-143148071D01*
X138814510Y-143294369D01*
X138190991Y-143710991D01*
X137774369Y-144334511D01*
X137665000Y-144884346D01*
X132247905Y-144884346D01*
X132025835Y-144662276D01*
X130873590Y-144185000D01*
X129626410Y-144185000D01*
X128474165Y-144662276D01*
X127592276Y-145544165D01*
X127115000Y-146696410D01*
X125055000Y-146696410D01*
X124577724Y-145544165D01*
X123695835Y-144662276D01*
X122543590Y-144185000D01*
X121296410Y-144185000D01*
X120144165Y-144662276D01*
X119262276Y-145544165D01*
X118785000Y-146696410D01*
X112355000Y-146696410D01*
X111877724Y-145544165D01*
X110995835Y-144662276D01*
X109843590Y-144185000D01*
X108596410Y-144185000D01*
X107444165Y-144662276D01*
X106562276Y-145544165D01*
X106085000Y-146696410D01*
X104025000Y-146696410D01*
X103547724Y-145544165D01*
X102665835Y-144662276D01*
X101513590Y-144185000D01*
X100266410Y-144185000D01*
X99114165Y-144662276D01*
X98232276Y-145544165D01*
X97790000Y-146611913D01*
X97347724Y-145544165D01*
X96465835Y-144662276D01*
X95313590Y-144185000D01*
X94066410Y-144185000D01*
X92914165Y-144662276D01*
X92032276Y-145544165D01*
X91555000Y-146696410D01*
X89495000Y-146696410D01*
X89017724Y-145544165D01*
X88135835Y-144662276D01*
X86983590Y-144185000D01*
X85736410Y-144185000D01*
X84584165Y-144662276D01*
X83702276Y-145544165D01*
X83225000Y-146696410D01*
X76795000Y-146696410D01*
X76317724Y-145544165D01*
X75435835Y-144662276D01*
X74283590Y-144185000D01*
X73036410Y-144185000D01*
X71884165Y-144662276D01*
X71002276Y-145544165D01*
X70525000Y-146696410D01*
X68465000Y-146696410D01*
X67987724Y-145544165D01*
X67105835Y-144662276D01*
X65953590Y-144185000D01*
X64706410Y-144185000D01*
X63554165Y-144662276D01*
X62672276Y-145544165D01*
X62195000Y-146696410D01*
X57915000Y-146696410D01*
X57915000Y-144884345D01*
X57805631Y-144334510D01*
X57389009Y-143710991D01*
X56765490Y-143294369D01*
X56030000Y-143148071D01*
X55294511Y-143294369D01*
X54670992Y-143710991D01*
X54254370Y-144334510D01*
X54145001Y-144884345D01*
X54145000Y-149755654D01*
X49979169Y-149755654D01*
X49995000Y-149697000D01*
X49995000Y-147447000D01*
X48237000Y-147447000D01*
X47983000Y-147447000D01*
X46225000Y-147447000D01*
X43890000Y-147447000D01*
X43890000Y-144943000D01*
X46225000Y-144943000D01*
X46225000Y-147193000D01*
X47983000Y-147193000D01*
X47983000Y-143348428D01*
X48237000Y-143348428D01*
X48237000Y-147193000D01*
X49995000Y-147193000D01*
X49995000Y-144943000D01*
X49802912Y-144231309D01*
X49353094Y-143647301D01*
X48714026Y-143279886D01*
X48529645Y-143232305D01*
X48237000Y-143348428D01*
X47983000Y-143348428D01*
X47690355Y-143232305D01*
X47505974Y-143279886D01*
X46866906Y-143647301D01*
X46417088Y-144231309D01*
X46225000Y-144943000D01*
X43890000Y-144943000D01*
X43890000Y-133477000D01*
X46225000Y-133477000D01*
X46225000Y-135727000D01*
X46417088Y-136438691D01*
X46866906Y-137022699D01*
X47505974Y-137390114D01*
X47690355Y-137437695D01*
X47983000Y-137321572D01*
X47983000Y-133477000D01*
X48237000Y-133477000D01*
X48237000Y-137321572D01*
X48529645Y-137437695D01*
X48714026Y-137390114D01*
X49353094Y-137022699D01*
X49802912Y-136438691D01*
X49979169Y-135785654D01*
X54145000Y-135785654D01*
X54254369Y-136335489D01*
X54670991Y-136959009D01*
X55294510Y-137375631D01*
X56030000Y-137521929D01*
X56765489Y-137375631D01*
X57389009Y-136959009D01*
X57805631Y-136335490D01*
X57915000Y-135785655D01*
X57915000Y-132726410D01*
X62195000Y-132726410D01*
X62195000Y-133973590D01*
X62672276Y-135125835D01*
X63554165Y-136007724D01*
X64706410Y-136485000D01*
X65953590Y-136485000D01*
X67105835Y-136007724D01*
X67987724Y-135125835D01*
X68465000Y-133973590D01*
X68465000Y-132726410D01*
X70525000Y-132726410D01*
X70525000Y-133973590D01*
X71002276Y-135125835D01*
X71884165Y-136007724D01*
X73036410Y-136485000D01*
X74283590Y-136485000D01*
X75435835Y-136007724D01*
X76317724Y-135125835D01*
X76795000Y-133973590D01*
X76795000Y-132726410D01*
X83225000Y-132726410D01*
X83225000Y-133973590D01*
X83702276Y-135125835D01*
X84584165Y-136007724D01*
X85736410Y-136485000D01*
X86983590Y-136485000D01*
X88135835Y-136007724D01*
X89017724Y-135125835D01*
X89495000Y-133973590D01*
X89495000Y-132726410D01*
X91555000Y-132726410D01*
X91555000Y-133973590D01*
X92032276Y-135125835D01*
X92914165Y-136007724D01*
X94066410Y-136485000D01*
X95313590Y-136485000D01*
X96465835Y-136007724D01*
X97347724Y-135125835D01*
X97790000Y-134058087D01*
X98232276Y-135125835D01*
X99114165Y-136007724D01*
X100266410Y-136485000D01*
X101513590Y-136485000D01*
X102665835Y-136007724D01*
X103547724Y-135125835D01*
X104025000Y-133973590D01*
X104025000Y-132726410D01*
X106085000Y-132726410D01*
X106085000Y-133973590D01*
X106562276Y-135125835D01*
X107444165Y-136007724D01*
X108596410Y-136485000D01*
X109843590Y-136485000D01*
X110995835Y-136007724D01*
X111877724Y-135125835D01*
X112355000Y-133973590D01*
X112355000Y-132726410D01*
X118785000Y-132726410D01*
X118785000Y-133973590D01*
X119262276Y-135125835D01*
X120144165Y-136007724D01*
X121296410Y-136485000D01*
X122543590Y-136485000D01*
X123695835Y-136007724D01*
X124577724Y-135125835D01*
X125055000Y-133973590D01*
X125055000Y-132726410D01*
X127115000Y-132726410D01*
X127115000Y-133973590D01*
X127592276Y-135125835D01*
X128474165Y-136007724D01*
X129626410Y-136485000D01*
X130873590Y-136485000D01*
X132025835Y-136007724D01*
X132907724Y-135125835D01*
X133385000Y-133973590D01*
X133385000Y-132726410D01*
X132907724Y-131574165D01*
X132247905Y-130914346D01*
X137665000Y-130914346D01*
X137665001Y-135785655D01*
X137774370Y-136335490D01*
X138190992Y-136959009D01*
X138814511Y-137375631D01*
X139550000Y-137521929D01*
X140285490Y-137375631D01*
X140909009Y-136959009D01*
X141325631Y-136335490D01*
X141435000Y-135785655D01*
X141435000Y-133477000D01*
X145585000Y-133477000D01*
X145585000Y-135727000D01*
X145777088Y-136438691D01*
X146226906Y-137022699D01*
X146865974Y-137390114D01*
X147050355Y-137437695D01*
X147343000Y-137321572D01*
X147343000Y-133477000D01*
X147597000Y-133477000D01*
X147597000Y-137321572D01*
X147889645Y-137437695D01*
X148074026Y-137390114D01*
X148713094Y-137022699D01*
X149162912Y-136438691D01*
X149355000Y-135727000D01*
X149355000Y-133477000D01*
X147597000Y-133477000D01*
X147343000Y-133477000D01*
X145585000Y-133477000D01*
X141435000Y-133477000D01*
X141435000Y-130973000D01*
X145585000Y-130973000D01*
X145585000Y-133223000D01*
X147343000Y-133223000D01*
X147343000Y-129378428D01*
X147597000Y-129378428D01*
X147597000Y-133223000D01*
X149355000Y-133223000D01*
X149355000Y-130973000D01*
X149162912Y-130261309D01*
X148713094Y-129677301D01*
X148074026Y-129309886D01*
X147889645Y-129262305D01*
X147597000Y-129378428D01*
X147343000Y-129378428D01*
X147050355Y-129262305D01*
X146865974Y-129309886D01*
X146226906Y-129677301D01*
X145777088Y-130261309D01*
X145585000Y-130973000D01*
X141435000Y-130973000D01*
X141435000Y-130914345D01*
X141325631Y-130364510D01*
X140909009Y-129740991D01*
X140285489Y-129324369D01*
X139550000Y-129178071D01*
X138814510Y-129324369D01*
X138190991Y-129740991D01*
X137774369Y-130364511D01*
X137665000Y-130914346D01*
X132247905Y-130914346D01*
X132025835Y-130692276D01*
X130873590Y-130215000D01*
X129626410Y-130215000D01*
X128474165Y-130692276D01*
X127592276Y-131574165D01*
X127115000Y-132726410D01*
X125055000Y-132726410D01*
X124577724Y-131574165D01*
X123695835Y-130692276D01*
X122543590Y-130215000D01*
X121296410Y-130215000D01*
X120144165Y-130692276D01*
X119262276Y-131574165D01*
X118785000Y-132726410D01*
X112355000Y-132726410D01*
X111877724Y-131574165D01*
X110995835Y-130692276D01*
X109843590Y-130215000D01*
X108596410Y-130215000D01*
X107444165Y-130692276D01*
X106562276Y-131574165D01*
X106085000Y-132726410D01*
X104025000Y-132726410D01*
X103547724Y-131574165D01*
X102665835Y-130692276D01*
X101513590Y-130215000D01*
X100266410Y-130215000D01*
X99114165Y-130692276D01*
X98232276Y-131574165D01*
X97790000Y-132641913D01*
X97347724Y-131574165D01*
X96465835Y-130692276D01*
X95313590Y-130215000D01*
X94066410Y-130215000D01*
X92914165Y-130692276D01*
X92032276Y-131574165D01*
X91555000Y-132726410D01*
X89495000Y-132726410D01*
X89017724Y-131574165D01*
X88135835Y-130692276D01*
X86983590Y-130215000D01*
X85736410Y-130215000D01*
X84584165Y-130692276D01*
X83702276Y-131574165D01*
X83225000Y-132726410D01*
X76795000Y-132726410D01*
X76317724Y-131574165D01*
X75435835Y-130692276D01*
X74283590Y-130215000D01*
X73036410Y-130215000D01*
X71884165Y-130692276D01*
X71002276Y-131574165D01*
X70525000Y-132726410D01*
X68465000Y-132726410D01*
X67987724Y-131574165D01*
X67105835Y-130692276D01*
X65953590Y-130215000D01*
X64706410Y-130215000D01*
X63554165Y-130692276D01*
X62672276Y-131574165D01*
X62195000Y-132726410D01*
X57915000Y-132726410D01*
X57915000Y-130914345D01*
X57805631Y-130364510D01*
X57389009Y-129740991D01*
X56765490Y-129324369D01*
X56030000Y-129178071D01*
X55294511Y-129324369D01*
X54670992Y-129740991D01*
X54254370Y-130364510D01*
X54145001Y-130914345D01*
X54145000Y-135785654D01*
X49979169Y-135785654D01*
X49995000Y-135727000D01*
X49995000Y-133477000D01*
X48237000Y-133477000D01*
X47983000Y-133477000D01*
X46225000Y-133477000D01*
X43890000Y-133477000D01*
X43890000Y-130973000D01*
X46225000Y-130973000D01*
X46225000Y-133223000D01*
X47983000Y-133223000D01*
X47983000Y-129378428D01*
X48237000Y-129378428D01*
X48237000Y-133223000D01*
X49995000Y-133223000D01*
X49995000Y-130973000D01*
X49802912Y-130261309D01*
X49353094Y-129677301D01*
X48714026Y-129309886D01*
X48529645Y-129262305D01*
X48237000Y-129378428D01*
X47983000Y-129378428D01*
X47690355Y-129262305D01*
X47505974Y-129309886D01*
X46866906Y-129677301D01*
X46417088Y-130261309D01*
X46225000Y-130973000D01*
X43890000Y-130973000D01*
X43890000Y-119507000D01*
X46225000Y-119507000D01*
X46225000Y-121757000D01*
X46417088Y-122468691D01*
X46866906Y-123052699D01*
X47505974Y-123420114D01*
X47690355Y-123467695D01*
X47983000Y-123351572D01*
X47983000Y-119507000D01*
X48237000Y-119507000D01*
X48237000Y-123351572D01*
X48529645Y-123467695D01*
X48714026Y-123420114D01*
X49353094Y-123052699D01*
X49802912Y-122468691D01*
X49979169Y-121815654D01*
X54145000Y-121815654D01*
X54254369Y-122365489D01*
X54670991Y-122989009D01*
X55294510Y-123405631D01*
X56030000Y-123551929D01*
X56765489Y-123405631D01*
X57389009Y-122989009D01*
X57805631Y-122365490D01*
X57915000Y-121815655D01*
X57915000Y-118756410D01*
X62195000Y-118756410D01*
X62195000Y-120003590D01*
X62672276Y-121155835D01*
X63554165Y-122037724D01*
X64706410Y-122515000D01*
X65953590Y-122515000D01*
X67105835Y-122037724D01*
X67987724Y-121155835D01*
X68465000Y-120003590D01*
X68465000Y-118756410D01*
X70525000Y-118756410D01*
X70525000Y-120003590D01*
X71002276Y-121155835D01*
X71884165Y-122037724D01*
X73036410Y-122515000D01*
X74283590Y-122515000D01*
X75435835Y-122037724D01*
X76317724Y-121155835D01*
X76795000Y-120003590D01*
X76795000Y-118756410D01*
X83225000Y-118756410D01*
X83225000Y-120003590D01*
X83702276Y-121155835D01*
X84584165Y-122037724D01*
X85736410Y-122515000D01*
X86983590Y-122515000D01*
X88135835Y-122037724D01*
X89017724Y-121155835D01*
X89495000Y-120003590D01*
X89495000Y-118756410D01*
X91555000Y-118756410D01*
X91555000Y-120003590D01*
X92032276Y-121155835D01*
X92914165Y-122037724D01*
X94066410Y-122515000D01*
X95313590Y-122515000D01*
X96465835Y-122037724D01*
X97347724Y-121155835D01*
X97790000Y-120088087D01*
X98232276Y-121155835D01*
X99114165Y-122037724D01*
X100266410Y-122515000D01*
X101513590Y-122515000D01*
X102665835Y-122037724D01*
X103547724Y-121155835D01*
X104025000Y-120003590D01*
X104025000Y-118756410D01*
X106085000Y-118756410D01*
X106085000Y-120003590D01*
X106562276Y-121155835D01*
X107444165Y-122037724D01*
X108596410Y-122515000D01*
X109843590Y-122515000D01*
X110995835Y-122037724D01*
X111877724Y-121155835D01*
X112355000Y-120003590D01*
X112355000Y-118756410D01*
X118785000Y-118756410D01*
X118785000Y-120003590D01*
X119262276Y-121155835D01*
X120144165Y-122037724D01*
X121296410Y-122515000D01*
X122543590Y-122515000D01*
X123695835Y-122037724D01*
X124577724Y-121155835D01*
X125055000Y-120003590D01*
X125055000Y-118756410D01*
X127115000Y-118756410D01*
X127115000Y-120003590D01*
X127592276Y-121155835D01*
X128474165Y-122037724D01*
X129626410Y-122515000D01*
X130873590Y-122515000D01*
X132025835Y-122037724D01*
X132907724Y-121155835D01*
X133385000Y-120003590D01*
X133385000Y-118756410D01*
X132907724Y-117604165D01*
X132247905Y-116944346D01*
X137665000Y-116944346D01*
X137665001Y-121815655D01*
X137774370Y-122365490D01*
X138190992Y-122989009D01*
X138814511Y-123405631D01*
X139550000Y-123551929D01*
X140285490Y-123405631D01*
X140909009Y-122989009D01*
X141325631Y-122365490D01*
X141435000Y-121815655D01*
X141435000Y-119507000D01*
X145585000Y-119507000D01*
X145585000Y-121757000D01*
X145777088Y-122468691D01*
X146226906Y-123052699D01*
X146865974Y-123420114D01*
X147050355Y-123467695D01*
X147343000Y-123351572D01*
X147343000Y-119507000D01*
X147597000Y-119507000D01*
X147597000Y-123351572D01*
X147889645Y-123467695D01*
X148074026Y-123420114D01*
X148713094Y-123052699D01*
X149162912Y-122468691D01*
X149355000Y-121757000D01*
X149355000Y-119507000D01*
X147597000Y-119507000D01*
X147343000Y-119507000D01*
X145585000Y-119507000D01*
X141435000Y-119507000D01*
X141435000Y-117003000D01*
X145585000Y-117003000D01*
X145585000Y-119253000D01*
X147343000Y-119253000D01*
X147343000Y-115408428D01*
X147597000Y-115408428D01*
X147597000Y-119253000D01*
X149355000Y-119253000D01*
X149355000Y-117003000D01*
X149162912Y-116291309D01*
X148713094Y-115707301D01*
X148074026Y-115339886D01*
X147889645Y-115292305D01*
X147597000Y-115408428D01*
X147343000Y-115408428D01*
X147050355Y-115292305D01*
X146865974Y-115339886D01*
X146226906Y-115707301D01*
X145777088Y-116291309D01*
X145585000Y-117003000D01*
X141435000Y-117003000D01*
X141435000Y-116944345D01*
X141325631Y-116394510D01*
X140909009Y-115770991D01*
X140285489Y-115354369D01*
X139550000Y-115208071D01*
X138814510Y-115354369D01*
X138190991Y-115770991D01*
X137774369Y-116394511D01*
X137665000Y-116944346D01*
X132247905Y-116944346D01*
X132025835Y-116722276D01*
X130873590Y-116245000D01*
X129626410Y-116245000D01*
X128474165Y-116722276D01*
X127592276Y-117604165D01*
X127115000Y-118756410D01*
X125055000Y-118756410D01*
X124577724Y-117604165D01*
X123695835Y-116722276D01*
X122543590Y-116245000D01*
X121296410Y-116245000D01*
X120144165Y-116722276D01*
X119262276Y-117604165D01*
X118785000Y-118756410D01*
X112355000Y-118756410D01*
X111877724Y-117604165D01*
X110995835Y-116722276D01*
X109843590Y-116245000D01*
X108596410Y-116245000D01*
X107444165Y-116722276D01*
X106562276Y-117604165D01*
X106085000Y-118756410D01*
X104025000Y-118756410D01*
X103547724Y-117604165D01*
X102665835Y-116722276D01*
X101513590Y-116245000D01*
X100266410Y-116245000D01*
X99114165Y-116722276D01*
X98232276Y-117604165D01*
X97790000Y-118671913D01*
X97347724Y-117604165D01*
X96465835Y-116722276D01*
X95313590Y-116245000D01*
X94066410Y-116245000D01*
X92914165Y-116722276D01*
X92032276Y-117604165D01*
X91555000Y-118756410D01*
X89495000Y-118756410D01*
X89017724Y-117604165D01*
X88135835Y-116722276D01*
X86983590Y-116245000D01*
X85736410Y-116245000D01*
X84584165Y-116722276D01*
X83702276Y-117604165D01*
X83225000Y-118756410D01*
X76795000Y-118756410D01*
X76317724Y-117604165D01*
X75435835Y-116722276D01*
X74283590Y-116245000D01*
X73036410Y-116245000D01*
X71884165Y-116722276D01*
X71002276Y-117604165D01*
X70525000Y-118756410D01*
X68465000Y-118756410D01*
X67987724Y-117604165D01*
X67105835Y-116722276D01*
X65953590Y-116245000D01*
X64706410Y-116245000D01*
X63554165Y-116722276D01*
X62672276Y-117604165D01*
X62195000Y-118756410D01*
X57915000Y-118756410D01*
X57915000Y-116944345D01*
X57805631Y-116394510D01*
X57389009Y-115770991D01*
X56765490Y-115354369D01*
X56030000Y-115208071D01*
X55294511Y-115354369D01*
X54670992Y-115770991D01*
X54254370Y-116394510D01*
X54145001Y-116944345D01*
X54145000Y-121815654D01*
X49979169Y-121815654D01*
X49995000Y-121757000D01*
X49995000Y-119507000D01*
X48237000Y-119507000D01*
X47983000Y-119507000D01*
X46225000Y-119507000D01*
X43890000Y-119507000D01*
X43890000Y-117003000D01*
X46225000Y-117003000D01*
X46225000Y-119253000D01*
X47983000Y-119253000D01*
X47983000Y-115408428D01*
X48237000Y-115408428D01*
X48237000Y-119253000D01*
X49995000Y-119253000D01*
X49995000Y-117003000D01*
X49802912Y-116291309D01*
X49353094Y-115707301D01*
X48714026Y-115339886D01*
X48529645Y-115292305D01*
X48237000Y-115408428D01*
X47983000Y-115408428D01*
X47690355Y-115292305D01*
X47505974Y-115339886D01*
X46866906Y-115707301D01*
X46417088Y-116291309D01*
X46225000Y-117003000D01*
X43890000Y-117003000D01*
X43890000Y-105537000D01*
X46225000Y-105537000D01*
X46225000Y-107787000D01*
X46417088Y-108498691D01*
X46866906Y-109082699D01*
X47505974Y-109450114D01*
X47690355Y-109497695D01*
X47983000Y-109381572D01*
X47983000Y-105537000D01*
X48237000Y-105537000D01*
X48237000Y-109381572D01*
X48529645Y-109497695D01*
X48714026Y-109450114D01*
X49353094Y-109082699D01*
X49802912Y-108498691D01*
X49979169Y-107845654D01*
X54145000Y-107845654D01*
X54254369Y-108395489D01*
X54670991Y-109019009D01*
X55294510Y-109435631D01*
X56030000Y-109581929D01*
X56765489Y-109435631D01*
X57389009Y-109019009D01*
X57805631Y-108395490D01*
X57915000Y-107845655D01*
X57915000Y-104786410D01*
X62195000Y-104786410D01*
X62195000Y-106033590D01*
X62672276Y-107185835D01*
X63554165Y-108067724D01*
X64706410Y-108545000D01*
X65953590Y-108545000D01*
X67105835Y-108067724D01*
X67987724Y-107185835D01*
X68465000Y-106033590D01*
X68465000Y-104786410D01*
X70525000Y-104786410D01*
X70525000Y-106033590D01*
X71002276Y-107185835D01*
X71884165Y-108067724D01*
X73036410Y-108545000D01*
X74283590Y-108545000D01*
X75435835Y-108067724D01*
X76317724Y-107185835D01*
X76795000Y-106033590D01*
X76795000Y-104786410D01*
X83225000Y-104786410D01*
X83225000Y-106033590D01*
X83702276Y-107185835D01*
X84584165Y-108067724D01*
X85736410Y-108545000D01*
X86983590Y-108545000D01*
X88135835Y-108067724D01*
X89017724Y-107185835D01*
X89495000Y-106033590D01*
X89495000Y-104786410D01*
X91555000Y-104786410D01*
X91555000Y-106033590D01*
X92032276Y-107185835D01*
X92914165Y-108067724D01*
X94066410Y-108545000D01*
X95313590Y-108545000D01*
X96465835Y-108067724D01*
X97347724Y-107185835D01*
X97790000Y-106118087D01*
X98232276Y-107185835D01*
X99114165Y-108067724D01*
X100266410Y-108545000D01*
X101513590Y-108545000D01*
X102665835Y-108067724D01*
X103547724Y-107185835D01*
X104025000Y-106033590D01*
X104025000Y-104786410D01*
X106085000Y-104786410D01*
X106085000Y-106033590D01*
X106562276Y-107185835D01*
X107444165Y-108067724D01*
X108596410Y-108545000D01*
X109843590Y-108545000D01*
X110995835Y-108067724D01*
X111877724Y-107185835D01*
X112355000Y-106033590D01*
X112355000Y-104786410D01*
X118785000Y-104786410D01*
X118785000Y-106033590D01*
X119262276Y-107185835D01*
X120144165Y-108067724D01*
X121296410Y-108545000D01*
X122543590Y-108545000D01*
X123695835Y-108067724D01*
X124577724Y-107185835D01*
X125055000Y-106033590D01*
X125055000Y-104786410D01*
X127115000Y-104786410D01*
X127115000Y-106033590D01*
X127592276Y-107185835D01*
X128474165Y-108067724D01*
X129626410Y-108545000D01*
X130873590Y-108545000D01*
X132025835Y-108067724D01*
X132907724Y-107185835D01*
X133385000Y-106033590D01*
X133385000Y-104786410D01*
X132907724Y-103634165D01*
X132247905Y-102974346D01*
X137665000Y-102974346D01*
X137665001Y-107845655D01*
X137774370Y-108395490D01*
X138190992Y-109019009D01*
X138814511Y-109435631D01*
X139550000Y-109581929D01*
X140285490Y-109435631D01*
X140909009Y-109019009D01*
X141325631Y-108395490D01*
X141435000Y-107845655D01*
X141435000Y-105537000D01*
X145585000Y-105537000D01*
X145585000Y-107787000D01*
X145777088Y-108498691D01*
X146226906Y-109082699D01*
X146865974Y-109450114D01*
X147050355Y-109497695D01*
X147343000Y-109381572D01*
X147343000Y-105537000D01*
X147597000Y-105537000D01*
X147597000Y-109381572D01*
X147889645Y-109497695D01*
X148074026Y-109450114D01*
X148713094Y-109082699D01*
X149162912Y-108498691D01*
X149355000Y-107787000D01*
X149355000Y-105537000D01*
X147597000Y-105537000D01*
X147343000Y-105537000D01*
X145585000Y-105537000D01*
X141435000Y-105537000D01*
X141435000Y-103033000D01*
X145585000Y-103033000D01*
X145585000Y-105283000D01*
X147343000Y-105283000D01*
X147343000Y-101438428D01*
X147597000Y-101438428D01*
X147597000Y-105283000D01*
X149355000Y-105283000D01*
X149355000Y-103033000D01*
X149162912Y-102321309D01*
X148713094Y-101737301D01*
X148074026Y-101369886D01*
X147889645Y-101322305D01*
X147597000Y-101438428D01*
X147343000Y-101438428D01*
X147050355Y-101322305D01*
X146865974Y-101369886D01*
X146226906Y-101737301D01*
X145777088Y-102321309D01*
X145585000Y-103033000D01*
X141435000Y-103033000D01*
X141435000Y-102974345D01*
X141325631Y-102424510D01*
X140909009Y-101800991D01*
X140285489Y-101384369D01*
X139550000Y-101238071D01*
X138814510Y-101384369D01*
X138190991Y-101800991D01*
X137774369Y-102424511D01*
X137665000Y-102974346D01*
X132247905Y-102974346D01*
X132025835Y-102752276D01*
X130873590Y-102275000D01*
X129626410Y-102275000D01*
X128474165Y-102752276D01*
X127592276Y-103634165D01*
X127115000Y-104786410D01*
X125055000Y-104786410D01*
X124577724Y-103634165D01*
X123695835Y-102752276D01*
X122543590Y-102275000D01*
X121296410Y-102275000D01*
X120144165Y-102752276D01*
X119262276Y-103634165D01*
X118785000Y-104786410D01*
X112355000Y-104786410D01*
X111877724Y-103634165D01*
X110995835Y-102752276D01*
X109843590Y-102275000D01*
X108596410Y-102275000D01*
X107444165Y-102752276D01*
X106562276Y-103634165D01*
X106085000Y-104786410D01*
X104025000Y-104786410D01*
X103547724Y-103634165D01*
X102665835Y-102752276D01*
X101513590Y-102275000D01*
X100266410Y-102275000D01*
X99114165Y-102752276D01*
X98232276Y-103634165D01*
X97790000Y-104701913D01*
X97347724Y-103634165D01*
X96465835Y-102752276D01*
X95313590Y-102275000D01*
X94066410Y-102275000D01*
X92914165Y-102752276D01*
X92032276Y-103634165D01*
X91555000Y-104786410D01*
X89495000Y-104786410D01*
X89017724Y-103634165D01*
X88135835Y-102752276D01*
X86983590Y-102275000D01*
X85736410Y-102275000D01*
X84584165Y-102752276D01*
X83702276Y-103634165D01*
X83225000Y-104786410D01*
X76795000Y-104786410D01*
X76317724Y-103634165D01*
X75435835Y-102752276D01*
X74283590Y-102275000D01*
X73036410Y-102275000D01*
X71884165Y-102752276D01*
X71002276Y-103634165D01*
X70525000Y-104786410D01*
X68465000Y-104786410D01*
X67987724Y-103634165D01*
X67105835Y-102752276D01*
X65953590Y-102275000D01*
X64706410Y-102275000D01*
X63554165Y-102752276D01*
X62672276Y-103634165D01*
X62195000Y-104786410D01*
X57915000Y-104786410D01*
X57915000Y-102974345D01*
X57805631Y-102424510D01*
X57389009Y-101800991D01*
X56765490Y-101384369D01*
X56030000Y-101238071D01*
X55294511Y-101384369D01*
X54670992Y-101800991D01*
X54254370Y-102424510D01*
X54145001Y-102974345D01*
X54145000Y-107845654D01*
X49979169Y-107845654D01*
X49995000Y-107787000D01*
X49995000Y-105537000D01*
X48237000Y-105537000D01*
X47983000Y-105537000D01*
X46225000Y-105537000D01*
X43890000Y-105537000D01*
X43890000Y-103033000D01*
X46225000Y-103033000D01*
X46225000Y-105283000D01*
X47983000Y-105283000D01*
X47983000Y-101438428D01*
X48237000Y-101438428D01*
X48237000Y-105283000D01*
X49995000Y-105283000D01*
X49995000Y-103033000D01*
X49802912Y-102321309D01*
X49353094Y-101737301D01*
X48714026Y-101369886D01*
X48529645Y-101322305D01*
X48237000Y-101438428D01*
X47983000Y-101438428D01*
X47690355Y-101322305D01*
X47505974Y-101369886D01*
X46866906Y-101737301D01*
X46417088Y-102321309D01*
X46225000Y-103033000D01*
X43890000Y-103033000D01*
X43890000Y-91567000D01*
X46225000Y-91567000D01*
X46225000Y-93817000D01*
X46417088Y-94528691D01*
X46866906Y-95112699D01*
X47505974Y-95480114D01*
X47690355Y-95527695D01*
X47983000Y-95411572D01*
X47983000Y-91567000D01*
X48237000Y-91567000D01*
X48237000Y-95411572D01*
X48529645Y-95527695D01*
X48714026Y-95480114D01*
X49353094Y-95112699D01*
X49802912Y-94528691D01*
X49979169Y-93875654D01*
X54145000Y-93875654D01*
X54254369Y-94425489D01*
X54670991Y-95049009D01*
X55294510Y-95465631D01*
X56030000Y-95611929D01*
X56765489Y-95465631D01*
X57389009Y-95049009D01*
X57805631Y-94425490D01*
X57915000Y-93875655D01*
X57915000Y-90816410D01*
X62195000Y-90816410D01*
X62195000Y-92063590D01*
X62672276Y-93215835D01*
X63554165Y-94097724D01*
X64706410Y-94575000D01*
X65953590Y-94575000D01*
X67105835Y-94097724D01*
X67987724Y-93215835D01*
X68465000Y-92063590D01*
X68465000Y-90816410D01*
X70525000Y-90816410D01*
X70525000Y-92063590D01*
X71002276Y-93215835D01*
X71884165Y-94097724D01*
X73036410Y-94575000D01*
X74283590Y-94575000D01*
X75435835Y-94097724D01*
X76317724Y-93215835D01*
X76795000Y-92063590D01*
X76795000Y-90816410D01*
X83225000Y-90816410D01*
X83225000Y-92063590D01*
X83702276Y-93215835D01*
X84584165Y-94097724D01*
X85736410Y-94575000D01*
X86983590Y-94575000D01*
X88135835Y-94097724D01*
X89017724Y-93215835D01*
X89495000Y-92063590D01*
X89495000Y-90816410D01*
X91555000Y-90816410D01*
X91555000Y-92063590D01*
X92032276Y-93215835D01*
X92914165Y-94097724D01*
X94066410Y-94575000D01*
X95313590Y-94575000D01*
X96465835Y-94097724D01*
X97347724Y-93215835D01*
X97790000Y-92148087D01*
X98232276Y-93215835D01*
X99114165Y-94097724D01*
X100266410Y-94575000D01*
X101513590Y-94575000D01*
X102665835Y-94097724D01*
X103547724Y-93215835D01*
X104025000Y-92063590D01*
X104025000Y-90816410D01*
X106085000Y-90816410D01*
X106085000Y-92063590D01*
X106562276Y-93215835D01*
X107444165Y-94097724D01*
X108596410Y-94575000D01*
X109843590Y-94575000D01*
X110995835Y-94097724D01*
X111877724Y-93215835D01*
X112355000Y-92063590D01*
X112355000Y-90816410D01*
X118785000Y-90816410D01*
X118785000Y-92063590D01*
X119262276Y-93215835D01*
X120144165Y-94097724D01*
X121296410Y-94575000D01*
X122543590Y-94575000D01*
X123695835Y-94097724D01*
X124577724Y-93215835D01*
X125055000Y-92063590D01*
X125055000Y-90816410D01*
X127115000Y-90816410D01*
X127115000Y-92063590D01*
X127592276Y-93215835D01*
X128474165Y-94097724D01*
X129626410Y-94575000D01*
X130873590Y-94575000D01*
X132025835Y-94097724D01*
X132907724Y-93215835D01*
X133385000Y-92063590D01*
X133385000Y-90816410D01*
X132907724Y-89664165D01*
X132247905Y-89004346D01*
X137665000Y-89004346D01*
X137665001Y-93875655D01*
X137774370Y-94425490D01*
X138190992Y-95049009D01*
X138814511Y-95465631D01*
X139550000Y-95611929D01*
X140285490Y-95465631D01*
X140909009Y-95049009D01*
X141325631Y-94425490D01*
X141435000Y-93875655D01*
X141435000Y-91567000D01*
X145585000Y-91567000D01*
X145585000Y-93817000D01*
X145777088Y-94528691D01*
X146226906Y-95112699D01*
X146865974Y-95480114D01*
X147050355Y-95527695D01*
X147343000Y-95411572D01*
X147343000Y-91567000D01*
X147597000Y-91567000D01*
X147597000Y-95411572D01*
X147889645Y-95527695D01*
X148074026Y-95480114D01*
X148713094Y-95112699D01*
X149162912Y-94528691D01*
X149355000Y-93817000D01*
X149355000Y-91567000D01*
X147597000Y-91567000D01*
X147343000Y-91567000D01*
X145585000Y-91567000D01*
X141435000Y-91567000D01*
X141435000Y-89063000D01*
X145585000Y-89063000D01*
X145585000Y-91313000D01*
X147343000Y-91313000D01*
X147343000Y-87468428D01*
X147597000Y-87468428D01*
X147597000Y-91313000D01*
X149355000Y-91313000D01*
X149355000Y-89063000D01*
X149162912Y-88351309D01*
X148713094Y-87767301D01*
X148074026Y-87399886D01*
X147889645Y-87352305D01*
X147597000Y-87468428D01*
X147343000Y-87468428D01*
X147050355Y-87352305D01*
X146865974Y-87399886D01*
X146226906Y-87767301D01*
X145777088Y-88351309D01*
X145585000Y-89063000D01*
X141435000Y-89063000D01*
X141435000Y-89004345D01*
X141325631Y-88454510D01*
X140909009Y-87830991D01*
X140285489Y-87414369D01*
X139550000Y-87268071D01*
X138814510Y-87414369D01*
X138190991Y-87830991D01*
X137774369Y-88454511D01*
X137665000Y-89004346D01*
X132247905Y-89004346D01*
X132025835Y-88782276D01*
X130873590Y-88305000D01*
X129626410Y-88305000D01*
X128474165Y-88782276D01*
X127592276Y-89664165D01*
X127115000Y-90816410D01*
X125055000Y-90816410D01*
X124577724Y-89664165D01*
X123695835Y-88782276D01*
X122543590Y-88305000D01*
X121296410Y-88305000D01*
X120144165Y-88782276D01*
X119262276Y-89664165D01*
X118785000Y-90816410D01*
X112355000Y-90816410D01*
X111877724Y-89664165D01*
X110995835Y-88782276D01*
X109843590Y-88305000D01*
X108596410Y-88305000D01*
X107444165Y-88782276D01*
X106562276Y-89664165D01*
X106085000Y-90816410D01*
X104025000Y-90816410D01*
X103547724Y-89664165D01*
X102665835Y-88782276D01*
X101513590Y-88305000D01*
X100266410Y-88305000D01*
X99114165Y-88782276D01*
X98232276Y-89664165D01*
X97790000Y-90731913D01*
X97347724Y-89664165D01*
X96465835Y-88782276D01*
X95313590Y-88305000D01*
X94066410Y-88305000D01*
X92914165Y-88782276D01*
X92032276Y-89664165D01*
X91555000Y-90816410D01*
X89495000Y-90816410D01*
X89017724Y-89664165D01*
X88135835Y-88782276D01*
X86983590Y-88305000D01*
X85736410Y-88305000D01*
X84584165Y-88782276D01*
X83702276Y-89664165D01*
X83225000Y-90816410D01*
X76795000Y-90816410D01*
X76317724Y-89664165D01*
X75435835Y-88782276D01*
X74283590Y-88305000D01*
X73036410Y-88305000D01*
X71884165Y-88782276D01*
X71002276Y-89664165D01*
X70525000Y-90816410D01*
X68465000Y-90816410D01*
X67987724Y-89664165D01*
X67105835Y-88782276D01*
X65953590Y-88305000D01*
X64706410Y-88305000D01*
X63554165Y-88782276D01*
X62672276Y-89664165D01*
X62195000Y-90816410D01*
X57915000Y-90816410D01*
X57915000Y-89004345D01*
X57805631Y-88454510D01*
X57389009Y-87830991D01*
X56765490Y-87414369D01*
X56030000Y-87268071D01*
X55294511Y-87414369D01*
X54670992Y-87830991D01*
X54254370Y-88454510D01*
X54145001Y-89004345D01*
X54145000Y-93875654D01*
X49979169Y-93875654D01*
X49995000Y-93817000D01*
X49995000Y-91567000D01*
X48237000Y-91567000D01*
X47983000Y-91567000D01*
X46225000Y-91567000D01*
X43890000Y-91567000D01*
X43890000Y-89063000D01*
X46225000Y-89063000D01*
X46225000Y-91313000D01*
X47983000Y-91313000D01*
X47983000Y-87468428D01*
X48237000Y-87468428D01*
X48237000Y-91313000D01*
X49995000Y-91313000D01*
X49995000Y-89063000D01*
X49802912Y-88351309D01*
X49353094Y-87767301D01*
X48714026Y-87399886D01*
X48529645Y-87352305D01*
X48237000Y-87468428D01*
X47983000Y-87468428D01*
X47690355Y-87352305D01*
X47505974Y-87399886D01*
X46866906Y-87767301D01*
X46417088Y-88351309D01*
X46225000Y-89063000D01*
X43890000Y-89063000D01*
X43890000Y-70485000D01*
X55000908Y-70485000D01*
X55116161Y-71064418D01*
X55444375Y-71555625D01*
X55742761Y-71755000D01*
X55444375Y-71954375D01*
X55116161Y-72445582D01*
X55000908Y-73025000D01*
X55116161Y-73604418D01*
X55444375Y-74095625D01*
X55742761Y-74295000D01*
X55444375Y-74494375D01*
X55116161Y-74985582D01*
X55000908Y-75565000D01*
X55116161Y-76144418D01*
X55444375Y-76635625D01*
X55742761Y-76835000D01*
X55444375Y-77034375D01*
X55116161Y-77525582D01*
X55000908Y-78105000D01*
X55116161Y-78684418D01*
X55444375Y-79175625D01*
X55742761Y-79375000D01*
X55444375Y-79574375D01*
X55116161Y-80065582D01*
X55000908Y-80645000D01*
X55116161Y-81224418D01*
X55444375Y-81715625D01*
X55742761Y-81915000D01*
X55444375Y-82114375D01*
X55116161Y-82605582D01*
X55000908Y-83185000D01*
X55116161Y-83764418D01*
X55444375Y-84255625D01*
X55935582Y-84583839D01*
X56368744Y-84670000D01*
X56661256Y-84670000D01*
X57094418Y-84583839D01*
X57585625Y-84255625D01*
X57913839Y-83764418D01*
X58029092Y-83185000D01*
X57913839Y-82605582D01*
X57585625Y-82114375D01*
X57287239Y-81915000D01*
X57585625Y-81715625D01*
X57913839Y-81224418D01*
X58029092Y-80645000D01*
X57913839Y-80065582D01*
X57585625Y-79574375D01*
X57287239Y-79375000D01*
X57585625Y-79175625D01*
X57796518Y-78860000D01*
X65912560Y-78860000D01*
X65912560Y-81160000D01*
X65961843Y-81407765D01*
X66102191Y-81617809D01*
X66312235Y-81758157D01*
X66560000Y-81807440D01*
X68060000Y-81807440D01*
X68307765Y-81758157D01*
X68517809Y-81617809D01*
X68658157Y-81407765D01*
X68706391Y-81165275D01*
X68960460Y-81479145D01*
X69437316Y-81738173D01*
X69508815Y-81752318D01*
X69723000Y-81629656D01*
X69723000Y-80137000D01*
X69703000Y-80137000D01*
X69703000Y-79883000D01*
X69723000Y-79883000D01*
X69723000Y-78390344D01*
X69977000Y-78390344D01*
X69977000Y-79883000D01*
X69997000Y-79883000D01*
X69997000Y-80137000D01*
X69977000Y-80137000D01*
X69977000Y-81629656D01*
X70191185Y-81752318D01*
X70262684Y-81738173D01*
X70739540Y-81479145D01*
X71080972Y-81057349D01*
X71104258Y-80978684D01*
X71391472Y-81408529D01*
X71849601Y-81714641D01*
X72390000Y-81822133D01*
X72930400Y-81714641D01*
X73388529Y-81408529D01*
X73694641Y-80950400D01*
X73775000Y-80546406D01*
X73775000Y-79473593D01*
X73694641Y-79069600D01*
X73388528Y-78611471D01*
X72930399Y-78305359D01*
X72390000Y-78197867D01*
X71849600Y-78305359D01*
X71391471Y-78611472D01*
X71104258Y-79041317D01*
X71080972Y-78962651D01*
X70739540Y-78540855D01*
X70262684Y-78281827D01*
X70191185Y-78267682D01*
X69977000Y-78390344D01*
X69723000Y-78390344D01*
X69508815Y-78267682D01*
X69437316Y-78281827D01*
X68960460Y-78540855D01*
X68706391Y-78854725D01*
X68658157Y-78612235D01*
X68517809Y-78402191D01*
X68307765Y-78261843D01*
X68060000Y-78212560D01*
X66560000Y-78212560D01*
X66312235Y-78261843D01*
X66102191Y-78402191D01*
X65961843Y-78612235D01*
X65912560Y-78860000D01*
X57796518Y-78860000D01*
X57913839Y-78684418D01*
X58029092Y-78105000D01*
X57913839Y-77525582D01*
X57585625Y-77034375D01*
X57287239Y-76835000D01*
X57585625Y-76635625D01*
X57913839Y-76144418D01*
X58029092Y-75565000D01*
X57913839Y-74985582D01*
X57585625Y-74494375D01*
X57287239Y-74295000D01*
X57585625Y-74095625D01*
X57913839Y-73604418D01*
X58029092Y-73025000D01*
X57913839Y-72445582D01*
X57585625Y-71954375D01*
X57287239Y-71755000D01*
X57585625Y-71555625D01*
X57913839Y-71064418D01*
X58029092Y-70485000D01*
X57973774Y-70206892D01*
X63328514Y-70206892D01*
X63574817Y-70731358D01*
X64003076Y-71121645D01*
X64413110Y-71291476D01*
X64643000Y-71170155D01*
X64643000Y-69977000D01*
X63449181Y-69977000D01*
X63328514Y-70206892D01*
X57973774Y-70206892D01*
X57913839Y-69905582D01*
X57585625Y-69414375D01*
X57567381Y-69402184D01*
X57612765Y-69393157D01*
X57822809Y-69252809D01*
X57963157Y-69042765D01*
X58012440Y-68795000D01*
X58012440Y-67310000D01*
X63255908Y-67310000D01*
X63371161Y-67889418D01*
X63699375Y-68380625D01*
X63999786Y-68581353D01*
X63574817Y-68968642D01*
X63328514Y-69493108D01*
X63449181Y-69723000D01*
X64643000Y-69723000D01*
X64643000Y-69703000D01*
X64897000Y-69703000D01*
X64897000Y-69723000D01*
X64917000Y-69723000D01*
X64917000Y-69977000D01*
X64897000Y-69977000D01*
X64897000Y-71170155D01*
X65126890Y-71291476D01*
X65536924Y-71121645D01*
X65965183Y-70731358D01*
X66026157Y-70601522D01*
X66239375Y-70920625D01*
X66730582Y-71248839D01*
X67163744Y-71335000D01*
X67456256Y-71335000D01*
X67889418Y-71248839D01*
X68380625Y-70920625D01*
X68580000Y-70622239D01*
X68779375Y-70920625D01*
X69270582Y-71248839D01*
X69703744Y-71335000D01*
X69996256Y-71335000D01*
X70429418Y-71248839D01*
X70920625Y-70920625D01*
X71248839Y-70429418D01*
X71364092Y-69850000D01*
X71248839Y-69270582D01*
X70920625Y-68779375D01*
X70902381Y-68767184D01*
X70947765Y-68758157D01*
X71157809Y-68617809D01*
X71298157Y-68407765D01*
X71347440Y-68160000D01*
X71347440Y-66460000D01*
X71298157Y-66212235D01*
X71157809Y-66002191D01*
X70947765Y-65861843D01*
X70700000Y-65812560D01*
X69882242Y-65812560D01*
X69889802Y-65805000D01*
X70055874Y-65805000D01*
X70236940Y-65730000D01*
X79542560Y-65730000D01*
X79542560Y-70730000D01*
X79591843Y-70977765D01*
X79732191Y-71187809D01*
X79942235Y-71328157D01*
X80190000Y-71377440D01*
X102190000Y-71377440D01*
X102437765Y-71328157D01*
X102647809Y-71187809D01*
X102788157Y-70977765D01*
X102837440Y-70730000D01*
X102837440Y-65730000D01*
X105442560Y-65730000D01*
X105442560Y-70730000D01*
X105491843Y-70977765D01*
X105632191Y-71187809D01*
X105842235Y-71328157D01*
X106090000Y-71377440D01*
X128090000Y-71377440D01*
X128337765Y-71328157D01*
X128547809Y-71187809D01*
X128688157Y-70977765D01*
X128737440Y-70730000D01*
X128737440Y-65730000D01*
X128688157Y-65482235D01*
X128547809Y-65272191D01*
X128337765Y-65131843D01*
X128090000Y-65082560D01*
X106090000Y-65082560D01*
X105842235Y-65131843D01*
X105632191Y-65272191D01*
X105491843Y-65482235D01*
X105442560Y-65730000D01*
X102837440Y-65730000D01*
X102788157Y-65482235D01*
X102647809Y-65272191D01*
X102437765Y-65131843D01*
X102190000Y-65082560D01*
X80190000Y-65082560D01*
X79942235Y-65131843D01*
X79732191Y-65272191D01*
X79591843Y-65482235D01*
X79542560Y-65730000D01*
X70236940Y-65730000D01*
X70436280Y-65647431D01*
X70727431Y-65356280D01*
X70885000Y-64975874D01*
X70885000Y-64564126D01*
X70727431Y-64183720D01*
X70436280Y-63892569D01*
X70055874Y-63735000D01*
X69644126Y-63735000D01*
X69263720Y-63892569D01*
X68972569Y-64183720D01*
X68815000Y-64564126D01*
X68815000Y-64730198D01*
X68095530Y-65449669D01*
X68032071Y-65492071D01*
X67864096Y-65743464D01*
X67832972Y-65899933D01*
X67456256Y-65825000D01*
X67163744Y-65825000D01*
X66730582Y-65911161D01*
X66239375Y-66239375D01*
X66040000Y-66537761D01*
X65840625Y-66239375D01*
X65349418Y-65911161D01*
X64916256Y-65825000D01*
X64623744Y-65825000D01*
X64190582Y-65911161D01*
X63699375Y-66239375D01*
X63371161Y-66730582D01*
X63255908Y-67310000D01*
X58012440Y-67310000D01*
X58012440Y-67095000D01*
X57963157Y-66847235D01*
X57822809Y-66637191D01*
X57612765Y-66496843D01*
X57365000Y-66447560D01*
X55665000Y-66447560D01*
X55417235Y-66496843D01*
X55207191Y-66637191D01*
X55066843Y-66847235D01*
X55017560Y-67095000D01*
X55017560Y-68795000D01*
X55066843Y-69042765D01*
X55207191Y-69252809D01*
X55417235Y-69393157D01*
X55462619Y-69402184D01*
X55444375Y-69414375D01*
X55116161Y-69905582D01*
X55000908Y-70485000D01*
X43890000Y-70485000D01*
X43890000Y-57452126D01*
X59671000Y-57452126D01*
X59671000Y-57863874D01*
X59828569Y-58244280D01*
X60119720Y-58535431D01*
X60500126Y-58693000D01*
X60911874Y-58693000D01*
X61292280Y-58535431D01*
X61583431Y-58244280D01*
X61741000Y-57863874D01*
X61741000Y-57452126D01*
X61583431Y-57071720D01*
X61466000Y-56954289D01*
X61466000Y-53400801D01*
X65317803Y-49549000D01*
X65483874Y-49549000D01*
X65864280Y-49391431D01*
X66155431Y-49100280D01*
X66313000Y-48719874D01*
X66313000Y-48308126D01*
X66155431Y-47927720D01*
X65864280Y-47636569D01*
X65483874Y-47479000D01*
X65072126Y-47479000D01*
X64691720Y-47636569D01*
X64400569Y-47927720D01*
X64243000Y-48308126D01*
X64243000Y-48474197D01*
X60221530Y-52495669D01*
X60158071Y-52538071D01*
X59990096Y-52789464D01*
X59946000Y-53011149D01*
X59946000Y-53011153D01*
X59931112Y-53086000D01*
X59946000Y-53160847D01*
X59946001Y-56954288D01*
X59828569Y-57071720D01*
X59671000Y-57452126D01*
X43890000Y-57452126D01*
X43890000Y-51094642D01*
X50600000Y-51094642D01*
X50600000Y-51695358D01*
X50829884Y-52250346D01*
X51254654Y-52675116D01*
X51809642Y-52905000D01*
X52410358Y-52905000D01*
X52965346Y-52675116D01*
X53390116Y-52250346D01*
X53620000Y-51695358D01*
X53620000Y-51094642D01*
X55600000Y-51094642D01*
X55600000Y-51695358D01*
X55829884Y-52250346D01*
X56254654Y-52675116D01*
X56809642Y-52905000D01*
X57410358Y-52905000D01*
X57965346Y-52675116D01*
X58390116Y-52250346D01*
X58620000Y-51695358D01*
X58620000Y-51094642D01*
X58390116Y-50539654D01*
X57965346Y-50114884D01*
X57410358Y-49885000D01*
X56809642Y-49885000D01*
X56254654Y-50114884D01*
X55829884Y-50539654D01*
X55600000Y-51094642D01*
X53620000Y-51094642D01*
X53390116Y-50539654D01*
X52965346Y-50114884D01*
X52410358Y-49885000D01*
X51809642Y-49885000D01*
X51254654Y-50114884D01*
X50829884Y-50539654D01*
X50600000Y-51094642D01*
X43890000Y-51094642D01*
X43890000Y-46094642D01*
X50600000Y-46094642D01*
X50600000Y-46695358D01*
X50829884Y-47250346D01*
X51254654Y-47675116D01*
X51809642Y-47905000D01*
X52410358Y-47905000D01*
X52965346Y-47675116D01*
X53390116Y-47250346D01*
X53620000Y-46695358D01*
X53620000Y-46094642D01*
X55600000Y-46094642D01*
X55600000Y-46695358D01*
X55829884Y-47250346D01*
X56254654Y-47675116D01*
X56809642Y-47905000D01*
X57410358Y-47905000D01*
X57965346Y-47675116D01*
X58390116Y-47250346D01*
X58502097Y-46980000D01*
X86242560Y-46980000D01*
X86242560Y-51980000D01*
X86291843Y-52227765D01*
X86432191Y-52437809D01*
X86642235Y-52578157D01*
X86890000Y-52627440D01*
X89390000Y-52627440D01*
X89637765Y-52578157D01*
X89847809Y-52437809D01*
X89988157Y-52227765D01*
X90037440Y-51980000D01*
X90037440Y-49765750D01*
X118255000Y-49765750D01*
X118255000Y-52106310D01*
X118351673Y-52339699D01*
X118530302Y-52518327D01*
X118763691Y-52615000D01*
X119854250Y-52615000D01*
X120013000Y-52456250D01*
X120013000Y-49607000D01*
X120267000Y-49607000D01*
X120267000Y-52456250D01*
X120425750Y-52615000D01*
X121516309Y-52615000D01*
X121749698Y-52518327D01*
X121928327Y-52339699D01*
X122025000Y-52106310D01*
X122025000Y-49765750D01*
X121866250Y-49607000D01*
X120267000Y-49607000D01*
X120013000Y-49607000D01*
X118413750Y-49607000D01*
X118255000Y-49765750D01*
X90037440Y-49765750D01*
X90037440Y-46980000D01*
X90012316Y-46853690D01*
X118255000Y-46853690D01*
X118255000Y-49194250D01*
X118413750Y-49353000D01*
X120013000Y-49353000D01*
X120013000Y-46503750D01*
X120267000Y-46503750D01*
X120267000Y-49353000D01*
X121866250Y-49353000D01*
X122025000Y-49194250D01*
X122025000Y-46853690D01*
X121928327Y-46620301D01*
X121749698Y-46441673D01*
X121516309Y-46345000D01*
X120425750Y-46345000D01*
X120267000Y-46503750D01*
X120013000Y-46503750D01*
X119854250Y-46345000D01*
X118763691Y-46345000D01*
X118530302Y-46441673D01*
X118351673Y-46620301D01*
X118255000Y-46853690D01*
X90012316Y-46853690D01*
X89988157Y-46732235D01*
X89847809Y-46522191D01*
X89637765Y-46381843D01*
X89390000Y-46332560D01*
X86890000Y-46332560D01*
X86642235Y-46381843D01*
X86432191Y-46522191D01*
X86291843Y-46732235D01*
X86242560Y-46980000D01*
X58502097Y-46980000D01*
X58620000Y-46695358D01*
X58620000Y-46094642D01*
X58390116Y-45539654D01*
X57965346Y-45114884D01*
X57410358Y-44885000D01*
X56809642Y-44885000D01*
X56254654Y-45114884D01*
X55829884Y-45539654D01*
X55600000Y-46094642D01*
X53620000Y-46094642D01*
X53390116Y-45539654D01*
X52965346Y-45114884D01*
X52410358Y-44885000D01*
X51809642Y-44885000D01*
X51254654Y-45114884D01*
X50829884Y-45539654D01*
X50600000Y-46094642D01*
X43890000Y-46094642D01*
X43890000Y-41350000D01*
X151690000Y-41350000D01*
X151690001Y-166930000D01*
G04 #@! TD*
M02*
