M48
;DRILL file {KiCad (5.0.2)-1} date 2/23/2019 2:58:05 PM
;FORMAT={3:3/ absolute / metric / suppress leading zeros}
FMAT,2
METRIC,TZ
T1C0.400
T2C1.000
T3C1.100
T4C1.270
T5C1.500
T6C3.000
T7C3.860
%
G90
G05
T1
X48514Y-62484
X57150Y-61214
X60706Y-57658
X61722Y-60198
X65278Y-48514
X69850Y-64770
X146050Y-74930
X146050Y-77470
X146050Y-80010
T2
X67310Y-80010
X69850Y-80010
X72390Y-80010
X56515Y-67945
X56515Y-70485
X56515Y-73025
X56515Y-75565
X56515Y-78105
X56515Y-80645
X56515Y-83185
X64770Y-67310
X64770Y-69850
X67310Y-67310
X67310Y-69850
X69850Y-67310
X69850Y-69850
T3
X52110Y-46395
X52110Y-51395
X57110Y-46395
X57110Y-51395
T7
X100890Y-105410
X109220Y-105410
X121920Y-105410
X130250Y-105410
X65330Y-161290
X73660Y-161290
X86360Y-161290
X94690Y-161290
X65330Y-133350
X73660Y-133350
X86360Y-133350
X94690Y-133350
X100890Y-133350
X109220Y-133350
X121920Y-133350
X130250Y-133350
X100890Y-147320
X109220Y-147320
X121920Y-147320
X130250Y-147320
X100890Y-119380
X109220Y-119380
X121920Y-119380
X130250Y-119380
X100890Y-91440
X109220Y-91440
X121920Y-91440
X130250Y-91440
X100890Y-161290
X109220Y-161290
X121920Y-161290
X130250Y-161290
X65330Y-147320
X73660Y-147320
X86360Y-147320
X94690Y-147320
X65330Y-119380
X73660Y-119380
X86360Y-119380
X94690Y-119380
X65330Y-105410
X73660Y-105410
X86360Y-105410
X94690Y-105410
X65330Y-91440
X73660Y-91440
X86360Y-91440
X94690Y-91440
T4
X139550Y-93420G85X139550Y-89460
G05
X147470Y-93420G85X147470Y-89460
G05
X48110Y-103430G85X48110Y-107390
G05
X56030Y-103430G85X56030Y-107390
G05
X139550Y-149300G85X139550Y-145340
G05
X147470Y-149300G85X147470Y-145340
G05
X48110Y-89460G85X48110Y-93420
G05
X56030Y-89460G85X56030Y-93420
G05
X48110Y-159310G85X48110Y-163270
G05
X56030Y-159310G85X56030Y-163270
G05
X48110Y-145340G85X48110Y-149300
G05
X56030Y-145340G85X56030Y-149300
G05
X48110Y-131370G85X48110Y-135330
G05
X56030Y-131370G85X56030Y-135330
G05
X48110Y-117400G85X48110Y-121360
G05
X56030Y-117400G85X56030Y-121360
G05
X139550Y-135330G85X139550Y-131370
G05
X147470Y-135330G85X147470Y-131370
G05
X139550Y-107390G85X139550Y-103430
G05
X147470Y-107390G85X147470Y-103430
G05
X139550Y-163270G85X139550Y-159310
G05
X147470Y-163270G85X147470Y-159310
G05
X139550Y-121360G85X139550Y-117400
G05
X147470Y-121360G85X147470Y-117400
G05
T5
X88140Y-50730G85X88140Y-48230
G05
X120140Y-50730G85X120140Y-48230
G05
T6
X99690Y-68230G85X82690Y-68230
G05
X125590Y-68230G85X108590Y-68230
G05
T0
M30
