G04 #@! TF.GenerationSoftware,KiCad,Pcbnew,(5.0.2)-1*
G04 #@! TF.CreationDate,2019-02-23T14:57:53-07:00*
G04 #@! TF.ProjectId,MinesRobotics_PDB,4d696e65-7352-46f6-926f-746963735f50,rev?*
G04 #@! TF.SameCoordinates,Original*
G04 #@! TF.FileFunction,Legend,Top*
G04 #@! TF.FilePolarity,Positive*
%FSLAX46Y46*%
G04 Gerber Fmt 4.6, Leading zero omitted, Abs format (unit mm)*
G04 Created by KiCad (PCBNEW (5.0.2)-1) date 2/23/2019 2:57:53 PM*
%MOMM*%
%LPD*%
G01*
G04 APERTURE LIST*
%ADD10C,0.750000*%
%ADD11C,0.120000*%
%ADD12C,0.150000*%
G04 APERTURE END LIST*
D10*
X143550000Y-64769523D02*
X143311904Y-65245714D01*
X143311904Y-65960000D01*
X143550000Y-66674285D01*
X144026190Y-67150476D01*
X144502380Y-67388571D01*
X145454761Y-67626666D01*
X146169047Y-67626666D01*
X147121428Y-67388571D01*
X147597619Y-67150476D01*
X148073809Y-66674285D01*
X148311904Y-65960000D01*
X148311904Y-65483809D01*
X148073809Y-64769523D01*
X147835714Y-64531428D01*
X146169047Y-64531428D01*
X146169047Y-65483809D01*
X148311904Y-62388571D02*
X143311904Y-62388571D01*
X148311904Y-59531428D01*
X143311904Y-59531428D01*
X148311904Y-57150476D02*
X143311904Y-57150476D01*
X143311904Y-55960000D01*
X143550000Y-55245714D01*
X144026190Y-54769523D01*
X144502380Y-54531428D01*
X145454761Y-54293333D01*
X146169047Y-54293333D01*
X147121428Y-54531428D01*
X147597619Y-54769523D01*
X148073809Y-55245714D01*
X148311904Y-55960000D01*
X148311904Y-57150476D01*
X136247142Y-69769523D02*
X136247142Y-65960000D01*
X138151904Y-67864761D02*
X134342380Y-67864761D01*
X138151904Y-60960000D02*
X138151904Y-63817142D01*
X138151904Y-62388571D02*
X133151904Y-62388571D01*
X133866190Y-62864761D01*
X134342380Y-63340952D01*
X134580476Y-63817142D01*
X133628095Y-59055238D02*
X133390000Y-58817142D01*
X133151904Y-58340952D01*
X133151904Y-57150476D01*
X133390000Y-56674285D01*
X133628095Y-56436190D01*
X134104285Y-56198095D01*
X134580476Y-56198095D01*
X135294761Y-56436190D01*
X138151904Y-59293333D01*
X138151904Y-56198095D01*
X133151904Y-54769523D02*
X138151904Y-53102857D01*
X133151904Y-51436190D01*
D11*
G04 #@! TO.C,J14*
X63440000Y-65980000D02*
X63440000Y-71180000D01*
X68580000Y-65980000D02*
X63440000Y-65980000D01*
X71180000Y-71180000D02*
X63440000Y-71180000D01*
X68580000Y-65980000D02*
X68580000Y-68580000D01*
X68580000Y-68580000D02*
X71180000Y-68580000D01*
X71180000Y-68580000D02*
X71180000Y-71180000D01*
X69850000Y-65980000D02*
X71180000Y-65980000D01*
X71180000Y-65980000D02*
X71180000Y-67310000D01*
G04 #@! TO.C,Q1*
X68070000Y-51110000D02*
X66610000Y-51110000D01*
X68070000Y-47950000D02*
X65910000Y-47950000D01*
X68070000Y-47950000D02*
X68070000Y-48880000D01*
X68070000Y-51110000D02*
X68070000Y-50180000D01*
D12*
G04 #@! TO.C,U2*
X62695000Y-55895000D02*
X61295000Y-55895000D01*
X62695000Y-60995000D02*
X66845000Y-60995000D01*
X62695000Y-55845000D02*
X66845000Y-55845000D01*
X62695000Y-60995000D02*
X62695000Y-60850000D01*
X66845000Y-60995000D02*
X66845000Y-60850000D01*
X66845000Y-55845000D02*
X66845000Y-55990000D01*
X62695000Y-55845000D02*
X62695000Y-55895000D01*
G04 #@! TO.C,F1*
X64770000Y-85090000D02*
X95250000Y-85090000D01*
X64770000Y-97790000D02*
X64770000Y-85090000D01*
X95250000Y-97790000D02*
X64770000Y-97790000D01*
X95250000Y-85090000D02*
X95250000Y-97790000D01*
G04 #@! TO.C,F2*
X95250000Y-99060000D02*
X95250000Y-111760000D01*
X95250000Y-111760000D02*
X64770000Y-111760000D01*
X64770000Y-111760000D02*
X64770000Y-99060000D01*
X64770000Y-99060000D02*
X95250000Y-99060000D01*
G04 #@! TO.C,F3*
X64770000Y-113030000D02*
X95250000Y-113030000D01*
X64770000Y-125730000D02*
X64770000Y-113030000D01*
X95250000Y-125730000D02*
X64770000Y-125730000D01*
X95250000Y-113030000D02*
X95250000Y-125730000D01*
G04 #@! TO.C,F4*
X95250000Y-127000000D02*
X95250000Y-139700000D01*
X95250000Y-139700000D02*
X64770000Y-139700000D01*
X64770000Y-139700000D02*
X64770000Y-127000000D01*
X64770000Y-127000000D02*
X95250000Y-127000000D01*
G04 #@! TO.C,F5*
X95250000Y-140970000D02*
X95250000Y-153670000D01*
X95250000Y-153670000D02*
X64770000Y-153670000D01*
X64770000Y-153670000D02*
X64770000Y-140970000D01*
X64770000Y-140970000D02*
X95250000Y-140970000D01*
G04 #@! TO.C,F6*
X64770000Y-154940000D02*
X95250000Y-154940000D01*
X64770000Y-167640000D02*
X64770000Y-154940000D01*
X95250000Y-167640000D02*
X64770000Y-167640000D01*
X95250000Y-154940000D02*
X95250000Y-167640000D01*
G04 #@! TO.C,F7*
X130810000Y-97790000D02*
X100330000Y-97790000D01*
X130810000Y-85090000D02*
X130810000Y-97790000D01*
X100330000Y-85090000D02*
X130810000Y-85090000D01*
X100330000Y-97790000D02*
X100330000Y-85090000D01*
G04 #@! TO.C,F8*
X100330000Y-111760000D02*
X100330000Y-99060000D01*
X100330000Y-99060000D02*
X130810000Y-99060000D01*
X130810000Y-99060000D02*
X130810000Y-111760000D01*
X130810000Y-111760000D02*
X100330000Y-111760000D01*
G04 #@! TO.C,F9*
X130810000Y-125730000D02*
X100330000Y-125730000D01*
X130810000Y-113030000D02*
X130810000Y-125730000D01*
X100330000Y-113030000D02*
X130810000Y-113030000D01*
X100330000Y-125730000D02*
X100330000Y-113030000D01*
G04 #@! TO.C,F10*
X100330000Y-139700000D02*
X100330000Y-127000000D01*
X100330000Y-127000000D02*
X130810000Y-127000000D01*
X130810000Y-127000000D02*
X130810000Y-139700000D01*
X130810000Y-139700000D02*
X100330000Y-139700000D01*
G04 #@! TO.C,F11*
X130810000Y-153670000D02*
X100330000Y-153670000D01*
X130810000Y-140970000D02*
X130810000Y-153670000D01*
X100330000Y-140970000D02*
X130810000Y-140970000D01*
X100330000Y-153670000D02*
X100330000Y-140970000D01*
G04 #@! TO.C,F12*
X100330000Y-167640000D02*
X100330000Y-154940000D01*
X100330000Y-154940000D02*
X130810000Y-154940000D01*
X130810000Y-154940000D02*
X130810000Y-167640000D01*
X130810000Y-167640000D02*
X100330000Y-167640000D01*
G04 #@! TO.C,K1*
X78740000Y-82550000D02*
X78740000Y-41910000D01*
X78740000Y-41910000D02*
X129540000Y-41910000D01*
X129540000Y-41910000D02*
X129540000Y-82550000D01*
X129540000Y-82550000D02*
X78740000Y-82550000D01*
G04 #@! TO.C,J1*
X60198000Y-91440000D02*
X60198000Y-95504000D01*
X60198000Y-95504000D02*
X43942000Y-95504000D01*
X43942000Y-95504000D02*
X43942000Y-87376000D01*
X43942000Y-87376000D02*
X60198000Y-87376000D01*
X60198000Y-87376000D02*
X60198000Y-91440000D01*
G04 #@! TO.C,J2*
X60198000Y-105410000D02*
X60198000Y-109474000D01*
X60198000Y-109474000D02*
X43942000Y-109474000D01*
X43942000Y-109474000D02*
X43942000Y-101346000D01*
X43942000Y-101346000D02*
X60198000Y-101346000D01*
X60198000Y-101346000D02*
X60198000Y-105410000D01*
G04 #@! TO.C,J3*
X60198000Y-115316000D02*
X60198000Y-119380000D01*
X43942000Y-115316000D02*
X60198000Y-115316000D01*
X43942000Y-123444000D02*
X43942000Y-115316000D01*
X60198000Y-123444000D02*
X43942000Y-123444000D01*
X60198000Y-119380000D02*
X60198000Y-123444000D01*
G04 #@! TO.C,J4*
X60198000Y-133350000D02*
X60198000Y-137414000D01*
X60198000Y-137414000D02*
X43942000Y-137414000D01*
X43942000Y-137414000D02*
X43942000Y-129286000D01*
X43942000Y-129286000D02*
X60198000Y-129286000D01*
X60198000Y-129286000D02*
X60198000Y-133350000D01*
G04 #@! TO.C,J5*
X60198000Y-143256000D02*
X60198000Y-147320000D01*
X43942000Y-143256000D02*
X60198000Y-143256000D01*
X43942000Y-151384000D02*
X43942000Y-143256000D01*
X60198000Y-151384000D02*
X43942000Y-151384000D01*
X60198000Y-147320000D02*
X60198000Y-151384000D01*
G04 #@! TO.C,J6*
X60198000Y-161290000D02*
X60198000Y-165354000D01*
X60198000Y-165354000D02*
X43942000Y-165354000D01*
X43942000Y-165354000D02*
X43942000Y-157226000D01*
X43942000Y-157226000D02*
X60198000Y-157226000D01*
X60198000Y-157226000D02*
X60198000Y-161290000D01*
G04 #@! TO.C,J7*
X135382000Y-91440000D02*
X135382000Y-87376000D01*
X135382000Y-87376000D02*
X151638000Y-87376000D01*
X151638000Y-87376000D02*
X151638000Y-95504000D01*
X151638000Y-95504000D02*
X135382000Y-95504000D01*
X135382000Y-95504000D02*
X135382000Y-91440000D01*
G04 #@! TO.C,J8*
X135382000Y-109474000D02*
X135382000Y-105410000D01*
X151638000Y-109474000D02*
X135382000Y-109474000D01*
X151638000Y-101346000D02*
X151638000Y-109474000D01*
X135382000Y-101346000D02*
X151638000Y-101346000D01*
X135382000Y-105410000D02*
X135382000Y-101346000D01*
G04 #@! TO.C,J9*
X135382000Y-119380000D02*
X135382000Y-115316000D01*
X135382000Y-115316000D02*
X151638000Y-115316000D01*
X151638000Y-115316000D02*
X151638000Y-123444000D01*
X151638000Y-123444000D02*
X135382000Y-123444000D01*
X135382000Y-123444000D02*
X135382000Y-119380000D01*
G04 #@! TO.C,J10*
X135382000Y-137414000D02*
X135382000Y-133350000D01*
X151638000Y-137414000D02*
X135382000Y-137414000D01*
X151638000Y-129286000D02*
X151638000Y-137414000D01*
X135382000Y-129286000D02*
X151638000Y-129286000D01*
X135382000Y-133350000D02*
X135382000Y-129286000D01*
G04 #@! TO.C,J11*
X135382000Y-147320000D02*
X135382000Y-143256000D01*
X135382000Y-143256000D02*
X151638000Y-143256000D01*
X151638000Y-143256000D02*
X151638000Y-151384000D01*
X151638000Y-151384000D02*
X135382000Y-151384000D01*
X135382000Y-151384000D02*
X135382000Y-147320000D01*
G04 #@! TO.C,J12*
X135382000Y-165354000D02*
X135382000Y-161290000D01*
X151638000Y-165354000D02*
X135382000Y-165354000D01*
X151638000Y-157226000D02*
X151638000Y-165354000D01*
X135382000Y-157226000D02*
X151638000Y-157226000D01*
X135382000Y-161290000D02*
X135382000Y-157226000D01*
D11*
G04 #@! TO.C,U1*
X63939000Y-73450000D02*
X75660000Y-73450000D01*
X63939000Y-82070000D02*
X75660000Y-82070000D01*
X63939000Y-73450000D02*
X63939000Y-82070000D01*
X75660000Y-73450000D02*
X75660000Y-82070000D01*
X63699000Y-81070000D02*
X63699000Y-82310000D01*
X63699000Y-82310000D02*
X64939000Y-82310000D01*
G04 #@! TO.C,D1*
X47944000Y-58958000D02*
X47944000Y-56858000D01*
X49084000Y-58958000D02*
X49084000Y-56858000D01*
X47944000Y-58958000D02*
X49084000Y-58958000D01*
G04 #@! TO.C,R1*
X49194000Y-60884000D02*
X49194000Y-61884000D01*
X47834000Y-61884000D02*
X47834000Y-60884000D01*
G04 #@! TO.C,R2*
X51898000Y-60614000D02*
X51898000Y-59614000D01*
X53258000Y-59614000D02*
X53258000Y-60614000D01*
G04 #@! TO.C,R3*
X54184000Y-60528000D02*
X54184000Y-59528000D01*
X55544000Y-59528000D02*
X55544000Y-60528000D01*
G04 #@! TO.C,R4*
X56470000Y-60614000D02*
X56470000Y-59614000D01*
X57830000Y-59614000D02*
X57830000Y-60614000D01*
D12*
G04 #@! TO.C,SW1*
X60610000Y-48895000D02*
G75*
G03X60610000Y-48895000I-6000000J0D01*
G01*
G36*
X57910000Y-43895000D02*
X51310000Y-43895000D01*
X52910000Y-43095000D01*
X54410000Y-42895000D01*
X54810000Y-42895000D01*
X56310000Y-43095000D01*
X57910000Y-43895000D01*
G37*
X57910000Y-43895000D02*
X51310000Y-43895000D01*
X52910000Y-43095000D01*
X54410000Y-42895000D01*
X54810000Y-42895000D01*
X56310000Y-43095000D01*
X57910000Y-43895000D01*
D11*
G04 #@! TO.C,J15*
X55185000Y-84515000D02*
X57845000Y-84515000D01*
X55185000Y-69215000D02*
X55185000Y-84515000D01*
X57845000Y-69215000D02*
X57845000Y-84515000D01*
X55185000Y-69215000D02*
X57845000Y-69215000D01*
X55185000Y-67945000D02*
X55185000Y-66615000D01*
X55185000Y-66615000D02*
X56515000Y-66615000D01*
G04 #@! TO.C,J14*
D12*
X71632380Y-69389523D02*
X72346666Y-69389523D01*
X72489523Y-69437142D01*
X72584761Y-69532380D01*
X72632380Y-69675238D01*
X72632380Y-69770476D01*
X72632380Y-68389523D02*
X72632380Y-68960952D01*
X72632380Y-68675238D02*
X71632380Y-68675238D01*
X71775238Y-68770476D01*
X71870476Y-68865714D01*
X71918095Y-68960952D01*
X71965714Y-67532380D02*
X72632380Y-67532380D01*
X71584761Y-67770476D02*
X72299047Y-68008571D01*
X72299047Y-67389523D01*
G04 #@! TO.C,Q1*
X67214761Y-47577619D02*
X67119523Y-47530000D01*
X67024285Y-47434761D01*
X66881428Y-47291904D01*
X66786190Y-47244285D01*
X66690952Y-47244285D01*
X66738571Y-47482380D02*
X66643333Y-47434761D01*
X66548095Y-47339523D01*
X66500476Y-47149047D01*
X66500476Y-46815714D01*
X66548095Y-46625238D01*
X66643333Y-46530000D01*
X66738571Y-46482380D01*
X66929047Y-46482380D01*
X67024285Y-46530000D01*
X67119523Y-46625238D01*
X67167142Y-46815714D01*
X67167142Y-47149047D01*
X67119523Y-47339523D01*
X67024285Y-47434761D01*
X66929047Y-47482380D01*
X66738571Y-47482380D01*
X68119523Y-47482380D02*
X67548095Y-47482380D01*
X67833809Y-47482380D02*
X67833809Y-46482380D01*
X67738571Y-46625238D01*
X67643333Y-46720476D01*
X67548095Y-46768095D01*
G04 #@! TO.C,U2*
X64008095Y-54372380D02*
X64008095Y-55181904D01*
X64055714Y-55277142D01*
X64103333Y-55324761D01*
X64198571Y-55372380D01*
X64389047Y-55372380D01*
X64484285Y-55324761D01*
X64531904Y-55277142D01*
X64579523Y-55181904D01*
X64579523Y-54372380D01*
X65008095Y-54467619D02*
X65055714Y-54420000D01*
X65150952Y-54372380D01*
X65389047Y-54372380D01*
X65484285Y-54420000D01*
X65531904Y-54467619D01*
X65579523Y-54562857D01*
X65579523Y-54658095D01*
X65531904Y-54800952D01*
X64960476Y-55372380D01*
X65579523Y-55372380D01*
G04 #@! TO.C,F1*
X96186666Y-96448571D02*
X95853333Y-96448571D01*
X95853333Y-96972380D02*
X95853333Y-95972380D01*
X96329523Y-95972380D01*
X97234285Y-96972380D02*
X96662857Y-96972380D01*
X96948571Y-96972380D02*
X96948571Y-95972380D01*
X96853333Y-96115238D01*
X96758095Y-96210476D01*
X96662857Y-96258095D01*
G04 #@! TO.C,F2*
X96186666Y-110418571D02*
X95853333Y-110418571D01*
X95853333Y-110942380D02*
X95853333Y-109942380D01*
X96329523Y-109942380D01*
X96662857Y-110037619D02*
X96710476Y-109990000D01*
X96805714Y-109942380D01*
X97043809Y-109942380D01*
X97139047Y-109990000D01*
X97186666Y-110037619D01*
X97234285Y-110132857D01*
X97234285Y-110228095D01*
X97186666Y-110370952D01*
X96615238Y-110942380D01*
X97234285Y-110942380D01*
G04 #@! TO.C,F3*
X96186666Y-124388571D02*
X95853333Y-124388571D01*
X95853333Y-124912380D02*
X95853333Y-123912380D01*
X96329523Y-123912380D01*
X96615238Y-123912380D02*
X97234285Y-123912380D01*
X96900952Y-124293333D01*
X97043809Y-124293333D01*
X97139047Y-124340952D01*
X97186666Y-124388571D01*
X97234285Y-124483809D01*
X97234285Y-124721904D01*
X97186666Y-124817142D01*
X97139047Y-124864761D01*
X97043809Y-124912380D01*
X96758095Y-124912380D01*
X96662857Y-124864761D01*
X96615238Y-124817142D01*
G04 #@! TO.C,F4*
X96186666Y-138358571D02*
X95853333Y-138358571D01*
X95853333Y-138882380D02*
X95853333Y-137882380D01*
X96329523Y-137882380D01*
X97139047Y-138215714D02*
X97139047Y-138882380D01*
X96900952Y-137834761D02*
X96662857Y-138549047D01*
X97281904Y-138549047D01*
G04 #@! TO.C,F5*
X96186666Y-152328571D02*
X95853333Y-152328571D01*
X95853333Y-152852380D02*
X95853333Y-151852380D01*
X96329523Y-151852380D01*
X97186666Y-151852380D02*
X96710476Y-151852380D01*
X96662857Y-152328571D01*
X96710476Y-152280952D01*
X96805714Y-152233333D01*
X97043809Y-152233333D01*
X97139047Y-152280952D01*
X97186666Y-152328571D01*
X97234285Y-152423809D01*
X97234285Y-152661904D01*
X97186666Y-152757142D01*
X97139047Y-152804761D01*
X97043809Y-152852380D01*
X96805714Y-152852380D01*
X96710476Y-152804761D01*
X96662857Y-152757142D01*
G04 #@! TO.C,F6*
X96186666Y-166298571D02*
X95853333Y-166298571D01*
X95853333Y-166822380D02*
X95853333Y-165822380D01*
X96329523Y-165822380D01*
X97139047Y-165822380D02*
X96948571Y-165822380D01*
X96853333Y-165870000D01*
X96805714Y-165917619D01*
X96710476Y-166060476D01*
X96662857Y-166250952D01*
X96662857Y-166631904D01*
X96710476Y-166727142D01*
X96758095Y-166774761D01*
X96853333Y-166822380D01*
X97043809Y-166822380D01*
X97139047Y-166774761D01*
X97186666Y-166727142D01*
X97234285Y-166631904D01*
X97234285Y-166393809D01*
X97186666Y-166298571D01*
X97139047Y-166250952D01*
X97043809Y-166203333D01*
X96853333Y-166203333D01*
X96758095Y-166250952D01*
X96710476Y-166298571D01*
X96662857Y-166393809D01*
G04 #@! TO.C,F7*
X98726666Y-86288571D02*
X98393333Y-86288571D01*
X98393333Y-86812380D02*
X98393333Y-85812380D01*
X98869523Y-85812380D01*
X99155238Y-85812380D02*
X99821904Y-85812380D01*
X99393333Y-86812380D01*
G04 #@! TO.C,F8*
X98726666Y-100258571D02*
X98393333Y-100258571D01*
X98393333Y-100782380D02*
X98393333Y-99782380D01*
X98869523Y-99782380D01*
X99393333Y-100210952D02*
X99298095Y-100163333D01*
X99250476Y-100115714D01*
X99202857Y-100020476D01*
X99202857Y-99972857D01*
X99250476Y-99877619D01*
X99298095Y-99830000D01*
X99393333Y-99782380D01*
X99583809Y-99782380D01*
X99679047Y-99830000D01*
X99726666Y-99877619D01*
X99774285Y-99972857D01*
X99774285Y-100020476D01*
X99726666Y-100115714D01*
X99679047Y-100163333D01*
X99583809Y-100210952D01*
X99393333Y-100210952D01*
X99298095Y-100258571D01*
X99250476Y-100306190D01*
X99202857Y-100401428D01*
X99202857Y-100591904D01*
X99250476Y-100687142D01*
X99298095Y-100734761D01*
X99393333Y-100782380D01*
X99583809Y-100782380D01*
X99679047Y-100734761D01*
X99726666Y-100687142D01*
X99774285Y-100591904D01*
X99774285Y-100401428D01*
X99726666Y-100306190D01*
X99679047Y-100258571D01*
X99583809Y-100210952D01*
G04 #@! TO.C,F9*
X98726666Y-114228571D02*
X98393333Y-114228571D01*
X98393333Y-114752380D02*
X98393333Y-113752380D01*
X98869523Y-113752380D01*
X99298095Y-114752380D02*
X99488571Y-114752380D01*
X99583809Y-114704761D01*
X99631428Y-114657142D01*
X99726666Y-114514285D01*
X99774285Y-114323809D01*
X99774285Y-113942857D01*
X99726666Y-113847619D01*
X99679047Y-113800000D01*
X99583809Y-113752380D01*
X99393333Y-113752380D01*
X99298095Y-113800000D01*
X99250476Y-113847619D01*
X99202857Y-113942857D01*
X99202857Y-114180952D01*
X99250476Y-114276190D01*
X99298095Y-114323809D01*
X99393333Y-114371428D01*
X99583809Y-114371428D01*
X99679047Y-114323809D01*
X99726666Y-114276190D01*
X99774285Y-114180952D01*
G04 #@! TO.C,F10*
X98250476Y-128198571D02*
X97917142Y-128198571D01*
X97917142Y-128722380D02*
X97917142Y-127722380D01*
X98393333Y-127722380D01*
X99298095Y-128722380D02*
X98726666Y-128722380D01*
X99012380Y-128722380D02*
X99012380Y-127722380D01*
X98917142Y-127865238D01*
X98821904Y-127960476D01*
X98726666Y-128008095D01*
X99917142Y-127722380D02*
X100012380Y-127722380D01*
X100107619Y-127770000D01*
X100155238Y-127817619D01*
X100202857Y-127912857D01*
X100250476Y-128103333D01*
X100250476Y-128341428D01*
X100202857Y-128531904D01*
X100155238Y-128627142D01*
X100107619Y-128674761D01*
X100012380Y-128722380D01*
X99917142Y-128722380D01*
X99821904Y-128674761D01*
X99774285Y-128627142D01*
X99726666Y-128531904D01*
X99679047Y-128341428D01*
X99679047Y-128103333D01*
X99726666Y-127912857D01*
X99774285Y-127817619D01*
X99821904Y-127770000D01*
X99917142Y-127722380D01*
G04 #@! TO.C,F11*
X98250476Y-142168571D02*
X97917142Y-142168571D01*
X97917142Y-142692380D02*
X97917142Y-141692380D01*
X98393333Y-141692380D01*
X99298095Y-142692380D02*
X98726666Y-142692380D01*
X99012380Y-142692380D02*
X99012380Y-141692380D01*
X98917142Y-141835238D01*
X98821904Y-141930476D01*
X98726666Y-141978095D01*
X100250476Y-142692380D02*
X99679047Y-142692380D01*
X99964761Y-142692380D02*
X99964761Y-141692380D01*
X99869523Y-141835238D01*
X99774285Y-141930476D01*
X99679047Y-141978095D01*
G04 #@! TO.C,F12*
X98250476Y-156138571D02*
X97917142Y-156138571D01*
X97917142Y-156662380D02*
X97917142Y-155662380D01*
X98393333Y-155662380D01*
X99298095Y-156662380D02*
X98726666Y-156662380D01*
X99012380Y-156662380D02*
X99012380Y-155662380D01*
X98917142Y-155805238D01*
X98821904Y-155900476D01*
X98726666Y-155948095D01*
X99679047Y-155757619D02*
X99726666Y-155710000D01*
X99821904Y-155662380D01*
X100060000Y-155662380D01*
X100155238Y-155710000D01*
X100202857Y-155757619D01*
X100250476Y-155852857D01*
X100250476Y-155948095D01*
X100202857Y-156090952D01*
X99631428Y-156662380D01*
X100250476Y-156662380D01*
G04 #@! TO.C,J13*
X149050476Y-82002380D02*
X149050476Y-82716666D01*
X149002857Y-82859523D01*
X148907619Y-82954761D01*
X148764761Y-83002380D01*
X148669523Y-83002380D01*
X150050476Y-83002380D02*
X149479047Y-83002380D01*
X149764761Y-83002380D02*
X149764761Y-82002380D01*
X149669523Y-82145238D01*
X149574285Y-82240476D01*
X149479047Y-82288095D01*
X150383809Y-82002380D02*
X151002857Y-82002380D01*
X150669523Y-82383333D01*
X150812380Y-82383333D01*
X150907619Y-82430952D01*
X150955238Y-82478571D01*
X151002857Y-82573809D01*
X151002857Y-82811904D01*
X150955238Y-82907142D01*
X150907619Y-82954761D01*
X150812380Y-83002380D01*
X150526666Y-83002380D01*
X150431428Y-82954761D01*
X150383809Y-82907142D01*
G04 #@! TO.C,K1*
X103401904Y-84272380D02*
X103401904Y-83272380D01*
X103973333Y-84272380D02*
X103544761Y-83700952D01*
X103973333Y-83272380D02*
X103401904Y-83843809D01*
X104925714Y-84272380D02*
X104354285Y-84272380D01*
X104640000Y-84272380D02*
X104640000Y-83272380D01*
X104544761Y-83415238D01*
X104449523Y-83510476D01*
X104354285Y-83558095D01*
G04 #@! TO.C,J1*
X51736666Y-95972380D02*
X51736666Y-96686666D01*
X51689047Y-96829523D01*
X51593809Y-96924761D01*
X51450952Y-96972380D01*
X51355714Y-96972380D01*
X52736666Y-96972380D02*
X52165238Y-96972380D01*
X52450952Y-96972380D02*
X52450952Y-95972380D01*
X52355714Y-96115238D01*
X52260476Y-96210476D01*
X52165238Y-96258095D01*
G04 #@! TO.C,J2*
X51736666Y-109942380D02*
X51736666Y-110656666D01*
X51689047Y-110799523D01*
X51593809Y-110894761D01*
X51450952Y-110942380D01*
X51355714Y-110942380D01*
X52165238Y-110037619D02*
X52212857Y-109990000D01*
X52308095Y-109942380D01*
X52546190Y-109942380D01*
X52641428Y-109990000D01*
X52689047Y-110037619D01*
X52736666Y-110132857D01*
X52736666Y-110228095D01*
X52689047Y-110370952D01*
X52117619Y-110942380D01*
X52736666Y-110942380D01*
G04 #@! TO.C,J3*
X51736666Y-123912380D02*
X51736666Y-124626666D01*
X51689047Y-124769523D01*
X51593809Y-124864761D01*
X51450952Y-124912380D01*
X51355714Y-124912380D01*
X52117619Y-123912380D02*
X52736666Y-123912380D01*
X52403333Y-124293333D01*
X52546190Y-124293333D01*
X52641428Y-124340952D01*
X52689047Y-124388571D01*
X52736666Y-124483809D01*
X52736666Y-124721904D01*
X52689047Y-124817142D01*
X52641428Y-124864761D01*
X52546190Y-124912380D01*
X52260476Y-124912380D01*
X52165238Y-124864761D01*
X52117619Y-124817142D01*
G04 #@! TO.C,J4*
X51736666Y-137882380D02*
X51736666Y-138596666D01*
X51689047Y-138739523D01*
X51593809Y-138834761D01*
X51450952Y-138882380D01*
X51355714Y-138882380D01*
X52641428Y-138215714D02*
X52641428Y-138882380D01*
X52403333Y-137834761D02*
X52165238Y-138549047D01*
X52784285Y-138549047D01*
G04 #@! TO.C,J5*
X51736666Y-151852380D02*
X51736666Y-152566666D01*
X51689047Y-152709523D01*
X51593809Y-152804761D01*
X51450952Y-152852380D01*
X51355714Y-152852380D01*
X52689047Y-151852380D02*
X52212857Y-151852380D01*
X52165238Y-152328571D01*
X52212857Y-152280952D01*
X52308095Y-152233333D01*
X52546190Y-152233333D01*
X52641428Y-152280952D01*
X52689047Y-152328571D01*
X52736666Y-152423809D01*
X52736666Y-152661904D01*
X52689047Y-152757142D01*
X52641428Y-152804761D01*
X52546190Y-152852380D01*
X52308095Y-152852380D01*
X52212857Y-152804761D01*
X52165238Y-152757142D01*
G04 #@! TO.C,J6*
X51736666Y-165822380D02*
X51736666Y-166536666D01*
X51689047Y-166679523D01*
X51593809Y-166774761D01*
X51450952Y-166822380D01*
X51355714Y-166822380D01*
X52641428Y-165822380D02*
X52450952Y-165822380D01*
X52355714Y-165870000D01*
X52308095Y-165917619D01*
X52212857Y-166060476D01*
X52165238Y-166250952D01*
X52165238Y-166631904D01*
X52212857Y-166727142D01*
X52260476Y-166774761D01*
X52355714Y-166822380D01*
X52546190Y-166822380D01*
X52641428Y-166774761D01*
X52689047Y-166727142D01*
X52736666Y-166631904D01*
X52736666Y-166393809D01*
X52689047Y-166298571D01*
X52641428Y-166250952D01*
X52546190Y-166203333D01*
X52355714Y-166203333D01*
X52260476Y-166250952D01*
X52212857Y-166298571D01*
X52165238Y-166393809D01*
G04 #@! TO.C,J7*
X143176666Y-95972380D02*
X143176666Y-96686666D01*
X143129047Y-96829523D01*
X143033809Y-96924761D01*
X142890952Y-96972380D01*
X142795714Y-96972380D01*
X143557619Y-95972380D02*
X144224285Y-95972380D01*
X143795714Y-96972380D01*
G04 #@! TO.C,J8*
X143176666Y-109942380D02*
X143176666Y-110656666D01*
X143129047Y-110799523D01*
X143033809Y-110894761D01*
X142890952Y-110942380D01*
X142795714Y-110942380D01*
X143795714Y-110370952D02*
X143700476Y-110323333D01*
X143652857Y-110275714D01*
X143605238Y-110180476D01*
X143605238Y-110132857D01*
X143652857Y-110037619D01*
X143700476Y-109990000D01*
X143795714Y-109942380D01*
X143986190Y-109942380D01*
X144081428Y-109990000D01*
X144129047Y-110037619D01*
X144176666Y-110132857D01*
X144176666Y-110180476D01*
X144129047Y-110275714D01*
X144081428Y-110323333D01*
X143986190Y-110370952D01*
X143795714Y-110370952D01*
X143700476Y-110418571D01*
X143652857Y-110466190D01*
X143605238Y-110561428D01*
X143605238Y-110751904D01*
X143652857Y-110847142D01*
X143700476Y-110894761D01*
X143795714Y-110942380D01*
X143986190Y-110942380D01*
X144081428Y-110894761D01*
X144129047Y-110847142D01*
X144176666Y-110751904D01*
X144176666Y-110561428D01*
X144129047Y-110466190D01*
X144081428Y-110418571D01*
X143986190Y-110370952D01*
G04 #@! TO.C,J9*
X143176666Y-123912380D02*
X143176666Y-124626666D01*
X143129047Y-124769523D01*
X143033809Y-124864761D01*
X142890952Y-124912380D01*
X142795714Y-124912380D01*
X143700476Y-124912380D02*
X143890952Y-124912380D01*
X143986190Y-124864761D01*
X144033809Y-124817142D01*
X144129047Y-124674285D01*
X144176666Y-124483809D01*
X144176666Y-124102857D01*
X144129047Y-124007619D01*
X144081428Y-123960000D01*
X143986190Y-123912380D01*
X143795714Y-123912380D01*
X143700476Y-123960000D01*
X143652857Y-124007619D01*
X143605238Y-124102857D01*
X143605238Y-124340952D01*
X143652857Y-124436190D01*
X143700476Y-124483809D01*
X143795714Y-124531428D01*
X143986190Y-124531428D01*
X144081428Y-124483809D01*
X144129047Y-124436190D01*
X144176666Y-124340952D01*
G04 #@! TO.C,J10*
X142700476Y-137882380D02*
X142700476Y-138596666D01*
X142652857Y-138739523D01*
X142557619Y-138834761D01*
X142414761Y-138882380D01*
X142319523Y-138882380D01*
X143700476Y-138882380D02*
X143129047Y-138882380D01*
X143414761Y-138882380D02*
X143414761Y-137882380D01*
X143319523Y-138025238D01*
X143224285Y-138120476D01*
X143129047Y-138168095D01*
X144319523Y-137882380D02*
X144414761Y-137882380D01*
X144510000Y-137930000D01*
X144557619Y-137977619D01*
X144605238Y-138072857D01*
X144652857Y-138263333D01*
X144652857Y-138501428D01*
X144605238Y-138691904D01*
X144557619Y-138787142D01*
X144510000Y-138834761D01*
X144414761Y-138882380D01*
X144319523Y-138882380D01*
X144224285Y-138834761D01*
X144176666Y-138787142D01*
X144129047Y-138691904D01*
X144081428Y-138501428D01*
X144081428Y-138263333D01*
X144129047Y-138072857D01*
X144176666Y-137977619D01*
X144224285Y-137930000D01*
X144319523Y-137882380D01*
G04 #@! TO.C,J11*
X142700476Y-151852380D02*
X142700476Y-152566666D01*
X142652857Y-152709523D01*
X142557619Y-152804761D01*
X142414761Y-152852380D01*
X142319523Y-152852380D01*
X143700476Y-152852380D02*
X143129047Y-152852380D01*
X143414761Y-152852380D02*
X143414761Y-151852380D01*
X143319523Y-151995238D01*
X143224285Y-152090476D01*
X143129047Y-152138095D01*
X144652857Y-152852380D02*
X144081428Y-152852380D01*
X144367142Y-152852380D02*
X144367142Y-151852380D01*
X144271904Y-151995238D01*
X144176666Y-152090476D01*
X144081428Y-152138095D01*
G04 #@! TO.C,J12*
X142700476Y-165822380D02*
X142700476Y-166536666D01*
X142652857Y-166679523D01*
X142557619Y-166774761D01*
X142414761Y-166822380D01*
X142319523Y-166822380D01*
X143700476Y-166822380D02*
X143129047Y-166822380D01*
X143414761Y-166822380D02*
X143414761Y-165822380D01*
X143319523Y-165965238D01*
X143224285Y-166060476D01*
X143129047Y-166108095D01*
X144081428Y-165917619D02*
X144129047Y-165870000D01*
X144224285Y-165822380D01*
X144462380Y-165822380D01*
X144557619Y-165870000D01*
X144605238Y-165917619D01*
X144652857Y-166012857D01*
X144652857Y-166108095D01*
X144605238Y-166250952D01*
X144033809Y-166822380D01*
X144652857Y-166822380D01*
G04 #@! TO.C,U1*
X69088095Y-71902380D02*
X69088095Y-72711904D01*
X69135714Y-72807142D01*
X69183333Y-72854761D01*
X69278571Y-72902380D01*
X69469047Y-72902380D01*
X69564285Y-72854761D01*
X69611904Y-72807142D01*
X69659523Y-72711904D01*
X69659523Y-71902380D01*
X70659523Y-72902380D02*
X70088095Y-72902380D01*
X70373809Y-72902380D02*
X70373809Y-71902380D01*
X70278571Y-72045238D01*
X70183333Y-72140476D01*
X70088095Y-72188095D01*
G04 #@! TO.C,D1*
X47566380Y-58396095D02*
X46566380Y-58396095D01*
X46566380Y-58158000D01*
X46614000Y-58015142D01*
X46709238Y-57919904D01*
X46804476Y-57872285D01*
X46994952Y-57824666D01*
X47137809Y-57824666D01*
X47328285Y-57872285D01*
X47423523Y-57919904D01*
X47518761Y-58015142D01*
X47566380Y-58158000D01*
X47566380Y-58396095D01*
X47566380Y-56872285D02*
X47566380Y-57443714D01*
X47566380Y-57158000D02*
X46566380Y-57158000D01*
X46709238Y-57253238D01*
X46804476Y-57348476D01*
X46852095Y-57443714D01*
G04 #@! TO.C,R1*
X50416380Y-61550666D02*
X49940190Y-61884000D01*
X50416380Y-62122095D02*
X49416380Y-62122095D01*
X49416380Y-61741142D01*
X49464000Y-61645904D01*
X49511619Y-61598285D01*
X49606857Y-61550666D01*
X49749714Y-61550666D01*
X49844952Y-61598285D01*
X49892571Y-61645904D01*
X49940190Y-61741142D01*
X49940190Y-62122095D01*
X50416380Y-60598285D02*
X50416380Y-61169714D01*
X50416380Y-60884000D02*
X49416380Y-60884000D01*
X49559238Y-60979238D01*
X49654476Y-61074476D01*
X49702095Y-61169714D01*
G04 #@! TO.C,R2*
X52411333Y-63190380D02*
X52078000Y-62714190D01*
X51839904Y-63190380D02*
X51839904Y-62190380D01*
X52220857Y-62190380D01*
X52316095Y-62238000D01*
X52363714Y-62285619D01*
X52411333Y-62380857D01*
X52411333Y-62523714D01*
X52363714Y-62618952D01*
X52316095Y-62666571D01*
X52220857Y-62714190D01*
X51839904Y-62714190D01*
X52792285Y-62285619D02*
X52839904Y-62238000D01*
X52935142Y-62190380D01*
X53173238Y-62190380D01*
X53268476Y-62238000D01*
X53316095Y-62285619D01*
X53363714Y-62380857D01*
X53363714Y-62476095D01*
X53316095Y-62618952D01*
X52744666Y-63190380D01*
X53363714Y-63190380D01*
G04 #@! TO.C,R3*
X54697333Y-63190380D02*
X54364000Y-62714190D01*
X54125904Y-63190380D02*
X54125904Y-62190380D01*
X54506857Y-62190380D01*
X54602095Y-62238000D01*
X54649714Y-62285619D01*
X54697333Y-62380857D01*
X54697333Y-62523714D01*
X54649714Y-62618952D01*
X54602095Y-62666571D01*
X54506857Y-62714190D01*
X54125904Y-62714190D01*
X55030666Y-62190380D02*
X55649714Y-62190380D01*
X55316380Y-62571333D01*
X55459238Y-62571333D01*
X55554476Y-62618952D01*
X55602095Y-62666571D01*
X55649714Y-62761809D01*
X55649714Y-62999904D01*
X55602095Y-63095142D01*
X55554476Y-63142761D01*
X55459238Y-63190380D01*
X55173523Y-63190380D01*
X55078285Y-63142761D01*
X55030666Y-63095142D01*
G04 #@! TO.C,R4*
X56983333Y-63190380D02*
X56650000Y-62714190D01*
X56411904Y-63190380D02*
X56411904Y-62190380D01*
X56792857Y-62190380D01*
X56888095Y-62238000D01*
X56935714Y-62285619D01*
X56983333Y-62380857D01*
X56983333Y-62523714D01*
X56935714Y-62618952D01*
X56888095Y-62666571D01*
X56792857Y-62714190D01*
X56411904Y-62714190D01*
X57840476Y-62523714D02*
X57840476Y-63190380D01*
X57602380Y-62142761D02*
X57364285Y-62857047D01*
X57983333Y-62857047D01*
G04 #@! TO.C,SW1*
X57721666Y-42949761D02*
X57864523Y-42997380D01*
X58102619Y-42997380D01*
X58197857Y-42949761D01*
X58245476Y-42902142D01*
X58293095Y-42806904D01*
X58293095Y-42711666D01*
X58245476Y-42616428D01*
X58197857Y-42568809D01*
X58102619Y-42521190D01*
X57912142Y-42473571D01*
X57816904Y-42425952D01*
X57769285Y-42378333D01*
X57721666Y-42283095D01*
X57721666Y-42187857D01*
X57769285Y-42092619D01*
X57816904Y-42045000D01*
X57912142Y-41997380D01*
X58150238Y-41997380D01*
X58293095Y-42045000D01*
X58626428Y-41997380D02*
X58864523Y-42997380D01*
X59055000Y-42283095D01*
X59245476Y-42997380D01*
X59483571Y-41997380D01*
X60388333Y-42997380D02*
X59816904Y-42997380D01*
X60102619Y-42997380D02*
X60102619Y-41997380D01*
X60007380Y-42140238D01*
X59912142Y-42235476D01*
X59816904Y-42283095D01*
G04 #@! TO.C,J15*
X55705476Y-65067380D02*
X55705476Y-65781666D01*
X55657857Y-65924523D01*
X55562619Y-66019761D01*
X55419761Y-66067380D01*
X55324523Y-66067380D01*
X56705476Y-66067380D02*
X56134047Y-66067380D01*
X56419761Y-66067380D02*
X56419761Y-65067380D01*
X56324523Y-65210238D01*
X56229285Y-65305476D01*
X56134047Y-65353095D01*
X57610238Y-65067380D02*
X57134047Y-65067380D01*
X57086428Y-65543571D01*
X57134047Y-65495952D01*
X57229285Y-65448333D01*
X57467380Y-65448333D01*
X57562619Y-65495952D01*
X57610238Y-65543571D01*
X57657857Y-65638809D01*
X57657857Y-65876904D01*
X57610238Y-65972142D01*
X57562619Y-66019761D01*
X57467380Y-66067380D01*
X57229285Y-66067380D01*
X57134047Y-66019761D01*
X57086428Y-65972142D01*
G04 #@! TD*
M02*
