%TF.GenerationSoftware,KiCad,Pcbnew,6.0.1-79c1e3a40b~116~ubuntu21.10.1*%
%TF.CreationDate,2022-02-21T13:22:11-07:00*%
%TF.ProjectId,PowerBackup,506f7765-7242-4616-936b-75702e6b6963,rev?*%
%TF.SameCoordinates,Original*%
%TF.FileFunction,Copper,L4,Bot*%
%TF.FilePolarity,Positive*%
%FSLAX46Y46*%
G04 Gerber Fmt 4.6, Leading zero omitted, Abs format (unit mm)*
G04 Created by KiCad (PCBNEW 6.0.1-79c1e3a40b~116~ubuntu21.10.1) date 2022-02-21 13:22:11*
%MOMM*%
%LPD*%
G01*
G04 APERTURE LIST*
G04 Aperture macros list*
%AMRoundRect*
0 Rectangle with rounded corners*
0 $1 Rounding radius*
0 $2 $3 $4 $5 $6 $7 $8 $9 X,Y pos of 4 corners*
0 Add a 4 corners polygon primitive as box body*
4,1,4,$2,$3,$4,$5,$6,$7,$8,$9,$2,$3,0*
0 Add four circle primitives for the rounded corners*
1,1,$1+$1,$2,$3*
1,1,$1+$1,$4,$5*
1,1,$1+$1,$6,$7*
1,1,$1+$1,$8,$9*
0 Add four rect primitives between the rounded corners*
20,1,$1+$1,$2,$3,$4,$5,0*
20,1,$1+$1,$4,$5,$6,$7,0*
20,1,$1+$1,$6,$7,$8,$9,0*
20,1,$1+$1,$8,$9,$2,$3,0*%
G04 Aperture macros list end*
%TA.AperFunction,ComponentPad*%
%ADD10R,1.800000X1.800000*%
%TD*%
%TA.AperFunction,ComponentPad*%
%ADD11O,1.800000X1.800000*%
%TD*%
%TA.AperFunction,ComponentPad*%
%ADD12RoundRect,0.250000X0.750000X-0.600000X0.750000X0.600000X-0.750000X0.600000X-0.750000X-0.600000X0*%
%TD*%
%TA.AperFunction,ComponentPad*%
%ADD13O,2.000000X1.700000*%
%TD*%
%TA.AperFunction,ComponentPad*%
%ADD14C,0.700000*%
%TD*%
%TA.AperFunction,ComponentPad*%
%ADD15RoundRect,0.250000X0.600000X0.750000X-0.600000X0.750000X-0.600000X-0.750000X0.600000X-0.750000X0*%
%TD*%
%TA.AperFunction,ComponentPad*%
%ADD16O,1.700000X2.000000*%
%TD*%
%TA.AperFunction,ComponentPad*%
%ADD17RoundRect,0.250000X-0.725000X0.600000X-0.725000X-0.600000X0.725000X-0.600000X0.725000X0.600000X0*%
%TD*%
%TA.AperFunction,ComponentPad*%
%ADD18O,1.950000X1.700000*%
%TD*%
%TA.AperFunction,ComponentPad*%
%ADD19C,5.400000*%
%TD*%
%TA.AperFunction,ComponentPad*%
%ADD20RoundRect,0.250000X-0.600000X-0.750000X0.600000X-0.750000X0.600000X0.750000X-0.600000X0.750000X0*%
%TD*%
%TA.AperFunction,SMDPad,CuDef*%
%ADD21RoundRect,0.250000X0.925000X-0.787500X0.925000X0.787500X-0.925000X0.787500X-0.925000X-0.787500X0*%
%TD*%
%TA.AperFunction,SMDPad,CuDef*%
%ADD22RoundRect,0.225000X0.225000X0.250000X-0.225000X0.250000X-0.225000X-0.250000X0.225000X-0.250000X0*%
%TD*%
%TA.AperFunction,SMDPad,CuDef*%
%ADD23RoundRect,0.250000X0.262500X0.450000X-0.262500X0.450000X-0.262500X-0.450000X0.262500X-0.450000X0*%
%TD*%
%TA.AperFunction,SMDPad,CuDef*%
%ADD24RoundRect,0.250000X0.787500X0.925000X-0.787500X0.925000X-0.787500X-0.925000X0.787500X-0.925000X0*%
%TD*%
%TA.AperFunction,SMDPad,CuDef*%
%ADD25RoundRect,0.225000X-0.250000X0.225000X-0.250000X-0.225000X0.250000X-0.225000X0.250000X0.225000X0*%
%TD*%
%TA.AperFunction,SMDPad,CuDef*%
%ADD26RoundRect,0.225000X0.250000X-0.225000X0.250000X0.225000X-0.250000X0.225000X-0.250000X-0.225000X0*%
%TD*%
%TA.AperFunction,SMDPad,CuDef*%
%ADD27RoundRect,0.062500X0.375000X0.062500X-0.375000X0.062500X-0.375000X-0.062500X0.375000X-0.062500X0*%
%TD*%
%TA.AperFunction,SMDPad,CuDef*%
%ADD28RoundRect,0.062500X0.062500X0.375000X-0.062500X0.375000X-0.062500X-0.375000X0.062500X-0.375000X0*%
%TD*%
%TA.AperFunction,SMDPad,CuDef*%
%ADD29R,2.500000X2.500000*%
%TD*%
%TA.AperFunction,SMDPad,CuDef*%
%ADD30RoundRect,0.150000X-0.625000X0.150000X-0.625000X-0.150000X0.625000X-0.150000X0.625000X0.150000X0*%
%TD*%
%TA.AperFunction,SMDPad,CuDef*%
%ADD31RoundRect,0.250000X-0.650000X0.350000X-0.650000X-0.350000X0.650000X-0.350000X0.650000X0.350000X0*%
%TD*%
%TA.AperFunction,SMDPad,CuDef*%
%ADD32RoundRect,0.150000X0.625000X-0.150000X0.625000X0.150000X-0.625000X0.150000X-0.625000X-0.150000X0*%
%TD*%
%TA.AperFunction,SMDPad,CuDef*%
%ADD33RoundRect,0.250000X0.650000X-0.350000X0.650000X0.350000X-0.650000X0.350000X-0.650000X-0.350000X0*%
%TD*%
%TA.AperFunction,SMDPad,CuDef*%
%ADD34R,6.700000X2.500000*%
%TD*%
%TA.AperFunction,ViaPad*%
%ADD35C,0.800000*%
%TD*%
%TA.AperFunction,Conductor*%
%ADD36C,0.150000*%
%TD*%
%TA.AperFunction,Conductor*%
%ADD37C,1.000000*%
%TD*%
%TA.AperFunction,Conductor*%
%ADD38C,0.250000*%
%TD*%
%TA.AperFunction,Conductor*%
%ADD39C,0.500000*%
%TD*%
%TA.AperFunction,Conductor*%
%ADD40C,0.300000*%
%TD*%
G04 APERTURE END LIST*
D10*
%TO.P,D1,1,K*%
%TO.N,+9VA*%
X134635000Y-83100000D03*
D11*
%TO.P,D1,2,A*%
%TO.N,+9V*%
X139715000Y-83100000D03*
%TD*%
D12*
%TO.P,J6,1,Pin_1*%
%TO.N,Net-(J5-Pad4)*%
X148325000Y-93025000D03*
D13*
%TO.P,J6,2,Pin_2*%
%TO.N,Net-(J5-Pad3)*%
X148325000Y-90525000D03*
%TD*%
D12*
%TO.P,J8,1,Pin_1*%
%TO.N,+5V*%
X113521000Y-107930000D03*
D13*
%TO.P,J8,2,Pin_2*%
%TO.N,GND*%
X113521000Y-105430000D03*
%TD*%
D14*
%TO.P,U2,2,PGND*%
%TO.N,GND*%
X119946000Y-93556000D03*
X119946000Y-91356000D03*
X120746000Y-91356000D03*
X120746000Y-93556000D03*
%TO.P,U2,11,SW*%
%TO.N,/Backup/SW*%
X122126000Y-92956000D03*
X123086000Y-92956000D03*
X124046000Y-92936000D03*
%TO.P,U2,15,PVIN*%
%TO.N,+9VA*%
X122116000Y-90806000D03*
X123076000Y-90806000D03*
X124036000Y-90786000D03*
%TD*%
D10*
%TO.P,D2,1,K*%
%TO.N,+9VA*%
X131365000Y-85600000D03*
D11*
%TO.P,D2,2,A*%
%TO.N,/Backup/VBAT*%
X126285000Y-85600000D03*
%TD*%
D15*
%TO.P,J9,1,Pin_1*%
%TO.N,+5V*%
X123932000Y-115333000D03*
D16*
%TO.P,J9,2,Pin_2*%
%TO.N,GND*%
X121432000Y-115333000D03*
%TD*%
D17*
%TO.P,J2,1,Pin_1*%
%TO.N,Net-(J2-Pad1)*%
X147628764Y-99960836D03*
D18*
%TO.P,J2,2,Pin_2*%
%TO.N,Net-(J2-Pad2)*%
X147628764Y-102460836D03*
%TO.P,J2,3,Pin_3*%
%TO.N,Net-(J2-Pad3)*%
X147628764Y-104960836D03*
%TO.P,J2,4,Pin_4*%
%TO.N,Net-(J2-Pad4)*%
X147628764Y-107460836D03*
%TO.P,J2,5,Pin_5*%
%TO.N,Net-(J2-Pad5)*%
X147628764Y-109960836D03*
%TO.P,J2,6,Pin_6*%
%TO.N,Net-(J2-Pad6)*%
X147628764Y-112460836D03*
%TO.P,J2,7,Pin_7*%
%TO.N,GND*%
X147628764Y-114960836D03*
%TD*%
D19*
%TO.P,H3,1,1*%
%TO.N,GND*%
X130048000Y-114046000D03*
%TD*%
%TO.P,H1,1,1*%
%TO.N,GND*%
X115062000Y-82423000D03*
%TD*%
D20*
%TO.P,J7,1,Pin_1*%
%TO.N,/Backup/VBAT*%
X127150000Y-79775000D03*
D16*
%TO.P,J7,2,Pin_2*%
%TO.N,GND*%
X129650000Y-79775000D03*
%TD*%
D19*
%TO.P,H2,1,1*%
%TO.N,GND*%
X146050000Y-82423000D03*
%TD*%
D15*
%TO.P,J10,1,Pin_1*%
%TO.N,+5V*%
X115550000Y-115333000D03*
D16*
%TO.P,J10,2,Pin_2*%
%TO.N,GND*%
X113050000Y-115333000D03*
%TD*%
D21*
%TO.P,C22,1*%
%TO.N,+5V*%
X116840000Y-108380500D03*
%TO.P,C22,2*%
%TO.N,GND*%
X116840000Y-103455500D03*
%TD*%
D15*
%TO.P,J1,1,Pin_1*%
%TO.N,+9V*%
X139954000Y-80010000D03*
D16*
%TO.P,J1,2,Pin_2*%
%TO.N,GND*%
X137454000Y-80010000D03*
%TD*%
D22*
%TO.P,C20,1*%
%TO.N,+5V*%
X115075000Y-117094000D03*
%TO.P,C20,2*%
%TO.N,GND*%
X113525000Y-117094000D03*
%TD*%
D23*
%TO.P,R1,1*%
%TO.N,Net-(J2-Pad1)*%
X145162500Y-100000000D03*
%TO.P,R1,2*%
%TO.N,Net-(C7-Pad1)*%
X143337500Y-100000000D03*
%TD*%
%TO.P,R7,1*%
%TO.N,Net-(J2-Pad6)*%
X145266000Y-112446000D03*
%TO.P,R7,2*%
%TO.N,Net-(C2-Pad1)*%
X143441000Y-112446000D03*
%TD*%
D24*
%TO.P,C23,1*%
%TO.N,+5V*%
X117016500Y-112268000D03*
%TO.P,C23,2*%
%TO.N,GND*%
X112091500Y-112268000D03*
%TD*%
D25*
%TO.P,C21,1*%
%TO.N,+5V*%
X125984000Y-115303000D03*
%TO.P,C21,2*%
%TO.N,GND*%
X125984000Y-116853000D03*
%TD*%
D24*
%TO.P,C24,1*%
%TO.N,+5V*%
X124890500Y-112268000D03*
%TO.P,C24,2*%
%TO.N,GND*%
X119965500Y-112268000D03*
%TD*%
D23*
%TO.P,R4,1*%
%TO.N,GND*%
X145266000Y-114986000D03*
%TO.P,R4,2*%
%TO.N,Net-(C1-Pad1)*%
X143441000Y-114986000D03*
%TD*%
D26*
%TO.P,C19,1*%
%TO.N,+5V*%
X111506000Y-107709000D03*
%TO.P,C19,2*%
%TO.N,GND*%
X111506000Y-106159000D03*
%TD*%
D25*
%TO.P,C13,1*%
%TO.N,Net-(C13-Pad1)*%
X126238000Y-88633000D03*
%TO.P,C13,2*%
%TO.N,/Backup/SW*%
X126238000Y-90183000D03*
%TD*%
D23*
%TO.P,R5,1*%
%TO.N,Net-(J2-Pad4)*%
X145266000Y-107112000D03*
%TO.P,R5,2*%
%TO.N,Net-(C4-Pad1)*%
X143441000Y-107112000D03*
%TD*%
D27*
%TO.P,U1,1,VCTL*%
%TO.N,Net-(Q1-Pad1)*%
X138437500Y-104000000D03*
%TO.P,U1,2,BAT*%
%TO.N,Net-(C8-Pad1)*%
X138437500Y-104500000D03*
%TO.P,U1,3,VC6*%
%TO.N,Net-(C7-Pad1)*%
X138437500Y-105000000D03*
%TO.P,U1,4,VC5*%
%TO.N,Net-(C6-Pad1)*%
X138437500Y-105500000D03*
%TO.P,U1,5,VC4*%
%TO.N,Net-(C5-Pad1)*%
X138437500Y-106000000D03*
%TO.P,U1,6,VC3*%
%TO.N,Net-(C4-Pad1)*%
X138437500Y-106500000D03*
D28*
%TO.P,U1,7,VC2*%
%TO.N,Net-(C3-Pad1)*%
X137750000Y-107187500D03*
%TO.P,U1,8,VC1*%
%TO.N,Net-(C2-Pad1)*%
X137250000Y-107187500D03*
%TO.P,U1,9,VC0*%
%TO.N,Net-(C1-Pad1)*%
X136750000Y-107187500D03*
%TO.P,U1,10,VSS*%
%TO.N,GNDS*%
X136250000Y-107187500D03*
%TO.P,U1,11,SENSEN*%
%TO.N,Net-(R9-Pad1)*%
X135750000Y-107187500D03*
%TO.P,U1,12,SENSP*%
%TO.N,Net-(R12-Pad1)*%
X135250000Y-107187500D03*
D27*
%TO.P,U1,13,ALERT*%
%TO.N,Net-(J4-Pad5)*%
X134562500Y-106500000D03*
%TO.P,U1,14,VIOUT*%
%TO.N,Net-(J4-Pad4)*%
X134562500Y-106000000D03*
%TO.P,U1,15,VCOUT*%
%TO.N,Net-(J4-Pad3)*%
X134562500Y-105500000D03*
%TO.P,U1,16,VTB*%
%TO.N,Net-(R14-Pad1)*%
X134562500Y-105000000D03*
%TO.P,U1,17,VREF*%
%TO.N,Net-(J4-Pad1)*%
X134562500Y-104500000D03*
%TO.P,U1,18,SDA*%
%TO.N,Net-(J3-Pad3)*%
X134562500Y-104000000D03*
D28*
%TO.P,U1,19,SCL*%
%TO.N,Net-(J3-Pad4)*%
X135250000Y-103312500D03*
%TO.P,U1,20,V3P3*%
%TO.N,+3V3*%
X135750000Y-103312500D03*
%TO.P,U1,21,NC*%
%TO.N,unconnected-(U1-Pad21)*%
X136250000Y-103312500D03*
%TO.P,U1,22,NC*%
%TO.N,unconnected-(U1-Pad22)*%
X136750000Y-103312500D03*
%TO.P,U1,23*%
%TO.N,N/C*%
X137250000Y-103312500D03*
%TO.P,U1,24*%
X137750000Y-103312500D03*
D29*
%TO.P,U1,25*%
X136500000Y-105250000D03*
%TD*%
D23*
%TO.P,R6,1*%
%TO.N,Net-(J2-Pad2)*%
X145266000Y-102286000D03*
%TO.P,R6,2*%
%TO.N,Net-(C6-Pad1)*%
X143441000Y-102286000D03*
%TD*%
D30*
%TO.P,J5,1,Pin_1*%
%TO.N,GNDS*%
X145875000Y-90575000D03*
%TO.P,J5,2,Pin_2*%
%TO.N,+3V3*%
X145875000Y-91575000D03*
%TO.P,J5,3,Pin_4*%
%TO.N,Net-(J5-Pad3)*%
X145875000Y-92575000D03*
%TO.P,J5,4,Pin_3*%
%TO.N,Net-(J5-Pad4)*%
X145875000Y-93575000D03*
D31*
%TO.P,J5,MP*%
%TO.N,N/C*%
X143350000Y-94875000D03*
X143350000Y-89275000D03*
%TD*%
D23*
%TO.P,R2,1*%
%TO.N,Net-(J2-Pad3)*%
X145266000Y-104826000D03*
%TO.P,R2,2*%
%TO.N,Net-(C5-Pad1)*%
X143441000Y-104826000D03*
%TD*%
%TO.P,R14,1*%
%TO.N,Net-(R14-Pad1)*%
X131912500Y-105600000D03*
%TO.P,R14,2*%
%TO.N,Net-(J4-Pad2)*%
X130087500Y-105600000D03*
%TD*%
D32*
%TO.P,J3,1,Pin_1*%
%TO.N,GNDS*%
X137725000Y-93575000D03*
%TO.P,J3,2,Pin_2*%
%TO.N,+3V3*%
X137725000Y-92575000D03*
%TO.P,J3,3,Pin_4*%
%TO.N,Net-(J3-Pad3)*%
X137725000Y-91575000D03*
%TO.P,J3,4,Pin_3*%
%TO.N,Net-(J3-Pad4)*%
X137725000Y-90575000D03*
D33*
%TO.P,J3,MP*%
%TO.N,N/C*%
X140250000Y-94875000D03*
X140250000Y-89275000D03*
%TD*%
D23*
%TO.P,R3,1*%
%TO.N,Net-(J2-Pad5)*%
X145266000Y-109906000D03*
%TO.P,R3,2*%
%TO.N,Net-(C3-Pad1)*%
X143441000Y-109906000D03*
%TD*%
D34*
%TO.P,L1,1*%
%TO.N,/Backup/SW*%
X128270000Y-93108000D03*
%TO.P,L1,2*%
%TO.N,+5V*%
X128270000Y-98408000D03*
%TD*%
D35*
%TO.N,Net-(C1-Pad1)*%
X141738997Y-114079341D03*
%TO.N,GND*%
X137922000Y-116586000D03*
X121412000Y-117094000D03*
X111506000Y-104648000D03*
X137922000Y-115570000D03*
X135382000Y-87122000D03*
X116078000Y-105410000D03*
X136652000Y-115570000D03*
X133604000Y-115570000D03*
X129600000Y-95000000D03*
X129000000Y-96500000D03*
X124714000Y-117094000D03*
X130500000Y-96500000D03*
X113792000Y-111252000D03*
X134112000Y-116586000D03*
X121666000Y-113538000D03*
X135382000Y-116586000D03*
X135636000Y-115570000D03*
X119888000Y-114300000D03*
X112268000Y-117094000D03*
X113792000Y-112522000D03*
X134620000Y-115570000D03*
X122936000Y-96266000D03*
X117602000Y-105410000D03*
X136652000Y-116586000D03*
X130500000Y-95000000D03*
X120396000Y-87630000D03*
X124206000Y-96266000D03*
X112014000Y-87884000D03*
X128600000Y-95000000D03*
%TO.N,Net-(C2-Pad1)*%
X141750000Y-112000000D03*
%TO.N,Net-(C3-Pad1)*%
X141750000Y-108750000D03*
%TO.N,Net-(C4-Pad1)*%
X141750000Y-106500000D03*
%TO.N,Net-(C5-Pad1)*%
X141897152Y-103880011D03*
%TO.N,Net-(C6-Pad1)*%
X141897152Y-101630011D03*
%TO.N,Net-(C7-Pad1)*%
X141750000Y-99500000D03*
%TO.N,Net-(C8-Pad1)*%
X139446462Y-103683512D03*
%TO.N,+3V3*%
X136125000Y-100575000D03*
X138025000Y-96850000D03*
X135745393Y-102436653D03*
X144865900Y-91522347D03*
%TO.N,Net-(J4-Pad1)*%
X132381364Y-104144093D03*
%TO.N,Net-(J4-Pad2)*%
X128800000Y-105400000D03*
%TO.N,Net-(J4-Pad3)*%
X132916194Y-106465069D03*
%TO.N,Net-(J4-Pad4)*%
X133011743Y-107459994D03*
%TO.N,Net-(J4-Pad5)*%
X130800000Y-107400000D03*
%TO.N,Net-(J5-Pad4)*%
X144505804Y-93652585D03*
%TO.N,Net-(J5-Pad3)*%
X144300000Y-92674500D03*
%TO.N,Net-(Q1-Pad1)*%
X138474500Y-103450500D03*
X138300000Y-101850000D03*
X134925000Y-97275000D03*
%TO.N,Net-(R9-Pad1)*%
X135400000Y-108400000D03*
%TO.N,Net-(R12-Pad1)*%
X134286731Y-108626703D03*
%TO.N,Net-(J3-Pad4)*%
X133593956Y-101810318D03*
X139225000Y-90625000D03*
%TO.N,Net-(J3-Pad3)*%
X140049500Y-91525000D03*
X132675000Y-99550000D03*
X131589202Y-103401963D03*
%TO.N,GNDS*%
X131826000Y-109728000D03*
X146200000Y-89250000D03*
X113030000Y-96012000D03*
X136400000Y-108400000D03*
X146525000Y-96300000D03*
X113030000Y-92964000D03*
X137800000Y-94625000D03*
X139954000Y-116840000D03*
X140462000Y-86360000D03*
X136500000Y-88000000D03*
X111500000Y-94488000D03*
X116078000Y-90170000D03*
X131318000Y-110490000D03*
X114500000Y-97282000D03*
X113030000Y-97282000D03*
X139192000Y-86360000D03*
X132500000Y-95500000D03*
X137922000Y-86360000D03*
X111506000Y-96012000D03*
X114500000Y-93000000D03*
X128778000Y-110744000D03*
X114500000Y-94500000D03*
X136500000Y-89500000D03*
X113000000Y-94488000D03*
X111506000Y-97282000D03*
X139446000Y-109220000D03*
X115570000Y-88646000D03*
X130810000Y-109728000D03*
X141732000Y-86360000D03*
X114500000Y-96012000D03*
X111500000Y-92964000D03*
X149352000Y-96266000D03*
%TO.N,Net-(C13-Pad1)*%
X125222000Y-87884000D03*
%TO.N,+5V*%
X115316000Y-111252000D03*
X112014000Y-100584000D03*
X111760000Y-108966000D03*
X122428000Y-110998000D03*
X118872000Y-107950000D03*
X122000000Y-102000000D03*
X130302000Y-100584000D03*
X127000000Y-110998000D03*
X128778000Y-101600000D03*
X118872000Y-109220000D03*
X126500000Y-99000000D03*
X128270000Y-100584000D03*
X122428000Y-112014000D03*
X116332000Y-117094000D03*
X129286000Y-100584000D03*
X115316000Y-112522000D03*
X129794000Y-101600000D03*
X114808000Y-100584000D03*
X123500000Y-102000000D03*
X127500000Y-99000000D03*
X113284000Y-100584000D03*
%TO.N,Net-(C15-Pad2)*%
X116332000Y-91440000D03*
X119380000Y-99314000D03*
%TO.N,Net-(R19-Pad2)*%
X113792000Y-91440000D03*
X121920000Y-86106000D03*
%TO.N,/Backup/SW*%
X132500000Y-93000000D03*
X119333510Y-88900239D03*
X129500000Y-91000000D03*
X134000000Y-91000000D03*
X135500000Y-93000000D03*
X128000000Y-91000000D03*
X135500000Y-91000000D03*
X132500000Y-91000000D03*
X131000000Y-91000000D03*
X134000000Y-93000000D03*
%TO.N,/Backup/PVDD*%
X119380000Y-96266000D03*
X117856000Y-88392000D03*
X118110000Y-96266000D03*
%TD*%
D36*
%TO.N,Net-(C1-Pad1)*%
X136750000Y-107601618D02*
X140250000Y-111101618D01*
X142645656Y-114986000D02*
X141738997Y-114079341D01*
X136750000Y-107187500D02*
X136750000Y-107601618D01*
X140250000Y-111101618D02*
X140250000Y-112590344D01*
X143441000Y-114986000D02*
X142645656Y-114986000D01*
X140250000Y-112590344D02*
X141738997Y-114079341D01*
%TO.N,GND*%
X145291164Y-114960836D02*
X147628764Y-114960836D01*
X145266000Y-114986000D02*
X145291164Y-114960836D01*
%TO.N,Net-(C2-Pad1)*%
X141750000Y-110500000D02*
X141750000Y-112000000D01*
X141750000Y-112000000D02*
X142196000Y-112446000D01*
X138148382Y-108500000D02*
X139750000Y-108500000D01*
X137250000Y-107601618D02*
X138148382Y-108500000D01*
X137250000Y-107187500D02*
X137250000Y-107601618D01*
X142196000Y-112446000D02*
X143441000Y-112446000D01*
X139750000Y-108500000D02*
X141750000Y-110500000D01*
%TO.N,Net-(C3-Pad1)*%
X140250000Y-107250000D02*
X141750000Y-108750000D01*
X142906000Y-109906000D02*
X143441000Y-109906000D01*
X141750000Y-108750000D02*
X142906000Y-109906000D01*
X137750000Y-107187500D02*
X137812500Y-107250000D01*
X137812500Y-107250000D02*
X140250000Y-107250000D01*
%TO.N,Net-(C4-Pad1)*%
X142362000Y-107112000D02*
X141750000Y-106500000D01*
X143441000Y-107112000D02*
X142362000Y-107112000D01*
X138437500Y-106500000D02*
X141750000Y-106500000D01*
%TO.N,Net-(C5-Pad1)*%
X139777163Y-106000000D02*
X138437500Y-106000000D01*
X141897152Y-103880011D02*
X139777163Y-106000000D01*
X141897152Y-103880011D02*
X142843141Y-104826000D01*
X142843141Y-104826000D02*
X143441000Y-104826000D01*
%TO.N,Net-(C6-Pad1)*%
X143441000Y-102286000D02*
X142553141Y-102286000D01*
X139250000Y-105500000D02*
X138437500Y-105500000D01*
X142553141Y-102286000D02*
X141897152Y-101630011D01*
X141000000Y-103750000D02*
X139250000Y-105500000D01*
X141000000Y-102527163D02*
X141000000Y-103750000D01*
X141897152Y-101630011D02*
X141000000Y-102527163D01*
%TO.N,Net-(C7-Pad1)*%
X140120963Y-103404123D02*
X140095476Y-103378636D01*
X143337500Y-100000000D02*
X142837500Y-99500000D01*
X140120963Y-103962901D02*
X140120963Y-103404123D01*
X140095476Y-101154524D02*
X141750000Y-99500000D01*
X139083864Y-105000000D02*
X140120963Y-103962901D01*
X138437500Y-105000000D02*
X139083864Y-105000000D01*
X140095476Y-103378636D02*
X140095476Y-101154524D01*
X142837500Y-99500000D02*
X141750000Y-99500000D01*
%TO.N,Net-(C8-Pad1)*%
X138437500Y-104500000D02*
X138851618Y-104500000D01*
X138851618Y-104500000D02*
X139446462Y-103905156D01*
X139446462Y-103905156D02*
X139446462Y-103683512D01*
D37*
%TO.N,+3V3*%
X142575000Y-91575000D02*
X145875000Y-91575000D01*
X139544556Y-92575000D02*
X139594067Y-92624511D01*
X138025000Y-97300000D02*
X136125000Y-99200000D01*
X138025000Y-96850000D02*
X138025000Y-97300000D01*
D36*
X135750000Y-103312500D02*
X135750000Y-102441260D01*
X135750000Y-102441260D02*
X135745393Y-102436653D01*
D37*
X139594067Y-92624511D02*
X141525489Y-92624511D01*
X141525489Y-92624511D02*
X142575000Y-91575000D01*
X136125000Y-99200000D02*
X136125000Y-100575000D01*
X137725000Y-92575000D02*
X139544556Y-92575000D01*
D36*
%TO.N,Net-(J2-Pad1)*%
X147589600Y-100000000D02*
X147628764Y-99960836D01*
X145162500Y-100000000D02*
X147589600Y-100000000D01*
%TO.N,Net-(J2-Pad2)*%
X145266000Y-102286000D02*
X145440836Y-102460836D01*
D38*
X147487164Y-102319236D02*
X147628764Y-102460836D01*
D36*
X145440836Y-102460836D02*
X147628764Y-102460836D01*
%TO.N,Net-(J2-Pad3)*%
X145266000Y-104826000D02*
X145400836Y-104960836D01*
X145400836Y-104960836D02*
X147628764Y-104960836D01*
%TO.N,Net-(J2-Pad4)*%
X145266000Y-107112000D02*
X145614836Y-107460836D01*
X145614836Y-107460836D02*
X147628764Y-107460836D01*
%TO.N,Net-(J2-Pad5)*%
X145266000Y-109906000D02*
X145320836Y-109960836D01*
X145320836Y-109960836D02*
X147628764Y-109960836D01*
D38*
X147607164Y-109939236D02*
X147628764Y-109960836D01*
D36*
%TO.N,Net-(J2-Pad6)*%
X145266000Y-112446000D02*
X145280836Y-112460836D01*
X145280836Y-112460836D02*
X147628764Y-112460836D01*
D38*
X147610364Y-112479236D02*
X147628764Y-112460836D01*
D36*
%TO.N,Net-(J4-Pad1)*%
X132662751Y-104425480D02*
X132381364Y-104144093D01*
X134487980Y-104425480D02*
X132662751Y-104425480D01*
X134562500Y-104500000D02*
X134487980Y-104425480D01*
%TO.N,Net-(J4-Pad2)*%
X128800000Y-105400000D02*
X129887500Y-105400000D01*
X129887500Y-105400000D02*
X130087500Y-105600000D01*
%TO.N,Net-(J4-Pad3)*%
X133881263Y-105500000D02*
X132916194Y-106465069D01*
X134562500Y-105500000D02*
X133881263Y-105500000D01*
%TO.N,Net-(J4-Pad4)*%
X134562500Y-106000000D02*
X134148382Y-106000000D01*
X133850480Y-106297902D02*
X133850480Y-106549520D01*
X133011743Y-107388257D02*
X133011743Y-107459994D01*
X134148382Y-106000000D02*
X133850480Y-106297902D01*
X133850480Y-106549520D02*
X133011743Y-107388257D01*
%TO.N,Net-(J4-Pad5)*%
X132571365Y-107973506D02*
X131373506Y-107973506D01*
X132732354Y-108134495D02*
X132571365Y-107973506D01*
X133825556Y-108134495D02*
X132732354Y-108134495D01*
X134562500Y-107397551D02*
X133825556Y-108134495D01*
X131373506Y-107973506D02*
X130800000Y-107400000D01*
X134562500Y-106500000D02*
X134562500Y-107397551D01*
%TO.N,Net-(J5-Pad4)*%
X144583389Y-93575000D02*
X144505804Y-93652585D01*
X147775000Y-93575000D02*
X148325000Y-93025000D01*
X145875000Y-93575000D02*
X144583389Y-93575000D01*
X145875000Y-93575000D02*
X147775000Y-93575000D01*
%TO.N,Net-(J5-Pad3)*%
X144399500Y-92575000D02*
X144300000Y-92674500D01*
X146275000Y-92575000D02*
X148325000Y-90525000D01*
X145875000Y-92575000D02*
X144399500Y-92575000D01*
X145875000Y-92575000D02*
X146275000Y-92575000D01*
%TO.N,Net-(Q1-Pad1)*%
X138437500Y-104000000D02*
X138437500Y-103487500D01*
X134925000Y-100470336D02*
X136304664Y-101850000D01*
X134925000Y-97275000D02*
X134925000Y-100470336D01*
X136304664Y-101850000D02*
X138300000Y-101850000D01*
X138437500Y-103487500D02*
X138474500Y-103450500D01*
%TO.N,Net-(R9-Pad1)*%
X135750000Y-107187500D02*
X135750000Y-108050000D01*
X135750000Y-108050000D02*
X135400000Y-108400000D01*
%TO.N,Net-(R12-Pad1)*%
X135250000Y-107500000D02*
X134286731Y-108463269D01*
X135250000Y-107187500D02*
X135250000Y-107500000D01*
X134286731Y-108463269D02*
X134286731Y-108626703D01*
%TO.N,Net-(J3-Pad4)*%
X137725000Y-90575000D02*
X139175000Y-90575000D01*
X137349639Y-90575000D02*
X136175000Y-91749639D01*
X135096138Y-103312500D02*
X133593956Y-101810318D01*
X135250000Y-103312500D02*
X135096138Y-103312500D01*
X139175000Y-90575000D02*
X139225000Y-90625000D01*
X132000489Y-100216851D02*
X133593956Y-101810318D01*
X132000489Y-98349511D02*
X132000489Y-100216851D01*
X136175000Y-94175000D02*
X132000489Y-98349511D01*
X136175000Y-91749639D02*
X136175000Y-94175000D01*
X137725000Y-90575000D02*
X137349639Y-90575000D01*
%TO.N,Net-(R14-Pad1)*%
X134562500Y-105000000D02*
X132512500Y-105000000D01*
X132512500Y-105000000D02*
X131912500Y-105600000D01*
%TO.N,Net-(J3-Pad3)*%
X136950000Y-91575000D02*
X136525000Y-92000000D01*
X139999500Y-91575000D02*
X137725000Y-91575000D01*
X134925000Y-96100000D02*
X132675000Y-98350000D01*
X132675000Y-98350000D02*
X132675000Y-99550000D01*
X140049500Y-91525000D02*
X139999500Y-91575000D01*
X136525000Y-94500000D02*
X134925000Y-96100000D01*
X133964463Y-103401963D02*
X134562500Y-104000000D01*
X137725000Y-91575000D02*
X136950000Y-91575000D01*
X131589202Y-103401963D02*
X133964463Y-103401963D01*
X136525000Y-92000000D02*
X136525000Y-94500000D01*
%TO.N,GNDS*%
X136400000Y-108400000D02*
X136250000Y-108058878D01*
X136250000Y-108058878D02*
X136250000Y-107187500D01*
%TO.N,Net-(C13-Pad1)*%
X125489000Y-87884000D02*
X126238000Y-88633000D01*
X125222000Y-87884000D02*
X125489000Y-87884000D01*
D39*
%TO.N,Net-(C15-Pad2)*%
X116332000Y-91440000D02*
X116332000Y-96266000D01*
X116332000Y-96266000D02*
X119380000Y-99314000D01*
D36*
%TO.N,Net-(R19-Pad2)*%
X119126000Y-86106000D02*
X121920000Y-86106000D01*
X113792000Y-91440000D02*
X119126000Y-86106000D01*
%TO.N,/Backup/SW*%
X121370511Y-92200511D02*
X122126000Y-92956000D01*
X119333510Y-88900239D02*
X121370511Y-90937240D01*
X121370511Y-90937240D02*
X121370511Y-92200511D01*
D40*
%TO.N,/Backup/PVDD*%
X118110000Y-88646000D02*
X118110000Y-96266000D01*
X117856000Y-88392000D02*
X118110000Y-88646000D01*
%TD*%
%TA.AperFunction,Conductor*%
%TO.N,/Backup/SW*%
G36*
X135554137Y-89620002D02*
G01*
X135600630Y-89673658D01*
X135606047Y-89690061D01*
X135606458Y-89689928D01*
X135665473Y-89871556D01*
X135668776Y-89877278D01*
X135668777Y-89877279D01*
X135691031Y-89915823D01*
X135760960Y-90036944D01*
X135765378Y-90041851D01*
X135765379Y-90041852D01*
X135848912Y-90134625D01*
X135879630Y-90198632D01*
X135881276Y-90218935D01*
X135881276Y-91165979D01*
X135861274Y-91234100D01*
X135844371Y-91255074D01*
X135795286Y-91304159D01*
X135782906Y-91315017D01*
X135758843Y-91333482D01*
X135753818Y-91340031D01*
X135753816Y-91340033D01*
X135735360Y-91364085D01*
X135670344Y-91448816D01*
X135670342Y-91448819D01*
X135665314Y-91455372D01*
X135606519Y-91597315D01*
X135586465Y-91749639D01*
X135587543Y-91757827D01*
X135590422Y-91779695D01*
X135591500Y-91796142D01*
X135591500Y-93881117D01*
X135571498Y-93949238D01*
X135554595Y-93970212D01*
X133811085Y-95713722D01*
X133748773Y-95747748D01*
X133721990Y-95750627D01*
X133527100Y-95750627D01*
X133458979Y-95730625D01*
X133412486Y-95676969D01*
X133401790Y-95611457D01*
X133412814Y-95506565D01*
X133413504Y-95500000D01*
X133393542Y-95310072D01*
X133334527Y-95128444D01*
X133239040Y-94963056D01*
X133111253Y-94821134D01*
X132956752Y-94708882D01*
X132950724Y-94706198D01*
X132950722Y-94706197D01*
X132788319Y-94633891D01*
X132788318Y-94633891D01*
X132782288Y-94631206D01*
X132688888Y-94611353D01*
X132601944Y-94592872D01*
X132601939Y-94592872D01*
X132595487Y-94591500D01*
X132404513Y-94591500D01*
X132398061Y-94592872D01*
X132398056Y-94592872D01*
X132311113Y-94611353D01*
X132217712Y-94631206D01*
X132211682Y-94633891D01*
X132211681Y-94633891D01*
X132049278Y-94706197D01*
X132049276Y-94706198D01*
X132043248Y-94708882D01*
X131888747Y-94821134D01*
X131760960Y-94963056D01*
X131665473Y-95128444D01*
X131645496Y-95189928D01*
X131643524Y-95195997D01*
X131603451Y-95254603D01*
X131572916Y-95267507D01*
X131584209Y-95277872D01*
X131602258Y-95346537D01*
X131601619Y-95356109D01*
X131589418Y-95472197D01*
X131586496Y-95500000D01*
X131587186Y-95506565D01*
X131598210Y-95611457D01*
X131585438Y-95681295D01*
X131536935Y-95733142D01*
X131472900Y-95750627D01*
X131329639Y-95750627D01*
X131261518Y-95730625D01*
X131215025Y-95676969D01*
X131204921Y-95606695D01*
X131232265Y-95548299D01*
X131230741Y-95547192D01*
X131234620Y-95541852D01*
X131239040Y-95536944D01*
X131334527Y-95371556D01*
X131356477Y-95304002D01*
X131396549Y-95245397D01*
X131427084Y-95232493D01*
X131415791Y-95222128D01*
X131397742Y-95153463D01*
X131398381Y-95143891D01*
X131412814Y-95006565D01*
X131413504Y-95000000D01*
X131409105Y-94958148D01*
X131394232Y-94816635D01*
X131394232Y-94816633D01*
X131393542Y-94810072D01*
X131334527Y-94628444D01*
X131335832Y-94628020D01*
X131327365Y-94564885D01*
X131357469Y-94500587D01*
X131417557Y-94462772D01*
X131451907Y-94457999D01*
X131623654Y-94457999D01*
X131635923Y-94456791D01*
X131646843Y-94454619D01*
X131669339Y-94445302D01*
X131681780Y-94436989D01*
X131698989Y-94419780D01*
X131707303Y-94407337D01*
X131716619Y-94384846D01*
X131718793Y-94373917D01*
X131720000Y-94361662D01*
X131720000Y-93253115D01*
X131715525Y-93237876D01*
X131714135Y-93236671D01*
X131706452Y-93235000D01*
X124838116Y-93235000D01*
X124822877Y-93239475D01*
X124821672Y-93240865D01*
X124820001Y-93248548D01*
X124820001Y-94361654D01*
X124821209Y-94373923D01*
X124823381Y-94384843D01*
X124832698Y-94407339D01*
X124841011Y-94419780D01*
X124858220Y-94436989D01*
X124870663Y-94445303D01*
X124893154Y-94454619D01*
X124904083Y-94456793D01*
X124916338Y-94458000D01*
X127648092Y-94458000D01*
X127716213Y-94478002D01*
X127762706Y-94531658D01*
X127772810Y-94601932D01*
X127765189Y-94628352D01*
X127765473Y-94628444D01*
X127706458Y-94810072D01*
X127705768Y-94816633D01*
X127705768Y-94816635D01*
X127690895Y-94958148D01*
X127686496Y-95000000D01*
X127706458Y-95189928D01*
X127765473Y-95371556D01*
X127860960Y-95536944D01*
X127865380Y-95541852D01*
X127869259Y-95547192D01*
X127867804Y-95548249D01*
X127894715Y-95604325D01*
X127885950Y-95674779D01*
X127840486Y-95729310D01*
X127770361Y-95750627D01*
X125020561Y-95750627D01*
X124952440Y-95730625D01*
X124926925Y-95708937D01*
X124821675Y-95592045D01*
X124821674Y-95592044D01*
X124817253Y-95587134D01*
X124662752Y-95474882D01*
X124656724Y-95472198D01*
X124656722Y-95472197D01*
X124494319Y-95399891D01*
X124494318Y-95399891D01*
X124488288Y-95397206D01*
X124394539Y-95377279D01*
X124307944Y-95358872D01*
X124307939Y-95358872D01*
X124301487Y-95357500D01*
X124110513Y-95357500D01*
X124104061Y-95358872D01*
X124104056Y-95358872D01*
X124017461Y-95377279D01*
X123923712Y-95397206D01*
X123917682Y-95399891D01*
X123917681Y-95399891D01*
X123755278Y-95472197D01*
X123755276Y-95472198D01*
X123749248Y-95474882D01*
X123645060Y-95550579D01*
X123578194Y-95574437D01*
X123509042Y-95558357D01*
X123496944Y-95550582D01*
X123392752Y-95474882D01*
X123386724Y-95472198D01*
X123386722Y-95472197D01*
X123224319Y-95399891D01*
X123224318Y-95399891D01*
X123218288Y-95397206D01*
X123124539Y-95377279D01*
X123037944Y-95358872D01*
X123037939Y-95358872D01*
X123031487Y-95357500D01*
X122840513Y-95357500D01*
X122834061Y-95358872D01*
X122834056Y-95358872D01*
X122747461Y-95377279D01*
X122653712Y-95397206D01*
X122647682Y-95399891D01*
X122647681Y-95399891D01*
X122485278Y-95472197D01*
X122485276Y-95472198D01*
X122479248Y-95474882D01*
X122324747Y-95587134D01*
X122320326Y-95592044D01*
X122320325Y-95592045D01*
X122215075Y-95708937D01*
X122154629Y-95746177D01*
X122121439Y-95750627D01*
X121527276Y-95750627D01*
X121459155Y-95730625D01*
X121412662Y-95676969D01*
X121401276Y-95624627D01*
X121401276Y-94159617D01*
X121421278Y-94091496D01*
X121433642Y-94075304D01*
X121439948Y-94068301D01*
X121439949Y-94068300D01*
X121444367Y-94063393D01*
X121510275Y-93949238D01*
X121531295Y-93912830D01*
X121531296Y-93912829D01*
X121534599Y-93907107D01*
X121590365Y-93735475D01*
X121609229Y-93556000D01*
X121593053Y-93402102D01*
X121591055Y-93383089D01*
X121591055Y-93383088D01*
X121590365Y-93376525D01*
X121585795Y-93362458D01*
X121582022Y-93350847D01*
X121915892Y-93350847D01*
X121925096Y-93362458D01*
X121938850Y-93369018D01*
X122044745Y-93402102D01*
X122062288Y-93404943D01*
X122173216Y-93406976D01*
X122190856Y-93404779D01*
X122297889Y-93375598D01*
X122314207Y-93368537D01*
X122326478Y-93361003D01*
X122335650Y-93350847D01*
X122875892Y-93350847D01*
X122885096Y-93362458D01*
X122898850Y-93369018D01*
X123004745Y-93402102D01*
X123022288Y-93404943D01*
X123133216Y-93406976D01*
X123150856Y-93404779D01*
X123257889Y-93375598D01*
X123274207Y-93368537D01*
X123286478Y-93361003D01*
X123295932Y-93350535D01*
X123292130Y-93341735D01*
X123281242Y-93330847D01*
X123835892Y-93330847D01*
X123845096Y-93342458D01*
X123858850Y-93349018D01*
X123964745Y-93382102D01*
X123982288Y-93384943D01*
X124093216Y-93386976D01*
X124110856Y-93384779D01*
X124217889Y-93355598D01*
X124234207Y-93348537D01*
X124246478Y-93341003D01*
X124255932Y-93330535D01*
X124252130Y-93321735D01*
X124058812Y-93128417D01*
X124044868Y-93120803D01*
X124043035Y-93120934D01*
X124036420Y-93125185D01*
X123842069Y-93319536D01*
X123835892Y-93330847D01*
X123281242Y-93330847D01*
X123098812Y-93148417D01*
X123084868Y-93140803D01*
X123083035Y-93140934D01*
X123076420Y-93145185D01*
X122882069Y-93339536D01*
X122875892Y-93350847D01*
X122335650Y-93350847D01*
X122335932Y-93350535D01*
X122332130Y-93341735D01*
X122138812Y-93148417D01*
X122124868Y-93140803D01*
X122123035Y-93140934D01*
X122116420Y-93145185D01*
X121922069Y-93339536D01*
X121915892Y-93350847D01*
X121582022Y-93350847D01*
X121574343Y-93327214D01*
X121572316Y-93256246D01*
X121608978Y-93195448D01*
X121672690Y-93164123D01*
X121728619Y-93167711D01*
X121737027Y-93165368D01*
X121933583Y-92968812D01*
X121939961Y-92957132D01*
X122310803Y-92957132D01*
X122310934Y-92958965D01*
X122315185Y-92965580D01*
X122508670Y-93159065D01*
X122521050Y-93165825D01*
X122529769Y-93159298D01*
X122596289Y-93134487D01*
X122665663Y-93149578D01*
X122686067Y-93166256D01*
X122689755Y-93167394D01*
X122697027Y-93165368D01*
X122893583Y-92968812D01*
X122899961Y-92957132D01*
X123270803Y-92957132D01*
X123270934Y-92958965D01*
X123275185Y-92965580D01*
X123468670Y-93159065D01*
X123481050Y-93165825D01*
X123500102Y-93151563D01*
X123566622Y-93126752D01*
X123617152Y-93137744D01*
X123617269Y-93137364D01*
X123621719Y-93138738D01*
X123635997Y-93141844D01*
X123638558Y-93143937D01*
X123649755Y-93147394D01*
X123657027Y-93145368D01*
X123853583Y-92948812D01*
X123859961Y-92937132D01*
X124230803Y-92937132D01*
X124230934Y-92938965D01*
X124235185Y-92945580D01*
X124428670Y-93139065D01*
X124441050Y-93145825D01*
X124446329Y-93141873D01*
X124475193Y-93082297D01*
X124480595Y-93065373D01*
X124499684Y-92951905D01*
X124500551Y-92942246D01*
X124500567Y-92940872D01*
X124499936Y-92931172D01*
X124483626Y-92817290D01*
X124478636Y-92800227D01*
X124449485Y-92736109D01*
X124440268Y-92725436D01*
X124434480Y-92727125D01*
X124238417Y-92923188D01*
X124230803Y-92937132D01*
X123859961Y-92937132D01*
X123861197Y-92934868D01*
X123861066Y-92933035D01*
X123856815Y-92926420D01*
X123663104Y-92732709D01*
X123650724Y-92725949D01*
X123631044Y-92740681D01*
X123564523Y-92765492D01*
X123495149Y-92750400D01*
X123492079Y-92747922D01*
X123481977Y-92744937D01*
X123474480Y-92747125D01*
X123278417Y-92943188D01*
X123270803Y-92957132D01*
X122899961Y-92957132D01*
X122901197Y-92954868D01*
X122901066Y-92953035D01*
X122896815Y-92946420D01*
X122703104Y-92752709D01*
X122690725Y-92745949D01*
X122681535Y-92752829D01*
X122615015Y-92777640D01*
X122545640Y-92762549D01*
X122524888Y-92745797D01*
X122521977Y-92744937D01*
X122514480Y-92747125D01*
X122318417Y-92943188D01*
X122310803Y-92957132D01*
X121939961Y-92957132D01*
X121941197Y-92954868D01*
X121941066Y-92953035D01*
X121936815Y-92946420D01*
X121743104Y-92752709D01*
X121730724Y-92745949D01*
X121725677Y-92749727D01*
X121695053Y-92814954D01*
X121689857Y-92831949D01*
X121672788Y-92941573D01*
X121672571Y-92959353D01*
X121672869Y-92961628D01*
X121672516Y-92963877D01*
X121672462Y-92968321D01*
X121671820Y-92968313D01*
X121661868Y-93031767D01*
X121614694Y-93084824D01*
X121546323Y-93103954D01*
X121478463Y-93083083D01*
X121446764Y-93052759D01*
X121444367Y-93048607D01*
X121433642Y-93036695D01*
X121402923Y-92972689D01*
X121401276Y-92952383D01*
X121401276Y-92561163D01*
X121915853Y-92561163D01*
X121919958Y-92570353D01*
X122113188Y-92763583D01*
X122127132Y-92771197D01*
X122128965Y-92771066D01*
X122135580Y-92766815D01*
X122329608Y-92572787D01*
X122335955Y-92561163D01*
X122875853Y-92561163D01*
X122879958Y-92570353D01*
X123073188Y-92763583D01*
X123087132Y-92771197D01*
X123088965Y-92771066D01*
X123095580Y-92766815D01*
X123289608Y-92572787D01*
X123296368Y-92560407D01*
X123290035Y-92551947D01*
X123284224Y-92548181D01*
X123269036Y-92541163D01*
X123835853Y-92541163D01*
X123839958Y-92550353D01*
X124033188Y-92743583D01*
X124047132Y-92751197D01*
X124048965Y-92751066D01*
X124055580Y-92746815D01*
X124249608Y-92552787D01*
X124256368Y-92540407D01*
X124250035Y-92531947D01*
X124244224Y-92528181D01*
X124228095Y-92520728D01*
X124121801Y-92488940D01*
X124104221Y-92486312D01*
X123993275Y-92485634D01*
X123975669Y-92488046D01*
X123868991Y-92518535D01*
X123852773Y-92525789D01*
X123845175Y-92530584D01*
X123835853Y-92541163D01*
X123269036Y-92541163D01*
X123268095Y-92540728D01*
X123161801Y-92508940D01*
X123144221Y-92506312D01*
X123033275Y-92505634D01*
X123015669Y-92508046D01*
X122908991Y-92538535D01*
X122892773Y-92545789D01*
X122885175Y-92550584D01*
X122875853Y-92561163D01*
X122335955Y-92561163D01*
X122336368Y-92560407D01*
X122330035Y-92551947D01*
X122324224Y-92548181D01*
X122308095Y-92540728D01*
X122201801Y-92508940D01*
X122184221Y-92506312D01*
X122073275Y-92505634D01*
X122055669Y-92508046D01*
X121948991Y-92538535D01*
X121932773Y-92545789D01*
X121925175Y-92550584D01*
X121915853Y-92561163D01*
X121401276Y-92561163D01*
X121401276Y-91959617D01*
X121421278Y-91891496D01*
X121433642Y-91875304D01*
X121439948Y-91868301D01*
X121439949Y-91868300D01*
X121444367Y-91863393D01*
X121447672Y-91857669D01*
X121448853Y-91855624D01*
X121449846Y-91854678D01*
X121451549Y-91852333D01*
X121451978Y-91852645D01*
X121500237Y-91806632D01*
X121557970Y-91792627D01*
X124694000Y-91792627D01*
X124762121Y-91812629D01*
X124808614Y-91866285D01*
X124820000Y-91918627D01*
X124820000Y-92962885D01*
X124824475Y-92978124D01*
X124825865Y-92979329D01*
X124833548Y-92981000D01*
X128124885Y-92981000D01*
X128140124Y-92976525D01*
X128141329Y-92975135D01*
X128143000Y-92967452D01*
X128143000Y-92962885D01*
X128397000Y-92962885D01*
X128401475Y-92978124D01*
X128402865Y-92979329D01*
X128410548Y-92981000D01*
X131701884Y-92981000D01*
X131717123Y-92976525D01*
X131718328Y-92975135D01*
X131719999Y-92967452D01*
X131719999Y-91854346D01*
X131718791Y-91842077D01*
X131716619Y-91831157D01*
X131707302Y-91808661D01*
X131698989Y-91796220D01*
X131681780Y-91779011D01*
X131669337Y-91770697D01*
X131646846Y-91761381D01*
X131635917Y-91759207D01*
X131623662Y-91758000D01*
X128415115Y-91758001D01*
X128399876Y-91762476D01*
X128398671Y-91763866D01*
X128397000Y-91771549D01*
X128397000Y-92962885D01*
X128143000Y-92962885D01*
X128143000Y-91776116D01*
X128138525Y-91760877D01*
X128137135Y-91759672D01*
X128129452Y-91758001D01*
X125927276Y-91758001D01*
X125859155Y-91737999D01*
X125812662Y-91684343D01*
X125801276Y-91632001D01*
X125801276Y-90857107D01*
X125821278Y-90788986D01*
X125874934Y-90742493D01*
X125941691Y-90732488D01*
X125941710Y-90732192D01*
X125943069Y-90732281D01*
X125943716Y-90732184D01*
X125945828Y-90732462D01*
X125954037Y-90733000D01*
X126092885Y-90733000D01*
X126108124Y-90728525D01*
X126109329Y-90727135D01*
X126111000Y-90719452D01*
X126111000Y-90714884D01*
X126365000Y-90714884D01*
X126369475Y-90730123D01*
X126370865Y-90731328D01*
X126378548Y-90732999D01*
X126521959Y-90732999D01*
X126530177Y-90732460D01*
X126563855Y-90728027D01*
X126582150Y-90722696D01*
X126667295Y-90682992D01*
X126685086Y-90670534D01*
X126750534Y-90605086D01*
X126762992Y-90587295D01*
X126802695Y-90502152D01*
X126808028Y-90483854D01*
X126812462Y-90450172D01*
X126813000Y-90441963D01*
X126813000Y-90328115D01*
X126808525Y-90312876D01*
X126807135Y-90311671D01*
X126799452Y-90310000D01*
X126383115Y-90310000D01*
X126367876Y-90314475D01*
X126366671Y-90315865D01*
X126365000Y-90323548D01*
X126365000Y-90714884D01*
X126111000Y-90714884D01*
X126111000Y-90182000D01*
X126131002Y-90113879D01*
X126184658Y-90067386D01*
X126237000Y-90056000D01*
X126794884Y-90056000D01*
X126810123Y-90051525D01*
X126811328Y-90050135D01*
X126812999Y-90042452D01*
X126812999Y-89924041D01*
X126812460Y-89915823D01*
X126808027Y-89882145D01*
X126802696Y-89863850D01*
X126763246Y-89779250D01*
X126752585Y-89709058D01*
X126781565Y-89644245D01*
X126840985Y-89605389D01*
X126877441Y-89600000D01*
X135486016Y-89600000D01*
X135554137Y-89620002D01*
G37*
%TD.AperFunction*%
%TD*%
%TA.AperFunction,Conductor*%
%TO.N,GNDS*%
G36*
X143331601Y-92603502D02*
G01*
X143378094Y-92657158D01*
X143388790Y-92696329D01*
X143406458Y-92864428D01*
X143465473Y-93046056D01*
X143560960Y-93211444D01*
X143565375Y-93216347D01*
X143609962Y-93265866D01*
X143640679Y-93329874D01*
X143636158Y-93389112D01*
X143612262Y-93462657D01*
X143611572Y-93469218D01*
X143611572Y-93469220D01*
X143601881Y-93561427D01*
X143592300Y-93652585D01*
X143589527Y-93652294D01*
X143572988Y-93708621D01*
X143519332Y-93755114D01*
X143466990Y-93766500D01*
X142649600Y-93766500D01*
X142646354Y-93766837D01*
X142646350Y-93766837D01*
X142550692Y-93776762D01*
X142550688Y-93776763D01*
X142543834Y-93777474D01*
X142537298Y-93779655D01*
X142537296Y-93779655D01*
X142536679Y-93779861D01*
X142376054Y-93833450D01*
X142225652Y-93926522D01*
X142100695Y-94051697D01*
X142096855Y-94057927D01*
X142096854Y-94057928D01*
X142061388Y-94115465D01*
X142007885Y-94202262D01*
X142005581Y-94209209D01*
X141964142Y-94334145D01*
X141952203Y-94370139D01*
X141951503Y-94376975D01*
X141951502Y-94376978D01*
X141950854Y-94383307D01*
X141941500Y-94474600D01*
X141941500Y-95275400D01*
X141941837Y-95278646D01*
X141941837Y-95278650D01*
X141949969Y-95357019D01*
X141952474Y-95381166D01*
X141954655Y-95387702D01*
X141954655Y-95387704D01*
X141968580Y-95429442D01*
X142008450Y-95548946D01*
X142101522Y-95699348D01*
X142226697Y-95824305D01*
X142232927Y-95828145D01*
X142232928Y-95828146D01*
X142370090Y-95912694D01*
X142377262Y-95917115D01*
X142457005Y-95943564D01*
X142538611Y-95970632D01*
X142538613Y-95970632D01*
X142545139Y-95972797D01*
X142551975Y-95973497D01*
X142551978Y-95973498D01*
X142595031Y-95977909D01*
X142649600Y-95983500D01*
X144050400Y-95983500D01*
X144053646Y-95983163D01*
X144053650Y-95983163D01*
X144149308Y-95973238D01*
X144149312Y-95973237D01*
X144156166Y-95972526D01*
X144162702Y-95970345D01*
X144162704Y-95970345D01*
X144294806Y-95926272D01*
X144323946Y-95916550D01*
X144474348Y-95823478D01*
X144599305Y-95698303D01*
X144604969Y-95689114D01*
X144688275Y-95553968D01*
X144688276Y-95553966D01*
X144692115Y-95547738D01*
X144747797Y-95379861D01*
X144750138Y-95357019D01*
X144758172Y-95278598D01*
X144758500Y-95275400D01*
X144758500Y-94616380D01*
X144778502Y-94548259D01*
X144833251Y-94501273D01*
X144956526Y-94446388D01*
X144956528Y-94446387D01*
X144962556Y-94443703D01*
X144993706Y-94421072D01*
X145027150Y-94396773D01*
X145094018Y-94372915D01*
X145136358Y-94377712D01*
X145146169Y-94380562D01*
X145152579Y-94381067D01*
X145152582Y-94381067D01*
X145181042Y-94383307D01*
X145181050Y-94383307D01*
X145183498Y-94383500D01*
X146566502Y-94383500D01*
X146568950Y-94383307D01*
X146568958Y-94383307D01*
X146597421Y-94381067D01*
X146597426Y-94381066D01*
X146603831Y-94380562D01*
X146706866Y-94350628D01*
X146755988Y-94336357D01*
X146755990Y-94336356D01*
X146763601Y-94334145D01*
X146799873Y-94312694D01*
X146899980Y-94253491D01*
X146899983Y-94253489D01*
X146906807Y-94249453D01*
X146928218Y-94228042D01*
X146990530Y-94194016D01*
X147061345Y-94199081D01*
X147095408Y-94218257D01*
X147096511Y-94219128D01*
X147101697Y-94224305D01*
X147149045Y-94253491D01*
X147245090Y-94312694D01*
X147252262Y-94317115D01*
X147291435Y-94330108D01*
X147413611Y-94370632D01*
X147413613Y-94370632D01*
X147420139Y-94372797D01*
X147426975Y-94373497D01*
X147426978Y-94373498D01*
X147468109Y-94377712D01*
X147524600Y-94383500D01*
X149125400Y-94383500D01*
X149128646Y-94383163D01*
X149128650Y-94383163D01*
X149224308Y-94373238D01*
X149224312Y-94373237D01*
X149231166Y-94372526D01*
X149237702Y-94370345D01*
X149237704Y-94370345D01*
X149369806Y-94326272D01*
X149398946Y-94316550D01*
X149549348Y-94223478D01*
X149674305Y-94098303D01*
X149699839Y-94056880D01*
X149758740Y-93961325D01*
X149811513Y-93913832D01*
X149881584Y-93902408D01*
X149946708Y-93930682D01*
X149986207Y-93989676D01*
X149992000Y-94027441D01*
X149992000Y-117366000D01*
X149971998Y-117434121D01*
X149918342Y-117480614D01*
X149866000Y-117492000D01*
X138608205Y-117492000D01*
X138540084Y-117471998D01*
X138493591Y-117418342D01*
X138483487Y-117348068D01*
X138512981Y-117283488D01*
X138523892Y-117272366D01*
X138527910Y-117268748D01*
X138533253Y-117264866D01*
X138623983Y-117164100D01*
X138656621Y-117127852D01*
X138656622Y-117127851D01*
X138661040Y-117122944D01*
X138756527Y-116957556D01*
X138815542Y-116775928D01*
X138835504Y-116586000D01*
X138815542Y-116396072D01*
X138756527Y-116214444D01*
X138738677Y-116183526D01*
X138714124Y-116141000D01*
X138697386Y-116072005D01*
X138714124Y-116015000D01*
X138753223Y-115947279D01*
X138753224Y-115947278D01*
X138756527Y-115941556D01*
X138815542Y-115759928D01*
X138816271Y-115752998D01*
X138834814Y-115576565D01*
X138835504Y-115570000D01*
X138817863Y-115402157D01*
X138816232Y-115386635D01*
X138816232Y-115386633D01*
X138815542Y-115380072D01*
X138756527Y-115198444D01*
X138661040Y-115033056D01*
X138533253Y-114891134D01*
X138378752Y-114778882D01*
X138372724Y-114776198D01*
X138372722Y-114776197D01*
X138210319Y-114703891D01*
X138210318Y-114703891D01*
X138204288Y-114701206D01*
X138110887Y-114681353D01*
X138023944Y-114662872D01*
X138023939Y-114662872D01*
X138017487Y-114661500D01*
X137826513Y-114661500D01*
X137820061Y-114662872D01*
X137820056Y-114662872D01*
X137733113Y-114681353D01*
X137639712Y-114701206D01*
X137633682Y-114703891D01*
X137633681Y-114703891D01*
X137471278Y-114776197D01*
X137471276Y-114776198D01*
X137465248Y-114778882D01*
X137361060Y-114854579D01*
X137294194Y-114878437D01*
X137225042Y-114862357D01*
X137212944Y-114854582D01*
X137108752Y-114778882D01*
X137102724Y-114776198D01*
X137102722Y-114776197D01*
X136940319Y-114703891D01*
X136940318Y-114703891D01*
X136934288Y-114701206D01*
X136840887Y-114681353D01*
X136753944Y-114662872D01*
X136753939Y-114662872D01*
X136747487Y-114661500D01*
X136556513Y-114661500D01*
X136550061Y-114662872D01*
X136550056Y-114662872D01*
X136463113Y-114681353D01*
X136369712Y-114701206D01*
X136195248Y-114778882D01*
X136124882Y-114788316D01*
X136092753Y-114778882D01*
X136092752Y-114778882D01*
X135918288Y-114701206D01*
X135824887Y-114681353D01*
X135737944Y-114662872D01*
X135737939Y-114662872D01*
X135731487Y-114661500D01*
X135540513Y-114661500D01*
X135534061Y-114662872D01*
X135534056Y-114662872D01*
X135447113Y-114681353D01*
X135353712Y-114701206D01*
X135179248Y-114778882D01*
X135108882Y-114788316D01*
X135076753Y-114778882D01*
X135076752Y-114778882D01*
X134902288Y-114701206D01*
X134808887Y-114681353D01*
X134721944Y-114662872D01*
X134721939Y-114662872D01*
X134715487Y-114661500D01*
X134524513Y-114661500D01*
X134518061Y-114662872D01*
X134518056Y-114662872D01*
X134431113Y-114681353D01*
X134337712Y-114701206D01*
X134163248Y-114778882D01*
X134092882Y-114788316D01*
X134060753Y-114778882D01*
X134060752Y-114778882D01*
X133886288Y-114701206D01*
X133792887Y-114681353D01*
X133705944Y-114662872D01*
X133705939Y-114662872D01*
X133699487Y-114661500D01*
X133508513Y-114661500D01*
X133502061Y-114662872D01*
X133502056Y-114662872D01*
X133370191Y-114690901D01*
X133299400Y-114685499D01*
X133242767Y-114642682D01*
X133218274Y-114576044D01*
X133220394Y-114543181D01*
X133229596Y-114496708D01*
X133229597Y-114496700D01*
X133230282Y-114493241D01*
X133249089Y-114269269D01*
X133260120Y-114137912D01*
X133260121Y-114137901D01*
X133260303Y-114135728D01*
X133261091Y-114079341D01*
X133261526Y-114048178D01*
X133261526Y-114048166D01*
X133261556Y-114046000D01*
X133260061Y-114019246D01*
X133249789Y-113835537D01*
X133241529Y-113687788D01*
X133235501Y-113652148D01*
X133182286Y-113337522D01*
X133182285Y-113337518D01*
X133181697Y-113334041D01*
X133160375Y-113259681D01*
X133096185Y-113035827D01*
X133082806Y-112989169D01*
X133033191Y-112868794D01*
X132947427Y-112660713D01*
X132947423Y-112660705D01*
X132946089Y-112657468D01*
X132788908Y-112371556D01*
X132774943Y-112346154D01*
X132774940Y-112346150D01*
X132773250Y-112343075D01*
X132566443Y-112049907D01*
X132328245Y-111781619D01*
X132061626Y-111541554D01*
X132058776Y-111539513D01*
X132058769Y-111539508D01*
X131772763Y-111334748D01*
X131772760Y-111334746D01*
X131769909Y-111332705D01*
X131456730Y-111157675D01*
X131125992Y-111018646D01*
X131122623Y-111017655D01*
X131122619Y-111017653D01*
X130970754Y-110972957D01*
X130781818Y-110917350D01*
X130498904Y-110867464D01*
X130431958Y-110855660D01*
X130431956Y-110855660D01*
X130428498Y-110855050D01*
X130424987Y-110854829D01*
X130424986Y-110854829D01*
X130073953Y-110832743D01*
X130073947Y-110832743D01*
X130070435Y-110832522D01*
X129969046Y-110837481D01*
X129715599Y-110849876D01*
X129715591Y-110849877D01*
X129712092Y-110850048D01*
X129708624Y-110850610D01*
X129708621Y-110850610D01*
X129361411Y-110906846D01*
X129361408Y-110906847D01*
X129357936Y-110907409D01*
X129354549Y-110908355D01*
X129354543Y-110908356D01*
X129070406Y-110987689D01*
X129012381Y-111003890D01*
X128956729Y-111026375D01*
X128682998Y-111136969D01*
X128682994Y-111136971D01*
X128679734Y-111138288D01*
X128676637Y-111139962D01*
X128676636Y-111139963D01*
X128666884Y-111145236D01*
X128597449Y-111160043D01*
X128531031Y-111134960D01*
X128491226Y-111079868D01*
X128489809Y-111080455D01*
X128466174Y-111023395D01*
X128439063Y-110957943D01*
X128429272Y-110940984D01*
X128429267Y-110940975D01*
X128425383Y-110934248D01*
X128416729Y-110919258D01*
X128406016Y-110895196D01*
X128399464Y-110875032D01*
X128388186Y-110840322D01*
X128382710Y-110814559D01*
X128381409Y-110802181D01*
X128381409Y-110802176D01*
X128377722Y-110767100D01*
X128376678Y-110757164D01*
X128376678Y-110730825D01*
X128378085Y-110717445D01*
X128381644Y-110683576D01*
X128382709Y-110673445D01*
X128388185Y-110647681D01*
X128406017Y-110592799D01*
X128416730Y-110568740D01*
X128435220Y-110536716D01*
X128435239Y-110536682D01*
X128437017Y-110533603D01*
X128437021Y-110533595D01*
X128439080Y-110530028D01*
X128460405Y-110478540D01*
X128488230Y-110411355D01*
X128489808Y-110407545D01*
X128506689Y-110344546D01*
X128507226Y-110340464D01*
X128507228Y-110340456D01*
X128523462Y-110217149D01*
X128524000Y-110213063D01*
X128524000Y-106425728D01*
X128544002Y-106357607D01*
X128597658Y-106311114D01*
X128667932Y-106301010D01*
X128676198Y-106302482D01*
X128698049Y-106307127D01*
X128698058Y-106307128D01*
X128704513Y-106308500D01*
X128895487Y-106308500D01*
X128901939Y-106307128D01*
X128901944Y-106307128D01*
X128987205Y-106289005D01*
X129057996Y-106294407D01*
X129114629Y-106337224D01*
X129126943Y-106360878D01*
X129128027Y-106360370D01*
X129131131Y-106366997D01*
X129133450Y-106373946D01*
X129226522Y-106524348D01*
X129351697Y-106649305D01*
X129357927Y-106653145D01*
X129357928Y-106653146D01*
X129365023Y-106657519D01*
X129502262Y-106742115D01*
X129582005Y-106768564D01*
X129663611Y-106795632D01*
X129663613Y-106795632D01*
X129670139Y-106797797D01*
X129676975Y-106798497D01*
X129676978Y-106798498D01*
X129720031Y-106802909D01*
X129774600Y-106808500D01*
X129874220Y-106808500D01*
X129942341Y-106828502D01*
X129988834Y-106882158D01*
X129998938Y-106952432D01*
X129983338Y-106997501D01*
X129965473Y-107028444D01*
X129906458Y-107210072D01*
X129905768Y-107216633D01*
X129905768Y-107216635D01*
X129899405Y-107277177D01*
X129886496Y-107400000D01*
X129887186Y-107406565D01*
X129902434Y-107551637D01*
X129906458Y-107589928D01*
X129965473Y-107771556D01*
X129968776Y-107777278D01*
X129968777Y-107777279D01*
X129984548Y-107804595D01*
X130060960Y-107936944D01*
X130065378Y-107941851D01*
X130065379Y-107941852D01*
X130155510Y-108041953D01*
X130188747Y-108078866D01*
X130343248Y-108191118D01*
X130349276Y-108193802D01*
X130349278Y-108193803D01*
X130489917Y-108256419D01*
X130517712Y-108268794D01*
X130611112Y-108288647D01*
X130698056Y-108307128D01*
X130698061Y-108307128D01*
X130704513Y-108308500D01*
X130831117Y-108308500D01*
X130899238Y-108328502D01*
X130920212Y-108345405D01*
X130928020Y-108353213D01*
X130938887Y-108365603D01*
X130957349Y-108389663D01*
X130963895Y-108394686D01*
X130979376Y-108406565D01*
X131079239Y-108483192D01*
X131221182Y-108541987D01*
X131373506Y-108562041D01*
X131381694Y-108560963D01*
X131403562Y-108558084D01*
X131420009Y-108557006D01*
X132281706Y-108557006D01*
X132349827Y-108577008D01*
X132358409Y-108583043D01*
X132438087Y-108644181D01*
X132460508Y-108653468D01*
X132569251Y-108698511D01*
X132580030Y-108702976D01*
X132732354Y-108723030D01*
X132740542Y-108721952D01*
X132762410Y-108719073D01*
X132778857Y-108717995D01*
X133270896Y-108717995D01*
X133339017Y-108737997D01*
X133385510Y-108791653D01*
X133392923Y-108814105D01*
X133393189Y-108816631D01*
X133452204Y-108998259D01*
X133547691Y-109163647D01*
X133552109Y-109168554D01*
X133552110Y-109168555D01*
X133670314Y-109299834D01*
X133675478Y-109305569D01*
X133829979Y-109417821D01*
X133836007Y-109420505D01*
X133836009Y-109420506D01*
X133998412Y-109492812D01*
X134004443Y-109495497D01*
X134097844Y-109515350D01*
X134184787Y-109533831D01*
X134184792Y-109533831D01*
X134191244Y-109535203D01*
X134382218Y-109535203D01*
X134388670Y-109533831D01*
X134388675Y-109533831D01*
X134475618Y-109515350D01*
X134569019Y-109495497D01*
X134575050Y-109492812D01*
X134737453Y-109420506D01*
X134737455Y-109420505D01*
X134743483Y-109417821D01*
X134897984Y-109305569D01*
X134923246Y-109277513D01*
X134983690Y-109240275D01*
X135054674Y-109241627D01*
X135068124Y-109246716D01*
X135117712Y-109268794D01*
X135211113Y-109288647D01*
X135298056Y-109307128D01*
X135298061Y-109307128D01*
X135304513Y-109308500D01*
X135495487Y-109308500D01*
X135501939Y-109307128D01*
X135501944Y-109307128D01*
X135588887Y-109288647D01*
X135682288Y-109268794D01*
X135741620Y-109242378D01*
X135850722Y-109193803D01*
X135850724Y-109193802D01*
X135856752Y-109191118D01*
X135867633Y-109183213D01*
X135938046Y-109132054D01*
X136011253Y-109078866D01*
X136103443Y-108976479D01*
X136134621Y-108941852D01*
X136134622Y-108941851D01*
X136139040Y-108936944D01*
X136234527Y-108771556D01*
X136293542Y-108589928D01*
X136294473Y-108581076D01*
X136312814Y-108406565D01*
X136313504Y-108400000D01*
X136307766Y-108345405D01*
X136302580Y-108296061D01*
X136315352Y-108226223D01*
X136363855Y-108174376D01*
X136432687Y-108156982D01*
X136499997Y-108179564D01*
X136516985Y-108193796D01*
X139629595Y-111306407D01*
X139663621Y-111368719D01*
X139666500Y-111395502D01*
X139666500Y-112543841D01*
X139665422Y-112560288D01*
X139661465Y-112590344D01*
X139666500Y-112628588D01*
X139681519Y-112742668D01*
X139740314Y-112884611D01*
X139804828Y-112968688D01*
X139821541Y-112990468D01*
X139833843Y-113006501D01*
X139840389Y-113011524D01*
X139857898Y-113024959D01*
X139870290Y-113035827D01*
X140791396Y-113956934D01*
X140825421Y-114019246D01*
X140827610Y-114059199D01*
X140825493Y-114079341D01*
X140826183Y-114085906D01*
X140842629Y-114242378D01*
X140845455Y-114269269D01*
X140904470Y-114450897D01*
X140999957Y-114616285D01*
X141127744Y-114758207D01*
X141207449Y-114816116D01*
X141271094Y-114862357D01*
X141282245Y-114870459D01*
X141288273Y-114873143D01*
X141288275Y-114873144D01*
X141339712Y-114896045D01*
X141456709Y-114948135D01*
X141550109Y-114967988D01*
X141637053Y-114986469D01*
X141637058Y-114986469D01*
X141643510Y-114987841D01*
X141770113Y-114987841D01*
X141838234Y-115007843D01*
X141859208Y-115024746D01*
X142200177Y-115365715D01*
X142211044Y-115378106D01*
X142229499Y-115402157D01*
X142260099Y-115425637D01*
X142260101Y-115425639D01*
X142351388Y-115495686D01*
X142359020Y-115498847D01*
X142366168Y-115502974D01*
X142365021Y-115504961D01*
X142411035Y-115542045D01*
X142430400Y-115586630D01*
X142430974Y-115592166D01*
X142486950Y-115759946D01*
X142580022Y-115910348D01*
X142705197Y-116035305D01*
X142711427Y-116039145D01*
X142711428Y-116039146D01*
X142848590Y-116123694D01*
X142855762Y-116128115D01*
X142919220Y-116149163D01*
X143017111Y-116181632D01*
X143017113Y-116181632D01*
X143023639Y-116183797D01*
X143030475Y-116184497D01*
X143030478Y-116184498D01*
X143073531Y-116188909D01*
X143128100Y-116194500D01*
X143753900Y-116194500D01*
X143757146Y-116194163D01*
X143757150Y-116194163D01*
X143852808Y-116184238D01*
X143852812Y-116184237D01*
X143859666Y-116183526D01*
X143866202Y-116181345D01*
X143866204Y-116181345D01*
X143998306Y-116137272D01*
X144027446Y-116127550D01*
X144177848Y-116034478D01*
X144264284Y-115947891D01*
X144326566Y-115913812D01*
X144397386Y-115918815D01*
X144442475Y-115947736D01*
X144475742Y-115980945D01*
X144530197Y-116035305D01*
X144536427Y-116039145D01*
X144536428Y-116039146D01*
X144673590Y-116123694D01*
X144680762Y-116128115D01*
X144744220Y-116149163D01*
X144842111Y-116181632D01*
X144842113Y-116181632D01*
X144848639Y-116183797D01*
X144855475Y-116184497D01*
X144855478Y-116184498D01*
X144898531Y-116188909D01*
X144953100Y-116194500D01*
X145578900Y-116194500D01*
X145582146Y-116194163D01*
X145582150Y-116194163D01*
X145677808Y-116184238D01*
X145677812Y-116184237D01*
X145684666Y-116183526D01*
X145691202Y-116181345D01*
X145691204Y-116181345D01*
X145823306Y-116137272D01*
X145852446Y-116127550D01*
X146002848Y-116034478D01*
X146127805Y-115909303D01*
X146158207Y-115859982D01*
X146204050Y-115785612D01*
X146256823Y-115738118D01*
X146326894Y-115726695D01*
X146392018Y-115754970D01*
X146406472Y-115769144D01*
X146553241Y-115938281D01*
X146594794Y-115972352D01*
X146727391Y-116081076D01*
X146727397Y-116081080D01*
X146731519Y-116084460D01*
X146736155Y-116087099D01*
X146736158Y-116087101D01*
X146845186Y-116149163D01*
X146931878Y-116198511D01*
X147148589Y-116277173D01*
X147153838Y-116278122D01*
X147153841Y-116278123D01*
X147371372Y-116317459D01*
X147371379Y-116317460D01*
X147375456Y-116318197D01*
X147393178Y-116319033D01*
X147398120Y-116319266D01*
X147398127Y-116319266D01*
X147399608Y-116319336D01*
X147811654Y-116319336D01*
X147878573Y-116313658D01*
X147978173Y-116305207D01*
X147978177Y-116305206D01*
X147983484Y-116304756D01*
X147988639Y-116303418D01*
X147988645Y-116303417D01*
X148201467Y-116248179D01*
X148201471Y-116248178D01*
X148206636Y-116246837D01*
X148211502Y-116244645D01*
X148211505Y-116244644D01*
X148411966Y-116154343D01*
X148416839Y-116152148D01*
X148608083Y-116023395D01*
X148616884Y-116015000D01*
X148733115Y-115904120D01*
X148774899Y-115864260D01*
X148912518Y-115679294D01*
X149017004Y-115473785D01*
X149031955Y-115425637D01*
X149083788Y-115258707D01*
X149085371Y-115253609D01*
X149086072Y-115248320D01*
X149114962Y-115030347D01*
X149114962Y-115030342D01*
X149115662Y-115025062D01*
X149107013Y-114794678D01*
X149059671Y-114569045D01*
X149031104Y-114496708D01*
X148976949Y-114359580D01*
X148976948Y-114359578D01*
X148974988Y-114354615D01*
X148855387Y-114157519D01*
X148772198Y-114061652D01*
X148707787Y-113987424D01*
X148707785Y-113987422D01*
X148704287Y-113983391D01*
X148647337Y-113936695D01*
X148530137Y-113840596D01*
X148530131Y-113840592D01*
X148526009Y-113837212D01*
X148494514Y-113819284D01*
X148445209Y-113768204D01*
X148431347Y-113698574D01*
X148457330Y-113632503D01*
X148486480Y-113605263D01*
X148517380Y-113584460D01*
X148608083Y-113523395D01*
X148628465Y-113503952D01*
X148729162Y-113407891D01*
X148774899Y-113364260D01*
X148912518Y-113179294D01*
X148926986Y-113150839D01*
X148977709Y-113051072D01*
X149017004Y-112973785D01*
X149025980Y-112944880D01*
X149083788Y-112758707D01*
X149085371Y-112753609D01*
X149101941Y-112628588D01*
X149114962Y-112530347D01*
X149114962Y-112530342D01*
X149115662Y-112525062D01*
X149107013Y-112294678D01*
X149059671Y-112069045D01*
X149052113Y-112049907D01*
X148976949Y-111859580D01*
X148976948Y-111859578D01*
X148974988Y-111854615D01*
X148855387Y-111657519D01*
X148830157Y-111628444D01*
X148707787Y-111487424D01*
X148707785Y-111487422D01*
X148704287Y-111483391D01*
X148617939Y-111412590D01*
X148530137Y-111340596D01*
X148530131Y-111340592D01*
X148526009Y-111337212D01*
X148494514Y-111319284D01*
X148445209Y-111268204D01*
X148431347Y-111198574D01*
X148457330Y-111132503D01*
X148486480Y-111105263D01*
X148522406Y-111081076D01*
X148608083Y-111023395D01*
X148613062Y-111018646D01*
X148717246Y-110919258D01*
X148774899Y-110864260D01*
X148781752Y-110855050D01*
X148884133Y-110717445D01*
X148912518Y-110679294D01*
X149017004Y-110473785D01*
X149055896Y-110348535D01*
X149083788Y-110258707D01*
X149085371Y-110253609D01*
X149091291Y-110208941D01*
X149114962Y-110030347D01*
X149114962Y-110030342D01*
X149115662Y-110025062D01*
X149107013Y-109794678D01*
X149059671Y-109569045D01*
X149031167Y-109496869D01*
X148976949Y-109359580D01*
X148976948Y-109359578D01*
X148974988Y-109354615D01*
X148947583Y-109309452D01*
X148873420Y-109187237D01*
X148855387Y-109157519D01*
X148808514Y-109103502D01*
X148707787Y-108987424D01*
X148707785Y-108987422D01*
X148704287Y-108983391D01*
X148640667Y-108931226D01*
X148530137Y-108840596D01*
X148530131Y-108840592D01*
X148526009Y-108837212D01*
X148494514Y-108819284D01*
X148445209Y-108768204D01*
X148431347Y-108698574D01*
X148457330Y-108632503D01*
X148486480Y-108605263D01*
X148519006Y-108583365D01*
X148608083Y-108523395D01*
X148650227Y-108483192D01*
X148753442Y-108384729D01*
X148774899Y-108364260D01*
X148807702Y-108320172D01*
X148909332Y-108183576D01*
X148912518Y-108179294D01*
X148915019Y-108174376D01*
X148969582Y-108067057D01*
X149017004Y-107973785D01*
X149020427Y-107962763D01*
X149083788Y-107758707D01*
X149085371Y-107753609D01*
X149102856Y-107621686D01*
X149114962Y-107530347D01*
X149114962Y-107530342D01*
X149115662Y-107525062D01*
X149107013Y-107294678D01*
X149104583Y-107283094D01*
X149060766Y-107074264D01*
X149059671Y-107069045D01*
X149057712Y-107064084D01*
X148976949Y-106859580D01*
X148976948Y-106859578D01*
X148974988Y-106854615D01*
X148964072Y-106836625D01*
X148858154Y-106662079D01*
X148855387Y-106657519D01*
X148759362Y-106546859D01*
X148707787Y-106487424D01*
X148707785Y-106487422D01*
X148704287Y-106483391D01*
X148633962Y-106425728D01*
X148530137Y-106340596D01*
X148530131Y-106340592D01*
X148526009Y-106337212D01*
X148494514Y-106319284D01*
X148445209Y-106268204D01*
X148431347Y-106198574D01*
X148457330Y-106132503D01*
X148486480Y-106105263D01*
X148548480Y-106063522D01*
X148608083Y-106023395D01*
X148622166Y-106009961D01*
X148701533Y-105934248D01*
X148774899Y-105864260D01*
X148790835Y-105842842D01*
X148891330Y-105707772D01*
X148912518Y-105679294D01*
X148918731Y-105667075D01*
X149014586Y-105478540D01*
X149017004Y-105473785D01*
X149061760Y-105329650D01*
X149083788Y-105258707D01*
X149085371Y-105253609D01*
X149090945Y-105211556D01*
X149114962Y-105030347D01*
X149114962Y-105030342D01*
X149115662Y-105025062D01*
X149107013Y-104794678D01*
X149059671Y-104569045D01*
X149054797Y-104556704D01*
X148976949Y-104359580D01*
X148976948Y-104359578D01*
X148974988Y-104354615D01*
X148947092Y-104308643D01*
X148858154Y-104162079D01*
X148855387Y-104157519D01*
X148784578Y-104075918D01*
X148707787Y-103987424D01*
X148707785Y-103987422D01*
X148704287Y-103983391D01*
X148605874Y-103902697D01*
X148530137Y-103840596D01*
X148530131Y-103840592D01*
X148526009Y-103837212D01*
X148494514Y-103819284D01*
X148445209Y-103768204D01*
X148431347Y-103698574D01*
X148457330Y-103632503D01*
X148486480Y-103605263D01*
X148579769Y-103542457D01*
X148608083Y-103523395D01*
X148649877Y-103483526D01*
X148771042Y-103367939D01*
X148774899Y-103364260D01*
X148797058Y-103334478D01*
X148909332Y-103183576D01*
X148912518Y-103179294D01*
X148939068Y-103127075D01*
X148969582Y-103067057D01*
X149017004Y-102973785D01*
X149052962Y-102857984D01*
X149083788Y-102758707D01*
X149085371Y-102753609D01*
X149086072Y-102748320D01*
X149114962Y-102530347D01*
X149114962Y-102530342D01*
X149115662Y-102525062D01*
X149107013Y-102294678D01*
X149059671Y-102069045D01*
X149057712Y-102064084D01*
X148976949Y-101859580D01*
X148976948Y-101859578D01*
X148974988Y-101854615D01*
X148935886Y-101790176D01*
X148858154Y-101662079D01*
X148855387Y-101657519D01*
X148837215Y-101636578D01*
X148707787Y-101487424D01*
X148707785Y-101487422D01*
X148704287Y-101483391D01*
X148668644Y-101454166D01*
X148628650Y-101395507D01*
X148626718Y-101324537D01*
X148663462Y-101263788D01*
X148682232Y-101249588D01*
X148821884Y-101163168D01*
X148828112Y-101159314D01*
X148953069Y-101034139D01*
X148972757Y-101002200D01*
X149042039Y-100889804D01*
X149042040Y-100889802D01*
X149045879Y-100883574D01*
X149082241Y-100773946D01*
X149099396Y-100722225D01*
X149099396Y-100722223D01*
X149101561Y-100715697D01*
X149102578Y-100705778D01*
X149110160Y-100631773D01*
X149112264Y-100611236D01*
X149112264Y-99310436D01*
X149101290Y-99204670D01*
X149092541Y-99178444D01*
X149047632Y-99043838D01*
X149045314Y-99036890D01*
X148952242Y-98886488D01*
X148827067Y-98761531D01*
X148737299Y-98706197D01*
X148682732Y-98672561D01*
X148682730Y-98672560D01*
X148676502Y-98668721D01*
X148516018Y-98615491D01*
X148515153Y-98615204D01*
X148515151Y-98615204D01*
X148508625Y-98613039D01*
X148501789Y-98612339D01*
X148501786Y-98612338D01*
X148458733Y-98607927D01*
X148404164Y-98602336D01*
X146853364Y-98602336D01*
X146850118Y-98602673D01*
X146850114Y-98602673D01*
X146754456Y-98612598D01*
X146754452Y-98612599D01*
X146747598Y-98613310D01*
X146741062Y-98615491D01*
X146741060Y-98615491D01*
X146693957Y-98631206D01*
X146579818Y-98669286D01*
X146429416Y-98762358D01*
X146304459Y-98887533D01*
X146300619Y-98893763D01*
X146300618Y-98893764D01*
X146227085Y-99013056D01*
X146211649Y-99038098D01*
X146209975Y-99037066D01*
X146169624Y-99082890D01*
X146101346Y-99102348D01*
X146033387Y-99081803D01*
X146013333Y-99065525D01*
X145985870Y-99038109D01*
X145898303Y-98950695D01*
X145810380Y-98896498D01*
X145753968Y-98861725D01*
X145753966Y-98861724D01*
X145747738Y-98857885D01*
X145587254Y-98804655D01*
X145586389Y-98804368D01*
X145586387Y-98804368D01*
X145579861Y-98802203D01*
X145573025Y-98801503D01*
X145573022Y-98801502D01*
X145529969Y-98797091D01*
X145475400Y-98791500D01*
X144849600Y-98791500D01*
X144846354Y-98791837D01*
X144846350Y-98791837D01*
X144750692Y-98801762D01*
X144750688Y-98801763D01*
X144743834Y-98802474D01*
X144737298Y-98804655D01*
X144737296Y-98804655D01*
X144699542Y-98817251D01*
X144576054Y-98858450D01*
X144425652Y-98951522D01*
X144420479Y-98956704D01*
X144339216Y-99038109D01*
X144276934Y-99072188D01*
X144206114Y-99067185D01*
X144161025Y-99038264D01*
X144078483Y-98955866D01*
X144073303Y-98950695D01*
X143985380Y-98896498D01*
X143928968Y-98861725D01*
X143928966Y-98861724D01*
X143922738Y-98857885D01*
X143762254Y-98804655D01*
X143761389Y-98804368D01*
X143761387Y-98804368D01*
X143754861Y-98802203D01*
X143748025Y-98801503D01*
X143748022Y-98801502D01*
X143704969Y-98797091D01*
X143650400Y-98791500D01*
X143024600Y-98791500D01*
X143021354Y-98791837D01*
X143021350Y-98791837D01*
X142925692Y-98801762D01*
X142925688Y-98801763D01*
X142918834Y-98802474D01*
X142912298Y-98804655D01*
X142912296Y-98804655D01*
X142874542Y-98817251D01*
X142751054Y-98858450D01*
X142687717Y-98897645D01*
X142621415Y-98916500D01*
X142503219Y-98916500D01*
X142435098Y-98896498D01*
X142409583Y-98874810D01*
X142394853Y-98858450D01*
X142361253Y-98821134D01*
X142206752Y-98708882D01*
X142200724Y-98706198D01*
X142200722Y-98706197D01*
X142038319Y-98633891D01*
X142038318Y-98633891D01*
X142032288Y-98631206D01*
X141938888Y-98611353D01*
X141851944Y-98592872D01*
X141851939Y-98592872D01*
X141845487Y-98591500D01*
X141654513Y-98591500D01*
X141648061Y-98592872D01*
X141648056Y-98592872D01*
X141561112Y-98611353D01*
X141467712Y-98631206D01*
X141461682Y-98633891D01*
X141461681Y-98633891D01*
X141299278Y-98706197D01*
X141299276Y-98706198D01*
X141293248Y-98708882D01*
X141138747Y-98821134D01*
X141134326Y-98826044D01*
X141134325Y-98826045D01*
X141101676Y-98862306D01*
X141010960Y-98963056D01*
X140978791Y-99018774D01*
X140930540Y-99102348D01*
X140915473Y-99128444D01*
X140856458Y-99310072D01*
X140836496Y-99500000D01*
X140837186Y-99506565D01*
X140837186Y-99506567D01*
X140838613Y-99520145D01*
X140825840Y-99589983D01*
X140802398Y-99622409D01*
X139715769Y-100709038D01*
X139703379Y-100719905D01*
X139679319Y-100738367D01*
X139643282Y-100785332D01*
X139585790Y-100860257D01*
X139526995Y-101002200D01*
X139506941Y-101154524D01*
X139508019Y-101162712D01*
X139510898Y-101184580D01*
X139511976Y-101201027D01*
X139511976Y-102649012D01*
X139491974Y-102717133D01*
X139438318Y-102763626D01*
X139385976Y-102775012D01*
X139350975Y-102775012D01*
X139344522Y-102776384D01*
X139344509Y-102776385D01*
X139201404Y-102806804D01*
X139130614Y-102801403D01*
X139090896Y-102777194D01*
X139090173Y-102776543D01*
X139085753Y-102771634D01*
X138961330Y-102681235D01*
X138917977Y-102625012D01*
X138911902Y-102554276D01*
X138941756Y-102494989D01*
X139034621Y-102391852D01*
X139034622Y-102391851D01*
X139039040Y-102386944D01*
X139134527Y-102221556D01*
X139193542Y-102039928D01*
X139198403Y-101993683D01*
X139212814Y-101856565D01*
X139213504Y-101850000D01*
X139203812Y-101757787D01*
X139194232Y-101666635D01*
X139194232Y-101666633D01*
X139193542Y-101660072D01*
X139134527Y-101478444D01*
X139039040Y-101313056D01*
X139002802Y-101272809D01*
X138915675Y-101176045D01*
X138915674Y-101176044D01*
X138911253Y-101171134D01*
X138756752Y-101058882D01*
X138750724Y-101056198D01*
X138750722Y-101056197D01*
X138588319Y-100983891D01*
X138588318Y-100983891D01*
X138582288Y-100981206D01*
X138488887Y-100961353D01*
X138401944Y-100942872D01*
X138401939Y-100942872D01*
X138395487Y-100941500D01*
X138204513Y-100941500D01*
X138198061Y-100942872D01*
X138198056Y-100942872D01*
X138111113Y-100961353D01*
X138017712Y-100981206D01*
X138011682Y-100983891D01*
X138011681Y-100983891D01*
X137849278Y-101056197D01*
X137849276Y-101056198D01*
X137843248Y-101058882D01*
X137688747Y-101171134D01*
X137684326Y-101176044D01*
X137684325Y-101176045D01*
X137640417Y-101224810D01*
X137579971Y-101262050D01*
X137546781Y-101266500D01*
X137108802Y-101266500D01*
X137040681Y-101246498D01*
X136994188Y-101192842D01*
X136984084Y-101122568D01*
X136998387Y-101079799D01*
X137045241Y-100994571D01*
X137056433Y-100974213D01*
X137060342Y-100961892D01*
X137114373Y-100791564D01*
X137114373Y-100791563D01*
X137116235Y-100785694D01*
X137133500Y-100631773D01*
X137133500Y-99669925D01*
X137153502Y-99601804D01*
X137170405Y-99580830D01*
X138694379Y-98056855D01*
X138704522Y-98047753D01*
X138729218Y-98027897D01*
X138734025Y-98024032D01*
X138766292Y-97985578D01*
X138769472Y-97981931D01*
X138771115Y-97980119D01*
X138773309Y-97977925D01*
X138800642Y-97944651D01*
X138801348Y-97943800D01*
X138857195Y-97877244D01*
X138861154Y-97872526D01*
X138863722Y-97867856D01*
X138867103Y-97863739D01*
X138911015Y-97781842D01*
X138911624Y-97780720D01*
X138953466Y-97704611D01*
X138953468Y-97704606D01*
X138956433Y-97699213D01*
X138958044Y-97694135D01*
X138960563Y-97689437D01*
X138987753Y-97600502D01*
X138988136Y-97599272D01*
X138991378Y-97589054D01*
X139016235Y-97510694D01*
X139016828Y-97505403D01*
X139018388Y-97500302D01*
X139027795Y-97407689D01*
X139027915Y-97406569D01*
X139033500Y-97356773D01*
X139033500Y-97353244D01*
X139033555Y-97352261D01*
X139034004Y-97346556D01*
X139037752Y-97309664D01*
X139037752Y-97309661D01*
X139038374Y-97303537D01*
X139034059Y-97257888D01*
X139033500Y-97246031D01*
X139033500Y-96800231D01*
X139032814Y-96793227D01*
X139025508Y-96718727D01*
X139019080Y-96653167D01*
X138961916Y-96463831D01*
X138869066Y-96289204D01*
X138795440Y-96198930D01*
X138747960Y-96140713D01*
X138747957Y-96140710D01*
X138744065Y-96135938D01*
X138737724Y-96130692D01*
X138596425Y-96013799D01*
X138596421Y-96013797D01*
X138591675Y-96009870D01*
X138417701Y-95915802D01*
X138228768Y-95857318D01*
X138222643Y-95856674D01*
X138222642Y-95856674D01*
X138038204Y-95837289D01*
X138038202Y-95837289D01*
X138032075Y-95836645D01*
X137949576Y-95844153D01*
X137841251Y-95854011D01*
X137841248Y-95854012D01*
X137835112Y-95854570D01*
X137829206Y-95856308D01*
X137829202Y-95856309D01*
X137754221Y-95878377D01*
X137645381Y-95910410D01*
X137639923Y-95913263D01*
X137639919Y-95913265D01*
X137549147Y-95960720D01*
X137470110Y-96002040D01*
X137315975Y-96125968D01*
X137188846Y-96277474D01*
X137185879Y-96282872D01*
X137185875Y-96282877D01*
X137132025Y-96380831D01*
X137093567Y-96450787D01*
X137091706Y-96456654D01*
X137091705Y-96456656D01*
X137041973Y-96613432D01*
X137033765Y-96639306D01*
X137016500Y-96793227D01*
X137016500Y-96830076D01*
X136996498Y-96898197D01*
X136979595Y-96919171D01*
X135723595Y-98175171D01*
X135661283Y-98209197D01*
X135590468Y-98204132D01*
X135533632Y-98161585D01*
X135508821Y-98095065D01*
X135508500Y-98086076D01*
X135508500Y-98033055D01*
X135528502Y-97964934D01*
X135540864Y-97948745D01*
X135659621Y-97816852D01*
X135659622Y-97816851D01*
X135664040Y-97811944D01*
X135734770Y-97689437D01*
X135756223Y-97652279D01*
X135756224Y-97652278D01*
X135759527Y-97646556D01*
X135818542Y-97464928D01*
X135819493Y-97455885D01*
X135837814Y-97281565D01*
X135838504Y-97275000D01*
X135818542Y-97085072D01*
X135759527Y-96903444D01*
X135739561Y-96868861D01*
X135667341Y-96743774D01*
X135664040Y-96738056D01*
X135573550Y-96637556D01*
X135540675Y-96601045D01*
X135540674Y-96601044D01*
X135536253Y-96596134D01*
X135492158Y-96564097D01*
X135448806Y-96507875D01*
X135442731Y-96437139D01*
X135477126Y-96373067D01*
X136904712Y-94945481D01*
X136917105Y-94934612D01*
X136934605Y-94921185D01*
X136934608Y-94921182D01*
X136941157Y-94916157D01*
X136964637Y-94885557D01*
X136964640Y-94885554D01*
X137034686Y-94794267D01*
X137093481Y-94652324D01*
X137113535Y-94500000D01*
X137109578Y-94469942D01*
X137108500Y-94453497D01*
X137108500Y-94101000D01*
X137128502Y-94032879D01*
X137182158Y-93986386D01*
X137234500Y-93975000D01*
X137556885Y-93975000D01*
X137572124Y-93970525D01*
X137573329Y-93969135D01*
X137575000Y-93961452D01*
X137575000Y-93709500D01*
X137595002Y-93641379D01*
X137648658Y-93594886D01*
X137701000Y-93583500D01*
X137749000Y-93583500D01*
X137817121Y-93603502D01*
X137863614Y-93657158D01*
X137875000Y-93709500D01*
X137875000Y-93956885D01*
X137879475Y-93972124D01*
X137880865Y-93973329D01*
X137888548Y-93975000D01*
X138368437Y-93975000D01*
X138380691Y-93973793D01*
X138435377Y-93962915D01*
X138457862Y-93953602D01*
X138519924Y-93912133D01*
X138537133Y-93894924D01*
X138578602Y-93832862D01*
X138587915Y-93810377D01*
X138598793Y-93755691D01*
X138600000Y-93743437D01*
X138600000Y-93709500D01*
X138620002Y-93641379D01*
X138673658Y-93594886D01*
X138726000Y-93583500D01*
X139249444Y-93583500D01*
X139317565Y-93603502D01*
X139364058Y-93657158D01*
X139374162Y-93727432D01*
X139344668Y-93792012D01*
X139289321Y-93829023D01*
X139283007Y-93831129D01*
X139282997Y-93831133D01*
X139276054Y-93833450D01*
X139125652Y-93926522D01*
X139000695Y-94051697D01*
X138996855Y-94057927D01*
X138996854Y-94057928D01*
X138961388Y-94115465D01*
X138907885Y-94202262D01*
X138905581Y-94209209D01*
X138864142Y-94334145D01*
X138852203Y-94370139D01*
X138851503Y-94376975D01*
X138851502Y-94376978D01*
X138850854Y-94383307D01*
X138841500Y-94474600D01*
X138841500Y-95275400D01*
X138841837Y-95278646D01*
X138841837Y-95278650D01*
X138849969Y-95357019D01*
X138852474Y-95381166D01*
X138854655Y-95387702D01*
X138854655Y-95387704D01*
X138868580Y-95429442D01*
X138908450Y-95548946D01*
X139001522Y-95699348D01*
X139126697Y-95824305D01*
X139132927Y-95828145D01*
X139132928Y-95828146D01*
X139270090Y-95912694D01*
X139277262Y-95917115D01*
X139357005Y-95943564D01*
X139438611Y-95970632D01*
X139438613Y-95970632D01*
X139445139Y-95972797D01*
X139451975Y-95973497D01*
X139451978Y-95973498D01*
X139495031Y-95977909D01*
X139549600Y-95983500D01*
X140950400Y-95983500D01*
X140953646Y-95983163D01*
X140953650Y-95983163D01*
X141049308Y-95973238D01*
X141049312Y-95973237D01*
X141056166Y-95972526D01*
X141062702Y-95970345D01*
X141062704Y-95970345D01*
X141194806Y-95926272D01*
X141223946Y-95916550D01*
X141374348Y-95823478D01*
X141499305Y-95698303D01*
X141504969Y-95689114D01*
X141588275Y-95553968D01*
X141588276Y-95553966D01*
X141592115Y-95547738D01*
X141647797Y-95379861D01*
X141650138Y-95357019D01*
X141658172Y-95278598D01*
X141658500Y-95275400D01*
X141658500Y-94474600D01*
X141656329Y-94453678D01*
X141648238Y-94375692D01*
X141648237Y-94375688D01*
X141647526Y-94368834D01*
X141591550Y-94201054D01*
X141498478Y-94050652D01*
X141373303Y-93925695D01*
X141351302Y-93912133D01*
X141276900Y-93866271D01*
X141229407Y-93813498D01*
X141217983Y-93743427D01*
X141246257Y-93678303D01*
X141305251Y-93638804D01*
X141343016Y-93633011D01*
X141463646Y-93633011D01*
X141477253Y-93633748D01*
X141508751Y-93637170D01*
X141508756Y-93637170D01*
X141514877Y-93637835D01*
X141541127Y-93635538D01*
X141564877Y-93633461D01*
X141569703Y-93633132D01*
X141572175Y-93633011D01*
X141575258Y-93633011D01*
X141587227Y-93631837D01*
X141617995Y-93628821D01*
X141619308Y-93628699D01*
X141663573Y-93624826D01*
X141711902Y-93620598D01*
X141717021Y-93619111D01*
X141722322Y-93618591D01*
X141811323Y-93591720D01*
X141812456Y-93591385D01*
X141895903Y-93567141D01*
X141895907Y-93567139D01*
X141901825Y-93565420D01*
X141906557Y-93562967D01*
X141911658Y-93561427D01*
X141934212Y-93549435D01*
X141993749Y-93517780D01*
X141994915Y-93517168D01*
X142071942Y-93477240D01*
X142077415Y-93474403D01*
X142081578Y-93471080D01*
X142086285Y-93468577D01*
X142158407Y-93409756D01*
X142159263Y-93409065D01*
X142198462Y-93377773D01*
X142200966Y-93375269D01*
X142201684Y-93374627D01*
X142206017Y-93370926D01*
X142239551Y-93343576D01*
X142268780Y-93308244D01*
X142276761Y-93299474D01*
X142955829Y-92620405D01*
X143018142Y-92586380D01*
X143044925Y-92583500D01*
X143263480Y-92583500D01*
X143331601Y-92603502D01*
G37*
%TD.AperFunction*%
%TA.AperFunction,Conductor*%
G36*
X139524238Y-109103502D02*
G01*
X139545212Y-109120405D01*
X141129595Y-110704788D01*
X141163621Y-110767100D01*
X141166500Y-110793883D01*
X141166500Y-111241945D01*
X141146498Y-111310066D01*
X141134136Y-111326255D01*
X141071971Y-111395297D01*
X141053136Y-111416215D01*
X140992690Y-111453455D01*
X140921707Y-111452103D01*
X140862722Y-111412590D01*
X140834464Y-111347459D01*
X140833500Y-111331905D01*
X140833500Y-111148119D01*
X140834578Y-111131671D01*
X140837457Y-111109805D01*
X140838535Y-111101618D01*
X140833500Y-111063374D01*
X140818481Y-110949294D01*
X140777372Y-110850048D01*
X140759686Y-110807350D01*
X140689639Y-110716063D01*
X140689637Y-110716061D01*
X140666157Y-110685461D01*
X140642106Y-110667006D01*
X140629715Y-110656139D01*
X139272171Y-109298595D01*
X139238145Y-109236283D01*
X139243210Y-109165468D01*
X139285757Y-109108632D01*
X139352277Y-109083821D01*
X139361266Y-109083500D01*
X139456117Y-109083500D01*
X139524238Y-109103502D01*
G37*
%TD.AperFunction*%
%TA.AperFunction,Conductor*%
G36*
X149934121Y-77528002D02*
G01*
X149980614Y-77581658D01*
X149992000Y-77634000D01*
X149992000Y-90005648D01*
X149971998Y-90073769D01*
X149918342Y-90120262D01*
X149848068Y-90130366D01*
X149783488Y-90100872D01*
X149748808Y-90051930D01*
X149698185Y-89923744D01*
X149698184Y-89923742D01*
X149696224Y-89918779D01*
X149608735Y-89774601D01*
X149579390Y-89726243D01*
X149576623Y-89721683D01*
X149489755Y-89621576D01*
X149429023Y-89551588D01*
X149429021Y-89551586D01*
X149425523Y-89547555D01*
X149329021Y-89468428D01*
X149251373Y-89404760D01*
X149251367Y-89404756D01*
X149247245Y-89401376D01*
X149242609Y-89398737D01*
X149242606Y-89398735D01*
X149051529Y-89289968D01*
X149046886Y-89287325D01*
X148830175Y-89208663D01*
X148824926Y-89207714D01*
X148824923Y-89207713D01*
X148607392Y-89168377D01*
X148607385Y-89168376D01*
X148603308Y-89167639D01*
X148585586Y-89166803D01*
X148580644Y-89166570D01*
X148580637Y-89166570D01*
X148579156Y-89166500D01*
X148117110Y-89166500D01*
X148050191Y-89172178D01*
X147950591Y-89180629D01*
X147950587Y-89180630D01*
X147945280Y-89181080D01*
X147940125Y-89182418D01*
X147940119Y-89182419D01*
X147727297Y-89237657D01*
X147727293Y-89237658D01*
X147722128Y-89238999D01*
X147717262Y-89241191D01*
X147717259Y-89241192D01*
X147608980Y-89289968D01*
X147511925Y-89333688D01*
X147320681Y-89462441D01*
X147153865Y-89621576D01*
X147016246Y-89806542D01*
X147013830Y-89811293D01*
X147013828Y-89811297D01*
X147000668Y-89837181D01*
X146911760Y-90012051D01*
X146910176Y-90017151D01*
X146910176Y-90017152D01*
X146862173Y-90171746D01*
X146822870Y-90230872D01*
X146757841Y-90259362D01*
X146687732Y-90248172D01*
X146671839Y-90239147D01*
X146607862Y-90196398D01*
X146585377Y-90187085D01*
X146530691Y-90176207D01*
X146518437Y-90175000D01*
X146043115Y-90175000D01*
X146027876Y-90179475D01*
X146026671Y-90180865D01*
X146025000Y-90188548D01*
X146025000Y-90440500D01*
X146004998Y-90508621D01*
X145951342Y-90555114D01*
X145899000Y-90566500D01*
X145851000Y-90566500D01*
X145782879Y-90546498D01*
X145736386Y-90492842D01*
X145725000Y-90440500D01*
X145725000Y-90193115D01*
X145720525Y-90177876D01*
X145719135Y-90176671D01*
X145711452Y-90175000D01*
X145231563Y-90175000D01*
X145219309Y-90176207D01*
X145164623Y-90187085D01*
X145142138Y-90196398D01*
X145080076Y-90237867D01*
X145062867Y-90255076D01*
X145021398Y-90317138D01*
X145012085Y-90339623D01*
X145001207Y-90394309D01*
X145000000Y-90406563D01*
X145000000Y-90440500D01*
X144979998Y-90508621D01*
X144926342Y-90555114D01*
X144874000Y-90566500D01*
X144350556Y-90566500D01*
X144282435Y-90546498D01*
X144235942Y-90492842D01*
X144225838Y-90422568D01*
X144255332Y-90357988D01*
X144310679Y-90320977D01*
X144316993Y-90318871D01*
X144317003Y-90318867D01*
X144323946Y-90316550D01*
X144474348Y-90223478D01*
X144599305Y-90098303D01*
X144648686Y-90018193D01*
X144688275Y-89953968D01*
X144688276Y-89953966D01*
X144692115Y-89947738D01*
X144729925Y-89833745D01*
X144745632Y-89786389D01*
X144745632Y-89786387D01*
X144747797Y-89779861D01*
X144748907Y-89769033D01*
X144754171Y-89717653D01*
X144758500Y-89675400D01*
X144758500Y-88874600D01*
X144749982Y-88792500D01*
X144748238Y-88775692D01*
X144748237Y-88775688D01*
X144747526Y-88768834D01*
X144742633Y-88754166D01*
X144693868Y-88608002D01*
X144691550Y-88601054D01*
X144598478Y-88450652D01*
X144473303Y-88325695D01*
X144467072Y-88321854D01*
X144328968Y-88236725D01*
X144328966Y-88236724D01*
X144322738Y-88232885D01*
X144162254Y-88179655D01*
X144161389Y-88179368D01*
X144161387Y-88179368D01*
X144154861Y-88177203D01*
X144148025Y-88176503D01*
X144148022Y-88176502D01*
X144104969Y-88172091D01*
X144050400Y-88166500D01*
X142649600Y-88166500D01*
X142646354Y-88166837D01*
X142646350Y-88166837D01*
X142550692Y-88176762D01*
X142550688Y-88176763D01*
X142543834Y-88177474D01*
X142537298Y-88179655D01*
X142537296Y-88179655D01*
X142471373Y-88201649D01*
X142376054Y-88233450D01*
X142225652Y-88326522D01*
X142100695Y-88451697D01*
X142096855Y-88457927D01*
X142096854Y-88457928D01*
X142029776Y-88566749D01*
X142007885Y-88602262D01*
X142005581Y-88609209D01*
X141958847Y-88750109D01*
X141952203Y-88770139D01*
X141941500Y-88874600D01*
X141941500Y-89675400D01*
X141941837Y-89678645D01*
X141941837Y-89678650D01*
X141951218Y-89769060D01*
X141952474Y-89781166D01*
X141954655Y-89787702D01*
X141954655Y-89787704D01*
X141971162Y-89837181D01*
X142008450Y-89948946D01*
X142101522Y-90099348D01*
X142226697Y-90224305D01*
X142232927Y-90228145D01*
X142232928Y-90228146D01*
X142370090Y-90312694D01*
X142377262Y-90317115D01*
X142403040Y-90325665D01*
X142425416Y-90333087D01*
X142483776Y-90373518D01*
X142511012Y-90439083D01*
X142498478Y-90508964D01*
X142450153Y-90560976D01*
X142400724Y-90576912D01*
X142400786Y-90577241D01*
X142398203Y-90577724D01*
X142396725Y-90578201D01*
X142394720Y-90578376D01*
X142394716Y-90578377D01*
X142388587Y-90578913D01*
X142383468Y-90580400D01*
X142378167Y-90580920D01*
X142289166Y-90607791D01*
X142288033Y-90608126D01*
X142204586Y-90632370D01*
X142204582Y-90632372D01*
X142198664Y-90634091D01*
X142193932Y-90636544D01*
X142188831Y-90638084D01*
X142183388Y-90640978D01*
X142106740Y-90681731D01*
X142105574Y-90682343D01*
X142088569Y-90691158D01*
X142023074Y-90725108D01*
X142018911Y-90728431D01*
X142014204Y-90730934D01*
X142009429Y-90734828D01*
X142009428Y-90734829D01*
X141942102Y-90789739D01*
X141941075Y-90790567D01*
X141904792Y-90819531D01*
X141904787Y-90819536D01*
X141902028Y-90821738D01*
X141899527Y-90824239D01*
X141898809Y-90824881D01*
X141894461Y-90828594D01*
X141860938Y-90855935D01*
X141857015Y-90860677D01*
X141857013Y-90860679D01*
X141831703Y-90891273D01*
X141823713Y-90900053D01*
X141172219Y-91551547D01*
X141109907Y-91585573D01*
X141039092Y-91580508D01*
X140982256Y-91537961D01*
X140957814Y-91475622D01*
X140943732Y-91341635D01*
X140943732Y-91341633D01*
X140943042Y-91335072D01*
X140884027Y-91153444D01*
X140788540Y-90988056D01*
X140674582Y-90861492D01*
X140665175Y-90851045D01*
X140665174Y-90851044D01*
X140660753Y-90846134D01*
X140538417Y-90757251D01*
X140511594Y-90737763D01*
X140511593Y-90737762D01*
X140506252Y-90733882D01*
X140500224Y-90731198D01*
X140500222Y-90731197D01*
X140337819Y-90658891D01*
X140337818Y-90658891D01*
X140331788Y-90656206D01*
X140325333Y-90654834D01*
X140325330Y-90654833D01*
X140272909Y-90643691D01*
X140226986Y-90633930D01*
X140164513Y-90600202D01*
X140130191Y-90538052D01*
X140127870Y-90523818D01*
X140127746Y-90522635D01*
X140140537Y-90452800D01*
X140189054Y-90400967D01*
X140253059Y-90383500D01*
X140950400Y-90383500D01*
X140953646Y-90383163D01*
X140953650Y-90383163D01*
X141049308Y-90373238D01*
X141049312Y-90373237D01*
X141056166Y-90372526D01*
X141062702Y-90370345D01*
X141062704Y-90370345D01*
X141210677Y-90320977D01*
X141223946Y-90316550D01*
X141374348Y-90223478D01*
X141499305Y-90098303D01*
X141548686Y-90018193D01*
X141588275Y-89953968D01*
X141588276Y-89953966D01*
X141592115Y-89947738D01*
X141629925Y-89833745D01*
X141645632Y-89786389D01*
X141645632Y-89786387D01*
X141647797Y-89779861D01*
X141648907Y-89769033D01*
X141654171Y-89717653D01*
X141658500Y-89675400D01*
X141658500Y-88874600D01*
X141649982Y-88792500D01*
X141648238Y-88775692D01*
X141648237Y-88775688D01*
X141647526Y-88768834D01*
X141642633Y-88754166D01*
X141593868Y-88608002D01*
X141591550Y-88601054D01*
X141498478Y-88450652D01*
X141373303Y-88325695D01*
X141367072Y-88321854D01*
X141228968Y-88236725D01*
X141228966Y-88236724D01*
X141222738Y-88232885D01*
X141062254Y-88179655D01*
X141061389Y-88179368D01*
X141061387Y-88179368D01*
X141054861Y-88177203D01*
X141048025Y-88176503D01*
X141048022Y-88176502D01*
X141004969Y-88172091D01*
X140950400Y-88166500D01*
X139549600Y-88166500D01*
X139546354Y-88166837D01*
X139546350Y-88166837D01*
X139450692Y-88176762D01*
X139450688Y-88176763D01*
X139443834Y-88177474D01*
X139437298Y-88179655D01*
X139437296Y-88179655D01*
X139371373Y-88201649D01*
X139276054Y-88233450D01*
X139125652Y-88326522D01*
X139000695Y-88451697D01*
X138996855Y-88457927D01*
X138996854Y-88457928D01*
X138929776Y-88566749D01*
X138907885Y-88602262D01*
X138905581Y-88609209D01*
X138858847Y-88750109D01*
X138852203Y-88770139D01*
X138841500Y-88874600D01*
X138841500Y-89675400D01*
X138844549Y-89704781D01*
X138831685Y-89774601D01*
X138783115Y-89826384D01*
X138778507Y-89828756D01*
X138774281Y-89831196D01*
X138768248Y-89833882D01*
X138767720Y-89834266D01*
X138700871Y-89850483D01*
X138642725Y-89833079D01*
X138620425Y-89819891D01*
X138613601Y-89815855D01*
X138605990Y-89813644D01*
X138605988Y-89813643D01*
X138539800Y-89794414D01*
X138453831Y-89769438D01*
X138447426Y-89768934D01*
X138447421Y-89768933D01*
X138418958Y-89766693D01*
X138418950Y-89766693D01*
X138416502Y-89766500D01*
X137033498Y-89766500D01*
X137031050Y-89766693D01*
X137031042Y-89766693D01*
X137002579Y-89768933D01*
X137002574Y-89768934D01*
X136996169Y-89769438D01*
X136910200Y-89794414D01*
X136844012Y-89813643D01*
X136844010Y-89813644D01*
X136836399Y-89815855D01*
X136814585Y-89828756D01*
X136700020Y-89896509D01*
X136700017Y-89896511D01*
X136693193Y-89900547D01*
X136575547Y-90018193D01*
X136571509Y-90025020D01*
X136566653Y-90031281D01*
X136565354Y-90030274D01*
X136520272Y-90072369D01*
X136450422Y-90085075D01*
X136384790Y-90058001D01*
X136343512Y-89997575D01*
X136338972Y-89983138D01*
X136338971Y-89983135D01*
X136337619Y-89978836D01*
X136306901Y-89914829D01*
X136252136Y-89833079D01*
X136228942Y-89798456D01*
X136228938Y-89798451D01*
X136226430Y-89794707D01*
X136183065Y-89746545D01*
X136167585Y-89725238D01*
X136138732Y-89675263D01*
X136128018Y-89651200D01*
X136090285Y-89535073D01*
X136089594Y-89532946D01*
X136088755Y-89530875D01*
X136088750Y-89530862D01*
X136088731Y-89530815D01*
X136085860Y-89522999D01*
X136083006Y-89514356D01*
X136062723Y-89462628D01*
X135984551Y-89340990D01*
X135980811Y-89336673D01*
X135940998Y-89290727D01*
X135938058Y-89287334D01*
X135890070Y-89245752D01*
X135851687Y-89186026D01*
X135851689Y-89117937D01*
X135851199Y-89117830D01*
X135851689Y-89115578D01*
X135851689Y-89115023D01*
X135852155Y-89113437D01*
X135853423Y-89109119D01*
X135858923Y-89070866D01*
X135873361Y-88970448D01*
X135873362Y-88970441D01*
X135874000Y-88966000D01*
X135874000Y-88149429D01*
X135870959Y-88093931D01*
X135867951Y-88066562D01*
X135858863Y-88011715D01*
X135856659Y-88005890D01*
X135855380Y-88001140D01*
X135856986Y-87930161D01*
X135896711Y-87871318D01*
X135902986Y-87866449D01*
X135918667Y-87855056D01*
X135993253Y-87800866D01*
X136089411Y-87694072D01*
X136116621Y-87663852D01*
X136116622Y-87663851D01*
X136121040Y-87658944D01*
X136216527Y-87493556D01*
X136275542Y-87311928D01*
X136282745Y-87243401D01*
X136294814Y-87128565D01*
X136295504Y-87122000D01*
X136284280Y-87015206D01*
X136276232Y-86938635D01*
X136276232Y-86938633D01*
X136275542Y-86932072D01*
X136216527Y-86750444D01*
X136121040Y-86585056D01*
X135993253Y-86443134D01*
X135900149Y-86375490D01*
X135856796Y-86319269D01*
X135850721Y-86248533D01*
X135851247Y-86246411D01*
X135851199Y-86246401D01*
X135852154Y-86242010D01*
X135853423Y-86237690D01*
X135854064Y-86233235D01*
X135873361Y-86099019D01*
X135873362Y-86099012D01*
X135874000Y-86094571D01*
X135874000Y-84633999D01*
X135862391Y-84526019D01*
X135861676Y-84522734D01*
X135861673Y-84522713D01*
X135854024Y-84487552D01*
X135859088Y-84416737D01*
X135888049Y-84371674D01*
X135891080Y-84368643D01*
X135898261Y-84363261D01*
X135985615Y-84246705D01*
X136036745Y-84110316D01*
X136043500Y-84048134D01*
X136043500Y-82151866D01*
X136036745Y-82089684D01*
X135985615Y-81953295D01*
X135898261Y-81836739D01*
X135781705Y-81749385D01*
X135645316Y-81698255D01*
X135583134Y-81691500D01*
X133686866Y-81691500D01*
X133628672Y-81697822D01*
X133558791Y-81685294D01*
X133532552Y-81667783D01*
X133532062Y-81667358D01*
X133445839Y-81592645D01*
X133314313Y-81532579D01*
X133277937Y-81521898D01*
X133250515Y-81513846D01*
X133250511Y-81513845D01*
X133246192Y-81512577D01*
X133241744Y-81511937D01*
X133241737Y-81511936D01*
X133107521Y-81492639D01*
X133107514Y-81492638D01*
X133103073Y-81492000D01*
X130011531Y-81492000D01*
X129943410Y-81471998D01*
X129896917Y-81418342D01*
X129886813Y-81348068D01*
X129916307Y-81283488D01*
X129976033Y-81245104D01*
X129985657Y-81242685D01*
X130025391Y-81234348D01*
X130041791Y-81230907D01*
X130046750Y-81228949D01*
X130046752Y-81228948D01*
X130251256Y-81148185D01*
X130251258Y-81148184D01*
X130256221Y-81146224D01*
X130292343Y-81124305D01*
X130448757Y-81029390D01*
X130448756Y-81029390D01*
X130453317Y-81026623D01*
X130487018Y-80997379D01*
X130623412Y-80879023D01*
X130623414Y-80879021D01*
X130627445Y-80875523D01*
X130674445Y-80818202D01*
X130770240Y-80701373D01*
X130770244Y-80701367D01*
X130773624Y-80697245D01*
X130780448Y-80685258D01*
X130885032Y-80501529D01*
X130887675Y-80496886D01*
X130966337Y-80280175D01*
X130977600Y-80217890D01*
X136095500Y-80217890D01*
X136110080Y-80389720D01*
X136111418Y-80394875D01*
X136111419Y-80394881D01*
X136166657Y-80607703D01*
X136167999Y-80612872D01*
X136170191Y-80617738D01*
X136170192Y-80617741D01*
X136214994Y-80717198D01*
X136262688Y-80823075D01*
X136391441Y-81014319D01*
X136395120Y-81018176D01*
X136395122Y-81018178D01*
X136454640Y-81080568D01*
X136550576Y-81181135D01*
X136554854Y-81184318D01*
X136560125Y-81188240D01*
X136735542Y-81318754D01*
X136740293Y-81321170D01*
X136740297Y-81321172D01*
X136835448Y-81369549D01*
X136941051Y-81423240D01*
X136946145Y-81424822D01*
X136946148Y-81424823D01*
X137146020Y-81486885D01*
X137161227Y-81491607D01*
X137166516Y-81492308D01*
X137384489Y-81521198D01*
X137384494Y-81521198D01*
X137389774Y-81521898D01*
X137395103Y-81521698D01*
X137395105Y-81521698D01*
X137504966Y-81517573D01*
X137620158Y-81513249D01*
X137642802Y-81508498D01*
X137732974Y-81489578D01*
X137845791Y-81465907D01*
X137850750Y-81463949D01*
X137850752Y-81463948D01*
X138055256Y-81383185D01*
X138055258Y-81383184D01*
X138060221Y-81381224D01*
X138090384Y-81362921D01*
X138252757Y-81264390D01*
X138252756Y-81264390D01*
X138257317Y-81261623D01*
X138261347Y-81258126D01*
X138427412Y-81114023D01*
X138427414Y-81114021D01*
X138431445Y-81110523D01*
X138460670Y-81074880D01*
X138519329Y-81034886D01*
X138590299Y-81032954D01*
X138651048Y-81069698D01*
X138665248Y-81088468D01*
X138684225Y-81119134D01*
X138755522Y-81234348D01*
X138880697Y-81359305D01*
X138886927Y-81363145D01*
X138886928Y-81363146D01*
X139024090Y-81447694D01*
X139031262Y-81452115D01*
X139066938Y-81463948D01*
X139192611Y-81505632D01*
X139192613Y-81505632D01*
X139199139Y-81507797D01*
X139205975Y-81508497D01*
X139205978Y-81508498D01*
X139257842Y-81513812D01*
X139323569Y-81540654D01*
X139364350Y-81598769D01*
X139367238Y-81669707D01*
X139331316Y-81730945D01*
X139284145Y-81758920D01*
X139167314Y-81797106D01*
X139162726Y-81799494D01*
X139162722Y-81799496D01*
X138966461Y-81901663D01*
X138961872Y-81904052D01*
X138957739Y-81907155D01*
X138957736Y-81907157D01*
X138802440Y-82023757D01*
X138776655Y-82043117D01*
X138616639Y-82210564D01*
X138613725Y-82214836D01*
X138613724Y-82214837D01*
X138598152Y-82237665D01*
X138486119Y-82401899D01*
X138388602Y-82611981D01*
X138326707Y-82835169D01*
X138302095Y-83065469D01*
X138302392Y-83070622D01*
X138302392Y-83070625D01*
X138308067Y-83169041D01*
X138315427Y-83296697D01*
X138316564Y-83301743D01*
X138316565Y-83301749D01*
X138346362Y-83433965D01*
X138366346Y-83522642D01*
X138368288Y-83527424D01*
X138368289Y-83527428D01*
X138451540Y-83732450D01*
X138453484Y-83737237D01*
X138574501Y-83934719D01*
X138726147Y-84109784D01*
X138904349Y-84257730D01*
X139104322Y-84374584D01*
X139109147Y-84376426D01*
X139109148Y-84376427D01*
X139135275Y-84386404D01*
X139320694Y-84457209D01*
X139325760Y-84458240D01*
X139325761Y-84458240D01*
X139378846Y-84469040D01*
X139547656Y-84503385D01*
X139678324Y-84508176D01*
X139773949Y-84511683D01*
X139773953Y-84511683D01*
X139779113Y-84511872D01*
X139784233Y-84511216D01*
X139784235Y-84511216D01*
X139857270Y-84501860D01*
X140008847Y-84482442D01*
X140013795Y-84480957D01*
X140013802Y-84480956D01*
X140225747Y-84417369D01*
X140230690Y-84415886D01*
X140235324Y-84413616D01*
X140434049Y-84316262D01*
X140434052Y-84316260D01*
X140438684Y-84313991D01*
X140627243Y-84179494D01*
X140791303Y-84016005D01*
X140926458Y-83827917D01*
X140973641Y-83732450D01*
X141026784Y-83624922D01*
X141026785Y-83624920D01*
X141029078Y-83620280D01*
X141096408Y-83398671D01*
X141126640Y-83169041D01*
X141128327Y-83100000D01*
X141122032Y-83023434D01*
X141109773Y-82874318D01*
X141109772Y-82874312D01*
X141109349Y-82869167D01*
X141052925Y-82644533D01*
X141050866Y-82639797D01*
X140962630Y-82436868D01*
X140962628Y-82436865D01*
X140960570Y-82432131D01*
X140925636Y-82378132D01*
X142836757Y-82378132D01*
X142851781Y-82736588D01*
X142867042Y-82835169D01*
X142903493Y-83070625D01*
X142906668Y-83091136D01*
X142907590Y-83094528D01*
X142907590Y-83094530D01*
X142926924Y-83165691D01*
X143000734Y-83437356D01*
X143052211Y-83567372D01*
X143121209Y-83741641D01*
X143132806Y-83770933D01*
X143134461Y-83774045D01*
X143134463Y-83774050D01*
X143195421Y-83888694D01*
X143301239Y-84087709D01*
X143303224Y-84090607D01*
X143303230Y-84090618D01*
X143501942Y-84380829D01*
X143501947Y-84380835D01*
X143503933Y-84383736D01*
X143506236Y-84386404D01*
X143719954Y-84633999D01*
X143738361Y-84655324D01*
X144001602Y-84899087D01*
X144290375Y-85111989D01*
X144601080Y-85291375D01*
X144604301Y-85292782D01*
X144926622Y-85433601D01*
X144926632Y-85433605D01*
X144929844Y-85435008D01*
X144933201Y-85436047D01*
X144933206Y-85436049D01*
X145075735Y-85480169D01*
X145272570Y-85541100D01*
X145624987Y-85608327D01*
X145821571Y-85623453D01*
X145979203Y-85635582D01*
X145979204Y-85635582D01*
X145982700Y-85635851D01*
X146200001Y-85628263D01*
X146337738Y-85623453D01*
X146337743Y-85623453D01*
X146341253Y-85623330D01*
X146344734Y-85622816D01*
X146692683Y-85571436D01*
X146692689Y-85571435D01*
X146696175Y-85570920D01*
X146699579Y-85570021D01*
X146699582Y-85570020D01*
X147039652Y-85480169D01*
X147039653Y-85480169D01*
X147043043Y-85479273D01*
X147377534Y-85349533D01*
X147695478Y-85183316D01*
X147992913Y-84982693D01*
X148266131Y-84750167D01*
X148378365Y-84630650D01*
X148509316Y-84491202D01*
X148509320Y-84491197D01*
X148511727Y-84488634D01*
X148513832Y-84485820D01*
X148513838Y-84485813D01*
X148724530Y-84204174D01*
X148726639Y-84201355D01*
X148908189Y-83891910D01*
X149054115Y-83564156D01*
X149162596Y-83222179D01*
X149232282Y-82870241D01*
X149262303Y-82512728D01*
X149263363Y-82436868D01*
X149263526Y-82425178D01*
X149263526Y-82425166D01*
X149263556Y-82423000D01*
X149262639Y-82406587D01*
X149248207Y-82148469D01*
X149243529Y-82064788D01*
X149239864Y-82043117D01*
X149184286Y-81714522D01*
X149184285Y-81714518D01*
X149183697Y-81711041D01*
X149179907Y-81697822D01*
X149133059Y-81534448D01*
X149084806Y-81366169D01*
X149030043Y-81233303D01*
X148949427Y-81037713D01*
X148949423Y-81037705D01*
X148948089Y-81034468D01*
X148775250Y-80720075D01*
X148568443Y-80426907D01*
X148330245Y-80158619D01*
X148063626Y-79918554D01*
X148060776Y-79916513D01*
X148060769Y-79916508D01*
X147774763Y-79711748D01*
X147774760Y-79711746D01*
X147771909Y-79709705D01*
X147458730Y-79534675D01*
X147127992Y-79395646D01*
X147124623Y-79394655D01*
X147124619Y-79394653D01*
X146972754Y-79349957D01*
X146783818Y-79294350D01*
X146500904Y-79244464D01*
X146433958Y-79232660D01*
X146433956Y-79232660D01*
X146430498Y-79232050D01*
X146426987Y-79231829D01*
X146426986Y-79231829D01*
X146075953Y-79209743D01*
X146075947Y-79209743D01*
X146072435Y-79209522D01*
X145971046Y-79214481D01*
X145717599Y-79226876D01*
X145717591Y-79226877D01*
X145714092Y-79227048D01*
X145710624Y-79227610D01*
X145710621Y-79227610D01*
X145363411Y-79283846D01*
X145363408Y-79283847D01*
X145359936Y-79284409D01*
X145356549Y-79285355D01*
X145356543Y-79285356D01*
X145072406Y-79364689D01*
X145014381Y-79380890D01*
X144848058Y-79448089D01*
X144684998Y-79513969D01*
X144684994Y-79513971D01*
X144681734Y-79515288D01*
X144678647Y-79516957D01*
X144678643Y-79516959D01*
X144642699Y-79536394D01*
X144366142Y-79685928D01*
X144071537Y-79890683D01*
X144068895Y-79892996D01*
X144068891Y-79892999D01*
X143824080Y-80107316D01*
X143801593Y-80127002D01*
X143559672Y-80391938D01*
X143348792Y-80682190D01*
X143347050Y-80685256D01*
X143347049Y-80685258D01*
X143328905Y-80717198D01*
X143171580Y-80994140D01*
X143116146Y-81123478D01*
X143033816Y-81315568D01*
X143030245Y-81323899D01*
X143018464Y-81362921D01*
X142930105Y-81655581D01*
X142926549Y-81667358D01*
X142920369Y-81701029D01*
X142868640Y-81982881D01*
X142861784Y-82020235D01*
X142836757Y-82378132D01*
X140925636Y-82378132D01*
X140834764Y-82237665D01*
X140678887Y-82066358D01*
X140674836Y-82063159D01*
X140674832Y-82063155D01*
X140501177Y-81926011D01*
X140501172Y-81926008D01*
X140497123Y-81922810D01*
X140492607Y-81920317D01*
X140492604Y-81920315D01*
X140298879Y-81813373D01*
X140298875Y-81813371D01*
X140294355Y-81810876D01*
X140289486Y-81809152D01*
X140289482Y-81809150D01*
X140159929Y-81763273D01*
X140102393Y-81721679D01*
X140076477Y-81655581D01*
X140090411Y-81585965D01*
X140139770Y-81534934D01*
X140201989Y-81518500D01*
X140604400Y-81518500D01*
X140607646Y-81518163D01*
X140607650Y-81518163D01*
X140703308Y-81508238D01*
X140703312Y-81508237D01*
X140710166Y-81507526D01*
X140716702Y-81505345D01*
X140716704Y-81505345D01*
X140848806Y-81461272D01*
X140877946Y-81451550D01*
X141028348Y-81358478D01*
X141153305Y-81233303D01*
X141162203Y-81218868D01*
X141242275Y-81088968D01*
X141242276Y-81088966D01*
X141246115Y-81082738D01*
X141274427Y-80997379D01*
X141299632Y-80921389D01*
X141299632Y-80921387D01*
X141301797Y-80914861D01*
X141312500Y-80810400D01*
X141312500Y-79209600D01*
X141312163Y-79206350D01*
X141302238Y-79110692D01*
X141302237Y-79110688D01*
X141301526Y-79103834D01*
X141297710Y-79092394D01*
X141247868Y-78943002D01*
X141245550Y-78936054D01*
X141152478Y-78785652D01*
X141027303Y-78660695D01*
X141021072Y-78656854D01*
X140882968Y-78571725D01*
X140882966Y-78571724D01*
X140876738Y-78567885D01*
X140796995Y-78541436D01*
X140715389Y-78514368D01*
X140715387Y-78514368D01*
X140708861Y-78512203D01*
X140702025Y-78511503D01*
X140702022Y-78511502D01*
X140658969Y-78507091D01*
X140604400Y-78501500D01*
X139303600Y-78501500D01*
X139300354Y-78501837D01*
X139300350Y-78501837D01*
X139204692Y-78511762D01*
X139204688Y-78511763D01*
X139197834Y-78512474D01*
X139191298Y-78514655D01*
X139191296Y-78514655D01*
X139154672Y-78526874D01*
X139030054Y-78568450D01*
X138879652Y-78661522D01*
X138754695Y-78786697D01*
X138681170Y-78905977D01*
X138664920Y-78932339D01*
X138612148Y-78979832D01*
X138542076Y-78991256D01*
X138476952Y-78962982D01*
X138466490Y-78953195D01*
X138386013Y-78868834D01*
X138357424Y-78838865D01*
X138172458Y-78701246D01*
X138167707Y-78698830D01*
X138167703Y-78698828D01*
X138045731Y-78636815D01*
X137966949Y-78596760D01*
X137961855Y-78595178D01*
X137961852Y-78595177D01*
X137751871Y-78529976D01*
X137746773Y-78528393D01*
X137735312Y-78526874D01*
X137523511Y-78498802D01*
X137523506Y-78498802D01*
X137518226Y-78498102D01*
X137512897Y-78498302D01*
X137512895Y-78498302D01*
X137403034Y-78502427D01*
X137287842Y-78506751D01*
X137282623Y-78507846D01*
X137260566Y-78512474D01*
X137062209Y-78554093D01*
X137057250Y-78556051D01*
X137057248Y-78556052D01*
X136852744Y-78636815D01*
X136852742Y-78636816D01*
X136847779Y-78638776D01*
X136843220Y-78641543D01*
X136843217Y-78641544D01*
X136721668Y-78715302D01*
X136650683Y-78758377D01*
X136646653Y-78761874D01*
X136489664Y-78898102D01*
X136476555Y-78909477D01*
X136457809Y-78932339D01*
X136333760Y-79083627D01*
X136333756Y-79083633D01*
X136330376Y-79087755D01*
X136216325Y-79288114D01*
X136137663Y-79504825D01*
X136136714Y-79510074D01*
X136136713Y-79510077D01*
X136097377Y-79727608D01*
X136097376Y-79727615D01*
X136096639Y-79731692D01*
X136095500Y-79755844D01*
X136095500Y-80217890D01*
X130977600Y-80217890D01*
X130994035Y-80127002D01*
X131006623Y-80057392D01*
X131006624Y-80057385D01*
X131007361Y-80053308D01*
X131008500Y-80029156D01*
X131008500Y-79567110D01*
X130993920Y-79395280D01*
X130992582Y-79390125D01*
X130992581Y-79390119D01*
X130937343Y-79177297D01*
X130937342Y-79177293D01*
X130936001Y-79172128D01*
X130896135Y-79083627D01*
X130867640Y-79020371D01*
X130841312Y-78961925D01*
X130712559Y-78770681D01*
X130653918Y-78709209D01*
X130641347Y-78696032D01*
X130553424Y-78603865D01*
X130547125Y-78599178D01*
X130430226Y-78512203D01*
X130368458Y-78466246D01*
X130363707Y-78463830D01*
X130363703Y-78463828D01*
X130241731Y-78401815D01*
X130162949Y-78361760D01*
X130157855Y-78360178D01*
X130157852Y-78360177D01*
X129947871Y-78294976D01*
X129942773Y-78293393D01*
X129937484Y-78292692D01*
X129719511Y-78263802D01*
X129719506Y-78263802D01*
X129714226Y-78263102D01*
X129708897Y-78263302D01*
X129708895Y-78263302D01*
X129599034Y-78267426D01*
X129483842Y-78271751D01*
X129478623Y-78272846D01*
X129456566Y-78277474D01*
X129258209Y-78319093D01*
X129253250Y-78321051D01*
X129253248Y-78321052D01*
X129048744Y-78401815D01*
X129048742Y-78401816D01*
X129043779Y-78403776D01*
X129039220Y-78406543D01*
X129039217Y-78406544D01*
X128940832Y-78466246D01*
X128846683Y-78523377D01*
X128842653Y-78526874D01*
X128681513Y-78666704D01*
X128672555Y-78674477D01*
X128643330Y-78710120D01*
X128584671Y-78750114D01*
X128513701Y-78752046D01*
X128452952Y-78715302D01*
X128438752Y-78696532D01*
X128352332Y-78556880D01*
X128348478Y-78550652D01*
X128223303Y-78425695D01*
X128217072Y-78421854D01*
X128078968Y-78336725D01*
X128078966Y-78336724D01*
X128072738Y-78332885D01*
X127992995Y-78306436D01*
X127911389Y-78279368D01*
X127911387Y-78279368D01*
X127904861Y-78277203D01*
X127898025Y-78276503D01*
X127898022Y-78276502D01*
X127854969Y-78272091D01*
X127800400Y-78266500D01*
X126499600Y-78266500D01*
X126496354Y-78266837D01*
X126496350Y-78266837D01*
X126400692Y-78276762D01*
X126400688Y-78276763D01*
X126393834Y-78277474D01*
X126387298Y-78279655D01*
X126387296Y-78279655D01*
X126348220Y-78292692D01*
X126226054Y-78333450D01*
X126075652Y-78426522D01*
X125950695Y-78551697D01*
X125946855Y-78557927D01*
X125946854Y-78557928D01*
X125882998Y-78661522D01*
X125857885Y-78702262D01*
X125802203Y-78870139D01*
X125791500Y-78974600D01*
X125791500Y-80575400D01*
X125791837Y-80578646D01*
X125791837Y-80578650D01*
X125794852Y-80607703D01*
X125802474Y-80681166D01*
X125804655Y-80687702D01*
X125804655Y-80687704D01*
X125840033Y-80793744D01*
X125858450Y-80848946D01*
X125951522Y-80999348D01*
X126076697Y-81124305D01*
X126082927Y-81128145D01*
X126082928Y-81128146D01*
X126220090Y-81212694D01*
X126227262Y-81217115D01*
X126262938Y-81228948D01*
X126315575Y-81246407D01*
X126373935Y-81286838D01*
X126401172Y-81352402D01*
X126388639Y-81422283D01*
X126340314Y-81474295D01*
X126275908Y-81492000D01*
X121522000Y-81492000D01*
X121414020Y-81503609D01*
X121410736Y-81504323D01*
X121410732Y-81504324D01*
X121392740Y-81508238D01*
X121361678Y-81514995D01*
X121258628Y-81549293D01*
X121136990Y-81627465D01*
X121083334Y-81673958D01*
X121080393Y-81677352D01*
X121069333Y-81690116D01*
X120988645Y-81783234D01*
X120984901Y-81791431D01*
X120984901Y-81791432D01*
X120976021Y-81810876D01*
X120928579Y-81914760D01*
X120908577Y-81982881D01*
X120907937Y-81987329D01*
X120907936Y-81987336D01*
X120888639Y-82121552D01*
X120888638Y-82121559D01*
X120888000Y-82126000D01*
X120888000Y-85150800D01*
X120892833Y-85220709D01*
X120897605Y-85255055D01*
X120912008Y-85323617D01*
X120914724Y-85329718D01*
X120914725Y-85329720D01*
X120921640Y-85345252D01*
X120931074Y-85415619D01*
X120900967Y-85479916D01*
X120840878Y-85517729D01*
X120806533Y-85522500D01*
X119172503Y-85522500D01*
X119156056Y-85521422D01*
X119134188Y-85518543D01*
X119126000Y-85517465D01*
X118973676Y-85537519D01*
X118966049Y-85540678D01*
X118966046Y-85540679D01*
X118902704Y-85566917D01*
X118831732Y-85596314D01*
X118775059Y-85639801D01*
X118709843Y-85689843D01*
X118704817Y-85696393D01*
X118704816Y-85696394D01*
X118691382Y-85713902D01*
X118680514Y-85726293D01*
X113912212Y-90494595D01*
X113849900Y-90528621D01*
X113823117Y-90531500D01*
X113696513Y-90531500D01*
X113690061Y-90532872D01*
X113690056Y-90532872D01*
X113625953Y-90546498D01*
X113509712Y-90571206D01*
X113503682Y-90573891D01*
X113503681Y-90573891D01*
X113341278Y-90646197D01*
X113341276Y-90646198D01*
X113335248Y-90648882D01*
X113180747Y-90761134D01*
X113176326Y-90766044D01*
X113176325Y-90766045D01*
X113059456Y-90895842D01*
X113052960Y-90903056D01*
X112957473Y-91068444D01*
X112898458Y-91250072D01*
X112897768Y-91256633D01*
X112897768Y-91256635D01*
X112890184Y-91328794D01*
X112878496Y-91440000D01*
X112879186Y-91446565D01*
X112895823Y-91604853D01*
X112898458Y-91629928D01*
X112957473Y-91811556D01*
X112960776Y-91817278D01*
X112960777Y-91817279D01*
X112965636Y-91825695D01*
X113052960Y-91976944D01*
X113180747Y-92118866D01*
X113335248Y-92231118D01*
X113341276Y-92233802D01*
X113341278Y-92233803D01*
X113503681Y-92306109D01*
X113509712Y-92308794D01*
X113603112Y-92328647D01*
X113690056Y-92347128D01*
X113690061Y-92347128D01*
X113696513Y-92348500D01*
X113887487Y-92348500D01*
X113893939Y-92347128D01*
X113893944Y-92347128D01*
X113980888Y-92328647D01*
X114074288Y-92308794D01*
X114080319Y-92306109D01*
X114242722Y-92233803D01*
X114242724Y-92233802D01*
X114248752Y-92231118D01*
X114403253Y-92118866D01*
X114531040Y-91976944D01*
X114618364Y-91825695D01*
X114623223Y-91817279D01*
X114623224Y-91817278D01*
X114626527Y-91811556D01*
X114685542Y-91629928D01*
X114688178Y-91604853D01*
X114704814Y-91446565D01*
X114705504Y-91440000D01*
X114704674Y-91432103D01*
X114703387Y-91419855D01*
X114716160Y-91350017D01*
X114739602Y-91317591D01*
X117028422Y-89028771D01*
X117090734Y-88994745D01*
X117161549Y-88999810D01*
X117211152Y-89033555D01*
X117244747Y-89070866D01*
X117250089Y-89074747D01*
X117250091Y-89074749D01*
X117399248Y-89183118D01*
X117397497Y-89185528D01*
X117437533Y-89227576D01*
X117451500Y-89285235D01*
X117451500Y-91149968D01*
X117431498Y-91218089D01*
X117377842Y-91264582D01*
X117307568Y-91274686D01*
X117242988Y-91245192D01*
X117205667Y-91188904D01*
X117196188Y-91159729D01*
X117166527Y-91068444D01*
X117071040Y-90903056D01*
X117064545Y-90895842D01*
X116947675Y-90766045D01*
X116947674Y-90766044D01*
X116943253Y-90761134D01*
X116788752Y-90648882D01*
X116782724Y-90646198D01*
X116782722Y-90646197D01*
X116620319Y-90573891D01*
X116620318Y-90573891D01*
X116614288Y-90571206D01*
X116498047Y-90546498D01*
X116433944Y-90532872D01*
X116433939Y-90532872D01*
X116427487Y-90531500D01*
X116236513Y-90531500D01*
X116230061Y-90532872D01*
X116230056Y-90532872D01*
X116165953Y-90546498D01*
X116049712Y-90571206D01*
X116043682Y-90573891D01*
X116043681Y-90573891D01*
X115881278Y-90646197D01*
X115881276Y-90646198D01*
X115875248Y-90648882D01*
X115720747Y-90761134D01*
X115716326Y-90766044D01*
X115716325Y-90766045D01*
X115599456Y-90895842D01*
X115592960Y-90903056D01*
X115497473Y-91068444D01*
X115438458Y-91250072D01*
X115437768Y-91256633D01*
X115437768Y-91256635D01*
X115430184Y-91328794D01*
X115418496Y-91440000D01*
X115419186Y-91446565D01*
X115435823Y-91604853D01*
X115438458Y-91629928D01*
X115497473Y-91811556D01*
X115500776Y-91817278D01*
X115500777Y-91817279D01*
X115556619Y-91913999D01*
X115573500Y-91976999D01*
X115573500Y-96198930D01*
X115572067Y-96217880D01*
X115571090Y-96224305D01*
X115568801Y-96239349D01*
X115569394Y-96246641D01*
X115569394Y-96246644D01*
X115573085Y-96292018D01*
X115573500Y-96302233D01*
X115573500Y-96310293D01*
X115573925Y-96313937D01*
X115576789Y-96338507D01*
X115577222Y-96342881D01*
X115581187Y-96391617D01*
X115581233Y-96392188D01*
X115566820Y-96461706D01*
X115517111Y-96512396D01*
X115472391Y-96527287D01*
X115397102Y-96537381D01*
X115397099Y-96537382D01*
X115392934Y-96537940D01*
X115328898Y-96555425D01*
X115204532Y-96607982D01*
X115091731Y-96698441D01*
X115043229Y-96750288D01*
X115040652Y-96753981D01*
X115040651Y-96753982D01*
X114965640Y-96861471D01*
X114960483Y-96868861D01*
X114957617Y-96877404D01*
X114957616Y-96877406D01*
X114927137Y-96968261D01*
X114914495Y-97005944D01*
X114901723Y-97075782D01*
X114896218Y-97220270D01*
X114901281Y-97268435D01*
X114901322Y-97268829D01*
X114901322Y-97295168D01*
X114895292Y-97352550D01*
X114889816Y-97378316D01*
X114880520Y-97406924D01*
X114871983Y-97433199D01*
X114861270Y-97457260D01*
X114832416Y-97507237D01*
X114816936Y-97528544D01*
X114797384Y-97550259D01*
X114797376Y-97550267D01*
X114778322Y-97571429D01*
X114758747Y-97589054D01*
X114713564Y-97621882D01*
X114713556Y-97621887D01*
X114712078Y-97622961D01*
X114706247Y-97626328D01*
X114695851Y-97632645D01*
X114695847Y-97632647D01*
X114695725Y-97632404D01*
X114689255Y-97636140D01*
X114666394Y-97646318D01*
X114636537Y-97659611D01*
X114611495Y-97667748D01*
X114583268Y-97673748D01*
X114583264Y-97673749D01*
X114583137Y-97673776D01*
X114583108Y-97673782D01*
X114555050Y-97679746D01*
X114528853Y-97682500D01*
X114471147Y-97682500D01*
X114444950Y-97679746D01*
X114416864Y-97673776D01*
X114416832Y-97673769D01*
X114416736Y-97673749D01*
X114416732Y-97673748D01*
X114388505Y-97667748D01*
X114363461Y-97659610D01*
X114310745Y-97636139D01*
X114287958Y-97622987D01*
X114286468Y-97621905D01*
X114286439Y-97621884D01*
X114222570Y-97575480D01*
X114215029Y-97569550D01*
X114141712Y-97507233D01*
X114133280Y-97500066D01*
X114077439Y-97464179D01*
X113955162Y-97406924D01*
X113946566Y-97405521D01*
X113946564Y-97405520D01*
X113816892Y-97384350D01*
X113816884Y-97384349D01*
X113812460Y-97383627D01*
X113807974Y-97383542D01*
X113807967Y-97383541D01*
X113773615Y-97382888D01*
X113741476Y-97382276D01*
X113737017Y-97382831D01*
X113737012Y-97382831D01*
X113606938Y-97399013D01*
X113606937Y-97399013D01*
X113597993Y-97400126D01*
X113589724Y-97403714D01*
X113589723Y-97403714D01*
X113469478Y-97455885D01*
X113465348Y-97457677D01*
X113461520Y-97460036D01*
X113461515Y-97460038D01*
X113443388Y-97471206D01*
X113404905Y-97494915D01*
X113317190Y-97568044D01*
X113310567Y-97573202D01*
X113243561Y-97621884D01*
X113243559Y-97621885D01*
X113243553Y-97621889D01*
X113242078Y-97622961D01*
X113236255Y-97626323D01*
X113225851Y-97632645D01*
X113225847Y-97632647D01*
X113225725Y-97632404D01*
X113219255Y-97636140D01*
X113196394Y-97646318D01*
X113166537Y-97659611D01*
X113141495Y-97667748D01*
X113113268Y-97673748D01*
X113113264Y-97673749D01*
X113113137Y-97673776D01*
X113113108Y-97673782D01*
X113085050Y-97679746D01*
X113058853Y-97682500D01*
X113001147Y-97682500D01*
X112974950Y-97679746D01*
X112946864Y-97673776D01*
X112946832Y-97673769D01*
X112946736Y-97673749D01*
X112946732Y-97673748D01*
X112918505Y-97667748D01*
X112893461Y-97659610D01*
X112840745Y-97636139D01*
X112817958Y-97622987D01*
X112816468Y-97621905D01*
X112816439Y-97621884D01*
X112785316Y-97599272D01*
X112771251Y-97589053D01*
X112751675Y-97571427D01*
X112751049Y-97570731D01*
X112739150Y-97557516D01*
X112735771Y-97554644D01*
X112639482Y-97472801D01*
X112639478Y-97472798D01*
X112636279Y-97470079D01*
X112632746Y-97467809D01*
X112632740Y-97467804D01*
X112598489Y-97445793D01*
X112580439Y-97434193D01*
X112458170Y-97376941D01*
X112356076Y-97360272D01*
X112319917Y-97354368D01*
X112319912Y-97354368D01*
X112315468Y-97353642D01*
X112310966Y-97353556D01*
X112310963Y-97353556D01*
X112286987Y-97353100D01*
X112244484Y-97352290D01*
X112101001Y-97370138D01*
X111968355Y-97427687D01*
X111964521Y-97430049D01*
X111912012Y-97462398D01*
X111907910Y-97464925D01*
X111904461Y-97467800D01*
X111904456Y-97467804D01*
X111800295Y-97554644D01*
X111800291Y-97554648D01*
X111796846Y-97557520D01*
X111793843Y-97560855D01*
X111793836Y-97560862D01*
X111784325Y-97571426D01*
X111764749Y-97589053D01*
X111719561Y-97621884D01*
X111719559Y-97621885D01*
X111719553Y-97621889D01*
X111718078Y-97622961D01*
X111712255Y-97626323D01*
X111701851Y-97632645D01*
X111701847Y-97632647D01*
X111701725Y-97632404D01*
X111695255Y-97636140D01*
X111672394Y-97646318D01*
X111642537Y-97659611D01*
X111617495Y-97667748D01*
X111589268Y-97673748D01*
X111589264Y-97673749D01*
X111589137Y-97673776D01*
X111589108Y-97673782D01*
X111561050Y-97679746D01*
X111534853Y-97682500D01*
X111477147Y-97682500D01*
X111450950Y-97679746D01*
X111422737Y-97673749D01*
X111422733Y-97673748D01*
X111422732Y-97673748D01*
X111384774Y-97665680D01*
X111367799Y-97660805D01*
X111326057Y-97645574D01*
X111292742Y-97635963D01*
X111290632Y-97635509D01*
X111290623Y-97635507D01*
X111247915Y-97626323D01*
X111224227Y-97621229D01*
X111134000Y-97621229D01*
X111065879Y-97601227D01*
X111019386Y-97547571D01*
X111008000Y-97495229D01*
X111008000Y-88428794D01*
X111028002Y-88360673D01*
X111081658Y-88314180D01*
X111151932Y-88304076D01*
X111216512Y-88333570D01*
X111243119Y-88365794D01*
X111274960Y-88420944D01*
X111279378Y-88425851D01*
X111279379Y-88425852D01*
X111398325Y-88557955D01*
X111402747Y-88562866D01*
X111557248Y-88675118D01*
X111563276Y-88677802D01*
X111563278Y-88677803D01*
X111725681Y-88750109D01*
X111731712Y-88752794D01*
X111825112Y-88772647D01*
X111912056Y-88791128D01*
X111912061Y-88791128D01*
X111918513Y-88792500D01*
X112109487Y-88792500D01*
X112115939Y-88791128D01*
X112115944Y-88791128D01*
X112202888Y-88772647D01*
X112296288Y-88752794D01*
X112302319Y-88750109D01*
X112464722Y-88677803D01*
X112464724Y-88677802D01*
X112470752Y-88675118D01*
X112625253Y-88562866D01*
X112629675Y-88557955D01*
X112748621Y-88425852D01*
X112748622Y-88425851D01*
X112753040Y-88420944D01*
X112848527Y-88255556D01*
X112907542Y-88073928D01*
X112912504Y-88026723D01*
X112926814Y-87890565D01*
X112927504Y-87884000D01*
X112918250Y-87795955D01*
X112908232Y-87700635D01*
X112908232Y-87700633D01*
X112907542Y-87694072D01*
X112848527Y-87512444D01*
X112753040Y-87347056D01*
X112727064Y-87318206D01*
X112629675Y-87210045D01*
X112629674Y-87210044D01*
X112625253Y-87205134D01*
X112503060Y-87116355D01*
X112476094Y-87096763D01*
X112476093Y-87096762D01*
X112470752Y-87092882D01*
X112464724Y-87090198D01*
X112464722Y-87090197D01*
X112302319Y-87017891D01*
X112302318Y-87017891D01*
X112296288Y-87015206D01*
X112202887Y-86995353D01*
X112115944Y-86976872D01*
X112115939Y-86976872D01*
X112109487Y-86975500D01*
X111918513Y-86975500D01*
X111912061Y-86976872D01*
X111912056Y-86976872D01*
X111825113Y-86995353D01*
X111731712Y-87015206D01*
X111725682Y-87017891D01*
X111725681Y-87017891D01*
X111563278Y-87090197D01*
X111563276Y-87090198D01*
X111557248Y-87092882D01*
X111551907Y-87096762D01*
X111551906Y-87096763D01*
X111524940Y-87116355D01*
X111402747Y-87205134D01*
X111398326Y-87210044D01*
X111398325Y-87210045D01*
X111300937Y-87318206D01*
X111274960Y-87347056D01*
X111271659Y-87352774D01*
X111243119Y-87402206D01*
X111191736Y-87451199D01*
X111122023Y-87464635D01*
X111056112Y-87438249D01*
X111014930Y-87380416D01*
X111008000Y-87339206D01*
X111008000Y-82378132D01*
X111848757Y-82378132D01*
X111863781Y-82736588D01*
X111879042Y-82835169D01*
X111915493Y-83070625D01*
X111918668Y-83091136D01*
X111919590Y-83094528D01*
X111919590Y-83094530D01*
X111938924Y-83165691D01*
X112012734Y-83437356D01*
X112064211Y-83567372D01*
X112133209Y-83741641D01*
X112144806Y-83770933D01*
X112146461Y-83774045D01*
X112146463Y-83774050D01*
X112207421Y-83888694D01*
X112313239Y-84087709D01*
X112315224Y-84090607D01*
X112315230Y-84090618D01*
X112513942Y-84380829D01*
X112513947Y-84380835D01*
X112515933Y-84383736D01*
X112518236Y-84386404D01*
X112731954Y-84633999D01*
X112750361Y-84655324D01*
X113013602Y-84899087D01*
X113302375Y-85111989D01*
X113613080Y-85291375D01*
X113616301Y-85292782D01*
X113938622Y-85433601D01*
X113938632Y-85433605D01*
X113941844Y-85435008D01*
X113945201Y-85436047D01*
X113945206Y-85436049D01*
X114087735Y-85480169D01*
X114284570Y-85541100D01*
X114636987Y-85608327D01*
X114833571Y-85623453D01*
X114991203Y-85635582D01*
X114991204Y-85635582D01*
X114994700Y-85635851D01*
X115212001Y-85628263D01*
X115349738Y-85623453D01*
X115349743Y-85623453D01*
X115353253Y-85623330D01*
X115356734Y-85622816D01*
X115704683Y-85571436D01*
X115704689Y-85571435D01*
X115708175Y-85570920D01*
X115711579Y-85570021D01*
X115711582Y-85570020D01*
X116051652Y-85480169D01*
X116051653Y-85480169D01*
X116055043Y-85479273D01*
X116389534Y-85349533D01*
X116707478Y-85183316D01*
X117004913Y-84982693D01*
X117278131Y-84750167D01*
X117390365Y-84630650D01*
X117521316Y-84491202D01*
X117521320Y-84491197D01*
X117523727Y-84488634D01*
X117525832Y-84485820D01*
X117525838Y-84485813D01*
X117736530Y-84204174D01*
X117738639Y-84201355D01*
X117920189Y-83891910D01*
X118066115Y-83564156D01*
X118174596Y-83222179D01*
X118244282Y-82870241D01*
X118274303Y-82512728D01*
X118275363Y-82436868D01*
X118275526Y-82425178D01*
X118275526Y-82425166D01*
X118275556Y-82423000D01*
X118274639Y-82406587D01*
X118260207Y-82148469D01*
X118255529Y-82064788D01*
X118251864Y-82043117D01*
X118196286Y-81714522D01*
X118196285Y-81714518D01*
X118195697Y-81711041D01*
X118191907Y-81697822D01*
X118145059Y-81534448D01*
X118096806Y-81366169D01*
X118042043Y-81233303D01*
X117961427Y-81037713D01*
X117961423Y-81037705D01*
X117960089Y-81034468D01*
X117787250Y-80720075D01*
X117580443Y-80426907D01*
X117342245Y-80158619D01*
X117075626Y-79918554D01*
X117072776Y-79916513D01*
X117072769Y-79916508D01*
X116786763Y-79711748D01*
X116786760Y-79711746D01*
X116783909Y-79709705D01*
X116470730Y-79534675D01*
X116139992Y-79395646D01*
X116136623Y-79394655D01*
X116136619Y-79394653D01*
X115984754Y-79349957D01*
X115795818Y-79294350D01*
X115512904Y-79244464D01*
X115445958Y-79232660D01*
X115445956Y-79232660D01*
X115442498Y-79232050D01*
X115438987Y-79231829D01*
X115438986Y-79231829D01*
X115087953Y-79209743D01*
X115087947Y-79209743D01*
X115084435Y-79209522D01*
X114983046Y-79214481D01*
X114729599Y-79226876D01*
X114729591Y-79226877D01*
X114726092Y-79227048D01*
X114722624Y-79227610D01*
X114722621Y-79227610D01*
X114375411Y-79283846D01*
X114375408Y-79283847D01*
X114371936Y-79284409D01*
X114368549Y-79285355D01*
X114368543Y-79285356D01*
X114084406Y-79364689D01*
X114026381Y-79380890D01*
X113860058Y-79448089D01*
X113696998Y-79513969D01*
X113696994Y-79513971D01*
X113693734Y-79515288D01*
X113690647Y-79516957D01*
X113690643Y-79516959D01*
X113654699Y-79536394D01*
X113378142Y-79685928D01*
X113083537Y-79890683D01*
X113080895Y-79892996D01*
X113080891Y-79892999D01*
X112836080Y-80107316D01*
X112813593Y-80127002D01*
X112571672Y-80391938D01*
X112360792Y-80682190D01*
X112359050Y-80685256D01*
X112359049Y-80685258D01*
X112340905Y-80717198D01*
X112183580Y-80994140D01*
X112128146Y-81123478D01*
X112045816Y-81315568D01*
X112042245Y-81323899D01*
X112030464Y-81362921D01*
X111942105Y-81655581D01*
X111938549Y-81667358D01*
X111932369Y-81701029D01*
X111880640Y-81982881D01*
X111873784Y-82020235D01*
X111848757Y-82378132D01*
X111008000Y-82378132D01*
X111008000Y-77634000D01*
X111028002Y-77565879D01*
X111081658Y-77519386D01*
X111134000Y-77508000D01*
X149866000Y-77508000D01*
X149934121Y-77528002D01*
G37*
%TD.AperFunction*%
%TA.AperFunction,Conductor*%
G36*
X132555051Y-95102254D02*
G01*
X132579343Y-95107417D01*
X132583261Y-95108250D01*
X132583267Y-95108251D01*
X132583268Y-95108252D01*
X132606434Y-95113176D01*
X132611491Y-95114251D01*
X132636539Y-95122389D01*
X132689256Y-95145860D01*
X132712064Y-95159028D01*
X132758752Y-95192950D01*
X132778321Y-95210570D01*
X132816935Y-95253455D01*
X132832419Y-95274767D01*
X132861270Y-95324739D01*
X132871983Y-95348802D01*
X132889813Y-95403677D01*
X132895290Y-95429442D01*
X132901322Y-95486829D01*
X132901322Y-95513169D01*
X132896573Y-95558359D01*
X132900428Y-95693313D01*
X132911124Y-95758825D01*
X132950393Y-95887999D01*
X133028565Y-96009637D01*
X133075058Y-96063293D01*
X133078452Y-96066234D01*
X133179828Y-96154078D01*
X133218211Y-96213805D01*
X133218211Y-96284801D01*
X133186410Y-96338397D01*
X132681749Y-96843058D01*
X132619437Y-96877084D01*
X132548622Y-96872019D01*
X132491786Y-96829472D01*
X132486656Y-96822083D01*
X132454970Y-96772777D01*
X132454961Y-96772765D01*
X132452535Y-96768990D01*
X132406042Y-96715334D01*
X132296766Y-96620645D01*
X132165240Y-96560579D01*
X132141486Y-96553604D01*
X132101442Y-96541846D01*
X132101438Y-96541845D01*
X132097119Y-96540577D01*
X132092671Y-96539937D01*
X132092664Y-96539936D01*
X131958448Y-96520639D01*
X131958441Y-96520638D01*
X131954000Y-96520000D01*
X131845999Y-96520000D01*
X131738019Y-96531609D01*
X131734735Y-96532323D01*
X131734731Y-96532324D01*
X131711485Y-96537381D01*
X131685677Y-96542995D01*
X131582627Y-96577293D01*
X131582187Y-96575971D01*
X131520391Y-96585983D01*
X131455295Y-96557647D01*
X131415852Y-96498614D01*
X131410786Y-96474138D01*
X131407864Y-96446342D01*
X131402112Y-96391615D01*
X131414884Y-96321778D01*
X131463385Y-96269931D01*
X131510678Y-96253562D01*
X131527024Y-96251370D01*
X131606713Y-96240686D01*
X131611610Y-96239349D01*
X131666705Y-96224305D01*
X131666706Y-96224305D01*
X131670748Y-96223201D01*
X131674605Y-96221571D01*
X131674608Y-96221570D01*
X131787082Y-96174039D01*
X131787083Y-96174038D01*
X131795108Y-96170647D01*
X131907909Y-96080190D01*
X131956412Y-96028343D01*
X131995175Y-95972797D01*
X132034004Y-95917158D01*
X132034005Y-95917155D01*
X132039162Y-95909766D01*
X132048974Y-95880518D01*
X132083719Y-95776950D01*
X132083721Y-95776944D01*
X132085150Y-95772683D01*
X132097922Y-95702845D01*
X132103427Y-95558359D01*
X132098678Y-95513169D01*
X132098678Y-95486830D01*
X132106619Y-95411275D01*
X132118856Y-95368853D01*
X132124674Y-95357019D01*
X132126659Y-95352982D01*
X132128049Y-95348705D01*
X132129743Y-95344531D01*
X132129891Y-95344591D01*
X132138732Y-95324736D01*
X132167581Y-95274767D01*
X132183065Y-95253455D01*
X132221679Y-95210570D01*
X132241248Y-95192950D01*
X132287936Y-95159028D01*
X132310742Y-95145861D01*
X132363467Y-95122387D01*
X132388505Y-95114252D01*
X132416732Y-95108252D01*
X132416736Y-95108251D01*
X132416832Y-95108231D01*
X132416864Y-95108224D01*
X132444950Y-95102254D01*
X132471147Y-95099500D01*
X132528855Y-95099500D01*
X132555051Y-95102254D01*
G37*
%TD.AperFunction*%
%TD*%
%TA.AperFunction,Conductor*%
%TO.N,+5V*%
G36*
X116037250Y-97048002D02*
G01*
X116058224Y-97064905D01*
X118459875Y-99466556D01*
X118490613Y-99516714D01*
X118545473Y-99685556D01*
X118640960Y-99850944D01*
X118768747Y-99992866D01*
X118923248Y-100105118D01*
X118929276Y-100107802D01*
X118929278Y-100107803D01*
X119091681Y-100180109D01*
X119097712Y-100182794D01*
X119191112Y-100202647D01*
X119278056Y-100221128D01*
X119278061Y-100221128D01*
X119284513Y-100222500D01*
X119475487Y-100222500D01*
X119481939Y-100221128D01*
X119481944Y-100221128D01*
X119568887Y-100202647D01*
X119662288Y-100182794D01*
X119668319Y-100180109D01*
X119830722Y-100107803D01*
X119830724Y-100107802D01*
X119836752Y-100105118D01*
X119991253Y-99992866D01*
X120119040Y-99850944D01*
X120214527Y-99685556D01*
X120222293Y-99661654D01*
X124820001Y-99661654D01*
X124821209Y-99673923D01*
X124823381Y-99684843D01*
X124832698Y-99707339D01*
X124841011Y-99719780D01*
X124858220Y-99736989D01*
X124870663Y-99745303D01*
X124893154Y-99754619D01*
X124904083Y-99756793D01*
X124916338Y-99758000D01*
X128101885Y-99758000D01*
X128117124Y-99753525D01*
X128118329Y-99752135D01*
X128120000Y-99744452D01*
X128120000Y-98576115D01*
X128115525Y-98560876D01*
X128114135Y-98559671D01*
X128106452Y-98558000D01*
X124838116Y-98558000D01*
X124822877Y-98562475D01*
X124821672Y-98563865D01*
X124820001Y-98571548D01*
X124820001Y-99661654D01*
X120222293Y-99661654D01*
X120273542Y-99503928D01*
X120293504Y-99314000D01*
X120273542Y-99124072D01*
X120214527Y-98942444D01*
X120119040Y-98777056D01*
X120032737Y-98681206D01*
X119995675Y-98640045D01*
X119995674Y-98640044D01*
X119991253Y-98635134D01*
X119836752Y-98522882D01*
X119830724Y-98520198D01*
X119830722Y-98520197D01*
X119668319Y-98447891D01*
X119668318Y-98447891D01*
X119662288Y-98445206D01*
X119655833Y-98443834D01*
X119655824Y-98443831D01*
X119599228Y-98431801D01*
X119536331Y-98397650D01*
X118439712Y-97301031D01*
X118405686Y-97238719D01*
X118410751Y-97167904D01*
X118453298Y-97111068D01*
X118477559Y-97096829D01*
X118560721Y-97059804D01*
X118560727Y-97059800D01*
X118566752Y-97057118D01*
X118573707Y-97052065D01*
X118574801Y-97051675D01*
X118577814Y-97049935D01*
X118578132Y-97050486D01*
X118640575Y-97028206D01*
X118647770Y-97028000D01*
X118842230Y-97028000D01*
X118910351Y-97048002D01*
X118916293Y-97052065D01*
X118923248Y-97057118D01*
X118929275Y-97059801D01*
X118929276Y-97059802D01*
X119023287Y-97101658D01*
X119097712Y-97134794D01*
X119188069Y-97154000D01*
X119278056Y-97173128D01*
X119278061Y-97173128D01*
X119284513Y-97174500D01*
X119475487Y-97174500D01*
X119481939Y-97173128D01*
X119481944Y-97173128D01*
X119571931Y-97154000D01*
X119662288Y-97134794D01*
X119736713Y-97101658D01*
X119830724Y-97059802D01*
X119830725Y-97059801D01*
X119836752Y-97057118D01*
X119843707Y-97052065D01*
X119844801Y-97051675D01*
X119847814Y-97049935D01*
X119848132Y-97050486D01*
X119910575Y-97028206D01*
X119917770Y-97028000D01*
X122398230Y-97028000D01*
X122466351Y-97048002D01*
X122472293Y-97052065D01*
X122479248Y-97057118D01*
X122485275Y-97059801D01*
X122485276Y-97059802D01*
X122579287Y-97101658D01*
X122653712Y-97134794D01*
X122744069Y-97154000D01*
X122834056Y-97173128D01*
X122834061Y-97173128D01*
X122840513Y-97174500D01*
X123031487Y-97174500D01*
X123037939Y-97173128D01*
X123037944Y-97173128D01*
X123127931Y-97154000D01*
X123218288Y-97134794D01*
X123292713Y-97101658D01*
X123386724Y-97059802D01*
X123386725Y-97059801D01*
X123392752Y-97057118D01*
X123399707Y-97052065D01*
X123400801Y-97051675D01*
X123403814Y-97049935D01*
X123404132Y-97050486D01*
X123466575Y-97028206D01*
X123473770Y-97028000D01*
X123668230Y-97028000D01*
X123736351Y-97048002D01*
X123742293Y-97052065D01*
X123749248Y-97057118D01*
X123755275Y-97059801D01*
X123755276Y-97059802D01*
X123849287Y-97101658D01*
X123923712Y-97134794D01*
X124014069Y-97154000D01*
X124104056Y-97173128D01*
X124104061Y-97173128D01*
X124110513Y-97174500D01*
X124301487Y-97174500D01*
X124307939Y-97173128D01*
X124307944Y-97173128D01*
X124397931Y-97154000D01*
X124488288Y-97134794D01*
X124572430Y-97097332D01*
X124642751Y-97066023D01*
X124713118Y-97056589D01*
X124777415Y-97086696D01*
X124815229Y-97146784D01*
X124820000Y-97181130D01*
X124820000Y-98239885D01*
X124824475Y-98255124D01*
X124825865Y-98256329D01*
X124833548Y-98258000D01*
X128294000Y-98258000D01*
X128362121Y-98278002D01*
X128408614Y-98331658D01*
X128420000Y-98384000D01*
X128420000Y-99739884D01*
X128424475Y-99755123D01*
X128425865Y-99756328D01*
X128433548Y-99757999D01*
X131290989Y-99757999D01*
X131359110Y-99778001D01*
X131405603Y-99831657D01*
X131416989Y-99883999D01*
X131416989Y-100170348D01*
X131415911Y-100186795D01*
X131411954Y-100216851D01*
X131416989Y-100255095D01*
X131432008Y-100369175D01*
X131490803Y-100511118D01*
X131584332Y-100633008D01*
X131590878Y-100638031D01*
X131608391Y-100651469D01*
X131620782Y-100662337D01*
X131752476Y-100794031D01*
X131786502Y-100856343D01*
X131781437Y-100927158D01*
X131759764Y-100964280D01*
X128827233Y-104446661D01*
X128768054Y-104485883D01*
X128730854Y-104491500D01*
X128704513Y-104491500D01*
X128698061Y-104492872D01*
X128698056Y-104492872D01*
X128611113Y-104511353D01*
X128517712Y-104531206D01*
X128511682Y-104533891D01*
X128511681Y-104533891D01*
X128349278Y-104606197D01*
X128349276Y-104606198D01*
X128343248Y-104608882D01*
X128337907Y-104612762D01*
X128337906Y-104612763D01*
X128289990Y-104647576D01*
X128188747Y-104721134D01*
X128060960Y-104863056D01*
X127965473Y-105028444D01*
X127906458Y-105210072D01*
X127886496Y-105400000D01*
X127906458Y-105589928D01*
X127965473Y-105771556D01*
X127968776Y-105777278D01*
X127968777Y-105777279D01*
X127999119Y-105829832D01*
X128016000Y-105892832D01*
X128016000Y-110213063D01*
X127999119Y-110276062D01*
X127995278Y-110282716D01*
X127950595Y-110360109D01*
X127943473Y-110372444D01*
X127884458Y-110554072D01*
X127883768Y-110560633D01*
X127883768Y-110560635D01*
X127879877Y-110597655D01*
X127864496Y-110744000D01*
X127865186Y-110750565D01*
X127876192Y-110855277D01*
X127884458Y-110933928D01*
X127943473Y-111115556D01*
X127989328Y-111194978D01*
X127999119Y-111211937D01*
X128016000Y-111274937D01*
X128016000Y-111503395D01*
X127995998Y-111571516D01*
X127972995Y-111598199D01*
X127846968Y-111708528D01*
X127799593Y-111750002D01*
X127557672Y-112014938D01*
X127346792Y-112305190D01*
X127345050Y-112308256D01*
X127345049Y-112308258D01*
X127337779Y-112321055D01*
X127169580Y-112617140D01*
X127028245Y-112946899D01*
X127027228Y-112950268D01*
X126926083Y-113285278D01*
X126924549Y-113290358D01*
X126913756Y-113349166D01*
X126878181Y-113543000D01*
X126859784Y-113643235D01*
X126834757Y-114001132D01*
X126849781Y-114359588D01*
X126850319Y-114363061D01*
X126878526Y-114545266D01*
X126904668Y-114714136D01*
X126998734Y-115060356D01*
X127060649Y-115216735D01*
X127103037Y-115323795D01*
X127130806Y-115393933D01*
X127132461Y-115397045D01*
X127132463Y-115397050D01*
X127169416Y-115466548D01*
X127299239Y-115710709D01*
X127301224Y-115713607D01*
X127301230Y-115713618D01*
X127499942Y-116003829D01*
X127499947Y-116003835D01*
X127501933Y-116006736D01*
X127504236Y-116009404D01*
X127656238Y-116185500D01*
X127736361Y-116278324D01*
X127950892Y-116476981D01*
X127975609Y-116499869D01*
X128012002Y-116560829D01*
X128016000Y-116592319D01*
X128016000Y-117366000D01*
X127995998Y-117434121D01*
X127942342Y-117480614D01*
X127890000Y-117492000D01*
X127044046Y-117492000D01*
X126975925Y-117471998D01*
X126929432Y-117418342D01*
X126919328Y-117348068D01*
X126924453Y-117326333D01*
X126954984Y-117234285D01*
X126954984Y-117234283D01*
X126957149Y-117227757D01*
X126967500Y-117126732D01*
X126967500Y-116579268D01*
X126956887Y-116476981D01*
X126902756Y-116314732D01*
X126812752Y-116169287D01*
X126691702Y-116048448D01*
X126619317Y-116003829D01*
X126552331Y-115962538D01*
X126552329Y-115962537D01*
X126546101Y-115958698D01*
X126527281Y-115952456D01*
X126468922Y-115912028D01*
X126441683Y-115846465D01*
X126454215Y-115776583D01*
X126477852Y-115743768D01*
X126496534Y-115725086D01*
X126508992Y-115707295D01*
X126548695Y-115622152D01*
X126554028Y-115603854D01*
X126558462Y-115570172D01*
X126559000Y-115561963D01*
X126559000Y-115471115D01*
X126554525Y-115455876D01*
X126553135Y-115454671D01*
X126545452Y-115453000D01*
X125427116Y-115453000D01*
X125411877Y-115457475D01*
X125410672Y-115458865D01*
X125409001Y-115466548D01*
X125409001Y-115566084D01*
X125407019Y-115566084D01*
X125393288Y-115627576D01*
X125342811Y-115677502D01*
X125314323Y-115688637D01*
X125295821Y-115693380D01*
X125177432Y-115723729D01*
X125173275Y-115725456D01*
X125173272Y-115725457D01*
X125155766Y-115732730D01*
X125111868Y-115750967D01*
X125108005Y-115753265D01*
X125108004Y-115753265D01*
X125072407Y-115774436D01*
X125003634Y-115792065D01*
X124936247Y-115769715D01*
X124891642Y-115714481D01*
X124882000Y-115666141D01*
X124882000Y-115501115D01*
X124877525Y-115485876D01*
X124876135Y-115484671D01*
X124868452Y-115483000D01*
X123908000Y-115483000D01*
X123839879Y-115462998D01*
X123793386Y-115409342D01*
X123782000Y-115357000D01*
X123782000Y-115164885D01*
X124082000Y-115164885D01*
X124086475Y-115180124D01*
X124087865Y-115181329D01*
X124095548Y-115183000D01*
X124863884Y-115183000D01*
X124879123Y-115178525D01*
X124880328Y-115177135D01*
X124881999Y-115169452D01*
X124881999Y-115134885D01*
X125409000Y-115134885D01*
X125413475Y-115150124D01*
X125414865Y-115151329D01*
X125422548Y-115153000D01*
X125815885Y-115153000D01*
X125831124Y-115148525D01*
X125832329Y-115147135D01*
X125834000Y-115139452D01*
X125834000Y-115134885D01*
X126134000Y-115134885D01*
X126138475Y-115150124D01*
X126139865Y-115151329D01*
X126147548Y-115153000D01*
X126540884Y-115153000D01*
X126556123Y-115148525D01*
X126557328Y-115147135D01*
X126558999Y-115139452D01*
X126558999Y-115044041D01*
X126558460Y-115035823D01*
X126554027Y-115002145D01*
X126548696Y-114983850D01*
X126508992Y-114898705D01*
X126496534Y-114880914D01*
X126431086Y-114815466D01*
X126413295Y-114803008D01*
X126328152Y-114763305D01*
X126309854Y-114757972D01*
X126276172Y-114753538D01*
X126267963Y-114753000D01*
X126152115Y-114753000D01*
X126136876Y-114757475D01*
X126135671Y-114758865D01*
X126134000Y-114766548D01*
X126134000Y-115134885D01*
X125834000Y-115134885D01*
X125834000Y-114771116D01*
X125829525Y-114755877D01*
X125828135Y-114754672D01*
X125820452Y-114753001D01*
X125700041Y-114753001D01*
X125691823Y-114753540D01*
X125658145Y-114757973D01*
X125639850Y-114763304D01*
X125554705Y-114803008D01*
X125536914Y-114815466D01*
X125471466Y-114880914D01*
X125459008Y-114898705D01*
X125419305Y-114983848D01*
X125413972Y-115002146D01*
X125409538Y-115035828D01*
X125409000Y-115044037D01*
X125409000Y-115134885D01*
X124881999Y-115134885D01*
X124881999Y-114554432D01*
X124881328Y-114545266D01*
X124873300Y-114490722D01*
X124867557Y-114472241D01*
X124825111Y-114385787D01*
X124813151Y-114369082D01*
X124745428Y-114301477D01*
X124728700Y-114289545D01*
X124642162Y-114247245D01*
X124623694Y-114241537D01*
X124569703Y-114233660D01*
X124560604Y-114233000D01*
X124100115Y-114233000D01*
X124084876Y-114237475D01*
X124083671Y-114238865D01*
X124082000Y-114246548D01*
X124082000Y-115164885D01*
X123782000Y-115164885D01*
X123782000Y-114233522D01*
X123802002Y-114165401D01*
X123814197Y-114149397D01*
X123897039Y-114057024D01*
X123903057Y-114050314D01*
X123965357Y-113919832D01*
X123986518Y-113852063D01*
X123987234Y-113847623D01*
X124008100Y-113718205D01*
X124008100Y-113718202D01*
X124009534Y-113709308D01*
X124006436Y-113684803D01*
X124017736Y-113614712D01*
X124065137Y-113561856D01*
X124131441Y-113543000D01*
X124722385Y-113543000D01*
X124737624Y-113538525D01*
X124738829Y-113537135D01*
X124740500Y-113529452D01*
X124740500Y-113524884D01*
X125040500Y-113524884D01*
X125044975Y-113540123D01*
X125046365Y-113541328D01*
X125054048Y-113542999D01*
X125706568Y-113542999D01*
X125715734Y-113542328D01*
X125770278Y-113534300D01*
X125788759Y-113528557D01*
X125875213Y-113486111D01*
X125891918Y-113474151D01*
X125959523Y-113406428D01*
X125971455Y-113389700D01*
X126013755Y-113303162D01*
X126019463Y-113284694D01*
X126027340Y-113230703D01*
X126028000Y-113221604D01*
X126028000Y-112436115D01*
X126023525Y-112420876D01*
X126022135Y-112419671D01*
X126014452Y-112418000D01*
X125058615Y-112418000D01*
X125043376Y-112422475D01*
X125042171Y-112423865D01*
X125040500Y-112431548D01*
X125040500Y-113524884D01*
X124740500Y-113524884D01*
X124740500Y-112099885D01*
X125040500Y-112099885D01*
X125044975Y-112115124D01*
X125046365Y-112116329D01*
X125054048Y-112118000D01*
X126009884Y-112118000D01*
X126025123Y-112113525D01*
X126026328Y-112112135D01*
X126027999Y-112104452D01*
X126027999Y-111314432D01*
X126027328Y-111305266D01*
X126019300Y-111250722D01*
X126013557Y-111232241D01*
X125971111Y-111145787D01*
X125959151Y-111129082D01*
X125891428Y-111061477D01*
X125874700Y-111049545D01*
X125788162Y-111007245D01*
X125769694Y-111001537D01*
X125715703Y-110993660D01*
X125706604Y-110993000D01*
X125058615Y-110993000D01*
X125043376Y-110997475D01*
X125042171Y-110998865D01*
X125040500Y-111006548D01*
X125040500Y-112099885D01*
X124740500Y-112099885D01*
X124740500Y-111011116D01*
X124736025Y-110995877D01*
X124734635Y-110994672D01*
X124726952Y-110993001D01*
X124074432Y-110993001D01*
X124065266Y-110993672D01*
X124010722Y-111001700D01*
X123992241Y-111007443D01*
X123905787Y-111049889D01*
X123889082Y-111061849D01*
X123821477Y-111129572D01*
X123809545Y-111146300D01*
X123767245Y-111232838D01*
X123761537Y-111251306D01*
X123753660Y-111305297D01*
X123753000Y-111314396D01*
X123753001Y-112047121D01*
X123732999Y-112115242D01*
X123679343Y-112161735D01*
X123609069Y-112171839D01*
X123556878Y-112151805D01*
X123542767Y-112142353D01*
X123539020Y-112139843D01*
X123465273Y-112104452D01*
X123416799Y-112081189D01*
X123416796Y-112081188D01*
X123408669Y-112077288D01*
X123367014Y-112070487D01*
X123270416Y-112054715D01*
X123270411Y-112054715D01*
X123265967Y-112053989D01*
X123261465Y-112053903D01*
X123261462Y-112053903D01*
X123238394Y-112053464D01*
X123194984Y-112052637D01*
X123190525Y-112053192D01*
X123190519Y-112053192D01*
X123060437Y-112069374D01*
X123060434Y-112069375D01*
X123051493Y-112070487D01*
X123043227Y-112074074D01*
X123043225Y-112074074D01*
X122945835Y-112116329D01*
X122918848Y-112128038D01*
X122858402Y-112165278D01*
X122747346Y-112257867D01*
X122706318Y-112303433D01*
X122686751Y-112321051D01*
X122640068Y-112354969D01*
X122617257Y-112368139D01*
X122564539Y-112391611D01*
X122539491Y-112399749D01*
X122511268Y-112405748D01*
X122511267Y-112405749D01*
X122511261Y-112405750D01*
X122483051Y-112411746D01*
X122456855Y-112414500D01*
X122399145Y-112414500D01*
X122372949Y-112411746D01*
X122344739Y-112405750D01*
X122344733Y-112405749D01*
X122344732Y-112405748D01*
X122316509Y-112399749D01*
X122291461Y-112391611D01*
X122238743Y-112368139D01*
X122215936Y-112354972D01*
X122169248Y-112321050D01*
X122149680Y-112303431D01*
X122125075Y-112276105D01*
X122111061Y-112260540D01*
X122095585Y-112239240D01*
X122066728Y-112189259D01*
X122056017Y-112165200D01*
X122038187Y-112110324D01*
X122032710Y-112084559D01*
X122026678Y-112027170D01*
X122026678Y-112000827D01*
X122032710Y-111943441D01*
X122038187Y-111917677D01*
X122056017Y-111862802D01*
X122066730Y-111838740D01*
X122073938Y-111826254D01*
X122075817Y-111823000D01*
X122093538Y-111781619D01*
X122121827Y-111715556D01*
X122123299Y-111712119D01*
X122140037Y-111655114D01*
X122160039Y-111536167D01*
X122151537Y-111447138D01*
X122146723Y-111396720D01*
X122146722Y-111396717D01*
X122146294Y-111392230D01*
X122145231Y-111387848D01*
X122130617Y-111327608D01*
X122130616Y-111327606D01*
X122129556Y-111323235D01*
X122126018Y-111314396D01*
X122084999Y-111211937D01*
X122075816Y-111188999D01*
X122066731Y-111173263D01*
X122056018Y-111149200D01*
X122038187Y-111094322D01*
X122032710Y-111068557D01*
X122026678Y-111011170D01*
X122026678Y-110984828D01*
X122031343Y-110940448D01*
X122031343Y-110940446D01*
X122031782Y-110936270D01*
X122027927Y-110801314D01*
X122017231Y-110735802D01*
X121977962Y-110606628D01*
X121899790Y-110484990D01*
X121853297Y-110431334D01*
X121744021Y-110336645D01*
X121612495Y-110276579D01*
X121572870Y-110264944D01*
X121548697Y-110257846D01*
X121548693Y-110257845D01*
X121544374Y-110256577D01*
X121539926Y-110255937D01*
X121539919Y-110255936D01*
X121405703Y-110236639D01*
X121405696Y-110236638D01*
X121401255Y-110236000D01*
X120815882Y-110236000D01*
X120780157Y-110237258D01*
X120772343Y-110237809D01*
X120763611Y-110238424D01*
X120763584Y-110238426D01*
X120762483Y-110238504D01*
X120761380Y-110238621D01*
X120761367Y-110238622D01*
X120746840Y-110240161D01*
X120726956Y-110242268D01*
X120721578Y-110243835D01*
X120592457Y-110281457D01*
X120592454Y-110281458D01*
X120588137Y-110282716D01*
X120584039Y-110284577D01*
X120584037Y-110284578D01*
X120527598Y-110310211D01*
X120527592Y-110310214D01*
X120523495Y-110312075D01*
X120401690Y-110389998D01*
X120306777Y-110499078D01*
X120304339Y-110502854D01*
X120304337Y-110502857D01*
X120288855Y-110526839D01*
X120235104Y-110573221D01*
X120182998Y-110584500D01*
X119127600Y-110584500D01*
X119124354Y-110584837D01*
X119124350Y-110584837D01*
X119028692Y-110594762D01*
X119028688Y-110594763D01*
X119021834Y-110595474D01*
X119015298Y-110597655D01*
X119015296Y-110597655D01*
X118960310Y-110616000D01*
X118854054Y-110651450D01*
X118703652Y-110744522D01*
X118698479Y-110749704D01*
X118651104Y-110797162D01*
X118578695Y-110869697D01*
X118574855Y-110875927D01*
X118574854Y-110875928D01*
X118491523Y-111011116D01*
X118485885Y-111020262D01*
X118483581Y-111027209D01*
X118436596Y-111168866D01*
X118430203Y-111188139D01*
X118419500Y-111292600D01*
X118419500Y-113243400D01*
X118419837Y-113246646D01*
X118419837Y-113246650D01*
X118428905Y-113334041D01*
X118430474Y-113349166D01*
X118432655Y-113355702D01*
X118432655Y-113355704D01*
X118472172Y-113474151D01*
X118486450Y-113516946D01*
X118579522Y-113667348D01*
X118704697Y-113792305D01*
X118812117Y-113858520D01*
X118859609Y-113911291D01*
X118872000Y-113965779D01*
X118872000Y-117366000D01*
X118851998Y-117434121D01*
X118798342Y-117480614D01*
X118746000Y-117492000D01*
X115751000Y-117492000D01*
X115682879Y-117471998D01*
X115636386Y-117418342D01*
X115625000Y-117366000D01*
X115625000Y-117262115D01*
X115620525Y-117246876D01*
X115619135Y-117245671D01*
X115611452Y-117244000D01*
X115051000Y-117244000D01*
X114982879Y-117223998D01*
X114936386Y-117170342D01*
X114925000Y-117118000D01*
X114925000Y-117070000D01*
X114945002Y-117001879D01*
X114998658Y-116955386D01*
X115051000Y-116944000D01*
X115606884Y-116944000D01*
X115622123Y-116939525D01*
X115623328Y-116938135D01*
X115624999Y-116930452D01*
X115624999Y-116810041D01*
X115624460Y-116801823D01*
X115620027Y-116768145D01*
X115614696Y-116749850D01*
X115574992Y-116664705D01*
X115556215Y-116637890D01*
X115557609Y-116636914D01*
X115529688Y-116585782D01*
X115534753Y-116514967D01*
X115577300Y-116458131D01*
X115643820Y-116433320D01*
X115652809Y-116432999D01*
X116178568Y-116432999D01*
X116187734Y-116432328D01*
X116242278Y-116424300D01*
X116260759Y-116418557D01*
X116347213Y-116376111D01*
X116363918Y-116364151D01*
X116431523Y-116296428D01*
X116443455Y-116279700D01*
X116485755Y-116193162D01*
X116491463Y-116174694D01*
X116499340Y-116120703D01*
X116500000Y-116111604D01*
X116500000Y-115501115D01*
X116495525Y-115485876D01*
X116494135Y-115484671D01*
X116486452Y-115483000D01*
X115526000Y-115483000D01*
X115457879Y-115462998D01*
X115411386Y-115409342D01*
X115400000Y-115357000D01*
X115400000Y-115164885D01*
X115700000Y-115164885D01*
X115704475Y-115180124D01*
X115705865Y-115181329D01*
X115713548Y-115183000D01*
X116481884Y-115183000D01*
X116497123Y-115178525D01*
X116498328Y-115177135D01*
X116499999Y-115169452D01*
X116499999Y-114554432D01*
X116499328Y-114545266D01*
X116491300Y-114490722D01*
X116485557Y-114472241D01*
X116443111Y-114385787D01*
X116431151Y-114369082D01*
X116363428Y-114301477D01*
X116346700Y-114289545D01*
X116260162Y-114247245D01*
X116241694Y-114241537D01*
X116187703Y-114233660D01*
X116178604Y-114233000D01*
X115718115Y-114233000D01*
X115702876Y-114237475D01*
X115701671Y-114238865D01*
X115700000Y-114246548D01*
X115700000Y-115164885D01*
X115400000Y-115164885D01*
X115400000Y-114251116D01*
X115395525Y-114235877D01*
X115394135Y-114234672D01*
X115386452Y-114233001D01*
X114934000Y-114233001D01*
X114865879Y-114212999D01*
X114819386Y-114159343D01*
X114808000Y-114107001D01*
X114808000Y-113221568D01*
X115879001Y-113221568D01*
X115879672Y-113230734D01*
X115887700Y-113285278D01*
X115893443Y-113303759D01*
X115935889Y-113390213D01*
X115947849Y-113406918D01*
X116015572Y-113474523D01*
X116032300Y-113486455D01*
X116118838Y-113528755D01*
X116137306Y-113534463D01*
X116191297Y-113542340D01*
X116200396Y-113543000D01*
X116848385Y-113543000D01*
X116863624Y-113538525D01*
X116864829Y-113537135D01*
X116866500Y-113529452D01*
X116866500Y-113524884D01*
X117166500Y-113524884D01*
X117170975Y-113540123D01*
X117172365Y-113541328D01*
X117180048Y-113542999D01*
X117832568Y-113542999D01*
X117841734Y-113542328D01*
X117896278Y-113534300D01*
X117914759Y-113528557D01*
X118001213Y-113486111D01*
X118017918Y-113474151D01*
X118085523Y-113406428D01*
X118097455Y-113389700D01*
X118139755Y-113303162D01*
X118145463Y-113284694D01*
X118153340Y-113230703D01*
X118154000Y-113221604D01*
X118154000Y-112436115D01*
X118149525Y-112420876D01*
X118148135Y-112419671D01*
X118140452Y-112418000D01*
X117184615Y-112418000D01*
X117169376Y-112422475D01*
X117168171Y-112423865D01*
X117166500Y-112431548D01*
X117166500Y-113524884D01*
X116866500Y-113524884D01*
X116866500Y-112436115D01*
X116862025Y-112420876D01*
X116860635Y-112419671D01*
X116852952Y-112418000D01*
X115897116Y-112418000D01*
X115881877Y-112422475D01*
X115880672Y-112423865D01*
X115879001Y-112431548D01*
X115879001Y-113221568D01*
X114808000Y-113221568D01*
X114808000Y-112099885D01*
X115879000Y-112099885D01*
X115883475Y-112115124D01*
X115884865Y-112116329D01*
X115892548Y-112118000D01*
X116848385Y-112118000D01*
X116863624Y-112113525D01*
X116864829Y-112112135D01*
X116866500Y-112104452D01*
X116866500Y-112099885D01*
X117166500Y-112099885D01*
X117170975Y-112115124D01*
X117172365Y-112116329D01*
X117180048Y-112118000D01*
X118135884Y-112118000D01*
X118151123Y-112113525D01*
X118152328Y-112112135D01*
X118153999Y-112104452D01*
X118153999Y-111314432D01*
X118153328Y-111305266D01*
X118145300Y-111250722D01*
X118139557Y-111232241D01*
X118097111Y-111145787D01*
X118085151Y-111129082D01*
X118017428Y-111061477D01*
X118000700Y-111049545D01*
X117914162Y-111007245D01*
X117895694Y-111001537D01*
X117841703Y-110993660D01*
X117832604Y-110993000D01*
X117184615Y-110993000D01*
X117169376Y-110997475D01*
X117168171Y-110998865D01*
X117166500Y-111006548D01*
X117166500Y-112099885D01*
X116866500Y-112099885D01*
X116866500Y-111011116D01*
X116862025Y-110995877D01*
X116860635Y-110994672D01*
X116852952Y-110993001D01*
X116200432Y-110993001D01*
X116191266Y-110993672D01*
X116136722Y-111001700D01*
X116118241Y-111007443D01*
X116031787Y-111049889D01*
X116015082Y-111061849D01*
X115947477Y-111129572D01*
X115935545Y-111146300D01*
X115893245Y-111232838D01*
X115887537Y-111251306D01*
X115879660Y-111305297D01*
X115879000Y-111314396D01*
X115879000Y-112099885D01*
X114808000Y-112099885D01*
X114808000Y-110616000D01*
X114796391Y-110508020D01*
X114785005Y-110455678D01*
X114750707Y-110352628D01*
X114672535Y-110230990D01*
X114626042Y-110177334D01*
X114516766Y-110082645D01*
X114385240Y-110022579D01*
X114361486Y-110015604D01*
X114321442Y-110003846D01*
X114321438Y-110003845D01*
X114317119Y-110002577D01*
X114312671Y-110001937D01*
X114312664Y-110001936D01*
X114178448Y-109982639D01*
X114178441Y-109982638D01*
X114174000Y-109982000D01*
X111134000Y-109982000D01*
X111065879Y-109961998D01*
X111019386Y-109908342D01*
X111008000Y-109856000D01*
X111008000Y-109196568D01*
X115565001Y-109196568D01*
X115565672Y-109205734D01*
X115573700Y-109260278D01*
X115579443Y-109278759D01*
X115621889Y-109365213D01*
X115633849Y-109381918D01*
X115701572Y-109449523D01*
X115718300Y-109461455D01*
X115804838Y-109503755D01*
X115823306Y-109509463D01*
X115877297Y-109517340D01*
X115886396Y-109518000D01*
X116671885Y-109518000D01*
X116687124Y-109513525D01*
X116688329Y-109512135D01*
X116690000Y-109504452D01*
X116690000Y-109499884D01*
X116990000Y-109499884D01*
X116994475Y-109515123D01*
X116995865Y-109516328D01*
X117003548Y-109517999D01*
X117793568Y-109517999D01*
X117802734Y-109517328D01*
X117857278Y-109509300D01*
X117875759Y-109503557D01*
X117962213Y-109461111D01*
X117978918Y-109449151D01*
X118046523Y-109381428D01*
X118058455Y-109364700D01*
X118100755Y-109278162D01*
X118106463Y-109259694D01*
X118114340Y-109205703D01*
X118115000Y-109196604D01*
X118115000Y-108548615D01*
X118110525Y-108533376D01*
X118109135Y-108532171D01*
X118101452Y-108530500D01*
X117008115Y-108530500D01*
X116992876Y-108534975D01*
X116991671Y-108536365D01*
X116990000Y-108544048D01*
X116990000Y-109499884D01*
X116690000Y-109499884D01*
X116690000Y-108548615D01*
X116685525Y-108533376D01*
X116684135Y-108532171D01*
X116676452Y-108530500D01*
X115583116Y-108530500D01*
X115567877Y-108534975D01*
X115566672Y-108536365D01*
X115565001Y-108544048D01*
X115565001Y-109196568D01*
X111008000Y-109196568D01*
X111008000Y-108558568D01*
X112421001Y-108558568D01*
X112421672Y-108567734D01*
X112429700Y-108622278D01*
X112435443Y-108640759D01*
X112477889Y-108727213D01*
X112489849Y-108743918D01*
X112557572Y-108811523D01*
X112574300Y-108823455D01*
X112660838Y-108865755D01*
X112679306Y-108871463D01*
X112733297Y-108879340D01*
X112742396Y-108880000D01*
X113352885Y-108880000D01*
X113368124Y-108875525D01*
X113369329Y-108874135D01*
X113371000Y-108866452D01*
X113371000Y-108861884D01*
X113671000Y-108861884D01*
X113675475Y-108877123D01*
X113676865Y-108878328D01*
X113684548Y-108879999D01*
X114299568Y-108879999D01*
X114308734Y-108879328D01*
X114363278Y-108871300D01*
X114381759Y-108865557D01*
X114468213Y-108823111D01*
X114484918Y-108811151D01*
X114552523Y-108743428D01*
X114564455Y-108726700D01*
X114606755Y-108640162D01*
X114612463Y-108621694D01*
X114620340Y-108567703D01*
X114621000Y-108558604D01*
X114621000Y-108098115D01*
X114616525Y-108082876D01*
X114615135Y-108081671D01*
X114607452Y-108080000D01*
X113689115Y-108080000D01*
X113673876Y-108084475D01*
X113672671Y-108085865D01*
X113671000Y-108093548D01*
X113671000Y-108861884D01*
X113371000Y-108861884D01*
X113371000Y-108098115D01*
X113366525Y-108082876D01*
X113365135Y-108081671D01*
X113357452Y-108080000D01*
X112439116Y-108080000D01*
X112423877Y-108084475D01*
X112422672Y-108085865D01*
X112421001Y-108093548D01*
X112421001Y-108558568D01*
X111008000Y-108558568D01*
X111008000Y-108371821D01*
X111028002Y-108303700D01*
X111081658Y-108257207D01*
X111151932Y-108247103D01*
X111169257Y-108250854D01*
X111180145Y-108254028D01*
X111213828Y-108258462D01*
X111222037Y-108259000D01*
X111337885Y-108259000D01*
X111353124Y-108254525D01*
X111354329Y-108253135D01*
X111356000Y-108245452D01*
X111356000Y-108240884D01*
X111656000Y-108240884D01*
X111660475Y-108256123D01*
X111661865Y-108257328D01*
X111669548Y-108258999D01*
X111789959Y-108258999D01*
X111798177Y-108258460D01*
X111831855Y-108254027D01*
X111850150Y-108248696D01*
X111935295Y-108208992D01*
X111953086Y-108196534D01*
X112018534Y-108131086D01*
X112030992Y-108113295D01*
X112070695Y-108028152D01*
X112076028Y-108009854D01*
X112080462Y-107976172D01*
X112081000Y-107967963D01*
X112081000Y-107877115D01*
X112076525Y-107861876D01*
X112075135Y-107860671D01*
X112067452Y-107859000D01*
X111674115Y-107859000D01*
X111658876Y-107863475D01*
X111657671Y-107864865D01*
X111656000Y-107872548D01*
X111656000Y-108240884D01*
X111356000Y-108240884D01*
X111356000Y-107685000D01*
X111376002Y-107616879D01*
X111429658Y-107570386D01*
X111482000Y-107559000D01*
X112062884Y-107559000D01*
X112078123Y-107554525D01*
X112079328Y-107553135D01*
X112080999Y-107545452D01*
X112080999Y-107450041D01*
X112080460Y-107441823D01*
X112076027Y-107408145D01*
X112070695Y-107389848D01*
X112060157Y-107367249D01*
X112049496Y-107297058D01*
X112078476Y-107232245D01*
X112137896Y-107193389D01*
X112174352Y-107188000D01*
X112295000Y-107188000D01*
X112363121Y-107208002D01*
X112409614Y-107261658D01*
X112421000Y-107314000D01*
X112421000Y-107761885D01*
X112425475Y-107777124D01*
X112426865Y-107778329D01*
X112434548Y-107780000D01*
X114602884Y-107780000D01*
X114618123Y-107775525D01*
X114619328Y-107774135D01*
X114620999Y-107766452D01*
X114620999Y-107314000D01*
X114641001Y-107245879D01*
X114694657Y-107199386D01*
X114746999Y-107188000D01*
X115525480Y-107188000D01*
X115593601Y-107208002D01*
X115640094Y-107261658D01*
X115650198Y-107331932D01*
X115628059Y-107387168D01*
X115621545Y-107396300D01*
X115579245Y-107482838D01*
X115573537Y-107501306D01*
X115565660Y-107555297D01*
X115565000Y-107564396D01*
X115565000Y-108212385D01*
X115569475Y-108227624D01*
X115570865Y-108228829D01*
X115578548Y-108230500D01*
X118096884Y-108230500D01*
X118112123Y-108226025D01*
X118113328Y-108224635D01*
X118114999Y-108216952D01*
X118114999Y-107564432D01*
X118114328Y-107555266D01*
X118106300Y-107500722D01*
X118100557Y-107482241D01*
X118058113Y-107395791D01*
X118052068Y-107387348D01*
X118028677Y-107320315D01*
X118045240Y-107251277D01*
X118096498Y-107202154D01*
X118154519Y-107188000D01*
X118492000Y-107188000D01*
X118599980Y-107176391D01*
X118603264Y-107175677D01*
X118603268Y-107175676D01*
X118635120Y-107168747D01*
X118652322Y-107165005D01*
X118755372Y-107130707D01*
X118877010Y-107052535D01*
X118892722Y-107038921D01*
X118927273Y-107008982D01*
X118930666Y-107006042D01*
X119025355Y-106896766D01*
X119085421Y-106765240D01*
X119105423Y-106697119D01*
X119106064Y-106692664D01*
X119125361Y-106558448D01*
X119125362Y-106558441D01*
X119126000Y-106554000D01*
X119126000Y-102234000D01*
X119114391Y-102126020D01*
X119109729Y-102104586D01*
X119103722Y-102076975D01*
X119103005Y-102073678D01*
X119068707Y-101970628D01*
X118990535Y-101848990D01*
X118944042Y-101795334D01*
X118834766Y-101700645D01*
X118703240Y-101640579D01*
X118679486Y-101633604D01*
X118639442Y-101621846D01*
X118639438Y-101621845D01*
X118635119Y-101620577D01*
X118630671Y-101619937D01*
X118630664Y-101619936D01*
X118496448Y-101600639D01*
X118496441Y-101600638D01*
X118492000Y-101600000D01*
X117961090Y-101600000D01*
X117889824Y-101607189D01*
X117862782Y-101609917D01*
X117862779Y-101609917D01*
X117859631Y-101610235D01*
X117810315Y-101620287D01*
X117807287Y-101621229D01*
X117720279Y-101648297D01*
X117720276Y-101648298D01*
X117712945Y-101650579D01*
X117700713Y-101657994D01*
X117593138Y-101723202D01*
X117593131Y-101723207D01*
X117589297Y-101725531D01*
X117534440Y-101770599D01*
X117456595Y-101855811D01*
X117445018Y-101868484D01*
X117384305Y-101905286D01*
X117351992Y-101909500D01*
X116325073Y-101909500D01*
X116256952Y-101889498D01*
X116223267Y-101855811D01*
X116222512Y-101856376D01*
X116219823Y-101852783D01*
X116217385Y-101848990D01*
X116170892Y-101795334D01*
X116061616Y-101700645D01*
X115930090Y-101640579D01*
X115906336Y-101633604D01*
X115866292Y-101621846D01*
X115866288Y-101621845D01*
X115861969Y-101620577D01*
X115857521Y-101619937D01*
X115857514Y-101619936D01*
X115723298Y-101600639D01*
X115723291Y-101600638D01*
X115718850Y-101600000D01*
X111134000Y-101600000D01*
X111065879Y-101579998D01*
X111019386Y-101526342D01*
X111008000Y-101474000D01*
X111008000Y-98248776D01*
X111028002Y-98180655D01*
X111081658Y-98134162D01*
X111151932Y-98124058D01*
X111185247Y-98133669D01*
X111223712Y-98150794D01*
X111317113Y-98170647D01*
X111404056Y-98189128D01*
X111404061Y-98189128D01*
X111410513Y-98190500D01*
X111601487Y-98190500D01*
X111607939Y-98189128D01*
X111607944Y-98189128D01*
X111694887Y-98170647D01*
X111788288Y-98150794D01*
X111794319Y-98148109D01*
X111956722Y-98075803D01*
X111956724Y-98075802D01*
X111962752Y-98073118D01*
X111987354Y-98055244D01*
X112018157Y-98032864D01*
X112117253Y-97960866D01*
X112174365Y-97897436D01*
X112234810Y-97860198D01*
X112305794Y-97861550D01*
X112361634Y-97897436D01*
X112418747Y-97960866D01*
X112517843Y-98032864D01*
X112548647Y-98055244D01*
X112573248Y-98073118D01*
X112579276Y-98075802D01*
X112579278Y-98075803D01*
X112741681Y-98148109D01*
X112747712Y-98150794D01*
X112841113Y-98170647D01*
X112928056Y-98189128D01*
X112928061Y-98189128D01*
X112934513Y-98190500D01*
X113125487Y-98190500D01*
X113131939Y-98189128D01*
X113131944Y-98189128D01*
X113218887Y-98170647D01*
X113312288Y-98150794D01*
X113318319Y-98148109D01*
X113480722Y-98075803D01*
X113480724Y-98075802D01*
X113486752Y-98073118D01*
X113511354Y-98055244D01*
X113542157Y-98032864D01*
X113641253Y-97960866D01*
X113671366Y-97927422D01*
X113731809Y-97890184D01*
X113802793Y-97891535D01*
X113858634Y-97927422D01*
X113888747Y-97960866D01*
X113987843Y-98032864D01*
X114018647Y-98055244D01*
X114043248Y-98073118D01*
X114049276Y-98075802D01*
X114049278Y-98075803D01*
X114211681Y-98148109D01*
X114217712Y-98150794D01*
X114311113Y-98170647D01*
X114398056Y-98189128D01*
X114398061Y-98189128D01*
X114404513Y-98190500D01*
X114595487Y-98190500D01*
X114601939Y-98189128D01*
X114601944Y-98189128D01*
X114688887Y-98170647D01*
X114782288Y-98150794D01*
X114788319Y-98148109D01*
X114950722Y-98075803D01*
X114950724Y-98075802D01*
X114956752Y-98073118D01*
X114981354Y-98055244D01*
X115012157Y-98032864D01*
X115111253Y-97960866D01*
X115174895Y-97890184D01*
X115234621Y-97823852D01*
X115234622Y-97823851D01*
X115239040Y-97818944D01*
X115334527Y-97653556D01*
X115393542Y-97471928D01*
X115400209Y-97408500D01*
X115412814Y-97288565D01*
X115413504Y-97282000D01*
X115401435Y-97167170D01*
X115414207Y-97097332D01*
X115462709Y-97045485D01*
X115526745Y-97028000D01*
X115969129Y-97028000D01*
X116037250Y-97048002D01*
G37*
%TD.AperFunction*%
%TD*%
%TA.AperFunction,Conductor*%
%TO.N,/Backup/PVDD*%
G36*
X119830121Y-94508002D02*
G01*
X119876614Y-94561658D01*
X119888000Y-94614000D01*
X119888000Y-96648000D01*
X119867998Y-96716121D01*
X119814342Y-96762614D01*
X119762000Y-96774000D01*
X117964871Y-96774000D01*
X117896750Y-96753998D01*
X117875776Y-96737095D01*
X117638905Y-96500224D01*
X117604879Y-96437912D01*
X117602000Y-96411129D01*
X117602000Y-94614000D01*
X117622002Y-94545879D01*
X117675658Y-94499386D01*
X117728000Y-94488000D01*
X119762000Y-94488000D01*
X119830121Y-94508002D01*
G37*
%TD.AperFunction*%
%TD*%
%TA.AperFunction,Conductor*%
%TO.N,+9VA*%
G36*
X133171194Y-82020002D02*
G01*
X133217687Y-82073658D01*
X133228337Y-82139603D01*
X133227369Y-82148520D01*
X133227000Y-82155328D01*
X133227000Y-82827885D01*
X133231475Y-82843124D01*
X133232865Y-82844329D01*
X133240548Y-82846000D01*
X134763000Y-82846000D01*
X134831121Y-82866002D01*
X134877614Y-82919658D01*
X134889000Y-82972000D01*
X134889000Y-84489884D01*
X134893475Y-84505123D01*
X134894865Y-84506328D01*
X134902548Y-84507999D01*
X135240000Y-84507999D01*
X135308121Y-84528001D01*
X135354614Y-84581657D01*
X135366000Y-84633999D01*
X135366000Y-86094571D01*
X135345998Y-86162692D01*
X135292342Y-86209185D01*
X135266197Y-86217818D01*
X135202229Y-86231415D01*
X135099712Y-86253206D01*
X135093682Y-86255891D01*
X135093681Y-86255891D01*
X134931278Y-86328197D01*
X134931276Y-86328198D01*
X134925248Y-86330882D01*
X134770747Y-86443134D01*
X134766326Y-86448044D01*
X134766325Y-86448045D01*
X134673187Y-86551486D01*
X134642960Y-86585056D01*
X134547473Y-86750444D01*
X134488458Y-86932072D01*
X134487768Y-86938633D01*
X134487768Y-86938635D01*
X134479723Y-87015182D01*
X134468496Y-87122000D01*
X134469186Y-87128565D01*
X134476826Y-87201251D01*
X134488458Y-87311928D01*
X134547473Y-87493556D01*
X134642960Y-87658944D01*
X134647378Y-87663851D01*
X134647379Y-87663852D01*
X134674589Y-87694072D01*
X134770747Y-87800866D01*
X134869843Y-87872864D01*
X134894207Y-87890565D01*
X134925248Y-87913118D01*
X134931276Y-87915802D01*
X134931278Y-87915803D01*
X135093681Y-87988109D01*
X135099712Y-87990794D01*
X135202229Y-88012585D01*
X135266197Y-88026182D01*
X135328671Y-88059911D01*
X135362992Y-88122060D01*
X135366000Y-88149429D01*
X135366000Y-88966000D01*
X135345998Y-89034121D01*
X135292342Y-89080614D01*
X135240000Y-89092000D01*
X127342087Y-89092000D01*
X127273966Y-89071998D01*
X127227473Y-89018342D01*
X127216743Y-88953156D01*
X127221500Y-88906732D01*
X127221500Y-88359268D01*
X127210887Y-88256981D01*
X127175005Y-88149429D01*
X127159073Y-88101676D01*
X127159072Y-88101674D01*
X127156756Y-88094732D01*
X127066752Y-87949287D01*
X126945702Y-87828448D01*
X126800101Y-87738698D01*
X126637757Y-87684851D01*
X126630920Y-87684151D01*
X126630918Y-87684150D01*
X126589599Y-87679917D01*
X126536732Y-87674500D01*
X126200727Y-87674500D01*
X126132606Y-87654498D01*
X126086113Y-87600842D01*
X126080894Y-87587437D01*
X126058568Y-87518725D01*
X126058567Y-87518724D01*
X126056527Y-87512444D01*
X125961040Y-87347056D01*
X125935064Y-87318206D01*
X125837675Y-87210045D01*
X125837674Y-87210044D01*
X125833253Y-87205134D01*
X125806440Y-87185653D01*
X125763086Y-87129430D01*
X125757011Y-87058694D01*
X125790143Y-86995902D01*
X125851963Y-86960991D01*
X125905621Y-86960246D01*
X126117656Y-87003385D01*
X126248324Y-87008176D01*
X126343949Y-87011683D01*
X126343953Y-87011683D01*
X126349113Y-87011872D01*
X126354233Y-87011216D01*
X126354235Y-87011216D01*
X126453668Y-86998478D01*
X126578847Y-86982442D01*
X126583795Y-86980957D01*
X126583802Y-86980956D01*
X126795747Y-86917369D01*
X126800690Y-86915886D01*
X126805324Y-86913616D01*
X127004049Y-86816262D01*
X127004052Y-86816260D01*
X127008684Y-86813991D01*
X127197243Y-86679494D01*
X127332539Y-86544669D01*
X129957001Y-86544669D01*
X129957371Y-86551490D01*
X129962895Y-86602352D01*
X129966521Y-86617604D01*
X130011676Y-86738054D01*
X130020214Y-86753649D01*
X130096715Y-86855724D01*
X130109276Y-86868285D01*
X130211351Y-86944786D01*
X130226946Y-86953324D01*
X130347394Y-86998478D01*
X130362649Y-87002105D01*
X130413514Y-87007631D01*
X130420328Y-87008000D01*
X131092885Y-87008000D01*
X131108124Y-87003525D01*
X131109329Y-87002135D01*
X131111000Y-86994452D01*
X131111000Y-86989884D01*
X131619000Y-86989884D01*
X131623475Y-87005123D01*
X131624865Y-87006328D01*
X131632548Y-87007999D01*
X132309669Y-87007999D01*
X132316490Y-87007629D01*
X132367352Y-87002105D01*
X132382604Y-86998479D01*
X132503054Y-86953324D01*
X132518649Y-86944786D01*
X132620724Y-86868285D01*
X132633285Y-86855724D01*
X132709786Y-86753649D01*
X132718324Y-86738054D01*
X132763478Y-86617606D01*
X132767105Y-86602351D01*
X132772631Y-86551486D01*
X132773000Y-86544672D01*
X132773000Y-85872115D01*
X132768525Y-85856876D01*
X132767135Y-85855671D01*
X132759452Y-85854000D01*
X131637115Y-85854000D01*
X131621876Y-85858475D01*
X131620671Y-85859865D01*
X131619000Y-85867548D01*
X131619000Y-86989884D01*
X131111000Y-86989884D01*
X131111000Y-85872115D01*
X131106525Y-85856876D01*
X131105135Y-85855671D01*
X131097452Y-85854000D01*
X129975116Y-85854000D01*
X129959877Y-85858475D01*
X129958672Y-85859865D01*
X129957001Y-85867548D01*
X129957001Y-86544669D01*
X127332539Y-86544669D01*
X127361303Y-86516005D01*
X127496458Y-86327917D01*
X127515512Y-86289365D01*
X127596784Y-86124922D01*
X127596785Y-86124920D01*
X127599078Y-86120280D01*
X127666408Y-85898671D01*
X127696640Y-85669041D01*
X127698327Y-85600000D01*
X127683796Y-85423251D01*
X127679773Y-85374318D01*
X127679772Y-85374312D01*
X127679349Y-85369167D01*
X127668980Y-85327885D01*
X129957000Y-85327885D01*
X129961475Y-85343124D01*
X129962865Y-85344329D01*
X129970548Y-85346000D01*
X131092885Y-85346000D01*
X131108124Y-85341525D01*
X131109329Y-85340135D01*
X131111000Y-85332452D01*
X131111000Y-85327885D01*
X131619000Y-85327885D01*
X131623475Y-85343124D01*
X131624865Y-85344329D01*
X131632548Y-85346000D01*
X132754884Y-85346000D01*
X132770123Y-85341525D01*
X132771328Y-85340135D01*
X132772999Y-85332452D01*
X132772999Y-84655331D01*
X132772629Y-84648510D01*
X132767105Y-84597648D01*
X132763479Y-84582396D01*
X132718324Y-84461946D01*
X132709786Y-84446351D01*
X132633285Y-84344276D01*
X132620724Y-84331715D01*
X132518649Y-84255214D01*
X132503054Y-84246676D01*
X132382606Y-84201522D01*
X132367351Y-84197895D01*
X132316486Y-84192369D01*
X132309672Y-84192000D01*
X131637115Y-84192000D01*
X131621876Y-84196475D01*
X131620671Y-84197865D01*
X131619000Y-84205548D01*
X131619000Y-85327885D01*
X131111000Y-85327885D01*
X131111000Y-84210116D01*
X131106525Y-84194877D01*
X131105135Y-84193672D01*
X131097452Y-84192001D01*
X130420331Y-84192001D01*
X130413510Y-84192371D01*
X130362648Y-84197895D01*
X130347396Y-84201521D01*
X130226946Y-84246676D01*
X130211351Y-84255214D01*
X130109276Y-84331715D01*
X130096715Y-84344276D01*
X130020214Y-84446351D01*
X130011676Y-84461946D01*
X129966522Y-84582394D01*
X129962895Y-84597649D01*
X129957369Y-84648514D01*
X129957000Y-84655328D01*
X129957000Y-85327885D01*
X127668980Y-85327885D01*
X127636574Y-85198872D01*
X127624184Y-85149544D01*
X127624183Y-85149540D01*
X127622925Y-85144533D01*
X127620866Y-85139797D01*
X127532630Y-84936868D01*
X127532628Y-84936865D01*
X127530570Y-84932131D01*
X127404764Y-84737665D01*
X127248887Y-84566358D01*
X127244836Y-84563159D01*
X127244832Y-84563155D01*
X127071177Y-84426011D01*
X127071172Y-84426008D01*
X127067123Y-84422810D01*
X127062607Y-84420317D01*
X127062604Y-84420315D01*
X126868879Y-84313373D01*
X126868875Y-84313371D01*
X126864355Y-84310876D01*
X126859486Y-84309152D01*
X126859482Y-84309150D01*
X126650903Y-84235288D01*
X126650899Y-84235287D01*
X126646028Y-84233562D01*
X126640935Y-84232655D01*
X126640932Y-84232654D01*
X126423095Y-84193851D01*
X126423089Y-84193850D01*
X126418006Y-84192945D01*
X126340644Y-84192000D01*
X126191581Y-84190179D01*
X126191579Y-84190179D01*
X126186411Y-84190116D01*
X125957464Y-84225150D01*
X125737314Y-84297106D01*
X125732726Y-84299494D01*
X125732722Y-84299496D01*
X125600580Y-84368285D01*
X125531872Y-84404052D01*
X125527739Y-84407155D01*
X125527736Y-84407157D01*
X125350790Y-84540012D01*
X125346655Y-84543117D01*
X125186639Y-84710564D01*
X125183725Y-84714836D01*
X125183724Y-84714837D01*
X125168152Y-84737665D01*
X125056119Y-84901899D01*
X124958602Y-85111981D01*
X124896707Y-85335169D01*
X124872095Y-85565469D01*
X124872392Y-85570622D01*
X124872392Y-85570625D01*
X124878067Y-85669041D01*
X124885427Y-85796697D01*
X124886564Y-85801743D01*
X124886565Y-85801749D01*
X124912329Y-85916072D01*
X124936346Y-86022642D01*
X124938288Y-86027424D01*
X124938289Y-86027428D01*
X124993214Y-86162692D01*
X125023484Y-86237237D01*
X125144501Y-86434719D01*
X125296147Y-86609784D01*
X125444823Y-86733217D01*
X125458680Y-86744721D01*
X125474349Y-86757730D01*
X125478810Y-86760337D01*
X125483042Y-86763300D01*
X125527371Y-86818757D01*
X125534680Y-86889376D01*
X125502650Y-86952736D01*
X125441449Y-86988722D01*
X125384575Y-86989760D01*
X125323944Y-86976872D01*
X125323939Y-86976872D01*
X125317487Y-86975500D01*
X125126513Y-86975500D01*
X125120061Y-86976872D01*
X125120056Y-86976872D01*
X125037351Y-86994452D01*
X124939712Y-87015206D01*
X124933682Y-87017891D01*
X124933681Y-87017891D01*
X124771278Y-87090197D01*
X124771276Y-87090198D01*
X124765248Y-87092882D01*
X124759907Y-87096762D01*
X124759906Y-87096763D01*
X124725171Y-87122000D01*
X124610747Y-87205134D01*
X124606326Y-87210044D01*
X124606325Y-87210045D01*
X124508937Y-87318206D01*
X124482960Y-87347056D01*
X124387473Y-87512444D01*
X124328458Y-87694072D01*
X124327768Y-87700633D01*
X124327768Y-87700635D01*
X124314738Y-87824607D01*
X124308496Y-87884000D01*
X124309186Y-87890565D01*
X124323894Y-88030500D01*
X124328458Y-88073928D01*
X124387473Y-88255556D01*
X124482960Y-88420944D01*
X124487378Y-88425851D01*
X124487379Y-88425852D01*
X124606325Y-88557955D01*
X124610747Y-88562866D01*
X124765248Y-88675118D01*
X124771276Y-88677802D01*
X124771278Y-88677803D01*
X124933681Y-88750109D01*
X124939712Y-88752794D01*
X125033112Y-88772647D01*
X125120056Y-88791128D01*
X125120061Y-88791128D01*
X125126513Y-88792500D01*
X125133115Y-88792500D01*
X125139682Y-88793190D01*
X125139436Y-88795532D01*
X125197230Y-88812502D01*
X125243723Y-88866158D01*
X125253675Y-88906818D01*
X125254500Y-88906732D01*
X125265113Y-89009019D01*
X125319244Y-89171268D01*
X125409248Y-89316713D01*
X125414430Y-89321886D01*
X125418975Y-89327620D01*
X125417055Y-89329142D01*
X125445545Y-89381206D01*
X125440544Y-89452026D01*
X125417118Y-89488552D01*
X125418157Y-89489372D01*
X125413619Y-89495118D01*
X125408448Y-89500298D01*
X125318698Y-89645899D01*
X125264851Y-89808243D01*
X125254500Y-89909268D01*
X125254500Y-90456732D01*
X125265113Y-90559019D01*
X125293123Y-90642973D01*
X125305307Y-90679493D01*
X125310501Y-90737300D01*
X125293915Y-90852659D01*
X125293914Y-90852666D01*
X125293276Y-90857107D01*
X125293276Y-91223500D01*
X125273274Y-91291621D01*
X125219618Y-91338114D01*
X125167276Y-91349500D01*
X124985845Y-91349500D01*
X124933502Y-91338113D01*
X124905240Y-91325206D01*
X124896666Y-91322689D01*
X124836941Y-91284305D01*
X124807448Y-91219724D01*
X124817553Y-91149450D01*
X124819334Y-91145995D01*
X124826181Y-91130617D01*
X124877833Y-90971650D01*
X124880563Y-90958807D01*
X124898036Y-90792565D01*
X124898036Y-90779435D01*
X124880563Y-90613193D01*
X124877833Y-90600350D01*
X124826181Y-90441383D01*
X124820835Y-90429375D01*
X124804637Y-90401320D01*
X124794431Y-90391589D01*
X124786410Y-90394800D01*
X123933488Y-91247722D01*
X123871176Y-91281748D01*
X123844393Y-91284627D01*
X123247607Y-91284627D01*
X123179486Y-91264625D01*
X123158512Y-91247722D01*
X123088812Y-91178022D01*
X123074868Y-91170408D01*
X123073035Y-91170539D01*
X123066420Y-91174790D01*
X122993488Y-91247722D01*
X122931176Y-91281748D01*
X122904393Y-91284627D01*
X122287607Y-91284627D01*
X122219486Y-91264625D01*
X122198512Y-91247722D01*
X121994722Y-91043932D01*
X121960696Y-90981620D01*
X121959527Y-90953687D01*
X121957968Y-90953687D01*
X121957968Y-90945428D01*
X121959046Y-90937240D01*
X121953584Y-90895754D01*
X121941917Y-90807132D01*
X122480408Y-90807132D01*
X122480539Y-90808965D01*
X122484790Y-90815580D01*
X122583188Y-90913978D01*
X122597132Y-90921592D01*
X122598965Y-90921461D01*
X122605580Y-90917210D01*
X122703978Y-90818812D01*
X122710356Y-90807132D01*
X123440408Y-90807132D01*
X123440539Y-90808965D01*
X123444790Y-90815580D01*
X123533188Y-90903978D01*
X123547132Y-90911592D01*
X123548965Y-90911461D01*
X123555580Y-90907210D01*
X123663978Y-90798812D01*
X123671592Y-90784868D01*
X123671461Y-90783035D01*
X123667210Y-90776420D01*
X123578812Y-90688022D01*
X123564868Y-90680408D01*
X123563035Y-90680539D01*
X123556420Y-90684790D01*
X123448022Y-90793188D01*
X123440408Y-90807132D01*
X122710356Y-90807132D01*
X122711592Y-90804868D01*
X122711461Y-90803035D01*
X122707210Y-90796420D01*
X122608812Y-90698022D01*
X122594868Y-90690408D01*
X122593035Y-90690539D01*
X122586420Y-90694790D01*
X122488022Y-90793188D01*
X122480408Y-90807132D01*
X121941917Y-90807132D01*
X121938992Y-90784916D01*
X121924019Y-90748767D01*
X121916430Y-90678181D01*
X121951333Y-90611457D01*
X122506905Y-90055885D01*
X122518175Y-90049731D01*
X122675519Y-90049731D01*
X122685095Y-90055885D01*
X123063188Y-90433978D01*
X123077132Y-90441592D01*
X123078965Y-90441461D01*
X123085580Y-90437210D01*
X123476736Y-90046054D01*
X123470868Y-90042609D01*
X123448194Y-90032514D01*
X123634290Y-90032514D01*
X123655095Y-90045885D01*
X124023188Y-90413978D01*
X124037132Y-90421592D01*
X124038965Y-90421461D01*
X124045580Y-90417210D01*
X124424500Y-90038290D01*
X124431260Y-90025910D01*
X124427749Y-90021220D01*
X124308628Y-89968184D01*
X124296140Y-89964127D01*
X124132636Y-89929372D01*
X124119576Y-89928000D01*
X123952424Y-89928000D01*
X123939364Y-89929372D01*
X123775860Y-89964127D01*
X123763372Y-89968184D01*
X123651237Y-90018110D01*
X123634290Y-90032514D01*
X123448194Y-90032514D01*
X123348628Y-89988184D01*
X123336140Y-89984127D01*
X123172636Y-89949372D01*
X123159576Y-89948000D01*
X122992424Y-89948000D01*
X122979364Y-89949372D01*
X122815860Y-89984127D01*
X122803372Y-89988184D01*
X122691238Y-90038110D01*
X122679816Y-90047818D01*
X122675519Y-90049731D01*
X122518175Y-90049731D01*
X122520676Y-90048365D01*
X122510874Y-90042612D01*
X122388628Y-89988184D01*
X122376140Y-89984127D01*
X122212636Y-89949372D01*
X122199576Y-89948000D01*
X122046000Y-89948000D01*
X121977879Y-89927998D01*
X121931386Y-89874342D01*
X121920000Y-89822000D01*
X121920000Y-87248000D01*
X121919640Y-87244649D01*
X121909671Y-87151923D01*
X121922277Y-87082055D01*
X121970655Y-87030093D01*
X122015632Y-87015182D01*
X122015487Y-87014500D01*
X122021623Y-87013196D01*
X122021625Y-87013195D01*
X122202288Y-86974794D01*
X122208319Y-86972109D01*
X122370722Y-86899803D01*
X122370724Y-86899802D01*
X122376752Y-86897118D01*
X122531253Y-86784866D01*
X122626130Y-86679494D01*
X122654621Y-86647852D01*
X122654622Y-86647851D01*
X122659040Y-86642944D01*
X122754527Y-86477556D01*
X122813542Y-86295928D01*
X122818177Y-86251834D01*
X122832814Y-86112565D01*
X122833504Y-86106000D01*
X122813542Y-85916072D01*
X122754527Y-85734444D01*
X122659040Y-85569056D01*
X122651189Y-85560336D01*
X122535675Y-85432045D01*
X122535674Y-85432044D01*
X122531253Y-85427134D01*
X122376752Y-85314882D01*
X122370724Y-85312198D01*
X122370722Y-85312197D01*
X122208319Y-85239891D01*
X122208318Y-85239891D01*
X122202288Y-85237206D01*
X122108888Y-85217353D01*
X122021944Y-85198872D01*
X122021939Y-85198872D01*
X122015487Y-85197500D01*
X121824513Y-85197500D01*
X121818061Y-85198872D01*
X121818056Y-85198872D01*
X121731112Y-85217353D01*
X121637712Y-85237206D01*
X121573248Y-85265907D01*
X121502882Y-85275341D01*
X121438585Y-85245235D01*
X121400772Y-85185146D01*
X121396000Y-85150800D01*
X121396000Y-84044669D01*
X133227001Y-84044669D01*
X133227371Y-84051490D01*
X133232895Y-84102352D01*
X133236521Y-84117604D01*
X133281676Y-84238054D01*
X133290214Y-84253649D01*
X133366715Y-84355724D01*
X133379276Y-84368285D01*
X133481351Y-84444786D01*
X133496946Y-84453324D01*
X133617394Y-84498478D01*
X133632649Y-84502105D01*
X133683514Y-84507631D01*
X133690328Y-84508000D01*
X134362885Y-84508000D01*
X134378124Y-84503525D01*
X134379329Y-84502135D01*
X134381000Y-84494452D01*
X134381000Y-83372115D01*
X134376525Y-83356876D01*
X134375135Y-83355671D01*
X134367452Y-83354000D01*
X133245116Y-83354000D01*
X133229877Y-83358475D01*
X133228672Y-83359865D01*
X133227001Y-83367548D01*
X133227001Y-84044669D01*
X121396000Y-84044669D01*
X121396000Y-82126000D01*
X121416002Y-82057879D01*
X121469658Y-82011386D01*
X121522000Y-82000000D01*
X133103073Y-82000000D01*
X133171194Y-82020002D01*
G37*
%TD.AperFunction*%
%TD*%
%TA.AperFunction,Conductor*%
%TO.N,GND*%
G36*
X121469376Y-110764002D02*
G01*
X121515869Y-110817658D01*
X121526565Y-110883170D01*
X121514496Y-110998000D01*
X121515186Y-111004565D01*
X121519914Y-111049545D01*
X121534458Y-111187928D01*
X121593473Y-111369556D01*
X121596776Y-111375278D01*
X121596777Y-111375279D01*
X121635876Y-111443000D01*
X121652614Y-111511995D01*
X121635876Y-111569000D01*
X121593473Y-111642444D01*
X121534458Y-111824072D01*
X121533768Y-111830633D01*
X121533768Y-111830635D01*
X121515186Y-112007435D01*
X121514496Y-112014000D01*
X121534458Y-112203928D01*
X121593473Y-112385556D01*
X121596776Y-112391278D01*
X121596777Y-112391279D01*
X121622663Y-112436115D01*
X121688960Y-112550944D01*
X121816747Y-112692866D01*
X121971248Y-112805118D01*
X121977276Y-112807802D01*
X121977278Y-112807803D01*
X122139681Y-112880109D01*
X122145712Y-112882794D01*
X122239112Y-112902647D01*
X122326056Y-112921128D01*
X122326061Y-112921128D01*
X122332513Y-112922500D01*
X122523487Y-112922500D01*
X122529939Y-112921128D01*
X122529944Y-112921128D01*
X122616888Y-112902647D01*
X122710288Y-112882794D01*
X122716319Y-112880109D01*
X122878722Y-112807803D01*
X122878724Y-112807802D01*
X122884752Y-112805118D01*
X123039253Y-112692866D01*
X123124864Y-112597785D01*
X123185310Y-112560545D01*
X123256293Y-112561897D01*
X123315278Y-112601410D01*
X123343536Y-112666541D01*
X123344500Y-112682095D01*
X123344500Y-113243400D01*
X123344837Y-113246646D01*
X123344837Y-113246650D01*
X123350701Y-113303162D01*
X123355474Y-113349166D01*
X123411450Y-113516946D01*
X123415304Y-113523174D01*
X123415305Y-113523176D01*
X123482770Y-113632197D01*
X123501608Y-113700649D01*
X123480447Y-113768418D01*
X123426006Y-113813990D01*
X123375626Y-113824500D01*
X123281600Y-113824500D01*
X123278354Y-113824837D01*
X123278350Y-113824837D01*
X123182692Y-113834762D01*
X123182688Y-113834763D01*
X123175834Y-113835474D01*
X123169298Y-113837655D01*
X123169296Y-113837655D01*
X123037194Y-113881728D01*
X123008054Y-113891450D01*
X122857652Y-113984522D01*
X122732695Y-114109697D01*
X122728855Y-114115927D01*
X122728854Y-114115928D01*
X122649070Y-114245362D01*
X122639885Y-114260262D01*
X122629753Y-114290809D01*
X122608425Y-114355113D01*
X122584203Y-114428139D01*
X122573500Y-114532600D01*
X122573500Y-114825260D01*
X122553498Y-114893381D01*
X122499842Y-114939874D01*
X122429568Y-114949978D01*
X122364988Y-114920484D01*
X122327266Y-114862939D01*
X122311592Y-114812924D01*
X122306583Y-114801236D01*
X122219208Y-114643606D01*
X122211964Y-114633183D01*
X122094671Y-114496336D01*
X122085473Y-114487577D01*
X121943063Y-114377112D01*
X121932289Y-114370380D01*
X121770579Y-114290809D01*
X121758677Y-114286382D01*
X121599529Y-114244928D01*
X121585436Y-114245362D01*
X121582000Y-114253545D01*
X121582000Y-116403013D01*
X121585929Y-116416393D01*
X121600144Y-116418384D01*
X121663157Y-116408854D01*
X121675470Y-116405693D01*
X121844610Y-116343462D01*
X121856026Y-116337894D01*
X122009201Y-116242921D01*
X122019265Y-116235171D01*
X122150215Y-116111338D01*
X122158517Y-116101720D01*
X122261888Y-115954090D01*
X122268088Y-115942996D01*
X122331863Y-115795623D01*
X122377274Y-115741049D01*
X122444982Y-115719689D01*
X122513489Y-115738326D01*
X122561045Y-115791041D01*
X122573500Y-115845664D01*
X122573500Y-116133400D01*
X122573837Y-116136646D01*
X122573837Y-116136650D01*
X122580778Y-116203543D01*
X122584474Y-116239166D01*
X122586655Y-116245702D01*
X122586655Y-116245704D01*
X122607637Y-116308595D01*
X122640450Y-116406946D01*
X122733522Y-116557348D01*
X122858697Y-116682305D01*
X122864927Y-116686145D01*
X122864928Y-116686146D01*
X123002090Y-116770694D01*
X123009262Y-116775115D01*
X123089005Y-116801564D01*
X123170611Y-116828632D01*
X123170613Y-116828632D01*
X123177139Y-116830797D01*
X123183975Y-116831497D01*
X123183978Y-116831498D01*
X123227031Y-116835909D01*
X123281600Y-116841500D01*
X124582400Y-116841500D01*
X124585646Y-116841163D01*
X124585650Y-116841163D01*
X124681308Y-116831238D01*
X124681312Y-116831237D01*
X124688166Y-116830526D01*
X124694702Y-116828345D01*
X124694704Y-116828345D01*
X124826806Y-116784272D01*
X124855946Y-116774550D01*
X125006348Y-116681478D01*
X125131305Y-116556303D01*
X125180984Y-116475709D01*
X125233756Y-116428216D01*
X125274257Y-116421613D01*
X125250250Y-116357250D01*
X125256336Y-116308595D01*
X125266333Y-116278454D01*
X125306763Y-116220094D01*
X125372327Y-116192856D01*
X125425589Y-116198526D01*
X125440719Y-116203544D01*
X125499078Y-116243972D01*
X125526317Y-116309536D01*
X125513785Y-116379418D01*
X125490148Y-116412232D01*
X125465024Y-116437356D01*
X125402712Y-116471382D01*
X125385760Y-116470170D01*
X125408451Y-116504060D01*
X125413166Y-116558271D01*
X125409538Y-116585828D01*
X125409000Y-116594037D01*
X125409000Y-116684885D01*
X125413475Y-116700124D01*
X125414865Y-116701329D01*
X125422548Y-116703000D01*
X126008000Y-116703000D01*
X126076121Y-116723002D01*
X126122614Y-116776658D01*
X126134000Y-116829000D01*
X126134000Y-116877000D01*
X126113998Y-116945121D01*
X126060342Y-116991614D01*
X126008000Y-117003000D01*
X125427116Y-117003000D01*
X125411877Y-117007475D01*
X125410672Y-117008865D01*
X125409001Y-117016548D01*
X125409001Y-117111959D01*
X125409540Y-117120177D01*
X125413973Y-117153855D01*
X125419304Y-117172150D01*
X125459008Y-117257295D01*
X125471466Y-117275086D01*
X125473285Y-117276905D01*
X125475216Y-117280441D01*
X125477785Y-117284110D01*
X125477376Y-117284397D01*
X125507311Y-117339217D01*
X125502246Y-117410032D01*
X125459699Y-117466868D01*
X125393179Y-117491679D01*
X125384190Y-117492000D01*
X119506000Y-117492000D01*
X119437879Y-117471998D01*
X119391386Y-117418342D01*
X119380000Y-117366000D01*
X119380000Y-115528033D01*
X120482000Y-115528033D01*
X120482323Y-115534408D01*
X120495960Y-115668660D01*
X120498514Y-115681100D01*
X120552408Y-115853076D01*
X120557417Y-115864764D01*
X120644792Y-116022394D01*
X120652036Y-116032817D01*
X120769329Y-116169664D01*
X120778527Y-116178423D01*
X120920937Y-116288888D01*
X120931711Y-116295620D01*
X121093421Y-116375191D01*
X121105323Y-116379618D01*
X121264471Y-116421072D01*
X121278564Y-116420638D01*
X121282000Y-116412455D01*
X121282000Y-115501115D01*
X121277525Y-115485876D01*
X121276135Y-115484671D01*
X121268452Y-115483000D01*
X120500115Y-115483000D01*
X120484876Y-115487475D01*
X120483671Y-115488865D01*
X120482000Y-115496548D01*
X120482000Y-115528033D01*
X119380000Y-115528033D01*
X119380000Y-115164885D01*
X120482000Y-115164885D01*
X120486475Y-115180124D01*
X120487865Y-115181329D01*
X120495548Y-115183000D01*
X121263885Y-115183000D01*
X121279124Y-115178525D01*
X121280329Y-115177135D01*
X121282000Y-115169452D01*
X121282000Y-114262987D01*
X121278071Y-114249607D01*
X121263856Y-114247616D01*
X121200843Y-114257146D01*
X121188530Y-114260307D01*
X121019390Y-114322538D01*
X121007974Y-114328106D01*
X120854799Y-114423079D01*
X120844735Y-114430829D01*
X120713785Y-114554662D01*
X120705483Y-114564280D01*
X120602112Y-114711910D01*
X120595912Y-114723004D01*
X120524335Y-114888407D01*
X120520493Y-114900519D01*
X120483324Y-115078438D01*
X120482084Y-115087984D01*
X120482000Y-115091187D01*
X120482000Y-115164885D01*
X119380000Y-115164885D01*
X119380000Y-113669000D01*
X119400002Y-113600879D01*
X119453658Y-113554386D01*
X119506000Y-113543000D01*
X119797385Y-113543000D01*
X119812624Y-113538525D01*
X119813829Y-113537135D01*
X119815500Y-113529452D01*
X119815500Y-113524884D01*
X120115500Y-113524884D01*
X120119975Y-113540123D01*
X120121365Y-113541328D01*
X120129048Y-113542999D01*
X120781568Y-113542999D01*
X120790734Y-113542328D01*
X120845278Y-113534300D01*
X120863759Y-113528557D01*
X120950213Y-113486111D01*
X120966918Y-113474151D01*
X121034523Y-113406428D01*
X121046455Y-113389700D01*
X121088755Y-113303162D01*
X121094463Y-113284694D01*
X121102340Y-113230703D01*
X121103000Y-113221604D01*
X121103000Y-112436115D01*
X121098525Y-112420876D01*
X121097135Y-112419671D01*
X121089452Y-112418000D01*
X120133615Y-112418000D01*
X120118376Y-112422475D01*
X120117171Y-112423865D01*
X120115500Y-112431548D01*
X120115500Y-113524884D01*
X119815500Y-113524884D01*
X119815500Y-112244000D01*
X119835502Y-112175879D01*
X119889158Y-112129386D01*
X119941500Y-112118000D01*
X121084884Y-112118000D01*
X121100123Y-112113525D01*
X121101328Y-112112135D01*
X121102999Y-112104452D01*
X121102999Y-111314432D01*
X121102328Y-111305266D01*
X121094300Y-111250722D01*
X121088557Y-111232241D01*
X121046111Y-111145787D01*
X121034151Y-111129082D01*
X120966428Y-111061477D01*
X120949700Y-111049545D01*
X120863162Y-111007245D01*
X120844694Y-111001537D01*
X120797693Y-110994680D01*
X120733173Y-110965054D01*
X120694913Y-110905249D01*
X120695059Y-110834252D01*
X120733566Y-110774605D01*
X120798208Y-110745246D01*
X120815882Y-110744000D01*
X121401255Y-110744000D01*
X121469376Y-110764002D01*
G37*
%TD.AperFunction*%
%TD*%
%TA.AperFunction,Conductor*%
%TO.N,GND*%
G36*
X115786971Y-102128002D02*
G01*
X115833464Y-102181658D01*
X115843568Y-102251932D01*
X115814074Y-102316512D01*
X115774381Y-102347103D01*
X115717787Y-102374889D01*
X115701082Y-102386849D01*
X115633477Y-102454572D01*
X115621545Y-102471300D01*
X115579245Y-102557838D01*
X115573537Y-102576306D01*
X115565660Y-102630297D01*
X115565000Y-102639396D01*
X115565000Y-103287385D01*
X115569475Y-103302624D01*
X115570865Y-103303829D01*
X115578548Y-103305500D01*
X118096884Y-103305500D01*
X118112123Y-103301025D01*
X118113328Y-103299635D01*
X118114999Y-103291952D01*
X118114999Y-102639432D01*
X118114328Y-102630266D01*
X118106300Y-102575722D01*
X118100557Y-102557241D01*
X118058111Y-102470787D01*
X118046151Y-102454082D01*
X117978428Y-102386477D01*
X117961700Y-102374545D01*
X117905757Y-102347200D01*
X117853340Y-102299315D01*
X117835133Y-102230693D01*
X117856917Y-102163120D01*
X117911774Y-102118052D01*
X117961090Y-102108000D01*
X118492000Y-102108000D01*
X118560121Y-102128002D01*
X118606614Y-102181658D01*
X118618000Y-102234000D01*
X118618000Y-106554000D01*
X118597998Y-106622121D01*
X118544342Y-106668614D01*
X118492000Y-106680000D01*
X114697775Y-106680000D01*
X114631659Y-106661260D01*
X114599968Y-106641725D01*
X114599966Y-106641724D01*
X114593738Y-106637885D01*
X114433254Y-106584655D01*
X114432389Y-106584368D01*
X114432387Y-106584368D01*
X114425861Y-106582203D01*
X114419025Y-106581503D01*
X114419022Y-106581502D01*
X114375969Y-106577091D01*
X114321400Y-106571500D01*
X114028740Y-106571500D01*
X113960619Y-106551498D01*
X113914126Y-106497842D01*
X113904022Y-106427568D01*
X113933516Y-106362988D01*
X113991061Y-106325266D01*
X114041076Y-106309592D01*
X114052764Y-106304583D01*
X114210394Y-106217208D01*
X114220817Y-106209964D01*
X114357664Y-106092671D01*
X114366423Y-106083473D01*
X114476888Y-105941063D01*
X114483620Y-105930289D01*
X114563191Y-105768579D01*
X114567618Y-105756677D01*
X114609072Y-105597529D01*
X114608638Y-105583436D01*
X114600455Y-105580000D01*
X112450987Y-105580000D01*
X112437607Y-105583929D01*
X112435616Y-105598144D01*
X112445146Y-105661157D01*
X112448307Y-105673470D01*
X112510538Y-105842610D01*
X112516106Y-105854026D01*
X112611079Y-106007201D01*
X112618829Y-106017265D01*
X112742662Y-106148215D01*
X112752280Y-106156517D01*
X112899910Y-106259888D01*
X112911004Y-106266088D01*
X113058377Y-106329863D01*
X113112951Y-106375274D01*
X113134311Y-106442982D01*
X113115674Y-106511489D01*
X113062959Y-106559045D01*
X113008336Y-106571500D01*
X112720600Y-106571500D01*
X112717354Y-106571837D01*
X112717350Y-106571837D01*
X112621692Y-106581762D01*
X112621688Y-106581763D01*
X112614834Y-106582474D01*
X112608298Y-106584655D01*
X112608296Y-106584655D01*
X112543293Y-106606342D01*
X112447054Y-106638450D01*
X112412233Y-106659998D01*
X112410381Y-106661144D01*
X112344078Y-106680000D01*
X112174352Y-106680000D01*
X112106231Y-106659998D01*
X112059738Y-106606342D01*
X112049634Y-106536068D01*
X112060157Y-106500751D01*
X112070694Y-106478155D01*
X112076028Y-106459854D01*
X112080462Y-106426172D01*
X112081000Y-106417963D01*
X112081000Y-106327115D01*
X112076525Y-106311876D01*
X112075135Y-106310671D01*
X112067452Y-106309000D01*
X111482000Y-106309000D01*
X111413879Y-106288998D01*
X111367386Y-106235342D01*
X111356000Y-106183000D01*
X111356000Y-105990885D01*
X111656000Y-105990885D01*
X111660475Y-106006124D01*
X111661865Y-106007329D01*
X111669548Y-106009000D01*
X112062884Y-106009000D01*
X112078123Y-106004525D01*
X112079328Y-106003135D01*
X112080999Y-105995452D01*
X112080999Y-105900041D01*
X112080460Y-105891823D01*
X112076027Y-105858145D01*
X112070696Y-105839850D01*
X112030992Y-105754705D01*
X112018534Y-105736914D01*
X111953086Y-105671466D01*
X111935295Y-105659008D01*
X111850152Y-105619305D01*
X111831854Y-105613972D01*
X111798172Y-105609538D01*
X111789963Y-105609000D01*
X111674115Y-105609000D01*
X111658876Y-105613475D01*
X111657671Y-105614865D01*
X111656000Y-105622548D01*
X111656000Y-105990885D01*
X111356000Y-105990885D01*
X111356000Y-105627116D01*
X111351525Y-105611877D01*
X111350135Y-105610672D01*
X111342452Y-105609001D01*
X111222041Y-105609001D01*
X111213823Y-105609540D01*
X111180144Y-105613973D01*
X111169252Y-105617147D01*
X111098256Y-105617003D01*
X111038608Y-105578497D01*
X111009246Y-105513857D01*
X111008000Y-105496179D01*
X111008000Y-105262471D01*
X112432928Y-105262471D01*
X112433362Y-105276564D01*
X112441545Y-105280000D01*
X113352885Y-105280000D01*
X113368124Y-105275525D01*
X113369329Y-105274135D01*
X113371000Y-105266452D01*
X113371000Y-105261885D01*
X113671000Y-105261885D01*
X113675475Y-105277124D01*
X113676865Y-105278329D01*
X113684548Y-105280000D01*
X114591013Y-105280000D01*
X114604393Y-105276071D01*
X114606384Y-105261856D01*
X114596854Y-105198843D01*
X114593693Y-105186530D01*
X114531462Y-105017390D01*
X114525894Y-105005974D01*
X114430921Y-104852799D01*
X114423171Y-104842735D01*
X114299338Y-104711785D01*
X114289720Y-104703483D01*
X114142090Y-104600112D01*
X114130996Y-104593912D01*
X113965593Y-104522335D01*
X113953481Y-104518493D01*
X113775562Y-104481324D01*
X113766016Y-104480084D01*
X113762813Y-104480000D01*
X113689115Y-104480000D01*
X113673876Y-104484475D01*
X113672671Y-104485865D01*
X113671000Y-104493548D01*
X113671000Y-105261885D01*
X113371000Y-105261885D01*
X113371000Y-104498115D01*
X113366525Y-104482876D01*
X113365135Y-104481671D01*
X113357452Y-104480000D01*
X113325967Y-104480000D01*
X113319592Y-104480323D01*
X113185340Y-104493960D01*
X113172900Y-104496514D01*
X113000924Y-104550408D01*
X112989236Y-104555417D01*
X112831606Y-104642792D01*
X112821183Y-104650036D01*
X112684336Y-104767329D01*
X112675577Y-104776527D01*
X112565112Y-104918937D01*
X112558380Y-104929711D01*
X112478809Y-105091421D01*
X112474382Y-105103323D01*
X112432928Y-105262471D01*
X111008000Y-105262471D01*
X111008000Y-104271568D01*
X115565001Y-104271568D01*
X115565672Y-104280734D01*
X115573700Y-104335278D01*
X115579443Y-104353759D01*
X115621889Y-104440213D01*
X115633849Y-104456918D01*
X115701572Y-104524523D01*
X115718300Y-104536455D01*
X115804838Y-104578755D01*
X115823306Y-104584463D01*
X115877297Y-104592340D01*
X115886396Y-104593000D01*
X116671885Y-104593000D01*
X116687124Y-104588525D01*
X116688329Y-104587135D01*
X116690000Y-104579452D01*
X116690000Y-104574884D01*
X116990000Y-104574884D01*
X116994475Y-104590123D01*
X116995865Y-104591328D01*
X117003548Y-104592999D01*
X117793568Y-104592999D01*
X117802734Y-104592328D01*
X117857278Y-104584300D01*
X117875759Y-104578557D01*
X117962213Y-104536111D01*
X117978918Y-104524151D01*
X118046523Y-104456428D01*
X118058455Y-104439700D01*
X118100755Y-104353162D01*
X118106463Y-104334694D01*
X118114340Y-104280703D01*
X118115000Y-104271604D01*
X118115000Y-103623615D01*
X118110525Y-103608376D01*
X118109135Y-103607171D01*
X118101452Y-103605500D01*
X117008115Y-103605500D01*
X116992876Y-103609975D01*
X116991671Y-103611365D01*
X116990000Y-103619048D01*
X116990000Y-104574884D01*
X116690000Y-104574884D01*
X116690000Y-103623615D01*
X116685525Y-103608376D01*
X116684135Y-103607171D01*
X116676452Y-103605500D01*
X115583116Y-103605500D01*
X115567877Y-103609975D01*
X115566672Y-103611365D01*
X115565001Y-103619048D01*
X115565001Y-104271568D01*
X111008000Y-104271568D01*
X111008000Y-102234000D01*
X111028002Y-102165879D01*
X111081658Y-102119386D01*
X111134000Y-102108000D01*
X115718850Y-102108000D01*
X115786971Y-102128002D01*
G37*
%TD.AperFunction*%
%TD*%
%TA.AperFunction,Conductor*%
%TO.N,GND*%
G36*
X119842512Y-90234889D02*
G01*
X119849096Y-90241018D01*
X120538645Y-90930568D01*
X120551764Y-90949632D01*
X120750106Y-91147974D01*
X120784132Y-91210286D01*
X120787011Y-91237069D01*
X120787011Y-91474931D01*
X120767009Y-91543052D01*
X120750106Y-91564026D01*
X120561597Y-91752535D01*
X120555424Y-91763839D01*
X120559755Y-91769301D01*
X120664746Y-91802102D01*
X120681156Y-91804760D01*
X120745203Y-91835396D01*
X120782519Y-91895795D01*
X120787011Y-91929139D01*
X120787011Y-92154008D01*
X120785933Y-92170455D01*
X120781976Y-92200511D01*
X120787011Y-92238755D01*
X120802030Y-92352835D01*
X120860825Y-92494778D01*
X120954354Y-92616668D01*
X120960900Y-92621691D01*
X120978413Y-92635129D01*
X120990804Y-92645997D01*
X121226752Y-92881945D01*
X121260778Y-92944257D01*
X121262967Y-92957869D01*
X121278570Y-93106312D01*
X121281635Y-93135475D01*
X121283675Y-93141753D01*
X121283675Y-93141754D01*
X121304766Y-93206666D01*
X121306793Y-93277634D01*
X121270131Y-93338432D01*
X121206418Y-93369757D01*
X121154118Y-93366722D01*
X121144647Y-93369485D01*
X120835095Y-93679037D01*
X120772783Y-93713063D01*
X120701968Y-93707998D01*
X120656905Y-93679037D01*
X120358812Y-93380944D01*
X120344868Y-93373330D01*
X120343035Y-93373461D01*
X120336420Y-93377712D01*
X120035095Y-93679037D01*
X119972783Y-93713063D01*
X119901968Y-93707998D01*
X119856905Y-93679037D01*
X119822963Y-93645095D01*
X119788937Y-93582783D01*
X119794002Y-93511968D01*
X119822963Y-93466905D01*
X120129873Y-93159995D01*
X120136106Y-93148580D01*
X120555796Y-93148580D01*
X120559898Y-93157766D01*
X120733188Y-93331056D01*
X120747132Y-93338670D01*
X120748965Y-93338539D01*
X120755580Y-93334288D01*
X120929873Y-93159995D01*
X120936633Y-93147615D01*
X120933267Y-93143118D01*
X120928093Y-93140728D01*
X120821801Y-93108940D01*
X120804221Y-93106312D01*
X120693275Y-93105634D01*
X120675669Y-93108046D01*
X120568991Y-93138535D01*
X120561822Y-93141741D01*
X120555796Y-93148580D01*
X120136106Y-93148580D01*
X120136633Y-93147615D01*
X120133267Y-93143118D01*
X120128093Y-93140728D01*
X120021801Y-93108940D01*
X120004221Y-93106312D01*
X119893275Y-93105634D01*
X119875666Y-93108046D01*
X119794624Y-93131208D01*
X119723630Y-93130696D01*
X119664182Y-93091882D01*
X119635156Y-93027090D01*
X119634000Y-93010059D01*
X119634000Y-91901383D01*
X119654002Y-91833262D01*
X119707658Y-91786769D01*
X119777932Y-91776665D01*
X119797574Y-91781116D01*
X119864746Y-91802102D01*
X119882288Y-91804943D01*
X119993216Y-91806976D01*
X120010856Y-91804779D01*
X120117895Y-91775597D01*
X120128443Y-91771033D01*
X120135779Y-91762910D01*
X120131976Y-91754108D01*
X119822963Y-91445095D01*
X119788937Y-91382783D01*
X119790772Y-91357132D01*
X120163330Y-91357132D01*
X120163461Y-91358965D01*
X120167712Y-91365580D01*
X120333188Y-91531056D01*
X120347132Y-91538670D01*
X120348965Y-91538539D01*
X120355580Y-91534288D01*
X120521056Y-91368812D01*
X120528670Y-91354868D01*
X120528539Y-91353035D01*
X120524288Y-91346420D01*
X120358812Y-91180944D01*
X120344868Y-91173330D01*
X120343035Y-91173461D01*
X120336420Y-91177712D01*
X120170944Y-91343188D01*
X120163330Y-91357132D01*
X119790772Y-91357132D01*
X119794002Y-91311968D01*
X119822963Y-91266905D01*
X120129873Y-90959995D01*
X120136633Y-90947615D01*
X120133267Y-90943118D01*
X120128093Y-90940728D01*
X120021801Y-90908940D01*
X120004221Y-90906312D01*
X119893275Y-90905634D01*
X119875666Y-90908046D01*
X119794624Y-90931208D01*
X119723630Y-90930696D01*
X119664182Y-90891882D01*
X119635156Y-90827090D01*
X119634000Y-90810059D01*
X119634000Y-90330113D01*
X119654002Y-90261992D01*
X119707658Y-90215499D01*
X119777932Y-90205395D01*
X119842512Y-90234889D01*
G37*
%TD.AperFunction*%
%TA.AperFunction,Conductor*%
G36*
X121354121Y-87142002D02*
G01*
X121400614Y-87195658D01*
X121412000Y-87248000D01*
X121412000Y-89849345D01*
X121391998Y-89917466D01*
X121338342Y-89963959D01*
X121268068Y-89974063D01*
X121203488Y-89944569D01*
X121196916Y-89938451D01*
X120281111Y-89022647D01*
X120247087Y-88960336D01*
X120244897Y-88920384D01*
X120246324Y-88906806D01*
X120246324Y-88906804D01*
X120247014Y-88900239D01*
X120227052Y-88710311D01*
X120168037Y-88528683D01*
X120072550Y-88363295D01*
X119944763Y-88221373D01*
X119790262Y-88109121D01*
X119784234Y-88106437D01*
X119784232Y-88106436D01*
X119708751Y-88072830D01*
X119654655Y-88026850D01*
X119634000Y-87957723D01*
X119634000Y-87248000D01*
X119654002Y-87179879D01*
X119707658Y-87133386D01*
X119760000Y-87122000D01*
X121286000Y-87122000D01*
X121354121Y-87142002D01*
G37*
%TD.AperFunction*%
%TD*%
%TA.AperFunction,Conductor*%
%TO.N,GND*%
G36*
X114242121Y-110510002D02*
G01*
X114288614Y-110563658D01*
X114300000Y-110616000D01*
X114300000Y-114156225D01*
X114281260Y-114222341D01*
X114267070Y-114245362D01*
X114257885Y-114260262D01*
X114202203Y-114428139D01*
X114191500Y-114532600D01*
X114191500Y-114825260D01*
X114171498Y-114893381D01*
X114117842Y-114939874D01*
X114047568Y-114949978D01*
X113982988Y-114920484D01*
X113945266Y-114862939D01*
X113929592Y-114812924D01*
X113924583Y-114801236D01*
X113837208Y-114643606D01*
X113829964Y-114633183D01*
X113712671Y-114496336D01*
X113703473Y-114487577D01*
X113561063Y-114377112D01*
X113550289Y-114370380D01*
X113388579Y-114290809D01*
X113376677Y-114286382D01*
X113217529Y-114244928D01*
X113203436Y-114245362D01*
X113200000Y-114253545D01*
X113200000Y-116403012D01*
X113202808Y-116412576D01*
X113202807Y-116483572D01*
X113164422Y-116543298D01*
X113135162Y-116562266D01*
X113120708Y-116569006D01*
X113102914Y-116581466D01*
X113037466Y-116646914D01*
X113025008Y-116664705D01*
X112985305Y-116749848D01*
X112979972Y-116768146D01*
X112975538Y-116801828D01*
X112975000Y-116810037D01*
X112975000Y-116925885D01*
X112979475Y-116941124D01*
X112980865Y-116942329D01*
X112988548Y-116944000D01*
X113356885Y-116944000D01*
X113372124Y-116939525D01*
X113373329Y-116938135D01*
X113375000Y-116930452D01*
X113375000Y-116537118D01*
X113365421Y-116504496D01*
X113365421Y-116433500D01*
X113403804Y-116373773D01*
X113442809Y-116350747D01*
X113462612Y-116343461D01*
X113474026Y-116337894D01*
X113627201Y-116242921D01*
X113637265Y-116235171D01*
X113768215Y-116111338D01*
X113776517Y-116101720D01*
X113879888Y-115954090D01*
X113886088Y-115942996D01*
X113949863Y-115795623D01*
X113995274Y-115741049D01*
X114062982Y-115719689D01*
X114131489Y-115738326D01*
X114179045Y-115791041D01*
X114191500Y-115845664D01*
X114191500Y-116133400D01*
X114191837Y-116136646D01*
X114191837Y-116136650D01*
X114195263Y-116169664D01*
X114202474Y-116239166D01*
X114239557Y-116350317D01*
X114242143Y-116421264D01*
X114227294Y-116456307D01*
X114185891Y-116523475D01*
X114180698Y-116531899D01*
X114174456Y-116550719D01*
X114134028Y-116609078D01*
X114068465Y-116636317D01*
X113998583Y-116623785D01*
X113965768Y-116600148D01*
X113947086Y-116581466D01*
X113929295Y-116569008D01*
X113844152Y-116529305D01*
X113825854Y-116523972D01*
X113792172Y-116519538D01*
X113783963Y-116519000D01*
X113693115Y-116519000D01*
X113677876Y-116523475D01*
X113676671Y-116524865D01*
X113675000Y-116532548D01*
X113675000Y-117118000D01*
X113654998Y-117186121D01*
X113601342Y-117232614D01*
X113549000Y-117244000D01*
X112993116Y-117244000D01*
X112977877Y-117248475D01*
X112976672Y-117249865D01*
X112975001Y-117257548D01*
X112975001Y-117366000D01*
X112954999Y-117434121D01*
X112901343Y-117480614D01*
X112849001Y-117492000D01*
X111134000Y-117492000D01*
X111065879Y-117471998D01*
X111019386Y-117418342D01*
X111008000Y-117366000D01*
X111008000Y-115528033D01*
X112100000Y-115528033D01*
X112100323Y-115534408D01*
X112113960Y-115668660D01*
X112116514Y-115681100D01*
X112170408Y-115853076D01*
X112175417Y-115864764D01*
X112262792Y-116022394D01*
X112270036Y-116032817D01*
X112387329Y-116169664D01*
X112396527Y-116178423D01*
X112538937Y-116288888D01*
X112549711Y-116295620D01*
X112711421Y-116375191D01*
X112723323Y-116379618D01*
X112882471Y-116421072D01*
X112896564Y-116420638D01*
X112900000Y-116412455D01*
X112900000Y-115501115D01*
X112895525Y-115485876D01*
X112894135Y-115484671D01*
X112886452Y-115483000D01*
X112118115Y-115483000D01*
X112102876Y-115487475D01*
X112101671Y-115488865D01*
X112100000Y-115496548D01*
X112100000Y-115528033D01*
X111008000Y-115528033D01*
X111008000Y-115164885D01*
X112100000Y-115164885D01*
X112104475Y-115180124D01*
X112105865Y-115181329D01*
X112113548Y-115183000D01*
X112881885Y-115183000D01*
X112897124Y-115178525D01*
X112898329Y-115177135D01*
X112900000Y-115169452D01*
X112900000Y-114262987D01*
X112896071Y-114249607D01*
X112881856Y-114247616D01*
X112818843Y-114257146D01*
X112806530Y-114260307D01*
X112637390Y-114322538D01*
X112625974Y-114328106D01*
X112472799Y-114423079D01*
X112462735Y-114430829D01*
X112331785Y-114554662D01*
X112323483Y-114564280D01*
X112220112Y-114711910D01*
X112213912Y-114723004D01*
X112142335Y-114888407D01*
X112138493Y-114900519D01*
X112101324Y-115078438D01*
X112100084Y-115087984D01*
X112100000Y-115091187D01*
X112100000Y-115164885D01*
X111008000Y-115164885D01*
X111008000Y-113639753D01*
X111028002Y-113571632D01*
X111081658Y-113525139D01*
X111151932Y-113515035D01*
X111189335Y-113526554D01*
X111193839Y-113528756D01*
X111212306Y-113534463D01*
X111266297Y-113542340D01*
X111275396Y-113543000D01*
X111923385Y-113543000D01*
X111938624Y-113538525D01*
X111939829Y-113537135D01*
X111941500Y-113529452D01*
X111941500Y-113524884D01*
X112241500Y-113524884D01*
X112245975Y-113540123D01*
X112247365Y-113541328D01*
X112255048Y-113542999D01*
X112907568Y-113542999D01*
X112916734Y-113542328D01*
X112971278Y-113534300D01*
X112989759Y-113528557D01*
X113076213Y-113486111D01*
X113092918Y-113474151D01*
X113160523Y-113406428D01*
X113172455Y-113389700D01*
X113214755Y-113303162D01*
X113220463Y-113284694D01*
X113228340Y-113230703D01*
X113229000Y-113221604D01*
X113229000Y-112436115D01*
X113224525Y-112420876D01*
X113223135Y-112419671D01*
X113215452Y-112418000D01*
X112259615Y-112418000D01*
X112244376Y-112422475D01*
X112243171Y-112423865D01*
X112241500Y-112431548D01*
X112241500Y-113524884D01*
X111941500Y-113524884D01*
X111941500Y-112099885D01*
X112241500Y-112099885D01*
X112245975Y-112115124D01*
X112247365Y-112116329D01*
X112255048Y-112118000D01*
X113210884Y-112118000D01*
X113226123Y-112113525D01*
X113227328Y-112112135D01*
X113228999Y-112104452D01*
X113228999Y-111314432D01*
X113228328Y-111305266D01*
X113220300Y-111250722D01*
X113214557Y-111232241D01*
X113172111Y-111145787D01*
X113160151Y-111129082D01*
X113092428Y-111061477D01*
X113075700Y-111049545D01*
X112989162Y-111007245D01*
X112970694Y-111001537D01*
X112916703Y-110993660D01*
X112907604Y-110993000D01*
X112259615Y-110993000D01*
X112244376Y-110997475D01*
X112243171Y-110998865D01*
X112241500Y-111006548D01*
X112241500Y-112099885D01*
X111941500Y-112099885D01*
X111941500Y-111011116D01*
X111937025Y-110995877D01*
X111935635Y-110994672D01*
X111927952Y-110993001D01*
X111275432Y-110993001D01*
X111266266Y-110993672D01*
X111211722Y-111001700D01*
X111193243Y-111007442D01*
X111189530Y-111009265D01*
X111184690Y-111010100D01*
X111183891Y-111010348D01*
X111183858Y-111010243D01*
X111119566Y-111021332D01*
X111054185Y-110993658D01*
X111014145Y-110935029D01*
X111008000Y-110896161D01*
X111008000Y-110616000D01*
X111028002Y-110547879D01*
X111081658Y-110501386D01*
X111134000Y-110490000D01*
X114174000Y-110490000D01*
X114242121Y-110510002D01*
G37*
%TD.AperFunction*%
%TD*%
M02*
