M48
; DRILL file {KiCad 6.0.1-79c1e3a40b~116~ubuntu21.10.1} date Tue 15 Mar 2022 08:57:24 PM MDT
; FORMAT={-:-/ absolute / metric / decimal}
; #@! TF.CreationDate,2022-03-15T20:57:24-06:00
; #@! TF.GenerationSoftware,Kicad,Pcbnew,6.0.1-79c1e3a40b~116~ubuntu21.10.1
; #@! TF.FileFunction,Plated,1,4,PTH
FMAT,2
METRIC
; #@! TA.AperFunction,Plated,PTH,ComponentDrill
T1C0.350
; #@! TA.AperFunction,Plated,PTH,ViaDrill
T2C0.400
; #@! TA.AperFunction,Plated,PTH,ComponentDrill
T3C0.900
; #@! TA.AperFunction,Plated,PTH,ComponentDrill
T4C0.950
; #@! TA.AperFunction,Plated,PTH,ComponentDrill
T5C1.000
; #@! TA.AperFunction,Plated,PTH,ComponentDrill
T6C1.500
; #@! TA.AperFunction,Plated,PTH,ComponentDrill
T7C2.700
%
G90
G05
T1
X119.946Y-91.356
X119.946Y-93.556
X120.746Y-91.356
X120.746Y-93.556
X122.116Y-90.806
X122.126Y-92.956
X123.076Y-90.806
X123.086Y-92.956
X124.036Y-90.786
X124.046Y-92.936
T2
X111.5Y-92.964
X111.5Y-94.488
X111.5Y-103.0
X111.5Y-105.5
X111.5Y-108.5
X111.5Y-113.75
X111.506Y-96.6
X112.014Y-100.584
X112.4Y-91.6
X112.6Y-88.6
X112.75Y-103.0
X112.75Y-113.75
X112.75Y-117.094
X112.87Y-95.0
X113.0Y-96.6
X113.284Y-100.584
X113.6Y-90.8
X113.6Y-92.8
X114.25Y-103.0
X114.6Y-95.0
X114.6Y-96.6
X114.808Y-100.584
X115.4Y-93.4
X115.5Y-107.95
X115.5Y-109.0
X115.6Y-86.0
X115.6Y-88.6
X115.75Y-103.0
X115.75Y-104.25
X115.75Y-105.5
X115.75Y-111.252
X115.75Y-113.25
X115.75Y-117.094
X116.078Y-90.17
X116.332Y-91.44
X117.856Y-88.392
X118.11Y-96.266
X118.8Y-89.8
X119.1Y-79.452
X119.1Y-80.976
X119.106Y-82.5
X119.106Y-83.77
X119.334Y-88.9
X119.38Y-96.266
X119.38Y-99.314
X119.5Y-113.5
X120.396Y-87.63
X120.6Y-80.976
X120.63Y-79.452
X120.63Y-82.5
X120.63Y-83.77
X120.75Y-113.538
X121.412Y-117.094
X121.92Y-86.106
X122.0Y-102.0
X122.1Y-79.488
X122.1Y-80.988
X122.936Y-96.266
X123.5Y-102.0
X123.75Y-113.5
X124.206Y-96.266
X125.222Y-87.884
X125.25Y-117.094
X126.0Y-113.5
X126.0Y-114.5
X126.5Y-92.5
X126.5Y-93.45
X126.5Y-99.0
X126.95Y-107.15
X127.5Y-99.0
X128.0Y-91.0
X128.0Y-92.45
X128.0Y-93.45
X128.27Y-100.584
X128.4Y-88.2
X128.6Y-95.0
X128.778Y-101.6
X128.778Y-110.744
X129.0Y-96.5
X129.286Y-100.584
X129.5Y-91.0
X129.5Y-92.35
X129.6Y-95.0
X129.794Y-101.6
X130.0Y-88.2
X130.302Y-100.584
X130.5Y-95.0
X130.5Y-96.5
X130.8Y-107.4
X130.81Y-109.728
X131.0Y-91.0
X131.318Y-110.49
X131.589Y-103.402
X131.6Y-88.2
X131.826Y-109.728
X132.381Y-104.144
X132.5Y-91.0
X132.5Y-93.0
X132.6Y-96.45
X132.675Y-99.55
X132.907Y-106.391
X133.012Y-107.46
X133.2Y-88.2
X133.594Y-101.81
X133.604Y-115.57
X133.85Y-78.2
X133.85Y-79.47
X133.85Y-80.74
X134.0Y-91.0
X134.0Y-93.0
X134.112Y-116.586
X134.287Y-108.627
X134.62Y-115.57
X134.8Y-88.2
X134.8Y-111.3
X134.925Y-97.275
X135.382Y-116.586
X135.4Y-108.4
X135.5Y-91.0
X135.5Y-93.0
X135.636Y-115.57
X135.745Y-102.437
X136.125Y-100.575
X136.4Y-108.4
X136.5Y-88.0
X136.5Y-89.5
X136.652Y-115.57
X136.652Y-116.586
X137.68Y-113.75
X137.8Y-94.625
X137.922Y-86.36
X137.922Y-115.57
X137.922Y-116.586
X137.934Y-112.734
X138.025Y-96.85
X138.3Y-101.85
X138.475Y-103.45
X138.95Y-112.734
X138.95Y-113.75
X139.192Y-86.36
X139.225Y-90.625
X139.3Y-116.6
X139.446Y-103.684
X140.049Y-91.525
X140.462Y-86.36
X141.732Y-86.36
X141.739Y-114.079
X141.75Y-99.5
X141.75Y-106.5
X141.75Y-108.75
X141.75Y-112.0
X141.8Y-87.8
X141.897Y-101.63
X141.897Y-103.88
X143.81Y-86.35
X144.3Y-92.674
X144.506Y-93.653
X144.866Y-91.522
X145.08Y-86.35
X146.2Y-89.25
X146.35Y-86.35
X146.525Y-96.3
X147.4Y-94.85
X147.62Y-86.35
X147.75Y-88.5
X149.25Y-86.25
X149.25Y-88.5
X149.25Y-94.85
X149.352Y-96.266
T3
X126.285Y-85.6
X131.365Y-85.6
X134.635Y-83.1
X139.715Y-83.1
T4
X147.629Y-99.961
X147.629Y-102.461
X147.629Y-104.961
X147.629Y-107.461
X147.629Y-109.961
X147.629Y-112.461
X147.629Y-114.961
T5
X148.325Y-90.525
X148.325Y-93.025
T6
X113.05Y-115.333
X113.521Y-105.43
X113.521Y-107.93
X115.55Y-115.333
X121.6Y-115.275
X124.1Y-115.275
X127.15Y-79.775
X129.65Y-79.775
X137.454Y-80.01
X139.954Y-80.01
T7
X115.062Y-82.423
X130.048Y-114.046
X146.05Y-82.423
T0
M30
