%TF.GenerationSoftware,KiCad,Pcbnew,6.0.1-79c1e3a40b~116~ubuntu21.10.1*%
%TF.CreationDate,2022-03-15T20:57:30-06:00*%
%TF.ProjectId,PowerBackup,506f7765-7242-4616-936b-75702e6b6963,rev?*%
%TF.SameCoordinates,Original*%
%TF.FileFunction,Copper,L3,Inr*%
%TF.FilePolarity,Positive*%
%FSLAX46Y46*%
G04 Gerber Fmt 4.6, Leading zero omitted, Abs format (unit mm)*
G04 Created by KiCad (PCBNEW 6.0.1-79c1e3a40b~116~ubuntu21.10.1) date 2022-03-15 20:57:30*
%MOMM*%
%LPD*%
G01*
G04 APERTURE LIST*
G04 Aperture macros list*
%AMRoundRect*
0 Rectangle with rounded corners*
0 $1 Rounding radius*
0 $2 $3 $4 $5 $6 $7 $8 $9 X,Y pos of 4 corners*
0 Add a 4 corners polygon primitive as box body*
4,1,4,$2,$3,$4,$5,$6,$7,$8,$9,$2,$3,0*
0 Add four circle primitives for the rounded corners*
1,1,$1+$1,$2,$3*
1,1,$1+$1,$4,$5*
1,1,$1+$1,$6,$7*
1,1,$1+$1,$8,$9*
0 Add four rect primitives between the rounded corners*
20,1,$1+$1,$2,$3,$4,$5,0*
20,1,$1+$1,$4,$5,$6,$7,0*
20,1,$1+$1,$6,$7,$8,$9,0*
20,1,$1+$1,$8,$9,$2,$3,0*%
G04 Aperture macros list end*
%TA.AperFunction,ComponentPad*%
%ADD10R,1.800000X1.800000*%
%TD*%
%TA.AperFunction,ComponentPad*%
%ADD11O,1.800000X1.800000*%
%TD*%
%TA.AperFunction,ComponentPad*%
%ADD12RoundRect,0.250000X0.750000X-0.600000X0.750000X0.600000X-0.750000X0.600000X-0.750000X-0.600000X0*%
%TD*%
%TA.AperFunction,ComponentPad*%
%ADD13O,2.000000X1.700000*%
%TD*%
%TA.AperFunction,ComponentPad*%
%ADD14C,0.700000*%
%TD*%
%TA.AperFunction,ComponentPad*%
%ADD15RoundRect,0.250000X0.600000X0.750000X-0.600000X0.750000X-0.600000X-0.750000X0.600000X-0.750000X0*%
%TD*%
%TA.AperFunction,ComponentPad*%
%ADD16O,1.700000X2.000000*%
%TD*%
%TA.AperFunction,ComponentPad*%
%ADD17RoundRect,0.250000X-0.725000X0.600000X-0.725000X-0.600000X0.725000X-0.600000X0.725000X0.600000X0*%
%TD*%
%TA.AperFunction,ComponentPad*%
%ADD18O,1.950000X1.700000*%
%TD*%
%TA.AperFunction,ComponentPad*%
%ADD19C,5.400000*%
%TD*%
%TA.AperFunction,ComponentPad*%
%ADD20RoundRect,0.250000X-0.600000X-0.750000X0.600000X-0.750000X0.600000X0.750000X-0.600000X0.750000X0*%
%TD*%
%TA.AperFunction,ViaPad*%
%ADD21C,0.800000*%
%TD*%
G04 APERTURE END LIST*
D10*
%TO.N,+9VA*%
%TO.C,D1*%
X134635000Y-83100000D03*
D11*
%TO.N,+9V*%
X139715000Y-83100000D03*
%TD*%
D12*
%TO.N,Net-(J5-Pad4)*%
%TO.C,J6*%
X148325000Y-93025000D03*
D13*
%TO.N,Net-(J5-Pad3)*%
X148325000Y-90525000D03*
%TD*%
D12*
%TO.N,+5V*%
%TO.C,J8*%
X113521000Y-107930000D03*
D13*
%TO.N,GND*%
X113521000Y-105430000D03*
%TD*%
D14*
%TO.N,GND*%
%TO.C,U2*%
X119946000Y-93556000D03*
X119946000Y-91356000D03*
X120746000Y-91356000D03*
X120746000Y-93556000D03*
%TO.N,/Backup/SW*%
X122126000Y-92956000D03*
X123086000Y-92956000D03*
X124046000Y-92936000D03*
%TO.N,+9VA*%
X122116000Y-90806000D03*
X123076000Y-90806000D03*
X124036000Y-90786000D03*
%TD*%
D10*
%TO.N,+9VA*%
%TO.C,D2*%
X131365000Y-85600000D03*
D11*
%TO.N,/Backup/VBAT*%
X126285000Y-85600000D03*
%TD*%
D15*
%TO.N,+5V*%
%TO.C,J9*%
X124100000Y-115275000D03*
D16*
%TO.N,GND*%
X121600000Y-115275000D03*
%TD*%
D17*
%TO.N,Net-(J2-Pad1)*%
%TO.C,J2*%
X147628764Y-99960836D03*
D18*
%TO.N,Net-(J2-Pad2)*%
X147628764Y-102460836D03*
%TO.N,Net-(J2-Pad3)*%
X147628764Y-104960836D03*
%TO.N,Net-(J2-Pad4)*%
X147628764Y-107460836D03*
%TO.N,Net-(J2-Pad5)*%
X147628764Y-109960836D03*
%TO.N,Net-(J2-Pad6)*%
X147628764Y-112460836D03*
%TO.N,GND*%
X147628764Y-114960836D03*
%TD*%
D19*
%TO.N,GND*%
%TO.C,H3*%
X130048000Y-114046000D03*
%TD*%
%TO.N,GND*%
%TO.C,H1*%
X115062000Y-82423000D03*
%TD*%
D20*
%TO.N,/Backup/VBAT*%
%TO.C,J7*%
X127150000Y-79775000D03*
D16*
%TO.N,GND*%
X129650000Y-79775000D03*
%TD*%
D19*
%TO.N,GND*%
%TO.C,H2*%
X146050000Y-82423000D03*
%TD*%
D15*
%TO.N,+5V*%
%TO.C,J10*%
X115550000Y-115333000D03*
D16*
%TO.N,GND*%
X113050000Y-115333000D03*
%TD*%
D15*
%TO.N,+9V*%
%TO.C,J1*%
X139954000Y-80010000D03*
D16*
%TO.N,GND*%
X137454000Y-80010000D03*
%TD*%
D21*
%TO.N,Net-(C1-Pad1)*%
X141738997Y-114079341D03*
%TO.N,GND*%
X120600000Y-80976000D03*
X131826000Y-109728000D03*
X145080000Y-86350000D03*
X149250000Y-88500000D03*
X111500000Y-103000000D03*
X146200000Y-89250000D03*
X113000000Y-96600000D03*
X138950000Y-112734000D03*
X137922000Y-116586000D03*
X121412000Y-117094000D03*
X136400000Y-108400000D03*
X146525000Y-96300000D03*
X137922000Y-115570000D03*
X149250000Y-86250000D03*
X115750000Y-103000000D03*
X136652000Y-115570000D03*
X133604000Y-115570000D03*
X133850000Y-78200000D03*
X119100000Y-80976000D03*
X137800000Y-94625000D03*
X122100000Y-79488000D03*
X129600000Y-95000000D03*
X139300000Y-116600000D03*
X132600000Y-96450000D03*
X140462000Y-86360000D03*
X136500000Y-88000000D03*
X111500000Y-94488000D03*
X115750000Y-105500000D03*
X133850000Y-79470000D03*
X116078000Y-90170000D03*
X129000000Y-96500000D03*
X113600000Y-92800000D03*
X125250000Y-117094000D03*
X130500000Y-96500000D03*
X131318000Y-110490000D03*
X137934000Y-112734000D03*
X115600000Y-88600000D03*
X115600000Y-86000000D03*
X111500000Y-105500000D03*
X143810000Y-86350000D03*
X111500000Y-113750000D03*
X112750000Y-103000000D03*
X122100000Y-80988000D03*
X134112000Y-116586000D03*
X118800000Y-89800000D03*
X139192000Y-86360000D03*
X120630000Y-83770000D03*
X141800000Y-87800000D03*
X119106000Y-83770000D03*
X120630000Y-82500000D03*
X137922000Y-86360000D03*
X114250000Y-103000000D03*
X120630000Y-79452000D03*
X133850000Y-80740000D03*
X111506000Y-96600000D03*
X115750000Y-104250000D03*
X120750000Y-113538000D03*
X135382000Y-116586000D03*
X135636000Y-115570000D03*
X119106000Y-82500000D03*
X128778000Y-110744000D03*
X119500000Y-113500000D03*
X114600000Y-95000000D03*
X115400000Y-93400000D03*
X136500000Y-89500000D03*
X112869917Y-95000000D03*
X138950000Y-113750000D03*
X112750000Y-117094000D03*
X147400000Y-94850000D03*
X112750000Y-113750000D03*
X134620000Y-115570000D03*
X119100000Y-79452000D03*
X137680000Y-113750000D03*
X122936000Y-96266000D03*
X130810000Y-109728000D03*
X136652000Y-116586000D03*
X141732000Y-86360000D03*
X114600000Y-96600000D03*
X130500000Y-95000000D03*
X147750000Y-88500000D03*
X120396000Y-87630000D03*
X124206000Y-96266000D03*
X147620000Y-86350000D03*
X111500000Y-92964000D03*
X146350000Y-86350000D03*
X149250000Y-94850000D03*
X112600000Y-88600000D03*
X134800000Y-111300000D03*
X128600000Y-95000000D03*
X149352000Y-96266000D03*
%TO.N,Net-(C2-Pad1)*%
X141750000Y-112000000D03*
%TO.N,Net-(C3-Pad1)*%
X141750000Y-108750000D03*
%TO.N,Net-(C4-Pad1)*%
X141750000Y-106500000D03*
%TO.N,Net-(C5-Pad1)*%
X141897152Y-103880011D03*
%TO.N,Net-(C6-Pad1)*%
X141897152Y-101630011D03*
%TO.N,Net-(C7-Pad1)*%
X141750000Y-99500000D03*
%TO.N,Net-(C8-Pad1)*%
X139446462Y-103683512D03*
%TO.N,+3V3*%
X136125000Y-100575000D03*
X138025000Y-96850000D03*
X135745393Y-102436653D03*
X144865900Y-91522347D03*
%TO.N,Net-(J4-Pad1)*%
X132381364Y-104144093D03*
%TO.N,Net-(J4-Pad2)*%
X126950000Y-107150000D03*
%TO.N,Net-(J4-Pad3)*%
X132906963Y-106390769D03*
%TO.N,Net-(J4-Pad4)*%
X133011743Y-107459994D03*
%TO.N,Net-(J4-Pad5)*%
X130800000Y-107400000D03*
%TO.N,Net-(J5-Pad4)*%
X144505804Y-93652585D03*
%TO.N,Net-(J5-Pad3)*%
X144300000Y-92674500D03*
%TO.N,Net-(Q1-Pad1)*%
X138474500Y-103450500D03*
X138300000Y-101850000D03*
X134925000Y-97275000D03*
%TO.N,Net-(R9-Pad1)*%
X135400000Y-108400000D03*
%TO.N,Net-(R12-Pad1)*%
X134286731Y-108626703D03*
%TO.N,/PrimaryBatteryMonitoring/SDA*%
X140049500Y-91525000D03*
X132675000Y-99550000D03*
X131589202Y-103401963D03*
%TO.N,/PrimaryBatteryMonitoring/SCL*%
X133593956Y-101810318D03*
X139225000Y-90625000D03*
%TO.N,+9VA*%
X134800000Y-88200000D03*
X133200000Y-88200000D03*
X131600000Y-88200000D03*
X130000000Y-88200000D03*
X128400000Y-88200000D03*
%TO.N,Net-(C13-Pad1)*%
X125222000Y-87884000D03*
%TO.N,+5V*%
X115750000Y-111252000D03*
X112014000Y-100584000D03*
X111500000Y-108500000D03*
X126000000Y-114500000D03*
X115500000Y-107950000D03*
X122000000Y-102000000D03*
X130302000Y-100584000D03*
X123750000Y-113500000D03*
X128778000Y-101600000D03*
X115500000Y-109000000D03*
X126500000Y-99000000D03*
X128270000Y-100584000D03*
X126000000Y-113500000D03*
X115750000Y-117094000D03*
X129286000Y-100584000D03*
X115750000Y-113250000D03*
X129794000Y-101600000D03*
X114808000Y-100584000D03*
X123500000Y-102000000D03*
X127500000Y-99000000D03*
X113284000Y-100584000D03*
%TO.N,Net-(C15-Pad2)*%
X116332000Y-91440000D03*
X119380000Y-99314000D03*
%TO.N,Net-(R19-Pad2)*%
X113600000Y-90800000D03*
X121920000Y-86106000D03*
%TO.N,/Backup/SW*%
X132500000Y-93000000D03*
X119333510Y-88900239D03*
X126500000Y-93450000D03*
X129500000Y-91000000D03*
X134000000Y-91000000D03*
X135500000Y-93000000D03*
X128000000Y-91000000D03*
X128000000Y-93450000D03*
X135500000Y-91000000D03*
X129500000Y-92350000D03*
X128000000Y-92450000D03*
X126500000Y-92500000D03*
X132500000Y-91000000D03*
X131000000Y-91000000D03*
X134000000Y-93000000D03*
%TO.N,/Backup/PVDD*%
X119380000Y-96266000D03*
X117856000Y-88392000D03*
X118110000Y-96266000D03*
%TO.N,Net-(C25-Pad1)*%
X112400000Y-91600000D03*
%TD*%
%TA.AperFunction,Conductor*%
%TO.N,GND*%
G36*
X149934121Y-77528002D02*
G01*
X149980614Y-77581658D01*
X149992000Y-77634000D01*
X149992000Y-90005648D01*
X149971998Y-90073769D01*
X149918342Y-90120262D01*
X149848068Y-90130366D01*
X149783488Y-90100872D01*
X149748808Y-90051930D01*
X149743474Y-90038422D01*
X149708967Y-89951045D01*
X149698185Y-89923744D01*
X149698184Y-89923742D01*
X149696224Y-89918779D01*
X149628618Y-89807367D01*
X149579390Y-89726243D01*
X149576623Y-89721683D01*
X149572125Y-89716500D01*
X149429023Y-89551588D01*
X149429021Y-89551586D01*
X149425523Y-89547555D01*
X149383970Y-89513484D01*
X149251373Y-89404760D01*
X149251367Y-89404756D01*
X149247245Y-89401376D01*
X149242609Y-89398737D01*
X149242606Y-89398735D01*
X149051529Y-89289968D01*
X149046886Y-89287325D01*
X148830175Y-89208663D01*
X148824926Y-89207714D01*
X148824923Y-89207713D01*
X148607392Y-89168377D01*
X148607385Y-89168376D01*
X148603308Y-89167639D01*
X148585586Y-89166803D01*
X148580644Y-89166570D01*
X148580637Y-89166570D01*
X148579156Y-89166500D01*
X148117110Y-89166500D01*
X148050191Y-89172178D01*
X147950591Y-89180629D01*
X147950587Y-89180630D01*
X147945280Y-89181080D01*
X147940125Y-89182418D01*
X147940119Y-89182419D01*
X147727297Y-89237657D01*
X147727293Y-89237658D01*
X147722128Y-89238999D01*
X147717262Y-89241191D01*
X147717259Y-89241192D01*
X147608980Y-89289968D01*
X147511925Y-89333688D01*
X147320681Y-89462441D01*
X147153865Y-89621576D01*
X147016246Y-89806542D01*
X147013830Y-89811293D01*
X147013828Y-89811297D01*
X147000372Y-89837763D01*
X146911760Y-90012051D01*
X146910178Y-90017145D01*
X146910177Y-90017148D01*
X146875187Y-90129834D01*
X146843393Y-90232227D01*
X146842692Y-90237516D01*
X146815639Y-90441635D01*
X146813102Y-90460774D01*
X146813302Y-90466103D01*
X146813302Y-90466105D01*
X146814551Y-90499372D01*
X146821751Y-90691158D01*
X146869093Y-90916791D01*
X146871051Y-90921750D01*
X146871052Y-90921752D01*
X146924435Y-91056924D01*
X146953776Y-91131221D01*
X146956543Y-91135780D01*
X146956544Y-91135783D01*
X146963788Y-91147721D01*
X147073377Y-91328317D01*
X147076874Y-91332347D01*
X147207386Y-91482749D01*
X147224477Y-91502445D01*
X147260120Y-91531670D01*
X147300114Y-91590329D01*
X147302046Y-91661299D01*
X147265302Y-91722048D01*
X147246532Y-91736248D01*
X147134993Y-91805271D01*
X147100652Y-91826522D01*
X146975695Y-91951697D01*
X146971855Y-91957927D01*
X146971854Y-91957928D01*
X146890741Y-92089518D01*
X146882885Y-92102262D01*
X146872475Y-92133648D01*
X146836014Y-92243576D01*
X146827203Y-92270139D01*
X146826503Y-92276975D01*
X146826502Y-92276978D01*
X146823242Y-92308794D01*
X146816500Y-92374600D01*
X146816500Y-93675400D01*
X146816837Y-93678646D01*
X146816837Y-93678650D01*
X146824965Y-93756980D01*
X146827474Y-93781166D01*
X146829655Y-93787702D01*
X146829655Y-93787704D01*
X146855813Y-93866109D01*
X146883450Y-93948946D01*
X146976522Y-94099348D01*
X147101697Y-94224305D01*
X147107927Y-94228145D01*
X147107928Y-94228146D01*
X147245090Y-94312694D01*
X147252262Y-94317115D01*
X147280678Y-94326540D01*
X147413611Y-94370632D01*
X147413613Y-94370632D01*
X147420139Y-94372797D01*
X147426975Y-94373497D01*
X147426978Y-94373498D01*
X147469681Y-94377873D01*
X147524600Y-94383500D01*
X149125400Y-94383500D01*
X149128646Y-94383163D01*
X149128650Y-94383163D01*
X149224308Y-94373238D01*
X149224312Y-94373237D01*
X149231166Y-94372526D01*
X149237702Y-94370345D01*
X149237704Y-94370345D01*
X149386267Y-94320780D01*
X149398946Y-94316550D01*
X149549348Y-94223478D01*
X149674305Y-94098303D01*
X149678146Y-94092072D01*
X149758740Y-93961325D01*
X149811513Y-93913832D01*
X149881584Y-93902408D01*
X149946708Y-93930682D01*
X149986207Y-93989676D01*
X149992000Y-94027441D01*
X149992000Y-117366000D01*
X149971998Y-117434121D01*
X149918342Y-117480614D01*
X149866000Y-117492000D01*
X130387945Y-117492000D01*
X130319824Y-117471998D01*
X130273331Y-117418342D01*
X130263227Y-117348068D01*
X130292721Y-117283488D01*
X130352447Y-117245104D01*
X130369539Y-117241352D01*
X130690582Y-117193945D01*
X130697481Y-117192529D01*
X131037498Y-117102693D01*
X131044158Y-117100529D01*
X131372047Y-116973349D01*
X131378446Y-116970446D01*
X131690099Y-116807517D01*
X131696144Y-116803914D01*
X131987694Y-116607261D01*
X131993288Y-116603015D01*
X132115910Y-116498656D01*
X132124342Y-116485788D01*
X132118313Y-116475523D01*
X130060812Y-114418022D01*
X130046868Y-114410408D01*
X130045035Y-114410539D01*
X130038420Y-114414790D01*
X127977213Y-116475997D01*
X127969599Y-116489941D01*
X127969637Y-116490486D01*
X127975240Y-116498846D01*
X127997336Y-116519306D01*
X128002759Y-116523793D01*
X128285811Y-116732478D01*
X128291701Y-116736332D01*
X128596258Y-116912167D01*
X128602527Y-116915334D01*
X128924798Y-117056132D01*
X128931381Y-117058580D01*
X129267332Y-117162574D01*
X129274147Y-117164273D01*
X129619588Y-117230169D01*
X129626565Y-117231100D01*
X129747051Y-117240371D01*
X129813437Y-117265541D01*
X129855676Y-117322605D01*
X129860359Y-117393447D01*
X129825999Y-117455575D01*
X129763504Y-117489263D01*
X129737385Y-117492000D01*
X116749359Y-117492000D01*
X116681238Y-117471998D01*
X116634745Y-117418342D01*
X116624641Y-117348068D01*
X116629526Y-117327063D01*
X116641503Y-117290203D01*
X116643542Y-117283928D01*
X116649095Y-117231100D01*
X116662814Y-117100565D01*
X116663504Y-117094000D01*
X116650518Y-116970446D01*
X116644232Y-116910635D01*
X116644232Y-116910633D01*
X116643542Y-116904072D01*
X116608100Y-116794993D01*
X116606072Y-116724028D01*
X116638760Y-116667041D01*
X116744134Y-116561483D01*
X116749305Y-116556303D01*
X116770006Y-116522720D01*
X116838275Y-116411968D01*
X116838276Y-116411966D01*
X116842115Y-116405738D01*
X116878014Y-116297504D01*
X116895632Y-116244389D01*
X116895632Y-116244387D01*
X116897797Y-116237861D01*
X116908500Y-116133400D01*
X116908500Y-115545193D01*
X120247289Y-115545193D01*
X120256124Y-115649325D01*
X120257914Y-115659797D01*
X120313130Y-115872535D01*
X120316665Y-115882575D01*
X120406937Y-116082970D01*
X120412106Y-116092256D01*
X120534850Y-116274575D01*
X120541519Y-116282870D01*
X120693228Y-116441900D01*
X120701186Y-116448941D01*
X120877525Y-116580141D01*
X120886562Y-116585745D01*
X121082484Y-116685357D01*
X121092335Y-116689357D01*
X121302240Y-116754534D01*
X121312624Y-116756817D01*
X121328043Y-116758861D01*
X121342207Y-116756665D01*
X121346000Y-116743478D01*
X121346000Y-116741192D01*
X121854000Y-116741192D01*
X121857973Y-116754723D01*
X121868580Y-116756248D01*
X121986421Y-116731523D01*
X121996617Y-116728463D01*
X122201029Y-116647737D01*
X122210561Y-116643006D01*
X122398462Y-116528984D01*
X122407052Y-116522720D01*
X122573052Y-116378673D01*
X122580470Y-116371044D01*
X122606391Y-116339431D01*
X122665051Y-116299436D01*
X122736021Y-116297504D01*
X122796770Y-116334248D01*
X122810969Y-116353017D01*
X122901522Y-116499348D01*
X123026697Y-116624305D01*
X123032927Y-116628145D01*
X123032928Y-116628146D01*
X123170090Y-116712694D01*
X123177262Y-116717115D01*
X123235200Y-116736332D01*
X123338611Y-116770632D01*
X123338613Y-116770632D01*
X123345139Y-116772797D01*
X123351975Y-116773497D01*
X123351978Y-116773498D01*
X123395031Y-116777909D01*
X123449600Y-116783500D01*
X124750400Y-116783500D01*
X124753646Y-116783163D01*
X124753650Y-116783163D01*
X124849308Y-116773238D01*
X124849312Y-116773237D01*
X124856166Y-116772526D01*
X124862702Y-116770345D01*
X124862704Y-116770345D01*
X125006280Y-116722444D01*
X125023946Y-116716550D01*
X125174348Y-116623478D01*
X125299305Y-116498303D01*
X125303146Y-116492072D01*
X125388275Y-116353968D01*
X125388276Y-116353966D01*
X125392115Y-116347738D01*
X125426394Y-116244389D01*
X125445632Y-116186389D01*
X125445632Y-116186387D01*
X125447797Y-116179861D01*
X125458500Y-116075400D01*
X125458500Y-115447409D01*
X125478502Y-115379288D01*
X125532158Y-115332795D01*
X125602432Y-115322691D01*
X125635748Y-115332302D01*
X125711677Y-115366108D01*
X125711685Y-115366111D01*
X125717712Y-115368794D01*
X125811112Y-115388647D01*
X125898056Y-115407128D01*
X125898061Y-115407128D01*
X125904513Y-115408500D01*
X126095487Y-115408500D01*
X126101939Y-115407128D01*
X126101944Y-115407128D01*
X126188888Y-115388647D01*
X126282288Y-115368794D01*
X126288321Y-115366108D01*
X126450722Y-115293803D01*
X126450724Y-115293802D01*
X126456752Y-115291118D01*
X126611253Y-115178866D01*
X126739040Y-115036944D01*
X126760312Y-115000100D01*
X126811693Y-114951108D01*
X126881406Y-114937671D01*
X126947317Y-114964058D01*
X126988500Y-115021890D01*
X126991022Y-115030065D01*
X126998288Y-115056807D01*
X127000502Y-115063463D01*
X127129970Y-115390462D01*
X127132909Y-115396823D01*
X127298019Y-115707347D01*
X127301653Y-115713348D01*
X127500339Y-116003523D01*
X127504633Y-116009098D01*
X127595208Y-116114030D01*
X127608251Y-116122447D01*
X127618282Y-116116508D01*
X129675978Y-114058812D01*
X129682356Y-114047132D01*
X130412408Y-114047132D01*
X130412539Y-114048965D01*
X130416790Y-114055580D01*
X132478699Y-116117489D01*
X132492643Y-116125103D01*
X132493423Y-116125048D01*
X132501470Y-116119696D01*
X132506932Y-116113880D01*
X132511454Y-116108491D01*
X132722113Y-115826896D01*
X132726003Y-115821042D01*
X132903962Y-115517719D01*
X132907176Y-115511465D01*
X133032752Y-115229416D01*
X146172516Y-115229416D01*
X146197241Y-115347257D01*
X146200301Y-115357453D01*
X146281027Y-115561865D01*
X146285758Y-115571397D01*
X146399780Y-115759298D01*
X146406044Y-115767888D01*
X146550091Y-115933888D01*
X146557722Y-115941308D01*
X146727675Y-116080662D01*
X146736442Y-116086686D01*
X146927446Y-116195412D01*
X146937110Y-116199877D01*
X147143705Y-116274867D01*
X147153972Y-116277638D01*
X147356938Y-116314340D01*
X147370178Y-116312921D01*
X147374764Y-116298286D01*
X147374764Y-116294685D01*
X147882764Y-116294685D01*
X147887074Y-116309363D01*
X147898957Y-116311426D01*
X147978089Y-116304712D01*
X147988561Y-116302922D01*
X148201299Y-116247706D01*
X148211339Y-116244171D01*
X148411734Y-116153899D01*
X148421020Y-116148730D01*
X148603339Y-116025986D01*
X148611634Y-116019317D01*
X148770664Y-115867608D01*
X148777705Y-115859650D01*
X148908905Y-115683311D01*
X148914509Y-115674274D01*
X149014121Y-115478352D01*
X149018121Y-115468501D01*
X149083298Y-115258596D01*
X149085581Y-115248212D01*
X149087625Y-115232793D01*
X149085429Y-115218629D01*
X149072242Y-115214836D01*
X147900879Y-115214836D01*
X147885640Y-115219311D01*
X147884435Y-115220701D01*
X147882764Y-115228384D01*
X147882764Y-116294685D01*
X147374764Y-116294685D01*
X147374764Y-115232951D01*
X147370289Y-115217712D01*
X147368899Y-115216507D01*
X147361216Y-115214836D01*
X146187572Y-115214836D01*
X146174041Y-115218809D01*
X146172516Y-115229416D01*
X133032752Y-115229416D01*
X133050214Y-115190195D01*
X133052711Y-115183620D01*
X133159048Y-114848405D01*
X133160794Y-114841603D01*
X133229100Y-114496635D01*
X133230081Y-114489654D01*
X133259619Y-114137898D01*
X133259833Y-114133529D01*
X133260590Y-114079341D01*
X140825493Y-114079341D01*
X140826183Y-114085906D01*
X140844134Y-114256697D01*
X140845455Y-114269269D01*
X140904470Y-114450897D01*
X140999957Y-114616285D01*
X141004375Y-114621192D01*
X141004376Y-114621193D01*
X141077912Y-114702863D01*
X141127744Y-114758207D01*
X141282245Y-114870459D01*
X141288273Y-114873143D01*
X141288275Y-114873144D01*
X141433206Y-114937671D01*
X141456709Y-114948135D01*
X141550109Y-114967988D01*
X141637053Y-114986469D01*
X141637058Y-114986469D01*
X141643510Y-114987841D01*
X141834484Y-114987841D01*
X141840936Y-114986469D01*
X141840941Y-114986469D01*
X141927885Y-114967988D01*
X142021285Y-114948135D01*
X142044788Y-114937671D01*
X142189719Y-114873144D01*
X142189721Y-114873143D01*
X142195749Y-114870459D01*
X142350250Y-114758207D01*
X142400082Y-114702863D01*
X142473618Y-114621193D01*
X142473619Y-114621192D01*
X142478037Y-114616285D01*
X142573524Y-114450897D01*
X142632539Y-114269269D01*
X142633861Y-114256697D01*
X142651811Y-114085906D01*
X142652501Y-114079341D01*
X142648857Y-114044673D01*
X142633229Y-113895976D01*
X142633229Y-113895974D01*
X142632539Y-113889413D01*
X142573524Y-113707785D01*
X142564037Y-113691352D01*
X142527042Y-113627276D01*
X142478037Y-113542397D01*
X142433952Y-113493435D01*
X142354672Y-113405386D01*
X142354671Y-113405385D01*
X142350250Y-113400475D01*
X142234855Y-113316635D01*
X142201091Y-113292104D01*
X142201090Y-113292103D01*
X142195749Y-113288223D01*
X142189721Y-113285539D01*
X142189719Y-113285538D01*
X142027316Y-113213232D01*
X142027315Y-113213232D01*
X142021285Y-113210547D01*
X141927884Y-113190694D01*
X141840941Y-113172213D01*
X141840936Y-113172213D01*
X141834484Y-113170841D01*
X141643510Y-113170841D01*
X141637058Y-113172213D01*
X141637053Y-113172213D01*
X141550109Y-113190694D01*
X141456709Y-113210547D01*
X141450679Y-113213232D01*
X141450678Y-113213232D01*
X141288275Y-113285538D01*
X141288273Y-113285539D01*
X141282245Y-113288223D01*
X141276904Y-113292103D01*
X141276903Y-113292104D01*
X141243139Y-113316635D01*
X141127744Y-113400475D01*
X141123323Y-113405385D01*
X141123322Y-113405386D01*
X141044043Y-113493435D01*
X140999957Y-113542397D01*
X140950952Y-113627276D01*
X140913958Y-113691352D01*
X140904470Y-113707785D01*
X140845455Y-113889413D01*
X140844765Y-113895974D01*
X140844765Y-113895976D01*
X140829137Y-114044673D01*
X140825493Y-114079341D01*
X133260590Y-114079341D01*
X133261025Y-114048178D01*
X133260934Y-114043828D01*
X133241227Y-113691352D01*
X133240445Y-113684380D01*
X133181794Y-113337612D01*
X133180241Y-113330776D01*
X133083300Y-112992704D01*
X133080997Y-112986091D01*
X132946976Y-112660930D01*
X132943947Y-112654610D01*
X132774521Y-112346424D01*
X132770795Y-112340462D01*
X132568076Y-112053090D01*
X132563715Y-112047588D01*
X132521464Y-112000000D01*
X140836496Y-112000000D01*
X140837186Y-112006565D01*
X140848910Y-112118109D01*
X140856458Y-112189928D01*
X140915473Y-112371556D01*
X140918776Y-112377278D01*
X140918777Y-112377279D01*
X140926887Y-112391325D01*
X141010960Y-112536944D01*
X141015378Y-112541851D01*
X141015379Y-112541852D01*
X141060082Y-112591500D01*
X141138747Y-112678866D01*
X141293248Y-112791118D01*
X141299276Y-112793802D01*
X141299278Y-112793803D01*
X141461681Y-112866109D01*
X141467712Y-112868794D01*
X141542680Y-112884729D01*
X141648056Y-112907128D01*
X141648061Y-112907128D01*
X141654513Y-112908500D01*
X141845487Y-112908500D01*
X141851939Y-112907128D01*
X141851944Y-112907128D01*
X141957320Y-112884729D01*
X142032288Y-112868794D01*
X142038319Y-112866109D01*
X142200722Y-112793803D01*
X142200724Y-112793802D01*
X142206752Y-112791118D01*
X142361253Y-112678866D01*
X142439918Y-112591500D01*
X142484621Y-112541852D01*
X142484622Y-112541851D01*
X142489040Y-112536944D01*
X142570062Y-112396610D01*
X146141866Y-112396610D01*
X146150515Y-112626994D01*
X146197857Y-112852627D01*
X146199815Y-112857586D01*
X146199816Y-112857588D01*
X146239530Y-112958148D01*
X146282540Y-113067057D01*
X146285307Y-113071616D01*
X146285308Y-113071619D01*
X146323604Y-113134729D01*
X146402141Y-113264153D01*
X146405638Y-113268183D01*
X146520435Y-113400475D01*
X146553241Y-113438281D01*
X146557372Y-113441668D01*
X146727391Y-113581076D01*
X146727397Y-113581080D01*
X146731519Y-113584460D01*
X146736162Y-113587103D01*
X146763499Y-113602665D01*
X146812805Y-113653748D01*
X146826666Y-113723378D01*
X146800682Y-113789449D01*
X146771532Y-113816687D01*
X146654186Y-113895688D01*
X146645894Y-113902355D01*
X146486864Y-114054064D01*
X146479823Y-114062022D01*
X146348623Y-114238361D01*
X146343019Y-114247398D01*
X146243407Y-114443320D01*
X146239407Y-114453171D01*
X146174230Y-114663076D01*
X146171947Y-114673460D01*
X146169903Y-114688879D01*
X146172099Y-114703043D01*
X146185286Y-114706836D01*
X149069956Y-114706836D01*
X149083487Y-114702863D01*
X149085012Y-114692256D01*
X149060287Y-114574415D01*
X149057227Y-114564219D01*
X148976501Y-114359807D01*
X148971770Y-114350275D01*
X148857748Y-114162374D01*
X148851484Y-114153784D01*
X148707437Y-113987784D01*
X148699806Y-113980364D01*
X148529853Y-113841010D01*
X148521090Y-113834988D01*
X148494053Y-113819598D01*
X148444746Y-113768516D01*
X148430884Y-113698885D01*
X148456867Y-113632814D01*
X148486017Y-113605575D01*
X148587148Y-113537489D01*
X148608083Y-113523395D01*
X148625726Y-113506565D01*
X148771042Y-113367939D01*
X148774899Y-113364260D01*
X148912518Y-113179294D01*
X148916119Y-113172213D01*
X149014586Y-112978540D01*
X149017004Y-112973785D01*
X149020336Y-112963056D01*
X149083788Y-112758707D01*
X149085371Y-112753609D01*
X149095928Y-112673955D01*
X149114962Y-112530347D01*
X149114962Y-112530342D01*
X149115662Y-112525062D01*
X149113178Y-112458882D01*
X149107213Y-112300009D01*
X149107013Y-112294678D01*
X149059671Y-112069045D01*
X149037401Y-112012654D01*
X148976949Y-111859580D01*
X148976948Y-111859578D01*
X148974988Y-111854615D01*
X148855387Y-111657519D01*
X148820462Y-111617271D01*
X148707787Y-111487424D01*
X148707785Y-111487422D01*
X148704287Y-111483391D01*
X148645715Y-111435365D01*
X148530137Y-111340596D01*
X148530131Y-111340592D01*
X148526009Y-111337212D01*
X148494514Y-111319284D01*
X148445209Y-111268204D01*
X148431347Y-111198574D01*
X148457330Y-111132503D01*
X148486480Y-111105263D01*
X148522406Y-111081076D01*
X148608083Y-111023395D01*
X148629026Y-111003417D01*
X148751345Y-110886729D01*
X148774899Y-110864260D01*
X148912518Y-110679294D01*
X149017004Y-110473785D01*
X149019806Y-110464763D01*
X149083788Y-110258707D01*
X149085371Y-110253609D01*
X149086072Y-110248320D01*
X149114962Y-110030347D01*
X149114962Y-110030342D01*
X149115662Y-110025062D01*
X149107013Y-109794678D01*
X149059671Y-109569045D01*
X149057712Y-109564084D01*
X148976949Y-109359580D01*
X148976948Y-109359578D01*
X148974988Y-109354615D01*
X148947583Y-109309452D01*
X148862084Y-109168555D01*
X148855387Y-109157519D01*
X148766207Y-109054748D01*
X148707787Y-108987424D01*
X148707785Y-108987422D01*
X148704287Y-108983391D01*
X148640667Y-108931226D01*
X148530137Y-108840596D01*
X148530131Y-108840592D01*
X148526009Y-108837212D01*
X148494514Y-108819284D01*
X148445209Y-108768204D01*
X148431347Y-108698574D01*
X148457330Y-108632503D01*
X148486480Y-108605263D01*
X148543856Y-108566635D01*
X148608083Y-108523395D01*
X148774899Y-108364260D01*
X148912518Y-108179294D01*
X148931102Y-108142743D01*
X148967509Y-108071134D01*
X149017004Y-107973785D01*
X149020427Y-107962763D01*
X149083788Y-107758707D01*
X149085371Y-107753609D01*
X149091299Y-107708882D01*
X149114962Y-107530347D01*
X149114962Y-107530342D01*
X149115662Y-107525062D01*
X149115295Y-107515271D01*
X149110840Y-107396610D01*
X149107013Y-107294678D01*
X149059671Y-107069045D01*
X149057712Y-107064084D01*
X148976949Y-106859580D01*
X148976948Y-106859578D01*
X148974988Y-106854615D01*
X148925294Y-106772721D01*
X148858154Y-106662079D01*
X148855387Y-106657519D01*
X148838350Y-106637885D01*
X148707787Y-106487424D01*
X148707785Y-106487422D01*
X148704287Y-106483391D01*
X148654073Y-106442218D01*
X148530137Y-106340596D01*
X148530131Y-106340592D01*
X148526009Y-106337212D01*
X148494514Y-106319284D01*
X148445209Y-106268204D01*
X148431347Y-106198574D01*
X148457330Y-106132503D01*
X148486480Y-106105263D01*
X148582585Y-106040561D01*
X148608083Y-106023395D01*
X148774899Y-105864260D01*
X148912518Y-105679294D01*
X149017004Y-105473785D01*
X149053085Y-105357588D01*
X149083788Y-105258707D01*
X149085371Y-105253609D01*
X149096250Y-105171525D01*
X149114962Y-105030347D01*
X149114962Y-105030342D01*
X149115662Y-105025062D01*
X149115257Y-105014259D01*
X149108075Y-104822959D01*
X149107013Y-104794678D01*
X149059671Y-104569045D01*
X149057189Y-104562760D01*
X148976949Y-104359580D01*
X148976948Y-104359578D01*
X148974988Y-104354615D01*
X148961635Y-104332609D01*
X148858154Y-104162079D01*
X148855387Y-104157519D01*
X148788839Y-104080829D01*
X148707787Y-103987424D01*
X148707785Y-103987422D01*
X148704287Y-103983391D01*
X148643061Y-103933189D01*
X148530137Y-103840596D01*
X148530131Y-103840592D01*
X148526009Y-103837212D01*
X148494514Y-103819284D01*
X148445209Y-103768204D01*
X148431347Y-103698574D01*
X148457330Y-103632503D01*
X148486480Y-103605263D01*
X148522406Y-103581076D01*
X148608083Y-103523395D01*
X148629744Y-103502732D01*
X148771042Y-103367939D01*
X148774899Y-103364260D01*
X148912518Y-103179294D01*
X148963539Y-103078944D01*
X148988216Y-103030407D01*
X149017004Y-102973785D01*
X149043111Y-102889709D01*
X149083788Y-102758707D01*
X149085371Y-102753609D01*
X149095277Y-102678866D01*
X149114962Y-102530347D01*
X149114962Y-102530342D01*
X149115662Y-102525062D01*
X149115396Y-102517961D01*
X149110641Y-102391325D01*
X149107013Y-102294678D01*
X149059671Y-102069045D01*
X149055852Y-102059374D01*
X148976949Y-101859580D01*
X148976948Y-101859578D01*
X148974988Y-101854615D01*
X148939545Y-101796206D01*
X148858154Y-101662079D01*
X148855387Y-101657519D01*
X148823168Y-101620390D01*
X148707787Y-101487424D01*
X148707785Y-101487422D01*
X148704287Y-101483391D01*
X148668644Y-101454166D01*
X148628650Y-101395507D01*
X148626718Y-101324537D01*
X148663462Y-101263788D01*
X148682232Y-101249588D01*
X148821884Y-101163168D01*
X148828112Y-101159314D01*
X148953069Y-101034139D01*
X148971600Y-101004076D01*
X149042039Y-100889804D01*
X149042040Y-100889802D01*
X149045879Y-100883574D01*
X149072328Y-100803831D01*
X149099396Y-100722225D01*
X149099396Y-100722223D01*
X149101561Y-100715697D01*
X149112264Y-100611236D01*
X149112264Y-99310436D01*
X149101290Y-99204670D01*
X149092541Y-99178444D01*
X149047632Y-99043838D01*
X149045314Y-99036890D01*
X148952242Y-98886488D01*
X148827067Y-98761531D01*
X148737299Y-98706197D01*
X148682732Y-98672561D01*
X148682730Y-98672560D01*
X148676502Y-98668721D01*
X148555070Y-98628444D01*
X148515153Y-98615204D01*
X148515151Y-98615204D01*
X148508625Y-98613039D01*
X148501789Y-98612339D01*
X148501786Y-98612338D01*
X148458733Y-98607927D01*
X148404164Y-98602336D01*
X146853364Y-98602336D01*
X146850118Y-98602673D01*
X146850114Y-98602673D01*
X146754456Y-98612598D01*
X146754452Y-98612599D01*
X146747598Y-98613310D01*
X146741062Y-98615491D01*
X146741060Y-98615491D01*
X146658990Y-98642872D01*
X146579818Y-98669286D01*
X146429416Y-98762358D01*
X146304459Y-98887533D01*
X146300619Y-98893763D01*
X146300618Y-98893764D01*
X146223561Y-99018774D01*
X146211649Y-99038098D01*
X146209345Y-99045045D01*
X146161290Y-99189928D01*
X146155967Y-99205975D01*
X146145264Y-99310436D01*
X146145264Y-100611236D01*
X146156238Y-100717002D01*
X146158419Y-100723538D01*
X146158419Y-100723540D01*
X146196008Y-100836208D01*
X146212214Y-100884782D01*
X146305286Y-101035184D01*
X146430461Y-101160141D01*
X146436691Y-101163981D01*
X146436692Y-101163982D01*
X146448295Y-101171134D01*
X146576104Y-101249917D01*
X146623596Y-101302688D01*
X146635020Y-101372760D01*
X146606746Y-101437884D01*
X146596959Y-101448346D01*
X146558820Y-101484729D01*
X146482629Y-101557412D01*
X146345010Y-101742378D01*
X146342594Y-101747129D01*
X146342592Y-101747133D01*
X146308913Y-101813376D01*
X146240524Y-101947887D01*
X146238942Y-101952981D01*
X146238941Y-101952984D01*
X146183595Y-102131226D01*
X146172157Y-102168063D01*
X146171456Y-102173352D01*
X146142594Y-102391118D01*
X146141866Y-102396610D01*
X146150515Y-102626994D01*
X146197857Y-102852627D01*
X146199815Y-102857586D01*
X146199816Y-102857588D01*
X146260488Y-103011217D01*
X146282540Y-103067057D01*
X146285307Y-103071616D01*
X146285308Y-103071619D01*
X146334258Y-103152286D01*
X146402141Y-103264153D01*
X146405638Y-103268183D01*
X146527423Y-103408528D01*
X146553241Y-103438281D01*
X146557372Y-103441668D01*
X146727391Y-103581076D01*
X146727397Y-103581080D01*
X146731519Y-103584460D01*
X146763014Y-103602388D01*
X146812319Y-103653468D01*
X146826181Y-103723098D01*
X146800198Y-103789169D01*
X146771048Y-103816409D01*
X146649445Y-103898277D01*
X146482629Y-104057412D01*
X146345010Y-104242378D01*
X146342594Y-104247129D01*
X146342592Y-104247133D01*
X146311319Y-104308643D01*
X146240524Y-104447887D01*
X146238942Y-104452981D01*
X146238941Y-104452984D01*
X146196198Y-104590640D01*
X146172157Y-104668063D01*
X146171456Y-104673352D01*
X146150831Y-104828971D01*
X146141866Y-104896610D01*
X146150515Y-105126994D01*
X146151610Y-105132213D01*
X146157030Y-105158043D01*
X146197857Y-105352627D01*
X146199815Y-105357586D01*
X146199816Y-105357588D01*
X146265797Y-105524660D01*
X146282540Y-105567057D01*
X146285307Y-105571616D01*
X146285308Y-105571619D01*
X146355914Y-105687973D01*
X146402141Y-105764153D01*
X146405638Y-105768183D01*
X146492202Y-105867939D01*
X146553241Y-105938281D01*
X146557372Y-105941668D01*
X146727391Y-106081076D01*
X146727397Y-106081080D01*
X146731519Y-106084460D01*
X146763014Y-106102388D01*
X146812319Y-106153468D01*
X146826181Y-106223098D01*
X146800198Y-106289169D01*
X146771048Y-106316409D01*
X146649445Y-106398277D01*
X146645588Y-106401956D01*
X146645586Y-106401958D01*
X146636663Y-106410470D01*
X146482629Y-106557412D01*
X146345010Y-106742378D01*
X146342594Y-106747129D01*
X146342592Y-106747133D01*
X146322057Y-106787523D01*
X146240524Y-106947887D01*
X146238942Y-106952981D01*
X146238941Y-106952984D01*
X146198293Y-107083891D01*
X146172157Y-107168063D01*
X146171456Y-107173352D01*
X146145371Y-107370166D01*
X146141866Y-107396610D01*
X146142066Y-107401939D01*
X146142066Y-107401941D01*
X146144492Y-107466559D01*
X146150515Y-107626994D01*
X146197857Y-107852627D01*
X146199815Y-107857586D01*
X146199816Y-107857588D01*
X146279161Y-108058500D01*
X146282540Y-108067057D01*
X146402141Y-108264153D01*
X146405638Y-108268183D01*
X146530436Y-108412000D01*
X146553241Y-108438281D01*
X146590712Y-108469005D01*
X146727391Y-108581076D01*
X146727397Y-108581080D01*
X146731519Y-108584460D01*
X146763014Y-108602388D01*
X146812319Y-108653468D01*
X146826181Y-108723098D01*
X146800198Y-108789169D01*
X146771048Y-108816409D01*
X146649445Y-108898277D01*
X146645588Y-108901956D01*
X146645586Y-108901958D01*
X146576228Y-108968123D01*
X146482629Y-109057412D01*
X146345010Y-109242378D01*
X146342594Y-109247129D01*
X146342592Y-109247133D01*
X146321727Y-109288172D01*
X146240524Y-109447887D01*
X146238942Y-109452981D01*
X146238941Y-109452984D01*
X146176879Y-109652856D01*
X146172157Y-109668063D01*
X146171456Y-109673352D01*
X146145371Y-109870166D01*
X146141866Y-109896610D01*
X146150515Y-110126994D01*
X146197857Y-110352627D01*
X146199815Y-110357586D01*
X146199816Y-110357588D01*
X146210994Y-110385891D01*
X146282540Y-110567057D01*
X146285307Y-110571616D01*
X146285308Y-110571619D01*
X146347762Y-110674539D01*
X146402141Y-110764153D01*
X146405638Y-110768183D01*
X146526388Y-110907335D01*
X146553241Y-110938281D01*
X146557372Y-110941668D01*
X146727391Y-111081076D01*
X146727397Y-111081080D01*
X146731519Y-111084460D01*
X146763014Y-111102388D01*
X146812319Y-111153468D01*
X146826181Y-111223098D01*
X146800198Y-111289169D01*
X146771048Y-111316409D01*
X146649445Y-111398277D01*
X146482629Y-111557412D01*
X146479446Y-111561690D01*
X146434038Y-111622721D01*
X146345010Y-111742378D01*
X146342594Y-111747129D01*
X146342592Y-111747133D01*
X146307256Y-111816635D01*
X146240524Y-111947887D01*
X146238942Y-111952981D01*
X146238941Y-111952984D01*
X146184674Y-112127753D01*
X146172157Y-112168063D01*
X146171456Y-112173352D01*
X146143552Y-112383891D01*
X146141866Y-112396610D01*
X142570062Y-112396610D01*
X142573113Y-112391325D01*
X142581223Y-112377279D01*
X142581224Y-112377278D01*
X142584527Y-112371556D01*
X142643542Y-112189928D01*
X142651091Y-112118109D01*
X142662814Y-112006565D01*
X142663504Y-112000000D01*
X142660161Y-111968191D01*
X142644232Y-111816635D01*
X142644232Y-111816633D01*
X142643542Y-111810072D01*
X142584527Y-111628444D01*
X142577328Y-111615974D01*
X142492341Y-111468774D01*
X142489040Y-111463056D01*
X142373355Y-111334574D01*
X142365675Y-111326045D01*
X142365674Y-111326044D01*
X142361253Y-111321134D01*
X142206752Y-111208882D01*
X142200724Y-111206198D01*
X142200722Y-111206197D01*
X142038319Y-111133891D01*
X142038318Y-111133891D01*
X142032288Y-111131206D01*
X141938888Y-111111353D01*
X141851944Y-111092872D01*
X141851939Y-111092872D01*
X141845487Y-111091500D01*
X141654513Y-111091500D01*
X141648061Y-111092872D01*
X141648056Y-111092872D01*
X141561112Y-111111353D01*
X141467712Y-111131206D01*
X141461682Y-111133891D01*
X141461681Y-111133891D01*
X141299278Y-111206197D01*
X141299276Y-111206198D01*
X141293248Y-111208882D01*
X141138747Y-111321134D01*
X141134326Y-111326044D01*
X141134325Y-111326045D01*
X141126646Y-111334574D01*
X141010960Y-111463056D01*
X141007659Y-111468774D01*
X140922673Y-111615974D01*
X140915473Y-111628444D01*
X140856458Y-111810072D01*
X140855768Y-111816633D01*
X140855768Y-111816635D01*
X140839839Y-111968191D01*
X140836496Y-112000000D01*
X132521464Y-112000000D01*
X132501394Y-111977394D01*
X132488004Y-111969015D01*
X132478446Y-111974764D01*
X130420022Y-114033188D01*
X130412408Y-114047132D01*
X129682356Y-114047132D01*
X129683592Y-114044868D01*
X129683461Y-114043035D01*
X129679210Y-114036420D01*
X127618595Y-111975805D01*
X127604651Y-111968191D01*
X127604342Y-111968213D01*
X127595671Y-111974068D01*
X127560436Y-112012654D01*
X127555992Y-112018103D01*
X127349287Y-112302608D01*
X127345470Y-112308530D01*
X127171771Y-112614297D01*
X127168641Y-112620602D01*
X127030101Y-112943838D01*
X127027703Y-112950427D01*
X127010238Y-113008276D01*
X126971401Y-113067709D01*
X126906597Y-113096709D01*
X126836402Y-113086071D01*
X126780496Y-113034860D01*
X126752339Y-112986091D01*
X126739040Y-112963056D01*
X126639610Y-112852627D01*
X126615675Y-112826045D01*
X126615674Y-112826044D01*
X126611253Y-112821134D01*
X126456752Y-112708882D01*
X126450724Y-112706198D01*
X126450722Y-112706197D01*
X126288319Y-112633891D01*
X126288318Y-112633891D01*
X126282288Y-112631206D01*
X126188887Y-112611353D01*
X126101944Y-112592872D01*
X126101939Y-112592872D01*
X126095487Y-112591500D01*
X125904513Y-112591500D01*
X125898061Y-112592872D01*
X125898056Y-112592872D01*
X125811113Y-112611353D01*
X125717712Y-112631206D01*
X125711682Y-112633891D01*
X125711681Y-112633891D01*
X125549278Y-112706197D01*
X125549276Y-112706198D01*
X125543248Y-112708882D01*
X125388747Y-112821134D01*
X125384326Y-112826044D01*
X125384325Y-112826045D01*
X125360391Y-112852627D01*
X125260960Y-112963056D01*
X125165473Y-113128444D01*
X125106458Y-113310072D01*
X125105768Y-113316633D01*
X125105768Y-113316635D01*
X125093407Y-113434248D01*
X125086496Y-113500000D01*
X125087186Y-113506564D01*
X125087186Y-113506565D01*
X125104633Y-113672565D01*
X125091861Y-113742403D01*
X125043359Y-113794250D01*
X124974526Y-113811644D01*
X124939656Y-113805328D01*
X124861389Y-113779368D01*
X124861387Y-113779368D01*
X124854861Y-113777203D01*
X124848023Y-113776502D01*
X124848021Y-113776502D01*
X124822082Y-113773844D01*
X124762390Y-113767728D01*
X124696664Y-113740888D01*
X124655881Y-113682773D01*
X124649923Y-113629214D01*
X124650127Y-113627279D01*
X124663504Y-113500000D01*
X124656593Y-113434248D01*
X124644232Y-113316635D01*
X124644232Y-113316633D01*
X124643542Y-113310072D01*
X124584527Y-113128444D01*
X124489040Y-112963056D01*
X124389610Y-112852627D01*
X124365675Y-112826045D01*
X124365674Y-112826044D01*
X124361253Y-112821134D01*
X124206752Y-112708882D01*
X124200724Y-112706198D01*
X124200722Y-112706197D01*
X124038319Y-112633891D01*
X124038318Y-112633891D01*
X124032288Y-112631206D01*
X123938887Y-112611353D01*
X123851944Y-112592872D01*
X123851939Y-112592872D01*
X123845487Y-112591500D01*
X123654513Y-112591500D01*
X123648061Y-112592872D01*
X123648056Y-112592872D01*
X123561113Y-112611353D01*
X123467712Y-112631206D01*
X123461682Y-112633891D01*
X123461681Y-112633891D01*
X123299278Y-112706197D01*
X123299276Y-112706198D01*
X123293248Y-112708882D01*
X123138747Y-112821134D01*
X123134326Y-112826044D01*
X123134325Y-112826045D01*
X123110391Y-112852627D01*
X123010960Y-112963056D01*
X122915473Y-113128444D01*
X122856458Y-113310072D01*
X122855768Y-113316633D01*
X122855768Y-113316635D01*
X122843407Y-113434248D01*
X122836496Y-113500000D01*
X122837186Y-113506564D01*
X122837186Y-113506565D01*
X122854782Y-113673978D01*
X122856458Y-113689928D01*
X122915473Y-113871556D01*
X122925621Y-113889132D01*
X122927654Y-113892654D01*
X122944392Y-113961649D01*
X122921172Y-114028741D01*
X122907708Y-114044672D01*
X122900695Y-114051697D01*
X122896855Y-114057927D01*
X122896854Y-114057928D01*
X122887702Y-114072776D01*
X122830180Y-114166094D01*
X122810648Y-114197780D01*
X122757876Y-114245273D01*
X122687804Y-114256697D01*
X122622680Y-114228423D01*
X122612218Y-114218636D01*
X122506766Y-114108094D01*
X122498814Y-114101059D01*
X122322475Y-113969859D01*
X122313438Y-113964255D01*
X122117516Y-113864643D01*
X122107665Y-113860643D01*
X121897760Y-113795466D01*
X121887376Y-113793183D01*
X121871957Y-113791139D01*
X121857793Y-113793335D01*
X121854000Y-113806522D01*
X121854000Y-116741192D01*
X121346000Y-116741192D01*
X121346000Y-115547115D01*
X121341525Y-115531876D01*
X121340135Y-115530671D01*
X121332452Y-115529000D01*
X120264030Y-115529000D01*
X120249352Y-115533310D01*
X120247289Y-115545193D01*
X116908500Y-115545193D01*
X116908500Y-115005376D01*
X120242732Y-115005376D01*
X120246475Y-115018124D01*
X120247865Y-115019329D01*
X120255548Y-115021000D01*
X121327885Y-115021000D01*
X121343124Y-115016525D01*
X121344329Y-115015135D01*
X121346000Y-115007452D01*
X121346000Y-113808808D01*
X121342027Y-113795277D01*
X121331420Y-113793752D01*
X121213579Y-113818477D01*
X121203383Y-113821537D01*
X120998971Y-113902263D01*
X120989439Y-113906994D01*
X120801538Y-114021016D01*
X120792948Y-114027280D01*
X120626948Y-114171327D01*
X120619528Y-114178958D01*
X120480174Y-114348911D01*
X120474150Y-114357678D01*
X120365424Y-114548682D01*
X120360959Y-114558346D01*
X120285969Y-114764941D01*
X120283198Y-114775208D01*
X120243877Y-114992655D01*
X120242944Y-115000884D01*
X120242732Y-115005376D01*
X116908500Y-115005376D01*
X116908500Y-114532600D01*
X116905118Y-114500000D01*
X116898238Y-114433692D01*
X116898237Y-114433688D01*
X116897526Y-114426834D01*
X116841550Y-114259054D01*
X116748478Y-114108652D01*
X116623303Y-113983695D01*
X116585290Y-113960263D01*
X116544716Y-113935253D01*
X116497223Y-113882480D01*
X116485799Y-113812409D01*
X116501713Y-113764993D01*
X116512196Y-113746837D01*
X116584527Y-113621556D01*
X116643542Y-113439928D01*
X116647173Y-113405386D01*
X116662814Y-113256565D01*
X116663504Y-113250000D01*
X116643542Y-113060072D01*
X116584527Y-112878444D01*
X116577406Y-112866109D01*
X116534109Y-112791118D01*
X116489040Y-112713056D01*
X116461752Y-112682749D01*
X116365675Y-112576045D01*
X116365674Y-112576044D01*
X116361253Y-112571134D01*
X116206752Y-112458882D01*
X116200724Y-112456198D01*
X116200722Y-112456197D01*
X116038319Y-112383891D01*
X116038318Y-112383891D01*
X116032288Y-112381206D01*
X115999549Y-112374247D01*
X115937075Y-112340518D01*
X115902754Y-112278369D01*
X115907482Y-112207530D01*
X115949758Y-112150492D01*
X115999549Y-112127753D01*
X116002939Y-112127032D01*
X116032288Y-112120794D01*
X116148519Y-112069045D01*
X116200722Y-112045803D01*
X116200724Y-112045802D01*
X116206752Y-112043118D01*
X116361253Y-111930866D01*
X116489040Y-111788944D01*
X116562286Y-111662079D01*
X116581223Y-111629279D01*
X116581224Y-111629278D01*
X116584527Y-111623556D01*
X116590174Y-111606178D01*
X127971338Y-111606178D01*
X127977184Y-111615974D01*
X130035188Y-113673978D01*
X130049132Y-113681592D01*
X130050965Y-113681461D01*
X130057580Y-113677210D01*
X132117714Y-111617076D01*
X132125328Y-111603132D01*
X132125323Y-111603057D01*
X132119217Y-111594081D01*
X132063933Y-111544303D01*
X132058445Y-111539891D01*
X131772508Y-111335180D01*
X131766561Y-111331407D01*
X131459586Y-111159844D01*
X131453268Y-111156762D01*
X131129073Y-111020484D01*
X131122437Y-111018121D01*
X130785084Y-110918832D01*
X130778241Y-110917226D01*
X130431898Y-110856157D01*
X130424927Y-110855326D01*
X130073949Y-110833244D01*
X130066918Y-110833195D01*
X129715651Y-110850374D01*
X129708673Y-110851108D01*
X129361519Y-110907335D01*
X129354651Y-110908845D01*
X129015935Y-111003417D01*
X129009279Y-111005683D01*
X128683212Y-111137422D01*
X128676857Y-111140412D01*
X128367501Y-111307681D01*
X128361512Y-111311365D01*
X128072731Y-111512073D01*
X128067200Y-111516394D01*
X127979736Y-111592964D01*
X127971338Y-111606178D01*
X116590174Y-111606178D01*
X116643542Y-111441928D01*
X116663504Y-111252000D01*
X116651462Y-111137422D01*
X116644232Y-111068635D01*
X116644232Y-111068633D01*
X116643542Y-111062072D01*
X116584527Y-110880444D01*
X116489040Y-110715056D01*
X116452559Y-110674539D01*
X116365675Y-110578045D01*
X116365674Y-110578044D01*
X116361253Y-110573134D01*
X116231056Y-110478540D01*
X116212094Y-110464763D01*
X116212093Y-110464762D01*
X116206752Y-110460882D01*
X116200724Y-110458198D01*
X116200722Y-110458197D01*
X116038319Y-110385891D01*
X116038318Y-110385891D01*
X116032288Y-110383206D01*
X115938887Y-110363353D01*
X115851944Y-110344872D01*
X115851939Y-110344872D01*
X115845487Y-110343500D01*
X115654513Y-110343500D01*
X115648061Y-110344872D01*
X115648056Y-110344872D01*
X115561113Y-110363353D01*
X115467712Y-110383206D01*
X115461682Y-110385891D01*
X115461681Y-110385891D01*
X115299278Y-110458197D01*
X115299276Y-110458198D01*
X115293248Y-110460882D01*
X115287907Y-110464762D01*
X115287906Y-110464763D01*
X115268944Y-110478540D01*
X115138747Y-110573134D01*
X115134326Y-110578044D01*
X115134325Y-110578045D01*
X115047442Y-110674539D01*
X115010960Y-110715056D01*
X114915473Y-110880444D01*
X114856458Y-111062072D01*
X114855768Y-111068633D01*
X114855768Y-111068635D01*
X114848538Y-111137422D01*
X114836496Y-111252000D01*
X114856458Y-111441928D01*
X114915473Y-111623556D01*
X114918776Y-111629278D01*
X114918777Y-111629279D01*
X114937714Y-111662079D01*
X115010960Y-111788944D01*
X115138747Y-111930866D01*
X115293248Y-112043118D01*
X115299276Y-112045802D01*
X115299278Y-112045803D01*
X115351481Y-112069045D01*
X115467712Y-112120794D01*
X115497061Y-112127032D01*
X115500451Y-112127753D01*
X115562925Y-112161482D01*
X115597246Y-112223631D01*
X115592518Y-112294470D01*
X115550242Y-112351508D01*
X115500451Y-112374247D01*
X115467712Y-112381206D01*
X115461682Y-112383891D01*
X115461681Y-112383891D01*
X115299278Y-112456197D01*
X115299276Y-112456198D01*
X115293248Y-112458882D01*
X115138747Y-112571134D01*
X115134326Y-112576044D01*
X115134325Y-112576045D01*
X115038249Y-112682749D01*
X115010960Y-112713056D01*
X114965891Y-112791118D01*
X114922595Y-112866109D01*
X114915473Y-112878444D01*
X114856458Y-113060072D01*
X114836496Y-113250000D01*
X114837186Y-113256565D01*
X114852828Y-113405386D01*
X114856458Y-113439928D01*
X114915473Y-113621556D01*
X114921973Y-113632814D01*
X114927971Y-113643203D01*
X114944708Y-113712199D01*
X114921487Y-113779290D01*
X114865679Y-113823177D01*
X114831855Y-113831529D01*
X114800692Y-113834762D01*
X114800688Y-113834763D01*
X114793834Y-113835474D01*
X114787298Y-113837655D01*
X114787296Y-113837655D01*
X114655194Y-113881728D01*
X114626054Y-113891450D01*
X114475652Y-113984522D01*
X114350695Y-114109697D01*
X114346855Y-114115927D01*
X114346854Y-114115928D01*
X114323519Y-114153784D01*
X114267125Y-114245273D01*
X114260648Y-114255780D01*
X114207876Y-114303273D01*
X114137804Y-114314697D01*
X114072680Y-114286423D01*
X114062218Y-114276636D01*
X113956766Y-114166094D01*
X113948814Y-114159059D01*
X113772475Y-114027859D01*
X113763438Y-114022255D01*
X113567516Y-113922643D01*
X113557665Y-113918643D01*
X113347760Y-113853466D01*
X113337376Y-113851183D01*
X113321957Y-113849139D01*
X113307793Y-113851335D01*
X113304000Y-113864522D01*
X113304000Y-116799192D01*
X113307973Y-116812723D01*
X113318580Y-116814248D01*
X113436421Y-116789523D01*
X113446617Y-116786463D01*
X113651029Y-116705737D01*
X113660561Y-116701006D01*
X113848462Y-116586984D01*
X113857052Y-116580720D01*
X114023052Y-116436673D01*
X114030470Y-116429044D01*
X114056391Y-116397431D01*
X114115051Y-116357436D01*
X114186021Y-116355504D01*
X114246770Y-116392248D01*
X114260969Y-116411017D01*
X114351522Y-116557348D01*
X114476697Y-116682305D01*
X114482927Y-116686145D01*
X114482928Y-116686146D01*
X114619524Y-116770345D01*
X114627262Y-116775115D01*
X114746961Y-116814817D01*
X114765593Y-116820997D01*
X114823953Y-116861427D01*
X114851190Y-116926992D01*
X114851236Y-116953757D01*
X114836496Y-117094000D01*
X114837186Y-117100565D01*
X114850906Y-117231100D01*
X114856458Y-117283928D01*
X114858497Y-117290203D01*
X114870474Y-117327063D01*
X114872502Y-117398031D01*
X114835840Y-117458829D01*
X114772127Y-117490154D01*
X114750641Y-117492000D01*
X111134000Y-117492000D01*
X111065879Y-117471998D01*
X111019386Y-117418342D01*
X111008000Y-117366000D01*
X111008000Y-115603193D01*
X111697289Y-115603193D01*
X111706124Y-115707325D01*
X111707914Y-115717797D01*
X111763130Y-115930535D01*
X111766665Y-115940575D01*
X111856937Y-116140970D01*
X111862106Y-116150256D01*
X111984850Y-116332575D01*
X111991519Y-116340870D01*
X112143228Y-116499900D01*
X112151186Y-116506941D01*
X112327525Y-116638141D01*
X112336562Y-116643745D01*
X112532484Y-116743357D01*
X112542335Y-116747357D01*
X112752240Y-116812534D01*
X112762624Y-116814817D01*
X112778043Y-116816861D01*
X112792207Y-116814665D01*
X112796000Y-116801478D01*
X112796000Y-115605115D01*
X112791525Y-115589876D01*
X112790135Y-115588671D01*
X112782452Y-115587000D01*
X111714030Y-115587000D01*
X111699352Y-115591310D01*
X111697289Y-115603193D01*
X111008000Y-115603193D01*
X111008000Y-115063376D01*
X111692732Y-115063376D01*
X111696475Y-115076124D01*
X111697865Y-115077329D01*
X111705548Y-115079000D01*
X112777885Y-115079000D01*
X112793124Y-115074525D01*
X112794329Y-115073135D01*
X112796000Y-115065452D01*
X112796000Y-113866808D01*
X112792027Y-113853277D01*
X112781420Y-113851752D01*
X112663579Y-113876477D01*
X112653383Y-113879537D01*
X112448971Y-113960263D01*
X112439439Y-113964994D01*
X112251538Y-114079016D01*
X112242948Y-114085280D01*
X112076948Y-114229327D01*
X112069528Y-114236958D01*
X111930174Y-114406911D01*
X111924150Y-114415678D01*
X111815424Y-114606682D01*
X111810959Y-114616346D01*
X111735969Y-114822941D01*
X111733198Y-114833208D01*
X111693877Y-115050655D01*
X111692944Y-115058884D01*
X111692732Y-115063376D01*
X111008000Y-115063376D01*
X111008000Y-109469448D01*
X111028002Y-109401327D01*
X111081658Y-109354834D01*
X111151932Y-109344730D01*
X111185247Y-109354341D01*
X111211673Y-109366106D01*
X111211679Y-109366108D01*
X111217712Y-109368794D01*
X111311113Y-109388647D01*
X111398056Y-109407128D01*
X111398061Y-109407128D01*
X111404513Y-109408500D01*
X111595487Y-109408500D01*
X111601939Y-109407128D01*
X111601944Y-109407128D01*
X111688888Y-109388647D01*
X111782288Y-109368794D01*
X111788319Y-109366109D01*
X111950722Y-109293803D01*
X111950724Y-109293802D01*
X111956752Y-109291118D01*
X112111253Y-109178866D01*
X112115664Y-109173967D01*
X112115673Y-109173959D01*
X112136349Y-109150995D01*
X112196795Y-109113755D01*
X112267778Y-109115107D01*
X112296942Y-109130530D01*
X112297697Y-109129305D01*
X112427771Y-109209484D01*
X112448262Y-109222115D01*
X112522438Y-109246718D01*
X112609611Y-109275632D01*
X112609613Y-109275632D01*
X112616139Y-109277797D01*
X112622975Y-109278497D01*
X112622978Y-109278498D01*
X112666031Y-109282909D01*
X112720600Y-109288500D01*
X114321400Y-109288500D01*
X114324646Y-109288163D01*
X114324650Y-109288163D01*
X114420308Y-109278238D01*
X114420312Y-109278237D01*
X114427166Y-109277526D01*
X114433702Y-109275345D01*
X114433704Y-109275345D01*
X114494136Y-109255183D01*
X114565085Y-109252599D01*
X114626169Y-109288782D01*
X114653845Y-109335770D01*
X114658486Y-109350053D01*
X114665473Y-109371556D01*
X114760960Y-109536944D01*
X114888747Y-109678866D01*
X115043248Y-109791118D01*
X115049276Y-109793802D01*
X115049278Y-109793803D01*
X115211681Y-109866109D01*
X115217712Y-109868794D01*
X115311112Y-109888647D01*
X115398056Y-109907128D01*
X115398061Y-109907128D01*
X115404513Y-109908500D01*
X115595487Y-109908500D01*
X115601939Y-109907128D01*
X115601944Y-109907128D01*
X115688888Y-109888647D01*
X115782288Y-109868794D01*
X115788319Y-109866109D01*
X115950722Y-109793803D01*
X115950724Y-109793802D01*
X115956752Y-109791118D01*
X116111253Y-109678866D01*
X116239040Y-109536944D01*
X116313197Y-109408500D01*
X116331223Y-109377279D01*
X116331224Y-109377277D01*
X116334527Y-109371556D01*
X116393542Y-109189928D01*
X116395221Y-109173959D01*
X116412814Y-109006565D01*
X116413504Y-109000000D01*
X116393542Y-108810072D01*
X116334527Y-108628444D01*
X116321144Y-108605263D01*
X116282309Y-108538000D01*
X116265571Y-108469005D01*
X116282309Y-108412000D01*
X116331223Y-108327279D01*
X116331224Y-108327278D01*
X116334527Y-108321556D01*
X116393542Y-108139928D01*
X116400722Y-108071619D01*
X116412814Y-107956565D01*
X116413504Y-107950000D01*
X116401055Y-107831550D01*
X116394232Y-107766635D01*
X116394232Y-107766633D01*
X116393542Y-107760072D01*
X116334527Y-107578444D01*
X116306877Y-107530552D01*
X116242341Y-107418774D01*
X116239040Y-107413056D01*
X116233703Y-107407128D01*
X116115675Y-107276045D01*
X116115674Y-107276044D01*
X116111253Y-107271134D01*
X115956752Y-107158882D01*
X115950724Y-107156198D01*
X115950722Y-107156197D01*
X115936803Y-107150000D01*
X126036496Y-107150000D01*
X126037186Y-107156565D01*
X126051154Y-107289459D01*
X126056458Y-107339928D01*
X126115473Y-107521556D01*
X126118776Y-107527278D01*
X126118777Y-107527279D01*
X126125937Y-107539680D01*
X126210960Y-107686944D01*
X126215378Y-107691851D01*
X126215379Y-107691852D01*
X126276805Y-107760072D01*
X126338747Y-107828866D01*
X126493248Y-107941118D01*
X126499276Y-107943802D01*
X126499278Y-107943803D01*
X126605779Y-107991220D01*
X126667712Y-108018794D01*
X126742680Y-108034729D01*
X126848056Y-108057128D01*
X126848061Y-108057128D01*
X126854513Y-108058500D01*
X127045487Y-108058500D01*
X127051939Y-108057128D01*
X127051944Y-108057128D01*
X127157320Y-108034729D01*
X127232288Y-108018794D01*
X127294221Y-107991220D01*
X127400722Y-107943803D01*
X127400724Y-107943802D01*
X127406752Y-107941118D01*
X127561253Y-107828866D01*
X127623195Y-107760072D01*
X127684621Y-107691852D01*
X127684622Y-107691851D01*
X127689040Y-107686944D01*
X127774063Y-107539680D01*
X127781223Y-107527279D01*
X127781224Y-107527278D01*
X127784527Y-107521556D01*
X127824023Y-107400000D01*
X129886496Y-107400000D01*
X129887186Y-107406565D01*
X129893492Y-107466559D01*
X129906458Y-107589928D01*
X129965473Y-107771556D01*
X130060960Y-107936944D01*
X130065378Y-107941851D01*
X130065379Y-107941852D01*
X130089542Y-107968688D01*
X130188747Y-108078866D01*
X130343248Y-108191118D01*
X130349276Y-108193802D01*
X130349278Y-108193803D01*
X130497046Y-108259593D01*
X130517712Y-108268794D01*
X130611112Y-108288647D01*
X130698056Y-108307128D01*
X130698061Y-108307128D01*
X130704513Y-108308500D01*
X130895487Y-108308500D01*
X130901939Y-108307128D01*
X130901944Y-108307128D01*
X130988888Y-108288647D01*
X131082288Y-108268794D01*
X131102954Y-108259593D01*
X131250722Y-108193803D01*
X131250724Y-108193802D01*
X131256752Y-108191118D01*
X131411253Y-108078866D01*
X131510458Y-107968688D01*
X131534621Y-107941852D01*
X131534622Y-107941851D01*
X131539040Y-107936944D01*
X131634527Y-107771556D01*
X131693542Y-107589928D01*
X131706509Y-107466559D01*
X131712814Y-107406565D01*
X131713504Y-107400000D01*
X131707190Y-107339928D01*
X131694232Y-107216635D01*
X131694232Y-107216633D01*
X131693542Y-107210072D01*
X131634527Y-107028444D01*
X131626309Y-107014209D01*
X131576370Y-106927713D01*
X131539040Y-106863056D01*
X131533315Y-106856697D01*
X131415675Y-106726045D01*
X131415674Y-106726044D01*
X131411253Y-106721134D01*
X131256752Y-106608882D01*
X131250724Y-106606198D01*
X131250722Y-106606197D01*
X131088319Y-106533891D01*
X131088318Y-106533891D01*
X131082288Y-106531206D01*
X130966362Y-106506565D01*
X130901944Y-106492872D01*
X130901939Y-106492872D01*
X130895487Y-106491500D01*
X130704513Y-106491500D01*
X130698061Y-106492872D01*
X130698056Y-106492872D01*
X130633638Y-106506565D01*
X130517712Y-106531206D01*
X130511682Y-106533891D01*
X130511681Y-106533891D01*
X130349278Y-106606197D01*
X130349276Y-106606198D01*
X130343248Y-106608882D01*
X130188747Y-106721134D01*
X130184326Y-106726044D01*
X130184325Y-106726045D01*
X130066686Y-106856697D01*
X130060960Y-106863056D01*
X130023630Y-106927713D01*
X129973692Y-107014209D01*
X129965473Y-107028444D01*
X129906458Y-107210072D01*
X129905768Y-107216633D01*
X129905768Y-107216635D01*
X129892810Y-107339928D01*
X129886496Y-107400000D01*
X127824023Y-107400000D01*
X127843542Y-107339928D01*
X127848847Y-107289459D01*
X127862814Y-107156565D01*
X127863504Y-107150000D01*
X127856556Y-107083891D01*
X127844232Y-106966635D01*
X127844232Y-106966633D01*
X127843542Y-106960072D01*
X127784527Y-106778444D01*
X127689040Y-106613056D01*
X127635626Y-106553733D01*
X127565675Y-106476045D01*
X127565674Y-106476044D01*
X127561253Y-106471134D01*
X127450641Y-106390769D01*
X131993459Y-106390769D01*
X131994149Y-106397334D01*
X132011879Y-106566021D01*
X132013421Y-106580697D01*
X132072436Y-106762325D01*
X132075739Y-106768047D01*
X132075740Y-106768048D01*
X132128586Y-106859580D01*
X132167923Y-106927713D01*
X132172342Y-106932621D01*
X132176224Y-106937964D01*
X132174047Y-106939546D01*
X132199590Y-106992788D01*
X132190817Y-107063240D01*
X132184355Y-107076073D01*
X132177216Y-107088438D01*
X132118201Y-107270066D01*
X132117511Y-107276627D01*
X132117511Y-107276629D01*
X132103795Y-107407128D01*
X132098239Y-107459994D01*
X132098929Y-107466559D01*
X132116215Y-107631022D01*
X132118201Y-107649922D01*
X132177216Y-107831550D01*
X132180519Y-107837272D01*
X132180520Y-107837273D01*
X132189385Y-107852627D01*
X132272703Y-107996938D01*
X132277121Y-108001845D01*
X132277122Y-108001846D01*
X132331368Y-108062092D01*
X132400490Y-108138860D01*
X132554991Y-108251112D01*
X132561019Y-108253796D01*
X132561021Y-108253797D01*
X132723424Y-108326103D01*
X132729455Y-108328788D01*
X132822855Y-108348641D01*
X132909799Y-108367122D01*
X132909804Y-108367122D01*
X132916256Y-108368494D01*
X133107230Y-108368494D01*
X133113682Y-108367122D01*
X133113687Y-108367122D01*
X133202135Y-108348321D01*
X133237430Y-108340819D01*
X133308220Y-108346221D01*
X133364852Y-108389038D01*
X133389346Y-108455675D01*
X133388936Y-108477236D01*
X133377782Y-108583365D01*
X133373227Y-108626703D01*
X133373917Y-108633268D01*
X133390303Y-108789169D01*
X133393189Y-108816631D01*
X133452204Y-108998259D01*
X133547691Y-109163647D01*
X133552109Y-109168554D01*
X133552110Y-109168555D01*
X133659814Y-109288172D01*
X133675478Y-109305569D01*
X133829979Y-109417821D01*
X133836007Y-109420505D01*
X133836009Y-109420506D01*
X133998412Y-109492812D01*
X134004443Y-109495497D01*
X134097844Y-109515350D01*
X134184787Y-109533831D01*
X134184792Y-109533831D01*
X134191244Y-109535203D01*
X134382218Y-109535203D01*
X134388670Y-109533831D01*
X134388675Y-109533831D01*
X134475618Y-109515350D01*
X134569019Y-109495497D01*
X134575050Y-109492812D01*
X134737453Y-109420506D01*
X134737455Y-109420505D01*
X134743483Y-109417821D01*
X134897984Y-109305569D01*
X134923246Y-109277513D01*
X134983690Y-109240275D01*
X135054674Y-109241627D01*
X135068124Y-109246716D01*
X135087141Y-109255183D01*
X135110334Y-109265509D01*
X135117712Y-109268794D01*
X135208878Y-109288172D01*
X135298056Y-109307128D01*
X135298061Y-109307128D01*
X135304513Y-109308500D01*
X135495487Y-109308500D01*
X135501939Y-109307128D01*
X135501944Y-109307128D01*
X135591122Y-109288172D01*
X135682288Y-109268794D01*
X135688319Y-109266109D01*
X135850722Y-109193803D01*
X135850724Y-109193802D01*
X135856752Y-109191118D01*
X135868277Y-109182745D01*
X135961146Y-109115271D01*
X136011253Y-109078866D01*
X136100269Y-108980004D01*
X136134621Y-108941852D01*
X136134622Y-108941851D01*
X136139040Y-108936944D01*
X136234527Y-108771556D01*
X136241531Y-108750000D01*
X140836496Y-108750000D01*
X140856458Y-108939928D01*
X140915473Y-109121556D01*
X140918776Y-109127278D01*
X140918777Y-109127279D01*
X140936236Y-109157519D01*
X141010960Y-109286944D01*
X141015378Y-109291851D01*
X141015379Y-109291852D01*
X141128802Y-109417821D01*
X141138747Y-109428866D01*
X141194603Y-109469448D01*
X141285107Y-109535203D01*
X141293248Y-109541118D01*
X141299276Y-109543802D01*
X141299278Y-109543803D01*
X141355973Y-109569045D01*
X141467712Y-109618794D01*
X141561112Y-109638647D01*
X141648056Y-109657128D01*
X141648061Y-109657128D01*
X141654513Y-109658500D01*
X141845487Y-109658500D01*
X141851939Y-109657128D01*
X141851944Y-109657128D01*
X141938888Y-109638647D01*
X142032288Y-109618794D01*
X142144027Y-109569045D01*
X142200722Y-109543803D01*
X142200724Y-109543802D01*
X142206752Y-109541118D01*
X142214894Y-109535203D01*
X142305397Y-109469448D01*
X142361253Y-109428866D01*
X142371198Y-109417821D01*
X142484621Y-109291852D01*
X142484622Y-109291851D01*
X142489040Y-109286944D01*
X142563764Y-109157519D01*
X142581223Y-109127279D01*
X142581224Y-109127278D01*
X142584527Y-109121556D01*
X142643542Y-108939928D01*
X142663504Y-108750000D01*
X142653358Y-108653468D01*
X142644232Y-108566635D01*
X142644232Y-108566633D01*
X142643542Y-108560072D01*
X142584527Y-108378444D01*
X142578783Y-108368494D01*
X142543353Y-108307128D01*
X142489040Y-108213056D01*
X142480701Y-108203794D01*
X142365675Y-108076045D01*
X142365674Y-108076044D01*
X142361253Y-108071134D01*
X142206752Y-107958882D01*
X142200724Y-107956198D01*
X142200722Y-107956197D01*
X142038319Y-107883891D01*
X142038318Y-107883891D01*
X142032288Y-107881206D01*
X141938887Y-107861353D01*
X141851944Y-107842872D01*
X141851939Y-107842872D01*
X141845487Y-107841500D01*
X141654513Y-107841500D01*
X141648061Y-107842872D01*
X141648056Y-107842872D01*
X141561112Y-107861353D01*
X141467712Y-107881206D01*
X141461682Y-107883891D01*
X141461681Y-107883891D01*
X141299278Y-107956197D01*
X141299276Y-107956198D01*
X141293248Y-107958882D01*
X141138747Y-108071134D01*
X141134326Y-108076044D01*
X141134325Y-108076045D01*
X141019300Y-108203794D01*
X141010960Y-108213056D01*
X140956647Y-108307128D01*
X140921218Y-108368494D01*
X140915473Y-108378444D01*
X140856458Y-108560072D01*
X140855768Y-108566633D01*
X140855768Y-108566635D01*
X140846642Y-108653468D01*
X140836496Y-108750000D01*
X136241531Y-108750000D01*
X136293542Y-108589928D01*
X136294473Y-108581076D01*
X136312814Y-108406565D01*
X136313504Y-108400000D01*
X136298138Y-108253797D01*
X136294232Y-108216635D01*
X136294232Y-108216633D01*
X136293542Y-108210072D01*
X136234527Y-108028444D01*
X136227406Y-108016109D01*
X136184109Y-107941118D01*
X136139040Y-107863056D01*
X136124951Y-107847408D01*
X136015675Y-107726045D01*
X136015671Y-107726041D01*
X136011253Y-107721134D01*
X135878917Y-107624986D01*
X135862094Y-107612763D01*
X135862093Y-107612762D01*
X135856752Y-107608882D01*
X135850724Y-107606198D01*
X135850722Y-107606197D01*
X135688319Y-107533891D01*
X135688318Y-107533891D01*
X135682288Y-107531206D01*
X135588887Y-107511353D01*
X135501944Y-107492872D01*
X135501939Y-107492872D01*
X135495487Y-107491500D01*
X135304513Y-107491500D01*
X135298061Y-107492872D01*
X135298056Y-107492872D01*
X135211112Y-107511353D01*
X135117712Y-107531206D01*
X135111682Y-107533891D01*
X135111681Y-107533891D01*
X134949278Y-107606197D01*
X134949276Y-107606198D01*
X134943248Y-107608882D01*
X134937907Y-107612762D01*
X134937906Y-107612763D01*
X134921083Y-107624986D01*
X134788747Y-107721134D01*
X134763485Y-107749190D01*
X134703041Y-107786428D01*
X134632057Y-107785076D01*
X134618607Y-107779987D01*
X134569019Y-107757909D01*
X134458847Y-107734491D01*
X134388675Y-107719575D01*
X134388670Y-107719575D01*
X134382218Y-107718203D01*
X134191244Y-107718203D01*
X134184792Y-107719575D01*
X134184787Y-107719575D01*
X134114615Y-107734491D01*
X134061044Y-107745878D01*
X133990254Y-107740476D01*
X133933622Y-107697659D01*
X133909128Y-107631022D01*
X133909538Y-107609461D01*
X133924557Y-107466559D01*
X133925247Y-107459994D01*
X133919691Y-107407128D01*
X133905975Y-107276629D01*
X133905975Y-107276627D01*
X133905285Y-107270066D01*
X133846270Y-107088438D01*
X133841303Y-107079834D01*
X133754086Y-106928771D01*
X133750783Y-106923050D01*
X133746364Y-106918142D01*
X133742482Y-106912799D01*
X133744659Y-106911217D01*
X133719116Y-106857975D01*
X133727889Y-106787523D01*
X133734352Y-106774688D01*
X133735488Y-106772721D01*
X133741490Y-106762325D01*
X133800505Y-106580697D01*
X133802048Y-106566021D01*
X133808987Y-106500000D01*
X140836496Y-106500000D01*
X140837186Y-106506565D01*
X140851279Y-106640648D01*
X140856458Y-106689928D01*
X140915473Y-106871556D01*
X141010960Y-107036944D01*
X141015378Y-107041851D01*
X141015379Y-107041852D01*
X141088772Y-107123363D01*
X141138747Y-107178866D01*
X141237843Y-107250864D01*
X141281823Y-107282817D01*
X141293248Y-107291118D01*
X141299276Y-107293802D01*
X141299278Y-107293803D01*
X141416978Y-107346206D01*
X141467712Y-107368794D01*
X141561113Y-107388647D01*
X141648056Y-107407128D01*
X141648061Y-107407128D01*
X141654513Y-107408500D01*
X141845487Y-107408500D01*
X141851939Y-107407128D01*
X141851944Y-107407128D01*
X141938887Y-107388647D01*
X142032288Y-107368794D01*
X142083022Y-107346206D01*
X142200722Y-107293803D01*
X142200724Y-107293802D01*
X142206752Y-107291118D01*
X142218178Y-107282817D01*
X142262157Y-107250864D01*
X142361253Y-107178866D01*
X142411228Y-107123363D01*
X142484621Y-107041852D01*
X142484622Y-107041851D01*
X142489040Y-107036944D01*
X142584527Y-106871556D01*
X142643542Y-106689928D01*
X142648722Y-106640648D01*
X142662814Y-106506565D01*
X142663504Y-106500000D01*
X142654094Y-106410470D01*
X142644232Y-106316635D01*
X142644232Y-106316633D01*
X142643542Y-106310072D01*
X142584527Y-106128444D01*
X142571144Y-106105263D01*
X142523877Y-106023395D01*
X142489040Y-105963056D01*
X142403397Y-105867939D01*
X142365675Y-105826045D01*
X142365674Y-105826044D01*
X142361253Y-105821134D01*
X142218443Y-105717376D01*
X142212094Y-105712763D01*
X142212093Y-105712762D01*
X142206752Y-105708882D01*
X142200724Y-105706198D01*
X142200722Y-105706197D01*
X142038319Y-105633891D01*
X142038318Y-105633891D01*
X142032288Y-105631206D01*
X141938887Y-105611353D01*
X141851944Y-105592872D01*
X141851939Y-105592872D01*
X141845487Y-105591500D01*
X141654513Y-105591500D01*
X141648061Y-105592872D01*
X141648056Y-105592872D01*
X141561112Y-105611353D01*
X141467712Y-105631206D01*
X141461682Y-105633891D01*
X141461681Y-105633891D01*
X141299278Y-105706197D01*
X141299276Y-105706198D01*
X141293248Y-105708882D01*
X141287907Y-105712762D01*
X141287906Y-105712763D01*
X141281557Y-105717376D01*
X141138747Y-105821134D01*
X141134326Y-105826044D01*
X141134325Y-105826045D01*
X141096604Y-105867939D01*
X141010960Y-105963056D01*
X140976123Y-106023395D01*
X140928857Y-106105263D01*
X140915473Y-106128444D01*
X140856458Y-106310072D01*
X140855768Y-106316633D01*
X140855768Y-106316635D01*
X140845906Y-106410470D01*
X140836496Y-106500000D01*
X133808987Y-106500000D01*
X133819777Y-106397334D01*
X133820467Y-106390769D01*
X133819777Y-106384204D01*
X133801195Y-106207404D01*
X133801195Y-106207402D01*
X133800505Y-106200841D01*
X133741490Y-106019213D01*
X133646003Y-105853825D01*
X133518216Y-105711903D01*
X133363715Y-105599651D01*
X133357687Y-105596967D01*
X133357685Y-105596966D01*
X133195282Y-105524660D01*
X133195281Y-105524660D01*
X133189251Y-105521975D01*
X133095851Y-105502122D01*
X133008907Y-105483641D01*
X133008902Y-105483641D01*
X133002450Y-105482269D01*
X132811476Y-105482269D01*
X132805024Y-105483641D01*
X132805019Y-105483641D01*
X132718076Y-105502122D01*
X132624675Y-105521975D01*
X132618645Y-105524660D01*
X132618644Y-105524660D01*
X132456241Y-105596966D01*
X132456239Y-105596967D01*
X132450211Y-105599651D01*
X132295710Y-105711903D01*
X132167923Y-105853825D01*
X132072436Y-106019213D01*
X132013421Y-106200841D01*
X132012731Y-106207402D01*
X132012731Y-106207404D01*
X131994149Y-106384204D01*
X131993459Y-106390769D01*
X127450641Y-106390769D01*
X127406752Y-106358882D01*
X127400724Y-106356198D01*
X127400722Y-106356197D01*
X127238319Y-106283891D01*
X127238318Y-106283891D01*
X127232288Y-106281206D01*
X127138887Y-106261353D01*
X127051944Y-106242872D01*
X127051939Y-106242872D01*
X127045487Y-106241500D01*
X126854513Y-106241500D01*
X126848061Y-106242872D01*
X126848056Y-106242872D01*
X126761112Y-106261353D01*
X126667712Y-106281206D01*
X126661682Y-106283891D01*
X126661681Y-106283891D01*
X126499278Y-106356197D01*
X126499276Y-106356198D01*
X126493248Y-106358882D01*
X126338747Y-106471134D01*
X126334326Y-106476044D01*
X126334325Y-106476045D01*
X126264375Y-106553733D01*
X126210960Y-106613056D01*
X126115473Y-106778444D01*
X126056458Y-106960072D01*
X126055768Y-106966633D01*
X126055768Y-106966635D01*
X126043444Y-107083891D01*
X126036496Y-107150000D01*
X115936803Y-107150000D01*
X115788319Y-107083891D01*
X115788318Y-107083891D01*
X115782288Y-107081206D01*
X115688887Y-107061353D01*
X115601944Y-107042872D01*
X115601939Y-107042872D01*
X115595487Y-107041500D01*
X115404513Y-107041500D01*
X115398061Y-107042872D01*
X115398056Y-107042872D01*
X115311113Y-107061353D01*
X115217712Y-107081206D01*
X115211685Y-107083889D01*
X115211677Y-107083892D01*
X115144213Y-107113929D01*
X115073846Y-107123363D01*
X115009549Y-107093256D01*
X114973442Y-107038699D01*
X114964870Y-107013007D01*
X114964869Y-107013005D01*
X114962550Y-107006054D01*
X114869478Y-106855652D01*
X114744303Y-106730695D01*
X114736760Y-106726045D01*
X114619052Y-106653489D01*
X114598220Y-106640647D01*
X114550727Y-106587876D01*
X114539303Y-106517804D01*
X114567577Y-106452680D01*
X114577364Y-106442218D01*
X114687906Y-106336766D01*
X114694941Y-106328814D01*
X114826141Y-106152475D01*
X114831745Y-106143438D01*
X114931357Y-105947516D01*
X114935357Y-105937665D01*
X115000534Y-105727760D01*
X115002817Y-105717376D01*
X115004861Y-105701957D01*
X115002665Y-105687793D01*
X114989478Y-105684000D01*
X112054808Y-105684000D01*
X112041277Y-105687973D01*
X112039752Y-105698580D01*
X112064477Y-105816421D01*
X112067537Y-105826617D01*
X112148263Y-106031029D01*
X112152994Y-106040561D01*
X112267016Y-106228462D01*
X112273280Y-106237052D01*
X112417327Y-106403052D01*
X112424956Y-106410470D01*
X112456569Y-106436391D01*
X112496564Y-106495051D01*
X112498496Y-106566021D01*
X112461752Y-106626770D01*
X112442983Y-106640969D01*
X112296652Y-106731522D01*
X112171695Y-106856697D01*
X112167855Y-106862927D01*
X112167854Y-106862928D01*
X112112343Y-106952984D01*
X112078885Y-107007262D01*
X112053858Y-107082718D01*
X112029364Y-107156565D01*
X112023203Y-107175139D01*
X112012500Y-107279600D01*
X112012500Y-107539680D01*
X111992498Y-107607801D01*
X111938842Y-107654294D01*
X111868568Y-107664398D01*
X111835251Y-107654786D01*
X111788327Y-107633894D01*
X111788321Y-107633892D01*
X111782288Y-107631206D01*
X111688887Y-107611353D01*
X111601944Y-107592872D01*
X111601939Y-107592872D01*
X111595487Y-107591500D01*
X111404513Y-107591500D01*
X111398061Y-107592872D01*
X111398056Y-107592872D01*
X111311113Y-107611353D01*
X111217712Y-107631206D01*
X111211679Y-107633892D01*
X111211673Y-107633894D01*
X111185247Y-107645659D01*
X111114880Y-107655093D01*
X111050584Y-107624986D01*
X111012771Y-107564896D01*
X111008000Y-107530552D01*
X111008000Y-105158043D01*
X112037139Y-105158043D01*
X112039335Y-105172207D01*
X112052522Y-105176000D01*
X113248885Y-105176000D01*
X113264124Y-105171525D01*
X113265329Y-105170135D01*
X113267000Y-105162452D01*
X113267000Y-105157885D01*
X113775000Y-105157885D01*
X113779475Y-105173124D01*
X113780865Y-105174329D01*
X113788548Y-105176000D01*
X114987192Y-105176000D01*
X115000723Y-105172027D01*
X115002248Y-105161420D01*
X114977523Y-105043579D01*
X114974463Y-105033383D01*
X114893737Y-104828971D01*
X114889006Y-104819439D01*
X114774984Y-104631538D01*
X114768720Y-104622948D01*
X114624673Y-104456948D01*
X114617042Y-104449528D01*
X114447089Y-104310174D01*
X114438322Y-104304150D01*
X114247318Y-104195424D01*
X114237654Y-104190959D01*
X114031059Y-104115969D01*
X114020792Y-104113198D01*
X113803345Y-104073877D01*
X113795116Y-104072944D01*
X113790624Y-104072732D01*
X113777876Y-104076475D01*
X113776671Y-104077865D01*
X113775000Y-104085548D01*
X113775000Y-105157885D01*
X113267000Y-105157885D01*
X113267000Y-104094030D01*
X113262690Y-104079352D01*
X113250807Y-104077289D01*
X113146675Y-104086124D01*
X113136203Y-104087914D01*
X112923465Y-104143130D01*
X112913425Y-104146665D01*
X112713030Y-104236937D01*
X112703744Y-104242106D01*
X112521425Y-104364850D01*
X112513130Y-104371519D01*
X112354100Y-104523228D01*
X112347059Y-104531186D01*
X112215859Y-104707525D01*
X112210255Y-104716562D01*
X112110643Y-104912484D01*
X112106643Y-104922335D01*
X112041466Y-105132240D01*
X112039183Y-105142624D01*
X112037139Y-105158043D01*
X111008000Y-105158043D01*
X111008000Y-103401963D01*
X130675698Y-103401963D01*
X130695660Y-103591891D01*
X130754675Y-103773519D01*
X130757978Y-103779241D01*
X130757979Y-103779242D01*
X130779069Y-103815771D01*
X130850162Y-103938907D01*
X130854580Y-103943814D01*
X130854581Y-103943815D01*
X130968144Y-104069939D01*
X130977949Y-104080829D01*
X131132450Y-104193081D01*
X131138478Y-104195765D01*
X131138480Y-104195766D01*
X131253853Y-104247133D01*
X131306914Y-104270757D01*
X131364415Y-104282979D01*
X131408006Y-104292245D01*
X131470480Y-104325974D01*
X131501642Y-104376555D01*
X131546837Y-104515649D01*
X131642324Y-104681037D01*
X131646742Y-104685944D01*
X131646743Y-104685945D01*
X131739094Y-104788511D01*
X131770111Y-104822959D01*
X131924612Y-104935211D01*
X131930640Y-104937895D01*
X131930642Y-104937896D01*
X132093045Y-105010202D01*
X132099076Y-105012887D01*
X132192476Y-105032740D01*
X132279420Y-105051221D01*
X132279425Y-105051221D01*
X132285877Y-105052593D01*
X132476851Y-105052593D01*
X132483303Y-105051221D01*
X132483308Y-105051221D01*
X132570252Y-105032740D01*
X132663652Y-105012887D01*
X132669683Y-105010202D01*
X132832086Y-104937896D01*
X132832088Y-104937895D01*
X132838116Y-104935211D01*
X132992617Y-104822959D01*
X133023634Y-104788511D01*
X133115985Y-104685945D01*
X133115986Y-104685944D01*
X133120404Y-104681037D01*
X133215891Y-104515649D01*
X133274906Y-104334021D01*
X133277413Y-104310174D01*
X133294178Y-104150658D01*
X133294868Y-104144093D01*
X133274906Y-103954165D01*
X133215891Y-103772537D01*
X133120404Y-103607149D01*
X133112319Y-103598169D01*
X132997039Y-103470138D01*
X132997038Y-103470137D01*
X132992617Y-103465227D01*
X132858712Y-103367939D01*
X132843458Y-103356856D01*
X132843457Y-103356855D01*
X132838116Y-103352975D01*
X132832088Y-103350291D01*
X132832086Y-103350290D01*
X132669683Y-103277984D01*
X132669682Y-103277984D01*
X132663652Y-103275299D01*
X132606151Y-103263077D01*
X132562560Y-103253811D01*
X132500086Y-103220082D01*
X132468924Y-103169501D01*
X132425770Y-103036689D01*
X132423729Y-103030407D01*
X132411858Y-103009845D01*
X132352554Y-102907128D01*
X132328242Y-102865019D01*
X132294292Y-102827313D01*
X132204877Y-102728008D01*
X132204876Y-102728007D01*
X132200455Y-102723097D01*
X132076254Y-102632859D01*
X132051296Y-102614726D01*
X132051295Y-102614725D01*
X132045954Y-102610845D01*
X132039926Y-102608161D01*
X132039924Y-102608160D01*
X131877521Y-102535854D01*
X131877520Y-102535854D01*
X131871490Y-102533169D01*
X131778089Y-102513316D01*
X131691146Y-102494835D01*
X131691141Y-102494835D01*
X131684689Y-102493463D01*
X131493715Y-102493463D01*
X131487263Y-102494835D01*
X131487258Y-102494835D01*
X131400315Y-102513316D01*
X131306914Y-102533169D01*
X131300884Y-102535854D01*
X131300883Y-102535854D01*
X131138480Y-102608160D01*
X131138478Y-102608161D01*
X131132450Y-102610845D01*
X131127109Y-102614725D01*
X131127108Y-102614726D01*
X131102150Y-102632859D01*
X130977949Y-102723097D01*
X130973528Y-102728007D01*
X130973527Y-102728008D01*
X130884113Y-102827313D01*
X130850162Y-102865019D01*
X130825850Y-102907128D01*
X130766547Y-103009845D01*
X130754675Y-103030407D01*
X130695660Y-103212035D01*
X130694970Y-103218596D01*
X130694970Y-103218598D01*
X130685698Y-103306819D01*
X130675698Y-103401963D01*
X111008000Y-103401963D01*
X111008000Y-102000000D01*
X121086496Y-102000000D01*
X121087186Y-102006565D01*
X121105612Y-102181874D01*
X121106458Y-102189928D01*
X121165473Y-102371556D01*
X121260960Y-102536944D01*
X121265378Y-102541851D01*
X121265379Y-102541852D01*
X121384325Y-102673955D01*
X121388747Y-102678866D01*
X121543248Y-102791118D01*
X121549276Y-102793802D01*
X121549278Y-102793803D01*
X121709233Y-102865019D01*
X121717712Y-102868794D01*
X121811112Y-102888647D01*
X121898056Y-102907128D01*
X121898061Y-102907128D01*
X121904513Y-102908500D01*
X122095487Y-102908500D01*
X122101939Y-102907128D01*
X122101944Y-102907128D01*
X122188887Y-102888647D01*
X122282288Y-102868794D01*
X122290767Y-102865019D01*
X122450722Y-102793803D01*
X122450724Y-102793802D01*
X122456752Y-102791118D01*
X122611253Y-102678866D01*
X122628797Y-102659382D01*
X122652678Y-102632859D01*
X122656364Y-102628765D01*
X122716810Y-102591525D01*
X122787793Y-102592877D01*
X122843636Y-102628765D01*
X122847322Y-102632859D01*
X122871204Y-102659382D01*
X122888747Y-102678866D01*
X123043248Y-102791118D01*
X123049276Y-102793802D01*
X123049278Y-102793803D01*
X123209233Y-102865019D01*
X123217712Y-102868794D01*
X123311112Y-102888647D01*
X123398056Y-102907128D01*
X123398061Y-102907128D01*
X123404513Y-102908500D01*
X123595487Y-102908500D01*
X123601939Y-102907128D01*
X123601944Y-102907128D01*
X123688887Y-102888647D01*
X123782288Y-102868794D01*
X123790767Y-102865019D01*
X123950722Y-102793803D01*
X123950724Y-102793802D01*
X123956752Y-102791118D01*
X124111253Y-102678866D01*
X124115675Y-102673955D01*
X124234621Y-102541852D01*
X124234622Y-102541851D01*
X124239040Y-102536944D01*
X124334527Y-102371556D01*
X124393542Y-102189928D01*
X124394389Y-102181874D01*
X124412814Y-102006565D01*
X124413504Y-102000000D01*
X124409854Y-101965271D01*
X124394232Y-101816635D01*
X124394232Y-101816633D01*
X124393542Y-101810072D01*
X124334527Y-101628444D01*
X124326253Y-101614112D01*
X124258352Y-101496505D01*
X124239040Y-101463056D01*
X124231036Y-101454166D01*
X124115675Y-101326045D01*
X124115674Y-101326044D01*
X124111253Y-101321134D01*
X123956752Y-101208882D01*
X123950724Y-101206198D01*
X123950722Y-101206197D01*
X123788319Y-101133891D01*
X123788318Y-101133891D01*
X123782288Y-101131206D01*
X123688888Y-101111353D01*
X123601944Y-101092872D01*
X123601939Y-101092872D01*
X123595487Y-101091500D01*
X123404513Y-101091500D01*
X123398061Y-101092872D01*
X123398056Y-101092872D01*
X123311112Y-101111353D01*
X123217712Y-101131206D01*
X123211682Y-101133891D01*
X123211681Y-101133891D01*
X123049278Y-101206197D01*
X123049276Y-101206198D01*
X123043248Y-101208882D01*
X122888747Y-101321134D01*
X122884326Y-101326044D01*
X122884325Y-101326045D01*
X122843636Y-101371235D01*
X122783190Y-101408475D01*
X122712207Y-101407123D01*
X122656364Y-101371235D01*
X122615675Y-101326045D01*
X122615674Y-101326044D01*
X122611253Y-101321134D01*
X122456752Y-101208882D01*
X122450724Y-101206198D01*
X122450722Y-101206197D01*
X122288319Y-101133891D01*
X122288318Y-101133891D01*
X122282288Y-101131206D01*
X122188888Y-101111353D01*
X122101944Y-101092872D01*
X122101939Y-101092872D01*
X122095487Y-101091500D01*
X121904513Y-101091500D01*
X121898061Y-101092872D01*
X121898056Y-101092872D01*
X121811112Y-101111353D01*
X121717712Y-101131206D01*
X121711682Y-101133891D01*
X121711681Y-101133891D01*
X121549278Y-101206197D01*
X121549276Y-101206198D01*
X121543248Y-101208882D01*
X121388747Y-101321134D01*
X121384326Y-101326044D01*
X121384325Y-101326045D01*
X121268965Y-101454166D01*
X121260960Y-101463056D01*
X121241648Y-101496505D01*
X121173748Y-101614112D01*
X121165473Y-101628444D01*
X121106458Y-101810072D01*
X121105768Y-101816633D01*
X121105768Y-101816635D01*
X121090146Y-101965271D01*
X121086496Y-102000000D01*
X111008000Y-102000000D01*
X111008000Y-101128794D01*
X111028002Y-101060673D01*
X111081658Y-101014180D01*
X111151932Y-101004076D01*
X111216512Y-101033570D01*
X111243119Y-101065794D01*
X111274960Y-101120944D01*
X111279378Y-101125851D01*
X111279379Y-101125852D01*
X111394643Y-101253866D01*
X111402747Y-101262866D01*
X111482946Y-101321134D01*
X111551904Y-101371235D01*
X111557248Y-101375118D01*
X111563276Y-101377802D01*
X111563278Y-101377803D01*
X111723363Y-101449077D01*
X111731712Y-101452794D01*
X111806892Y-101468774D01*
X111912056Y-101491128D01*
X111912061Y-101491128D01*
X111918513Y-101492500D01*
X112109487Y-101492500D01*
X112115939Y-101491128D01*
X112115944Y-101491128D01*
X112221108Y-101468774D01*
X112296288Y-101452794D01*
X112304637Y-101449077D01*
X112464722Y-101377803D01*
X112464724Y-101377802D01*
X112470752Y-101375118D01*
X112476097Y-101371235D01*
X112545054Y-101321134D01*
X112574940Y-101299421D01*
X112641806Y-101275563D01*
X112710958Y-101291643D01*
X112723056Y-101299418D01*
X112752946Y-101321134D01*
X112821904Y-101371235D01*
X112827248Y-101375118D01*
X112833276Y-101377802D01*
X112833278Y-101377803D01*
X112993363Y-101449077D01*
X113001712Y-101452794D01*
X113076892Y-101468774D01*
X113182056Y-101491128D01*
X113182061Y-101491128D01*
X113188513Y-101492500D01*
X113379487Y-101492500D01*
X113385939Y-101491128D01*
X113385944Y-101491128D01*
X113491108Y-101468774D01*
X113566288Y-101452794D01*
X113574637Y-101449077D01*
X113734722Y-101377803D01*
X113734724Y-101377802D01*
X113740752Y-101375118D01*
X113746097Y-101371235D01*
X113815054Y-101321134D01*
X113895253Y-101262866D01*
X113952365Y-101199436D01*
X114012810Y-101162198D01*
X114083794Y-101163550D01*
X114139634Y-101199436D01*
X114196747Y-101262866D01*
X114276946Y-101321134D01*
X114345904Y-101371235D01*
X114351248Y-101375118D01*
X114357276Y-101377802D01*
X114357278Y-101377803D01*
X114517363Y-101449077D01*
X114525712Y-101452794D01*
X114600892Y-101468774D01*
X114706056Y-101491128D01*
X114706061Y-101491128D01*
X114712513Y-101492500D01*
X114903487Y-101492500D01*
X114909939Y-101491128D01*
X114909944Y-101491128D01*
X115015108Y-101468774D01*
X115090288Y-101452794D01*
X115098637Y-101449077D01*
X115258722Y-101377803D01*
X115258724Y-101377802D01*
X115264752Y-101375118D01*
X115270097Y-101371235D01*
X115339054Y-101321134D01*
X115419253Y-101262866D01*
X115427357Y-101253866D01*
X115542621Y-101125852D01*
X115542622Y-101125851D01*
X115547040Y-101120944D01*
X115642527Y-100955556D01*
X115701542Y-100773928D01*
X115721504Y-100584000D01*
X115708314Y-100458500D01*
X115702232Y-100400635D01*
X115702232Y-100400633D01*
X115701542Y-100394072D01*
X115642527Y-100212444D01*
X115547040Y-100047056D01*
X115538937Y-100038056D01*
X115423675Y-99910045D01*
X115423671Y-99910041D01*
X115419253Y-99905134D01*
X115264752Y-99792882D01*
X115258724Y-99790198D01*
X115258722Y-99790197D01*
X115096319Y-99717891D01*
X115096318Y-99717891D01*
X115090288Y-99715206D01*
X114977721Y-99691279D01*
X114909944Y-99676872D01*
X114909939Y-99676872D01*
X114903487Y-99675500D01*
X114712513Y-99675500D01*
X114706061Y-99676872D01*
X114706056Y-99676872D01*
X114638279Y-99691279D01*
X114525712Y-99715206D01*
X114519682Y-99717891D01*
X114519681Y-99717891D01*
X114357278Y-99790197D01*
X114357276Y-99790198D01*
X114351248Y-99792882D01*
X114196747Y-99905134D01*
X114139635Y-99968564D01*
X114079190Y-100005802D01*
X114008206Y-100004450D01*
X113952366Y-99968564D01*
X113895253Y-99905134D01*
X113740752Y-99792882D01*
X113734724Y-99790198D01*
X113734722Y-99790197D01*
X113572319Y-99717891D01*
X113572318Y-99717891D01*
X113566288Y-99715206D01*
X113453721Y-99691279D01*
X113385944Y-99676872D01*
X113385939Y-99676872D01*
X113379487Y-99675500D01*
X113188513Y-99675500D01*
X113182061Y-99676872D01*
X113182056Y-99676872D01*
X113114279Y-99691279D01*
X113001712Y-99715206D01*
X112995682Y-99717891D01*
X112995681Y-99717891D01*
X112833278Y-99790197D01*
X112833276Y-99790198D01*
X112827248Y-99792882D01*
X112723060Y-99868579D01*
X112656194Y-99892437D01*
X112587042Y-99876357D01*
X112574944Y-99868582D01*
X112470752Y-99792882D01*
X112464724Y-99790198D01*
X112464722Y-99790197D01*
X112302319Y-99717891D01*
X112302318Y-99717891D01*
X112296288Y-99715206D01*
X112183721Y-99691279D01*
X112115944Y-99676872D01*
X112115939Y-99676872D01*
X112109487Y-99675500D01*
X111918513Y-99675500D01*
X111912061Y-99676872D01*
X111912056Y-99676872D01*
X111844279Y-99691279D01*
X111731712Y-99715206D01*
X111725682Y-99717891D01*
X111725681Y-99717891D01*
X111563278Y-99790197D01*
X111563276Y-99790198D01*
X111557248Y-99792882D01*
X111402747Y-99905134D01*
X111398329Y-99910041D01*
X111398325Y-99910045D01*
X111283064Y-100038056D01*
X111274960Y-100047056D01*
X111271659Y-100052774D01*
X111243119Y-100102206D01*
X111191736Y-100151199D01*
X111122023Y-100164635D01*
X111056112Y-100138249D01*
X111014930Y-100080416D01*
X111008000Y-100039206D01*
X111008000Y-99314000D01*
X118466496Y-99314000D01*
X118486458Y-99503928D01*
X118545473Y-99685556D01*
X118640960Y-99850944D01*
X118645378Y-99855851D01*
X118645379Y-99855852D01*
X118764325Y-99987955D01*
X118768747Y-99992866D01*
X118832528Y-100039206D01*
X118898069Y-100086824D01*
X118923248Y-100105118D01*
X118929276Y-100107802D01*
X118929278Y-100107803D01*
X119091681Y-100180109D01*
X119097712Y-100182794D01*
X119167938Y-100197721D01*
X119278056Y-100221128D01*
X119278061Y-100221128D01*
X119284513Y-100222500D01*
X119475487Y-100222500D01*
X119481939Y-100221128D01*
X119481944Y-100221128D01*
X119592062Y-100197721D01*
X119662288Y-100182794D01*
X119668319Y-100180109D01*
X119830722Y-100107803D01*
X119830724Y-100107802D01*
X119836752Y-100105118D01*
X119861932Y-100086824D01*
X119927472Y-100039206D01*
X119991253Y-99992866D01*
X119995675Y-99987955D01*
X120114621Y-99855852D01*
X120114622Y-99855851D01*
X120119040Y-99850944D01*
X120214527Y-99685556D01*
X120273542Y-99503928D01*
X120293504Y-99314000D01*
X120281326Y-99198132D01*
X120274232Y-99130635D01*
X120274232Y-99130633D01*
X120273542Y-99124072D01*
X120233228Y-99000000D01*
X125586496Y-99000000D01*
X125587186Y-99006565D01*
X125598877Y-99117794D01*
X125606458Y-99189928D01*
X125665473Y-99371556D01*
X125760960Y-99536944D01*
X125765378Y-99541851D01*
X125765379Y-99541852D01*
X125878848Y-99667872D01*
X125888747Y-99678866D01*
X125924489Y-99704834D01*
X126033289Y-99783882D01*
X126043248Y-99791118D01*
X126049276Y-99793802D01*
X126049278Y-99793803D01*
X126209799Y-99865271D01*
X126217712Y-99868794D01*
X126311112Y-99888647D01*
X126398056Y-99907128D01*
X126398061Y-99907128D01*
X126404513Y-99908500D01*
X126595487Y-99908500D01*
X126601939Y-99907128D01*
X126601944Y-99907128D01*
X126688888Y-99888647D01*
X126782288Y-99868794D01*
X126811357Y-99855852D01*
X126869161Y-99830116D01*
X126948752Y-99794680D01*
X127019118Y-99785246D01*
X127051247Y-99794680D01*
X127130839Y-99830116D01*
X127188644Y-99855852D01*
X127217712Y-99868794D01*
X127404513Y-99908500D01*
X127407722Y-99908500D01*
X127472216Y-99935031D01*
X127512848Y-99993252D01*
X127515553Y-100064197D01*
X127502511Y-100096331D01*
X127463076Y-100164635D01*
X127435473Y-100212444D01*
X127376458Y-100394072D01*
X127375768Y-100400633D01*
X127375768Y-100400635D01*
X127369686Y-100458500D01*
X127356496Y-100584000D01*
X127376458Y-100773928D01*
X127435473Y-100955556D01*
X127530960Y-101120944D01*
X127535378Y-101125851D01*
X127535379Y-101125852D01*
X127650643Y-101253866D01*
X127658747Y-101262866D01*
X127713557Y-101302688D01*
X127807903Y-101371235D01*
X127807906Y-101371236D01*
X127813248Y-101375118D01*
X127814426Y-101375643D01*
X127862058Y-101425599D01*
X127875374Y-101496504D01*
X127864496Y-101600000D01*
X127865186Y-101606565D01*
X127871500Y-101666635D01*
X127884458Y-101789928D01*
X127943473Y-101971556D01*
X128038960Y-102136944D01*
X128043378Y-102141851D01*
X128043379Y-102141852D01*
X128084568Y-102187597D01*
X128166747Y-102278866D01*
X128321248Y-102391118D01*
X128327276Y-102393802D01*
X128327278Y-102393803D01*
X128438267Y-102443218D01*
X128495712Y-102468794D01*
X128568535Y-102484273D01*
X128676056Y-102507128D01*
X128676061Y-102507128D01*
X128682513Y-102508500D01*
X128873487Y-102508500D01*
X128879939Y-102507128D01*
X128879944Y-102507128D01*
X128987465Y-102484273D01*
X129060288Y-102468794D01*
X129234752Y-102391118D01*
X129305118Y-102381684D01*
X129337247Y-102391118D01*
X129337248Y-102391118D01*
X129511712Y-102468794D01*
X129584535Y-102484273D01*
X129692056Y-102507128D01*
X129692061Y-102507128D01*
X129698513Y-102508500D01*
X129889487Y-102508500D01*
X129895939Y-102507128D01*
X129895944Y-102507128D01*
X130003465Y-102484273D01*
X130076288Y-102468794D01*
X130133733Y-102443218D01*
X130244722Y-102393803D01*
X130244724Y-102393802D01*
X130250752Y-102391118D01*
X130405253Y-102278866D01*
X130487432Y-102187597D01*
X130528621Y-102141852D01*
X130528622Y-102141851D01*
X130533040Y-102136944D01*
X130628527Y-101971556D01*
X130680917Y-101810318D01*
X132680452Y-101810318D01*
X132681142Y-101816883D01*
X132697399Y-101971556D01*
X132700414Y-102000246D01*
X132759429Y-102181874D01*
X132762732Y-102187596D01*
X132762733Y-102187597D01*
X132778711Y-102215271D01*
X132854916Y-102347262D01*
X132859334Y-102352169D01*
X132859335Y-102352170D01*
X132921426Y-102421129D01*
X132982703Y-102489184D01*
X133048439Y-102536944D01*
X133125424Y-102592877D01*
X133137204Y-102601436D01*
X133143232Y-102604120D01*
X133143234Y-102604121D01*
X133267353Y-102659382D01*
X133311668Y-102679112D01*
X133405068Y-102698965D01*
X133492012Y-102717446D01*
X133492017Y-102717446D01*
X133498469Y-102718818D01*
X133689443Y-102718818D01*
X133695895Y-102717446D01*
X133695900Y-102717446D01*
X133782843Y-102698965D01*
X133876244Y-102679112D01*
X133920559Y-102659382D01*
X134044678Y-102604121D01*
X134044680Y-102604120D01*
X134050708Y-102601436D01*
X134062489Y-102592877D01*
X134139473Y-102536944D01*
X134205209Y-102489184D01*
X134252508Y-102436653D01*
X134831889Y-102436653D01*
X134832579Y-102443218D01*
X134848309Y-102592877D01*
X134851851Y-102626581D01*
X134910866Y-102808209D01*
X135006353Y-102973597D01*
X135010771Y-102978504D01*
X135010772Y-102978505D01*
X135038731Y-103009557D01*
X135134140Y-103115519D01*
X135208440Y-103169501D01*
X135251994Y-103201145D01*
X135288641Y-103227771D01*
X135294669Y-103230455D01*
X135294671Y-103230456D01*
X135457074Y-103302762D01*
X135463105Y-103305447D01*
X135556506Y-103325300D01*
X135643449Y-103343781D01*
X135643454Y-103343781D01*
X135649906Y-103345153D01*
X135840880Y-103345153D01*
X135847332Y-103343781D01*
X135847337Y-103343781D01*
X135934281Y-103325300D01*
X136027681Y-103305447D01*
X136033712Y-103302762D01*
X136196115Y-103230456D01*
X136196117Y-103230455D01*
X136202145Y-103227771D01*
X136238793Y-103201145D01*
X136282346Y-103169501D01*
X136356646Y-103115519D01*
X136452055Y-103009557D01*
X136480014Y-102978505D01*
X136480015Y-102978504D01*
X136484433Y-102973597D01*
X136579920Y-102808209D01*
X136638935Y-102626581D01*
X136642478Y-102592877D01*
X136658207Y-102443218D01*
X136658897Y-102436653D01*
X136653120Y-102381684D01*
X136639625Y-102253288D01*
X136639625Y-102253286D01*
X136638935Y-102246725D01*
X136579920Y-102065097D01*
X136561600Y-102033365D01*
X136515191Y-101952984D01*
X136484433Y-101899709D01*
X136439675Y-101850000D01*
X137386496Y-101850000D01*
X137387186Y-101856565D01*
X137403028Y-102007290D01*
X137406458Y-102039928D01*
X137465473Y-102221556D01*
X137468776Y-102227278D01*
X137468777Y-102227279D01*
X137495726Y-102273955D01*
X137560960Y-102386944D01*
X137688747Y-102528866D01*
X137801581Y-102610845D01*
X137813170Y-102619265D01*
X137856523Y-102675488D01*
X137862598Y-102746224D01*
X137832744Y-102805511D01*
X137735460Y-102913556D01*
X137685111Y-103000763D01*
X137649703Y-103062092D01*
X137639973Y-103078944D01*
X137580958Y-103260572D01*
X137580268Y-103267133D01*
X137580268Y-103267135D01*
X137571528Y-103350290D01*
X137560996Y-103450500D01*
X137561686Y-103457065D01*
X137575857Y-103591891D01*
X137580958Y-103640428D01*
X137639973Y-103822056D01*
X137735460Y-103987444D01*
X137739878Y-103992351D01*
X137739879Y-103992352D01*
X137815391Y-104076217D01*
X137863247Y-104129366D01*
X138017748Y-104241618D01*
X138023776Y-104244302D01*
X138023778Y-104244303D01*
X138163923Y-104306699D01*
X138192212Y-104319294D01*
X138261497Y-104334021D01*
X138372556Y-104357628D01*
X138372561Y-104357628D01*
X138379013Y-104359000D01*
X138569987Y-104359000D01*
X138576440Y-104357628D01*
X138576453Y-104357627D01*
X138719558Y-104327208D01*
X138790348Y-104332609D01*
X138830066Y-104356818D01*
X138830787Y-104357467D01*
X138835209Y-104362378D01*
X138840551Y-104366259D01*
X138840553Y-104366261D01*
X138955160Y-104449528D01*
X138989710Y-104474630D01*
X138995738Y-104477314D01*
X138995740Y-104477315D01*
X139098863Y-104523228D01*
X139164174Y-104552306D01*
X139257574Y-104572159D01*
X139344518Y-104590640D01*
X139344523Y-104590640D01*
X139350975Y-104592012D01*
X139541949Y-104592012D01*
X139548401Y-104590640D01*
X139548406Y-104590640D01*
X139635350Y-104572159D01*
X139728750Y-104552306D01*
X139794061Y-104523228D01*
X139897184Y-104477315D01*
X139897186Y-104477314D01*
X139903214Y-104474630D01*
X139940023Y-104447887D01*
X139975841Y-104421863D01*
X140057715Y-104362378D01*
X140064705Y-104354615D01*
X140181083Y-104225364D01*
X140181084Y-104225363D01*
X140185502Y-104220456D01*
X140272403Y-104069939D01*
X140277685Y-104060791D01*
X140277686Y-104060790D01*
X140280989Y-104055068D01*
X140337869Y-103880011D01*
X140983648Y-103880011D01*
X140984338Y-103886576D01*
X141002649Y-104060791D01*
X141003610Y-104069939D01*
X141062625Y-104251567D01*
X141065928Y-104257289D01*
X141065929Y-104257290D01*
X141092984Y-104304150D01*
X141158112Y-104416955D01*
X141162530Y-104421862D01*
X141162531Y-104421863D01*
X141260966Y-104531186D01*
X141285899Y-104558877D01*
X141440400Y-104671129D01*
X141446428Y-104673813D01*
X141446430Y-104673814D01*
X141608833Y-104746120D01*
X141614864Y-104748805D01*
X141708264Y-104768658D01*
X141795208Y-104787139D01*
X141795213Y-104787139D01*
X141801665Y-104788511D01*
X141992639Y-104788511D01*
X141999091Y-104787139D01*
X141999096Y-104787139D01*
X142086040Y-104768658D01*
X142179440Y-104748805D01*
X142185471Y-104746120D01*
X142347874Y-104673814D01*
X142347876Y-104673813D01*
X142353904Y-104671129D01*
X142508405Y-104558877D01*
X142533338Y-104531186D01*
X142631773Y-104421863D01*
X142631774Y-104421862D01*
X142636192Y-104416955D01*
X142701320Y-104304150D01*
X142728375Y-104257290D01*
X142728376Y-104257289D01*
X142731679Y-104251567D01*
X142790694Y-104069939D01*
X142791656Y-104060791D01*
X142809966Y-103886576D01*
X142810656Y-103880011D01*
X142799360Y-103772537D01*
X142791384Y-103696646D01*
X142791384Y-103696644D01*
X142790694Y-103690083D01*
X142731679Y-103508455D01*
X142726883Y-103500147D01*
X142639493Y-103348785D01*
X142636192Y-103343067D01*
X142575174Y-103275299D01*
X142512827Y-103206056D01*
X142512826Y-103206055D01*
X142508405Y-103201145D01*
X142395896Y-103119402D01*
X142359246Y-103092774D01*
X142359245Y-103092773D01*
X142353904Y-103088893D01*
X142347876Y-103086209D01*
X142347874Y-103086208D01*
X142185471Y-103013902D01*
X142185470Y-103013902D01*
X142179440Y-103011217D01*
X142086039Y-102991364D01*
X141999096Y-102972883D01*
X141999091Y-102972883D01*
X141992639Y-102971511D01*
X141801665Y-102971511D01*
X141795213Y-102972883D01*
X141795208Y-102972883D01*
X141708264Y-102991364D01*
X141614864Y-103011217D01*
X141608834Y-103013902D01*
X141608833Y-103013902D01*
X141446430Y-103086208D01*
X141446428Y-103086209D01*
X141440400Y-103088893D01*
X141435059Y-103092773D01*
X141435058Y-103092774D01*
X141398408Y-103119402D01*
X141285899Y-103201145D01*
X141281478Y-103206055D01*
X141281477Y-103206056D01*
X141219131Y-103275299D01*
X141158112Y-103343067D01*
X141154811Y-103348785D01*
X141067422Y-103500147D01*
X141062625Y-103508455D01*
X141003610Y-103690083D01*
X141002920Y-103696644D01*
X141002920Y-103696646D01*
X140994944Y-103772537D01*
X140983648Y-103880011D01*
X140337869Y-103880011D01*
X140340004Y-103873440D01*
X140349905Y-103779242D01*
X140359276Y-103690077D01*
X140359966Y-103683512D01*
X140351742Y-103605263D01*
X140340694Y-103500147D01*
X140340694Y-103500145D01*
X140340004Y-103493584D01*
X140280989Y-103311956D01*
X140185502Y-103146568D01*
X140157546Y-103115519D01*
X140062137Y-103009557D01*
X140062136Y-103009556D01*
X140057715Y-103004646D01*
X139903214Y-102892394D01*
X139897186Y-102889710D01*
X139897184Y-102889709D01*
X139734781Y-102817403D01*
X139734780Y-102817403D01*
X139728750Y-102814718D01*
X139630353Y-102793803D01*
X139548406Y-102776384D01*
X139548401Y-102776384D01*
X139541949Y-102775012D01*
X139350975Y-102775012D01*
X139344522Y-102776384D01*
X139344509Y-102776385D01*
X139201404Y-102806804D01*
X139130614Y-102801403D01*
X139090896Y-102777194D01*
X139090173Y-102776543D01*
X139085753Y-102771634D01*
X138961330Y-102681235D01*
X138917977Y-102625012D01*
X138911902Y-102554276D01*
X138941756Y-102494989D01*
X139034621Y-102391852D01*
X139034622Y-102391851D01*
X139039040Y-102386944D01*
X139104274Y-102273955D01*
X139131223Y-102227279D01*
X139131224Y-102227278D01*
X139134527Y-102221556D01*
X139193542Y-102039928D01*
X139196973Y-102007290D01*
X139212814Y-101856565D01*
X139213504Y-101850000D01*
X139211004Y-101826217D01*
X139194232Y-101666635D01*
X139194232Y-101666633D01*
X139193542Y-101660072D01*
X139183775Y-101630011D01*
X140983648Y-101630011D01*
X140984338Y-101636576D01*
X141001116Y-101796206D01*
X141003610Y-101819939D01*
X141062625Y-102001567D01*
X141158112Y-102166955D01*
X141162530Y-102171862D01*
X141162531Y-102171863D01*
X141176698Y-102187597D01*
X141285899Y-102308877D01*
X141347846Y-102353884D01*
X141399094Y-102391118D01*
X141440400Y-102421129D01*
X141446428Y-102423813D01*
X141446430Y-102423814D01*
X141605947Y-102494835D01*
X141614864Y-102498805D01*
X141704985Y-102517961D01*
X141795208Y-102537139D01*
X141795213Y-102537139D01*
X141801665Y-102538511D01*
X141992639Y-102538511D01*
X141999091Y-102537139D01*
X141999096Y-102537139D01*
X142089319Y-102517961D01*
X142179440Y-102498805D01*
X142188357Y-102494835D01*
X142347874Y-102423814D01*
X142347876Y-102423813D01*
X142353904Y-102421129D01*
X142395211Y-102391118D01*
X142446458Y-102353884D01*
X142508405Y-102308877D01*
X142617606Y-102187597D01*
X142631773Y-102171863D01*
X142631774Y-102171862D01*
X142636192Y-102166955D01*
X142731679Y-102001567D01*
X142790694Y-101819939D01*
X142793189Y-101796206D01*
X142809966Y-101636576D01*
X142810656Y-101630011D01*
X142804124Y-101567859D01*
X142791384Y-101446646D01*
X142791384Y-101446644D01*
X142790694Y-101440083D01*
X142731679Y-101258455D01*
X142636192Y-101093067D01*
X142607025Y-101060673D01*
X142512827Y-100956056D01*
X142512826Y-100956055D01*
X142508405Y-100951145D01*
X142353904Y-100838893D01*
X142347876Y-100836209D01*
X142347874Y-100836208D01*
X142185471Y-100763902D01*
X142185470Y-100763902D01*
X142179440Y-100761217D01*
X142086039Y-100741364D01*
X141999096Y-100722883D01*
X141999091Y-100722883D01*
X141992639Y-100721511D01*
X141801665Y-100721511D01*
X141795213Y-100722883D01*
X141795208Y-100722883D01*
X141708264Y-100741364D01*
X141614864Y-100761217D01*
X141608834Y-100763902D01*
X141608833Y-100763902D01*
X141446430Y-100836208D01*
X141446428Y-100836209D01*
X141440400Y-100838893D01*
X141285899Y-100951145D01*
X141281478Y-100956055D01*
X141281477Y-100956056D01*
X141187280Y-101060673D01*
X141158112Y-101093067D01*
X141062625Y-101258455D01*
X141003610Y-101440083D01*
X141002920Y-101446644D01*
X141002920Y-101446646D01*
X140990180Y-101567859D01*
X140983648Y-101630011D01*
X139183775Y-101630011D01*
X139134527Y-101478444D01*
X139039040Y-101313056D01*
X138989431Y-101257959D01*
X138915675Y-101176045D01*
X138915674Y-101176044D01*
X138911253Y-101171134D01*
X138756752Y-101058882D01*
X138750724Y-101056198D01*
X138750722Y-101056197D01*
X138588319Y-100983891D01*
X138588318Y-100983891D01*
X138582288Y-100981206D01*
X138488539Y-100961279D01*
X138401944Y-100942872D01*
X138401939Y-100942872D01*
X138395487Y-100941500D01*
X138204513Y-100941500D01*
X138198061Y-100942872D01*
X138198056Y-100942872D01*
X138111461Y-100961279D01*
X138017712Y-100981206D01*
X138011682Y-100983891D01*
X138011681Y-100983891D01*
X137849278Y-101056197D01*
X137849276Y-101056198D01*
X137843248Y-101058882D01*
X137688747Y-101171134D01*
X137684326Y-101176044D01*
X137684325Y-101176045D01*
X137610570Y-101257959D01*
X137560960Y-101313056D01*
X137465473Y-101478444D01*
X137406458Y-101660072D01*
X137405768Y-101666633D01*
X137405768Y-101666635D01*
X137388996Y-101826217D01*
X137386496Y-101850000D01*
X136439675Y-101850000D01*
X136356646Y-101757787D01*
X136262706Y-101689535D01*
X136219352Y-101633312D01*
X136213277Y-101562576D01*
X136246409Y-101499784D01*
X136310570Y-101464352D01*
X136407288Y-101443794D01*
X136418590Y-101438762D01*
X136575722Y-101368803D01*
X136575724Y-101368802D01*
X136581752Y-101366118D01*
X136736253Y-101253866D01*
X136810745Y-101171134D01*
X136859621Y-101116852D01*
X136859622Y-101116851D01*
X136864040Y-101111944D01*
X136959527Y-100946556D01*
X137018542Y-100764928D01*
X137034696Y-100611236D01*
X137037814Y-100581565D01*
X137038504Y-100575000D01*
X137026115Y-100457128D01*
X137019232Y-100391635D01*
X137019232Y-100391633D01*
X137018542Y-100385072D01*
X136959527Y-100203444D01*
X136942502Y-100173955D01*
X136921887Y-100138249D01*
X136864040Y-100038056D01*
X136834999Y-100005802D01*
X136740675Y-99901045D01*
X136740674Y-99901044D01*
X136736253Y-99896134D01*
X136595407Y-99793803D01*
X136587094Y-99787763D01*
X136587093Y-99787762D01*
X136581752Y-99783882D01*
X136575724Y-99781198D01*
X136575722Y-99781197D01*
X136413319Y-99708891D01*
X136413318Y-99708891D01*
X136407288Y-99706206D01*
X136310138Y-99685556D01*
X136226944Y-99667872D01*
X136226939Y-99667872D01*
X136220487Y-99666500D01*
X136029513Y-99666500D01*
X136023061Y-99667872D01*
X136023056Y-99667872D01*
X135939862Y-99685556D01*
X135842712Y-99706206D01*
X135836682Y-99708891D01*
X135836681Y-99708891D01*
X135674278Y-99781197D01*
X135674276Y-99781198D01*
X135668248Y-99783882D01*
X135662907Y-99787762D01*
X135662906Y-99787763D01*
X135654593Y-99793803D01*
X135513747Y-99896134D01*
X135509326Y-99901044D01*
X135509325Y-99901045D01*
X135415002Y-100005802D01*
X135385960Y-100038056D01*
X135328113Y-100138249D01*
X135307499Y-100173955D01*
X135290473Y-100203444D01*
X135231458Y-100385072D01*
X135230768Y-100391633D01*
X135230768Y-100391635D01*
X135223885Y-100457128D01*
X135211496Y-100575000D01*
X135212186Y-100581565D01*
X135215305Y-100611236D01*
X135231458Y-100764928D01*
X135290473Y-100946556D01*
X135385960Y-101111944D01*
X135390378Y-101116851D01*
X135390379Y-101116852D01*
X135439255Y-101171134D01*
X135513747Y-101253866D01*
X135565742Y-101291643D01*
X135607687Y-101322118D01*
X135651041Y-101378341D01*
X135657116Y-101449077D01*
X135623984Y-101511869D01*
X135559823Y-101547301D01*
X135463105Y-101567859D01*
X135457075Y-101570544D01*
X135457074Y-101570544D01*
X135294671Y-101642850D01*
X135294669Y-101642851D01*
X135288641Y-101645535D01*
X135283300Y-101649415D01*
X135283299Y-101649416D01*
X135265870Y-101662079D01*
X135134140Y-101757787D01*
X135006353Y-101899709D01*
X134975595Y-101952984D01*
X134929187Y-102033365D01*
X134910866Y-102065097D01*
X134851851Y-102246725D01*
X134851161Y-102253286D01*
X134851161Y-102253288D01*
X134837666Y-102381684D01*
X134831889Y-102436653D01*
X134252508Y-102436653D01*
X134266486Y-102421129D01*
X134328577Y-102352170D01*
X134328578Y-102352169D01*
X134332996Y-102347262D01*
X134409201Y-102215271D01*
X134425179Y-102187597D01*
X134425180Y-102187596D01*
X134428483Y-102181874D01*
X134487498Y-102000246D01*
X134490514Y-101971556D01*
X134506770Y-101816883D01*
X134507460Y-101810318D01*
X134494765Y-101689535D01*
X134488188Y-101626953D01*
X134488188Y-101626951D01*
X134487498Y-101620390D01*
X134428483Y-101438762D01*
X134421500Y-101426666D01*
X134355906Y-101313056D01*
X134332996Y-101273374D01*
X134314099Y-101252386D01*
X134209631Y-101136363D01*
X134209630Y-101136362D01*
X134205209Y-101131452D01*
X134064136Y-101028956D01*
X134056050Y-101023081D01*
X134056049Y-101023080D01*
X134050708Y-101019200D01*
X134044680Y-101016516D01*
X134044678Y-101016515D01*
X133882275Y-100944209D01*
X133882274Y-100944209D01*
X133876244Y-100941524D01*
X133782844Y-100921671D01*
X133695900Y-100903190D01*
X133695895Y-100903190D01*
X133689443Y-100901818D01*
X133498469Y-100901818D01*
X133492017Y-100903190D01*
X133492012Y-100903190D01*
X133405068Y-100921671D01*
X133311668Y-100941524D01*
X133305638Y-100944209D01*
X133305637Y-100944209D01*
X133143234Y-101016515D01*
X133143232Y-101016516D01*
X133137204Y-101019200D01*
X133131863Y-101023080D01*
X133131862Y-101023081D01*
X133123776Y-101028956D01*
X132982703Y-101131452D01*
X132978282Y-101136362D01*
X132978281Y-101136363D01*
X132873814Y-101252386D01*
X132854916Y-101273374D01*
X132832006Y-101313056D01*
X132766413Y-101426666D01*
X132759429Y-101438762D01*
X132700414Y-101620390D01*
X132699724Y-101626951D01*
X132699724Y-101626953D01*
X132693147Y-101689535D01*
X132680452Y-101810318D01*
X130680917Y-101810318D01*
X130687542Y-101789928D01*
X130700501Y-101666635D01*
X130706814Y-101606565D01*
X130707504Y-101600000D01*
X130696626Y-101496504D01*
X130709398Y-101426666D01*
X130757596Y-101375633D01*
X130758752Y-101375118D01*
X130764094Y-101371236D01*
X130764097Y-101371235D01*
X130858443Y-101302688D01*
X130913253Y-101262866D01*
X130921357Y-101253866D01*
X131036621Y-101125852D01*
X131036622Y-101125851D01*
X131041040Y-101120944D01*
X131136527Y-100955556D01*
X131195542Y-100773928D01*
X131215504Y-100584000D01*
X131202314Y-100458500D01*
X131196232Y-100400635D01*
X131196232Y-100400633D01*
X131195542Y-100394072D01*
X131136527Y-100212444D01*
X131041040Y-100047056D01*
X131032937Y-100038056D01*
X130917675Y-99910045D01*
X130917671Y-99910041D01*
X130913253Y-99905134D01*
X130758752Y-99792882D01*
X130752724Y-99790198D01*
X130752722Y-99790197D01*
X130590319Y-99717891D01*
X130590318Y-99717891D01*
X130584288Y-99715206D01*
X130471721Y-99691279D01*
X130403944Y-99676872D01*
X130403939Y-99676872D01*
X130397487Y-99675500D01*
X130206513Y-99675500D01*
X130200061Y-99676872D01*
X130200056Y-99676872D01*
X130132279Y-99691279D01*
X130019712Y-99715206D01*
X129845248Y-99792882D01*
X129774882Y-99802316D01*
X129742753Y-99792882D01*
X129742752Y-99792882D01*
X129568288Y-99715206D01*
X129455721Y-99691279D01*
X129387944Y-99676872D01*
X129387939Y-99676872D01*
X129381487Y-99675500D01*
X129190513Y-99675500D01*
X129184061Y-99676872D01*
X129184056Y-99676872D01*
X129116279Y-99691279D01*
X129003712Y-99715206D01*
X128829248Y-99792882D01*
X128758882Y-99802316D01*
X128726753Y-99792882D01*
X128726752Y-99792882D01*
X128552288Y-99715206D01*
X128365487Y-99675500D01*
X128362278Y-99675500D01*
X128297784Y-99648969D01*
X128257152Y-99590748D01*
X128255598Y-99550000D01*
X131761496Y-99550000D01*
X131762186Y-99556565D01*
X131778860Y-99715206D01*
X131781458Y-99739928D01*
X131840473Y-99921556D01*
X131935960Y-100086944D01*
X131940378Y-100091851D01*
X131940379Y-100091852D01*
X132056780Y-100221128D01*
X132063747Y-100228866D01*
X132218248Y-100341118D01*
X132224276Y-100343802D01*
X132224278Y-100343803D01*
X132369591Y-100408500D01*
X132392712Y-100418794D01*
X132486112Y-100438647D01*
X132573056Y-100457128D01*
X132573061Y-100457128D01*
X132579513Y-100458500D01*
X132770487Y-100458500D01*
X132776939Y-100457128D01*
X132776944Y-100457128D01*
X132863887Y-100438647D01*
X132957288Y-100418794D01*
X132980409Y-100408500D01*
X133125722Y-100343803D01*
X133125724Y-100343802D01*
X133131752Y-100341118D01*
X133286253Y-100228866D01*
X133293220Y-100221128D01*
X133409621Y-100091852D01*
X133409622Y-100091851D01*
X133414040Y-100086944D01*
X133509527Y-99921556D01*
X133568542Y-99739928D01*
X133571141Y-99715206D01*
X133587814Y-99556565D01*
X133588504Y-99550000D01*
X133583249Y-99500000D01*
X140836496Y-99500000D01*
X140837186Y-99506565D01*
X140854942Y-99675500D01*
X140856458Y-99689928D01*
X140915473Y-99871556D01*
X140918776Y-99877278D01*
X140918777Y-99877279D01*
X140936526Y-99908021D01*
X141010960Y-100036944D01*
X141015378Y-100041851D01*
X141015379Y-100041852D01*
X141125933Y-100164635D01*
X141138747Y-100178866D01*
X141293248Y-100291118D01*
X141299276Y-100293802D01*
X141299278Y-100293803D01*
X141396833Y-100337237D01*
X141467712Y-100368794D01*
X141561113Y-100388647D01*
X141648056Y-100407128D01*
X141648061Y-100407128D01*
X141654513Y-100408500D01*
X141845487Y-100408500D01*
X141851939Y-100407128D01*
X141851944Y-100407128D01*
X141938887Y-100388647D01*
X142032288Y-100368794D01*
X142103167Y-100337237D01*
X142200722Y-100293803D01*
X142200724Y-100293802D01*
X142206752Y-100291118D01*
X142361253Y-100178866D01*
X142374067Y-100164635D01*
X142484621Y-100041852D01*
X142484622Y-100041851D01*
X142489040Y-100036944D01*
X142563474Y-99908021D01*
X142581223Y-99877279D01*
X142581224Y-99877278D01*
X142584527Y-99871556D01*
X142643542Y-99689928D01*
X142645059Y-99675500D01*
X142662814Y-99506565D01*
X142663504Y-99500000D01*
X142643542Y-99310072D01*
X142584527Y-99128444D01*
X142489040Y-98963056D01*
X142361253Y-98821134D01*
X142206752Y-98708882D01*
X142200724Y-98706198D01*
X142200722Y-98706197D01*
X142038319Y-98633891D01*
X142038318Y-98633891D01*
X142032288Y-98631206D01*
X141938888Y-98611353D01*
X141851944Y-98592872D01*
X141851939Y-98592872D01*
X141845487Y-98591500D01*
X141654513Y-98591500D01*
X141648061Y-98592872D01*
X141648056Y-98592872D01*
X141561112Y-98611353D01*
X141467712Y-98631206D01*
X141461682Y-98633891D01*
X141461681Y-98633891D01*
X141299278Y-98706197D01*
X141299276Y-98706198D01*
X141293248Y-98708882D01*
X141138747Y-98821134D01*
X141010960Y-98963056D01*
X140915473Y-99128444D01*
X140856458Y-99310072D01*
X140836496Y-99500000D01*
X133583249Y-99500000D01*
X133568542Y-99360072D01*
X133509527Y-99178444D01*
X133414040Y-99013056D01*
X133408196Y-99006565D01*
X133290675Y-98876045D01*
X133290674Y-98876044D01*
X133286253Y-98871134D01*
X133187157Y-98799136D01*
X133137094Y-98762763D01*
X133137093Y-98762762D01*
X133131752Y-98758882D01*
X133125724Y-98756198D01*
X133125722Y-98756197D01*
X132963319Y-98683891D01*
X132963318Y-98683891D01*
X132957288Y-98681206D01*
X132863888Y-98661353D01*
X132776944Y-98642872D01*
X132776939Y-98642872D01*
X132770487Y-98641500D01*
X132579513Y-98641500D01*
X132573061Y-98642872D01*
X132573056Y-98642872D01*
X132486112Y-98661353D01*
X132392712Y-98681206D01*
X132386682Y-98683891D01*
X132386681Y-98683891D01*
X132224278Y-98756197D01*
X132224276Y-98756198D01*
X132218248Y-98758882D01*
X132212907Y-98762762D01*
X132212906Y-98762763D01*
X132162843Y-98799136D01*
X132063747Y-98871134D01*
X132059326Y-98876044D01*
X132059325Y-98876045D01*
X131941805Y-99006565D01*
X131935960Y-99013056D01*
X131840473Y-99178444D01*
X131781458Y-99360072D01*
X131761496Y-99550000D01*
X128255598Y-99550000D01*
X128254447Y-99519803D01*
X128267489Y-99487669D01*
X128331223Y-99377279D01*
X128331224Y-99377278D01*
X128334527Y-99371556D01*
X128393542Y-99189928D01*
X128401124Y-99117794D01*
X128412814Y-99006565D01*
X128413504Y-99000000D01*
X128402228Y-98892716D01*
X128394232Y-98816635D01*
X128394232Y-98816633D01*
X128393542Y-98810072D01*
X128334527Y-98628444D01*
X128325790Y-98613310D01*
X128275821Y-98526763D01*
X128239040Y-98463056D01*
X128225386Y-98447891D01*
X128115675Y-98326045D01*
X128115674Y-98326044D01*
X128111253Y-98321134D01*
X128012157Y-98249136D01*
X127962094Y-98212763D01*
X127962093Y-98212762D01*
X127956752Y-98208882D01*
X127950724Y-98206198D01*
X127950722Y-98206197D01*
X127788319Y-98133891D01*
X127788318Y-98133891D01*
X127782288Y-98131206D01*
X127688887Y-98111353D01*
X127601944Y-98092872D01*
X127601939Y-98092872D01*
X127595487Y-98091500D01*
X127404513Y-98091500D01*
X127398061Y-98092872D01*
X127398056Y-98092872D01*
X127311113Y-98111353D01*
X127217712Y-98131206D01*
X127051248Y-98205320D01*
X126980882Y-98214754D01*
X126948753Y-98205320D01*
X126782288Y-98131206D01*
X126688887Y-98111353D01*
X126601944Y-98092872D01*
X126601939Y-98092872D01*
X126595487Y-98091500D01*
X126404513Y-98091500D01*
X126398061Y-98092872D01*
X126398056Y-98092872D01*
X126311113Y-98111353D01*
X126217712Y-98131206D01*
X126211682Y-98133891D01*
X126211681Y-98133891D01*
X126049278Y-98206197D01*
X126049276Y-98206198D01*
X126043248Y-98208882D01*
X126037907Y-98212762D01*
X126037906Y-98212763D01*
X125987843Y-98249136D01*
X125888747Y-98321134D01*
X125884326Y-98326044D01*
X125884325Y-98326045D01*
X125774615Y-98447891D01*
X125760960Y-98463056D01*
X125724179Y-98526763D01*
X125674211Y-98613310D01*
X125665473Y-98628444D01*
X125606458Y-98810072D01*
X125605768Y-98816633D01*
X125605768Y-98816635D01*
X125597772Y-98892716D01*
X125586496Y-99000000D01*
X120233228Y-99000000D01*
X120214527Y-98942444D01*
X120185817Y-98892716D01*
X120144488Y-98821134D01*
X120119040Y-98777056D01*
X120100259Y-98756197D01*
X119995675Y-98640045D01*
X119995674Y-98640044D01*
X119991253Y-98635134D01*
X119836752Y-98522882D01*
X119830724Y-98520198D01*
X119830722Y-98520197D01*
X119668319Y-98447891D01*
X119668318Y-98447891D01*
X119662288Y-98445206D01*
X119568887Y-98425353D01*
X119481944Y-98406872D01*
X119481939Y-98406872D01*
X119475487Y-98405500D01*
X119284513Y-98405500D01*
X119278061Y-98406872D01*
X119278056Y-98406872D01*
X119191113Y-98425353D01*
X119097712Y-98445206D01*
X119091682Y-98447891D01*
X119091681Y-98447891D01*
X118929278Y-98520197D01*
X118929276Y-98520198D01*
X118923248Y-98522882D01*
X118768747Y-98635134D01*
X118764326Y-98640044D01*
X118764325Y-98640045D01*
X118659742Y-98756197D01*
X118640960Y-98777056D01*
X118615512Y-98821134D01*
X118574184Y-98892716D01*
X118545473Y-98942444D01*
X118486458Y-99124072D01*
X118485768Y-99130633D01*
X118485768Y-99130635D01*
X118478674Y-99198132D01*
X118466496Y-99314000D01*
X111008000Y-99314000D01*
X111008000Y-97275000D01*
X134011496Y-97275000D01*
X134031458Y-97464928D01*
X134090473Y-97646556D01*
X134185960Y-97811944D01*
X134313747Y-97953866D01*
X134468248Y-98066118D01*
X134474276Y-98068802D01*
X134474278Y-98068803D01*
X134620469Y-98133891D01*
X134642712Y-98143794D01*
X134736113Y-98163647D01*
X134823056Y-98182128D01*
X134823061Y-98182128D01*
X134829513Y-98183500D01*
X135020487Y-98183500D01*
X135026939Y-98182128D01*
X135026944Y-98182128D01*
X135113888Y-98163647D01*
X135207288Y-98143794D01*
X135229531Y-98133891D01*
X135375722Y-98068803D01*
X135375724Y-98068802D01*
X135381752Y-98066118D01*
X135536253Y-97953866D01*
X135664040Y-97811944D01*
X135759527Y-97646556D01*
X135818542Y-97464928D01*
X135838504Y-97275000D01*
X135818542Y-97085072D01*
X135759527Y-96903444D01*
X135728671Y-96850000D01*
X137111496Y-96850000D01*
X137112186Y-96856565D01*
X137120951Y-96939955D01*
X137131458Y-97039928D01*
X137190473Y-97221556D01*
X137285960Y-97386944D01*
X137413747Y-97528866D01*
X137568248Y-97641118D01*
X137574276Y-97643802D01*
X137574278Y-97643803D01*
X137593316Y-97652279D01*
X137742712Y-97718794D01*
X137836113Y-97738647D01*
X137923056Y-97757128D01*
X137923061Y-97757128D01*
X137929513Y-97758500D01*
X138120487Y-97758500D01*
X138126939Y-97757128D01*
X138126944Y-97757128D01*
X138213887Y-97738647D01*
X138307288Y-97718794D01*
X138456684Y-97652279D01*
X138475722Y-97643803D01*
X138475724Y-97643802D01*
X138481752Y-97641118D01*
X138636253Y-97528866D01*
X138764040Y-97386944D01*
X138859527Y-97221556D01*
X138918542Y-97039928D01*
X138929050Y-96939955D01*
X138937814Y-96856565D01*
X138938504Y-96850000D01*
X138918542Y-96660072D01*
X138859527Y-96478444D01*
X138764040Y-96313056D01*
X138715760Y-96259435D01*
X138640675Y-96176045D01*
X138640674Y-96176044D01*
X138636253Y-96171134D01*
X138481752Y-96058882D01*
X138475724Y-96056198D01*
X138475722Y-96056197D01*
X138313319Y-95983891D01*
X138313318Y-95983891D01*
X138307288Y-95981206D01*
X138213888Y-95961353D01*
X138126944Y-95942872D01*
X138126939Y-95942872D01*
X138120487Y-95941500D01*
X137929513Y-95941500D01*
X137923061Y-95942872D01*
X137923056Y-95942872D01*
X137836112Y-95961353D01*
X137742712Y-95981206D01*
X137736682Y-95983891D01*
X137736681Y-95983891D01*
X137574278Y-96056197D01*
X137574276Y-96056198D01*
X137568248Y-96058882D01*
X137413747Y-96171134D01*
X137409326Y-96176044D01*
X137409325Y-96176045D01*
X137334241Y-96259435D01*
X137285960Y-96313056D01*
X137190473Y-96478444D01*
X137131458Y-96660072D01*
X137111496Y-96850000D01*
X135728671Y-96850000D01*
X135664040Y-96738056D01*
X135573550Y-96637556D01*
X135540675Y-96601045D01*
X135540674Y-96601044D01*
X135536253Y-96596134D01*
X135381752Y-96483882D01*
X135375724Y-96481198D01*
X135375722Y-96481197D01*
X135213319Y-96408891D01*
X135213318Y-96408891D01*
X135207288Y-96406206D01*
X135113887Y-96386353D01*
X135026944Y-96367872D01*
X135026939Y-96367872D01*
X135020487Y-96366500D01*
X134829513Y-96366500D01*
X134823061Y-96367872D01*
X134823056Y-96367872D01*
X134736113Y-96386353D01*
X134642712Y-96406206D01*
X134636682Y-96408891D01*
X134636681Y-96408891D01*
X134474278Y-96481197D01*
X134474276Y-96481198D01*
X134468248Y-96483882D01*
X134313747Y-96596134D01*
X134309326Y-96601044D01*
X134309325Y-96601045D01*
X134276451Y-96637556D01*
X134185960Y-96738056D01*
X134090473Y-96903444D01*
X134031458Y-97085072D01*
X134011496Y-97275000D01*
X111008000Y-97275000D01*
X111008000Y-96266000D01*
X117196496Y-96266000D01*
X117216458Y-96455928D01*
X117275473Y-96637556D01*
X117370960Y-96802944D01*
X117375378Y-96807851D01*
X117375379Y-96807852D01*
X117475000Y-96918492D01*
X117498747Y-96944866D01*
X117653248Y-97057118D01*
X117659276Y-97059802D01*
X117659278Y-97059803D01*
X117821681Y-97132109D01*
X117827712Y-97134794D01*
X117921113Y-97154647D01*
X118008056Y-97173128D01*
X118008061Y-97173128D01*
X118014513Y-97174500D01*
X118205487Y-97174500D01*
X118211939Y-97173128D01*
X118211944Y-97173128D01*
X118298887Y-97154647D01*
X118392288Y-97134794D01*
X118398319Y-97132109D01*
X118560722Y-97059803D01*
X118560724Y-97059802D01*
X118566752Y-97057118D01*
X118670940Y-96981421D01*
X118737806Y-96957563D01*
X118806958Y-96973643D01*
X118819056Y-96981418D01*
X118923248Y-97057118D01*
X118929276Y-97059802D01*
X118929278Y-97059803D01*
X119091681Y-97132109D01*
X119097712Y-97134794D01*
X119191113Y-97154647D01*
X119278056Y-97173128D01*
X119278061Y-97173128D01*
X119284513Y-97174500D01*
X119475487Y-97174500D01*
X119481939Y-97173128D01*
X119481944Y-97173128D01*
X119568887Y-97154647D01*
X119662288Y-97134794D01*
X119668319Y-97132109D01*
X119830722Y-97059803D01*
X119830724Y-97059802D01*
X119836752Y-97057118D01*
X119991253Y-96944866D01*
X120015000Y-96918492D01*
X120114621Y-96807852D01*
X120114622Y-96807851D01*
X120119040Y-96802944D01*
X120214527Y-96637556D01*
X120273542Y-96455928D01*
X120293504Y-96266000D01*
X120292814Y-96259435D01*
X120274232Y-96082635D01*
X120274232Y-96082633D01*
X120273542Y-96076072D01*
X120214527Y-95894444D01*
X120119040Y-95729056D01*
X119991253Y-95587134D01*
X119836752Y-95474882D01*
X119830724Y-95472198D01*
X119830722Y-95472197D01*
X119668319Y-95399891D01*
X119668318Y-95399891D01*
X119662288Y-95397206D01*
X119568888Y-95377353D01*
X119481944Y-95358872D01*
X119481939Y-95358872D01*
X119475487Y-95357500D01*
X119284513Y-95357500D01*
X119278061Y-95358872D01*
X119278056Y-95358872D01*
X119191113Y-95377353D01*
X119097712Y-95397206D01*
X119091682Y-95399891D01*
X119091681Y-95399891D01*
X118929278Y-95472197D01*
X118929276Y-95472198D01*
X118923248Y-95474882D01*
X118819060Y-95550579D01*
X118752194Y-95574437D01*
X118683042Y-95558357D01*
X118670944Y-95550582D01*
X118566752Y-95474882D01*
X118560724Y-95472198D01*
X118560722Y-95472197D01*
X118398319Y-95399891D01*
X118398318Y-95399891D01*
X118392288Y-95397206D01*
X118298888Y-95377353D01*
X118211944Y-95358872D01*
X118211939Y-95358872D01*
X118205487Y-95357500D01*
X118014513Y-95357500D01*
X118008061Y-95358872D01*
X118008056Y-95358872D01*
X117921113Y-95377353D01*
X117827712Y-95397206D01*
X117821682Y-95399891D01*
X117821681Y-95399891D01*
X117659278Y-95472197D01*
X117659276Y-95472198D01*
X117653248Y-95474882D01*
X117498747Y-95587134D01*
X117370960Y-95729056D01*
X117275473Y-95894444D01*
X117216458Y-96076072D01*
X117215768Y-96082633D01*
X117215768Y-96082635D01*
X117197186Y-96259435D01*
X117196496Y-96266000D01*
X111008000Y-96266000D01*
X111008000Y-93562565D01*
X119083964Y-93562565D01*
X119101437Y-93728807D01*
X119104167Y-93741650D01*
X119155819Y-93900617D01*
X119161165Y-93912625D01*
X119177363Y-93940680D01*
X119187569Y-93950411D01*
X119195590Y-93947200D01*
X119573978Y-93568812D01*
X119581592Y-93554868D01*
X119581461Y-93553035D01*
X119577210Y-93546420D01*
X119199233Y-93168443D01*
X119186853Y-93161683D01*
X119179938Y-93166859D01*
X119161165Y-93199375D01*
X119155819Y-93211383D01*
X119104167Y-93370350D01*
X119101437Y-93383193D01*
X119083964Y-93549435D01*
X119083964Y-93562565D01*
X111008000Y-93562565D01*
X111008000Y-92797242D01*
X119550493Y-92797242D01*
X119552090Y-92802880D01*
X120216115Y-93466905D01*
X120250141Y-93529217D01*
X120245076Y-93600032D01*
X120216115Y-93645095D01*
X119557500Y-94303710D01*
X119550740Y-94316090D01*
X119554251Y-94320780D01*
X119673372Y-94373816D01*
X119685860Y-94377873D01*
X119849364Y-94412628D01*
X119862424Y-94414000D01*
X120029576Y-94414000D01*
X120042636Y-94412628D01*
X120206137Y-94377874D01*
X120218633Y-94373814D01*
X120294752Y-94339924D01*
X120365119Y-94330490D01*
X120397248Y-94339924D01*
X120473367Y-94373814D01*
X120485863Y-94377874D01*
X120649364Y-94412628D01*
X120662424Y-94414000D01*
X120829576Y-94414000D01*
X120842636Y-94412628D01*
X121006140Y-94377873D01*
X121018628Y-94373816D01*
X121130763Y-94323890D01*
X121141507Y-94314758D01*
X121139910Y-94309120D01*
X120475885Y-93645095D01*
X120441859Y-93582783D01*
X120446924Y-93511968D01*
X120475885Y-93466905D01*
X120656905Y-93285885D01*
X120719217Y-93251859D01*
X120790032Y-93256924D01*
X120835095Y-93285885D01*
X121492767Y-93943557D01*
X121505147Y-93950317D01*
X121512062Y-93945141D01*
X121530835Y-93912625D01*
X121536180Y-93900620D01*
X121568863Y-93800033D01*
X121608937Y-93741428D01*
X121674334Y-93713791D01*
X121739945Y-93723863D01*
X121853217Y-93774295D01*
X121859248Y-93776980D01*
X121938395Y-93793803D01*
X122029311Y-93813128D01*
X122029315Y-93813128D01*
X122035768Y-93814500D01*
X122216232Y-93814500D01*
X122222685Y-93813128D01*
X122222689Y-93813128D01*
X122313605Y-93793803D01*
X122392752Y-93776980D01*
X122554751Y-93704853D01*
X122625118Y-93695419D01*
X122657248Y-93704853D01*
X122819248Y-93776980D01*
X122898395Y-93793803D01*
X122989311Y-93813128D01*
X122989315Y-93813128D01*
X122995768Y-93814500D01*
X123176232Y-93814500D01*
X123182685Y-93813128D01*
X123182689Y-93813128D01*
X123273605Y-93793803D01*
X123352752Y-93776980D01*
X123403704Y-93754295D01*
X123511587Y-93706262D01*
X123511588Y-93706261D01*
X123517615Y-93703578D01*
X123522936Y-93699712D01*
X123591923Y-93682976D01*
X123637177Y-93693726D01*
X123744816Y-93741650D01*
X123779248Y-93756980D01*
X123860710Y-93774295D01*
X123949311Y-93793128D01*
X123949315Y-93793128D01*
X123955768Y-93794500D01*
X124136232Y-93794500D01*
X124142685Y-93793128D01*
X124142689Y-93793128D01*
X124231290Y-93774295D01*
X124312752Y-93756980D01*
X124347184Y-93741650D01*
X124471585Y-93686263D01*
X124471587Y-93686262D01*
X124477615Y-93683578D01*
X124482957Y-93679697D01*
X124618269Y-93581387D01*
X124618271Y-93581385D01*
X124623613Y-93577504D01*
X124645645Y-93553035D01*
X124738418Y-93450000D01*
X125586496Y-93450000D01*
X125606458Y-93639928D01*
X125665473Y-93821556D01*
X125668776Y-93827278D01*
X125668777Y-93827279D01*
X125681197Y-93848791D01*
X125760960Y-93986944D01*
X125765378Y-93991851D01*
X125765379Y-93991852D01*
X125856561Y-94093120D01*
X125888747Y-94128866D01*
X125964372Y-94183811D01*
X126025394Y-94228146D01*
X126043248Y-94241118D01*
X126049276Y-94243802D01*
X126049278Y-94243803D01*
X126211681Y-94316109D01*
X126217712Y-94318794D01*
X126311112Y-94338647D01*
X126398056Y-94357128D01*
X126398061Y-94357128D01*
X126404513Y-94358500D01*
X126595487Y-94358500D01*
X126601939Y-94357128D01*
X126601944Y-94357128D01*
X126688888Y-94338647D01*
X126782288Y-94318794D01*
X126788319Y-94316109D01*
X126950722Y-94243803D01*
X126950724Y-94243802D01*
X126956752Y-94241118D01*
X126974607Y-94228146D01*
X127035628Y-94183811D01*
X127111253Y-94128866D01*
X127156364Y-94078765D01*
X127216810Y-94041525D01*
X127287793Y-94042877D01*
X127343636Y-94078765D01*
X127388747Y-94128866D01*
X127464372Y-94183811D01*
X127525394Y-94228146D01*
X127543248Y-94241118D01*
X127549276Y-94243802D01*
X127549278Y-94243803D01*
X127711681Y-94316109D01*
X127717712Y-94318794D01*
X127811112Y-94338647D01*
X127898056Y-94357128D01*
X127898061Y-94357128D01*
X127904513Y-94358500D01*
X128095487Y-94358500D01*
X128101939Y-94357128D01*
X128101944Y-94357128D01*
X128188888Y-94338647D01*
X128282288Y-94318794D01*
X128288319Y-94316109D01*
X128450722Y-94243803D01*
X128450724Y-94243802D01*
X128456752Y-94241118D01*
X128474607Y-94228146D01*
X128535628Y-94183811D01*
X128611253Y-94128866D01*
X128643439Y-94093120D01*
X128734621Y-93991852D01*
X128734622Y-93991851D01*
X128739040Y-93986944D01*
X128818803Y-93848791D01*
X128831223Y-93827279D01*
X128831224Y-93827278D01*
X128834527Y-93821556D01*
X128893542Y-93639928D01*
X128913504Y-93450000D01*
X128895888Y-93282395D01*
X128908660Y-93212557D01*
X128957162Y-93160710D01*
X129025995Y-93143316D01*
X129072447Y-93154118D01*
X129201204Y-93211444D01*
X129217712Y-93218794D01*
X129311112Y-93238647D01*
X129398056Y-93257128D01*
X129398061Y-93257128D01*
X129404513Y-93258500D01*
X129595487Y-93258500D01*
X129601939Y-93257128D01*
X129601944Y-93257128D01*
X129688888Y-93238647D01*
X129782288Y-93218794D01*
X129796297Y-93212557D01*
X129950722Y-93143803D01*
X129950724Y-93143802D01*
X129956752Y-93141118D01*
X129992047Y-93115475D01*
X130087593Y-93046056D01*
X130111253Y-93028866D01*
X130200781Y-92929435D01*
X130234621Y-92891852D01*
X130234622Y-92891851D01*
X130239040Y-92886944D01*
X130334527Y-92721556D01*
X130393542Y-92539928D01*
X130396990Y-92507128D01*
X130412814Y-92356565D01*
X130413504Y-92350000D01*
X130409997Y-92316635D01*
X130394232Y-92166635D01*
X130394232Y-92166633D01*
X130393542Y-92160072D01*
X130334527Y-91978444D01*
X130293804Y-91907910D01*
X130277066Y-91838915D01*
X130300286Y-91771823D01*
X130356093Y-91727936D01*
X130426768Y-91721187D01*
X130476983Y-91742974D01*
X130487220Y-91750411D01*
X130537268Y-91786773D01*
X130543248Y-91791118D01*
X130549276Y-91793802D01*
X130549278Y-91793803D01*
X130667043Y-91846235D01*
X130717712Y-91868794D01*
X130811113Y-91888647D01*
X130898056Y-91907128D01*
X130898061Y-91907128D01*
X130904513Y-91908500D01*
X131095487Y-91908500D01*
X131101939Y-91907128D01*
X131101944Y-91907128D01*
X131188888Y-91888647D01*
X131282288Y-91868794D01*
X131332957Y-91846235D01*
X131450722Y-91793803D01*
X131450724Y-91793802D01*
X131456752Y-91791118D01*
X131462733Y-91786773D01*
X131536125Y-91733450D01*
X131611253Y-91678866D01*
X131622740Y-91666109D01*
X131655317Y-91629928D01*
X131656364Y-91628765D01*
X131716810Y-91591525D01*
X131787793Y-91592877D01*
X131843636Y-91628765D01*
X131844683Y-91629928D01*
X131877261Y-91666109D01*
X131888747Y-91678866D01*
X131963875Y-91733450D01*
X132037268Y-91786773D01*
X132043248Y-91791118D01*
X132049276Y-91793802D01*
X132049278Y-91793803D01*
X132167043Y-91846235D01*
X132217712Y-91868794D01*
X132255156Y-91876753D01*
X132317629Y-91910482D01*
X132351951Y-91972631D01*
X132347223Y-92043470D01*
X132304947Y-92100508D01*
X132255156Y-92123247D01*
X132217712Y-92131206D01*
X132211682Y-92133891D01*
X132211681Y-92133891D01*
X132049278Y-92206197D01*
X132049276Y-92206198D01*
X132043248Y-92208882D01*
X132037907Y-92212762D01*
X132037906Y-92212763D01*
X132012643Y-92231118D01*
X131888747Y-92321134D01*
X131884326Y-92326044D01*
X131884325Y-92326045D01*
X131788808Y-92432128D01*
X131760960Y-92463056D01*
X131735840Y-92506565D01*
X131675442Y-92611178D01*
X131665473Y-92628444D01*
X131606458Y-92810072D01*
X131605768Y-92816633D01*
X131605768Y-92816635D01*
X131589124Y-92975000D01*
X131586496Y-93000000D01*
X131606458Y-93189928D01*
X131665473Y-93371556D01*
X131668776Y-93377278D01*
X131668777Y-93377279D01*
X131675609Y-93389112D01*
X131760960Y-93536944D01*
X131765378Y-93541851D01*
X131765379Y-93541852D01*
X131870341Y-93658424D01*
X131888747Y-93678866D01*
X132043248Y-93791118D01*
X132049276Y-93793802D01*
X132049278Y-93793803D01*
X132172784Y-93848791D01*
X132217712Y-93868794D01*
X132311113Y-93888647D01*
X132398056Y-93907128D01*
X132398061Y-93907128D01*
X132404513Y-93908500D01*
X132595487Y-93908500D01*
X132601939Y-93907128D01*
X132601944Y-93907128D01*
X132688887Y-93888647D01*
X132782288Y-93868794D01*
X132827216Y-93848791D01*
X132950722Y-93793803D01*
X132950724Y-93793802D01*
X132956752Y-93791118D01*
X133111253Y-93678866D01*
X133134917Y-93652585D01*
X133140828Y-93646020D01*
X133156364Y-93628765D01*
X133216810Y-93591525D01*
X133287793Y-93592877D01*
X133343636Y-93628765D01*
X133359172Y-93646020D01*
X133365084Y-93652585D01*
X133388747Y-93678866D01*
X133543248Y-93791118D01*
X133549276Y-93793802D01*
X133549278Y-93793803D01*
X133672784Y-93848791D01*
X133717712Y-93868794D01*
X133811113Y-93888647D01*
X133898056Y-93907128D01*
X133898061Y-93907128D01*
X133904513Y-93908500D01*
X134095487Y-93908500D01*
X134101939Y-93907128D01*
X134101944Y-93907128D01*
X134188887Y-93888647D01*
X134282288Y-93868794D01*
X134327216Y-93848791D01*
X134450722Y-93793803D01*
X134450724Y-93793802D01*
X134456752Y-93791118D01*
X134611253Y-93678866D01*
X134634917Y-93652585D01*
X134640828Y-93646020D01*
X134656364Y-93628765D01*
X134716810Y-93591525D01*
X134787793Y-93592877D01*
X134843636Y-93628765D01*
X134859172Y-93646020D01*
X134865084Y-93652585D01*
X134888747Y-93678866D01*
X135043248Y-93791118D01*
X135049276Y-93793802D01*
X135049278Y-93793803D01*
X135172784Y-93848791D01*
X135217712Y-93868794D01*
X135311113Y-93888647D01*
X135398056Y-93907128D01*
X135398061Y-93907128D01*
X135404513Y-93908500D01*
X135595487Y-93908500D01*
X135601939Y-93907128D01*
X135601944Y-93907128D01*
X135688887Y-93888647D01*
X135782288Y-93868794D01*
X135827216Y-93848791D01*
X135950722Y-93793803D01*
X135950724Y-93793802D01*
X135956752Y-93791118D01*
X136111253Y-93678866D01*
X136129659Y-93658424D01*
X136234621Y-93541852D01*
X136234622Y-93541851D01*
X136239040Y-93536944D01*
X136324391Y-93389112D01*
X136331223Y-93377279D01*
X136331224Y-93377278D01*
X136334527Y-93371556D01*
X136393542Y-93189928D01*
X136413504Y-93000000D01*
X136410876Y-92975000D01*
X136394232Y-92816635D01*
X136394232Y-92816633D01*
X136393542Y-92810072D01*
X136349492Y-92674500D01*
X143386496Y-92674500D01*
X143387186Y-92681065D01*
X143399397Y-92797242D01*
X143406458Y-92864428D01*
X143465473Y-93046056D01*
X143560960Y-93211444D01*
X143603330Y-93258500D01*
X143609962Y-93265866D01*
X143640679Y-93329874D01*
X143636158Y-93389112D01*
X143612262Y-93462657D01*
X143592300Y-93652585D01*
X143592990Y-93659150D01*
X143609174Y-93813128D01*
X143612262Y-93842513D01*
X143671277Y-94024141D01*
X143766764Y-94189529D01*
X143771182Y-94194436D01*
X143771183Y-94194437D01*
X143883221Y-94318868D01*
X143894551Y-94331451D01*
X144049052Y-94443703D01*
X144055080Y-94446387D01*
X144055082Y-94446388D01*
X144217485Y-94518694D01*
X144223516Y-94521379D01*
X144316917Y-94541232D01*
X144403860Y-94559713D01*
X144403865Y-94559713D01*
X144410317Y-94561085D01*
X144601291Y-94561085D01*
X144607743Y-94559713D01*
X144607748Y-94559713D01*
X144694691Y-94541232D01*
X144788092Y-94521379D01*
X144794123Y-94518694D01*
X144956526Y-94446388D01*
X144956528Y-94446387D01*
X144962556Y-94443703D01*
X145117057Y-94331451D01*
X145128387Y-94318868D01*
X145240425Y-94194437D01*
X145240426Y-94194436D01*
X145244844Y-94189529D01*
X145340331Y-94024141D01*
X145399346Y-93842513D01*
X145402435Y-93813128D01*
X145418618Y-93659150D01*
X145419308Y-93652585D01*
X145399346Y-93462657D01*
X145340331Y-93281029D01*
X145328232Y-93260072D01*
X145287734Y-93189928D01*
X145244844Y-93115641D01*
X145195841Y-93061218D01*
X145165125Y-92997211D01*
X145169646Y-92937973D01*
X145191502Y-92870706D01*
X145193542Y-92864428D01*
X145200604Y-92797242D01*
X145212814Y-92681065D01*
X145213504Y-92674500D01*
X145193542Y-92484572D01*
X145192103Y-92480143D01*
X145197448Y-92410074D01*
X145240263Y-92353440D01*
X145264046Y-92339558D01*
X145316619Y-92316152D01*
X145316626Y-92316148D01*
X145322652Y-92313465D01*
X145328483Y-92309229D01*
X145391270Y-92263611D01*
X145477153Y-92201213D01*
X145498168Y-92177874D01*
X145600521Y-92064199D01*
X145600522Y-92064198D01*
X145604940Y-92059291D01*
X145690855Y-91910482D01*
X145697123Y-91899626D01*
X145697124Y-91899625D01*
X145700427Y-91893903D01*
X145759442Y-91712275D01*
X145760133Y-91705707D01*
X145778714Y-91528912D01*
X145779404Y-91522347D01*
X145769844Y-91431387D01*
X145760132Y-91338982D01*
X145760132Y-91338980D01*
X145759442Y-91332419D01*
X145700427Y-91150791D01*
X145604940Y-90985403D01*
X145592651Y-90971754D01*
X145481575Y-90848392D01*
X145481574Y-90848391D01*
X145477153Y-90843481D01*
X145358468Y-90757251D01*
X145327994Y-90735110D01*
X145327993Y-90735109D01*
X145322652Y-90731229D01*
X145316624Y-90728545D01*
X145316622Y-90728544D01*
X145154219Y-90656238D01*
X145154218Y-90656238D01*
X145148188Y-90653553D01*
X145044743Y-90631565D01*
X144967844Y-90615219D01*
X144967839Y-90615219D01*
X144961387Y-90613847D01*
X144770413Y-90613847D01*
X144763961Y-90615219D01*
X144763956Y-90615219D01*
X144687057Y-90631565D01*
X144583612Y-90653553D01*
X144577582Y-90656238D01*
X144577581Y-90656238D01*
X144415178Y-90728544D01*
X144415176Y-90728545D01*
X144409148Y-90731229D01*
X144403807Y-90735109D01*
X144403806Y-90735110D01*
X144373332Y-90757251D01*
X144254647Y-90843481D01*
X144250226Y-90848391D01*
X144250225Y-90848392D01*
X144139150Y-90971754D01*
X144126860Y-90985403D01*
X144031373Y-91150791D01*
X143972358Y-91332419D01*
X143971668Y-91338980D01*
X143971668Y-91338982D01*
X143961956Y-91431387D01*
X143952396Y-91522347D01*
X143972358Y-91712275D01*
X143973797Y-91716704D01*
X143968452Y-91786773D01*
X143925637Y-91843407D01*
X143901854Y-91857289D01*
X143849281Y-91880695D01*
X143849274Y-91880699D01*
X143843248Y-91883382D01*
X143837907Y-91887262D01*
X143837906Y-91887263D01*
X143809488Y-91907910D01*
X143688747Y-91995634D01*
X143684326Y-92000544D01*
X143684325Y-92000545D01*
X143566660Y-92131226D01*
X143560960Y-92137556D01*
X143519780Y-92208882D01*
X143477133Y-92282749D01*
X143465473Y-92302944D01*
X143406458Y-92484572D01*
X143405768Y-92491133D01*
X143405768Y-92491135D01*
X143405526Y-92493435D01*
X143386496Y-92674500D01*
X136349492Y-92674500D01*
X136334527Y-92628444D01*
X136324559Y-92611178D01*
X136264160Y-92506565D01*
X136239040Y-92463056D01*
X136211193Y-92432128D01*
X136115675Y-92326045D01*
X136115674Y-92326044D01*
X136111253Y-92321134D01*
X135987357Y-92231118D01*
X135962094Y-92212763D01*
X135962093Y-92212762D01*
X135956752Y-92208882D01*
X135950724Y-92206198D01*
X135950722Y-92206197D01*
X135788319Y-92133891D01*
X135788318Y-92133891D01*
X135782288Y-92131206D01*
X135744844Y-92123247D01*
X135682371Y-92089518D01*
X135648049Y-92027369D01*
X135652777Y-91956530D01*
X135695053Y-91899492D01*
X135744844Y-91876753D01*
X135782288Y-91868794D01*
X135832957Y-91846235D01*
X135950722Y-91793803D01*
X135950724Y-91793802D01*
X135956752Y-91791118D01*
X135962733Y-91786773D01*
X136036125Y-91733450D01*
X136111253Y-91678866D01*
X136120322Y-91668794D01*
X136234621Y-91541852D01*
X136234622Y-91541851D01*
X136239040Y-91536944D01*
X136270330Y-91482749D01*
X136331223Y-91377279D01*
X136331224Y-91377278D01*
X136334527Y-91371556D01*
X136393542Y-91189928D01*
X136394872Y-91177279D01*
X136412814Y-91006565D01*
X136413504Y-91000000D01*
X136404807Y-90917251D01*
X136394232Y-90816635D01*
X136394232Y-90816633D01*
X136393542Y-90810072D01*
X136334527Y-90628444D01*
X136332539Y-90625000D01*
X138311496Y-90625000D01*
X138312186Y-90631565D01*
X138330520Y-90806000D01*
X138331458Y-90814928D01*
X138390473Y-90996556D01*
X138485960Y-91161944D01*
X138490378Y-91166851D01*
X138490379Y-91166852D01*
X138604317Y-91293393D01*
X138613747Y-91303866D01*
X138676467Y-91349435D01*
X138751286Y-91403794D01*
X138768248Y-91416118D01*
X138774276Y-91418802D01*
X138774278Y-91418803D01*
X138909183Y-91478866D01*
X138942712Y-91493794D01*
X138949167Y-91495166D01*
X138949170Y-91495167D01*
X138999337Y-91505830D01*
X139047514Y-91516070D01*
X139109987Y-91549798D01*
X139144309Y-91611948D01*
X139146626Y-91626141D01*
X139155958Y-91714928D01*
X139157998Y-91721205D01*
X139157998Y-91721207D01*
X139174444Y-91771823D01*
X139214973Y-91896556D01*
X139310460Y-92061944D01*
X139314878Y-92066851D01*
X139314879Y-92066852D01*
X139424341Y-92188422D01*
X139438247Y-92203866D01*
X139475756Y-92231118D01*
X139583755Y-92309584D01*
X139592748Y-92316118D01*
X139598776Y-92318802D01*
X139598778Y-92318803D01*
X139761181Y-92391109D01*
X139767212Y-92393794D01*
X139843803Y-92410074D01*
X139947556Y-92432128D01*
X139947561Y-92432128D01*
X139954013Y-92433500D01*
X140144987Y-92433500D01*
X140151439Y-92432128D01*
X140151444Y-92432128D01*
X140255197Y-92410074D01*
X140331788Y-92393794D01*
X140337819Y-92391109D01*
X140500222Y-92318803D01*
X140500224Y-92318802D01*
X140506252Y-92316118D01*
X140515246Y-92309584D01*
X140623244Y-92231118D01*
X140660753Y-92203866D01*
X140674659Y-92188422D01*
X140784121Y-92066852D01*
X140784122Y-92066851D01*
X140788540Y-92061944D01*
X140884027Y-91896556D01*
X140943042Y-91714928D01*
X140944118Y-91704697D01*
X140962314Y-91531565D01*
X140963004Y-91525000D01*
X140950265Y-91403794D01*
X140943732Y-91341635D01*
X140943732Y-91341633D01*
X140943042Y-91335072D01*
X140884027Y-91153444D01*
X140873831Y-91135783D01*
X140799226Y-91006565D01*
X140788540Y-90988056D01*
X140770881Y-90968443D01*
X140665175Y-90851045D01*
X140665174Y-90851044D01*
X140660753Y-90846134D01*
X140506252Y-90733882D01*
X140500224Y-90731198D01*
X140500222Y-90731197D01*
X140337819Y-90658891D01*
X140337818Y-90658891D01*
X140331788Y-90656206D01*
X140325333Y-90654834D01*
X140325330Y-90654833D01*
X140272909Y-90643691D01*
X140226986Y-90633930D01*
X140164513Y-90600202D01*
X140130191Y-90538052D01*
X140127873Y-90523853D01*
X140119232Y-90441637D01*
X140119232Y-90441635D01*
X140118542Y-90435072D01*
X140116389Y-90428444D01*
X140061569Y-90259729D01*
X140059527Y-90253444D01*
X139964040Y-90088056D01*
X139937900Y-90059024D01*
X139840675Y-89951045D01*
X139840674Y-89951044D01*
X139836253Y-89946134D01*
X139681752Y-89833882D01*
X139675724Y-89831198D01*
X139675722Y-89831197D01*
X139513319Y-89758891D01*
X139513318Y-89758891D01*
X139507288Y-89756206D01*
X139413887Y-89736353D01*
X139326944Y-89717872D01*
X139326939Y-89717872D01*
X139320487Y-89716500D01*
X139129513Y-89716500D01*
X139123061Y-89717872D01*
X139123056Y-89717872D01*
X139036112Y-89736353D01*
X138942712Y-89756206D01*
X138936682Y-89758891D01*
X138936681Y-89758891D01*
X138774278Y-89831197D01*
X138774276Y-89831198D01*
X138768248Y-89833882D01*
X138613747Y-89946134D01*
X138609326Y-89951044D01*
X138609325Y-89951045D01*
X138512101Y-90059024D01*
X138485960Y-90088056D01*
X138390473Y-90253444D01*
X138331458Y-90435072D01*
X138330768Y-90441633D01*
X138330768Y-90441635D01*
X138320620Y-90538186D01*
X138311496Y-90625000D01*
X136332539Y-90625000D01*
X136326100Y-90613847D01*
X136242341Y-90468774D01*
X136239040Y-90463056D01*
X136219753Y-90441635D01*
X136115675Y-90326045D01*
X136115674Y-90326044D01*
X136111253Y-90321134D01*
X135956752Y-90208882D01*
X135950724Y-90206198D01*
X135950722Y-90206197D01*
X135788319Y-90133891D01*
X135788318Y-90133891D01*
X135782288Y-90131206D01*
X135688888Y-90111353D01*
X135601944Y-90092872D01*
X135601939Y-90092872D01*
X135595487Y-90091500D01*
X135404513Y-90091500D01*
X135398061Y-90092872D01*
X135398056Y-90092872D01*
X135311113Y-90111353D01*
X135217712Y-90131206D01*
X135211682Y-90133891D01*
X135211681Y-90133891D01*
X135049278Y-90206197D01*
X135049276Y-90206198D01*
X135043248Y-90208882D01*
X134888747Y-90321134D01*
X134884326Y-90326044D01*
X134884325Y-90326045D01*
X134843636Y-90371235D01*
X134783190Y-90408475D01*
X134712207Y-90407123D01*
X134656364Y-90371235D01*
X134615675Y-90326045D01*
X134615674Y-90326044D01*
X134611253Y-90321134D01*
X134456752Y-90208882D01*
X134450724Y-90206198D01*
X134450722Y-90206197D01*
X134288319Y-90133891D01*
X134288318Y-90133891D01*
X134282288Y-90131206D01*
X134188888Y-90111353D01*
X134101944Y-90092872D01*
X134101939Y-90092872D01*
X134095487Y-90091500D01*
X133904513Y-90091500D01*
X133898061Y-90092872D01*
X133898056Y-90092872D01*
X133811113Y-90111353D01*
X133717712Y-90131206D01*
X133711682Y-90133891D01*
X133711681Y-90133891D01*
X133549278Y-90206197D01*
X133549276Y-90206198D01*
X133543248Y-90208882D01*
X133388747Y-90321134D01*
X133384326Y-90326044D01*
X133384325Y-90326045D01*
X133343636Y-90371235D01*
X133283190Y-90408475D01*
X133212207Y-90407123D01*
X133156364Y-90371235D01*
X133115675Y-90326045D01*
X133115674Y-90326044D01*
X133111253Y-90321134D01*
X132956752Y-90208882D01*
X132950724Y-90206198D01*
X132950722Y-90206197D01*
X132788319Y-90133891D01*
X132788318Y-90133891D01*
X132782288Y-90131206D01*
X132688888Y-90111353D01*
X132601944Y-90092872D01*
X132601939Y-90092872D01*
X132595487Y-90091500D01*
X132404513Y-90091500D01*
X132398061Y-90092872D01*
X132398056Y-90092872D01*
X132311113Y-90111353D01*
X132217712Y-90131206D01*
X132211682Y-90133891D01*
X132211681Y-90133891D01*
X132049278Y-90206197D01*
X132049276Y-90206198D01*
X132043248Y-90208882D01*
X131888747Y-90321134D01*
X131884326Y-90326044D01*
X131884325Y-90326045D01*
X131843636Y-90371235D01*
X131783190Y-90408475D01*
X131712207Y-90407123D01*
X131656364Y-90371235D01*
X131615675Y-90326045D01*
X131615674Y-90326044D01*
X131611253Y-90321134D01*
X131456752Y-90208882D01*
X131450724Y-90206198D01*
X131450722Y-90206197D01*
X131288319Y-90133891D01*
X131288318Y-90133891D01*
X131282288Y-90131206D01*
X131188888Y-90111353D01*
X131101944Y-90092872D01*
X131101939Y-90092872D01*
X131095487Y-90091500D01*
X130904513Y-90091500D01*
X130898061Y-90092872D01*
X130898056Y-90092872D01*
X130811113Y-90111353D01*
X130717712Y-90131206D01*
X130711682Y-90133891D01*
X130711681Y-90133891D01*
X130549278Y-90206197D01*
X130549276Y-90206198D01*
X130543248Y-90208882D01*
X130388747Y-90321134D01*
X130384326Y-90326044D01*
X130384325Y-90326045D01*
X130343636Y-90371235D01*
X130283190Y-90408475D01*
X130212207Y-90407123D01*
X130156364Y-90371235D01*
X130115675Y-90326045D01*
X130115674Y-90326044D01*
X130111253Y-90321134D01*
X129956752Y-90208882D01*
X129950724Y-90206198D01*
X129950722Y-90206197D01*
X129788319Y-90133891D01*
X129788318Y-90133891D01*
X129782288Y-90131206D01*
X129688888Y-90111353D01*
X129601944Y-90092872D01*
X129601939Y-90092872D01*
X129595487Y-90091500D01*
X129404513Y-90091500D01*
X129398061Y-90092872D01*
X129398056Y-90092872D01*
X129311113Y-90111353D01*
X129217712Y-90131206D01*
X129211682Y-90133891D01*
X129211681Y-90133891D01*
X129049278Y-90206197D01*
X129049276Y-90206198D01*
X129043248Y-90208882D01*
X128888747Y-90321134D01*
X128884326Y-90326044D01*
X128884325Y-90326045D01*
X128843636Y-90371235D01*
X128783190Y-90408475D01*
X128712207Y-90407123D01*
X128656364Y-90371235D01*
X128615675Y-90326045D01*
X128615674Y-90326044D01*
X128611253Y-90321134D01*
X128456752Y-90208882D01*
X128450724Y-90206198D01*
X128450722Y-90206197D01*
X128288319Y-90133891D01*
X128288318Y-90133891D01*
X128282288Y-90131206D01*
X128188888Y-90111353D01*
X128101944Y-90092872D01*
X128101939Y-90092872D01*
X128095487Y-90091500D01*
X127904513Y-90091500D01*
X127898061Y-90092872D01*
X127898056Y-90092872D01*
X127811113Y-90111353D01*
X127717712Y-90131206D01*
X127711682Y-90133891D01*
X127711681Y-90133891D01*
X127549278Y-90206197D01*
X127549276Y-90206198D01*
X127543248Y-90208882D01*
X127388747Y-90321134D01*
X127384326Y-90326044D01*
X127384325Y-90326045D01*
X127280248Y-90441635D01*
X127260960Y-90463056D01*
X127257659Y-90468774D01*
X127173901Y-90613847D01*
X127165473Y-90628444D01*
X127106458Y-90810072D01*
X127105768Y-90816633D01*
X127105768Y-90816635D01*
X127095193Y-90917251D01*
X127086496Y-91000000D01*
X127087186Y-91006565D01*
X127105129Y-91177279D01*
X127106458Y-91189928D01*
X127165473Y-91371556D01*
X127168776Y-91377278D01*
X127168777Y-91377279D01*
X127229670Y-91482749D01*
X127260960Y-91536944D01*
X127265378Y-91541851D01*
X127265379Y-91541852D01*
X127354373Y-91640690D01*
X127385091Y-91704697D01*
X127376326Y-91775151D01*
X127354376Y-91809307D01*
X127321124Y-91846237D01*
X127260681Y-91883475D01*
X127189697Y-91882124D01*
X127133854Y-91846235D01*
X127115675Y-91826045D01*
X127115674Y-91826044D01*
X127111253Y-91821134D01*
X126994418Y-91736248D01*
X126962094Y-91712763D01*
X126962093Y-91712762D01*
X126956752Y-91708882D01*
X126950724Y-91706198D01*
X126950722Y-91706197D01*
X126788319Y-91633891D01*
X126788318Y-91633891D01*
X126782288Y-91631206D01*
X126674769Y-91608352D01*
X126601944Y-91592872D01*
X126601939Y-91592872D01*
X126595487Y-91591500D01*
X126404513Y-91591500D01*
X126398061Y-91592872D01*
X126398056Y-91592872D01*
X126325231Y-91608352D01*
X126217712Y-91631206D01*
X126211682Y-91633891D01*
X126211681Y-91633891D01*
X126049278Y-91706197D01*
X126049276Y-91706198D01*
X126043248Y-91708882D01*
X126037907Y-91712762D01*
X126037906Y-91712763D01*
X126005582Y-91736248D01*
X125888747Y-91821134D01*
X125884326Y-91826044D01*
X125884325Y-91826045D01*
X125772129Y-91950652D01*
X125760960Y-91963056D01*
X125752076Y-91978444D01*
X125672606Y-92116090D01*
X125665473Y-92128444D01*
X125606458Y-92310072D01*
X125605768Y-92316633D01*
X125605768Y-92316635D01*
X125593485Y-92433500D01*
X125586496Y-92500000D01*
X125587186Y-92506565D01*
X125597521Y-92604893D01*
X125606458Y-92689928D01*
X125665473Y-92871556D01*
X125668777Y-92877278D01*
X125668778Y-92877281D01*
X125688823Y-92911999D01*
X125705562Y-92980994D01*
X125688823Y-93038001D01*
X125665473Y-93078444D01*
X125606458Y-93260072D01*
X125605768Y-93266633D01*
X125605768Y-93266635D01*
X125587791Y-93437675D01*
X125586496Y-93450000D01*
X124738418Y-93450000D01*
X124739948Y-93448301D01*
X124739949Y-93448300D01*
X124744367Y-93443393D01*
X124834599Y-93287107D01*
X124857667Y-93216109D01*
X124888325Y-93121754D01*
X124888325Y-93121753D01*
X124890365Y-93115475D01*
X124909229Y-92936000D01*
X124901706Y-92864428D01*
X124891055Y-92763089D01*
X124891055Y-92763088D01*
X124890365Y-92756525D01*
X124834599Y-92584893D01*
X124744367Y-92428607D01*
X124713030Y-92393803D01*
X124628035Y-92299407D01*
X124628034Y-92299406D01*
X124623613Y-92294496D01*
X124602101Y-92278866D01*
X124482957Y-92192303D01*
X124482956Y-92192302D01*
X124477615Y-92188422D01*
X124471587Y-92185738D01*
X124471585Y-92185737D01*
X124318783Y-92117705D01*
X124318781Y-92117705D01*
X124312752Y-92115020D01*
X124202098Y-92091500D01*
X124142689Y-92078872D01*
X124142685Y-92078872D01*
X124136232Y-92077500D01*
X123955768Y-92077500D01*
X123949315Y-92078872D01*
X123949311Y-92078872D01*
X123889902Y-92091500D01*
X123779248Y-92115020D01*
X123773219Y-92117704D01*
X123773217Y-92117705D01*
X123668032Y-92164537D01*
X123614386Y-92188422D01*
X123609062Y-92192290D01*
X123540074Y-92209024D01*
X123494823Y-92198274D01*
X123358783Y-92137705D01*
X123358781Y-92137705D01*
X123352752Y-92135020D01*
X123253648Y-92113955D01*
X123182689Y-92098872D01*
X123182685Y-92098872D01*
X123176232Y-92097500D01*
X122995768Y-92097500D01*
X122989315Y-92098872D01*
X122989311Y-92098872D01*
X122918352Y-92113955D01*
X122819248Y-92135020D01*
X122813219Y-92137704D01*
X122813217Y-92137705D01*
X122657249Y-92207147D01*
X122586882Y-92216581D01*
X122554751Y-92207147D01*
X122552618Y-92206197D01*
X122434919Y-92153794D01*
X122398783Y-92137705D01*
X122398781Y-92137705D01*
X122392752Y-92135020D01*
X122293648Y-92113955D01*
X122222689Y-92098872D01*
X122222685Y-92098872D01*
X122216232Y-92097500D01*
X122035768Y-92097500D01*
X122029315Y-92098872D01*
X122029311Y-92098872D01*
X121958352Y-92113955D01*
X121859248Y-92135020D01*
X121853219Y-92137704D01*
X121853217Y-92137705D01*
X121700416Y-92205737D01*
X121700414Y-92205738D01*
X121694386Y-92208422D01*
X121689045Y-92212302D01*
X121689044Y-92212303D01*
X121553731Y-92310613D01*
X121553729Y-92310615D01*
X121548387Y-92314496D01*
X121543966Y-92319406D01*
X121543965Y-92319407D01*
X121440493Y-92434325D01*
X121427633Y-92448607D01*
X121337401Y-92604893D01*
X121335359Y-92611178D01*
X121302522Y-92712240D01*
X121262449Y-92770846D01*
X121197052Y-92798483D01*
X121131441Y-92788411D01*
X121018633Y-92738186D01*
X121006137Y-92734126D01*
X120842636Y-92699372D01*
X120829576Y-92698000D01*
X120662424Y-92698000D01*
X120649364Y-92699372D01*
X120485863Y-92734126D01*
X120473367Y-92738186D01*
X120397248Y-92772076D01*
X120326881Y-92781510D01*
X120294752Y-92772076D01*
X120218633Y-92738186D01*
X120206137Y-92734126D01*
X120042636Y-92699372D01*
X120029576Y-92698000D01*
X119862424Y-92698000D01*
X119849364Y-92699372D01*
X119685860Y-92734127D01*
X119673372Y-92738184D01*
X119561237Y-92788110D01*
X119550493Y-92797242D01*
X111008000Y-92797242D01*
X111008000Y-91600000D01*
X111486496Y-91600000D01*
X111487186Y-91606565D01*
X111504483Y-91771134D01*
X111506458Y-91789928D01*
X111565473Y-91971556D01*
X111568776Y-91977278D01*
X111568777Y-91977279D01*
X111597697Y-92027369D01*
X111660960Y-92136944D01*
X111665378Y-92141851D01*
X111665379Y-92141852D01*
X111747968Y-92233576D01*
X111788747Y-92278866D01*
X111844547Y-92319407D01*
X111915882Y-92371235D01*
X111943248Y-92391118D01*
X111949276Y-92393802D01*
X111949278Y-92393803D01*
X112104824Y-92463056D01*
X112117712Y-92468794D01*
X112211113Y-92488647D01*
X112298056Y-92507128D01*
X112298061Y-92507128D01*
X112304513Y-92508500D01*
X112495487Y-92508500D01*
X112501939Y-92507128D01*
X112501944Y-92507128D01*
X112588888Y-92488647D01*
X112682288Y-92468794D01*
X112695176Y-92463056D01*
X112850722Y-92393803D01*
X112850724Y-92393802D01*
X112856752Y-92391118D01*
X112884119Y-92371235D01*
X112955453Y-92319407D01*
X113011253Y-92278866D01*
X113052032Y-92233576D01*
X113134621Y-92141852D01*
X113134622Y-92141851D01*
X113139040Y-92136944D01*
X113202303Y-92027369D01*
X113231223Y-91977279D01*
X113231224Y-91977278D01*
X113234527Y-91971556D01*
X113275247Y-91846235D01*
X113291500Y-91796213D01*
X113291500Y-91796212D01*
X113293475Y-91790133D01*
X113293477Y-91790130D01*
X113293542Y-91789928D01*
X113293579Y-91789940D01*
X113326077Y-91729745D01*
X113388227Y-91695423D01*
X113441794Y-91695169D01*
X113498049Y-91707127D01*
X113498058Y-91707128D01*
X113504513Y-91708500D01*
X113695487Y-91708500D01*
X113701939Y-91707128D01*
X113701944Y-91707128D01*
X113788888Y-91688647D01*
X113882288Y-91668794D01*
X113895014Y-91663128D01*
X114050722Y-91593803D01*
X114050724Y-91593802D01*
X114056752Y-91591118D01*
X114211253Y-91478866D01*
X114215675Y-91473955D01*
X114246248Y-91440000D01*
X115418496Y-91440000D01*
X115419186Y-91446565D01*
X115428614Y-91536263D01*
X115438458Y-91629928D01*
X115497473Y-91811556D01*
X115500776Y-91817278D01*
X115500777Y-91817279D01*
X115508622Y-91830866D01*
X115592960Y-91976944D01*
X115597378Y-91981851D01*
X115597379Y-91981852D01*
X115700187Y-92096032D01*
X115720747Y-92118866D01*
X115754342Y-92143274D01*
X115855240Y-92216581D01*
X115875248Y-92231118D01*
X115881276Y-92233802D01*
X115881278Y-92233803D01*
X116043681Y-92306109D01*
X116049712Y-92308794D01*
X116130871Y-92326045D01*
X116230056Y-92347128D01*
X116230061Y-92347128D01*
X116236513Y-92348500D01*
X116427487Y-92348500D01*
X116433939Y-92347128D01*
X116433944Y-92347128D01*
X116533129Y-92326045D01*
X116614288Y-92308794D01*
X116620319Y-92306109D01*
X116782722Y-92233803D01*
X116782724Y-92233802D01*
X116788752Y-92231118D01*
X116808761Y-92216581D01*
X116909658Y-92143274D01*
X116943253Y-92118866D01*
X116963813Y-92096032D01*
X117066621Y-91981852D01*
X117066622Y-91981851D01*
X117071040Y-91976944D01*
X117155378Y-91830866D01*
X117163223Y-91817279D01*
X117163224Y-91817278D01*
X117166527Y-91811556D01*
X117225542Y-91629928D01*
X117235387Y-91536263D01*
X117244814Y-91446565D01*
X117245504Y-91440000D01*
X117242586Y-91412237D01*
X117237365Y-91362565D01*
X119083964Y-91362565D01*
X119101437Y-91528807D01*
X119104167Y-91541650D01*
X119155819Y-91700617D01*
X119161165Y-91712625D01*
X119177363Y-91740680D01*
X119187569Y-91750411D01*
X119195590Y-91747200D01*
X119573978Y-91368812D01*
X119581592Y-91354868D01*
X119581461Y-91353035D01*
X119577210Y-91346420D01*
X119199233Y-90968443D01*
X119186853Y-90961683D01*
X119179938Y-90966859D01*
X119161165Y-90999375D01*
X119155819Y-91011383D01*
X119104167Y-91170350D01*
X119101437Y-91183193D01*
X119083964Y-91349435D01*
X119083964Y-91362565D01*
X117237365Y-91362565D01*
X117226232Y-91256635D01*
X117226232Y-91256633D01*
X117225542Y-91250072D01*
X117166527Y-91068444D01*
X117071040Y-90903056D01*
X117021821Y-90848392D01*
X116947675Y-90766045D01*
X116947674Y-90766044D01*
X116943253Y-90761134D01*
X116788752Y-90648882D01*
X116782724Y-90646198D01*
X116782722Y-90646197D01*
X116672767Y-90597242D01*
X119550493Y-90597242D01*
X119552090Y-90602880D01*
X120216115Y-91266905D01*
X120250141Y-91329217D01*
X120245076Y-91400032D01*
X120216115Y-91445095D01*
X119557500Y-92103710D01*
X119550740Y-92116090D01*
X119554251Y-92120780D01*
X119673372Y-92173816D01*
X119685860Y-92177873D01*
X119849364Y-92212628D01*
X119862424Y-92214000D01*
X120029576Y-92214000D01*
X120042636Y-92212628D01*
X120206137Y-92177874D01*
X120218633Y-92173814D01*
X120294752Y-92139924D01*
X120365119Y-92130490D01*
X120397248Y-92139924D01*
X120473367Y-92173814D01*
X120485863Y-92177874D01*
X120649364Y-92212628D01*
X120662424Y-92214000D01*
X120829576Y-92214000D01*
X120842636Y-92212628D01*
X121006140Y-92177873D01*
X121018628Y-92173816D01*
X121130763Y-92123890D01*
X121141507Y-92114758D01*
X121139910Y-92109120D01*
X120475885Y-91445095D01*
X120441859Y-91382783D01*
X120446924Y-91311968D01*
X120475885Y-91266905D01*
X120656905Y-91085885D01*
X120719217Y-91051859D01*
X120790032Y-91056924D01*
X120835095Y-91085885D01*
X121492767Y-91743557D01*
X121505147Y-91750317D01*
X121512062Y-91745141D01*
X121530835Y-91712625D01*
X121536181Y-91700617D01*
X121553406Y-91647604D01*
X121593479Y-91588998D01*
X121658876Y-91561361D01*
X121724488Y-91571433D01*
X121841129Y-91623365D01*
X121849248Y-91626980D01*
X121931674Y-91644500D01*
X122019311Y-91663128D01*
X122019315Y-91663128D01*
X122025768Y-91664500D01*
X122206232Y-91664500D01*
X122212685Y-91663128D01*
X122212689Y-91663128D01*
X122300326Y-91644500D01*
X122382752Y-91626980D01*
X122390872Y-91623365D01*
X122530134Y-91561361D01*
X122544751Y-91554853D01*
X122615118Y-91545419D01*
X122647248Y-91554853D01*
X122661866Y-91561361D01*
X122801129Y-91623365D01*
X122809248Y-91626980D01*
X122891674Y-91644500D01*
X122979311Y-91663128D01*
X122979315Y-91663128D01*
X122985768Y-91664500D01*
X123166232Y-91664500D01*
X123172685Y-91663128D01*
X123172689Y-91663128D01*
X123260326Y-91644500D01*
X123342752Y-91626980D01*
X123350872Y-91623365D01*
X123501587Y-91556262D01*
X123501588Y-91556261D01*
X123507615Y-91553578D01*
X123512936Y-91549712D01*
X123581923Y-91532976D01*
X123627177Y-91543726D01*
X123763217Y-91604295D01*
X123769248Y-91606980D01*
X123850710Y-91624295D01*
X123939311Y-91643128D01*
X123939315Y-91643128D01*
X123945768Y-91644500D01*
X124126232Y-91644500D01*
X124132685Y-91643128D01*
X124132689Y-91643128D01*
X124221290Y-91624295D01*
X124302752Y-91606980D01*
X124308783Y-91604295D01*
X124461585Y-91536263D01*
X124461587Y-91536262D01*
X124467615Y-91533578D01*
X124492109Y-91515782D01*
X124608269Y-91431387D01*
X124608271Y-91431385D01*
X124613613Y-91427504D01*
X124618035Y-91422593D01*
X124729948Y-91298301D01*
X124729949Y-91298300D01*
X124734367Y-91293393D01*
X124807426Y-91166852D01*
X124821295Y-91142830D01*
X124821296Y-91142829D01*
X124824599Y-91137107D01*
X124880365Y-90965475D01*
X124893596Y-90839598D01*
X124898539Y-90792565D01*
X124899229Y-90786000D01*
X124889296Y-90691500D01*
X124881055Y-90613089D01*
X124881055Y-90613088D01*
X124880365Y-90606525D01*
X124824599Y-90434893D01*
X124817572Y-90422721D01*
X124737668Y-90284325D01*
X124734367Y-90278607D01*
X124725514Y-90268774D01*
X124618035Y-90149407D01*
X124618034Y-90149406D01*
X124613613Y-90144496D01*
X124588218Y-90126045D01*
X124472957Y-90042303D01*
X124472956Y-90042302D01*
X124467615Y-90038422D01*
X124461587Y-90035738D01*
X124461585Y-90035737D01*
X124308783Y-89967705D01*
X124308781Y-89967705D01*
X124302752Y-89965020D01*
X124195631Y-89942251D01*
X124132689Y-89928872D01*
X124132685Y-89928872D01*
X124126232Y-89927500D01*
X123945768Y-89927500D01*
X123939315Y-89928872D01*
X123939311Y-89928872D01*
X123876369Y-89942251D01*
X123769248Y-89965020D01*
X123763219Y-89967704D01*
X123763217Y-89967705D01*
X123658032Y-90014537D01*
X123604386Y-90038422D01*
X123599062Y-90042290D01*
X123530074Y-90059024D01*
X123484823Y-90048274D01*
X123348783Y-89987705D01*
X123348781Y-89987705D01*
X123342752Y-89985020D01*
X123248658Y-89965020D01*
X123172689Y-89948872D01*
X123172685Y-89948872D01*
X123166232Y-89947500D01*
X122985768Y-89947500D01*
X122979315Y-89948872D01*
X122979311Y-89948872D01*
X122903342Y-89965020D01*
X122809248Y-89985020D01*
X122803219Y-89987704D01*
X122803217Y-89987705D01*
X122647249Y-90057147D01*
X122576882Y-90066581D01*
X122544751Y-90057147D01*
X122511378Y-90042288D01*
X122477452Y-90027183D01*
X122388783Y-89987705D01*
X122388781Y-89987705D01*
X122382752Y-89985020D01*
X122288658Y-89965020D01*
X122212689Y-89948872D01*
X122212685Y-89948872D01*
X122206232Y-89947500D01*
X122025768Y-89947500D01*
X122019315Y-89948872D01*
X122019311Y-89948872D01*
X121943342Y-89965020D01*
X121849248Y-89985020D01*
X121843219Y-89987704D01*
X121843217Y-89987705D01*
X121690416Y-90055737D01*
X121690414Y-90055738D01*
X121684386Y-90058422D01*
X121679045Y-90062302D01*
X121679044Y-90062303D01*
X121543731Y-90160613D01*
X121543729Y-90160615D01*
X121538387Y-90164496D01*
X121533966Y-90169406D01*
X121533965Y-90169407D01*
X121430493Y-90284325D01*
X121417633Y-90298607D01*
X121414332Y-90304325D01*
X121335056Y-90441635D01*
X121327401Y-90454893D01*
X121307978Y-90514672D01*
X121267907Y-90573275D01*
X121202510Y-90600913D01*
X121136897Y-90590841D01*
X121018629Y-90538185D01*
X121006137Y-90534126D01*
X120842636Y-90499372D01*
X120829576Y-90498000D01*
X120662424Y-90498000D01*
X120649364Y-90499372D01*
X120485863Y-90534126D01*
X120473367Y-90538186D01*
X120397248Y-90572076D01*
X120326881Y-90581510D01*
X120294752Y-90572076D01*
X120218633Y-90538186D01*
X120206137Y-90534126D01*
X120042636Y-90499372D01*
X120029576Y-90498000D01*
X119862424Y-90498000D01*
X119849364Y-90499372D01*
X119685860Y-90534127D01*
X119673372Y-90538184D01*
X119561237Y-90588110D01*
X119550493Y-90597242D01*
X116672767Y-90597242D01*
X116620319Y-90573891D01*
X116620318Y-90573891D01*
X116614288Y-90571206D01*
X116520887Y-90551353D01*
X116433944Y-90532872D01*
X116433939Y-90532872D01*
X116427487Y-90531500D01*
X116236513Y-90531500D01*
X116230061Y-90532872D01*
X116230056Y-90532872D01*
X116143113Y-90551353D01*
X116049712Y-90571206D01*
X116043682Y-90573891D01*
X116043681Y-90573891D01*
X115881278Y-90646197D01*
X115881276Y-90646198D01*
X115875248Y-90648882D01*
X115720747Y-90761134D01*
X115716326Y-90766044D01*
X115716325Y-90766045D01*
X115642180Y-90848392D01*
X115592960Y-90903056D01*
X115497473Y-91068444D01*
X115438458Y-91250072D01*
X115437768Y-91256633D01*
X115437768Y-91256635D01*
X115421414Y-91412237D01*
X115418496Y-91440000D01*
X114246248Y-91440000D01*
X114334621Y-91341852D01*
X114334622Y-91341851D01*
X114339040Y-91336944D01*
X114427709Y-91183365D01*
X114431223Y-91177279D01*
X114431224Y-91177278D01*
X114434527Y-91171556D01*
X114493542Y-90989928D01*
X114494534Y-90980495D01*
X114512814Y-90806565D01*
X114513504Y-90800000D01*
X114505994Y-90728544D01*
X114494232Y-90616635D01*
X114494232Y-90616633D01*
X114493542Y-90610072D01*
X114434527Y-90428444D01*
X114339040Y-90263056D01*
X114330386Y-90253444D01*
X114215675Y-90126045D01*
X114215674Y-90126044D01*
X114211253Y-90121134D01*
X114056752Y-90008882D01*
X114050724Y-90006198D01*
X114050722Y-90006197D01*
X113888319Y-89933891D01*
X113888318Y-89933891D01*
X113882288Y-89931206D01*
X113788888Y-89911353D01*
X113701944Y-89892872D01*
X113701939Y-89892872D01*
X113695487Y-89891500D01*
X113504513Y-89891500D01*
X113498061Y-89892872D01*
X113498056Y-89892872D01*
X113411112Y-89911353D01*
X113317712Y-89931206D01*
X113311682Y-89933891D01*
X113311681Y-89933891D01*
X113149278Y-90006197D01*
X113149276Y-90006198D01*
X113143248Y-90008882D01*
X112988747Y-90121134D01*
X112984326Y-90126044D01*
X112984325Y-90126045D01*
X112869615Y-90253444D01*
X112860960Y-90263056D01*
X112765473Y-90428444D01*
X112755822Y-90458148D01*
X112712707Y-90590841D01*
X112706525Y-90609867D01*
X112706523Y-90609870D01*
X112706458Y-90610072D01*
X112706421Y-90610060D01*
X112673923Y-90670255D01*
X112611773Y-90704577D01*
X112558206Y-90704831D01*
X112501951Y-90692873D01*
X112501942Y-90692872D01*
X112495487Y-90691500D01*
X112304513Y-90691500D01*
X112298061Y-90692872D01*
X112298056Y-90692872D01*
X112211113Y-90711353D01*
X112117712Y-90731206D01*
X112111682Y-90733891D01*
X112111681Y-90733891D01*
X111949278Y-90806197D01*
X111949276Y-90806198D01*
X111943248Y-90808882D01*
X111937907Y-90812762D01*
X111937906Y-90812763D01*
X111900971Y-90839598D01*
X111788747Y-90921134D01*
X111784326Y-90926044D01*
X111784325Y-90926045D01*
X111707487Y-91011383D01*
X111660960Y-91063056D01*
X111565473Y-91228444D01*
X111506458Y-91410072D01*
X111505768Y-91416633D01*
X111505768Y-91416635D01*
X111492411Y-91543726D01*
X111486496Y-91600000D01*
X111008000Y-91600000D01*
X111008000Y-88392000D01*
X116942496Y-88392000D01*
X116943186Y-88398565D01*
X116960863Y-88566749D01*
X116962458Y-88581928D01*
X117021473Y-88763556D01*
X117024776Y-88769278D01*
X117024777Y-88769279D01*
X117037392Y-88791128D01*
X117116960Y-88928944D01*
X117244747Y-89070866D01*
X117294657Y-89107128D01*
X117377675Y-89167444D01*
X117399248Y-89183118D01*
X117405276Y-89185802D01*
X117405278Y-89185803D01*
X117456623Y-89208663D01*
X117573712Y-89260794D01*
X117652392Y-89277518D01*
X117754056Y-89299128D01*
X117754061Y-89299128D01*
X117760513Y-89300500D01*
X117951487Y-89300500D01*
X117957939Y-89299128D01*
X117957944Y-89299128D01*
X118059608Y-89277518D01*
X118138288Y-89260794D01*
X118255377Y-89208663D01*
X118306724Y-89185802D01*
X118306725Y-89185801D01*
X118312688Y-89183146D01*
X118312690Y-89183146D01*
X118312752Y-89183118D01*
X118312757Y-89183129D01*
X118379330Y-89166979D01*
X118446422Y-89190199D01*
X118490309Y-89246006D01*
X118493166Y-89253893D01*
X118498983Y-89271795D01*
X118594470Y-89437183D01*
X118598888Y-89442090D01*
X118598889Y-89442091D01*
X118717835Y-89574194D01*
X118722257Y-89579105D01*
X118876758Y-89691357D01*
X118882786Y-89694041D01*
X118882788Y-89694042D01*
X119045191Y-89766348D01*
X119051222Y-89769033D01*
X119144622Y-89788886D01*
X119231566Y-89807367D01*
X119231571Y-89807367D01*
X119238023Y-89808739D01*
X119428997Y-89808739D01*
X119435449Y-89807367D01*
X119435454Y-89807367D01*
X119522398Y-89788886D01*
X119615798Y-89769033D01*
X119621829Y-89766348D01*
X119784232Y-89694042D01*
X119784234Y-89694041D01*
X119790262Y-89691357D01*
X119944763Y-89579105D01*
X119949185Y-89574194D01*
X120068131Y-89442091D01*
X120068132Y-89442090D01*
X120072550Y-89437183D01*
X120168037Y-89271795D01*
X120227052Y-89090167D01*
X120228673Y-89074749D01*
X120246324Y-88906804D01*
X120247014Y-88900239D01*
X120235546Y-88791128D01*
X120227742Y-88716874D01*
X120227742Y-88716872D01*
X120227052Y-88710311D01*
X120168037Y-88528683D01*
X120072550Y-88363295D01*
X119980695Y-88261279D01*
X119949185Y-88226284D01*
X119949184Y-88226283D01*
X119944763Y-88221373D01*
X119845667Y-88149375D01*
X119795604Y-88113002D01*
X119795603Y-88113001D01*
X119790262Y-88109121D01*
X119784234Y-88106437D01*
X119784232Y-88106436D01*
X119621829Y-88034130D01*
X119621828Y-88034130D01*
X119615798Y-88031445D01*
X119515247Y-88010072D01*
X119435454Y-87993111D01*
X119435449Y-87993111D01*
X119428997Y-87991739D01*
X119238023Y-87991739D01*
X119231571Y-87993111D01*
X119231566Y-87993111D01*
X119151773Y-88010072D01*
X119051222Y-88031445D01*
X119045192Y-88034130D01*
X119045191Y-88034130D01*
X118882789Y-88106436D01*
X118876822Y-88109093D01*
X118876820Y-88109093D01*
X118876758Y-88109121D01*
X118876753Y-88109110D01*
X118810180Y-88125260D01*
X118743088Y-88102040D01*
X118699201Y-88046233D01*
X118696342Y-88038341D01*
X118692567Y-88026723D01*
X118690527Y-88020444D01*
X118611751Y-87884000D01*
X124308496Y-87884000D01*
X124309186Y-87890565D01*
X124323497Y-88026723D01*
X124328458Y-88073928D01*
X124387473Y-88255556D01*
X124482960Y-88420944D01*
X124487378Y-88425851D01*
X124487379Y-88425852D01*
X124606325Y-88557955D01*
X124610747Y-88562866D01*
X124765248Y-88675118D01*
X124771276Y-88677802D01*
X124771278Y-88677803D01*
X124933681Y-88750109D01*
X124939712Y-88752794D01*
X125033112Y-88772647D01*
X125120056Y-88791128D01*
X125120061Y-88791128D01*
X125126513Y-88792500D01*
X125317487Y-88792500D01*
X125323939Y-88791128D01*
X125323944Y-88791128D01*
X125410888Y-88772647D01*
X125504288Y-88752794D01*
X125510319Y-88750109D01*
X125672722Y-88677803D01*
X125672724Y-88677802D01*
X125678752Y-88675118D01*
X125833253Y-88562866D01*
X125837675Y-88557955D01*
X125956621Y-88425852D01*
X125956622Y-88425851D01*
X125961040Y-88420944D01*
X126056527Y-88255556D01*
X126074578Y-88200000D01*
X127486496Y-88200000D01*
X127487186Y-88206565D01*
X127491675Y-88249271D01*
X127506458Y-88389928D01*
X127565473Y-88571556D01*
X127660960Y-88736944D01*
X127665378Y-88741851D01*
X127665379Y-88741852D01*
X127709747Y-88791128D01*
X127788747Y-88878866D01*
X127943248Y-88991118D01*
X127949276Y-88993802D01*
X127949278Y-88993803D01*
X128111335Y-89065955D01*
X128117712Y-89068794D01*
X128211113Y-89088647D01*
X128298056Y-89107128D01*
X128298061Y-89107128D01*
X128304513Y-89108500D01*
X128495487Y-89108500D01*
X128501939Y-89107128D01*
X128501944Y-89107128D01*
X128588887Y-89088647D01*
X128682288Y-89068794D01*
X128688665Y-89065955D01*
X128850722Y-88993803D01*
X128850724Y-88993802D01*
X128856752Y-88991118D01*
X129011253Y-88878866D01*
X129106365Y-88773233D01*
X129166810Y-88735994D01*
X129237793Y-88737346D01*
X129293635Y-88773233D01*
X129388747Y-88878866D01*
X129543248Y-88991118D01*
X129549276Y-88993802D01*
X129549278Y-88993803D01*
X129711335Y-89065955D01*
X129717712Y-89068794D01*
X129811113Y-89088647D01*
X129898056Y-89107128D01*
X129898061Y-89107128D01*
X129904513Y-89108500D01*
X130095487Y-89108500D01*
X130101939Y-89107128D01*
X130101944Y-89107128D01*
X130188887Y-89088647D01*
X130282288Y-89068794D01*
X130288665Y-89065955D01*
X130450722Y-88993803D01*
X130450724Y-88993802D01*
X130456752Y-88991118D01*
X130611253Y-88878866D01*
X130706365Y-88773233D01*
X130766810Y-88735994D01*
X130837793Y-88737346D01*
X130893635Y-88773233D01*
X130988747Y-88878866D01*
X131143248Y-88991118D01*
X131149276Y-88993802D01*
X131149278Y-88993803D01*
X131311335Y-89065955D01*
X131317712Y-89068794D01*
X131411113Y-89088647D01*
X131498056Y-89107128D01*
X131498061Y-89107128D01*
X131504513Y-89108500D01*
X131695487Y-89108500D01*
X131701939Y-89107128D01*
X131701944Y-89107128D01*
X131788887Y-89088647D01*
X131882288Y-89068794D01*
X131888665Y-89065955D01*
X132050722Y-88993803D01*
X132050724Y-88993802D01*
X132056752Y-88991118D01*
X132211253Y-88878866D01*
X132306365Y-88773233D01*
X132366810Y-88735994D01*
X132437793Y-88737346D01*
X132493635Y-88773233D01*
X132588747Y-88878866D01*
X132743248Y-88991118D01*
X132749276Y-88993802D01*
X132749278Y-88993803D01*
X132911335Y-89065955D01*
X132917712Y-89068794D01*
X133011113Y-89088647D01*
X133098056Y-89107128D01*
X133098061Y-89107128D01*
X133104513Y-89108500D01*
X133295487Y-89108500D01*
X133301939Y-89107128D01*
X133301944Y-89107128D01*
X133388887Y-89088647D01*
X133482288Y-89068794D01*
X133488665Y-89065955D01*
X133650722Y-88993803D01*
X133650724Y-88993802D01*
X133656752Y-88991118D01*
X133811253Y-88878866D01*
X133906365Y-88773233D01*
X133966810Y-88735994D01*
X134037793Y-88737346D01*
X134093635Y-88773233D01*
X134188747Y-88878866D01*
X134343248Y-88991118D01*
X134349276Y-88993802D01*
X134349278Y-88993803D01*
X134511335Y-89065955D01*
X134517712Y-89068794D01*
X134611113Y-89088647D01*
X134698056Y-89107128D01*
X134698061Y-89107128D01*
X134704513Y-89108500D01*
X134895487Y-89108500D01*
X134901939Y-89107128D01*
X134901944Y-89107128D01*
X134988887Y-89088647D01*
X135082288Y-89068794D01*
X135088665Y-89065955D01*
X135250722Y-88993803D01*
X135250724Y-88993802D01*
X135256752Y-88991118D01*
X135411253Y-88878866D01*
X135490253Y-88791128D01*
X135534621Y-88741852D01*
X135534622Y-88741851D01*
X135539040Y-88736944D01*
X135634527Y-88571556D01*
X135693542Y-88389928D01*
X135708326Y-88249271D01*
X135712814Y-88206565D01*
X135713504Y-88200000D01*
X135703951Y-88109110D01*
X135694232Y-88016635D01*
X135694232Y-88016633D01*
X135693542Y-88010072D01*
X135634527Y-87828444D01*
X135539040Y-87663056D01*
X135506365Y-87626766D01*
X135415675Y-87526045D01*
X135415674Y-87526044D01*
X135411253Y-87521134D01*
X135256752Y-87408882D01*
X135250724Y-87406198D01*
X135250722Y-87406197D01*
X135088319Y-87333891D01*
X135088318Y-87333891D01*
X135082288Y-87331206D01*
X134988887Y-87311353D01*
X134901944Y-87292872D01*
X134901939Y-87292872D01*
X134895487Y-87291500D01*
X134704513Y-87291500D01*
X134698061Y-87292872D01*
X134698056Y-87292872D01*
X134611113Y-87311353D01*
X134517712Y-87331206D01*
X134511682Y-87333891D01*
X134511681Y-87333891D01*
X134349278Y-87406197D01*
X134349276Y-87406198D01*
X134343248Y-87408882D01*
X134188747Y-87521134D01*
X134184326Y-87526044D01*
X134184325Y-87526045D01*
X134093636Y-87626766D01*
X134033190Y-87664006D01*
X133962207Y-87662654D01*
X133906364Y-87626766D01*
X133815675Y-87526045D01*
X133815674Y-87526044D01*
X133811253Y-87521134D01*
X133656752Y-87408882D01*
X133650724Y-87406198D01*
X133650722Y-87406197D01*
X133488319Y-87333891D01*
X133488318Y-87333891D01*
X133482288Y-87331206D01*
X133388887Y-87311353D01*
X133301944Y-87292872D01*
X133301939Y-87292872D01*
X133295487Y-87291500D01*
X133104513Y-87291500D01*
X133098061Y-87292872D01*
X133098056Y-87292872D01*
X133011113Y-87311353D01*
X132917712Y-87331206D01*
X132911682Y-87333891D01*
X132911681Y-87333891D01*
X132749278Y-87406197D01*
X132749276Y-87406198D01*
X132743248Y-87408882D01*
X132588747Y-87521134D01*
X132584326Y-87526044D01*
X132584325Y-87526045D01*
X132493636Y-87626766D01*
X132433190Y-87664006D01*
X132362207Y-87662654D01*
X132306364Y-87626766D01*
X132215675Y-87526045D01*
X132215674Y-87526044D01*
X132211253Y-87521134D01*
X132056752Y-87408882D01*
X132050724Y-87406198D01*
X132050722Y-87406197D01*
X131888319Y-87333891D01*
X131888318Y-87333891D01*
X131882288Y-87331206D01*
X131788887Y-87311353D01*
X131701944Y-87292872D01*
X131701939Y-87292872D01*
X131695487Y-87291500D01*
X131504513Y-87291500D01*
X131498061Y-87292872D01*
X131498056Y-87292872D01*
X131411113Y-87311353D01*
X131317712Y-87331206D01*
X131311682Y-87333891D01*
X131311681Y-87333891D01*
X131149278Y-87406197D01*
X131149276Y-87406198D01*
X131143248Y-87408882D01*
X130988747Y-87521134D01*
X130984326Y-87526044D01*
X130984325Y-87526045D01*
X130893636Y-87626766D01*
X130833190Y-87664006D01*
X130762207Y-87662654D01*
X130706364Y-87626766D01*
X130615675Y-87526045D01*
X130615674Y-87526044D01*
X130611253Y-87521134D01*
X130456752Y-87408882D01*
X130450724Y-87406198D01*
X130450722Y-87406197D01*
X130288319Y-87333891D01*
X130288318Y-87333891D01*
X130282288Y-87331206D01*
X130188887Y-87311353D01*
X130101944Y-87292872D01*
X130101939Y-87292872D01*
X130095487Y-87291500D01*
X129904513Y-87291500D01*
X129898061Y-87292872D01*
X129898056Y-87292872D01*
X129811113Y-87311353D01*
X129717712Y-87331206D01*
X129711682Y-87333891D01*
X129711681Y-87333891D01*
X129549278Y-87406197D01*
X129549276Y-87406198D01*
X129543248Y-87408882D01*
X129388747Y-87521134D01*
X129384326Y-87526044D01*
X129384325Y-87526045D01*
X129293636Y-87626766D01*
X129233190Y-87664006D01*
X129162207Y-87662654D01*
X129106364Y-87626766D01*
X129015675Y-87526045D01*
X129015674Y-87526044D01*
X129011253Y-87521134D01*
X128856752Y-87408882D01*
X128850724Y-87406198D01*
X128850722Y-87406197D01*
X128688319Y-87333891D01*
X128688318Y-87333891D01*
X128682288Y-87331206D01*
X128588887Y-87311353D01*
X128501944Y-87292872D01*
X128501939Y-87292872D01*
X128495487Y-87291500D01*
X128304513Y-87291500D01*
X128298061Y-87292872D01*
X128298056Y-87292872D01*
X128211113Y-87311353D01*
X128117712Y-87331206D01*
X128111682Y-87333891D01*
X128111681Y-87333891D01*
X127949278Y-87406197D01*
X127949276Y-87406198D01*
X127943248Y-87408882D01*
X127788747Y-87521134D01*
X127784326Y-87526044D01*
X127784325Y-87526045D01*
X127693636Y-87626766D01*
X127660960Y-87663056D01*
X127565473Y-87828444D01*
X127506458Y-88010072D01*
X127505768Y-88016633D01*
X127505768Y-88016635D01*
X127496049Y-88109110D01*
X127486496Y-88200000D01*
X126074578Y-88200000D01*
X126115542Y-88073928D01*
X126120504Y-88026723D01*
X126134814Y-87890565D01*
X126135504Y-87884000D01*
X126131946Y-87850148D01*
X126116232Y-87700635D01*
X126116232Y-87700633D01*
X126115542Y-87694072D01*
X126056527Y-87512444D01*
X125961040Y-87347056D01*
X125833253Y-87205134D01*
X125806440Y-87185653D01*
X125763086Y-87129430D01*
X125757011Y-87058694D01*
X125790143Y-86995902D01*
X125851963Y-86960991D01*
X125905621Y-86960246D01*
X126117656Y-87003385D01*
X126247089Y-87008131D01*
X126343949Y-87011683D01*
X126343953Y-87011683D01*
X126349113Y-87011872D01*
X126354233Y-87011216D01*
X126354235Y-87011216D01*
X126428166Y-87001745D01*
X126578847Y-86982442D01*
X126583795Y-86980957D01*
X126583802Y-86980956D01*
X126795747Y-86917369D01*
X126800690Y-86915886D01*
X126833520Y-86899803D01*
X127004049Y-86816262D01*
X127004052Y-86816260D01*
X127008684Y-86813991D01*
X127197243Y-86679494D01*
X127329062Y-86548134D01*
X129956500Y-86548134D01*
X129963255Y-86610316D01*
X130014385Y-86746705D01*
X130101739Y-86863261D01*
X130218295Y-86950615D01*
X130354684Y-87001745D01*
X130416866Y-87008500D01*
X132313134Y-87008500D01*
X132375316Y-87001745D01*
X132511705Y-86950615D01*
X132628261Y-86863261D01*
X132715615Y-86746705D01*
X132766745Y-86610316D01*
X132773500Y-86548134D01*
X132773500Y-84866941D01*
X143971599Y-84866941D01*
X143971637Y-84867486D01*
X143977240Y-84875846D01*
X143999336Y-84896306D01*
X144004759Y-84900793D01*
X144287811Y-85109478D01*
X144293701Y-85113332D01*
X144598258Y-85289167D01*
X144604527Y-85292334D01*
X144926798Y-85433132D01*
X144933381Y-85435580D01*
X145269332Y-85539574D01*
X145276147Y-85541273D01*
X145621588Y-85607169D01*
X145628565Y-85608100D01*
X145979214Y-85635081D01*
X145986222Y-85635227D01*
X146337692Y-85622954D01*
X146344688Y-85622317D01*
X146692582Y-85570945D01*
X146699481Y-85569529D01*
X147039498Y-85479693D01*
X147046158Y-85477529D01*
X147374047Y-85350349D01*
X147380446Y-85347446D01*
X147692099Y-85184517D01*
X147698144Y-85180914D01*
X147989694Y-84984261D01*
X147995288Y-84980015D01*
X148117910Y-84875656D01*
X148126342Y-84862788D01*
X148120313Y-84852523D01*
X146062812Y-82795022D01*
X146048868Y-82787408D01*
X146047035Y-82787539D01*
X146040420Y-82791790D01*
X143979213Y-84852997D01*
X143971599Y-84866941D01*
X132773500Y-84866941D01*
X132773500Y-84651866D01*
X132766745Y-84589684D01*
X132715615Y-84453295D01*
X132628261Y-84336739D01*
X132511705Y-84249385D01*
X132375316Y-84198255D01*
X132313134Y-84191500D01*
X130416866Y-84191500D01*
X130354684Y-84198255D01*
X130218295Y-84249385D01*
X130101739Y-84336739D01*
X130014385Y-84453295D01*
X129963255Y-84589684D01*
X129956500Y-84651866D01*
X129956500Y-86548134D01*
X127329062Y-86548134D01*
X127361303Y-86516005D01*
X127496458Y-86327917D01*
X127515512Y-86289365D01*
X127596784Y-86124922D01*
X127596785Y-86124920D01*
X127599078Y-86120280D01*
X127666408Y-85898671D01*
X127696640Y-85669041D01*
X127698327Y-85600000D01*
X127683796Y-85423251D01*
X127679773Y-85374318D01*
X127679772Y-85374312D01*
X127679349Y-85369167D01*
X127636574Y-85198872D01*
X127624184Y-85149544D01*
X127624183Y-85149540D01*
X127622925Y-85144533D01*
X127620866Y-85139797D01*
X127532630Y-84936868D01*
X127532628Y-84936865D01*
X127530570Y-84932131D01*
X127404764Y-84737665D01*
X127248887Y-84566358D01*
X127244836Y-84563159D01*
X127244832Y-84563155D01*
X127071177Y-84426011D01*
X127071172Y-84426008D01*
X127067123Y-84422810D01*
X127062607Y-84420317D01*
X127062604Y-84420315D01*
X126868879Y-84313373D01*
X126868875Y-84313371D01*
X126864355Y-84310876D01*
X126859486Y-84309152D01*
X126859482Y-84309150D01*
X126650903Y-84235288D01*
X126650899Y-84235287D01*
X126646028Y-84233562D01*
X126640935Y-84232655D01*
X126640932Y-84232654D01*
X126423095Y-84193851D01*
X126423089Y-84193850D01*
X126418006Y-84192945D01*
X126345096Y-84192054D01*
X126191581Y-84190179D01*
X126191579Y-84190179D01*
X126186411Y-84190116D01*
X125957464Y-84225150D01*
X125737314Y-84297106D01*
X125732726Y-84299494D01*
X125732722Y-84299496D01*
X125584939Y-84376427D01*
X125531872Y-84404052D01*
X125527739Y-84407155D01*
X125527736Y-84407157D01*
X125392760Y-84508500D01*
X125346655Y-84543117D01*
X125186639Y-84710564D01*
X125183725Y-84714836D01*
X125183724Y-84714837D01*
X125168152Y-84737665D01*
X125056119Y-84901899D01*
X124958602Y-85111981D01*
X124896707Y-85335169D01*
X124872095Y-85565469D01*
X124872392Y-85570622D01*
X124872392Y-85570625D01*
X124878067Y-85669041D01*
X124885427Y-85796697D01*
X124886564Y-85801743D01*
X124886565Y-85801749D01*
X124912329Y-85916072D01*
X124936346Y-86022642D01*
X124938288Y-86027424D01*
X124938289Y-86027428D01*
X125021540Y-86232450D01*
X125023484Y-86237237D01*
X125144501Y-86434719D01*
X125296147Y-86609784D01*
X125474349Y-86757730D01*
X125478810Y-86760337D01*
X125483042Y-86763300D01*
X125527371Y-86818757D01*
X125534680Y-86889376D01*
X125502650Y-86952736D01*
X125441449Y-86988722D01*
X125384575Y-86989760D01*
X125323944Y-86976872D01*
X125323939Y-86976872D01*
X125317487Y-86975500D01*
X125126513Y-86975500D01*
X125120061Y-86976872D01*
X125120056Y-86976872D01*
X125059425Y-86989760D01*
X124939712Y-87015206D01*
X124933682Y-87017891D01*
X124933681Y-87017891D01*
X124771278Y-87090197D01*
X124771276Y-87090198D01*
X124765248Y-87092882D01*
X124610747Y-87205134D01*
X124482960Y-87347056D01*
X124387473Y-87512444D01*
X124328458Y-87694072D01*
X124327768Y-87700633D01*
X124327768Y-87700635D01*
X124312054Y-87850148D01*
X124308496Y-87884000D01*
X118611751Y-87884000D01*
X118595040Y-87855056D01*
X118571079Y-87828444D01*
X118471675Y-87718045D01*
X118471674Y-87718044D01*
X118467253Y-87713134D01*
X118312752Y-87600882D01*
X118306724Y-87598198D01*
X118306722Y-87598197D01*
X118144319Y-87525891D01*
X118144318Y-87525891D01*
X118138288Y-87523206D01*
X118044887Y-87503353D01*
X117957944Y-87484872D01*
X117957939Y-87484872D01*
X117951487Y-87483500D01*
X117760513Y-87483500D01*
X117754061Y-87484872D01*
X117754056Y-87484872D01*
X117667113Y-87503353D01*
X117573712Y-87523206D01*
X117567682Y-87525891D01*
X117567681Y-87525891D01*
X117405278Y-87598197D01*
X117405276Y-87598198D01*
X117399248Y-87600882D01*
X117244747Y-87713134D01*
X117240326Y-87718044D01*
X117240325Y-87718045D01*
X117140922Y-87828444D01*
X117116960Y-87855056D01*
X117021473Y-88020444D01*
X116962458Y-88202072D01*
X116961768Y-88208633D01*
X116961768Y-88208635D01*
X116960429Y-88221373D01*
X116942496Y-88392000D01*
X111008000Y-88392000D01*
X111008000Y-86106000D01*
X121006496Y-86106000D01*
X121026458Y-86295928D01*
X121085473Y-86477556D01*
X121180960Y-86642944D01*
X121185378Y-86647851D01*
X121185379Y-86647852D01*
X121213870Y-86679494D01*
X121308747Y-86784866D01*
X121463248Y-86897118D01*
X121469276Y-86899802D01*
X121469278Y-86899803D01*
X121631681Y-86972109D01*
X121637712Y-86974794D01*
X121731112Y-86994647D01*
X121818056Y-87013128D01*
X121818061Y-87013128D01*
X121824513Y-87014500D01*
X122015487Y-87014500D01*
X122021939Y-87013128D01*
X122021944Y-87013128D01*
X122108888Y-86994647D01*
X122202288Y-86974794D01*
X122208319Y-86972109D01*
X122370722Y-86899803D01*
X122370724Y-86899802D01*
X122376752Y-86897118D01*
X122531253Y-86784866D01*
X122626130Y-86679494D01*
X122654621Y-86647852D01*
X122654622Y-86647851D01*
X122659040Y-86642944D01*
X122754527Y-86477556D01*
X122813542Y-86295928D01*
X122833504Y-86106000D01*
X122813542Y-85916072D01*
X122754527Y-85734444D01*
X122659040Y-85569056D01*
X122651189Y-85560336D01*
X122535675Y-85432045D01*
X122535674Y-85432044D01*
X122531253Y-85427134D01*
X122376752Y-85314882D01*
X122370724Y-85312198D01*
X122370722Y-85312197D01*
X122208319Y-85239891D01*
X122208318Y-85239891D01*
X122202288Y-85237206D01*
X122108888Y-85217353D01*
X122021944Y-85198872D01*
X122021939Y-85198872D01*
X122015487Y-85197500D01*
X121824513Y-85197500D01*
X121818061Y-85198872D01*
X121818056Y-85198872D01*
X121731112Y-85217353D01*
X121637712Y-85237206D01*
X121631682Y-85239891D01*
X121631681Y-85239891D01*
X121469278Y-85312197D01*
X121469276Y-85312198D01*
X121463248Y-85314882D01*
X121308747Y-85427134D01*
X121304326Y-85432044D01*
X121304325Y-85432045D01*
X121188812Y-85560336D01*
X121180960Y-85569056D01*
X121085473Y-85734444D01*
X121026458Y-85916072D01*
X121006496Y-86106000D01*
X111008000Y-86106000D01*
X111008000Y-84866941D01*
X112983599Y-84866941D01*
X112983637Y-84867486D01*
X112989240Y-84875846D01*
X113011336Y-84896306D01*
X113016759Y-84900793D01*
X113299811Y-85109478D01*
X113305701Y-85113332D01*
X113610258Y-85289167D01*
X113616527Y-85292334D01*
X113938798Y-85433132D01*
X113945381Y-85435580D01*
X114281332Y-85539574D01*
X114288147Y-85541273D01*
X114633588Y-85607169D01*
X114640565Y-85608100D01*
X114991214Y-85635081D01*
X114998222Y-85635227D01*
X115349692Y-85622954D01*
X115356688Y-85622317D01*
X115704582Y-85570945D01*
X115711481Y-85569529D01*
X116051498Y-85479693D01*
X116058158Y-85477529D01*
X116386047Y-85350349D01*
X116392446Y-85347446D01*
X116704099Y-85184517D01*
X116710144Y-85180914D01*
X117001694Y-84984261D01*
X117007288Y-84980015D01*
X117129910Y-84875656D01*
X117138342Y-84862788D01*
X117132313Y-84852523D01*
X115074812Y-82795022D01*
X115060868Y-82787408D01*
X115059035Y-82787539D01*
X115052420Y-82791790D01*
X112991213Y-84852997D01*
X112983599Y-84866941D01*
X111008000Y-84866941D01*
X111008000Y-82381666D01*
X111849406Y-82381666D01*
X111864133Y-82733021D01*
X111864818Y-82740013D01*
X111918620Y-83087559D01*
X111920080Y-83094426D01*
X112012288Y-83433807D01*
X112014502Y-83440463D01*
X112143970Y-83767462D01*
X112146909Y-83773823D01*
X112312019Y-84084347D01*
X112315653Y-84090348D01*
X112514339Y-84380523D01*
X112518633Y-84386098D01*
X112609208Y-84491030D01*
X112622251Y-84499447D01*
X112632282Y-84493508D01*
X114689978Y-82435812D01*
X114696356Y-82424132D01*
X115426408Y-82424132D01*
X115426539Y-82425965D01*
X115430790Y-82432580D01*
X117492699Y-84494489D01*
X117506643Y-84502103D01*
X117507423Y-84502048D01*
X117515470Y-84496696D01*
X117520932Y-84490880D01*
X117525454Y-84485491D01*
X117736113Y-84203896D01*
X117740003Y-84198042D01*
X117827954Y-84048134D01*
X133226500Y-84048134D01*
X133233255Y-84110316D01*
X133284385Y-84246705D01*
X133371739Y-84363261D01*
X133488295Y-84450615D01*
X133624684Y-84501745D01*
X133686866Y-84508500D01*
X135583134Y-84508500D01*
X135645316Y-84501745D01*
X135781705Y-84450615D01*
X135898261Y-84363261D01*
X135985615Y-84246705D01*
X136036745Y-84110316D01*
X136043500Y-84048134D01*
X136043500Y-82151866D01*
X136036745Y-82089684D01*
X135985615Y-81953295D01*
X135898261Y-81836739D01*
X135781705Y-81749385D01*
X135645316Y-81698255D01*
X135583134Y-81691500D01*
X133686866Y-81691500D01*
X133624684Y-81698255D01*
X133488295Y-81749385D01*
X133371739Y-81836739D01*
X133284385Y-81953295D01*
X133233255Y-82089684D01*
X133226500Y-82151866D01*
X133226500Y-84048134D01*
X117827954Y-84048134D01*
X117917962Y-83894719D01*
X117921176Y-83888465D01*
X118064214Y-83567195D01*
X118066711Y-83560620D01*
X118173048Y-83225405D01*
X118174794Y-83218603D01*
X118243100Y-82873635D01*
X118244081Y-82866654D01*
X118273619Y-82514898D01*
X118273833Y-82510529D01*
X118275025Y-82425178D01*
X118274934Y-82420828D01*
X118255227Y-82068352D01*
X118254445Y-82061380D01*
X118195794Y-81714612D01*
X118194241Y-81707776D01*
X118097300Y-81369704D01*
X118094997Y-81363091D01*
X117960976Y-81037930D01*
X117957947Y-81031610D01*
X117788521Y-80723424D01*
X117784795Y-80717462D01*
X117684581Y-80575400D01*
X125791500Y-80575400D01*
X125802474Y-80681166D01*
X125858450Y-80848946D01*
X125951522Y-80999348D01*
X126076697Y-81124305D01*
X126082927Y-81128145D01*
X126082928Y-81128146D01*
X126220090Y-81212694D01*
X126227262Y-81217115D01*
X126270701Y-81231523D01*
X126388611Y-81270632D01*
X126388613Y-81270632D01*
X126395139Y-81272797D01*
X126401975Y-81273497D01*
X126401978Y-81273498D01*
X126445031Y-81277909D01*
X126499600Y-81283500D01*
X127800400Y-81283500D01*
X127803646Y-81283163D01*
X127803650Y-81283163D01*
X127899308Y-81273238D01*
X127899312Y-81273237D01*
X127906166Y-81272526D01*
X127912702Y-81270345D01*
X127912704Y-81270345D01*
X128044806Y-81226272D01*
X128073946Y-81216550D01*
X128224348Y-81123478D01*
X128349305Y-80998303D01*
X128439353Y-80852220D01*
X128492124Y-80804727D01*
X128562196Y-80793303D01*
X128627320Y-80821577D01*
X128637782Y-80831364D01*
X128743234Y-80941906D01*
X128751186Y-80948941D01*
X128927525Y-81080141D01*
X128936562Y-81085745D01*
X129132484Y-81185357D01*
X129142335Y-81189357D01*
X129352240Y-81254534D01*
X129362624Y-81256817D01*
X129378043Y-81258861D01*
X129392207Y-81256665D01*
X129396000Y-81243478D01*
X129396000Y-81241192D01*
X129904000Y-81241192D01*
X129907973Y-81254723D01*
X129918580Y-81256248D01*
X130036421Y-81231523D01*
X130046617Y-81228463D01*
X130251029Y-81147737D01*
X130260561Y-81143006D01*
X130448462Y-81028984D01*
X130457052Y-81022720D01*
X130623052Y-80878673D01*
X130630472Y-80871042D01*
X130769826Y-80701089D01*
X130775850Y-80692322D01*
X130884576Y-80501318D01*
X130889041Y-80491654D01*
X130964031Y-80285059D01*
X130965344Y-80280193D01*
X136101289Y-80280193D01*
X136110124Y-80384325D01*
X136111914Y-80394797D01*
X136167130Y-80607535D01*
X136170665Y-80617575D01*
X136260937Y-80817970D01*
X136266106Y-80827256D01*
X136388850Y-81009575D01*
X136395519Y-81017870D01*
X136547228Y-81176900D01*
X136555186Y-81183941D01*
X136731525Y-81315141D01*
X136740562Y-81320745D01*
X136936484Y-81420357D01*
X136946335Y-81424357D01*
X137156240Y-81489534D01*
X137166624Y-81491817D01*
X137182043Y-81493861D01*
X137196207Y-81491665D01*
X137200000Y-81478478D01*
X137200000Y-81476192D01*
X137708000Y-81476192D01*
X137711973Y-81489723D01*
X137722580Y-81491248D01*
X137840421Y-81466523D01*
X137850617Y-81463463D01*
X138055029Y-81382737D01*
X138064561Y-81378006D01*
X138252462Y-81263984D01*
X138261052Y-81257720D01*
X138427052Y-81113673D01*
X138434470Y-81106044D01*
X138460391Y-81074431D01*
X138519051Y-81034436D01*
X138590021Y-81032504D01*
X138650770Y-81069248D01*
X138664969Y-81088017D01*
X138755522Y-81234348D01*
X138880697Y-81359305D01*
X138886927Y-81363145D01*
X138886928Y-81363146D01*
X139024090Y-81447694D01*
X139031262Y-81452115D01*
X139074701Y-81466523D01*
X139192611Y-81505632D01*
X139192613Y-81505632D01*
X139199139Y-81507797D01*
X139205975Y-81508497D01*
X139205978Y-81508498D01*
X139257842Y-81513812D01*
X139323569Y-81540654D01*
X139364350Y-81598769D01*
X139367238Y-81669707D01*
X139331316Y-81730945D01*
X139284145Y-81758920D01*
X139167314Y-81797106D01*
X139162726Y-81799494D01*
X139162722Y-81799496D01*
X138966461Y-81901663D01*
X138961872Y-81904052D01*
X138957739Y-81907155D01*
X138957736Y-81907157D01*
X138802357Y-82023819D01*
X138776655Y-82043117D01*
X138616639Y-82210564D01*
X138613725Y-82214836D01*
X138613724Y-82214837D01*
X138598152Y-82237665D01*
X138486119Y-82401899D01*
X138388602Y-82611981D01*
X138326707Y-82835169D01*
X138302095Y-83065469D01*
X138302392Y-83070622D01*
X138302392Y-83070625D01*
X138308067Y-83169041D01*
X138315427Y-83296697D01*
X138316564Y-83301743D01*
X138316565Y-83301749D01*
X138346326Y-83433807D01*
X138366346Y-83522642D01*
X138368288Y-83527424D01*
X138368289Y-83527428D01*
X138451540Y-83732450D01*
X138453484Y-83737237D01*
X138574501Y-83934719D01*
X138726147Y-84109784D01*
X138904349Y-84257730D01*
X139104322Y-84374584D01*
X139109147Y-84376426D01*
X139109148Y-84376427D01*
X139134474Y-84386098D01*
X139320694Y-84457209D01*
X139325760Y-84458240D01*
X139325761Y-84458240D01*
X139378846Y-84469040D01*
X139547656Y-84503385D01*
X139677089Y-84508131D01*
X139773949Y-84511683D01*
X139773953Y-84511683D01*
X139779113Y-84511872D01*
X139784233Y-84511216D01*
X139784235Y-84511216D01*
X139876104Y-84499447D01*
X140008847Y-84482442D01*
X140013795Y-84480957D01*
X140013802Y-84480956D01*
X140225747Y-84417369D01*
X140230690Y-84415886D01*
X140235324Y-84413616D01*
X140434049Y-84316262D01*
X140434052Y-84316260D01*
X140438684Y-84313991D01*
X140627243Y-84179494D01*
X140791303Y-84016005D01*
X140926458Y-83827917D01*
X140973641Y-83732450D01*
X141026784Y-83624922D01*
X141026785Y-83624920D01*
X141029078Y-83620280D01*
X141096408Y-83398671D01*
X141126640Y-83169041D01*
X141128327Y-83100000D01*
X141122032Y-83023434D01*
X141109773Y-82874318D01*
X141109772Y-82874312D01*
X141109349Y-82869167D01*
X141052925Y-82644533D01*
X141050866Y-82639797D01*
X140962630Y-82436868D01*
X140962628Y-82436865D01*
X140960570Y-82432131D01*
X140927923Y-82381666D01*
X142837406Y-82381666D01*
X142852133Y-82733021D01*
X142852818Y-82740013D01*
X142906620Y-83087559D01*
X142908080Y-83094426D01*
X143000288Y-83433807D01*
X143002502Y-83440463D01*
X143131970Y-83767462D01*
X143134909Y-83773823D01*
X143300019Y-84084347D01*
X143303653Y-84090348D01*
X143502339Y-84380523D01*
X143506633Y-84386098D01*
X143597208Y-84491030D01*
X143610251Y-84499447D01*
X143620282Y-84493508D01*
X145677978Y-82435812D01*
X145684356Y-82424132D01*
X146414408Y-82424132D01*
X146414539Y-82425965D01*
X146418790Y-82432580D01*
X148480699Y-84494489D01*
X148494643Y-84502103D01*
X148495423Y-84502048D01*
X148503470Y-84496696D01*
X148508932Y-84490880D01*
X148513454Y-84485491D01*
X148724113Y-84203896D01*
X148728003Y-84198042D01*
X148905962Y-83894719D01*
X148909176Y-83888465D01*
X149052214Y-83567195D01*
X149054711Y-83560620D01*
X149161048Y-83225405D01*
X149162794Y-83218603D01*
X149231100Y-82873635D01*
X149232081Y-82866654D01*
X149261619Y-82514898D01*
X149261833Y-82510529D01*
X149263025Y-82425178D01*
X149262934Y-82420828D01*
X149243227Y-82068352D01*
X149242445Y-82061380D01*
X149183794Y-81714612D01*
X149182241Y-81707776D01*
X149085300Y-81369704D01*
X149082997Y-81363091D01*
X148948976Y-81037930D01*
X148945947Y-81031610D01*
X148776521Y-80723424D01*
X148772795Y-80717462D01*
X148570076Y-80430090D01*
X148565715Y-80424588D01*
X148503394Y-80354394D01*
X148490004Y-80346015D01*
X148480446Y-80351764D01*
X146422022Y-82410188D01*
X146414408Y-82424132D01*
X145684356Y-82424132D01*
X145685592Y-82421868D01*
X145685461Y-82420035D01*
X145681210Y-82413420D01*
X143620595Y-80352805D01*
X143606651Y-80345191D01*
X143606342Y-80345213D01*
X143597671Y-80351068D01*
X143562436Y-80389654D01*
X143557992Y-80395103D01*
X143351287Y-80679608D01*
X143347470Y-80685530D01*
X143173771Y-80991297D01*
X143170641Y-80997602D01*
X143032101Y-81320838D01*
X143029699Y-81327439D01*
X142928055Y-81664099D01*
X142926400Y-81670942D01*
X142862918Y-82016824D01*
X142862035Y-82023819D01*
X142837504Y-82374621D01*
X142837406Y-82381666D01*
X140927923Y-82381666D01*
X140834764Y-82237665D01*
X140678887Y-82066358D01*
X140674836Y-82063159D01*
X140674832Y-82063155D01*
X140501177Y-81926011D01*
X140501172Y-81926008D01*
X140497123Y-81922810D01*
X140492607Y-81920317D01*
X140492604Y-81920315D01*
X140298879Y-81813373D01*
X140298875Y-81813371D01*
X140294355Y-81810876D01*
X140289486Y-81809152D01*
X140289482Y-81809150D01*
X140159929Y-81763273D01*
X140102393Y-81721679D01*
X140076477Y-81655581D01*
X140090411Y-81585965D01*
X140139770Y-81534934D01*
X140201989Y-81518500D01*
X140604400Y-81518500D01*
X140607646Y-81518163D01*
X140607650Y-81518163D01*
X140703308Y-81508238D01*
X140703312Y-81508237D01*
X140710166Y-81507526D01*
X140716702Y-81505345D01*
X140716704Y-81505345D01*
X140848806Y-81461272D01*
X140877946Y-81451550D01*
X141028348Y-81358478D01*
X141153305Y-81233303D01*
X141162203Y-81218868D01*
X141242275Y-81088968D01*
X141242276Y-81088966D01*
X141246115Y-81082738D01*
X141301797Y-80914861D01*
X141312500Y-80810400D01*
X141312500Y-79983178D01*
X143973338Y-79983178D01*
X143979184Y-79992974D01*
X146037188Y-82050978D01*
X146051132Y-82058592D01*
X146052965Y-82058461D01*
X146059580Y-82054210D01*
X148119714Y-79994076D01*
X148127328Y-79980132D01*
X148127323Y-79980057D01*
X148121217Y-79971081D01*
X148065933Y-79921303D01*
X148060445Y-79916891D01*
X147774508Y-79712180D01*
X147768561Y-79708407D01*
X147461586Y-79536844D01*
X147455268Y-79533762D01*
X147131073Y-79397484D01*
X147124437Y-79395121D01*
X146787084Y-79295832D01*
X146780241Y-79294226D01*
X146433898Y-79233157D01*
X146426927Y-79232326D01*
X146075949Y-79210244D01*
X146068918Y-79210195D01*
X145717651Y-79227374D01*
X145710673Y-79228108D01*
X145363519Y-79284335D01*
X145356651Y-79285845D01*
X145017935Y-79380417D01*
X145011279Y-79382683D01*
X144685212Y-79514422D01*
X144678857Y-79517412D01*
X144369501Y-79684681D01*
X144363512Y-79688365D01*
X144074731Y-79889073D01*
X144069200Y-79893394D01*
X143981736Y-79969964D01*
X143973338Y-79983178D01*
X141312500Y-79983178D01*
X141312500Y-79209600D01*
X141301526Y-79103834D01*
X141245550Y-78936054D01*
X141152478Y-78785652D01*
X141027303Y-78660695D01*
X140996965Y-78641994D01*
X140882968Y-78571725D01*
X140882966Y-78571724D01*
X140876738Y-78567885D01*
X140757498Y-78528335D01*
X140715389Y-78514368D01*
X140715387Y-78514368D01*
X140708861Y-78512203D01*
X140702025Y-78511503D01*
X140702022Y-78511502D01*
X140658969Y-78507091D01*
X140604400Y-78501500D01*
X139303600Y-78501500D01*
X139300354Y-78501837D01*
X139300350Y-78501837D01*
X139204692Y-78511762D01*
X139204688Y-78511763D01*
X139197834Y-78512474D01*
X139191298Y-78514655D01*
X139191296Y-78514655D01*
X139064733Y-78556880D01*
X139030054Y-78568450D01*
X138879652Y-78661522D01*
X138754695Y-78786697D01*
X138750855Y-78792927D01*
X138750854Y-78792928D01*
X138664648Y-78932780D01*
X138611876Y-78980273D01*
X138541804Y-78991697D01*
X138476680Y-78963423D01*
X138466218Y-78953636D01*
X138360766Y-78843094D01*
X138352814Y-78836059D01*
X138176475Y-78704859D01*
X138167438Y-78699255D01*
X137971516Y-78599643D01*
X137961665Y-78595643D01*
X137751760Y-78530466D01*
X137741376Y-78528183D01*
X137725957Y-78526139D01*
X137711793Y-78528335D01*
X137708000Y-78541522D01*
X137708000Y-81476192D01*
X137200000Y-81476192D01*
X137200000Y-80282115D01*
X137195525Y-80266876D01*
X137194135Y-80265671D01*
X137186452Y-80264000D01*
X136118030Y-80264000D01*
X136103352Y-80268310D01*
X136101289Y-80280193D01*
X130965344Y-80280193D01*
X130966802Y-80274792D01*
X131006123Y-80057345D01*
X131007056Y-80049116D01*
X131007268Y-80044624D01*
X131003525Y-80031876D01*
X131002135Y-80030671D01*
X130994452Y-80029000D01*
X129922115Y-80029000D01*
X129906876Y-80033475D01*
X129905671Y-80034865D01*
X129904000Y-80042548D01*
X129904000Y-81241192D01*
X129396000Y-81241192D01*
X129396000Y-79740376D01*
X136096732Y-79740376D01*
X136100475Y-79753124D01*
X136101865Y-79754329D01*
X136109548Y-79756000D01*
X137181885Y-79756000D01*
X137197124Y-79751525D01*
X137198329Y-79750135D01*
X137200000Y-79742452D01*
X137200000Y-78543808D01*
X137196027Y-78530277D01*
X137185420Y-78528752D01*
X137067579Y-78553477D01*
X137057383Y-78556537D01*
X136852971Y-78637263D01*
X136843439Y-78641994D01*
X136655538Y-78756016D01*
X136646948Y-78762280D01*
X136480948Y-78906327D01*
X136473528Y-78913958D01*
X136334174Y-79083911D01*
X136328150Y-79092678D01*
X136219424Y-79283682D01*
X136214959Y-79293346D01*
X136139969Y-79499941D01*
X136137198Y-79510208D01*
X136097877Y-79727655D01*
X136096944Y-79735884D01*
X136096732Y-79740376D01*
X129396000Y-79740376D01*
X129396000Y-79502885D01*
X129904000Y-79502885D01*
X129908475Y-79518124D01*
X129909865Y-79519329D01*
X129917548Y-79521000D01*
X130985970Y-79521000D01*
X131000648Y-79516690D01*
X131002711Y-79504807D01*
X130993876Y-79400675D01*
X130992086Y-79390203D01*
X130936870Y-79177465D01*
X130933335Y-79167425D01*
X130843063Y-78967030D01*
X130837894Y-78957744D01*
X130715150Y-78775425D01*
X130708481Y-78767130D01*
X130556772Y-78608100D01*
X130548814Y-78601059D01*
X130372475Y-78469859D01*
X130363438Y-78464255D01*
X130167516Y-78364643D01*
X130157665Y-78360643D01*
X129947760Y-78295466D01*
X129937376Y-78293183D01*
X129921957Y-78291139D01*
X129907793Y-78293335D01*
X129904000Y-78306522D01*
X129904000Y-79502885D01*
X129396000Y-79502885D01*
X129396000Y-78308808D01*
X129392027Y-78295277D01*
X129381420Y-78293752D01*
X129263579Y-78318477D01*
X129253383Y-78321537D01*
X129048971Y-78402263D01*
X129039439Y-78406994D01*
X128851538Y-78521016D01*
X128842948Y-78527280D01*
X128676948Y-78671327D01*
X128669530Y-78678956D01*
X128643609Y-78710569D01*
X128584949Y-78750564D01*
X128513979Y-78752496D01*
X128453230Y-78715752D01*
X128439030Y-78696982D01*
X128352332Y-78556880D01*
X128348478Y-78550652D01*
X128223303Y-78425695D01*
X128192965Y-78406994D01*
X128078968Y-78336725D01*
X128078966Y-78336724D01*
X128072738Y-78332885D01*
X127953498Y-78293335D01*
X127911389Y-78279368D01*
X127911387Y-78279368D01*
X127904861Y-78277203D01*
X127898025Y-78276503D01*
X127898022Y-78276502D01*
X127854969Y-78272091D01*
X127800400Y-78266500D01*
X126499600Y-78266500D01*
X126496354Y-78266837D01*
X126496350Y-78266837D01*
X126400692Y-78276762D01*
X126400688Y-78276763D01*
X126393834Y-78277474D01*
X126387298Y-78279655D01*
X126387296Y-78279655D01*
X126255194Y-78323728D01*
X126226054Y-78333450D01*
X126075652Y-78426522D01*
X125950695Y-78551697D01*
X125946855Y-78557927D01*
X125946854Y-78557928D01*
X125876954Y-78671327D01*
X125857885Y-78702262D01*
X125802203Y-78870139D01*
X125791500Y-78974600D01*
X125791500Y-80575400D01*
X117684581Y-80575400D01*
X117582076Y-80430090D01*
X117577715Y-80424588D01*
X117515394Y-80354394D01*
X117502004Y-80346015D01*
X117492446Y-80351764D01*
X115434022Y-82410188D01*
X115426408Y-82424132D01*
X114696356Y-82424132D01*
X114697592Y-82421868D01*
X114697461Y-82420035D01*
X114693210Y-82413420D01*
X112632595Y-80352805D01*
X112618651Y-80345191D01*
X112618342Y-80345213D01*
X112609671Y-80351068D01*
X112574436Y-80389654D01*
X112569992Y-80395103D01*
X112363287Y-80679608D01*
X112359470Y-80685530D01*
X112185771Y-80991297D01*
X112182641Y-80997602D01*
X112044101Y-81320838D01*
X112041699Y-81327439D01*
X111940055Y-81664099D01*
X111938400Y-81670942D01*
X111874918Y-82016824D01*
X111874035Y-82023819D01*
X111849504Y-82374621D01*
X111849406Y-82381666D01*
X111008000Y-82381666D01*
X111008000Y-79983178D01*
X112985338Y-79983178D01*
X112991184Y-79992974D01*
X115049188Y-82050978D01*
X115063132Y-82058592D01*
X115064965Y-82058461D01*
X115071580Y-82054210D01*
X117131714Y-79994076D01*
X117139328Y-79980132D01*
X117139323Y-79980057D01*
X117133217Y-79971081D01*
X117077933Y-79921303D01*
X117072445Y-79916891D01*
X116786508Y-79712180D01*
X116780561Y-79708407D01*
X116473586Y-79536844D01*
X116467268Y-79533762D01*
X116143073Y-79397484D01*
X116136437Y-79395121D01*
X115799084Y-79295832D01*
X115792241Y-79294226D01*
X115445898Y-79233157D01*
X115438927Y-79232326D01*
X115087949Y-79210244D01*
X115080918Y-79210195D01*
X114729651Y-79227374D01*
X114722673Y-79228108D01*
X114375519Y-79284335D01*
X114368651Y-79285845D01*
X114029935Y-79380417D01*
X114023279Y-79382683D01*
X113697212Y-79514422D01*
X113690857Y-79517412D01*
X113381501Y-79684681D01*
X113375512Y-79688365D01*
X113086731Y-79889073D01*
X113081200Y-79893394D01*
X112993736Y-79969964D01*
X112985338Y-79983178D01*
X111008000Y-79983178D01*
X111008000Y-77634000D01*
X111028002Y-77565879D01*
X111081658Y-77519386D01*
X111134000Y-77508000D01*
X149866000Y-77508000D01*
X149934121Y-77528002D01*
G37*
%TD.AperFunction*%
%TD*%
M02*
