%TF.GenerationSoftware,KiCad,Pcbnew,6.0.1-79c1e3a40b~116~ubuntu21.10.1*%
%TF.CreationDate,2022-03-15T20:57:30-06:00*%
%TF.ProjectId,PowerBackup,506f7765-7242-4616-936b-75702e6b6963,rev?*%
%TF.SameCoordinates,Original*%
%TF.FileFunction,Paste,Bot*%
%TF.FilePolarity,Positive*%
%FSLAX46Y46*%
G04 Gerber Fmt 4.6, Leading zero omitted, Abs format (unit mm)*
G04 Created by KiCad (PCBNEW 6.0.1-79c1e3a40b~116~ubuntu21.10.1) date 2022-03-15 20:57:30*
%MOMM*%
%LPD*%
G01*
G04 APERTURE LIST*
G04 Aperture macros list*
%AMRoundRect*
0 Rectangle with rounded corners*
0 $1 Rounding radius*
0 $2 $3 $4 $5 $6 $7 $8 $9 X,Y pos of 4 corners*
0 Add a 4 corners polygon primitive as box body*
4,1,4,$2,$3,$4,$5,$6,$7,$8,$9,$2,$3,0*
0 Add four circle primitives for the rounded corners*
1,1,$1+$1,$2,$3*
1,1,$1+$1,$4,$5*
1,1,$1+$1,$6,$7*
1,1,$1+$1,$8,$9*
0 Add four rect primitives between the rounded corners*
20,1,$1+$1,$2,$3,$4,$5,0*
20,1,$1+$1,$4,$5,$6,$7,0*
20,1,$1+$1,$6,$7,$8,$9,0*
20,1,$1+$1,$8,$9,$2,$3,0*%
G04 Aperture macros list end*
%ADD10RoundRect,0.250000X0.925000X-0.787500X0.925000X0.787500X-0.925000X0.787500X-0.925000X-0.787500X0*%
%ADD11RoundRect,0.225000X0.225000X0.250000X-0.225000X0.250000X-0.225000X-0.250000X0.225000X-0.250000X0*%
%ADD12RoundRect,0.200000X0.200000X0.275000X-0.200000X0.275000X-0.200000X-0.275000X0.200000X-0.275000X0*%
%ADD13RoundRect,0.250000X0.262500X0.450000X-0.262500X0.450000X-0.262500X-0.450000X0.262500X-0.450000X0*%
%ADD14RoundRect,0.250000X0.787500X0.925000X-0.787500X0.925000X-0.787500X-0.925000X0.787500X-0.925000X0*%
%ADD15RoundRect,0.225000X-0.250000X0.225000X-0.250000X-0.225000X0.250000X-0.225000X0.250000X0.225000X0*%
%ADD16RoundRect,0.225000X0.250000X-0.225000X0.250000X0.225000X-0.250000X0.225000X-0.250000X-0.225000X0*%
%ADD17RoundRect,0.250000X0.255000X0.255000X-0.255000X0.255000X-0.255000X-0.255000X0.255000X-0.255000X0*%
%ADD18RoundRect,0.062500X0.375000X0.062500X-0.375000X0.062500X-0.375000X-0.062500X0.375000X-0.062500X0*%
%ADD19RoundRect,0.062500X0.062500X0.375000X-0.062500X0.375000X-0.062500X-0.375000X0.062500X-0.375000X0*%
%ADD20RoundRect,0.150000X-0.625000X0.150000X-0.625000X-0.150000X0.625000X-0.150000X0.625000X0.150000X0*%
%ADD21RoundRect,0.250000X-0.650000X0.350000X-0.650000X-0.350000X0.650000X-0.350000X0.650000X0.350000X0*%
%ADD22RoundRect,0.250000X-0.450000X0.262500X-0.450000X-0.262500X0.450000X-0.262500X0.450000X0.262500X0*%
%ADD23RoundRect,0.150000X0.625000X-0.150000X0.625000X0.150000X-0.625000X0.150000X-0.625000X-0.150000X0*%
%ADD24RoundRect,0.250000X0.650000X-0.350000X0.650000X0.350000X-0.650000X0.350000X-0.650000X-0.350000X0*%
%ADD25R,6.700000X2.500000*%
G04 APERTURE END LIST*
D10*
%TO.C,C22*%
X116840000Y-108380500D03*
X116840000Y-103455500D03*
%TD*%
D11*
%TO.C,C20*%
X115075000Y-117094000D03*
X113525000Y-117094000D03*
%TD*%
D12*
%TO.C,R25*%
X122025000Y-85000000D03*
X120375000Y-85000000D03*
%TD*%
D13*
%TO.C,R1*%
X145162500Y-100000000D03*
X143337500Y-100000000D03*
%TD*%
%TO.C,R7*%
X145266000Y-112446000D03*
X143441000Y-112446000D03*
%TD*%
D14*
%TO.C,C23*%
X117016500Y-112268000D03*
X112091500Y-112268000D03*
%TD*%
D15*
%TO.C,C21*%
X125984000Y-115303000D03*
X125984000Y-116853000D03*
%TD*%
D14*
%TO.C,C24*%
X124890500Y-112268000D03*
X119965500Y-112268000D03*
%TD*%
D13*
%TO.C,R4*%
X145266000Y-114986000D03*
X143441000Y-114986000D03*
%TD*%
D16*
%TO.C,C19*%
X111506000Y-107709000D03*
X111506000Y-106159000D03*
%TD*%
D15*
%TO.C,C13*%
X126238000Y-88633000D03*
X126238000Y-90183000D03*
%TD*%
D13*
%TO.C,R5*%
X145266000Y-107112000D03*
X143441000Y-107112000D03*
%TD*%
D17*
%TO.C,U1*%
X137125000Y-104625000D03*
X135875000Y-104625000D03*
X137125000Y-105875000D03*
X135875000Y-105875000D03*
D18*
X138437500Y-104000000D03*
X138437500Y-104500000D03*
X138437500Y-105000000D03*
X138437500Y-105500000D03*
X138437500Y-106000000D03*
X138437500Y-106500000D03*
D19*
X137750000Y-107187500D03*
X137250000Y-107187500D03*
X136750000Y-107187500D03*
X136250000Y-107187500D03*
X135750000Y-107187500D03*
X135250000Y-107187500D03*
D18*
X134562500Y-106500000D03*
X134562500Y-106000000D03*
X134562500Y-105500000D03*
X134562500Y-105000000D03*
X134562500Y-104500000D03*
X134562500Y-104000000D03*
D19*
X135250000Y-103312500D03*
X135750000Y-103312500D03*
X136250000Y-103312500D03*
X136750000Y-103312500D03*
X137250000Y-103312500D03*
X137750000Y-103312500D03*
%TD*%
D13*
%TO.C,R6*%
X145266000Y-102286000D03*
X143441000Y-102286000D03*
%TD*%
D20*
%TO.C,J5*%
X145875000Y-90575000D03*
X145875000Y-91575000D03*
X145875000Y-92575000D03*
X145875000Y-93575000D03*
D21*
X143350000Y-94875000D03*
X143350000Y-89275000D03*
%TD*%
D13*
%TO.C,R24*%
X131912500Y-105600000D03*
X130087500Y-105600000D03*
%TD*%
%TO.C,R2*%
X145266000Y-104826000D03*
X143441000Y-104826000D03*
%TD*%
D22*
%TO.C,R14*%
X128250000Y-105437500D03*
X128250000Y-107262500D03*
%TD*%
D23*
%TO.C,J3*%
X137725000Y-93575000D03*
X137725000Y-92575000D03*
X137725000Y-91575000D03*
X137725000Y-90575000D03*
D24*
X140250000Y-94875000D03*
X140250000Y-89275000D03*
%TD*%
D13*
%TO.C,R3*%
X145266000Y-109906000D03*
X143441000Y-109906000D03*
%TD*%
D25*
%TO.C,L1*%
X128270000Y-93108000D03*
X128270000Y-98408000D03*
%TD*%
M02*
