%TF.GenerationSoftware,KiCad,Pcbnew,6.0.1-79c1e3a40b~116~ubuntu21.10.1*%
%TF.CreationDate,2022-03-15T20:57:31-06:00*%
%TF.ProjectId,PowerBackup,506f7765-7242-4616-936b-75702e6b6963,rev?*%
%TF.SameCoordinates,Original*%
%TF.FileFunction,Legend,Top*%
%TF.FilePolarity,Positive*%
%FSLAX46Y46*%
G04 Gerber Fmt 4.6, Leading zero omitted, Abs format (unit mm)*
G04 Created by KiCad (PCBNEW 6.0.1-79c1e3a40b~116~ubuntu21.10.1) date 2022-03-15 20:57:31*
%MOMM*%
%LPD*%
G01*
G04 APERTURE LIST*
%ADD10C,0.150000*%
%ADD11C,0.120000*%
G04 APERTURE END LIST*
D10*
X141221428Y-78407142D02*
X141830952Y-78407142D01*
X141526190Y-78711904D02*
X141526190Y-78102380D01*
X142250000Y-78711904D02*
X142402380Y-78711904D01*
X142478571Y-78673809D01*
X142516666Y-78635714D01*
X142592857Y-78521428D01*
X142630952Y-78369047D01*
X142630952Y-78064285D01*
X142592857Y-77988095D01*
X142554761Y-77950000D01*
X142478571Y-77911904D01*
X142326190Y-77911904D01*
X142250000Y-77950000D01*
X142211904Y-77988095D01*
X142173809Y-78064285D01*
X142173809Y-78254761D01*
X142211904Y-78330952D01*
X142250000Y-78369047D01*
X142326190Y-78407142D01*
X142478571Y-78407142D01*
X142554761Y-78369047D01*
X142592857Y-78330952D01*
X142630952Y-78254761D01*
X142859523Y-77911904D02*
X143126190Y-78711904D01*
X143392857Y-77911904D01*
X143028571Y-89123809D02*
X143142857Y-89161904D01*
X143333333Y-89161904D01*
X143409523Y-89123809D01*
X143447619Y-89085714D01*
X143485714Y-89009523D01*
X143485714Y-88933333D01*
X143447619Y-88857142D01*
X143409523Y-88819047D01*
X143333333Y-88780952D01*
X143180952Y-88742857D01*
X143104761Y-88704761D01*
X143066666Y-88666666D01*
X143028571Y-88590476D01*
X143028571Y-88514285D01*
X143066666Y-88438095D01*
X143104761Y-88400000D01*
X143180952Y-88361904D01*
X143371428Y-88361904D01*
X143485714Y-88400000D01*
X143828571Y-89161904D02*
X143828571Y-88361904D01*
X144019047Y-88361904D01*
X144133333Y-88400000D01*
X144209523Y-88476190D01*
X144247619Y-88552380D01*
X144285714Y-88704761D01*
X144285714Y-88819047D01*
X144247619Y-88971428D01*
X144209523Y-89047619D01*
X144133333Y-89123809D01*
X144019047Y-89161904D01*
X143828571Y-89161904D01*
X144590476Y-88933333D02*
X144971428Y-88933333D01*
X144514285Y-89161904D02*
X144780952Y-88361904D01*
X145047619Y-89161904D01*
X142897619Y-95323809D02*
X143011904Y-95361904D01*
X143202380Y-95361904D01*
X143278571Y-95323809D01*
X143316666Y-95285714D01*
X143354761Y-95209523D01*
X143354761Y-95133333D01*
X143316666Y-95057142D01*
X143278571Y-95019047D01*
X143202380Y-94980952D01*
X143050000Y-94942857D01*
X142973809Y-94904761D01*
X142935714Y-94866666D01*
X142897619Y-94790476D01*
X142897619Y-94714285D01*
X142935714Y-94638095D01*
X142973809Y-94600000D01*
X143050000Y-94561904D01*
X143240476Y-94561904D01*
X143354761Y-94600000D01*
X144154761Y-95285714D02*
X144116666Y-95323809D01*
X144002380Y-95361904D01*
X143926190Y-95361904D01*
X143811904Y-95323809D01*
X143735714Y-95247619D01*
X143697619Y-95171428D01*
X143659523Y-95019047D01*
X143659523Y-94904761D01*
X143697619Y-94752380D01*
X143735714Y-94676190D01*
X143811904Y-94600000D01*
X143926190Y-94561904D01*
X144002380Y-94561904D01*
X144116666Y-94600000D01*
X144154761Y-94638095D01*
X144878571Y-95361904D02*
X144497619Y-95361904D01*
X144497619Y-94561904D01*
X117821428Y-109407142D02*
X118430952Y-109407142D01*
X118126190Y-109711904D02*
X118126190Y-109102380D01*
X119192857Y-108911904D02*
X118811904Y-108911904D01*
X118773809Y-109292857D01*
X118811904Y-109254761D01*
X118888095Y-109216666D01*
X119078571Y-109216666D01*
X119154761Y-109254761D01*
X119192857Y-109292857D01*
X119230952Y-109369047D01*
X119230952Y-109559523D01*
X119192857Y-109635714D01*
X119154761Y-109673809D01*
X119078571Y-109711904D01*
X118888095Y-109711904D01*
X118811904Y-109673809D01*
X118773809Y-109635714D01*
X119459523Y-108911904D02*
X119726190Y-109711904D01*
X119992857Y-108911904D01*
X124157142Y-111128571D02*
X124157142Y-110519047D01*
X124461904Y-110823809D02*
X123852380Y-110823809D01*
X123661904Y-109757142D02*
X123661904Y-110138095D01*
X124042857Y-110176190D01*
X124004761Y-110138095D01*
X123966666Y-110061904D01*
X123966666Y-109871428D01*
X124004761Y-109795238D01*
X124042857Y-109757142D01*
X124119047Y-109719047D01*
X124309523Y-109719047D01*
X124385714Y-109757142D01*
X124423809Y-109795238D01*
X124461904Y-109871428D01*
X124461904Y-110061904D01*
X124423809Y-110138095D01*
X124385714Y-110176190D01*
X123661904Y-109490476D02*
X124461904Y-109223809D01*
X123661904Y-108957142D01*
X141540476Y-116450000D02*
X141464285Y-116411904D01*
X141350000Y-116411904D01*
X141235714Y-116450000D01*
X141159523Y-116526190D01*
X141121428Y-116602380D01*
X141083333Y-116754761D01*
X141083333Y-116869047D01*
X141121428Y-117021428D01*
X141159523Y-117097619D01*
X141235714Y-117173809D01*
X141350000Y-117211904D01*
X141426190Y-117211904D01*
X141540476Y-117173809D01*
X141578571Y-117135714D01*
X141578571Y-116869047D01*
X141426190Y-116869047D01*
X141921428Y-117211904D02*
X141921428Y-116411904D01*
X142378571Y-117211904D01*
X142378571Y-116411904D01*
X142759523Y-117211904D02*
X142759523Y-116411904D01*
X142950000Y-116411904D01*
X143064285Y-116450000D01*
X143140476Y-116526190D01*
X143178571Y-116602380D01*
X143216666Y-116754761D01*
X143216666Y-116869047D01*
X143178571Y-117021428D01*
X143140476Y-117097619D01*
X143064285Y-117173809D01*
X142950000Y-117211904D01*
X142759523Y-117211904D01*
X119840476Y-78411904D02*
X120107142Y-79211904D01*
X120373809Y-78411904D01*
X120907142Y-78792857D02*
X121021428Y-78830952D01*
X121059523Y-78869047D01*
X121097619Y-78945238D01*
X121097619Y-79059523D01*
X121059523Y-79135714D01*
X121021428Y-79173809D01*
X120945238Y-79211904D01*
X120640476Y-79211904D01*
X120640476Y-78411904D01*
X120907142Y-78411904D01*
X120983333Y-78450000D01*
X121021428Y-78488095D01*
X121059523Y-78564285D01*
X121059523Y-78640476D01*
X121021428Y-78716666D01*
X120983333Y-78754761D01*
X120907142Y-78792857D01*
X120640476Y-78792857D01*
X121402380Y-78983333D02*
X121783333Y-78983333D01*
X121326190Y-79211904D02*
X121592857Y-78411904D01*
X121859523Y-79211904D01*
X122011904Y-78411904D02*
X122469047Y-78411904D01*
X122240476Y-79211904D02*
X122240476Y-78411904D01*
X122735714Y-78907142D02*
X123345238Y-78907142D01*
X123040476Y-79211904D02*
X123040476Y-78602380D01*
%TO.C,R16*%
X138285714Y-93711904D02*
X138019047Y-93330952D01*
X137828571Y-93711904D02*
X137828571Y-92911904D01*
X138133333Y-92911904D01*
X138209523Y-92950000D01*
X138247619Y-92988095D01*
X138285714Y-93064285D01*
X138285714Y-93178571D01*
X138247619Y-93254761D01*
X138209523Y-93292857D01*
X138133333Y-93330952D01*
X137828571Y-93330952D01*
X139047619Y-93711904D02*
X138590476Y-93711904D01*
X138819047Y-93711904D02*
X138819047Y-92911904D01*
X138742857Y-93026190D01*
X138666666Y-93102380D01*
X138590476Y-93140476D01*
X139733333Y-92911904D02*
X139580952Y-92911904D01*
X139504761Y-92950000D01*
X139466666Y-92988095D01*
X139390476Y-93102380D01*
X139352380Y-93254761D01*
X139352380Y-93559523D01*
X139390476Y-93635714D01*
X139428571Y-93673809D01*
X139504761Y-93711904D01*
X139657142Y-93711904D01*
X139733333Y-93673809D01*
X139771428Y-93635714D01*
X139809523Y-93559523D01*
X139809523Y-93369047D01*
X139771428Y-93292857D01*
X139733333Y-93254761D01*
X139657142Y-93216666D01*
X139504761Y-93216666D01*
X139428571Y-93254761D01*
X139390476Y-93292857D01*
X139352380Y-93369047D01*
%TO.C,J4*%
X132811904Y-104716666D02*
X133383333Y-104716666D01*
X133497619Y-104754761D01*
X133573809Y-104830952D01*
X133611904Y-104945238D01*
X133611904Y-105021428D01*
X133078571Y-103992857D02*
X133611904Y-103992857D01*
X132773809Y-104183333D02*
X133345238Y-104373809D01*
X133345238Y-103878571D01*
%TO.C,C12*%
X120389714Y-87407714D02*
X120351619Y-87445809D01*
X120237333Y-87483904D01*
X120161142Y-87483904D01*
X120046857Y-87445809D01*
X119970666Y-87369619D01*
X119932571Y-87293428D01*
X119894476Y-87141047D01*
X119894476Y-87026761D01*
X119932571Y-86874380D01*
X119970666Y-86798190D01*
X120046857Y-86722000D01*
X120161142Y-86683904D01*
X120237333Y-86683904D01*
X120351619Y-86722000D01*
X120389714Y-86760095D01*
X121151619Y-87483904D02*
X120694476Y-87483904D01*
X120923047Y-87483904D02*
X120923047Y-86683904D01*
X120846857Y-86798190D01*
X120770666Y-86874380D01*
X120694476Y-86912476D01*
X121456380Y-86760095D02*
X121494476Y-86722000D01*
X121570666Y-86683904D01*
X121761142Y-86683904D01*
X121837333Y-86722000D01*
X121875428Y-86760095D01*
X121913523Y-86836285D01*
X121913523Y-86912476D01*
X121875428Y-87026761D01*
X121418285Y-87483904D01*
X121913523Y-87483904D01*
%TO.C,D1*%
X134219904Y-80854476D02*
X133419904Y-80854476D01*
X133419904Y-80664000D01*
X133458000Y-80549714D01*
X133534190Y-80473523D01*
X133610380Y-80435428D01*
X133762761Y-80397333D01*
X133877047Y-80397333D01*
X134029428Y-80435428D01*
X134105619Y-80473523D01*
X134181809Y-80549714D01*
X134219904Y-80664000D01*
X134219904Y-80854476D01*
X134219904Y-79635428D02*
X134219904Y-80092571D01*
X134219904Y-79864000D02*
X133419904Y-79864000D01*
X133534190Y-79940190D01*
X133610380Y-80016380D01*
X133648476Y-80092571D01*
X136025476Y-84361904D02*
X136025476Y-83561904D01*
X136482619Y-84361904D02*
X136139761Y-83904761D01*
X136482619Y-83561904D02*
X136025476Y-84019047D01*
%TO.C,J6*%
X144336904Y-92041666D02*
X144908333Y-92041666D01*
X145022619Y-92079761D01*
X145098809Y-92155952D01*
X145136904Y-92270238D01*
X145136904Y-92346428D01*
X144336904Y-91317857D02*
X144336904Y-91470238D01*
X144375000Y-91546428D01*
X144413095Y-91584523D01*
X144527380Y-91660714D01*
X144679761Y-91698809D01*
X144984523Y-91698809D01*
X145060714Y-91660714D01*
X145098809Y-91622619D01*
X145136904Y-91546428D01*
X145136904Y-91394047D01*
X145098809Y-91317857D01*
X145060714Y-91279761D01*
X144984523Y-91241666D01*
X144794047Y-91241666D01*
X144717857Y-91279761D01*
X144679761Y-91317857D01*
X144641666Y-91394047D01*
X144641666Y-91546428D01*
X144679761Y-91622619D01*
X144717857Y-91660714D01*
X144794047Y-91698809D01*
%TO.C,R23*%
X116439904Y-91192285D02*
X116058952Y-91458952D01*
X116439904Y-91649428D02*
X115639904Y-91649428D01*
X115639904Y-91344666D01*
X115678000Y-91268476D01*
X115716095Y-91230380D01*
X115792285Y-91192285D01*
X115906571Y-91192285D01*
X115982761Y-91230380D01*
X116020857Y-91268476D01*
X116058952Y-91344666D01*
X116058952Y-91649428D01*
X115716095Y-90887523D02*
X115678000Y-90849428D01*
X115639904Y-90773238D01*
X115639904Y-90582761D01*
X115678000Y-90506571D01*
X115716095Y-90468476D01*
X115792285Y-90430380D01*
X115868476Y-90430380D01*
X115982761Y-90468476D01*
X116439904Y-90925619D01*
X116439904Y-90430380D01*
X115639904Y-90163714D02*
X115639904Y-89668476D01*
X115944666Y-89935142D01*
X115944666Y-89820857D01*
X115982761Y-89744666D01*
X116020857Y-89706571D01*
X116097047Y-89668476D01*
X116287523Y-89668476D01*
X116363714Y-89706571D01*
X116401809Y-89744666D01*
X116439904Y-89820857D01*
X116439904Y-90049428D01*
X116401809Y-90125619D01*
X116363714Y-90163714D01*
%TO.C,R18*%
X112261714Y-86467904D02*
X111995047Y-86086952D01*
X111804571Y-86467904D02*
X111804571Y-85667904D01*
X112109333Y-85667904D01*
X112185523Y-85706000D01*
X112223619Y-85744095D01*
X112261714Y-85820285D01*
X112261714Y-85934571D01*
X112223619Y-86010761D01*
X112185523Y-86048857D01*
X112109333Y-86086952D01*
X111804571Y-86086952D01*
X113023619Y-86467904D02*
X112566476Y-86467904D01*
X112795047Y-86467904D02*
X112795047Y-85667904D01*
X112718857Y-85782190D01*
X112642666Y-85858380D01*
X112566476Y-85896476D01*
X113480761Y-86010761D02*
X113404571Y-85972666D01*
X113366476Y-85934571D01*
X113328380Y-85858380D01*
X113328380Y-85820285D01*
X113366476Y-85744095D01*
X113404571Y-85706000D01*
X113480761Y-85667904D01*
X113633142Y-85667904D01*
X113709333Y-85706000D01*
X113747428Y-85744095D01*
X113785523Y-85820285D01*
X113785523Y-85858380D01*
X113747428Y-85934571D01*
X113709333Y-85972666D01*
X113633142Y-86010761D01*
X113480761Y-86010761D01*
X113404571Y-86048857D01*
X113366476Y-86086952D01*
X113328380Y-86163142D01*
X113328380Y-86315523D01*
X113366476Y-86391714D01*
X113404571Y-86429809D01*
X113480761Y-86467904D01*
X113633142Y-86467904D01*
X113709333Y-86429809D01*
X113747428Y-86391714D01*
X113785523Y-86315523D01*
X113785523Y-86163142D01*
X113747428Y-86086952D01*
X113709333Y-86048857D01*
X113633142Y-86010761D01*
%TO.C,J8*%
X116065333Y-101669904D02*
X116065333Y-102241333D01*
X116027238Y-102355619D01*
X115951047Y-102431809D01*
X115836761Y-102469904D01*
X115760571Y-102469904D01*
X116560571Y-102012761D02*
X116484380Y-101974666D01*
X116446285Y-101936571D01*
X116408190Y-101860380D01*
X116408190Y-101822285D01*
X116446285Y-101746095D01*
X116484380Y-101708000D01*
X116560571Y-101669904D01*
X116712952Y-101669904D01*
X116789142Y-101708000D01*
X116827238Y-101746095D01*
X116865333Y-101822285D01*
X116865333Y-101860380D01*
X116827238Y-101936571D01*
X116789142Y-101974666D01*
X116712952Y-102012761D01*
X116560571Y-102012761D01*
X116484380Y-102050857D01*
X116446285Y-102088952D01*
X116408190Y-102165142D01*
X116408190Y-102317523D01*
X116446285Y-102393714D01*
X116484380Y-102431809D01*
X116560571Y-102469904D01*
X116712952Y-102469904D01*
X116789142Y-102431809D01*
X116827238Y-102393714D01*
X116865333Y-102317523D01*
X116865333Y-102165142D01*
X116827238Y-102088952D01*
X116789142Y-102050857D01*
X116712952Y-102012761D01*
%TO.C,R20*%
X113785714Y-99929904D02*
X113519047Y-99548952D01*
X113328571Y-99929904D02*
X113328571Y-99129904D01*
X113633333Y-99129904D01*
X113709523Y-99168000D01*
X113747619Y-99206095D01*
X113785714Y-99282285D01*
X113785714Y-99396571D01*
X113747619Y-99472761D01*
X113709523Y-99510857D01*
X113633333Y-99548952D01*
X113328571Y-99548952D01*
X114090476Y-99206095D02*
X114128571Y-99168000D01*
X114204761Y-99129904D01*
X114395238Y-99129904D01*
X114471428Y-99168000D01*
X114509523Y-99206095D01*
X114547619Y-99282285D01*
X114547619Y-99358476D01*
X114509523Y-99472761D01*
X114052380Y-99929904D01*
X114547619Y-99929904D01*
X115042857Y-99129904D02*
X115119047Y-99129904D01*
X115195238Y-99168000D01*
X115233333Y-99206095D01*
X115271428Y-99282285D01*
X115309523Y-99434666D01*
X115309523Y-99625142D01*
X115271428Y-99777523D01*
X115233333Y-99853714D01*
X115195238Y-99891809D01*
X115119047Y-99929904D01*
X115042857Y-99929904D01*
X114966666Y-99891809D01*
X114928571Y-99853714D01*
X114890476Y-99777523D01*
X114852380Y-99625142D01*
X114852380Y-99434666D01*
X114890476Y-99282285D01*
X114928571Y-99206095D01*
X114966666Y-99168000D01*
X115042857Y-99129904D01*
%TO.C,Q1*%
X140138095Y-101676190D02*
X140100000Y-101752380D01*
X140023809Y-101828571D01*
X139909523Y-101942857D01*
X139871428Y-102019047D01*
X139871428Y-102095238D01*
X140061904Y-102057142D02*
X140023809Y-102133333D01*
X139947619Y-102209523D01*
X139795238Y-102247619D01*
X139528571Y-102247619D01*
X139376190Y-102209523D01*
X139300000Y-102133333D01*
X139261904Y-102057142D01*
X139261904Y-101904761D01*
X139300000Y-101828571D01*
X139376190Y-101752380D01*
X139528571Y-101714285D01*
X139795238Y-101714285D01*
X139947619Y-101752380D01*
X140023809Y-101828571D01*
X140061904Y-101904761D01*
X140061904Y-102057142D01*
X140061904Y-100952380D02*
X140061904Y-101409523D01*
X140061904Y-101180952D02*
X139261904Y-101180952D01*
X139376190Y-101257142D01*
X139452380Y-101333333D01*
X139490476Y-101409523D01*
%TO.C,C18*%
X124335714Y-97614285D02*
X124373809Y-97652380D01*
X124411904Y-97766666D01*
X124411904Y-97842857D01*
X124373809Y-97957142D01*
X124297619Y-98033333D01*
X124221428Y-98071428D01*
X124069047Y-98109523D01*
X123954761Y-98109523D01*
X123802380Y-98071428D01*
X123726190Y-98033333D01*
X123650000Y-97957142D01*
X123611904Y-97842857D01*
X123611904Y-97766666D01*
X123650000Y-97652380D01*
X123688095Y-97614285D01*
X124411904Y-96852380D02*
X124411904Y-97309523D01*
X124411904Y-97080952D02*
X123611904Y-97080952D01*
X123726190Y-97157142D01*
X123802380Y-97233333D01*
X123840476Y-97309523D01*
X123954761Y-96395238D02*
X123916666Y-96471428D01*
X123878571Y-96509523D01*
X123802380Y-96547619D01*
X123764285Y-96547619D01*
X123688095Y-96509523D01*
X123650000Y-96471428D01*
X123611904Y-96395238D01*
X123611904Y-96242857D01*
X123650000Y-96166666D01*
X123688095Y-96128571D01*
X123764285Y-96090476D01*
X123802380Y-96090476D01*
X123878571Y-96128571D01*
X123916666Y-96166666D01*
X123954761Y-96242857D01*
X123954761Y-96395238D01*
X123992857Y-96471428D01*
X124030952Y-96509523D01*
X124107142Y-96547619D01*
X124259523Y-96547619D01*
X124335714Y-96509523D01*
X124373809Y-96471428D01*
X124411904Y-96395238D01*
X124411904Y-96242857D01*
X124373809Y-96166666D01*
X124335714Y-96128571D01*
X124259523Y-96090476D01*
X124107142Y-96090476D01*
X124030952Y-96128571D01*
X123992857Y-96166666D01*
X123954761Y-96242857D01*
%TO.C,R11*%
X134235714Y-96236904D02*
X133969047Y-95855952D01*
X133778571Y-96236904D02*
X133778571Y-95436904D01*
X134083333Y-95436904D01*
X134159523Y-95475000D01*
X134197619Y-95513095D01*
X134235714Y-95589285D01*
X134235714Y-95703571D01*
X134197619Y-95779761D01*
X134159523Y-95817857D01*
X134083333Y-95855952D01*
X133778571Y-95855952D01*
X134997619Y-96236904D02*
X134540476Y-96236904D01*
X134769047Y-96236904D02*
X134769047Y-95436904D01*
X134692857Y-95551190D01*
X134616666Y-95627380D01*
X134540476Y-95665476D01*
X135759523Y-96236904D02*
X135302380Y-96236904D01*
X135530952Y-96236904D02*
X135530952Y-95436904D01*
X135454761Y-95551190D01*
X135378571Y-95627380D01*
X135302380Y-95665476D01*
%TO.C,C10*%
X134613714Y-88169714D02*
X134575619Y-88207809D01*
X134461333Y-88245904D01*
X134385142Y-88245904D01*
X134270857Y-88207809D01*
X134194666Y-88131619D01*
X134156571Y-88055428D01*
X134118476Y-87903047D01*
X134118476Y-87788761D01*
X134156571Y-87636380D01*
X134194666Y-87560190D01*
X134270857Y-87484000D01*
X134385142Y-87445904D01*
X134461333Y-87445904D01*
X134575619Y-87484000D01*
X134613714Y-87522095D01*
X135375619Y-88245904D02*
X134918476Y-88245904D01*
X135147047Y-88245904D02*
X135147047Y-87445904D01*
X135070857Y-87560190D01*
X134994666Y-87636380D01*
X134918476Y-87674476D01*
X135870857Y-87445904D02*
X135947047Y-87445904D01*
X136023238Y-87484000D01*
X136061333Y-87522095D01*
X136099428Y-87598285D01*
X136137523Y-87750666D01*
X136137523Y-87941142D01*
X136099428Y-88093523D01*
X136061333Y-88169714D01*
X136023238Y-88207809D01*
X135947047Y-88245904D01*
X135870857Y-88245904D01*
X135794666Y-88207809D01*
X135756571Y-88169714D01*
X135718476Y-88093523D01*
X135680380Y-87941142D01*
X135680380Y-87750666D01*
X135718476Y-87598285D01*
X135756571Y-87522095D01*
X135794666Y-87484000D01*
X135870857Y-87445904D01*
%TO.C,R21*%
X124061904Y-103514285D02*
X123680952Y-103780952D01*
X124061904Y-103971428D02*
X123261904Y-103971428D01*
X123261904Y-103666666D01*
X123300000Y-103590476D01*
X123338095Y-103552380D01*
X123414285Y-103514285D01*
X123528571Y-103514285D01*
X123604761Y-103552380D01*
X123642857Y-103590476D01*
X123680952Y-103666666D01*
X123680952Y-103971428D01*
X123338095Y-103209523D02*
X123300000Y-103171428D01*
X123261904Y-103095238D01*
X123261904Y-102904761D01*
X123300000Y-102828571D01*
X123338095Y-102790476D01*
X123414285Y-102752380D01*
X123490476Y-102752380D01*
X123604761Y-102790476D01*
X124061904Y-103247619D01*
X124061904Y-102752380D01*
X124061904Y-101990476D02*
X124061904Y-102447619D01*
X124061904Y-102219047D02*
X123261904Y-102219047D01*
X123376190Y-102295238D01*
X123452380Y-102371428D01*
X123490476Y-102447619D01*
%TO.C,U2*%
X125882476Y-92271904D02*
X125882476Y-92919523D01*
X125920571Y-92995714D01*
X125958666Y-93033809D01*
X126034857Y-93071904D01*
X126187238Y-93071904D01*
X126263428Y-93033809D01*
X126301523Y-92995714D01*
X126339619Y-92919523D01*
X126339619Y-92271904D01*
X126682476Y-92348095D02*
X126720571Y-92310000D01*
X126796761Y-92271904D01*
X126987238Y-92271904D01*
X127063428Y-92310000D01*
X127101523Y-92348095D01*
X127139619Y-92424285D01*
X127139619Y-92500476D01*
X127101523Y-92614761D01*
X126644380Y-93071904D01*
X127139619Y-93071904D01*
X119411904Y-95800000D02*
X119602380Y-95800000D01*
X119526190Y-95990476D02*
X119602380Y-95800000D01*
X119526190Y-95609523D01*
X119754761Y-95914285D02*
X119602380Y-95800000D01*
X119754761Y-95685714D01*
%TO.C,C9*%
X136264666Y-108235714D02*
X136226571Y-108273809D01*
X136112285Y-108311904D01*
X136036095Y-108311904D01*
X135921809Y-108273809D01*
X135845619Y-108197619D01*
X135807523Y-108121428D01*
X135769428Y-107969047D01*
X135769428Y-107854761D01*
X135807523Y-107702380D01*
X135845619Y-107626190D01*
X135921809Y-107550000D01*
X136036095Y-107511904D01*
X136112285Y-107511904D01*
X136226571Y-107550000D01*
X136264666Y-107588095D01*
X136645619Y-108311904D02*
X136798000Y-108311904D01*
X136874190Y-108273809D01*
X136912285Y-108235714D01*
X136988476Y-108121428D01*
X137026571Y-107969047D01*
X137026571Y-107664285D01*
X136988476Y-107588095D01*
X136950380Y-107550000D01*
X136874190Y-107511904D01*
X136721809Y-107511904D01*
X136645619Y-107550000D01*
X136607523Y-107588095D01*
X136569428Y-107664285D01*
X136569428Y-107854761D01*
X136607523Y-107930952D01*
X136645619Y-107969047D01*
X136721809Y-108007142D01*
X136874190Y-108007142D01*
X136950380Y-107969047D01*
X136988476Y-107930952D01*
X137026571Y-107854761D01*
%TO.C,D2*%
X130219523Y-88431904D02*
X130219523Y-87631904D01*
X130410000Y-87631904D01*
X130524285Y-87670000D01*
X130600476Y-87746190D01*
X130638571Y-87822380D01*
X130676666Y-87974761D01*
X130676666Y-88089047D01*
X130638571Y-88241428D01*
X130600476Y-88317619D01*
X130524285Y-88393809D01*
X130410000Y-88431904D01*
X130219523Y-88431904D01*
X130981428Y-87708095D02*
X131019523Y-87670000D01*
X131095714Y-87631904D01*
X131286190Y-87631904D01*
X131362380Y-87670000D01*
X131400476Y-87708095D01*
X131438571Y-87784285D01*
X131438571Y-87860476D01*
X131400476Y-87974761D01*
X130943333Y-88431904D01*
X131438571Y-88431904D01*
X129555476Y-85061904D02*
X129555476Y-84261904D01*
X130012619Y-85061904D02*
X129669761Y-84604761D01*
X130012619Y-84261904D02*
X129555476Y-84719047D01*
%TO.C,C8*%
X138550666Y-108235714D02*
X138512571Y-108273809D01*
X138398285Y-108311904D01*
X138322095Y-108311904D01*
X138207809Y-108273809D01*
X138131619Y-108197619D01*
X138093523Y-108121428D01*
X138055428Y-107969047D01*
X138055428Y-107854761D01*
X138093523Y-107702380D01*
X138131619Y-107626190D01*
X138207809Y-107550000D01*
X138322095Y-107511904D01*
X138398285Y-107511904D01*
X138512571Y-107550000D01*
X138550666Y-107588095D01*
X139007809Y-107854761D02*
X138931619Y-107816666D01*
X138893523Y-107778571D01*
X138855428Y-107702380D01*
X138855428Y-107664285D01*
X138893523Y-107588095D01*
X138931619Y-107550000D01*
X139007809Y-107511904D01*
X139160190Y-107511904D01*
X139236380Y-107550000D01*
X139274476Y-107588095D01*
X139312571Y-107664285D01*
X139312571Y-107702380D01*
X139274476Y-107778571D01*
X139236380Y-107816666D01*
X139160190Y-107854761D01*
X139007809Y-107854761D01*
X138931619Y-107892857D01*
X138893523Y-107930952D01*
X138855428Y-108007142D01*
X138855428Y-108159523D01*
X138893523Y-108235714D01*
X138931619Y-108273809D01*
X139007809Y-108311904D01*
X139160190Y-108311904D01*
X139236380Y-108273809D01*
X139274476Y-108235714D01*
X139312571Y-108159523D01*
X139312571Y-108007142D01*
X139274476Y-107930952D01*
X139236380Y-107892857D01*
X139160190Y-107854761D01*
%TO.C,R9*%
X137879404Y-110633333D02*
X137498452Y-110900000D01*
X137879404Y-111090476D02*
X137079404Y-111090476D01*
X137079404Y-110785714D01*
X137117500Y-110709523D01*
X137155595Y-110671428D01*
X137231785Y-110633333D01*
X137346071Y-110633333D01*
X137422261Y-110671428D01*
X137460357Y-110709523D01*
X137498452Y-110785714D01*
X137498452Y-111090476D01*
X137879404Y-110252380D02*
X137879404Y-110100000D01*
X137841309Y-110023809D01*
X137803214Y-109985714D01*
X137688928Y-109909523D01*
X137536547Y-109871428D01*
X137231785Y-109871428D01*
X137155595Y-109909523D01*
X137117500Y-109947619D01*
X137079404Y-110023809D01*
X137079404Y-110176190D01*
X137117500Y-110252380D01*
X137155595Y-110290476D01*
X137231785Y-110328571D01*
X137422261Y-110328571D01*
X137498452Y-110290476D01*
X137536547Y-110252380D01*
X137574642Y-110176190D01*
X137574642Y-110023809D01*
X137536547Y-109947619D01*
X137498452Y-109909523D01*
X137422261Y-109871428D01*
%TO.C,R13*%
X125785714Y-103811904D02*
X125519047Y-103430952D01*
X125328571Y-103811904D02*
X125328571Y-103011904D01*
X125633333Y-103011904D01*
X125709523Y-103050000D01*
X125747619Y-103088095D01*
X125785714Y-103164285D01*
X125785714Y-103278571D01*
X125747619Y-103354761D01*
X125709523Y-103392857D01*
X125633333Y-103430952D01*
X125328571Y-103430952D01*
X126547619Y-103811904D02*
X126090476Y-103811904D01*
X126319047Y-103811904D02*
X126319047Y-103011904D01*
X126242857Y-103126190D01*
X126166666Y-103202380D01*
X126090476Y-103240476D01*
X126814285Y-103011904D02*
X127309523Y-103011904D01*
X127042857Y-103316666D01*
X127157142Y-103316666D01*
X127233333Y-103354761D01*
X127271428Y-103392857D01*
X127309523Y-103469047D01*
X127309523Y-103659523D01*
X127271428Y-103735714D01*
X127233333Y-103773809D01*
X127157142Y-103811904D01*
X126928571Y-103811904D01*
X126852380Y-103773809D01*
X126814285Y-103735714D01*
%TO.C,TH1*%
X126561904Y-109232571D02*
X126561904Y-108775428D01*
X127361904Y-109004000D02*
X126561904Y-109004000D01*
X127361904Y-108508761D02*
X126561904Y-108508761D01*
X126942857Y-108508761D02*
X126942857Y-108051619D01*
X127361904Y-108051619D02*
X126561904Y-108051619D01*
X127361904Y-107251619D02*
X127361904Y-107708761D01*
X127361904Y-107480190D02*
X126561904Y-107480190D01*
X126676190Y-107556380D01*
X126752380Y-107632571D01*
X126790476Y-107708761D01*
%TO.C,R15*%
X132510714Y-97586904D02*
X132244047Y-97205952D01*
X132053571Y-97586904D02*
X132053571Y-96786904D01*
X132358333Y-96786904D01*
X132434523Y-96825000D01*
X132472619Y-96863095D01*
X132510714Y-96939285D01*
X132510714Y-97053571D01*
X132472619Y-97129761D01*
X132434523Y-97167857D01*
X132358333Y-97205952D01*
X132053571Y-97205952D01*
X133272619Y-97586904D02*
X132815476Y-97586904D01*
X133044047Y-97586904D02*
X133044047Y-96786904D01*
X132967857Y-96901190D01*
X132891666Y-96977380D01*
X132815476Y-97015476D01*
X133996428Y-96786904D02*
X133615476Y-96786904D01*
X133577380Y-97167857D01*
X133615476Y-97129761D01*
X133691666Y-97091666D01*
X133882142Y-97091666D01*
X133958333Y-97129761D01*
X133996428Y-97167857D01*
X134034523Y-97244047D01*
X134034523Y-97434523D01*
X133996428Y-97510714D01*
X133958333Y-97548809D01*
X133882142Y-97586904D01*
X133691666Y-97586904D01*
X133615476Y-97548809D01*
X133577380Y-97510714D01*
%TO.C,J9*%
X125733333Y-110461904D02*
X125733333Y-111033333D01*
X125695238Y-111147619D01*
X125619047Y-111223809D01*
X125504761Y-111261904D01*
X125428571Y-111261904D01*
X126152380Y-111261904D02*
X126304761Y-111261904D01*
X126380952Y-111223809D01*
X126419047Y-111185714D01*
X126495238Y-111071428D01*
X126533333Y-110919047D01*
X126533333Y-110614285D01*
X126495238Y-110538095D01*
X126457142Y-110500000D01*
X126380952Y-110461904D01*
X126228571Y-110461904D01*
X126152380Y-110500000D01*
X126114285Y-110538095D01*
X126076190Y-110614285D01*
X126076190Y-110804761D01*
X126114285Y-110880952D01*
X126152380Y-110919047D01*
X126228571Y-110957142D01*
X126380952Y-110957142D01*
X126457142Y-110919047D01*
X126495238Y-110880952D01*
X126533333Y-110804761D01*
%TO.C,D4*%
X117215523Y-86295904D02*
X117215523Y-85495904D01*
X117406000Y-85495904D01*
X117520285Y-85534000D01*
X117596476Y-85610190D01*
X117634571Y-85686380D01*
X117672666Y-85838761D01*
X117672666Y-85953047D01*
X117634571Y-86105428D01*
X117596476Y-86181619D01*
X117520285Y-86257809D01*
X117406000Y-86295904D01*
X117215523Y-86295904D01*
X118358380Y-85762571D02*
X118358380Y-86295904D01*
X118167904Y-85457809D02*
X117977428Y-86029238D01*
X118472666Y-86029238D01*
%TO.C,R19*%
X120643714Y-85959904D02*
X120377047Y-85578952D01*
X120186571Y-85959904D02*
X120186571Y-85159904D01*
X120491333Y-85159904D01*
X120567523Y-85198000D01*
X120605619Y-85236095D01*
X120643714Y-85312285D01*
X120643714Y-85426571D01*
X120605619Y-85502761D01*
X120567523Y-85540857D01*
X120491333Y-85578952D01*
X120186571Y-85578952D01*
X121405619Y-85959904D02*
X120948476Y-85959904D01*
X121177047Y-85959904D02*
X121177047Y-85159904D01*
X121100857Y-85274190D01*
X121024666Y-85350380D01*
X120948476Y-85388476D01*
X121786571Y-85959904D02*
X121938952Y-85959904D01*
X122015142Y-85921809D01*
X122053238Y-85883714D01*
X122129428Y-85769428D01*
X122167523Y-85617047D01*
X122167523Y-85312285D01*
X122129428Y-85236095D01*
X122091333Y-85198000D01*
X122015142Y-85159904D01*
X121862761Y-85159904D01*
X121786571Y-85198000D01*
X121748476Y-85236095D01*
X121710380Y-85312285D01*
X121710380Y-85502761D01*
X121748476Y-85578952D01*
X121786571Y-85617047D01*
X121862761Y-85655142D01*
X122015142Y-85655142D01*
X122091333Y-85617047D01*
X122129428Y-85578952D01*
X122167523Y-85502761D01*
%TO.C,R17*%
X138285714Y-91311904D02*
X138019047Y-90930952D01*
X137828571Y-91311904D02*
X137828571Y-90511904D01*
X138133333Y-90511904D01*
X138209523Y-90550000D01*
X138247619Y-90588095D01*
X138285714Y-90664285D01*
X138285714Y-90778571D01*
X138247619Y-90854761D01*
X138209523Y-90892857D01*
X138133333Y-90930952D01*
X137828571Y-90930952D01*
X139047619Y-91311904D02*
X138590476Y-91311904D01*
X138819047Y-91311904D02*
X138819047Y-90511904D01*
X138742857Y-90626190D01*
X138666666Y-90702380D01*
X138590476Y-90740476D01*
X139314285Y-90511904D02*
X139847619Y-90511904D01*
X139504761Y-91311904D01*
%TO.C,J2*%
X147562097Y-96081904D02*
X147562097Y-96653333D01*
X147524002Y-96767619D01*
X147447811Y-96843809D01*
X147333525Y-96881904D01*
X147257335Y-96881904D01*
X147904954Y-96158095D02*
X147943049Y-96120000D01*
X148019240Y-96081904D01*
X148209716Y-96081904D01*
X148285906Y-96120000D01*
X148324002Y-96158095D01*
X148362097Y-96234285D01*
X148362097Y-96310476D01*
X148324002Y-96424761D01*
X147866859Y-96881904D01*
X148362097Y-96881904D01*
%TO.C,H1*%
X114452476Y-79084904D02*
X114452476Y-78284904D01*
X114452476Y-78665857D02*
X114909619Y-78665857D01*
X114909619Y-79084904D02*
X114909619Y-78284904D01*
X115709619Y-79084904D02*
X115252476Y-79084904D01*
X115481047Y-79084904D02*
X115481047Y-78284904D01*
X115404857Y-78399190D01*
X115328666Y-78475380D01*
X115252476Y-78513476D01*
%TO.C,J7*%
X122923333Y-80587904D02*
X122923333Y-81159333D01*
X122885238Y-81273619D01*
X122809047Y-81349809D01*
X122694761Y-81387904D01*
X122618571Y-81387904D01*
X123228095Y-80587904D02*
X123761428Y-80587904D01*
X123418571Y-81387904D01*
%TO.C,R8*%
X140836666Y-98659904D02*
X140570000Y-98278952D01*
X140379523Y-98659904D02*
X140379523Y-97859904D01*
X140684285Y-97859904D01*
X140760476Y-97898000D01*
X140798571Y-97936095D01*
X140836666Y-98012285D01*
X140836666Y-98126571D01*
X140798571Y-98202761D01*
X140760476Y-98240857D01*
X140684285Y-98278952D01*
X140379523Y-98278952D01*
X141293809Y-98202761D02*
X141217619Y-98164666D01*
X141179523Y-98126571D01*
X141141428Y-98050380D01*
X141141428Y-98012285D01*
X141179523Y-97936095D01*
X141217619Y-97898000D01*
X141293809Y-97859904D01*
X141446190Y-97859904D01*
X141522380Y-97898000D01*
X141560476Y-97936095D01*
X141598571Y-98012285D01*
X141598571Y-98050380D01*
X141560476Y-98126571D01*
X141522380Y-98164666D01*
X141446190Y-98202761D01*
X141293809Y-98202761D01*
X141217619Y-98240857D01*
X141179523Y-98278952D01*
X141141428Y-98355142D01*
X141141428Y-98507523D01*
X141179523Y-98583714D01*
X141217619Y-98621809D01*
X141293809Y-98659904D01*
X141446190Y-98659904D01*
X141522380Y-98621809D01*
X141560476Y-98583714D01*
X141598571Y-98507523D01*
X141598571Y-98355142D01*
X141560476Y-98278952D01*
X141522380Y-98240857D01*
X141446190Y-98202761D01*
%TO.C,R10*%
X134485714Y-115261904D02*
X134219047Y-114880952D01*
X134028571Y-115261904D02*
X134028571Y-114461904D01*
X134333333Y-114461904D01*
X134409523Y-114500000D01*
X134447619Y-114538095D01*
X134485714Y-114614285D01*
X134485714Y-114728571D01*
X134447619Y-114804761D01*
X134409523Y-114842857D01*
X134333333Y-114880952D01*
X134028571Y-114880952D01*
X135247619Y-115261904D02*
X134790476Y-115261904D01*
X135019047Y-115261904D02*
X135019047Y-114461904D01*
X134942857Y-114576190D01*
X134866666Y-114652380D01*
X134790476Y-114690476D01*
X135742857Y-114461904D02*
X135819047Y-114461904D01*
X135895238Y-114500000D01*
X135933333Y-114538095D01*
X135971428Y-114614285D01*
X136009523Y-114766666D01*
X136009523Y-114957142D01*
X135971428Y-115109523D01*
X135933333Y-115185714D01*
X135895238Y-115223809D01*
X135819047Y-115261904D01*
X135742857Y-115261904D01*
X135666666Y-115223809D01*
X135628571Y-115185714D01*
X135590476Y-115109523D01*
X135552380Y-114957142D01*
X135552380Y-114766666D01*
X135590476Y-114614285D01*
X135628571Y-114538095D01*
X135666666Y-114500000D01*
X135742857Y-114461904D01*
%TO.C,C25*%
X113185714Y-93585714D02*
X113147619Y-93623809D01*
X113033333Y-93661904D01*
X112957142Y-93661904D01*
X112842857Y-93623809D01*
X112766666Y-93547619D01*
X112728571Y-93471428D01*
X112690476Y-93319047D01*
X112690476Y-93204761D01*
X112728571Y-93052380D01*
X112766666Y-92976190D01*
X112842857Y-92900000D01*
X112957142Y-92861904D01*
X113033333Y-92861904D01*
X113147619Y-92900000D01*
X113185714Y-92938095D01*
X113490476Y-92938095D02*
X113528571Y-92900000D01*
X113604761Y-92861904D01*
X113795238Y-92861904D01*
X113871428Y-92900000D01*
X113909523Y-92938095D01*
X113947619Y-93014285D01*
X113947619Y-93090476D01*
X113909523Y-93204761D01*
X113452380Y-93661904D01*
X113947619Y-93661904D01*
X114671428Y-92861904D02*
X114290476Y-92861904D01*
X114252380Y-93242857D01*
X114290476Y-93204761D01*
X114366666Y-93166666D01*
X114557142Y-93166666D01*
X114633333Y-93204761D01*
X114671428Y-93242857D01*
X114709523Y-93319047D01*
X114709523Y-93509523D01*
X114671428Y-93585714D01*
X114633333Y-93623809D01*
X114557142Y-93661904D01*
X114366666Y-93661904D01*
X114290476Y-93623809D01*
X114252380Y-93585714D01*
%TO.C,R22*%
X120897714Y-98151904D02*
X120631047Y-97770952D01*
X120440571Y-98151904D02*
X120440571Y-97351904D01*
X120745333Y-97351904D01*
X120821523Y-97390000D01*
X120859619Y-97428095D01*
X120897714Y-97504285D01*
X120897714Y-97618571D01*
X120859619Y-97694761D01*
X120821523Y-97732857D01*
X120745333Y-97770952D01*
X120440571Y-97770952D01*
X121202476Y-97428095D02*
X121240571Y-97390000D01*
X121316761Y-97351904D01*
X121507238Y-97351904D01*
X121583428Y-97390000D01*
X121621523Y-97428095D01*
X121659619Y-97504285D01*
X121659619Y-97580476D01*
X121621523Y-97694761D01*
X121164380Y-98151904D01*
X121659619Y-98151904D01*
X121964380Y-97428095D02*
X122002476Y-97390000D01*
X122078666Y-97351904D01*
X122269142Y-97351904D01*
X122345333Y-97390000D01*
X122383428Y-97428095D01*
X122421523Y-97504285D01*
X122421523Y-97580476D01*
X122383428Y-97694761D01*
X121926285Y-98151904D01*
X122421523Y-98151904D01*
%TO.C,R12*%
X131185714Y-110511904D02*
X130919047Y-110130952D01*
X130728571Y-110511904D02*
X130728571Y-109711904D01*
X131033333Y-109711904D01*
X131109523Y-109750000D01*
X131147619Y-109788095D01*
X131185714Y-109864285D01*
X131185714Y-109978571D01*
X131147619Y-110054761D01*
X131109523Y-110092857D01*
X131033333Y-110130952D01*
X130728571Y-110130952D01*
X131947619Y-110511904D02*
X131490476Y-110511904D01*
X131719047Y-110511904D02*
X131719047Y-109711904D01*
X131642857Y-109826190D01*
X131566666Y-109902380D01*
X131490476Y-109940476D01*
X132252380Y-109788095D02*
X132290476Y-109750000D01*
X132366666Y-109711904D01*
X132557142Y-109711904D01*
X132633333Y-109750000D01*
X132671428Y-109788095D01*
X132709523Y-109864285D01*
X132709523Y-109940476D01*
X132671428Y-110054761D01*
X132214285Y-110511904D01*
X132709523Y-110511904D01*
%TO.C,H2*%
X145440476Y-79084904D02*
X145440476Y-78284904D01*
X145440476Y-78665857D02*
X145897619Y-78665857D01*
X145897619Y-79084904D02*
X145897619Y-78284904D01*
X146240476Y-78361095D02*
X146278571Y-78323000D01*
X146354761Y-78284904D01*
X146545238Y-78284904D01*
X146621428Y-78323000D01*
X146659523Y-78361095D01*
X146697619Y-78437285D01*
X146697619Y-78513476D01*
X146659523Y-78627761D01*
X146202380Y-79084904D01*
X146697619Y-79084904D01*
%TO.C,C15*%
X120897714Y-102565714D02*
X120859619Y-102603809D01*
X120745333Y-102641904D01*
X120669142Y-102641904D01*
X120554857Y-102603809D01*
X120478666Y-102527619D01*
X120440571Y-102451428D01*
X120402476Y-102299047D01*
X120402476Y-102184761D01*
X120440571Y-102032380D01*
X120478666Y-101956190D01*
X120554857Y-101880000D01*
X120669142Y-101841904D01*
X120745333Y-101841904D01*
X120859619Y-101880000D01*
X120897714Y-101918095D01*
X121659619Y-102641904D02*
X121202476Y-102641904D01*
X121431047Y-102641904D02*
X121431047Y-101841904D01*
X121354857Y-101956190D01*
X121278666Y-102032380D01*
X121202476Y-102070476D01*
X122383428Y-101841904D02*
X122002476Y-101841904D01*
X121964380Y-102222857D01*
X122002476Y-102184761D01*
X122078666Y-102146666D01*
X122269142Y-102146666D01*
X122345333Y-102184761D01*
X122383428Y-102222857D01*
X122421523Y-102299047D01*
X122421523Y-102489523D01*
X122383428Y-102565714D01*
X122345333Y-102603809D01*
X122269142Y-102641904D01*
X122078666Y-102641904D01*
X122002476Y-102603809D01*
X121964380Y-102565714D01*
%TO.C,C14*%
X113885714Y-98035714D02*
X113847619Y-98073809D01*
X113733333Y-98111904D01*
X113657142Y-98111904D01*
X113542857Y-98073809D01*
X113466666Y-97997619D01*
X113428571Y-97921428D01*
X113390476Y-97769047D01*
X113390476Y-97654761D01*
X113428571Y-97502380D01*
X113466666Y-97426190D01*
X113542857Y-97350000D01*
X113657142Y-97311904D01*
X113733333Y-97311904D01*
X113847619Y-97350000D01*
X113885714Y-97388095D01*
X114647619Y-98111904D02*
X114190476Y-98111904D01*
X114419047Y-98111904D02*
X114419047Y-97311904D01*
X114342857Y-97426190D01*
X114266666Y-97502380D01*
X114190476Y-97540476D01*
X115333333Y-97578571D02*
X115333333Y-98111904D01*
X115142857Y-97273809D02*
X114952380Y-97845238D01*
X115447619Y-97845238D01*
%TO.C,J10*%
X117952380Y-110561904D02*
X117952380Y-111133333D01*
X117914285Y-111247619D01*
X117838095Y-111323809D01*
X117723809Y-111361904D01*
X117647619Y-111361904D01*
X118752380Y-111361904D02*
X118295238Y-111361904D01*
X118523809Y-111361904D02*
X118523809Y-110561904D01*
X118447619Y-110676190D01*
X118371428Y-110752380D01*
X118295238Y-110790476D01*
X119247619Y-110561904D02*
X119323809Y-110561904D01*
X119400000Y-110600000D01*
X119438095Y-110638095D01*
X119476190Y-110714285D01*
X119514285Y-110866666D01*
X119514285Y-111057142D01*
X119476190Y-111209523D01*
X119438095Y-111285714D01*
X119400000Y-111323809D01*
X119323809Y-111361904D01*
X119247619Y-111361904D01*
X119171428Y-111323809D01*
X119133333Y-111285714D01*
X119095238Y-111209523D01*
X119057142Y-111057142D01*
X119057142Y-110866666D01*
X119095238Y-110714285D01*
X119133333Y-110638095D01*
X119171428Y-110600000D01*
X119247619Y-110561904D01*
%TO.C,D3*%
X111677523Y-91801904D02*
X111677523Y-91001904D01*
X111868000Y-91001904D01*
X111982285Y-91040000D01*
X112058476Y-91116190D01*
X112096571Y-91192380D01*
X112134666Y-91344761D01*
X112134666Y-91459047D01*
X112096571Y-91611428D01*
X112058476Y-91687619D01*
X111982285Y-91763809D01*
X111868000Y-91801904D01*
X111677523Y-91801904D01*
X112401333Y-91001904D02*
X112896571Y-91001904D01*
X112629904Y-91306666D01*
X112744190Y-91306666D01*
X112820380Y-91344761D01*
X112858476Y-91382857D01*
X112896571Y-91459047D01*
X112896571Y-91649523D01*
X112858476Y-91725714D01*
X112820380Y-91763809D01*
X112744190Y-91801904D01*
X112515619Y-91801904D01*
X112439428Y-91763809D01*
X112401333Y-91725714D01*
%TO.C,C17*%
X131189714Y-101937285D02*
X131227809Y-101975380D01*
X131265904Y-102089666D01*
X131265904Y-102165857D01*
X131227809Y-102280142D01*
X131151619Y-102356333D01*
X131075428Y-102394428D01*
X130923047Y-102432523D01*
X130808761Y-102432523D01*
X130656380Y-102394428D01*
X130580190Y-102356333D01*
X130504000Y-102280142D01*
X130465904Y-102165857D01*
X130465904Y-102089666D01*
X130504000Y-101975380D01*
X130542095Y-101937285D01*
X131265904Y-101175380D02*
X131265904Y-101632523D01*
X131265904Y-101403952D02*
X130465904Y-101403952D01*
X130580190Y-101480142D01*
X130656380Y-101556333D01*
X130694476Y-101632523D01*
X130465904Y-100908714D02*
X130465904Y-100375380D01*
X131265904Y-100718238D01*
%TO.C,C11*%
X114039714Y-95281714D02*
X114001619Y-95319809D01*
X113887333Y-95357904D01*
X113811142Y-95357904D01*
X113696857Y-95319809D01*
X113620666Y-95243619D01*
X113582571Y-95167428D01*
X113544476Y-95015047D01*
X113544476Y-94900761D01*
X113582571Y-94748380D01*
X113620666Y-94672190D01*
X113696857Y-94596000D01*
X113811142Y-94557904D01*
X113887333Y-94557904D01*
X114001619Y-94596000D01*
X114039714Y-94634095D01*
X114801619Y-95357904D02*
X114344476Y-95357904D01*
X114573047Y-95357904D02*
X114573047Y-94557904D01*
X114496857Y-94672190D01*
X114420666Y-94748380D01*
X114344476Y-94786476D01*
X115563523Y-95357904D02*
X115106380Y-95357904D01*
X115334952Y-95357904D02*
X115334952Y-94557904D01*
X115258761Y-94672190D01*
X115182571Y-94748380D01*
X115106380Y-94786476D01*
%TO.C,C16*%
X129689714Y-101683285D02*
X129727809Y-101721380D01*
X129765904Y-101835666D01*
X129765904Y-101911857D01*
X129727809Y-102026142D01*
X129651619Y-102102333D01*
X129575428Y-102140428D01*
X129423047Y-102178523D01*
X129308761Y-102178523D01*
X129156380Y-102140428D01*
X129080190Y-102102333D01*
X129004000Y-102026142D01*
X128965904Y-101911857D01*
X128965904Y-101835666D01*
X129004000Y-101721380D01*
X129042095Y-101683285D01*
X129765904Y-100921380D02*
X129765904Y-101378523D01*
X129765904Y-101149952D02*
X128965904Y-101149952D01*
X129080190Y-101226142D01*
X129156380Y-101302333D01*
X129194476Y-101378523D01*
X128965904Y-100235666D02*
X128965904Y-100388047D01*
X129004000Y-100464238D01*
X129042095Y-100502333D01*
X129156380Y-100578523D01*
X129308761Y-100616619D01*
X129613523Y-100616619D01*
X129689714Y-100578523D01*
X129727809Y-100540428D01*
X129765904Y-100464238D01*
X129765904Y-100311857D01*
X129727809Y-100235666D01*
X129689714Y-100197571D01*
X129613523Y-100159476D01*
X129423047Y-100159476D01*
X129346857Y-100197571D01*
X129308761Y-100235666D01*
X129270666Y-100311857D01*
X129270666Y-100464238D01*
X129308761Y-100540428D01*
X129346857Y-100578523D01*
X129423047Y-100616619D01*
D11*
%TO.C,R16*%
X142352064Y-93785000D02*
X141897936Y-93785000D01*
X142352064Y-92315000D02*
X141897936Y-92315000D01*
%TO.C,J4*%
X132495000Y-108960000D02*
X132495000Y-108960000D01*
X132495000Y-107960000D02*
X132495000Y-108960000D01*
X131105000Y-106960000D02*
X131105000Y-107840000D01*
X131105000Y-108960000D02*
X132495000Y-108960000D01*
X132495000Y-103840000D02*
X132495000Y-104840000D01*
X131105000Y-103840000D02*
X131105000Y-103840000D01*
X131105000Y-103840000D02*
X132495000Y-103840000D01*
X131105000Y-104960000D02*
X131105000Y-105840000D01*
X132495000Y-105960000D02*
X132495000Y-106840000D01*
X131105000Y-103840000D02*
X130110000Y-103840000D01*
%TO.C,C12*%
X121298580Y-88136000D02*
X121017420Y-88136000D01*
X121298580Y-89156000D02*
X121017420Y-89156000D01*
%TO.C,D1*%
X138245000Y-83100000D02*
X135835000Y-83100000D01*
X141185000Y-83100000D02*
G75*
G03*
X141185000Y-83100000I-1470000J0D01*
G01*
%TO.C,J6*%
X148125000Y-88725000D02*
X151075000Y-88725000D01*
X151835000Y-87965000D02*
X145865000Y-87965000D01*
X145865000Y-95585000D02*
X151835000Y-95585000D01*
X145875000Y-87975000D02*
X145875000Y-89775000D01*
X146625000Y-93775000D02*
X145875000Y-93775000D01*
X145875000Y-95575000D02*
X146625000Y-95575000D01*
X145575000Y-95875000D02*
X146825000Y-95875000D01*
X151075000Y-88725000D02*
X151075000Y-91775000D01*
X146625000Y-91275000D02*
X145875000Y-91275000D01*
X146625000Y-95575000D02*
X146625000Y-93775000D01*
X148125000Y-87975000D02*
X148125000Y-88725000D01*
X146625000Y-92275000D02*
X146625000Y-91275000D01*
X146625000Y-89775000D02*
X146625000Y-87975000D01*
X151835000Y-95585000D02*
X151835000Y-87965000D01*
X146625000Y-87975000D02*
X145875000Y-87975000D01*
X145575000Y-94625000D02*
X145575000Y-95875000D01*
X145875000Y-89775000D02*
X146625000Y-89775000D01*
X145875000Y-92275000D02*
X146625000Y-92275000D01*
X148125000Y-94825000D02*
X151075000Y-94825000D01*
X145875000Y-93775000D02*
X145875000Y-95575000D01*
X148125000Y-95575000D02*
X148125000Y-94825000D01*
X151075000Y-94825000D02*
X151075000Y-91775000D01*
X145865000Y-87965000D02*
X145865000Y-95585000D01*
X145875000Y-91275000D02*
X145875000Y-92275000D01*
%TO.C,R23*%
X117870500Y-90915258D02*
X117870500Y-90440742D01*
X116825500Y-90915258D02*
X116825500Y-90440742D01*
%TO.C,R18*%
X114283258Y-87898500D02*
X113808742Y-87898500D01*
X114283258Y-86853500D02*
X113808742Y-86853500D01*
%TO.C,C1*%
X141609420Y-115529236D02*
X141890580Y-115529236D01*
X141609420Y-114509236D02*
X141890580Y-114509236D01*
%TO.C,C6*%
X141609420Y-103260000D02*
X141890580Y-103260000D01*
X141609420Y-102240000D02*
X141890580Y-102240000D01*
%TO.C,J8*%
X110771000Y-109530000D02*
X110771000Y-110780000D01*
X111071000Y-106180000D02*
X111071000Y-107180000D01*
X111821000Y-110480000D02*
X111821000Y-108680000D01*
X111071000Y-102880000D02*
X111071000Y-104680000D01*
X113321000Y-102880000D02*
X113321000Y-103630000D01*
X111071000Y-108680000D02*
X111071000Y-110480000D01*
X111071000Y-104680000D02*
X111821000Y-104680000D01*
X111821000Y-108680000D02*
X111071000Y-108680000D01*
X113321000Y-109730000D02*
X116271000Y-109730000D01*
X111071000Y-107180000D02*
X111821000Y-107180000D01*
X116271000Y-109730000D02*
X116271000Y-106680000D01*
X117031000Y-102870000D02*
X111061000Y-102870000D01*
X111821000Y-104680000D02*
X111821000Y-102880000D01*
X111821000Y-107180000D02*
X111821000Y-106180000D01*
X116271000Y-103630000D02*
X116271000Y-106680000D01*
X113321000Y-110480000D02*
X113321000Y-109730000D01*
X111071000Y-110480000D02*
X111821000Y-110480000D01*
X111061000Y-102870000D02*
X111061000Y-110490000D01*
X111821000Y-106180000D02*
X111071000Y-106180000D01*
X113321000Y-103630000D02*
X116271000Y-103630000D01*
X111061000Y-110490000D02*
X117031000Y-110490000D01*
X110771000Y-110780000D02*
X112021000Y-110780000D01*
X111821000Y-102880000D02*
X111071000Y-102880000D01*
X117031000Y-110490000D02*
X117031000Y-102870000D01*
%TO.C,R20*%
X117110742Y-99045500D02*
X117585258Y-99045500D01*
X117110742Y-100090500D02*
X117585258Y-100090500D01*
%TO.C,C7*%
X141609420Y-101010000D02*
X141890580Y-101010000D01*
X141609420Y-99990000D02*
X141890580Y-99990000D01*
%TO.C,Q1*%
X137200000Y-100040000D02*
X136550000Y-100040000D01*
X137200000Y-103160000D02*
X136550000Y-103160000D01*
X137200000Y-103160000D02*
X138875000Y-103160000D01*
X137200000Y-100040000D02*
X137850000Y-100040000D01*
%TO.C,C18*%
X124782000Y-102566000D02*
X128202000Y-102566000D01*
X128202000Y-102566000D02*
X128202000Y-95806000D01*
X124782000Y-95806000D02*
X124782000Y-102566000D01*
%TO.C,R11*%
X134572936Y-98065000D02*
X135027064Y-98065000D01*
X134572936Y-99535000D02*
X135027064Y-99535000D01*
%TO.C,C10*%
X135241420Y-85596000D02*
X135522580Y-85596000D01*
X135241420Y-86616000D02*
X135522580Y-86616000D01*
%TO.C,R21*%
X124222500Y-100337258D02*
X124222500Y-99862742D01*
X123177500Y-100337258D02*
X123177500Y-99862742D01*
%TO.C,U2*%
X125073002Y-95082995D02*
X125073002Y-94563728D01*
X118818998Y-95082995D02*
X119188274Y-95082995D01*
X125073002Y-89829005D02*
X124703726Y-89829005D01*
X125073002Y-90348272D02*
X125073002Y-89829005D01*
X118818998Y-89829005D02*
X118818998Y-90348272D01*
X124703726Y-95082995D02*
X125073002Y-95082995D01*
X119188274Y-89829005D02*
X118818998Y-89829005D01*
X118818998Y-94563728D02*
X118818998Y-95082995D01*
%TO.C,C9*%
X137010000Y-105359420D02*
X137010000Y-105640580D01*
X135990000Y-105359420D02*
X135990000Y-105640580D01*
%TO.C,D2*%
X127755000Y-85600000D02*
X130165000Y-85600000D01*
X127755000Y-85600000D02*
G75*
G03*
X127755000Y-85600000I-1470000J0D01*
G01*
%TO.C,C8*%
X138240000Y-105359420D02*
X138240000Y-105640580D01*
X139260000Y-105359420D02*
X139260000Y-105640580D01*
%TO.C,R9*%
X135565000Y-110262742D02*
X135565000Y-110737258D01*
X136610000Y-110262742D02*
X136610000Y-110737258D01*
%TO.C,R13*%
X133372936Y-102065000D02*
X133827064Y-102065000D01*
X133372936Y-103535000D02*
X133827064Y-103535000D01*
%TO.C,C3*%
X141609420Y-109490000D02*
X141890580Y-109490000D01*
X141609420Y-110510000D02*
X141890580Y-110510000D01*
%TO.C,TH1*%
X128065000Y-108172936D02*
X128065000Y-108627064D01*
X129535000Y-108172936D02*
X129535000Y-108627064D01*
%TO.C,C5*%
X141609420Y-105510000D02*
X141890580Y-105510000D01*
X141609420Y-104490000D02*
X141890580Y-104490000D01*
%TO.C,C4*%
X141609420Y-108010000D02*
X141890580Y-108010000D01*
X141609420Y-106990000D02*
X141890580Y-106990000D01*
%TO.C,R15*%
X133372936Y-100065000D02*
X133827064Y-100065000D01*
X133372936Y-101535000D02*
X133827064Y-101535000D01*
%TO.C,J9*%
X126650000Y-116975000D02*
X124850000Y-116975000D01*
X126650000Y-117725000D02*
X126650000Y-116975000D01*
X119050000Y-116975000D02*
X119050000Y-117725000D01*
X119040000Y-111765000D02*
X119040000Y-117735000D01*
X124850000Y-116975000D02*
X124850000Y-117725000D01*
X123350000Y-117725000D02*
X123350000Y-116975000D01*
X125900000Y-115475000D02*
X125900000Y-112525000D01*
X124850000Y-117725000D02*
X126650000Y-117725000D01*
X126660000Y-117735000D02*
X126660000Y-111765000D01*
X123350000Y-116975000D02*
X122350000Y-116975000D01*
X126650000Y-115475000D02*
X125900000Y-115475000D01*
X125900000Y-112525000D02*
X122850000Y-112525000D01*
X119800000Y-115475000D02*
X119800000Y-112525000D01*
X122350000Y-117725000D02*
X123350000Y-117725000D01*
X126660000Y-111765000D02*
X119040000Y-111765000D01*
X119050000Y-115475000D02*
X119800000Y-115475000D01*
X119040000Y-117735000D02*
X126660000Y-117735000D01*
X120850000Y-116975000D02*
X119050000Y-116975000D01*
X120850000Y-117725000D02*
X120850000Y-116975000D01*
X119050000Y-117725000D02*
X120850000Y-117725000D01*
X125700000Y-118025000D02*
X126950000Y-118025000D01*
X122350000Y-116975000D02*
X122350000Y-117725000D01*
X119800000Y-112525000D02*
X122850000Y-112525000D01*
X126950000Y-118025000D02*
X126950000Y-116775000D01*
%TO.C,D4*%
X118586000Y-88384000D02*
X118586000Y-89044000D01*
X117176000Y-89044000D02*
X118586000Y-89044000D01*
X118586000Y-86724000D02*
X116556000Y-86724000D01*
X118586000Y-86724000D02*
X118586000Y-87384000D01*
%TO.C,R19*%
X122921500Y-87105258D02*
X122921500Y-86630742D01*
X123966500Y-87105258D02*
X123966500Y-86630742D01*
%TO.C,R17*%
X142352064Y-91660000D02*
X141897936Y-91660000D01*
X142352064Y-90190000D02*
X141897936Y-90190000D01*
%TO.C,J2*%
X150078764Y-117510836D02*
X150078764Y-115710836D01*
X144118764Y-117520836D02*
X150088764Y-117520836D01*
X149328764Y-97410836D02*
X149328764Y-99210836D01*
X147828764Y-117510836D02*
X147828764Y-116760836D01*
X147828764Y-98160836D02*
X144878764Y-98160836D01*
X150088764Y-97400836D02*
X144118764Y-97400836D01*
X147828764Y-97410836D02*
X147828764Y-98160836D01*
X144118764Y-97400836D02*
X144118764Y-117520836D01*
X149328764Y-99210836D02*
X150078764Y-99210836D01*
X150378764Y-97110836D02*
X149128764Y-97110836D01*
X150378764Y-98360836D02*
X150378764Y-97110836D01*
X144878764Y-98160836D02*
X144878764Y-107460836D01*
X150078764Y-100710836D02*
X149328764Y-100710836D01*
X150078764Y-99210836D02*
X150078764Y-97410836D01*
X149328764Y-117510836D02*
X150078764Y-117510836D01*
X150078764Y-115710836D02*
X149328764Y-115710836D01*
X150078764Y-97410836D02*
X149328764Y-97410836D01*
X144878764Y-116760836D02*
X144878764Y-107460836D01*
X150088764Y-117520836D02*
X150088764Y-97400836D01*
X150078764Y-114210836D02*
X150078764Y-100710836D01*
X149328764Y-115710836D02*
X149328764Y-117510836D01*
X147828764Y-116760836D02*
X144878764Y-116760836D01*
X149328764Y-100710836D02*
X149328764Y-114210836D01*
X149328764Y-114210836D02*
X150078764Y-114210836D01*
%TO.C,J7*%
X131450000Y-82525000D02*
X128400000Y-82525000D01*
X132210000Y-77315000D02*
X124590000Y-77315000D01*
X128900000Y-78075000D02*
X128900000Y-77325000D01*
X132200000Y-77325000D02*
X130400000Y-77325000D01*
X124590000Y-83285000D02*
X132210000Y-83285000D01*
X132210000Y-83285000D02*
X132210000Y-77315000D01*
X124600000Y-79575000D02*
X125350000Y-79575000D01*
X128900000Y-77325000D02*
X127900000Y-77325000D01*
X132200000Y-78075000D02*
X132200000Y-77325000D01*
X126400000Y-78075000D02*
X126400000Y-77325000D01*
X127900000Y-78075000D02*
X128900000Y-78075000D01*
X130400000Y-78075000D02*
X132200000Y-78075000D01*
X124300000Y-77025000D02*
X124300000Y-78275000D01*
X125350000Y-79575000D02*
X125350000Y-82525000D01*
X124600000Y-78075000D02*
X126400000Y-78075000D01*
X131450000Y-79575000D02*
X131450000Y-82525000D01*
X126400000Y-77325000D02*
X124600000Y-77325000D01*
X124600000Y-77325000D02*
X124600000Y-78075000D01*
X125550000Y-77025000D02*
X124300000Y-77025000D01*
X124590000Y-77315000D02*
X124590000Y-83285000D01*
X130400000Y-77325000D02*
X130400000Y-78075000D01*
X127900000Y-77325000D02*
X127900000Y-78075000D01*
X125350000Y-82525000D02*
X128400000Y-82525000D01*
X132200000Y-79575000D02*
X131450000Y-79575000D01*
%TO.C,R8*%
X138427064Y-98065000D02*
X137972936Y-98065000D01*
X138427064Y-99535000D02*
X137972936Y-99535000D01*
%TO.C,R10*%
X135227064Y-112515000D02*
X134772936Y-112515000D01*
X135227064Y-113985000D02*
X134772936Y-113985000D01*
%TO.C,C25*%
X116980580Y-92962000D02*
X116699420Y-92962000D01*
X116980580Y-93982000D02*
X116699420Y-93982000D01*
%TO.C,R22*%
X121649258Y-98791500D02*
X121174742Y-98791500D01*
X121649258Y-99836500D02*
X121174742Y-99836500D01*
%TO.C,C2*%
X141609420Y-112490000D02*
X141890580Y-112490000D01*
X141609420Y-113510000D02*
X141890580Y-113510000D01*
%TO.C,R12*%
X134110000Y-110262742D02*
X134110000Y-110737258D01*
X133065000Y-110262742D02*
X133065000Y-110737258D01*
%TO.C,C15*%
X121552580Y-100340000D02*
X121271420Y-100340000D01*
X121552580Y-101360000D02*
X121271420Y-101360000D01*
%TO.C,C14*%
X117488580Y-98554000D02*
X117207420Y-98554000D01*
X117488580Y-97534000D02*
X117207420Y-97534000D01*
%TO.C,J10*%
X110500000Y-117783000D02*
X112300000Y-117783000D01*
X117350000Y-115533000D02*
X117350000Y-112583000D01*
X114800000Y-117033000D02*
X113800000Y-117033000D01*
X118100000Y-115533000D02*
X117350000Y-115533000D01*
X118400000Y-118083000D02*
X118400000Y-116833000D01*
X116300000Y-117033000D02*
X116300000Y-117783000D01*
X114800000Y-117783000D02*
X114800000Y-117033000D01*
X117150000Y-118083000D02*
X118400000Y-118083000D01*
X111250000Y-112583000D02*
X114300000Y-112583000D01*
X112300000Y-117783000D02*
X112300000Y-117033000D01*
X113800000Y-117033000D02*
X113800000Y-117783000D01*
X110500000Y-115533000D02*
X111250000Y-115533000D01*
X118100000Y-117783000D02*
X118100000Y-117033000D01*
X110490000Y-111823000D02*
X110490000Y-117793000D01*
X110500000Y-117033000D02*
X110500000Y-117783000D01*
X110490000Y-117793000D02*
X118110000Y-117793000D01*
X111250000Y-115533000D02*
X111250000Y-112583000D01*
X118110000Y-111823000D02*
X110490000Y-111823000D01*
X118100000Y-117033000D02*
X116300000Y-117033000D01*
X116300000Y-117783000D02*
X118100000Y-117783000D01*
X112300000Y-117033000D02*
X110500000Y-117033000D01*
X117350000Y-112583000D02*
X114300000Y-112583000D01*
X118110000Y-117793000D02*
X118110000Y-111823000D01*
X113800000Y-117783000D02*
X114800000Y-117783000D01*
%TO.C,D3*%
X111853000Y-90622000D02*
X114538000Y-90622000D01*
X111853000Y-88702000D02*
X111853000Y-90622000D01*
X114538000Y-88702000D02*
X111853000Y-88702000D01*
%TO.C,C17*%
X130140000Y-98515580D02*
X130140000Y-98234420D01*
X131160000Y-98515580D02*
X131160000Y-98234420D01*
%TO.C,C11*%
X117755580Y-95760000D02*
X117474420Y-95760000D01*
X117755580Y-94740000D02*
X117474420Y-94740000D01*
%TO.C,C16*%
X128640000Y-98515580D02*
X128640000Y-98234420D01*
X129660000Y-98515580D02*
X129660000Y-98234420D01*
%TD*%
M02*
