%TF.GenerationSoftware,KiCad,Pcbnew,6.0.1-79c1e3a40b~116~ubuntu21.10.1*%
%TF.CreationDate,2022-03-15T20:57:31-06:00*%
%TF.ProjectId,PowerBackup,506f7765-7242-4616-936b-75702e6b6963,rev?*%
%TF.SameCoordinates,Original*%
%TF.FileFunction,AssemblyDrawing,Top*%
%FSLAX46Y46*%
G04 Gerber Fmt 4.6, Leading zero omitted, Abs format (unit mm)*
G04 Created by KiCad (PCBNEW 6.0.1-79c1e3a40b~116~ubuntu21.10.1) date 2022-03-15 20:57:31*
%MOMM*%
%LPD*%
G01*
G04 APERTURE LIST*
%ADD10C,0.150000*%
%ADD11C,0.080000*%
%ADD12C,0.060000*%
%ADD13C,0.050000*%
%ADD14C,0.075000*%
%ADD15C,0.100000*%
G04 APERTURE END LIST*
D10*
%TO.C,R16*%
X142086904Y-90961904D02*
X142163095Y-90961904D01*
X142239285Y-91000000D01*
X142277380Y-91038095D01*
X142315476Y-91114285D01*
X142353571Y-91266666D01*
X142353571Y-91457142D01*
X142315476Y-91609523D01*
X142277380Y-91685714D01*
X142239285Y-91723809D01*
X142163095Y-91761904D01*
X142086904Y-91761904D01*
X142010714Y-91723809D01*
X141972619Y-91685714D01*
X141934523Y-91609523D01*
X141896428Y-91457142D01*
X141896428Y-91266666D01*
X141934523Y-91114285D01*
X141972619Y-91038095D01*
X142010714Y-91000000D01*
X142086904Y-90961904D01*
D11*
X141803571Y-93276190D02*
X141636904Y-93038095D01*
X141517857Y-93276190D02*
X141517857Y-92776190D01*
X141708333Y-92776190D01*
X141755952Y-92800000D01*
X141779761Y-92823809D01*
X141803571Y-92871428D01*
X141803571Y-92942857D01*
X141779761Y-92990476D01*
X141755952Y-93014285D01*
X141708333Y-93038095D01*
X141517857Y-93038095D01*
X142279761Y-93276190D02*
X141994047Y-93276190D01*
X142136904Y-93276190D02*
X142136904Y-92776190D01*
X142089285Y-92847619D01*
X142041666Y-92895238D01*
X141994047Y-92919047D01*
X142708333Y-92776190D02*
X142613095Y-92776190D01*
X142565476Y-92800000D01*
X142541666Y-92823809D01*
X142494047Y-92895238D01*
X142470238Y-92990476D01*
X142470238Y-93180952D01*
X142494047Y-93228571D01*
X142517857Y-93252380D01*
X142565476Y-93276190D01*
X142660714Y-93276190D01*
X142708333Y-93252380D01*
X142732142Y-93228571D01*
X142755952Y-93180952D01*
X142755952Y-93061904D01*
X142732142Y-93014285D01*
X142708333Y-92990476D01*
X142660714Y-92966666D01*
X142565476Y-92966666D01*
X142517857Y-92990476D01*
X142494047Y-93014285D01*
X142470238Y-93061904D01*
D10*
%TO.C,J4*%
X126371428Y-110245714D02*
X126333333Y-110283809D01*
X126219047Y-110321904D01*
X126142857Y-110321904D01*
X126028571Y-110283809D01*
X125952380Y-110207619D01*
X125914285Y-110131428D01*
X125876190Y-109979047D01*
X125876190Y-109864761D01*
X125914285Y-109712380D01*
X125952380Y-109636190D01*
X126028571Y-109560000D01*
X126142857Y-109521904D01*
X126219047Y-109521904D01*
X126333333Y-109560000D01*
X126371428Y-109598095D01*
X126828571Y-110321904D02*
X126752380Y-110283809D01*
X126714285Y-110245714D01*
X126676190Y-110169523D01*
X126676190Y-109940952D01*
X126714285Y-109864761D01*
X126752380Y-109826666D01*
X126828571Y-109788571D01*
X126942857Y-109788571D01*
X127019047Y-109826666D01*
X127057142Y-109864761D01*
X127095238Y-109940952D01*
X127095238Y-110169523D01*
X127057142Y-110245714D01*
X127019047Y-110283809D01*
X126942857Y-110321904D01*
X126828571Y-110321904D01*
X127438095Y-109788571D02*
X127438095Y-110321904D01*
X127438095Y-109864761D02*
X127476190Y-109826666D01*
X127552380Y-109788571D01*
X127666666Y-109788571D01*
X127742857Y-109826666D01*
X127780952Y-109902857D01*
X127780952Y-110321904D01*
X128161904Y-109788571D02*
X128161904Y-110321904D01*
X128161904Y-109864761D02*
X128200000Y-109826666D01*
X128276190Y-109788571D01*
X128390476Y-109788571D01*
X128466666Y-109826666D01*
X128504761Y-109902857D01*
X128504761Y-110321904D01*
X128695238Y-110398095D02*
X129304761Y-110398095D01*
X129647619Y-109521904D02*
X129723809Y-109521904D01*
X129800000Y-109560000D01*
X129838095Y-109598095D01*
X129876190Y-109674285D01*
X129914285Y-109826666D01*
X129914285Y-110017142D01*
X129876190Y-110169523D01*
X129838095Y-110245714D01*
X129800000Y-110283809D01*
X129723809Y-110321904D01*
X129647619Y-110321904D01*
X129571428Y-110283809D01*
X129533333Y-110245714D01*
X129495238Y-110169523D01*
X129457142Y-110017142D01*
X129457142Y-109826666D01*
X129495238Y-109674285D01*
X129533333Y-109598095D01*
X129571428Y-109560000D01*
X129647619Y-109521904D01*
X130676190Y-110321904D02*
X130219047Y-110321904D01*
X130447619Y-110321904D02*
X130447619Y-109521904D01*
X130371428Y-109636190D01*
X130295238Y-109712380D01*
X130219047Y-109750476D01*
X130942857Y-110321904D02*
X131361904Y-109788571D01*
X130942857Y-109788571D02*
X131361904Y-110321904D01*
X131819047Y-109521904D02*
X131895238Y-109521904D01*
X131971428Y-109560000D01*
X132009523Y-109598095D01*
X132047619Y-109674285D01*
X132085714Y-109826666D01*
X132085714Y-110017142D01*
X132047619Y-110169523D01*
X132009523Y-110245714D01*
X131971428Y-110283809D01*
X131895238Y-110321904D01*
X131819047Y-110321904D01*
X131742857Y-110283809D01*
X131704761Y-110245714D01*
X131666666Y-110169523D01*
X131628571Y-110017142D01*
X131628571Y-109826666D01*
X131666666Y-109674285D01*
X131704761Y-109598095D01*
X131742857Y-109560000D01*
X131819047Y-109521904D01*
X132809523Y-109521904D02*
X132428571Y-109521904D01*
X132390476Y-109902857D01*
X132428571Y-109864761D01*
X132504761Y-109826666D01*
X132695238Y-109826666D01*
X132771428Y-109864761D01*
X132809523Y-109902857D01*
X132847619Y-109979047D01*
X132847619Y-110169523D01*
X132809523Y-110245714D01*
X132771428Y-110283809D01*
X132695238Y-110321904D01*
X132504761Y-110321904D01*
X132428571Y-110283809D01*
X132390476Y-110245714D01*
X133000000Y-110398095D02*
X133609523Y-110398095D01*
X134066666Y-109902857D02*
X133800000Y-109902857D01*
X133800000Y-110321904D02*
X133800000Y-109521904D01*
X134180952Y-109521904D01*
X134790476Y-110283809D02*
X134714285Y-110321904D01*
X134561904Y-110321904D01*
X134485714Y-110283809D01*
X134447619Y-110207619D01*
X134447619Y-109902857D01*
X134485714Y-109826666D01*
X134561904Y-109788571D01*
X134714285Y-109788571D01*
X134790476Y-109826666D01*
X134828571Y-109902857D01*
X134828571Y-109979047D01*
X134447619Y-110055238D01*
X135171428Y-110321904D02*
X135171428Y-109788571D01*
X135171428Y-109864761D02*
X135209523Y-109826666D01*
X135285714Y-109788571D01*
X135400000Y-109788571D01*
X135476190Y-109826666D01*
X135514285Y-109902857D01*
X135514285Y-110321904D01*
X135514285Y-109902857D02*
X135552380Y-109826666D01*
X135628571Y-109788571D01*
X135742857Y-109788571D01*
X135819047Y-109826666D01*
X135857142Y-109902857D01*
X135857142Y-110321904D01*
X136580952Y-110321904D02*
X136580952Y-109902857D01*
X136542857Y-109826666D01*
X136466666Y-109788571D01*
X136314285Y-109788571D01*
X136238095Y-109826666D01*
X136580952Y-110283809D02*
X136504761Y-110321904D01*
X136314285Y-110321904D01*
X136238095Y-110283809D01*
X136200000Y-110207619D01*
X136200000Y-110131428D01*
X136238095Y-110055238D01*
X136314285Y-110017142D01*
X136504761Y-110017142D01*
X136580952Y-109979047D01*
X137076190Y-110321904D02*
X137000000Y-110283809D01*
X136961904Y-110207619D01*
X136961904Y-109521904D01*
X137685714Y-110283809D02*
X137609523Y-110321904D01*
X137457142Y-110321904D01*
X137380952Y-110283809D01*
X137342857Y-110207619D01*
X137342857Y-109902857D01*
X137380952Y-109826666D01*
X137457142Y-109788571D01*
X137609523Y-109788571D01*
X137685714Y-109826666D01*
X137723809Y-109902857D01*
X137723809Y-109979047D01*
X137342857Y-110055238D01*
X131361904Y-106666666D02*
X131933333Y-106666666D01*
X132047619Y-106704761D01*
X132123809Y-106780952D01*
X132161904Y-106895238D01*
X132161904Y-106971428D01*
X131628571Y-105942857D02*
X132161904Y-105942857D01*
X131323809Y-106133333D02*
X131895238Y-106323809D01*
X131895238Y-105828571D01*
%TO.C,C12*%
X119996095Y-86854095D02*
X120034190Y-86816000D01*
X120110380Y-86777904D01*
X120300857Y-86777904D01*
X120377047Y-86816000D01*
X120415142Y-86854095D01*
X120453238Y-86930285D01*
X120453238Y-87006476D01*
X120415142Y-87120761D01*
X119958000Y-87577904D01*
X120453238Y-87577904D01*
X120796095Y-87501714D02*
X120834190Y-87539809D01*
X120796095Y-87577904D01*
X120758000Y-87539809D01*
X120796095Y-87501714D01*
X120796095Y-87577904D01*
X121138952Y-86854095D02*
X121177047Y-86816000D01*
X121253238Y-86777904D01*
X121443714Y-86777904D01*
X121519904Y-86816000D01*
X121558000Y-86854095D01*
X121596095Y-86930285D01*
X121596095Y-87006476D01*
X121558000Y-87120761D01*
X121100857Y-87577904D01*
X121596095Y-87577904D01*
X122281809Y-87044571D02*
X122281809Y-87577904D01*
X121938952Y-87044571D02*
X121938952Y-87463619D01*
X121977047Y-87539809D01*
X122053238Y-87577904D01*
X122167523Y-87577904D01*
X122243714Y-87539809D01*
X122281809Y-87501714D01*
D12*
X120900857Y-88788857D02*
X120881809Y-88807904D01*
X120824666Y-88826952D01*
X120786571Y-88826952D01*
X120729428Y-88807904D01*
X120691333Y-88769809D01*
X120672285Y-88731714D01*
X120653238Y-88655523D01*
X120653238Y-88598380D01*
X120672285Y-88522190D01*
X120691333Y-88484095D01*
X120729428Y-88446000D01*
X120786571Y-88426952D01*
X120824666Y-88426952D01*
X120881809Y-88446000D01*
X120900857Y-88465047D01*
X121281809Y-88826952D02*
X121053238Y-88826952D01*
X121167523Y-88826952D02*
X121167523Y-88426952D01*
X121129428Y-88484095D01*
X121091333Y-88522190D01*
X121053238Y-88541238D01*
X121434190Y-88465047D02*
X121453238Y-88446000D01*
X121491333Y-88426952D01*
X121586571Y-88426952D01*
X121624666Y-88446000D01*
X121643714Y-88465047D01*
X121662761Y-88503142D01*
X121662761Y-88541238D01*
X121643714Y-88598380D01*
X121415142Y-88826952D01*
X121662761Y-88826952D01*
D10*
%TO.C,D1*%
X134375000Y-85893809D02*
X134489285Y-85931904D01*
X134679761Y-85931904D01*
X134755952Y-85893809D01*
X134794047Y-85855714D01*
X134832142Y-85779523D01*
X134832142Y-85703333D01*
X134794047Y-85627142D01*
X134755952Y-85589047D01*
X134679761Y-85550952D01*
X134527380Y-85512857D01*
X134451190Y-85474761D01*
X134413095Y-85436666D01*
X134375000Y-85360476D01*
X134375000Y-85284285D01*
X134413095Y-85208095D01*
X134451190Y-85170000D01*
X134527380Y-85131904D01*
X134717857Y-85131904D01*
X134832142Y-85170000D01*
X135441666Y-85512857D02*
X135555952Y-85550952D01*
X135594047Y-85589047D01*
X135632142Y-85665238D01*
X135632142Y-85779523D01*
X135594047Y-85855714D01*
X135555952Y-85893809D01*
X135479761Y-85931904D01*
X135175000Y-85931904D01*
X135175000Y-85131904D01*
X135441666Y-85131904D01*
X135517857Y-85170000D01*
X135555952Y-85208095D01*
X135594047Y-85284285D01*
X135594047Y-85360476D01*
X135555952Y-85436666D01*
X135517857Y-85474761D01*
X135441666Y-85512857D01*
X135175000Y-85512857D01*
X135936904Y-85208095D02*
X135975000Y-85170000D01*
X136051190Y-85131904D01*
X136241666Y-85131904D01*
X136317857Y-85170000D01*
X136355952Y-85208095D01*
X136394047Y-85284285D01*
X136394047Y-85360476D01*
X136355952Y-85474761D01*
X135898809Y-85931904D01*
X136394047Y-85931904D01*
X136889285Y-85131904D02*
X136965476Y-85131904D01*
X137041666Y-85170000D01*
X137079761Y-85208095D01*
X137117857Y-85284285D01*
X137155952Y-85436666D01*
X137155952Y-85627142D01*
X137117857Y-85779523D01*
X137079761Y-85855714D01*
X137041666Y-85893809D01*
X136965476Y-85931904D01*
X136889285Y-85931904D01*
X136813095Y-85893809D01*
X136775000Y-85855714D01*
X136736904Y-85779523D01*
X136698809Y-85627142D01*
X136698809Y-85436666D01*
X136736904Y-85284285D01*
X136775000Y-85208095D01*
X136813095Y-85170000D01*
X136889285Y-85131904D01*
X137841666Y-85131904D02*
X137689285Y-85131904D01*
X137613095Y-85170000D01*
X137575000Y-85208095D01*
X137498809Y-85322380D01*
X137460714Y-85474761D01*
X137460714Y-85779523D01*
X137498809Y-85855714D01*
X137536904Y-85893809D01*
X137613095Y-85931904D01*
X137765476Y-85931904D01*
X137841666Y-85893809D01*
X137879761Y-85855714D01*
X137917857Y-85779523D01*
X137917857Y-85589047D01*
X137879761Y-85512857D01*
X137841666Y-85474761D01*
X137765476Y-85436666D01*
X137613095Y-85436666D01*
X137536904Y-85474761D01*
X137498809Y-85512857D01*
X137460714Y-85589047D01*
X138413095Y-85131904D02*
X138489285Y-85131904D01*
X138565476Y-85170000D01*
X138603571Y-85208095D01*
X138641666Y-85284285D01*
X138679761Y-85436666D01*
X138679761Y-85627142D01*
X138641666Y-85779523D01*
X138603571Y-85855714D01*
X138565476Y-85893809D01*
X138489285Y-85931904D01*
X138413095Y-85931904D01*
X138336904Y-85893809D01*
X138298809Y-85855714D01*
X138260714Y-85779523D01*
X138222619Y-85627142D01*
X138222619Y-85436666D01*
X138260714Y-85284285D01*
X138298809Y-85208095D01*
X138336904Y-85170000D01*
X138413095Y-85131904D01*
X138908333Y-85131904D02*
X139365476Y-85131904D01*
X139136904Y-85931904D02*
X139136904Y-85131904D01*
X139594047Y-85703333D02*
X139975000Y-85703333D01*
X139517857Y-85931904D02*
X139784523Y-85131904D01*
X140051190Y-85931904D01*
X136584523Y-80991904D02*
X136584523Y-80191904D01*
X136775000Y-80191904D01*
X136889285Y-80230000D01*
X136965476Y-80306190D01*
X137003571Y-80382380D01*
X137041666Y-80534761D01*
X137041666Y-80649047D01*
X137003571Y-80801428D01*
X136965476Y-80877619D01*
X136889285Y-80953809D01*
X136775000Y-80991904D01*
X136584523Y-80991904D01*
X137803571Y-80991904D02*
X137346428Y-80991904D01*
X137575000Y-80991904D02*
X137575000Y-80191904D01*
X137498809Y-80306190D01*
X137422619Y-80382380D01*
X137346428Y-80420476D01*
X136025476Y-84361904D02*
X136025476Y-83561904D01*
X136482619Y-84361904D02*
X136139761Y-83904761D01*
X136482619Y-83561904D02*
X136025476Y-84019047D01*
%TO.C,J6*%
X153210714Y-97203571D02*
X153248809Y-97241666D01*
X153286904Y-97355952D01*
X153286904Y-97432142D01*
X153248809Y-97546428D01*
X153172619Y-97622619D01*
X153096428Y-97660714D01*
X152944047Y-97698809D01*
X152829761Y-97698809D01*
X152677380Y-97660714D01*
X152601190Y-97622619D01*
X152525000Y-97546428D01*
X152486904Y-97432142D01*
X152486904Y-97355952D01*
X152525000Y-97241666D01*
X152563095Y-97203571D01*
X153286904Y-96746428D02*
X153248809Y-96822619D01*
X153210714Y-96860714D01*
X153134523Y-96898809D01*
X152905952Y-96898809D01*
X152829761Y-96860714D01*
X152791666Y-96822619D01*
X152753571Y-96746428D01*
X152753571Y-96632142D01*
X152791666Y-96555952D01*
X152829761Y-96517857D01*
X152905952Y-96479761D01*
X153134523Y-96479761D01*
X153210714Y-96517857D01*
X153248809Y-96555952D01*
X153286904Y-96632142D01*
X153286904Y-96746428D01*
X152753571Y-96136904D02*
X153286904Y-96136904D01*
X152829761Y-96136904D02*
X152791666Y-96098809D01*
X152753571Y-96022619D01*
X152753571Y-95908333D01*
X152791666Y-95832142D01*
X152867857Y-95794047D01*
X153286904Y-95794047D01*
X152753571Y-95413095D02*
X153286904Y-95413095D01*
X152829761Y-95413095D02*
X152791666Y-95375000D01*
X152753571Y-95298809D01*
X152753571Y-95184523D01*
X152791666Y-95108333D01*
X152867857Y-95070238D01*
X153286904Y-95070238D01*
X153363095Y-94879761D02*
X153363095Y-94270238D01*
X152486904Y-93927380D02*
X152486904Y-93851190D01*
X152525000Y-93775000D01*
X152563095Y-93736904D01*
X152639285Y-93698809D01*
X152791666Y-93660714D01*
X152982142Y-93660714D01*
X153134523Y-93698809D01*
X153210714Y-93736904D01*
X153248809Y-93775000D01*
X153286904Y-93851190D01*
X153286904Y-93927380D01*
X153248809Y-94003571D01*
X153210714Y-94041666D01*
X153134523Y-94079761D01*
X152982142Y-94117857D01*
X152791666Y-94117857D01*
X152639285Y-94079761D01*
X152563095Y-94041666D01*
X152525000Y-94003571D01*
X152486904Y-93927380D01*
X153286904Y-92898809D02*
X153286904Y-93355952D01*
X153286904Y-93127380D02*
X152486904Y-93127380D01*
X152601190Y-93203571D01*
X152677380Y-93279761D01*
X152715476Y-93355952D01*
X153286904Y-92632142D02*
X152753571Y-92213095D01*
X152753571Y-92632142D02*
X153286904Y-92213095D01*
X152486904Y-91755952D02*
X152486904Y-91679761D01*
X152525000Y-91603571D01*
X152563095Y-91565476D01*
X152639285Y-91527380D01*
X152791666Y-91489285D01*
X152982142Y-91489285D01*
X153134523Y-91527380D01*
X153210714Y-91565476D01*
X153248809Y-91603571D01*
X153286904Y-91679761D01*
X153286904Y-91755952D01*
X153248809Y-91832142D01*
X153210714Y-91870238D01*
X153134523Y-91908333D01*
X152982142Y-91946428D01*
X152791666Y-91946428D01*
X152639285Y-91908333D01*
X152563095Y-91870238D01*
X152525000Y-91832142D01*
X152486904Y-91755952D01*
X152563095Y-91184523D02*
X152525000Y-91146428D01*
X152486904Y-91070238D01*
X152486904Y-90879761D01*
X152525000Y-90803571D01*
X152563095Y-90765476D01*
X152639285Y-90727380D01*
X152715476Y-90727380D01*
X152829761Y-90765476D01*
X153286904Y-91222619D01*
X153286904Y-90727380D01*
X153363095Y-90575000D02*
X153363095Y-89965476D01*
X152867857Y-89508333D02*
X152867857Y-89775000D01*
X153286904Y-89775000D02*
X152486904Y-89775000D01*
X152486904Y-89394047D01*
X153248809Y-88784523D02*
X153286904Y-88860714D01*
X153286904Y-89013095D01*
X153248809Y-89089285D01*
X153172619Y-89127380D01*
X152867857Y-89127380D01*
X152791666Y-89089285D01*
X152753571Y-89013095D01*
X152753571Y-88860714D01*
X152791666Y-88784523D01*
X152867857Y-88746428D01*
X152944047Y-88746428D01*
X153020238Y-89127380D01*
X153286904Y-88403571D02*
X152753571Y-88403571D01*
X152829761Y-88403571D02*
X152791666Y-88365476D01*
X152753571Y-88289285D01*
X152753571Y-88175000D01*
X152791666Y-88098809D01*
X152867857Y-88060714D01*
X153286904Y-88060714D01*
X152867857Y-88060714D02*
X152791666Y-88022619D01*
X152753571Y-87946428D01*
X152753571Y-87832142D01*
X152791666Y-87755952D01*
X152867857Y-87717857D01*
X153286904Y-87717857D01*
X153286904Y-86994047D02*
X152867857Y-86994047D01*
X152791666Y-87032142D01*
X152753571Y-87108333D01*
X152753571Y-87260714D01*
X152791666Y-87336904D01*
X153248809Y-86994047D02*
X153286904Y-87070238D01*
X153286904Y-87260714D01*
X153248809Y-87336904D01*
X153172619Y-87375000D01*
X153096428Y-87375000D01*
X153020238Y-87336904D01*
X152982142Y-87260714D01*
X152982142Y-87070238D01*
X152944047Y-86994047D01*
X153286904Y-86498809D02*
X153248809Y-86575000D01*
X153172619Y-86613095D01*
X152486904Y-86613095D01*
X153248809Y-85889285D02*
X153286904Y-85965476D01*
X153286904Y-86117857D01*
X153248809Y-86194047D01*
X153172619Y-86232142D01*
X152867857Y-86232142D01*
X152791666Y-86194047D01*
X152753571Y-86117857D01*
X152753571Y-85965476D01*
X152791666Y-85889285D01*
X152867857Y-85851190D01*
X152944047Y-85851190D01*
X153020238Y-86232142D01*
X150586904Y-92041666D02*
X151158333Y-92041666D01*
X151272619Y-92079761D01*
X151348809Y-92155952D01*
X151386904Y-92270238D01*
X151386904Y-92346428D01*
X150586904Y-91317857D02*
X150586904Y-91470238D01*
X150625000Y-91546428D01*
X150663095Y-91584523D01*
X150777380Y-91660714D01*
X150929761Y-91698809D01*
X151234523Y-91698809D01*
X151310714Y-91660714D01*
X151348809Y-91622619D01*
X151386904Y-91546428D01*
X151386904Y-91394047D01*
X151348809Y-91317857D01*
X151310714Y-91279761D01*
X151234523Y-91241666D01*
X151044047Y-91241666D01*
X150967857Y-91279761D01*
X150929761Y-91317857D01*
X150891666Y-91394047D01*
X150891666Y-91546428D01*
X150929761Y-91622619D01*
X150967857Y-91660714D01*
X151044047Y-91698809D01*
%TO.C,R23*%
X118339904Y-91649428D02*
X118339904Y-91154190D01*
X118644666Y-91420857D01*
X118644666Y-91306571D01*
X118682761Y-91230380D01*
X118720857Y-91192285D01*
X118797047Y-91154190D01*
X118987523Y-91154190D01*
X119063714Y-91192285D01*
X119101809Y-91230380D01*
X119139904Y-91306571D01*
X119139904Y-91535142D01*
X119101809Y-91611333D01*
X119063714Y-91649428D01*
X118339904Y-90658952D02*
X118339904Y-90582761D01*
X118378000Y-90506571D01*
X118416095Y-90468476D01*
X118492285Y-90430380D01*
X118644666Y-90392285D01*
X118835142Y-90392285D01*
X118987523Y-90430380D01*
X119063714Y-90468476D01*
X119101809Y-90506571D01*
X119139904Y-90582761D01*
X119139904Y-90658952D01*
X119101809Y-90735142D01*
X119063714Y-90773238D01*
X118987523Y-90811333D01*
X118835142Y-90849428D01*
X118644666Y-90849428D01*
X118492285Y-90811333D01*
X118416095Y-90773238D01*
X118378000Y-90735142D01*
X118339904Y-90658952D01*
X119139904Y-90049428D02*
X118339904Y-90049428D01*
X118835142Y-89973238D02*
X119139904Y-89744666D01*
X118606571Y-89744666D02*
X118911333Y-90049428D01*
D12*
X117528952Y-90935142D02*
X117338476Y-91068476D01*
X117528952Y-91163714D02*
X117128952Y-91163714D01*
X117128952Y-91011333D01*
X117148000Y-90973238D01*
X117167047Y-90954190D01*
X117205142Y-90935142D01*
X117262285Y-90935142D01*
X117300380Y-90954190D01*
X117319428Y-90973238D01*
X117338476Y-91011333D01*
X117338476Y-91163714D01*
X117167047Y-90782761D02*
X117148000Y-90763714D01*
X117128952Y-90725619D01*
X117128952Y-90630380D01*
X117148000Y-90592285D01*
X117167047Y-90573238D01*
X117205142Y-90554190D01*
X117243238Y-90554190D01*
X117300380Y-90573238D01*
X117528952Y-90801809D01*
X117528952Y-90554190D01*
X117128952Y-90420857D02*
X117128952Y-90173238D01*
X117281333Y-90306571D01*
X117281333Y-90249428D01*
X117300380Y-90211333D01*
X117319428Y-90192285D01*
X117357523Y-90173238D01*
X117452761Y-90173238D01*
X117490857Y-90192285D01*
X117509904Y-90211333D01*
X117528952Y-90249428D01*
X117528952Y-90363714D01*
X117509904Y-90401809D01*
X117490857Y-90420857D01*
D10*
%TO.C,R18*%
X113950761Y-86307904D02*
X113493619Y-86307904D01*
X113722190Y-86307904D02*
X113722190Y-85507904D01*
X113646000Y-85622190D01*
X113569809Y-85698380D01*
X113493619Y-85736476D01*
X114293619Y-86307904D02*
X114293619Y-85507904D01*
X114369809Y-86003142D02*
X114598380Y-86307904D01*
X114598380Y-85774571D02*
X114293619Y-86079333D01*
D12*
X113788857Y-87556952D02*
X113655523Y-87366476D01*
X113560285Y-87556952D02*
X113560285Y-87156952D01*
X113712666Y-87156952D01*
X113750761Y-87176000D01*
X113769809Y-87195047D01*
X113788857Y-87233142D01*
X113788857Y-87290285D01*
X113769809Y-87328380D01*
X113750761Y-87347428D01*
X113712666Y-87366476D01*
X113560285Y-87366476D01*
X114169809Y-87556952D02*
X113941238Y-87556952D01*
X114055523Y-87556952D02*
X114055523Y-87156952D01*
X114017428Y-87214095D01*
X113979333Y-87252190D01*
X113941238Y-87271238D01*
X114398380Y-87328380D02*
X114360285Y-87309333D01*
X114341238Y-87290285D01*
X114322190Y-87252190D01*
X114322190Y-87233142D01*
X114341238Y-87195047D01*
X114360285Y-87176000D01*
X114398380Y-87156952D01*
X114474571Y-87156952D01*
X114512666Y-87176000D01*
X114531714Y-87195047D01*
X114550761Y-87233142D01*
X114550761Y-87252190D01*
X114531714Y-87290285D01*
X114512666Y-87309333D01*
X114474571Y-87328380D01*
X114398380Y-87328380D01*
X114360285Y-87347428D01*
X114341238Y-87366476D01*
X114322190Y-87404571D01*
X114322190Y-87480761D01*
X114341238Y-87518857D01*
X114360285Y-87537904D01*
X114398380Y-87556952D01*
X114474571Y-87556952D01*
X114512666Y-87537904D01*
X114531714Y-87518857D01*
X114550761Y-87480761D01*
X114550761Y-87404571D01*
X114531714Y-87366476D01*
X114512666Y-87347428D01*
X114474571Y-87328380D01*
D10*
%TO.C,C1*%
X141616666Y-116811140D02*
X141159523Y-116811140D01*
X141388095Y-116811140D02*
X141388095Y-116011140D01*
X141311904Y-116125426D01*
X141235714Y-116201616D01*
X141159523Y-116239712D01*
X142302380Y-116277807D02*
X142302380Y-116811140D01*
X141959523Y-116277807D02*
X141959523Y-116696855D01*
X141997619Y-116773045D01*
X142073809Y-116811140D01*
X142188095Y-116811140D01*
X142264285Y-116773045D01*
X142302380Y-116734950D01*
D12*
X141683333Y-115162093D02*
X141664285Y-115181140D01*
X141607142Y-115200188D01*
X141569047Y-115200188D01*
X141511904Y-115181140D01*
X141473809Y-115143045D01*
X141454761Y-115104950D01*
X141435714Y-115028759D01*
X141435714Y-114971616D01*
X141454761Y-114895426D01*
X141473809Y-114857331D01*
X141511904Y-114819236D01*
X141569047Y-114800188D01*
X141607142Y-114800188D01*
X141664285Y-114819236D01*
X141683333Y-114838283D01*
X142064285Y-115200188D02*
X141835714Y-115200188D01*
X141950000Y-115200188D02*
X141950000Y-114800188D01*
X141911904Y-114857331D01*
X141873809Y-114895426D01*
X141835714Y-114914474D01*
D10*
%TO.C,C6*%
X141616666Y-104541904D02*
X141159523Y-104541904D01*
X141388095Y-104541904D02*
X141388095Y-103741904D01*
X141311904Y-103856190D01*
X141235714Y-103932380D01*
X141159523Y-103970476D01*
X142302380Y-104008571D02*
X142302380Y-104541904D01*
X141959523Y-104008571D02*
X141959523Y-104427619D01*
X141997619Y-104503809D01*
X142073809Y-104541904D01*
X142188095Y-104541904D01*
X142264285Y-104503809D01*
X142302380Y-104465714D01*
D12*
X141683333Y-102892857D02*
X141664285Y-102911904D01*
X141607142Y-102930952D01*
X141569047Y-102930952D01*
X141511904Y-102911904D01*
X141473809Y-102873809D01*
X141454761Y-102835714D01*
X141435714Y-102759523D01*
X141435714Y-102702380D01*
X141454761Y-102626190D01*
X141473809Y-102588095D01*
X141511904Y-102550000D01*
X141569047Y-102530952D01*
X141607142Y-102530952D01*
X141664285Y-102550000D01*
X141683333Y-102569047D01*
X142026190Y-102530952D02*
X141950000Y-102530952D01*
X141911904Y-102550000D01*
X141892857Y-102569047D01*
X141854761Y-102626190D01*
X141835714Y-102702380D01*
X141835714Y-102854761D01*
X141854761Y-102892857D01*
X141873809Y-102911904D01*
X141911904Y-102930952D01*
X141988095Y-102930952D01*
X142026190Y-102911904D01*
X142045238Y-102892857D01*
X142064285Y-102854761D01*
X142064285Y-102759523D01*
X142045238Y-102721428D01*
X142026190Y-102702380D01*
X141988095Y-102683333D01*
X141911904Y-102683333D01*
X141873809Y-102702380D01*
X141854761Y-102721428D01*
X141835714Y-102759523D01*
D10*
%TO.C,J8*%
X118406714Y-112108571D02*
X118444809Y-112146666D01*
X118482904Y-112260952D01*
X118482904Y-112337142D01*
X118444809Y-112451428D01*
X118368619Y-112527619D01*
X118292428Y-112565714D01*
X118140047Y-112603809D01*
X118025761Y-112603809D01*
X117873380Y-112565714D01*
X117797190Y-112527619D01*
X117721000Y-112451428D01*
X117682904Y-112337142D01*
X117682904Y-112260952D01*
X117721000Y-112146666D01*
X117759095Y-112108571D01*
X118482904Y-111651428D02*
X118444809Y-111727619D01*
X118406714Y-111765714D01*
X118330523Y-111803809D01*
X118101952Y-111803809D01*
X118025761Y-111765714D01*
X117987666Y-111727619D01*
X117949571Y-111651428D01*
X117949571Y-111537142D01*
X117987666Y-111460952D01*
X118025761Y-111422857D01*
X118101952Y-111384761D01*
X118330523Y-111384761D01*
X118406714Y-111422857D01*
X118444809Y-111460952D01*
X118482904Y-111537142D01*
X118482904Y-111651428D01*
X117949571Y-111041904D02*
X118482904Y-111041904D01*
X118025761Y-111041904D02*
X117987666Y-111003809D01*
X117949571Y-110927619D01*
X117949571Y-110813333D01*
X117987666Y-110737142D01*
X118063857Y-110699047D01*
X118482904Y-110699047D01*
X117949571Y-110318095D02*
X118482904Y-110318095D01*
X118025761Y-110318095D02*
X117987666Y-110280000D01*
X117949571Y-110203809D01*
X117949571Y-110089523D01*
X117987666Y-110013333D01*
X118063857Y-109975238D01*
X118482904Y-109975238D01*
X118559095Y-109784761D02*
X118559095Y-109175238D01*
X117682904Y-108832380D02*
X117682904Y-108756190D01*
X117721000Y-108680000D01*
X117759095Y-108641904D01*
X117835285Y-108603809D01*
X117987666Y-108565714D01*
X118178142Y-108565714D01*
X118330523Y-108603809D01*
X118406714Y-108641904D01*
X118444809Y-108680000D01*
X118482904Y-108756190D01*
X118482904Y-108832380D01*
X118444809Y-108908571D01*
X118406714Y-108946666D01*
X118330523Y-108984761D01*
X118178142Y-109022857D01*
X117987666Y-109022857D01*
X117835285Y-108984761D01*
X117759095Y-108946666D01*
X117721000Y-108908571D01*
X117682904Y-108832380D01*
X118482904Y-107803809D02*
X118482904Y-108260952D01*
X118482904Y-108032380D02*
X117682904Y-108032380D01*
X117797190Y-108108571D01*
X117873380Y-108184761D01*
X117911476Y-108260952D01*
X118482904Y-107537142D02*
X117949571Y-107118095D01*
X117949571Y-107537142D02*
X118482904Y-107118095D01*
X117682904Y-106660952D02*
X117682904Y-106584761D01*
X117721000Y-106508571D01*
X117759095Y-106470476D01*
X117835285Y-106432380D01*
X117987666Y-106394285D01*
X118178142Y-106394285D01*
X118330523Y-106432380D01*
X118406714Y-106470476D01*
X118444809Y-106508571D01*
X118482904Y-106584761D01*
X118482904Y-106660952D01*
X118444809Y-106737142D01*
X118406714Y-106775238D01*
X118330523Y-106813333D01*
X118178142Y-106851428D01*
X117987666Y-106851428D01*
X117835285Y-106813333D01*
X117759095Y-106775238D01*
X117721000Y-106737142D01*
X117682904Y-106660952D01*
X117759095Y-106089523D02*
X117721000Y-106051428D01*
X117682904Y-105975238D01*
X117682904Y-105784761D01*
X117721000Y-105708571D01*
X117759095Y-105670476D01*
X117835285Y-105632380D01*
X117911476Y-105632380D01*
X118025761Y-105670476D01*
X118482904Y-106127619D01*
X118482904Y-105632380D01*
X118559095Y-105480000D02*
X118559095Y-104870476D01*
X118063857Y-104413333D02*
X118063857Y-104680000D01*
X118482904Y-104680000D02*
X117682904Y-104680000D01*
X117682904Y-104299047D01*
X118444809Y-103689523D02*
X118482904Y-103765714D01*
X118482904Y-103918095D01*
X118444809Y-103994285D01*
X118368619Y-104032380D01*
X118063857Y-104032380D01*
X117987666Y-103994285D01*
X117949571Y-103918095D01*
X117949571Y-103765714D01*
X117987666Y-103689523D01*
X118063857Y-103651428D01*
X118140047Y-103651428D01*
X118216238Y-104032380D01*
X118482904Y-103308571D02*
X117949571Y-103308571D01*
X118025761Y-103308571D02*
X117987666Y-103270476D01*
X117949571Y-103194285D01*
X117949571Y-103080000D01*
X117987666Y-103003809D01*
X118063857Y-102965714D01*
X118482904Y-102965714D01*
X118063857Y-102965714D02*
X117987666Y-102927619D01*
X117949571Y-102851428D01*
X117949571Y-102737142D01*
X117987666Y-102660952D01*
X118063857Y-102622857D01*
X118482904Y-102622857D01*
X118482904Y-101899047D02*
X118063857Y-101899047D01*
X117987666Y-101937142D01*
X117949571Y-102013333D01*
X117949571Y-102165714D01*
X117987666Y-102241904D01*
X118444809Y-101899047D02*
X118482904Y-101975238D01*
X118482904Y-102165714D01*
X118444809Y-102241904D01*
X118368619Y-102280000D01*
X118292428Y-102280000D01*
X118216238Y-102241904D01*
X118178142Y-102165714D01*
X118178142Y-101975238D01*
X118140047Y-101899047D01*
X118482904Y-101403809D02*
X118444809Y-101480000D01*
X118368619Y-101518095D01*
X117682904Y-101518095D01*
X118444809Y-100794285D02*
X118482904Y-100870476D01*
X118482904Y-101022857D01*
X118444809Y-101099047D01*
X118368619Y-101137142D01*
X118063857Y-101137142D01*
X117987666Y-101099047D01*
X117949571Y-101022857D01*
X117949571Y-100870476D01*
X117987666Y-100794285D01*
X118063857Y-100756190D01*
X118140047Y-100756190D01*
X118216238Y-101137142D01*
X115782904Y-106946666D02*
X116354333Y-106946666D01*
X116468619Y-106984761D01*
X116544809Y-107060952D01*
X116582904Y-107175238D01*
X116582904Y-107251428D01*
X116125761Y-106451428D02*
X116087666Y-106527619D01*
X116049571Y-106565714D01*
X115973380Y-106603809D01*
X115935285Y-106603809D01*
X115859095Y-106565714D01*
X115821000Y-106527619D01*
X115782904Y-106451428D01*
X115782904Y-106299047D01*
X115821000Y-106222857D01*
X115859095Y-106184761D01*
X115935285Y-106146666D01*
X115973380Y-106146666D01*
X116049571Y-106184761D01*
X116087666Y-106222857D01*
X116125761Y-106299047D01*
X116125761Y-106451428D01*
X116163857Y-106527619D01*
X116201952Y-106565714D01*
X116278142Y-106603809D01*
X116430523Y-106603809D01*
X116506714Y-106565714D01*
X116544809Y-106527619D01*
X116582904Y-106451428D01*
X116582904Y-106299047D01*
X116544809Y-106222857D01*
X116506714Y-106184761D01*
X116430523Y-106146666D01*
X116278142Y-106146666D01*
X116201952Y-106184761D01*
X116163857Y-106222857D01*
X116125761Y-106299047D01*
%TO.C,R20*%
X116871809Y-101359904D02*
X116414666Y-101359904D01*
X116643238Y-101359904D02*
X116643238Y-100559904D01*
X116567047Y-100674190D01*
X116490857Y-100750380D01*
X116414666Y-100788476D01*
X117367047Y-100559904D02*
X117443238Y-100559904D01*
X117519428Y-100598000D01*
X117557523Y-100636095D01*
X117595619Y-100712285D01*
X117633714Y-100864666D01*
X117633714Y-101055142D01*
X117595619Y-101207523D01*
X117557523Y-101283714D01*
X117519428Y-101321809D01*
X117443238Y-101359904D01*
X117367047Y-101359904D01*
X117290857Y-101321809D01*
X117252761Y-101283714D01*
X117214666Y-101207523D01*
X117176571Y-101055142D01*
X117176571Y-100864666D01*
X117214666Y-100712285D01*
X117252761Y-100636095D01*
X117290857Y-100598000D01*
X117367047Y-100559904D01*
X117976571Y-101359904D02*
X117976571Y-100559904D01*
X118052761Y-101055142D02*
X118281333Y-101359904D01*
X118281333Y-100826571D02*
X117976571Y-101131333D01*
D12*
X117090857Y-99748952D02*
X116957523Y-99558476D01*
X116862285Y-99748952D02*
X116862285Y-99348952D01*
X117014666Y-99348952D01*
X117052761Y-99368000D01*
X117071809Y-99387047D01*
X117090857Y-99425142D01*
X117090857Y-99482285D01*
X117071809Y-99520380D01*
X117052761Y-99539428D01*
X117014666Y-99558476D01*
X116862285Y-99558476D01*
X117243238Y-99387047D02*
X117262285Y-99368000D01*
X117300380Y-99348952D01*
X117395619Y-99348952D01*
X117433714Y-99368000D01*
X117452761Y-99387047D01*
X117471809Y-99425142D01*
X117471809Y-99463238D01*
X117452761Y-99520380D01*
X117224190Y-99748952D01*
X117471809Y-99748952D01*
X117719428Y-99348952D02*
X117757523Y-99348952D01*
X117795619Y-99368000D01*
X117814666Y-99387047D01*
X117833714Y-99425142D01*
X117852761Y-99501333D01*
X117852761Y-99596571D01*
X117833714Y-99672761D01*
X117814666Y-99710857D01*
X117795619Y-99729904D01*
X117757523Y-99748952D01*
X117719428Y-99748952D01*
X117681333Y-99729904D01*
X117662285Y-99710857D01*
X117643238Y-99672761D01*
X117624190Y-99596571D01*
X117624190Y-99501333D01*
X117643238Y-99425142D01*
X117662285Y-99387047D01*
X117681333Y-99368000D01*
X117719428Y-99348952D01*
D10*
%TO.C,C7*%
X141616666Y-102291904D02*
X141159523Y-102291904D01*
X141388095Y-102291904D02*
X141388095Y-101491904D01*
X141311904Y-101606190D01*
X141235714Y-101682380D01*
X141159523Y-101720476D01*
X142302380Y-101758571D02*
X142302380Y-102291904D01*
X141959523Y-101758571D02*
X141959523Y-102177619D01*
X141997619Y-102253809D01*
X142073809Y-102291904D01*
X142188095Y-102291904D01*
X142264285Y-102253809D01*
X142302380Y-102215714D01*
D12*
X141683333Y-100642857D02*
X141664285Y-100661904D01*
X141607142Y-100680952D01*
X141569047Y-100680952D01*
X141511904Y-100661904D01*
X141473809Y-100623809D01*
X141454761Y-100585714D01*
X141435714Y-100509523D01*
X141435714Y-100452380D01*
X141454761Y-100376190D01*
X141473809Y-100338095D01*
X141511904Y-100300000D01*
X141569047Y-100280952D01*
X141607142Y-100280952D01*
X141664285Y-100300000D01*
X141683333Y-100319047D01*
X141816666Y-100280952D02*
X142083333Y-100280952D01*
X141911904Y-100680952D01*
D10*
%TO.C,Q1*%
X132780952Y-98911904D02*
X133314285Y-98911904D01*
X132780952Y-99711904D01*
X133314285Y-99711904D01*
X133542857Y-98911904D02*
X134076190Y-99711904D01*
X134076190Y-98911904D02*
X133542857Y-99711904D01*
X134266666Y-98911904D02*
X134723809Y-98911904D01*
X134495238Y-99711904D02*
X134495238Y-98911904D01*
X134990476Y-99711904D02*
X134990476Y-98911904D01*
X135295238Y-98911904D01*
X135371428Y-98950000D01*
X135409523Y-98988095D01*
X135447619Y-99064285D01*
X135447619Y-99178571D01*
X135409523Y-99254761D01*
X135371428Y-99292857D01*
X135295238Y-99330952D01*
X134990476Y-99330952D01*
X135752380Y-98988095D02*
X135790476Y-98950000D01*
X135866666Y-98911904D01*
X136057142Y-98911904D01*
X136133333Y-98950000D01*
X136171428Y-98988095D01*
X136209523Y-99064285D01*
X136209523Y-99140476D01*
X136171428Y-99254761D01*
X135714285Y-99711904D01*
X136209523Y-99711904D01*
X136933333Y-98911904D02*
X136552380Y-98911904D01*
X136514285Y-99292857D01*
X136552380Y-99254761D01*
X136628571Y-99216666D01*
X136819047Y-99216666D01*
X136895238Y-99254761D01*
X136933333Y-99292857D01*
X136971428Y-99369047D01*
X136971428Y-99559523D01*
X136933333Y-99635714D01*
X136895238Y-99673809D01*
X136819047Y-99711904D01*
X136628571Y-99711904D01*
X136552380Y-99673809D01*
X136514285Y-99635714D01*
X137466666Y-98911904D02*
X137542857Y-98911904D01*
X137619047Y-98950000D01*
X137657142Y-98988095D01*
X137695238Y-99064285D01*
X137733333Y-99216666D01*
X137733333Y-99407142D01*
X137695238Y-99559523D01*
X137657142Y-99635714D01*
X137619047Y-99673809D01*
X137542857Y-99711904D01*
X137466666Y-99711904D01*
X137390476Y-99673809D01*
X137352380Y-99635714D01*
X137314285Y-99559523D01*
X137276190Y-99407142D01*
X137276190Y-99216666D01*
X137314285Y-99064285D01*
X137352380Y-98988095D01*
X137390476Y-98950000D01*
X137466666Y-98911904D01*
X138419047Y-99178571D02*
X138419047Y-99711904D01*
X138228571Y-98873809D02*
X138038095Y-99445238D01*
X138533333Y-99445238D01*
X138990476Y-98911904D02*
X139066666Y-98911904D01*
X139142857Y-98950000D01*
X139180952Y-98988095D01*
X139219047Y-99064285D01*
X139257142Y-99216666D01*
X139257142Y-99407142D01*
X139219047Y-99559523D01*
X139180952Y-99635714D01*
X139142857Y-99673809D01*
X139066666Y-99711904D01*
X138990476Y-99711904D01*
X138914285Y-99673809D01*
X138876190Y-99635714D01*
X138838095Y-99559523D01*
X138800000Y-99407142D01*
X138800000Y-99216666D01*
X138838095Y-99064285D01*
X138876190Y-98988095D01*
X138914285Y-98950000D01*
X138990476Y-98911904D01*
X139600000Y-99711904D02*
X139600000Y-98911904D01*
X139790476Y-98911904D01*
X139904761Y-98950000D01*
X139980952Y-99026190D01*
X140019047Y-99102380D01*
X140057142Y-99254761D01*
X140057142Y-99369047D01*
X140019047Y-99521428D01*
X139980952Y-99597619D01*
X139904761Y-99673809D01*
X139790476Y-99711904D01*
X139600000Y-99711904D01*
X140666666Y-99292857D02*
X140400000Y-99292857D01*
X140400000Y-99711904D02*
X140400000Y-98911904D01*
X140780952Y-98911904D01*
X141085714Y-99711904D02*
X141085714Y-98911904D01*
X141085714Y-99292857D02*
X141542857Y-99292857D01*
X141542857Y-99711904D02*
X141542857Y-98911904D01*
D13*
X137169523Y-101775238D02*
X137139047Y-101760000D01*
X137108571Y-101729523D01*
X137062857Y-101683809D01*
X137032380Y-101668571D01*
X137001904Y-101668571D01*
X137017142Y-101744761D02*
X136986666Y-101729523D01*
X136956190Y-101699047D01*
X136940952Y-101638095D01*
X136940952Y-101531428D01*
X136956190Y-101470476D01*
X136986666Y-101440000D01*
X137017142Y-101424761D01*
X137078095Y-101424761D01*
X137108571Y-101440000D01*
X137139047Y-101470476D01*
X137154285Y-101531428D01*
X137154285Y-101638095D01*
X137139047Y-101699047D01*
X137108571Y-101729523D01*
X137078095Y-101744761D01*
X137017142Y-101744761D01*
X137459047Y-101744761D02*
X137276190Y-101744761D01*
X137367619Y-101744761D02*
X137367619Y-101424761D01*
X137337142Y-101470476D01*
X137306666Y-101500952D01*
X137276190Y-101516190D01*
D10*
%TO.C,C18*%
X128870571Y-99396476D02*
X129403904Y-99396476D01*
X128565809Y-99586952D02*
X129137238Y-99777428D01*
X129137238Y-99282190D01*
X128603904Y-99053619D02*
X128603904Y-98520285D01*
X129403904Y-98863142D01*
X128870571Y-97872666D02*
X129403904Y-97872666D01*
X128870571Y-98215523D02*
X129289619Y-98215523D01*
X129365809Y-98177428D01*
X129403904Y-98101238D01*
X129403904Y-97986952D01*
X129365809Y-97910761D01*
X129327714Y-97872666D01*
X126777714Y-99320285D02*
X126815809Y-99358380D01*
X126853904Y-99472666D01*
X126853904Y-99548857D01*
X126815809Y-99663142D01*
X126739619Y-99739333D01*
X126663428Y-99777428D01*
X126511047Y-99815523D01*
X126396761Y-99815523D01*
X126244380Y-99777428D01*
X126168190Y-99739333D01*
X126092000Y-99663142D01*
X126053904Y-99548857D01*
X126053904Y-99472666D01*
X126092000Y-99358380D01*
X126130095Y-99320285D01*
X126853904Y-98558380D02*
X126853904Y-99015523D01*
X126853904Y-98786952D02*
X126053904Y-98786952D01*
X126168190Y-98863142D01*
X126244380Y-98939333D01*
X126282476Y-99015523D01*
X126396761Y-98101238D02*
X126358666Y-98177428D01*
X126320571Y-98215523D01*
X126244380Y-98253619D01*
X126206285Y-98253619D01*
X126130095Y-98215523D01*
X126092000Y-98177428D01*
X126053904Y-98101238D01*
X126053904Y-97948857D01*
X126092000Y-97872666D01*
X126130095Y-97834571D01*
X126206285Y-97796476D01*
X126244380Y-97796476D01*
X126320571Y-97834571D01*
X126358666Y-97872666D01*
X126396761Y-97948857D01*
X126396761Y-98101238D01*
X126434857Y-98177428D01*
X126472952Y-98215523D01*
X126549142Y-98253619D01*
X126701523Y-98253619D01*
X126777714Y-98215523D01*
X126815809Y-98177428D01*
X126853904Y-98101238D01*
X126853904Y-97948857D01*
X126815809Y-97872666D01*
X126777714Y-97834571D01*
X126701523Y-97796476D01*
X126549142Y-97796476D01*
X126472952Y-97834571D01*
X126434857Y-97872666D01*
X126396761Y-97948857D01*
%TO.C,R11*%
X134761904Y-100011904D02*
X134838095Y-100011904D01*
X134914285Y-100050000D01*
X134952380Y-100088095D01*
X134990476Y-100164285D01*
X135028571Y-100316666D01*
X135028571Y-100507142D01*
X134990476Y-100659523D01*
X134952380Y-100735714D01*
X134914285Y-100773809D01*
X134838095Y-100811904D01*
X134761904Y-100811904D01*
X134685714Y-100773809D01*
X134647619Y-100735714D01*
X134609523Y-100659523D01*
X134571428Y-100507142D01*
X134571428Y-100316666D01*
X134609523Y-100164285D01*
X134647619Y-100088095D01*
X134685714Y-100050000D01*
X134761904Y-100011904D01*
D11*
X134478571Y-99026190D02*
X134311904Y-98788095D01*
X134192857Y-99026190D02*
X134192857Y-98526190D01*
X134383333Y-98526190D01*
X134430952Y-98550000D01*
X134454761Y-98573809D01*
X134478571Y-98621428D01*
X134478571Y-98692857D01*
X134454761Y-98740476D01*
X134430952Y-98764285D01*
X134383333Y-98788095D01*
X134192857Y-98788095D01*
X134954761Y-99026190D02*
X134669047Y-99026190D01*
X134811904Y-99026190D02*
X134811904Y-98526190D01*
X134764285Y-98597619D01*
X134716666Y-98645238D01*
X134669047Y-98669047D01*
X135430952Y-99026190D02*
X135145238Y-99026190D01*
X135288095Y-99026190D02*
X135288095Y-98526190D01*
X135240476Y-98597619D01*
X135192857Y-98645238D01*
X135145238Y-98669047D01*
D10*
%TO.C,C10*%
X135248666Y-87897904D02*
X134791523Y-87897904D01*
X135020095Y-87897904D02*
X135020095Y-87097904D01*
X134943904Y-87212190D01*
X134867714Y-87288380D01*
X134791523Y-87326476D01*
X135934380Y-87364571D02*
X135934380Y-87897904D01*
X135591523Y-87364571D02*
X135591523Y-87783619D01*
X135629619Y-87859809D01*
X135705809Y-87897904D01*
X135820095Y-87897904D01*
X135896285Y-87859809D01*
X135934380Y-87821714D01*
D12*
X135124857Y-86248857D02*
X135105809Y-86267904D01*
X135048666Y-86286952D01*
X135010571Y-86286952D01*
X134953428Y-86267904D01*
X134915333Y-86229809D01*
X134896285Y-86191714D01*
X134877238Y-86115523D01*
X134877238Y-86058380D01*
X134896285Y-85982190D01*
X134915333Y-85944095D01*
X134953428Y-85906000D01*
X135010571Y-85886952D01*
X135048666Y-85886952D01*
X135105809Y-85906000D01*
X135124857Y-85925047D01*
X135505809Y-86286952D02*
X135277238Y-86286952D01*
X135391523Y-86286952D02*
X135391523Y-85886952D01*
X135353428Y-85944095D01*
X135315333Y-85982190D01*
X135277238Y-86001238D01*
X135753428Y-85886952D02*
X135791523Y-85886952D01*
X135829619Y-85906000D01*
X135848666Y-85925047D01*
X135867714Y-85963142D01*
X135886761Y-86039333D01*
X135886761Y-86134571D01*
X135867714Y-86210761D01*
X135848666Y-86248857D01*
X135829619Y-86267904D01*
X135791523Y-86286952D01*
X135753428Y-86286952D01*
X135715333Y-86267904D01*
X135696285Y-86248857D01*
X135677238Y-86210761D01*
X135658190Y-86134571D01*
X135658190Y-86039333D01*
X135677238Y-85963142D01*
X135696285Y-85925047D01*
X135715333Y-85906000D01*
X135753428Y-85886952D01*
D10*
%TO.C,R21*%
X124691904Y-101071428D02*
X124691904Y-100538095D01*
X125491904Y-100880952D01*
X125491904Y-100233333D02*
X124691904Y-100233333D01*
X125187142Y-100157142D02*
X125491904Y-99928571D01*
X124958571Y-99928571D02*
X125263333Y-100233333D01*
X124691904Y-99204761D02*
X124691904Y-99585714D01*
X125072857Y-99623809D01*
X125034761Y-99585714D01*
X124996666Y-99509523D01*
X124996666Y-99319047D01*
X125034761Y-99242857D01*
X125072857Y-99204761D01*
X125149047Y-99166666D01*
X125339523Y-99166666D01*
X125415714Y-99204761D01*
X125453809Y-99242857D01*
X125491904Y-99319047D01*
X125491904Y-99509523D01*
X125453809Y-99585714D01*
X125415714Y-99623809D01*
D12*
X123880952Y-100357142D02*
X123690476Y-100490476D01*
X123880952Y-100585714D02*
X123480952Y-100585714D01*
X123480952Y-100433333D01*
X123500000Y-100395238D01*
X123519047Y-100376190D01*
X123557142Y-100357142D01*
X123614285Y-100357142D01*
X123652380Y-100376190D01*
X123671428Y-100395238D01*
X123690476Y-100433333D01*
X123690476Y-100585714D01*
X123519047Y-100204761D02*
X123500000Y-100185714D01*
X123480952Y-100147619D01*
X123480952Y-100052380D01*
X123500000Y-100014285D01*
X123519047Y-99995238D01*
X123557142Y-99976190D01*
X123595238Y-99976190D01*
X123652380Y-99995238D01*
X123880952Y-100223809D01*
X123880952Y-99976190D01*
X123880952Y-99595238D02*
X123880952Y-99823809D01*
X123880952Y-99709523D02*
X123480952Y-99709523D01*
X123538095Y-99747619D01*
X123576190Y-99785714D01*
X123595238Y-99823809D01*
D10*
%TO.C,U2*%
X118007904Y-94956000D02*
X118198380Y-94956000D01*
X118122190Y-95146476D02*
X118198380Y-94956000D01*
X118122190Y-94765523D01*
X118350761Y-95070285D02*
X118198380Y-94956000D01*
X118350761Y-94841714D01*
%TO.C,C9*%
X134898571Y-106280952D02*
X135431904Y-106280952D01*
X134593809Y-106471428D02*
X135165238Y-106661904D01*
X135165238Y-106166666D01*
X135355714Y-105861904D02*
X135393809Y-105823809D01*
X135431904Y-105861904D01*
X135393809Y-105900000D01*
X135355714Y-105861904D01*
X135431904Y-105861904D01*
X134631904Y-105557142D02*
X134631904Y-105023809D01*
X135431904Y-105366666D01*
X134898571Y-104376190D02*
X135431904Y-104376190D01*
X134898571Y-104719047D02*
X135317619Y-104719047D01*
X135393809Y-104680952D01*
X135431904Y-104604761D01*
X135431904Y-104490476D01*
X135393809Y-104414285D01*
X135355714Y-104376190D01*
D12*
X136642857Y-105566666D02*
X136661904Y-105585714D01*
X136680952Y-105642857D01*
X136680952Y-105680952D01*
X136661904Y-105738095D01*
X136623809Y-105776190D01*
X136585714Y-105795238D01*
X136509523Y-105814285D01*
X136452380Y-105814285D01*
X136376190Y-105795238D01*
X136338095Y-105776190D01*
X136300000Y-105738095D01*
X136280952Y-105680952D01*
X136280952Y-105642857D01*
X136300000Y-105585714D01*
X136319047Y-105566666D01*
X136680952Y-105376190D02*
X136680952Y-105300000D01*
X136661904Y-105261904D01*
X136642857Y-105242857D01*
X136585714Y-105204761D01*
X136509523Y-105185714D01*
X136357142Y-105185714D01*
X136319047Y-105204761D01*
X136300000Y-105223809D01*
X136280952Y-105261904D01*
X136280952Y-105338095D01*
X136300000Y-105376190D01*
X136319047Y-105395238D01*
X136357142Y-105414285D01*
X136452380Y-105414285D01*
X136490476Y-105395238D01*
X136509523Y-105376190D01*
X136528571Y-105338095D01*
X136528571Y-105261904D01*
X136509523Y-105223809D01*
X136490476Y-105204761D01*
X136452380Y-105185714D01*
D10*
%TO.C,D2*%
X126025000Y-83453809D02*
X126139285Y-83491904D01*
X126329761Y-83491904D01*
X126405952Y-83453809D01*
X126444047Y-83415714D01*
X126482142Y-83339523D01*
X126482142Y-83263333D01*
X126444047Y-83187142D01*
X126405952Y-83149047D01*
X126329761Y-83110952D01*
X126177380Y-83072857D01*
X126101190Y-83034761D01*
X126063095Y-82996666D01*
X126025000Y-82920476D01*
X126025000Y-82844285D01*
X126063095Y-82768095D01*
X126101190Y-82730000D01*
X126177380Y-82691904D01*
X126367857Y-82691904D01*
X126482142Y-82730000D01*
X127091666Y-83072857D02*
X127205952Y-83110952D01*
X127244047Y-83149047D01*
X127282142Y-83225238D01*
X127282142Y-83339523D01*
X127244047Y-83415714D01*
X127205952Y-83453809D01*
X127129761Y-83491904D01*
X126825000Y-83491904D01*
X126825000Y-82691904D01*
X127091666Y-82691904D01*
X127167857Y-82730000D01*
X127205952Y-82768095D01*
X127244047Y-82844285D01*
X127244047Y-82920476D01*
X127205952Y-82996666D01*
X127167857Y-83034761D01*
X127091666Y-83072857D01*
X126825000Y-83072857D01*
X127586904Y-82768095D02*
X127625000Y-82730000D01*
X127701190Y-82691904D01*
X127891666Y-82691904D01*
X127967857Y-82730000D01*
X128005952Y-82768095D01*
X128044047Y-82844285D01*
X128044047Y-82920476D01*
X128005952Y-83034761D01*
X127548809Y-83491904D01*
X128044047Y-83491904D01*
X128539285Y-82691904D02*
X128615476Y-82691904D01*
X128691666Y-82730000D01*
X128729761Y-82768095D01*
X128767857Y-82844285D01*
X128805952Y-82996666D01*
X128805952Y-83187142D01*
X128767857Y-83339523D01*
X128729761Y-83415714D01*
X128691666Y-83453809D01*
X128615476Y-83491904D01*
X128539285Y-83491904D01*
X128463095Y-83453809D01*
X128425000Y-83415714D01*
X128386904Y-83339523D01*
X128348809Y-83187142D01*
X128348809Y-82996666D01*
X128386904Y-82844285D01*
X128425000Y-82768095D01*
X128463095Y-82730000D01*
X128539285Y-82691904D01*
X129491666Y-82691904D02*
X129339285Y-82691904D01*
X129263095Y-82730000D01*
X129225000Y-82768095D01*
X129148809Y-82882380D01*
X129110714Y-83034761D01*
X129110714Y-83339523D01*
X129148809Y-83415714D01*
X129186904Y-83453809D01*
X129263095Y-83491904D01*
X129415476Y-83491904D01*
X129491666Y-83453809D01*
X129529761Y-83415714D01*
X129567857Y-83339523D01*
X129567857Y-83149047D01*
X129529761Y-83072857D01*
X129491666Y-83034761D01*
X129415476Y-82996666D01*
X129263095Y-82996666D01*
X129186904Y-83034761D01*
X129148809Y-83072857D01*
X129110714Y-83149047D01*
X130063095Y-82691904D02*
X130139285Y-82691904D01*
X130215476Y-82730000D01*
X130253571Y-82768095D01*
X130291666Y-82844285D01*
X130329761Y-82996666D01*
X130329761Y-83187142D01*
X130291666Y-83339523D01*
X130253571Y-83415714D01*
X130215476Y-83453809D01*
X130139285Y-83491904D01*
X130063095Y-83491904D01*
X129986904Y-83453809D01*
X129948809Y-83415714D01*
X129910714Y-83339523D01*
X129872619Y-83187142D01*
X129872619Y-82996666D01*
X129910714Y-82844285D01*
X129948809Y-82768095D01*
X129986904Y-82730000D01*
X130063095Y-82691904D01*
X130558333Y-82691904D02*
X131015476Y-82691904D01*
X130786904Y-83491904D02*
X130786904Y-82691904D01*
X131244047Y-83263333D02*
X131625000Y-83263333D01*
X131167857Y-83491904D02*
X131434523Y-82691904D01*
X131701190Y-83491904D01*
X128234523Y-88431904D02*
X128234523Y-87631904D01*
X128425000Y-87631904D01*
X128539285Y-87670000D01*
X128615476Y-87746190D01*
X128653571Y-87822380D01*
X128691666Y-87974761D01*
X128691666Y-88089047D01*
X128653571Y-88241428D01*
X128615476Y-88317619D01*
X128539285Y-88393809D01*
X128425000Y-88431904D01*
X128234523Y-88431904D01*
X128996428Y-87708095D02*
X129034523Y-87670000D01*
X129110714Y-87631904D01*
X129301190Y-87631904D01*
X129377380Y-87670000D01*
X129415476Y-87708095D01*
X129453571Y-87784285D01*
X129453571Y-87860476D01*
X129415476Y-87974761D01*
X128958333Y-88431904D01*
X129453571Y-88431904D01*
X129555476Y-85061904D02*
X129555476Y-84261904D01*
X130012619Y-85061904D02*
X129669761Y-84604761D01*
X130012619Y-84261904D02*
X129555476Y-84719047D01*
%TO.C,C8*%
X137681904Y-106014285D02*
X137681904Y-106471428D01*
X137681904Y-106242857D02*
X136881904Y-106242857D01*
X136996190Y-106319047D01*
X137072380Y-106395238D01*
X137110476Y-106471428D01*
X136881904Y-105519047D02*
X136881904Y-105442857D01*
X136920000Y-105366666D01*
X136958095Y-105328571D01*
X137034285Y-105290476D01*
X137186666Y-105252380D01*
X137377142Y-105252380D01*
X137529523Y-105290476D01*
X137605714Y-105328571D01*
X137643809Y-105366666D01*
X137681904Y-105442857D01*
X137681904Y-105519047D01*
X137643809Y-105595238D01*
X137605714Y-105633333D01*
X137529523Y-105671428D01*
X137377142Y-105709523D01*
X137186666Y-105709523D01*
X137034285Y-105671428D01*
X136958095Y-105633333D01*
X136920000Y-105595238D01*
X136881904Y-105519047D01*
X137148571Y-104566666D02*
X137681904Y-104566666D01*
X137148571Y-104909523D02*
X137567619Y-104909523D01*
X137643809Y-104871428D01*
X137681904Y-104795238D01*
X137681904Y-104680952D01*
X137643809Y-104604761D01*
X137605714Y-104566666D01*
D12*
X138892857Y-105566666D02*
X138911904Y-105585714D01*
X138930952Y-105642857D01*
X138930952Y-105680952D01*
X138911904Y-105738095D01*
X138873809Y-105776190D01*
X138835714Y-105795238D01*
X138759523Y-105814285D01*
X138702380Y-105814285D01*
X138626190Y-105795238D01*
X138588095Y-105776190D01*
X138550000Y-105738095D01*
X138530952Y-105680952D01*
X138530952Y-105642857D01*
X138550000Y-105585714D01*
X138569047Y-105566666D01*
X138702380Y-105338095D02*
X138683333Y-105376190D01*
X138664285Y-105395238D01*
X138626190Y-105414285D01*
X138607142Y-105414285D01*
X138569047Y-105395238D01*
X138550000Y-105376190D01*
X138530952Y-105338095D01*
X138530952Y-105261904D01*
X138550000Y-105223809D01*
X138569047Y-105204761D01*
X138607142Y-105185714D01*
X138626190Y-105185714D01*
X138664285Y-105204761D01*
X138683333Y-105223809D01*
X138702380Y-105261904D01*
X138702380Y-105338095D01*
X138721428Y-105376190D01*
X138740476Y-105395238D01*
X138778571Y-105414285D01*
X138854761Y-105414285D01*
X138892857Y-105395238D01*
X138911904Y-105376190D01*
X138930952Y-105338095D01*
X138930952Y-105261904D01*
X138911904Y-105223809D01*
X138892857Y-105204761D01*
X138854761Y-105185714D01*
X138778571Y-105185714D01*
X138740476Y-105204761D01*
X138721428Y-105223809D01*
X138702380Y-105261904D01*
D10*
%TO.C,R9*%
X135019404Y-110595238D02*
X135019404Y-111052380D01*
X135019404Y-110823809D02*
X134219404Y-110823809D01*
X134333690Y-110900000D01*
X134409880Y-110976190D01*
X134447976Y-111052380D01*
X135019404Y-110252380D02*
X134219404Y-110252380D01*
X134714642Y-110176190D02*
X135019404Y-109947619D01*
X134486071Y-109947619D02*
X134790833Y-110252380D01*
D12*
X136268452Y-110566666D02*
X136077976Y-110700000D01*
X136268452Y-110795238D02*
X135868452Y-110795238D01*
X135868452Y-110642857D01*
X135887500Y-110604761D01*
X135906547Y-110585714D01*
X135944642Y-110566666D01*
X136001785Y-110566666D01*
X136039880Y-110585714D01*
X136058928Y-110604761D01*
X136077976Y-110642857D01*
X136077976Y-110795238D01*
X136268452Y-110376190D02*
X136268452Y-110300000D01*
X136249404Y-110261904D01*
X136230357Y-110242857D01*
X136173214Y-110204761D01*
X136097023Y-110185714D01*
X135944642Y-110185714D01*
X135906547Y-110204761D01*
X135887500Y-110223809D01*
X135868452Y-110261904D01*
X135868452Y-110338095D01*
X135887500Y-110376190D01*
X135906547Y-110395238D01*
X135944642Y-110414285D01*
X136039880Y-110414285D01*
X136077976Y-110395238D01*
X136097023Y-110376190D01*
X136116071Y-110338095D01*
X136116071Y-110261904D01*
X136097023Y-110223809D01*
X136077976Y-110204761D01*
X136039880Y-110185714D01*
D10*
%TO.C,R13*%
X133047619Y-104278571D02*
X133047619Y-104811904D01*
X132857142Y-103973809D02*
X132666666Y-104545238D01*
X133161904Y-104545238D01*
X133466666Y-104811904D02*
X133466666Y-104011904D01*
X133542857Y-104507142D02*
X133771428Y-104811904D01*
X133771428Y-104278571D02*
X133466666Y-104583333D01*
X134038095Y-104011904D02*
X134571428Y-104011904D01*
X134228571Y-104811904D01*
D11*
X133278571Y-103026190D02*
X133111904Y-102788095D01*
X132992857Y-103026190D02*
X132992857Y-102526190D01*
X133183333Y-102526190D01*
X133230952Y-102550000D01*
X133254761Y-102573809D01*
X133278571Y-102621428D01*
X133278571Y-102692857D01*
X133254761Y-102740476D01*
X133230952Y-102764285D01*
X133183333Y-102788095D01*
X132992857Y-102788095D01*
X133754761Y-103026190D02*
X133469047Y-103026190D01*
X133611904Y-103026190D02*
X133611904Y-102526190D01*
X133564285Y-102597619D01*
X133516666Y-102645238D01*
X133469047Y-102669047D01*
X133921428Y-102526190D02*
X134230952Y-102526190D01*
X134064285Y-102716666D01*
X134135714Y-102716666D01*
X134183333Y-102740476D01*
X134207142Y-102764285D01*
X134230952Y-102811904D01*
X134230952Y-102930952D01*
X134207142Y-102978571D01*
X134183333Y-103002380D01*
X134135714Y-103026190D01*
X133992857Y-103026190D01*
X133945238Y-103002380D01*
X133921428Y-102978571D01*
D10*
%TO.C,C3*%
X141616666Y-111791904D02*
X141159523Y-111791904D01*
X141388095Y-111791904D02*
X141388095Y-110991904D01*
X141311904Y-111106190D01*
X141235714Y-111182380D01*
X141159523Y-111220476D01*
X142302380Y-111258571D02*
X142302380Y-111791904D01*
X141959523Y-111258571D02*
X141959523Y-111677619D01*
X141997619Y-111753809D01*
X142073809Y-111791904D01*
X142188095Y-111791904D01*
X142264285Y-111753809D01*
X142302380Y-111715714D01*
D12*
X141683333Y-110142857D02*
X141664285Y-110161904D01*
X141607142Y-110180952D01*
X141569047Y-110180952D01*
X141511904Y-110161904D01*
X141473809Y-110123809D01*
X141454761Y-110085714D01*
X141435714Y-110009523D01*
X141435714Y-109952380D01*
X141454761Y-109876190D01*
X141473809Y-109838095D01*
X141511904Y-109800000D01*
X141569047Y-109780952D01*
X141607142Y-109780952D01*
X141664285Y-109800000D01*
X141683333Y-109819047D01*
X141816666Y-109780952D02*
X142064285Y-109780952D01*
X141930952Y-109933333D01*
X141988095Y-109933333D01*
X142026190Y-109952380D01*
X142045238Y-109971428D01*
X142064285Y-110009523D01*
X142064285Y-110104761D01*
X142045238Y-110142857D01*
X142026190Y-110161904D01*
X141988095Y-110180952D01*
X141873809Y-110180952D01*
X141835714Y-110161904D01*
X141816666Y-110142857D01*
D10*
%TO.C,TH1*%
X127511904Y-108876190D02*
X127511904Y-109333333D01*
X127511904Y-109104761D02*
X126711904Y-109104761D01*
X126826190Y-109180952D01*
X126902380Y-109257142D01*
X126940476Y-109333333D01*
X126711904Y-108380952D02*
X126711904Y-108304761D01*
X126750000Y-108228571D01*
X126788095Y-108190476D01*
X126864285Y-108152380D01*
X127016666Y-108114285D01*
X127207142Y-108114285D01*
X127359523Y-108152380D01*
X127435714Y-108190476D01*
X127473809Y-108228571D01*
X127511904Y-108304761D01*
X127511904Y-108380952D01*
X127473809Y-108457142D01*
X127435714Y-108495238D01*
X127359523Y-108533333D01*
X127207142Y-108571428D01*
X127016666Y-108571428D01*
X126864285Y-108533333D01*
X126788095Y-108495238D01*
X126750000Y-108457142D01*
X126711904Y-108380952D01*
X127511904Y-107771428D02*
X126711904Y-107771428D01*
X127207142Y-107695238D02*
X127511904Y-107466666D01*
X126978571Y-107466666D02*
X127283333Y-107771428D01*
D11*
X128526190Y-109042857D02*
X128526190Y-108757142D01*
X129026190Y-108900000D02*
X128526190Y-108900000D01*
X129026190Y-108590476D02*
X128526190Y-108590476D01*
X128764285Y-108590476D02*
X128764285Y-108304761D01*
X129026190Y-108304761D02*
X128526190Y-108304761D01*
X129026190Y-107804761D02*
X129026190Y-108090476D01*
X129026190Y-107947619D02*
X128526190Y-107947619D01*
X128597619Y-107995238D01*
X128645238Y-108042857D01*
X128669047Y-108090476D01*
D10*
%TO.C,C5*%
X141616666Y-106791904D02*
X141159523Y-106791904D01*
X141388095Y-106791904D02*
X141388095Y-105991904D01*
X141311904Y-106106190D01*
X141235714Y-106182380D01*
X141159523Y-106220476D01*
X142302380Y-106258571D02*
X142302380Y-106791904D01*
X141959523Y-106258571D02*
X141959523Y-106677619D01*
X141997619Y-106753809D01*
X142073809Y-106791904D01*
X142188095Y-106791904D01*
X142264285Y-106753809D01*
X142302380Y-106715714D01*
D12*
X141683333Y-105142857D02*
X141664285Y-105161904D01*
X141607142Y-105180952D01*
X141569047Y-105180952D01*
X141511904Y-105161904D01*
X141473809Y-105123809D01*
X141454761Y-105085714D01*
X141435714Y-105009523D01*
X141435714Y-104952380D01*
X141454761Y-104876190D01*
X141473809Y-104838095D01*
X141511904Y-104800000D01*
X141569047Y-104780952D01*
X141607142Y-104780952D01*
X141664285Y-104800000D01*
X141683333Y-104819047D01*
X142045238Y-104780952D02*
X141854761Y-104780952D01*
X141835714Y-104971428D01*
X141854761Y-104952380D01*
X141892857Y-104933333D01*
X141988095Y-104933333D01*
X142026190Y-104952380D01*
X142045238Y-104971428D01*
X142064285Y-105009523D01*
X142064285Y-105104761D01*
X142045238Y-105142857D01*
X142026190Y-105161904D01*
X141988095Y-105180952D01*
X141892857Y-105180952D01*
X141854761Y-105161904D01*
X141835714Y-105142857D01*
D10*
%TO.C,C4*%
X141616666Y-109291904D02*
X141159523Y-109291904D01*
X141388095Y-109291904D02*
X141388095Y-108491904D01*
X141311904Y-108606190D01*
X141235714Y-108682380D01*
X141159523Y-108720476D01*
X142302380Y-108758571D02*
X142302380Y-109291904D01*
X141959523Y-108758571D02*
X141959523Y-109177619D01*
X141997619Y-109253809D01*
X142073809Y-109291904D01*
X142188095Y-109291904D01*
X142264285Y-109253809D01*
X142302380Y-109215714D01*
D12*
X141683333Y-107642857D02*
X141664285Y-107661904D01*
X141607142Y-107680952D01*
X141569047Y-107680952D01*
X141511904Y-107661904D01*
X141473809Y-107623809D01*
X141454761Y-107585714D01*
X141435714Y-107509523D01*
X141435714Y-107452380D01*
X141454761Y-107376190D01*
X141473809Y-107338095D01*
X141511904Y-107300000D01*
X141569047Y-107280952D01*
X141607142Y-107280952D01*
X141664285Y-107300000D01*
X141683333Y-107319047D01*
X142026190Y-107414285D02*
X142026190Y-107680952D01*
X141930952Y-107261904D02*
X141835714Y-107547619D01*
X142083333Y-107547619D01*
D10*
%TO.C,R15*%
X133047619Y-102278571D02*
X133047619Y-102811904D01*
X132857142Y-101973809D02*
X132666666Y-102545238D01*
X133161904Y-102545238D01*
X133466666Y-102811904D02*
X133466666Y-102011904D01*
X133542857Y-102507142D02*
X133771428Y-102811904D01*
X133771428Y-102278571D02*
X133466666Y-102583333D01*
X134038095Y-102011904D02*
X134571428Y-102011904D01*
X134228571Y-102811904D01*
D11*
X133278571Y-101026190D02*
X133111904Y-100788095D01*
X132992857Y-101026190D02*
X132992857Y-100526190D01*
X133183333Y-100526190D01*
X133230952Y-100550000D01*
X133254761Y-100573809D01*
X133278571Y-100621428D01*
X133278571Y-100692857D01*
X133254761Y-100740476D01*
X133230952Y-100764285D01*
X133183333Y-100788095D01*
X132992857Y-100788095D01*
X133754761Y-101026190D02*
X133469047Y-101026190D01*
X133611904Y-101026190D02*
X133611904Y-100526190D01*
X133564285Y-100597619D01*
X133516666Y-100645238D01*
X133469047Y-100669047D01*
X134207142Y-100526190D02*
X133969047Y-100526190D01*
X133945238Y-100764285D01*
X133969047Y-100740476D01*
X134016666Y-100716666D01*
X134135714Y-100716666D01*
X134183333Y-100740476D01*
X134207142Y-100764285D01*
X134230952Y-100811904D01*
X134230952Y-100930952D01*
X134207142Y-100978571D01*
X134183333Y-101002380D01*
X134135714Y-101026190D01*
X134016666Y-101026190D01*
X133969047Y-101002380D01*
X133945238Y-100978571D01*
D10*
%TO.C,J9*%
X117421428Y-110960714D02*
X117383333Y-110998809D01*
X117269047Y-111036904D01*
X117192857Y-111036904D01*
X117078571Y-110998809D01*
X117002380Y-110922619D01*
X116964285Y-110846428D01*
X116926190Y-110694047D01*
X116926190Y-110579761D01*
X116964285Y-110427380D01*
X117002380Y-110351190D01*
X117078571Y-110275000D01*
X117192857Y-110236904D01*
X117269047Y-110236904D01*
X117383333Y-110275000D01*
X117421428Y-110313095D01*
X117878571Y-111036904D02*
X117802380Y-110998809D01*
X117764285Y-110960714D01*
X117726190Y-110884523D01*
X117726190Y-110655952D01*
X117764285Y-110579761D01*
X117802380Y-110541666D01*
X117878571Y-110503571D01*
X117992857Y-110503571D01*
X118069047Y-110541666D01*
X118107142Y-110579761D01*
X118145238Y-110655952D01*
X118145238Y-110884523D01*
X118107142Y-110960714D01*
X118069047Y-110998809D01*
X117992857Y-111036904D01*
X117878571Y-111036904D01*
X118488095Y-110503571D02*
X118488095Y-111036904D01*
X118488095Y-110579761D02*
X118526190Y-110541666D01*
X118602380Y-110503571D01*
X118716666Y-110503571D01*
X118792857Y-110541666D01*
X118830952Y-110617857D01*
X118830952Y-111036904D01*
X119211904Y-110503571D02*
X119211904Y-111036904D01*
X119211904Y-110579761D02*
X119250000Y-110541666D01*
X119326190Y-110503571D01*
X119440476Y-110503571D01*
X119516666Y-110541666D01*
X119554761Y-110617857D01*
X119554761Y-111036904D01*
X119745238Y-111113095D02*
X120354761Y-111113095D01*
X120697619Y-110236904D02*
X120773809Y-110236904D01*
X120850000Y-110275000D01*
X120888095Y-110313095D01*
X120926190Y-110389285D01*
X120964285Y-110541666D01*
X120964285Y-110732142D01*
X120926190Y-110884523D01*
X120888095Y-110960714D01*
X120850000Y-110998809D01*
X120773809Y-111036904D01*
X120697619Y-111036904D01*
X120621428Y-110998809D01*
X120583333Y-110960714D01*
X120545238Y-110884523D01*
X120507142Y-110732142D01*
X120507142Y-110541666D01*
X120545238Y-110389285D01*
X120583333Y-110313095D01*
X120621428Y-110275000D01*
X120697619Y-110236904D01*
X121726190Y-111036904D02*
X121269047Y-111036904D01*
X121497619Y-111036904D02*
X121497619Y-110236904D01*
X121421428Y-110351190D01*
X121345238Y-110427380D01*
X121269047Y-110465476D01*
X121992857Y-111036904D02*
X122411904Y-110503571D01*
X121992857Y-110503571D02*
X122411904Y-111036904D01*
X122869047Y-110236904D02*
X122945238Y-110236904D01*
X123021428Y-110275000D01*
X123059523Y-110313095D01*
X123097619Y-110389285D01*
X123135714Y-110541666D01*
X123135714Y-110732142D01*
X123097619Y-110884523D01*
X123059523Y-110960714D01*
X123021428Y-110998809D01*
X122945238Y-111036904D01*
X122869047Y-111036904D01*
X122792857Y-110998809D01*
X122754761Y-110960714D01*
X122716666Y-110884523D01*
X122678571Y-110732142D01*
X122678571Y-110541666D01*
X122716666Y-110389285D01*
X122754761Y-110313095D01*
X122792857Y-110275000D01*
X122869047Y-110236904D01*
X123440476Y-110313095D02*
X123478571Y-110275000D01*
X123554761Y-110236904D01*
X123745238Y-110236904D01*
X123821428Y-110275000D01*
X123859523Y-110313095D01*
X123897619Y-110389285D01*
X123897619Y-110465476D01*
X123859523Y-110579761D01*
X123402380Y-111036904D01*
X123897619Y-111036904D01*
X124050000Y-111113095D02*
X124659523Y-111113095D01*
X125116666Y-110617857D02*
X124850000Y-110617857D01*
X124850000Y-111036904D02*
X124850000Y-110236904D01*
X125230952Y-110236904D01*
X125840476Y-110998809D02*
X125764285Y-111036904D01*
X125611904Y-111036904D01*
X125535714Y-110998809D01*
X125497619Y-110922619D01*
X125497619Y-110617857D01*
X125535714Y-110541666D01*
X125611904Y-110503571D01*
X125764285Y-110503571D01*
X125840476Y-110541666D01*
X125878571Y-110617857D01*
X125878571Y-110694047D01*
X125497619Y-110770238D01*
X126221428Y-111036904D02*
X126221428Y-110503571D01*
X126221428Y-110579761D02*
X126259523Y-110541666D01*
X126335714Y-110503571D01*
X126450000Y-110503571D01*
X126526190Y-110541666D01*
X126564285Y-110617857D01*
X126564285Y-111036904D01*
X126564285Y-110617857D02*
X126602380Y-110541666D01*
X126678571Y-110503571D01*
X126792857Y-110503571D01*
X126869047Y-110541666D01*
X126907142Y-110617857D01*
X126907142Y-111036904D01*
X127630952Y-111036904D02*
X127630952Y-110617857D01*
X127592857Y-110541666D01*
X127516666Y-110503571D01*
X127364285Y-110503571D01*
X127288095Y-110541666D01*
X127630952Y-110998809D02*
X127554761Y-111036904D01*
X127364285Y-111036904D01*
X127288095Y-110998809D01*
X127250000Y-110922619D01*
X127250000Y-110846428D01*
X127288095Y-110770238D01*
X127364285Y-110732142D01*
X127554761Y-110732142D01*
X127630952Y-110694047D01*
X128126190Y-111036904D02*
X128050000Y-110998809D01*
X128011904Y-110922619D01*
X128011904Y-110236904D01*
X128735714Y-110998809D02*
X128659523Y-111036904D01*
X128507142Y-111036904D01*
X128430952Y-110998809D01*
X128392857Y-110922619D01*
X128392857Y-110617857D01*
X128430952Y-110541666D01*
X128507142Y-110503571D01*
X128659523Y-110503571D01*
X128735714Y-110541666D01*
X128773809Y-110617857D01*
X128773809Y-110694047D01*
X128392857Y-110770238D01*
X122583333Y-112136904D02*
X122583333Y-112708333D01*
X122545238Y-112822619D01*
X122469047Y-112898809D01*
X122354761Y-112936904D01*
X122278571Y-112936904D01*
X123002380Y-112936904D02*
X123154761Y-112936904D01*
X123230952Y-112898809D01*
X123269047Y-112860714D01*
X123345238Y-112746428D01*
X123383333Y-112594047D01*
X123383333Y-112289285D01*
X123345238Y-112213095D01*
X123307142Y-112175000D01*
X123230952Y-112136904D01*
X123078571Y-112136904D01*
X123002380Y-112175000D01*
X122964285Y-112213095D01*
X122926190Y-112289285D01*
X122926190Y-112479761D01*
X122964285Y-112555952D01*
X123002380Y-112594047D01*
X123078571Y-112632142D01*
X123230952Y-112632142D01*
X123307142Y-112594047D01*
X123345238Y-112555952D01*
X123383333Y-112479761D01*
%TO.C,D4*%
X115996476Y-89876857D02*
X116110761Y-89914952D01*
X116148857Y-89953047D01*
X116186952Y-90029238D01*
X116186952Y-90143523D01*
X116148857Y-90219714D01*
X116110761Y-90257809D01*
X116034571Y-90295904D01*
X115729809Y-90295904D01*
X115729809Y-89495904D01*
X115996476Y-89495904D01*
X116072666Y-89534000D01*
X116110761Y-89572095D01*
X116148857Y-89648285D01*
X116148857Y-89724476D01*
X116110761Y-89800666D01*
X116072666Y-89838761D01*
X115996476Y-89876857D01*
X115729809Y-89876857D01*
X116491714Y-90067333D02*
X116872666Y-90067333D01*
X116415523Y-90295904D02*
X116682190Y-89495904D01*
X116948857Y-90295904D01*
X117101238Y-89495904D02*
X117558380Y-89495904D01*
X117329809Y-90295904D02*
X117329809Y-89495904D01*
X118206000Y-89495904D02*
X117825047Y-89495904D01*
X117786952Y-89876857D01*
X117825047Y-89838761D01*
X117901238Y-89800666D01*
X118091714Y-89800666D01*
X118167904Y-89838761D01*
X118206000Y-89876857D01*
X118244095Y-89953047D01*
X118244095Y-90143523D01*
X118206000Y-90219714D01*
X118167904Y-90257809D01*
X118091714Y-90295904D01*
X117901238Y-90295904D01*
X117825047Y-90257809D01*
X117786952Y-90219714D01*
X118929809Y-89762571D02*
X118929809Y-90295904D01*
X118739333Y-89457809D02*
X118548857Y-90029238D01*
X119044095Y-90029238D01*
X119272666Y-89495904D02*
X119463142Y-90295904D01*
X119615523Y-89724476D01*
X119767904Y-90295904D01*
X119958380Y-89495904D01*
D14*
X118082190Y-88253047D02*
X117582190Y-88253047D01*
X117582190Y-88134000D01*
X117606000Y-88062571D01*
X117653619Y-88014952D01*
X117701238Y-87991142D01*
X117796476Y-87967333D01*
X117867904Y-87967333D01*
X117963142Y-87991142D01*
X118010761Y-88014952D01*
X118058380Y-88062571D01*
X118082190Y-88134000D01*
X118082190Y-88253047D01*
X117748857Y-87538761D02*
X118082190Y-87538761D01*
X117558380Y-87657809D02*
X117915523Y-87776857D01*
X117915523Y-87467333D01*
D10*
%TO.C,R19*%
X125235904Y-87344190D02*
X125235904Y-87801333D01*
X125235904Y-87572761D02*
X124435904Y-87572761D01*
X124550190Y-87648952D01*
X124626380Y-87725142D01*
X124664476Y-87801333D01*
X124435904Y-86848952D02*
X124435904Y-86772761D01*
X124474000Y-86696571D01*
X124512095Y-86658476D01*
X124588285Y-86620380D01*
X124740666Y-86582285D01*
X124931142Y-86582285D01*
X125083523Y-86620380D01*
X125159714Y-86658476D01*
X125197809Y-86696571D01*
X125235904Y-86772761D01*
X125235904Y-86848952D01*
X125197809Y-86925142D01*
X125159714Y-86963238D01*
X125083523Y-87001333D01*
X124931142Y-87039428D01*
X124740666Y-87039428D01*
X124588285Y-87001333D01*
X124512095Y-86963238D01*
X124474000Y-86925142D01*
X124435904Y-86848952D01*
X125235904Y-86239428D02*
X124435904Y-86239428D01*
X124931142Y-86163238D02*
X125235904Y-85934666D01*
X124702571Y-85934666D02*
X125007333Y-86239428D01*
D12*
X123624952Y-87125142D02*
X123434476Y-87258476D01*
X123624952Y-87353714D02*
X123224952Y-87353714D01*
X123224952Y-87201333D01*
X123244000Y-87163238D01*
X123263047Y-87144190D01*
X123301142Y-87125142D01*
X123358285Y-87125142D01*
X123396380Y-87144190D01*
X123415428Y-87163238D01*
X123434476Y-87201333D01*
X123434476Y-87353714D01*
X123624952Y-86744190D02*
X123624952Y-86972761D01*
X123624952Y-86858476D02*
X123224952Y-86858476D01*
X123282095Y-86896571D01*
X123320190Y-86934666D01*
X123339238Y-86972761D01*
X123624952Y-86553714D02*
X123624952Y-86477523D01*
X123605904Y-86439428D01*
X123586857Y-86420380D01*
X123529714Y-86382285D01*
X123453523Y-86363238D01*
X123301142Y-86363238D01*
X123263047Y-86382285D01*
X123244000Y-86401333D01*
X123224952Y-86439428D01*
X123224952Y-86515619D01*
X123244000Y-86553714D01*
X123263047Y-86572761D01*
X123301142Y-86591809D01*
X123396380Y-86591809D01*
X123434476Y-86572761D01*
X123453523Y-86553714D01*
X123472571Y-86515619D01*
X123472571Y-86439428D01*
X123453523Y-86401333D01*
X123434476Y-86382285D01*
X123396380Y-86363238D01*
D10*
%TO.C,R17*%
X142086904Y-88836904D02*
X142163095Y-88836904D01*
X142239285Y-88875000D01*
X142277380Y-88913095D01*
X142315476Y-88989285D01*
X142353571Y-89141666D01*
X142353571Y-89332142D01*
X142315476Y-89484523D01*
X142277380Y-89560714D01*
X142239285Y-89598809D01*
X142163095Y-89636904D01*
X142086904Y-89636904D01*
X142010714Y-89598809D01*
X141972619Y-89560714D01*
X141934523Y-89484523D01*
X141896428Y-89332142D01*
X141896428Y-89141666D01*
X141934523Y-88989285D01*
X141972619Y-88913095D01*
X142010714Y-88875000D01*
X142086904Y-88836904D01*
D11*
X141803571Y-91151190D02*
X141636904Y-90913095D01*
X141517857Y-91151190D02*
X141517857Y-90651190D01*
X141708333Y-90651190D01*
X141755952Y-90675000D01*
X141779761Y-90698809D01*
X141803571Y-90746428D01*
X141803571Y-90817857D01*
X141779761Y-90865476D01*
X141755952Y-90889285D01*
X141708333Y-90913095D01*
X141517857Y-90913095D01*
X142279761Y-91151190D02*
X141994047Y-91151190D01*
X142136904Y-91151190D02*
X142136904Y-90651190D01*
X142089285Y-90722619D01*
X142041666Y-90770238D01*
X141994047Y-90794047D01*
X142446428Y-90651190D02*
X142779761Y-90651190D01*
X142565476Y-91151190D01*
D10*
%TO.C,J2*%
X143314478Y-112127502D02*
X143352573Y-112165597D01*
X143390668Y-112279883D01*
X143390668Y-112356074D01*
X143352573Y-112470359D01*
X143276383Y-112546550D01*
X143200192Y-112584645D01*
X143047811Y-112622740D01*
X142933525Y-112622740D01*
X142781144Y-112584645D01*
X142704954Y-112546550D01*
X142628764Y-112470359D01*
X142590668Y-112356074D01*
X142590668Y-112279883D01*
X142628764Y-112165597D01*
X142666859Y-112127502D01*
X143390668Y-111670359D02*
X143352573Y-111746550D01*
X143314478Y-111784645D01*
X143238287Y-111822740D01*
X143009716Y-111822740D01*
X142933525Y-111784645D01*
X142895430Y-111746550D01*
X142857335Y-111670359D01*
X142857335Y-111556074D01*
X142895430Y-111479883D01*
X142933525Y-111441788D01*
X143009716Y-111403693D01*
X143238287Y-111403693D01*
X143314478Y-111441788D01*
X143352573Y-111479883D01*
X143390668Y-111556074D01*
X143390668Y-111670359D01*
X142857335Y-111060836D02*
X143390668Y-111060836D01*
X142933525Y-111060836D02*
X142895430Y-111022740D01*
X142857335Y-110946550D01*
X142857335Y-110832264D01*
X142895430Y-110756074D01*
X142971621Y-110717978D01*
X143390668Y-110717978D01*
X142857335Y-110337026D02*
X143390668Y-110337026D01*
X142933525Y-110337026D02*
X142895430Y-110298931D01*
X142857335Y-110222740D01*
X142857335Y-110108455D01*
X142895430Y-110032264D01*
X142971621Y-109994169D01*
X143390668Y-109994169D01*
X143466859Y-109803693D02*
X143466859Y-109194169D01*
X142590668Y-108851312D02*
X142590668Y-108775121D01*
X142628764Y-108698931D01*
X142666859Y-108660836D01*
X142743049Y-108622740D01*
X142895430Y-108584645D01*
X143085906Y-108584645D01*
X143238287Y-108622740D01*
X143314478Y-108660836D01*
X143352573Y-108698931D01*
X143390668Y-108775121D01*
X143390668Y-108851312D01*
X143352573Y-108927502D01*
X143314478Y-108965597D01*
X143238287Y-109003693D01*
X143085906Y-109041788D01*
X142895430Y-109041788D01*
X142743049Y-109003693D01*
X142666859Y-108965597D01*
X142628764Y-108927502D01*
X142590668Y-108851312D01*
X143390668Y-107822740D02*
X143390668Y-108279883D01*
X143390668Y-108051312D02*
X142590668Y-108051312D01*
X142704954Y-108127502D01*
X142781144Y-108203693D01*
X142819240Y-108279883D01*
X143390668Y-107556074D02*
X142857335Y-107137026D01*
X142857335Y-107556074D02*
X143390668Y-107137026D01*
X142590668Y-106679883D02*
X142590668Y-106603693D01*
X142628764Y-106527502D01*
X142666859Y-106489407D01*
X142743049Y-106451312D01*
X142895430Y-106413216D01*
X143085906Y-106413216D01*
X143238287Y-106451312D01*
X143314478Y-106489407D01*
X143352573Y-106527502D01*
X143390668Y-106603693D01*
X143390668Y-106679883D01*
X143352573Y-106756074D01*
X143314478Y-106794169D01*
X143238287Y-106832264D01*
X143085906Y-106870359D01*
X142895430Y-106870359D01*
X142743049Y-106832264D01*
X142666859Y-106794169D01*
X142628764Y-106756074D01*
X142590668Y-106679883D01*
X142590668Y-106146550D02*
X142590668Y-105613216D01*
X143390668Y-105956074D01*
X143466859Y-105498931D02*
X143466859Y-104889407D01*
X143390668Y-104698931D02*
X142590668Y-104698931D01*
X143162097Y-104432264D01*
X142590668Y-104165597D01*
X143390668Y-104165597D01*
X143390668Y-103441788D02*
X142971621Y-103441788D01*
X142895430Y-103479883D01*
X142857335Y-103556074D01*
X142857335Y-103708455D01*
X142895430Y-103784645D01*
X143352573Y-103441788D02*
X143390668Y-103517978D01*
X143390668Y-103708455D01*
X143352573Y-103784645D01*
X143276383Y-103822740D01*
X143200192Y-103822740D01*
X143124002Y-103784645D01*
X143085906Y-103708455D01*
X143085906Y-103517978D01*
X143047811Y-103441788D01*
X143390668Y-102946550D02*
X143352573Y-103022740D01*
X143276383Y-103060836D01*
X142590668Y-103060836D01*
X143352573Y-102337026D02*
X143390668Y-102413216D01*
X143390668Y-102565597D01*
X143352573Y-102641788D01*
X143276383Y-102679883D01*
X142971621Y-102679883D01*
X142895430Y-102641788D01*
X142857335Y-102565597D01*
X142857335Y-102413216D01*
X142895430Y-102337026D01*
X142971621Y-102298931D01*
X143047811Y-102298931D01*
X143124002Y-102679883D01*
X144490668Y-107727502D02*
X145062097Y-107727502D01*
X145176383Y-107765597D01*
X145252573Y-107841788D01*
X145290668Y-107956074D01*
X145290668Y-108032264D01*
X144566859Y-107384645D02*
X144528764Y-107346550D01*
X144490668Y-107270359D01*
X144490668Y-107079883D01*
X144528764Y-107003693D01*
X144566859Y-106965597D01*
X144643049Y-106927502D01*
X144719240Y-106927502D01*
X144833525Y-106965597D01*
X145290668Y-107422740D01*
X145290668Y-106927502D01*
%TO.C,H3*%
X124794821Y-119081140D02*
X124794821Y-118281140D01*
X125061487Y-118852569D01*
X125328154Y-118281140D01*
X125328154Y-119081140D01*
X125823392Y-119081140D02*
X125747202Y-119043045D01*
X125709106Y-119004950D01*
X125671011Y-118928759D01*
X125671011Y-118700188D01*
X125709106Y-118623997D01*
X125747202Y-118585902D01*
X125823392Y-118547807D01*
X125937678Y-118547807D01*
X126013868Y-118585902D01*
X126051964Y-118623997D01*
X126090059Y-118700188D01*
X126090059Y-118928759D01*
X126051964Y-119004950D01*
X126013868Y-119043045D01*
X125937678Y-119081140D01*
X125823392Y-119081140D01*
X126775773Y-118547807D02*
X126775773Y-119081140D01*
X126432916Y-118547807D02*
X126432916Y-118966855D01*
X126471011Y-119043045D01*
X126547202Y-119081140D01*
X126661487Y-119081140D01*
X126737678Y-119043045D01*
X126775773Y-119004950D01*
X127156725Y-118547807D02*
X127156725Y-119081140D01*
X127156725Y-118623997D02*
X127194821Y-118585902D01*
X127271011Y-118547807D01*
X127385297Y-118547807D01*
X127461487Y-118585902D01*
X127499583Y-118662093D01*
X127499583Y-119081140D01*
X127766249Y-118547807D02*
X128071011Y-118547807D01*
X127880535Y-118281140D02*
X127880535Y-118966855D01*
X127918630Y-119043045D01*
X127994821Y-119081140D01*
X128071011Y-119081140D01*
X128337678Y-119081140D02*
X128337678Y-118547807D01*
X128337678Y-118281140D02*
X128299583Y-118319236D01*
X128337678Y-118357331D01*
X128375773Y-118319236D01*
X128337678Y-118281140D01*
X128337678Y-118357331D01*
X128718630Y-118547807D02*
X128718630Y-119081140D01*
X128718630Y-118623997D02*
X128756725Y-118585902D01*
X128832916Y-118547807D01*
X128947202Y-118547807D01*
X129023392Y-118585902D01*
X129061487Y-118662093D01*
X129061487Y-119081140D01*
X129785297Y-118547807D02*
X129785297Y-119195426D01*
X129747202Y-119271616D01*
X129709106Y-119309712D01*
X129632916Y-119347807D01*
X129518630Y-119347807D01*
X129442440Y-119309712D01*
X129785297Y-119043045D02*
X129709106Y-119081140D01*
X129556725Y-119081140D01*
X129480535Y-119043045D01*
X129442440Y-119004950D01*
X129404344Y-118928759D01*
X129404344Y-118700188D01*
X129442440Y-118623997D01*
X129480535Y-118585902D01*
X129556725Y-118547807D01*
X129709106Y-118547807D01*
X129785297Y-118585902D01*
X130166249Y-119081140D02*
X130166249Y-118281140D01*
X130166249Y-118662093D02*
X130623392Y-118662093D01*
X130623392Y-119081140D02*
X130623392Y-118281140D01*
X131118630Y-119081140D02*
X131042440Y-119043045D01*
X131004344Y-119004950D01*
X130966249Y-118928759D01*
X130966249Y-118700188D01*
X131004344Y-118623997D01*
X131042440Y-118585902D01*
X131118630Y-118547807D01*
X131232916Y-118547807D01*
X131309106Y-118585902D01*
X131347202Y-118623997D01*
X131385297Y-118700188D01*
X131385297Y-118928759D01*
X131347202Y-119004950D01*
X131309106Y-119043045D01*
X131232916Y-119081140D01*
X131118630Y-119081140D01*
X131842440Y-119081140D02*
X131766249Y-119043045D01*
X131728154Y-118966855D01*
X131728154Y-118281140D01*
X132451964Y-119043045D02*
X132375773Y-119081140D01*
X132223392Y-119081140D01*
X132147202Y-119043045D01*
X132109106Y-118966855D01*
X132109106Y-118662093D01*
X132147202Y-118585902D01*
X132223392Y-118547807D01*
X132375773Y-118547807D01*
X132451964Y-118585902D01*
X132490059Y-118662093D01*
X132490059Y-118738283D01*
X132109106Y-118814474D01*
X132642440Y-119157331D02*
X133251964Y-119157331D01*
X133442440Y-119081140D02*
X133442440Y-118281140D01*
X133747202Y-118281140D01*
X133823392Y-118319236D01*
X133861487Y-118357331D01*
X133899583Y-118433521D01*
X133899583Y-118547807D01*
X133861487Y-118623997D01*
X133823392Y-118662093D01*
X133747202Y-118700188D01*
X133442440Y-118700188D01*
X134585297Y-119081140D02*
X134585297Y-118662093D01*
X134547202Y-118585902D01*
X134471011Y-118547807D01*
X134318630Y-118547807D01*
X134242440Y-118585902D01*
X134585297Y-119043045D02*
X134509106Y-119081140D01*
X134318630Y-119081140D01*
X134242440Y-119043045D01*
X134204344Y-118966855D01*
X134204344Y-118890664D01*
X134242440Y-118814474D01*
X134318630Y-118776378D01*
X134509106Y-118776378D01*
X134585297Y-118738283D01*
X135309106Y-119081140D02*
X135309106Y-118281140D01*
X135309106Y-119043045D02*
X135232916Y-119081140D01*
X135080535Y-119081140D01*
X135004344Y-119043045D01*
X134966249Y-119004950D01*
X134928154Y-118928759D01*
X134928154Y-118700188D01*
X134966249Y-118623997D01*
X135004344Y-118585902D01*
X135080535Y-118547807D01*
X135232916Y-118547807D01*
X135309106Y-118585902D01*
X129438476Y-114407904D02*
X129438476Y-113607904D01*
X129438476Y-113988857D02*
X129895619Y-113988857D01*
X129895619Y-114407904D02*
X129895619Y-113607904D01*
X130200380Y-113607904D02*
X130695619Y-113607904D01*
X130428952Y-113912666D01*
X130543238Y-113912666D01*
X130619428Y-113950761D01*
X130657523Y-113988857D01*
X130695619Y-114065047D01*
X130695619Y-114255523D01*
X130657523Y-114331714D01*
X130619428Y-114369809D01*
X130543238Y-114407904D01*
X130314666Y-114407904D01*
X130238476Y-114369809D01*
X130200380Y-114331714D01*
%TO.C,H1*%
X110220057Y-84470504D02*
X110220057Y-83670504D01*
X110486723Y-84241933D01*
X110753390Y-83670504D01*
X110753390Y-84470504D01*
X111248628Y-84470504D02*
X111172438Y-84432409D01*
X111134342Y-84394314D01*
X111096247Y-84318123D01*
X111096247Y-84089552D01*
X111134342Y-84013361D01*
X111172438Y-83975266D01*
X111248628Y-83937171D01*
X111362914Y-83937171D01*
X111439104Y-83975266D01*
X111477200Y-84013361D01*
X111515295Y-84089552D01*
X111515295Y-84318123D01*
X111477200Y-84394314D01*
X111439104Y-84432409D01*
X111362914Y-84470504D01*
X111248628Y-84470504D01*
X112201009Y-83937171D02*
X112201009Y-84470504D01*
X111858152Y-83937171D02*
X111858152Y-84356219D01*
X111896247Y-84432409D01*
X111972438Y-84470504D01*
X112086723Y-84470504D01*
X112162914Y-84432409D01*
X112201009Y-84394314D01*
X112581961Y-83937171D02*
X112581961Y-84470504D01*
X112581961Y-84013361D02*
X112620057Y-83975266D01*
X112696247Y-83937171D01*
X112810533Y-83937171D01*
X112886723Y-83975266D01*
X112924819Y-84051457D01*
X112924819Y-84470504D01*
X113191485Y-83937171D02*
X113496247Y-83937171D01*
X113305771Y-83670504D02*
X113305771Y-84356219D01*
X113343866Y-84432409D01*
X113420057Y-84470504D01*
X113496247Y-84470504D01*
X113762914Y-84470504D02*
X113762914Y-83937171D01*
X113762914Y-83670504D02*
X113724819Y-83708600D01*
X113762914Y-83746695D01*
X113801009Y-83708600D01*
X113762914Y-83670504D01*
X113762914Y-83746695D01*
X114143866Y-83937171D02*
X114143866Y-84470504D01*
X114143866Y-84013361D02*
X114181961Y-83975266D01*
X114258152Y-83937171D01*
X114372438Y-83937171D01*
X114448628Y-83975266D01*
X114486723Y-84051457D01*
X114486723Y-84470504D01*
X115210533Y-83937171D02*
X115210533Y-84584790D01*
X115172438Y-84660980D01*
X115134342Y-84699076D01*
X115058152Y-84737171D01*
X114943866Y-84737171D01*
X114867676Y-84699076D01*
X115210533Y-84432409D02*
X115134342Y-84470504D01*
X114981961Y-84470504D01*
X114905771Y-84432409D01*
X114867676Y-84394314D01*
X114829580Y-84318123D01*
X114829580Y-84089552D01*
X114867676Y-84013361D01*
X114905771Y-83975266D01*
X114981961Y-83937171D01*
X115134342Y-83937171D01*
X115210533Y-83975266D01*
X115591485Y-84470504D02*
X115591485Y-83670504D01*
X115591485Y-84051457D02*
X116048628Y-84051457D01*
X116048628Y-84470504D02*
X116048628Y-83670504D01*
X116543866Y-84470504D02*
X116467676Y-84432409D01*
X116429580Y-84394314D01*
X116391485Y-84318123D01*
X116391485Y-84089552D01*
X116429580Y-84013361D01*
X116467676Y-83975266D01*
X116543866Y-83937171D01*
X116658152Y-83937171D01*
X116734342Y-83975266D01*
X116772438Y-84013361D01*
X116810533Y-84089552D01*
X116810533Y-84318123D01*
X116772438Y-84394314D01*
X116734342Y-84432409D01*
X116658152Y-84470504D01*
X116543866Y-84470504D01*
X117267676Y-84470504D02*
X117191485Y-84432409D01*
X117153390Y-84356219D01*
X117153390Y-83670504D01*
X117877200Y-84432409D02*
X117801009Y-84470504D01*
X117648628Y-84470504D01*
X117572438Y-84432409D01*
X117534342Y-84356219D01*
X117534342Y-84051457D01*
X117572438Y-83975266D01*
X117648628Y-83937171D01*
X117801009Y-83937171D01*
X117877200Y-83975266D01*
X117915295Y-84051457D01*
X117915295Y-84127647D01*
X117534342Y-84203838D01*
X118067676Y-84546695D02*
X118677200Y-84546695D01*
X118867676Y-84470504D02*
X118867676Y-83670504D01*
X119172438Y-83670504D01*
X119248628Y-83708600D01*
X119286723Y-83746695D01*
X119324819Y-83822885D01*
X119324819Y-83937171D01*
X119286723Y-84013361D01*
X119248628Y-84051457D01*
X119172438Y-84089552D01*
X118867676Y-84089552D01*
X120010533Y-84470504D02*
X120010533Y-84051457D01*
X119972438Y-83975266D01*
X119896247Y-83937171D01*
X119743866Y-83937171D01*
X119667676Y-83975266D01*
X120010533Y-84432409D02*
X119934342Y-84470504D01*
X119743866Y-84470504D01*
X119667676Y-84432409D01*
X119629580Y-84356219D01*
X119629580Y-84280028D01*
X119667676Y-84203838D01*
X119743866Y-84165742D01*
X119934342Y-84165742D01*
X120010533Y-84127647D01*
X120734342Y-84470504D02*
X120734342Y-83670504D01*
X120734342Y-84432409D02*
X120658152Y-84470504D01*
X120505771Y-84470504D01*
X120429580Y-84432409D01*
X120391485Y-84394314D01*
X120353390Y-84318123D01*
X120353390Y-84089552D01*
X120391485Y-84013361D01*
X120429580Y-83975266D01*
X120505771Y-83937171D01*
X120658152Y-83937171D01*
X120734342Y-83975266D01*
X114452476Y-82784904D02*
X114452476Y-81984904D01*
X114452476Y-82365857D02*
X114909619Y-82365857D01*
X114909619Y-82784904D02*
X114909619Y-81984904D01*
X115709619Y-82784904D02*
X115252476Y-82784904D01*
X115481047Y-82784904D02*
X115481047Y-81984904D01*
X115404857Y-82099190D01*
X115328666Y-82175380D01*
X115252476Y-82213476D01*
%TO.C,J7*%
X123733333Y-84660714D02*
X123695238Y-84698809D01*
X123580952Y-84736904D01*
X123504761Y-84736904D01*
X123390476Y-84698809D01*
X123314285Y-84622619D01*
X123276190Y-84546428D01*
X123238095Y-84394047D01*
X123238095Y-84279761D01*
X123276190Y-84127380D01*
X123314285Y-84051190D01*
X123390476Y-83975000D01*
X123504761Y-83936904D01*
X123580952Y-83936904D01*
X123695238Y-83975000D01*
X123733333Y-84013095D01*
X124190476Y-84736904D02*
X124114285Y-84698809D01*
X124076190Y-84660714D01*
X124038095Y-84584523D01*
X124038095Y-84355952D01*
X124076190Y-84279761D01*
X124114285Y-84241666D01*
X124190476Y-84203571D01*
X124304761Y-84203571D01*
X124380952Y-84241666D01*
X124419047Y-84279761D01*
X124457142Y-84355952D01*
X124457142Y-84584523D01*
X124419047Y-84660714D01*
X124380952Y-84698809D01*
X124304761Y-84736904D01*
X124190476Y-84736904D01*
X124800000Y-84203571D02*
X124800000Y-84736904D01*
X124800000Y-84279761D02*
X124838095Y-84241666D01*
X124914285Y-84203571D01*
X125028571Y-84203571D01*
X125104761Y-84241666D01*
X125142857Y-84317857D01*
X125142857Y-84736904D01*
X125523809Y-84203571D02*
X125523809Y-84736904D01*
X125523809Y-84279761D02*
X125561904Y-84241666D01*
X125638095Y-84203571D01*
X125752380Y-84203571D01*
X125828571Y-84241666D01*
X125866666Y-84317857D01*
X125866666Y-84736904D01*
X126057142Y-84813095D02*
X126666666Y-84813095D01*
X127009523Y-83936904D02*
X127085714Y-83936904D01*
X127161904Y-83975000D01*
X127200000Y-84013095D01*
X127238095Y-84089285D01*
X127276190Y-84241666D01*
X127276190Y-84432142D01*
X127238095Y-84584523D01*
X127200000Y-84660714D01*
X127161904Y-84698809D01*
X127085714Y-84736904D01*
X127009523Y-84736904D01*
X126933333Y-84698809D01*
X126895238Y-84660714D01*
X126857142Y-84584523D01*
X126819047Y-84432142D01*
X126819047Y-84241666D01*
X126857142Y-84089285D01*
X126895238Y-84013095D01*
X126933333Y-83975000D01*
X127009523Y-83936904D01*
X128038095Y-84736904D02*
X127580952Y-84736904D01*
X127809523Y-84736904D02*
X127809523Y-83936904D01*
X127733333Y-84051190D01*
X127657142Y-84127380D01*
X127580952Y-84165476D01*
X128304761Y-84736904D02*
X128723809Y-84203571D01*
X128304761Y-84203571D02*
X128723809Y-84736904D01*
X129180952Y-83936904D02*
X129257142Y-83936904D01*
X129333333Y-83975000D01*
X129371428Y-84013095D01*
X129409523Y-84089285D01*
X129447619Y-84241666D01*
X129447619Y-84432142D01*
X129409523Y-84584523D01*
X129371428Y-84660714D01*
X129333333Y-84698809D01*
X129257142Y-84736904D01*
X129180952Y-84736904D01*
X129104761Y-84698809D01*
X129066666Y-84660714D01*
X129028571Y-84584523D01*
X128990476Y-84432142D01*
X128990476Y-84241666D01*
X129028571Y-84089285D01*
X129066666Y-84013095D01*
X129104761Y-83975000D01*
X129180952Y-83936904D01*
X129752380Y-84013095D02*
X129790476Y-83975000D01*
X129866666Y-83936904D01*
X130057142Y-83936904D01*
X130133333Y-83975000D01*
X130171428Y-84013095D01*
X130209523Y-84089285D01*
X130209523Y-84165476D01*
X130171428Y-84279761D01*
X129714285Y-84736904D01*
X130209523Y-84736904D01*
X130361904Y-84813095D02*
X130971428Y-84813095D01*
X131161904Y-84736904D02*
X131161904Y-83936904D01*
X131428571Y-84508333D01*
X131695238Y-83936904D01*
X131695238Y-84736904D01*
X132419047Y-84736904D02*
X132419047Y-84317857D01*
X132380952Y-84241666D01*
X132304761Y-84203571D01*
X132152380Y-84203571D01*
X132076190Y-84241666D01*
X132419047Y-84698809D02*
X132342857Y-84736904D01*
X132152380Y-84736904D01*
X132076190Y-84698809D01*
X132038095Y-84622619D01*
X132038095Y-84546428D01*
X132076190Y-84470238D01*
X132152380Y-84432142D01*
X132342857Y-84432142D01*
X132419047Y-84394047D01*
X132914285Y-84736904D02*
X132838095Y-84698809D01*
X132800000Y-84622619D01*
X132800000Y-83936904D01*
X133523809Y-84698809D02*
X133447619Y-84736904D01*
X133295238Y-84736904D01*
X133219047Y-84698809D01*
X133180952Y-84622619D01*
X133180952Y-84317857D01*
X133219047Y-84241666D01*
X133295238Y-84203571D01*
X133447619Y-84203571D01*
X133523809Y-84241666D01*
X133561904Y-84317857D01*
X133561904Y-84394047D01*
X133180952Y-84470238D01*
X128133333Y-82036904D02*
X128133333Y-82608333D01*
X128095238Y-82722619D01*
X128019047Y-82798809D01*
X127904761Y-82836904D01*
X127828571Y-82836904D01*
X128438095Y-82036904D02*
X128971428Y-82036904D01*
X128628571Y-82836904D01*
%TO.C,R8*%
X137666666Y-97511904D02*
X137209523Y-97511904D01*
X137438095Y-97511904D02*
X137438095Y-96711904D01*
X137361904Y-96826190D01*
X137285714Y-96902380D01*
X137209523Y-96940476D01*
X138161904Y-96711904D02*
X138238095Y-96711904D01*
X138314285Y-96750000D01*
X138352380Y-96788095D01*
X138390476Y-96864285D01*
X138428571Y-97016666D01*
X138428571Y-97207142D01*
X138390476Y-97359523D01*
X138352380Y-97435714D01*
X138314285Y-97473809D01*
X138238095Y-97511904D01*
X138161904Y-97511904D01*
X138085714Y-97473809D01*
X138047619Y-97435714D01*
X138009523Y-97359523D01*
X137971428Y-97207142D01*
X137971428Y-97016666D01*
X138009523Y-96864285D01*
X138047619Y-96788095D01*
X138085714Y-96750000D01*
X138161904Y-96711904D01*
X138923809Y-96711904D02*
X139000000Y-96711904D01*
X139076190Y-96750000D01*
X139114285Y-96788095D01*
X139152380Y-96864285D01*
X139190476Y-97016666D01*
X139190476Y-97207142D01*
X139152380Y-97359523D01*
X139114285Y-97435714D01*
X139076190Y-97473809D01*
X139000000Y-97511904D01*
X138923809Y-97511904D01*
X138847619Y-97473809D01*
X138809523Y-97435714D01*
X138771428Y-97359523D01*
X138733333Y-97207142D01*
X138733333Y-97016666D01*
X138771428Y-96864285D01*
X138809523Y-96788095D01*
X138847619Y-96750000D01*
X138923809Y-96711904D01*
D11*
X138116666Y-99026190D02*
X137950000Y-98788095D01*
X137830952Y-99026190D02*
X137830952Y-98526190D01*
X138021428Y-98526190D01*
X138069047Y-98550000D01*
X138092857Y-98573809D01*
X138116666Y-98621428D01*
X138116666Y-98692857D01*
X138092857Y-98740476D01*
X138069047Y-98764285D01*
X138021428Y-98788095D01*
X137830952Y-98788095D01*
X138402380Y-98740476D02*
X138354761Y-98716666D01*
X138330952Y-98692857D01*
X138307142Y-98645238D01*
X138307142Y-98621428D01*
X138330952Y-98573809D01*
X138354761Y-98550000D01*
X138402380Y-98526190D01*
X138497619Y-98526190D01*
X138545238Y-98550000D01*
X138569047Y-98573809D01*
X138592857Y-98621428D01*
X138592857Y-98645238D01*
X138569047Y-98692857D01*
X138545238Y-98716666D01*
X138497619Y-98740476D01*
X138402380Y-98740476D01*
X138354761Y-98764285D01*
X138330952Y-98788095D01*
X138307142Y-98835714D01*
X138307142Y-98930952D01*
X138330952Y-98978571D01*
X138354761Y-99002380D01*
X138402380Y-99026190D01*
X138497619Y-99026190D01*
X138545238Y-99002380D01*
X138569047Y-98978571D01*
X138592857Y-98930952D01*
X138592857Y-98835714D01*
X138569047Y-98788095D01*
X138545238Y-98764285D01*
X138497619Y-98740476D01*
D10*
%TO.C,R10*%
X133628571Y-111161904D02*
X133704761Y-111161904D01*
X133780952Y-111200000D01*
X133819047Y-111238095D01*
X133857142Y-111314285D01*
X133895238Y-111466666D01*
X133895238Y-111657142D01*
X133857142Y-111809523D01*
X133819047Y-111885714D01*
X133780952Y-111923809D01*
X133704761Y-111961904D01*
X133628571Y-111961904D01*
X133552380Y-111923809D01*
X133514285Y-111885714D01*
X133476190Y-111809523D01*
X133438095Y-111657142D01*
X133438095Y-111466666D01*
X133476190Y-111314285D01*
X133514285Y-111238095D01*
X133552380Y-111200000D01*
X133628571Y-111161904D01*
X134238095Y-111885714D02*
X134276190Y-111923809D01*
X134238095Y-111961904D01*
X134200000Y-111923809D01*
X134238095Y-111885714D01*
X134238095Y-111961904D01*
X134771428Y-111161904D02*
X134847619Y-111161904D01*
X134923809Y-111200000D01*
X134961904Y-111238095D01*
X135000000Y-111314285D01*
X135038095Y-111466666D01*
X135038095Y-111657142D01*
X135000000Y-111809523D01*
X134961904Y-111885714D01*
X134923809Y-111923809D01*
X134847619Y-111961904D01*
X134771428Y-111961904D01*
X134695238Y-111923809D01*
X134657142Y-111885714D01*
X134619047Y-111809523D01*
X134580952Y-111657142D01*
X134580952Y-111466666D01*
X134619047Y-111314285D01*
X134657142Y-111238095D01*
X134695238Y-111200000D01*
X134771428Y-111161904D01*
X135533333Y-111161904D02*
X135609523Y-111161904D01*
X135685714Y-111200000D01*
X135723809Y-111238095D01*
X135761904Y-111314285D01*
X135800000Y-111466666D01*
X135800000Y-111657142D01*
X135761904Y-111809523D01*
X135723809Y-111885714D01*
X135685714Y-111923809D01*
X135609523Y-111961904D01*
X135533333Y-111961904D01*
X135457142Y-111923809D01*
X135419047Y-111885714D01*
X135380952Y-111809523D01*
X135342857Y-111657142D01*
X135342857Y-111466666D01*
X135380952Y-111314285D01*
X135419047Y-111238095D01*
X135457142Y-111200000D01*
X135533333Y-111161904D01*
X136561904Y-111961904D02*
X136104761Y-111961904D01*
X136333333Y-111961904D02*
X136333333Y-111161904D01*
X136257142Y-111276190D01*
X136180952Y-111352380D01*
X136104761Y-111390476D01*
D11*
X134678571Y-113476190D02*
X134511904Y-113238095D01*
X134392857Y-113476190D02*
X134392857Y-112976190D01*
X134583333Y-112976190D01*
X134630952Y-113000000D01*
X134654761Y-113023809D01*
X134678571Y-113071428D01*
X134678571Y-113142857D01*
X134654761Y-113190476D01*
X134630952Y-113214285D01*
X134583333Y-113238095D01*
X134392857Y-113238095D01*
X135154761Y-113476190D02*
X134869047Y-113476190D01*
X135011904Y-113476190D02*
X135011904Y-112976190D01*
X134964285Y-113047619D01*
X134916666Y-113095238D01*
X134869047Y-113119047D01*
X135464285Y-112976190D02*
X135511904Y-112976190D01*
X135559523Y-113000000D01*
X135583333Y-113023809D01*
X135607142Y-113071428D01*
X135630952Y-113166666D01*
X135630952Y-113285714D01*
X135607142Y-113380952D01*
X135583333Y-113428571D01*
X135559523Y-113452380D01*
X135511904Y-113476190D01*
X135464285Y-113476190D01*
X135416666Y-113452380D01*
X135392857Y-113428571D01*
X135369047Y-113380952D01*
X135345238Y-113285714D01*
X135345238Y-113166666D01*
X135369047Y-113071428D01*
X135392857Y-113023809D01*
X135416666Y-113000000D01*
X135464285Y-112976190D01*
D10*
%TO.C,C25*%
X115678095Y-91680095D02*
X115716190Y-91642000D01*
X115792380Y-91603904D01*
X115982857Y-91603904D01*
X116059047Y-91642000D01*
X116097142Y-91680095D01*
X116135238Y-91756285D01*
X116135238Y-91832476D01*
X116097142Y-91946761D01*
X115640000Y-92403904D01*
X116135238Y-92403904D01*
X116478095Y-92327714D02*
X116516190Y-92365809D01*
X116478095Y-92403904D01*
X116440000Y-92365809D01*
X116478095Y-92327714D01*
X116478095Y-92403904D01*
X116820952Y-91680095D02*
X116859047Y-91642000D01*
X116935238Y-91603904D01*
X117125714Y-91603904D01*
X117201904Y-91642000D01*
X117240000Y-91680095D01*
X117278095Y-91756285D01*
X117278095Y-91832476D01*
X117240000Y-91946761D01*
X116782857Y-92403904D01*
X117278095Y-92403904D01*
X117963809Y-91870571D02*
X117963809Y-92403904D01*
X117620952Y-91870571D02*
X117620952Y-92289619D01*
X117659047Y-92365809D01*
X117735238Y-92403904D01*
X117849523Y-92403904D01*
X117925714Y-92365809D01*
X117963809Y-92327714D01*
D12*
X116582857Y-93614857D02*
X116563809Y-93633904D01*
X116506666Y-93652952D01*
X116468571Y-93652952D01*
X116411428Y-93633904D01*
X116373333Y-93595809D01*
X116354285Y-93557714D01*
X116335238Y-93481523D01*
X116335238Y-93424380D01*
X116354285Y-93348190D01*
X116373333Y-93310095D01*
X116411428Y-93272000D01*
X116468571Y-93252952D01*
X116506666Y-93252952D01*
X116563809Y-93272000D01*
X116582857Y-93291047D01*
X116735238Y-93291047D02*
X116754285Y-93272000D01*
X116792380Y-93252952D01*
X116887619Y-93252952D01*
X116925714Y-93272000D01*
X116944761Y-93291047D01*
X116963809Y-93329142D01*
X116963809Y-93367238D01*
X116944761Y-93424380D01*
X116716190Y-93652952D01*
X116963809Y-93652952D01*
X117325714Y-93252952D02*
X117135238Y-93252952D01*
X117116190Y-93443428D01*
X117135238Y-93424380D01*
X117173333Y-93405333D01*
X117268571Y-93405333D01*
X117306666Y-93424380D01*
X117325714Y-93443428D01*
X117344761Y-93481523D01*
X117344761Y-93576761D01*
X117325714Y-93614857D01*
X117306666Y-93633904D01*
X117268571Y-93652952D01*
X117173333Y-93652952D01*
X117135238Y-93633904D01*
X117116190Y-93614857D01*
D10*
%TO.C,R22*%
X120554857Y-98245904D02*
X120097714Y-98245904D01*
X120326285Y-98245904D02*
X120326285Y-97445904D01*
X120250095Y-97560190D01*
X120173904Y-97636380D01*
X120097714Y-97674476D01*
X121278666Y-97445904D02*
X120897714Y-97445904D01*
X120859619Y-97826857D01*
X120897714Y-97788761D01*
X120973904Y-97750666D01*
X121164380Y-97750666D01*
X121240571Y-97788761D01*
X121278666Y-97826857D01*
X121316761Y-97903047D01*
X121316761Y-98093523D01*
X121278666Y-98169714D01*
X121240571Y-98207809D01*
X121164380Y-98245904D01*
X120973904Y-98245904D01*
X120897714Y-98207809D01*
X120859619Y-98169714D01*
X121812000Y-97445904D02*
X121888190Y-97445904D01*
X121964380Y-97484000D01*
X122002476Y-97522095D01*
X122040571Y-97598285D01*
X122078666Y-97750666D01*
X122078666Y-97941142D01*
X122040571Y-98093523D01*
X122002476Y-98169714D01*
X121964380Y-98207809D01*
X121888190Y-98245904D01*
X121812000Y-98245904D01*
X121735809Y-98207809D01*
X121697714Y-98169714D01*
X121659619Y-98093523D01*
X121621523Y-97941142D01*
X121621523Y-97750666D01*
X121659619Y-97598285D01*
X121697714Y-97522095D01*
X121735809Y-97484000D01*
X121812000Y-97445904D01*
X122421523Y-98245904D02*
X122421523Y-97445904D01*
X122497714Y-97941142D02*
X122726285Y-98245904D01*
X122726285Y-97712571D02*
X122421523Y-98017333D01*
D12*
X121154857Y-99494952D02*
X121021523Y-99304476D01*
X120926285Y-99494952D02*
X120926285Y-99094952D01*
X121078666Y-99094952D01*
X121116761Y-99114000D01*
X121135809Y-99133047D01*
X121154857Y-99171142D01*
X121154857Y-99228285D01*
X121135809Y-99266380D01*
X121116761Y-99285428D01*
X121078666Y-99304476D01*
X120926285Y-99304476D01*
X121307238Y-99133047D02*
X121326285Y-99114000D01*
X121364380Y-99094952D01*
X121459619Y-99094952D01*
X121497714Y-99114000D01*
X121516761Y-99133047D01*
X121535809Y-99171142D01*
X121535809Y-99209238D01*
X121516761Y-99266380D01*
X121288190Y-99494952D01*
X121535809Y-99494952D01*
X121688190Y-99133047D02*
X121707238Y-99114000D01*
X121745333Y-99094952D01*
X121840571Y-99094952D01*
X121878666Y-99114000D01*
X121897714Y-99133047D01*
X121916761Y-99171142D01*
X121916761Y-99209238D01*
X121897714Y-99266380D01*
X121669142Y-99494952D01*
X121916761Y-99494952D01*
D10*
%TO.C,C2*%
X141616666Y-114791904D02*
X141159523Y-114791904D01*
X141388095Y-114791904D02*
X141388095Y-113991904D01*
X141311904Y-114106190D01*
X141235714Y-114182380D01*
X141159523Y-114220476D01*
X142302380Y-114258571D02*
X142302380Y-114791904D01*
X141959523Y-114258571D02*
X141959523Y-114677619D01*
X141997619Y-114753809D01*
X142073809Y-114791904D01*
X142188095Y-114791904D01*
X142264285Y-114753809D01*
X142302380Y-114715714D01*
D12*
X141683333Y-113142857D02*
X141664285Y-113161904D01*
X141607142Y-113180952D01*
X141569047Y-113180952D01*
X141511904Y-113161904D01*
X141473809Y-113123809D01*
X141454761Y-113085714D01*
X141435714Y-113009523D01*
X141435714Y-112952380D01*
X141454761Y-112876190D01*
X141473809Y-112838095D01*
X141511904Y-112800000D01*
X141569047Y-112780952D01*
X141607142Y-112780952D01*
X141664285Y-112800000D01*
X141683333Y-112819047D01*
X141835714Y-112819047D02*
X141854761Y-112800000D01*
X141892857Y-112780952D01*
X141988095Y-112780952D01*
X142026190Y-112800000D01*
X142045238Y-112819047D01*
X142064285Y-112857142D01*
X142064285Y-112895238D01*
X142045238Y-112952380D01*
X141816666Y-113180952D01*
X142064285Y-113180952D01*
D10*
%TO.C,R12*%
X132519404Y-110595238D02*
X132519404Y-111052380D01*
X132519404Y-110823809D02*
X131719404Y-110823809D01*
X131833690Y-110900000D01*
X131909880Y-110976190D01*
X131947976Y-111052380D01*
X132519404Y-110252380D02*
X131719404Y-110252380D01*
X132214642Y-110176190D02*
X132519404Y-109947619D01*
X131986071Y-109947619D02*
X132290833Y-110252380D01*
D12*
X133768452Y-110757142D02*
X133577976Y-110890476D01*
X133768452Y-110985714D02*
X133368452Y-110985714D01*
X133368452Y-110833333D01*
X133387500Y-110795238D01*
X133406547Y-110776190D01*
X133444642Y-110757142D01*
X133501785Y-110757142D01*
X133539880Y-110776190D01*
X133558928Y-110795238D01*
X133577976Y-110833333D01*
X133577976Y-110985714D01*
X133768452Y-110376190D02*
X133768452Y-110604761D01*
X133768452Y-110490476D02*
X133368452Y-110490476D01*
X133425595Y-110528571D01*
X133463690Y-110566666D01*
X133482738Y-110604761D01*
X133406547Y-110223809D02*
X133387500Y-110204761D01*
X133368452Y-110166666D01*
X133368452Y-110071428D01*
X133387500Y-110033333D01*
X133406547Y-110014285D01*
X133444642Y-109995238D01*
X133482738Y-109995238D01*
X133539880Y-110014285D01*
X133768452Y-110242857D01*
X133768452Y-109995238D01*
D10*
%TO.C,H2*%
X140792857Y-86484904D02*
X140792857Y-85684904D01*
X141059523Y-86256333D01*
X141326190Y-85684904D01*
X141326190Y-86484904D01*
X141821428Y-86484904D02*
X141745238Y-86446809D01*
X141707142Y-86408714D01*
X141669047Y-86332523D01*
X141669047Y-86103952D01*
X141707142Y-86027761D01*
X141745238Y-85989666D01*
X141821428Y-85951571D01*
X141935714Y-85951571D01*
X142011904Y-85989666D01*
X142050000Y-86027761D01*
X142088095Y-86103952D01*
X142088095Y-86332523D01*
X142050000Y-86408714D01*
X142011904Y-86446809D01*
X141935714Y-86484904D01*
X141821428Y-86484904D01*
X142773809Y-85951571D02*
X142773809Y-86484904D01*
X142430952Y-85951571D02*
X142430952Y-86370619D01*
X142469047Y-86446809D01*
X142545238Y-86484904D01*
X142659523Y-86484904D01*
X142735714Y-86446809D01*
X142773809Y-86408714D01*
X143154761Y-85951571D02*
X143154761Y-86484904D01*
X143154761Y-86027761D02*
X143192857Y-85989666D01*
X143269047Y-85951571D01*
X143383333Y-85951571D01*
X143459523Y-85989666D01*
X143497619Y-86065857D01*
X143497619Y-86484904D01*
X143764285Y-85951571D02*
X144069047Y-85951571D01*
X143878571Y-85684904D02*
X143878571Y-86370619D01*
X143916666Y-86446809D01*
X143992857Y-86484904D01*
X144069047Y-86484904D01*
X144335714Y-86484904D02*
X144335714Y-85951571D01*
X144335714Y-85684904D02*
X144297619Y-85723000D01*
X144335714Y-85761095D01*
X144373809Y-85723000D01*
X144335714Y-85684904D01*
X144335714Y-85761095D01*
X144716666Y-85951571D02*
X144716666Y-86484904D01*
X144716666Y-86027761D02*
X144754761Y-85989666D01*
X144830952Y-85951571D01*
X144945238Y-85951571D01*
X145021428Y-85989666D01*
X145059523Y-86065857D01*
X145059523Y-86484904D01*
X145783333Y-85951571D02*
X145783333Y-86599190D01*
X145745238Y-86675380D01*
X145707142Y-86713476D01*
X145630952Y-86751571D01*
X145516666Y-86751571D01*
X145440476Y-86713476D01*
X145783333Y-86446809D02*
X145707142Y-86484904D01*
X145554761Y-86484904D01*
X145478571Y-86446809D01*
X145440476Y-86408714D01*
X145402380Y-86332523D01*
X145402380Y-86103952D01*
X145440476Y-86027761D01*
X145478571Y-85989666D01*
X145554761Y-85951571D01*
X145707142Y-85951571D01*
X145783333Y-85989666D01*
X146164285Y-86484904D02*
X146164285Y-85684904D01*
X146164285Y-86065857D02*
X146621428Y-86065857D01*
X146621428Y-86484904D02*
X146621428Y-85684904D01*
X147116666Y-86484904D02*
X147040476Y-86446809D01*
X147002380Y-86408714D01*
X146964285Y-86332523D01*
X146964285Y-86103952D01*
X147002380Y-86027761D01*
X147040476Y-85989666D01*
X147116666Y-85951571D01*
X147230952Y-85951571D01*
X147307142Y-85989666D01*
X147345238Y-86027761D01*
X147383333Y-86103952D01*
X147383333Y-86332523D01*
X147345238Y-86408714D01*
X147307142Y-86446809D01*
X147230952Y-86484904D01*
X147116666Y-86484904D01*
X147840476Y-86484904D02*
X147764285Y-86446809D01*
X147726190Y-86370619D01*
X147726190Y-85684904D01*
X148450000Y-86446809D02*
X148373809Y-86484904D01*
X148221428Y-86484904D01*
X148145238Y-86446809D01*
X148107142Y-86370619D01*
X148107142Y-86065857D01*
X148145238Y-85989666D01*
X148221428Y-85951571D01*
X148373809Y-85951571D01*
X148450000Y-85989666D01*
X148488095Y-86065857D01*
X148488095Y-86142047D01*
X148107142Y-86218238D01*
X148640476Y-86561095D02*
X149250000Y-86561095D01*
X149440476Y-86484904D02*
X149440476Y-85684904D01*
X149745238Y-85684904D01*
X149821428Y-85723000D01*
X149859523Y-85761095D01*
X149897619Y-85837285D01*
X149897619Y-85951571D01*
X149859523Y-86027761D01*
X149821428Y-86065857D01*
X149745238Y-86103952D01*
X149440476Y-86103952D01*
X150583333Y-86484904D02*
X150583333Y-86065857D01*
X150545238Y-85989666D01*
X150469047Y-85951571D01*
X150316666Y-85951571D01*
X150240476Y-85989666D01*
X150583333Y-86446809D02*
X150507142Y-86484904D01*
X150316666Y-86484904D01*
X150240476Y-86446809D01*
X150202380Y-86370619D01*
X150202380Y-86294428D01*
X150240476Y-86218238D01*
X150316666Y-86180142D01*
X150507142Y-86180142D01*
X150583333Y-86142047D01*
X151307142Y-86484904D02*
X151307142Y-85684904D01*
X151307142Y-86446809D02*
X151230952Y-86484904D01*
X151078571Y-86484904D01*
X151002380Y-86446809D01*
X150964285Y-86408714D01*
X150926190Y-86332523D01*
X150926190Y-86103952D01*
X150964285Y-86027761D01*
X151002380Y-85989666D01*
X151078571Y-85951571D01*
X151230952Y-85951571D01*
X151307142Y-85989666D01*
X145440476Y-82784904D02*
X145440476Y-81984904D01*
X145440476Y-82365857D02*
X145897619Y-82365857D01*
X145897619Y-82784904D02*
X145897619Y-81984904D01*
X146240476Y-82061095D02*
X146278571Y-82023000D01*
X146354761Y-81984904D01*
X146545238Y-81984904D01*
X146621428Y-82023000D01*
X146659523Y-82061095D01*
X146697619Y-82137285D01*
X146697619Y-82213476D01*
X146659523Y-82327761D01*
X146202380Y-82784904D01*
X146697619Y-82784904D01*
%TO.C,C15*%
X120440571Y-98981904D02*
X120516761Y-98981904D01*
X120592952Y-99020000D01*
X120631047Y-99058095D01*
X120669142Y-99134285D01*
X120707238Y-99286666D01*
X120707238Y-99477142D01*
X120669142Y-99629523D01*
X120631047Y-99705714D01*
X120592952Y-99743809D01*
X120516761Y-99781904D01*
X120440571Y-99781904D01*
X120364380Y-99743809D01*
X120326285Y-99705714D01*
X120288190Y-99629523D01*
X120250095Y-99477142D01*
X120250095Y-99286666D01*
X120288190Y-99134285D01*
X120326285Y-99058095D01*
X120364380Y-99020000D01*
X120440571Y-98981904D01*
X121050095Y-99705714D02*
X121088190Y-99743809D01*
X121050095Y-99781904D01*
X121012000Y-99743809D01*
X121050095Y-99705714D01*
X121050095Y-99781904D01*
X121850095Y-99781904D02*
X121392952Y-99781904D01*
X121621523Y-99781904D02*
X121621523Y-98981904D01*
X121545333Y-99096190D01*
X121469142Y-99172380D01*
X121392952Y-99210476D01*
X122535809Y-99248571D02*
X122535809Y-99781904D01*
X122192952Y-99248571D02*
X122192952Y-99667619D01*
X122231047Y-99743809D01*
X122307238Y-99781904D01*
X122421523Y-99781904D01*
X122497714Y-99743809D01*
X122535809Y-99705714D01*
D12*
X121154857Y-100992857D02*
X121135809Y-101011904D01*
X121078666Y-101030952D01*
X121040571Y-101030952D01*
X120983428Y-101011904D01*
X120945333Y-100973809D01*
X120926285Y-100935714D01*
X120907238Y-100859523D01*
X120907238Y-100802380D01*
X120926285Y-100726190D01*
X120945333Y-100688095D01*
X120983428Y-100650000D01*
X121040571Y-100630952D01*
X121078666Y-100630952D01*
X121135809Y-100650000D01*
X121154857Y-100669047D01*
X121535809Y-101030952D02*
X121307238Y-101030952D01*
X121421523Y-101030952D02*
X121421523Y-100630952D01*
X121383428Y-100688095D01*
X121345333Y-100726190D01*
X121307238Y-100745238D01*
X121897714Y-100630952D02*
X121707238Y-100630952D01*
X121688190Y-100821428D01*
X121707238Y-100802380D01*
X121745333Y-100783333D01*
X121840571Y-100783333D01*
X121878666Y-100802380D01*
X121897714Y-100821428D01*
X121916761Y-100859523D01*
X121916761Y-100954761D01*
X121897714Y-100992857D01*
X121878666Y-101011904D01*
X121840571Y-101030952D01*
X121745333Y-101030952D01*
X121707238Y-101011904D01*
X121688190Y-100992857D01*
D10*
%TO.C,C14*%
X116376571Y-96175904D02*
X116452761Y-96175904D01*
X116528952Y-96214000D01*
X116567047Y-96252095D01*
X116605142Y-96328285D01*
X116643238Y-96480666D01*
X116643238Y-96671142D01*
X116605142Y-96823523D01*
X116567047Y-96899714D01*
X116528952Y-96937809D01*
X116452761Y-96975904D01*
X116376571Y-96975904D01*
X116300380Y-96937809D01*
X116262285Y-96899714D01*
X116224190Y-96823523D01*
X116186095Y-96671142D01*
X116186095Y-96480666D01*
X116224190Y-96328285D01*
X116262285Y-96252095D01*
X116300380Y-96214000D01*
X116376571Y-96175904D01*
X116986095Y-96899714D02*
X117024190Y-96937809D01*
X116986095Y-96975904D01*
X116948000Y-96937809D01*
X116986095Y-96899714D01*
X116986095Y-96975904D01*
X117786095Y-96975904D02*
X117328952Y-96975904D01*
X117557523Y-96975904D02*
X117557523Y-96175904D01*
X117481333Y-96290190D01*
X117405142Y-96366380D01*
X117328952Y-96404476D01*
X118471809Y-96442571D02*
X118471809Y-96975904D01*
X118128952Y-96442571D02*
X118128952Y-96861619D01*
X118167047Y-96937809D01*
X118243238Y-96975904D01*
X118357523Y-96975904D01*
X118433714Y-96937809D01*
X118471809Y-96899714D01*
D12*
X117090857Y-98186857D02*
X117071809Y-98205904D01*
X117014666Y-98224952D01*
X116976571Y-98224952D01*
X116919428Y-98205904D01*
X116881333Y-98167809D01*
X116862285Y-98129714D01*
X116843238Y-98053523D01*
X116843238Y-97996380D01*
X116862285Y-97920190D01*
X116881333Y-97882095D01*
X116919428Y-97844000D01*
X116976571Y-97824952D01*
X117014666Y-97824952D01*
X117071809Y-97844000D01*
X117090857Y-97863047D01*
X117471809Y-98224952D02*
X117243238Y-98224952D01*
X117357523Y-98224952D02*
X117357523Y-97824952D01*
X117319428Y-97882095D01*
X117281333Y-97920190D01*
X117243238Y-97939238D01*
X117814666Y-97958285D02*
X117814666Y-98224952D01*
X117719428Y-97805904D02*
X117624190Y-98091619D01*
X117871809Y-98091619D01*
D10*
%TO.C,J10*%
X108871428Y-111018714D02*
X108833333Y-111056809D01*
X108719047Y-111094904D01*
X108642857Y-111094904D01*
X108528571Y-111056809D01*
X108452380Y-110980619D01*
X108414285Y-110904428D01*
X108376190Y-110752047D01*
X108376190Y-110637761D01*
X108414285Y-110485380D01*
X108452380Y-110409190D01*
X108528571Y-110333000D01*
X108642857Y-110294904D01*
X108719047Y-110294904D01*
X108833333Y-110333000D01*
X108871428Y-110371095D01*
X109328571Y-111094904D02*
X109252380Y-111056809D01*
X109214285Y-111018714D01*
X109176190Y-110942523D01*
X109176190Y-110713952D01*
X109214285Y-110637761D01*
X109252380Y-110599666D01*
X109328571Y-110561571D01*
X109442857Y-110561571D01*
X109519047Y-110599666D01*
X109557142Y-110637761D01*
X109595238Y-110713952D01*
X109595238Y-110942523D01*
X109557142Y-111018714D01*
X109519047Y-111056809D01*
X109442857Y-111094904D01*
X109328571Y-111094904D01*
X109938095Y-110561571D02*
X109938095Y-111094904D01*
X109938095Y-110637761D02*
X109976190Y-110599666D01*
X110052380Y-110561571D01*
X110166666Y-110561571D01*
X110242857Y-110599666D01*
X110280952Y-110675857D01*
X110280952Y-111094904D01*
X110661904Y-110561571D02*
X110661904Y-111094904D01*
X110661904Y-110637761D02*
X110700000Y-110599666D01*
X110776190Y-110561571D01*
X110890476Y-110561571D01*
X110966666Y-110599666D01*
X111004761Y-110675857D01*
X111004761Y-111094904D01*
X111195238Y-111171095D02*
X111804761Y-111171095D01*
X112147619Y-110294904D02*
X112223809Y-110294904D01*
X112300000Y-110333000D01*
X112338095Y-110371095D01*
X112376190Y-110447285D01*
X112414285Y-110599666D01*
X112414285Y-110790142D01*
X112376190Y-110942523D01*
X112338095Y-111018714D01*
X112300000Y-111056809D01*
X112223809Y-111094904D01*
X112147619Y-111094904D01*
X112071428Y-111056809D01*
X112033333Y-111018714D01*
X111995238Y-110942523D01*
X111957142Y-110790142D01*
X111957142Y-110599666D01*
X111995238Y-110447285D01*
X112033333Y-110371095D01*
X112071428Y-110333000D01*
X112147619Y-110294904D01*
X113176190Y-111094904D02*
X112719047Y-111094904D01*
X112947619Y-111094904D02*
X112947619Y-110294904D01*
X112871428Y-110409190D01*
X112795238Y-110485380D01*
X112719047Y-110523476D01*
X113442857Y-111094904D02*
X113861904Y-110561571D01*
X113442857Y-110561571D02*
X113861904Y-111094904D01*
X114319047Y-110294904D02*
X114395238Y-110294904D01*
X114471428Y-110333000D01*
X114509523Y-110371095D01*
X114547619Y-110447285D01*
X114585714Y-110599666D01*
X114585714Y-110790142D01*
X114547619Y-110942523D01*
X114509523Y-111018714D01*
X114471428Y-111056809D01*
X114395238Y-111094904D01*
X114319047Y-111094904D01*
X114242857Y-111056809D01*
X114204761Y-111018714D01*
X114166666Y-110942523D01*
X114128571Y-110790142D01*
X114128571Y-110599666D01*
X114166666Y-110447285D01*
X114204761Y-110371095D01*
X114242857Y-110333000D01*
X114319047Y-110294904D01*
X114890476Y-110371095D02*
X114928571Y-110333000D01*
X115004761Y-110294904D01*
X115195238Y-110294904D01*
X115271428Y-110333000D01*
X115309523Y-110371095D01*
X115347619Y-110447285D01*
X115347619Y-110523476D01*
X115309523Y-110637761D01*
X114852380Y-111094904D01*
X115347619Y-111094904D01*
X115500000Y-111171095D02*
X116109523Y-111171095D01*
X116566666Y-110675857D02*
X116300000Y-110675857D01*
X116300000Y-111094904D02*
X116300000Y-110294904D01*
X116680952Y-110294904D01*
X117290476Y-111056809D02*
X117214285Y-111094904D01*
X117061904Y-111094904D01*
X116985714Y-111056809D01*
X116947619Y-110980619D01*
X116947619Y-110675857D01*
X116985714Y-110599666D01*
X117061904Y-110561571D01*
X117214285Y-110561571D01*
X117290476Y-110599666D01*
X117328571Y-110675857D01*
X117328571Y-110752047D01*
X116947619Y-110828238D01*
X117671428Y-111094904D02*
X117671428Y-110561571D01*
X117671428Y-110637761D02*
X117709523Y-110599666D01*
X117785714Y-110561571D01*
X117900000Y-110561571D01*
X117976190Y-110599666D01*
X118014285Y-110675857D01*
X118014285Y-111094904D01*
X118014285Y-110675857D02*
X118052380Y-110599666D01*
X118128571Y-110561571D01*
X118242857Y-110561571D01*
X118319047Y-110599666D01*
X118357142Y-110675857D01*
X118357142Y-111094904D01*
X119080952Y-111094904D02*
X119080952Y-110675857D01*
X119042857Y-110599666D01*
X118966666Y-110561571D01*
X118814285Y-110561571D01*
X118738095Y-110599666D01*
X119080952Y-111056809D02*
X119004761Y-111094904D01*
X118814285Y-111094904D01*
X118738095Y-111056809D01*
X118700000Y-110980619D01*
X118700000Y-110904428D01*
X118738095Y-110828238D01*
X118814285Y-110790142D01*
X119004761Y-110790142D01*
X119080952Y-110752047D01*
X119576190Y-111094904D02*
X119500000Y-111056809D01*
X119461904Y-110980619D01*
X119461904Y-110294904D01*
X120185714Y-111056809D02*
X120109523Y-111094904D01*
X119957142Y-111094904D01*
X119880952Y-111056809D01*
X119842857Y-110980619D01*
X119842857Y-110675857D01*
X119880952Y-110599666D01*
X119957142Y-110561571D01*
X120109523Y-110561571D01*
X120185714Y-110599666D01*
X120223809Y-110675857D01*
X120223809Y-110752047D01*
X119842857Y-110828238D01*
X113652380Y-112194904D02*
X113652380Y-112766333D01*
X113614285Y-112880619D01*
X113538095Y-112956809D01*
X113423809Y-112994904D01*
X113347619Y-112994904D01*
X114452380Y-112994904D02*
X113995238Y-112994904D01*
X114223809Y-112994904D02*
X114223809Y-112194904D01*
X114147619Y-112309190D01*
X114071428Y-112385380D01*
X113995238Y-112423476D01*
X114947619Y-112194904D02*
X115023809Y-112194904D01*
X115100000Y-112233000D01*
X115138095Y-112271095D01*
X115176190Y-112347285D01*
X115214285Y-112499666D01*
X115214285Y-112690142D01*
X115176190Y-112842523D01*
X115138095Y-112918714D01*
X115100000Y-112956809D01*
X115023809Y-112994904D01*
X114947619Y-112994904D01*
X114871428Y-112956809D01*
X114833333Y-112918714D01*
X114795238Y-112842523D01*
X114757142Y-112690142D01*
X114757142Y-112499666D01*
X114795238Y-112347285D01*
X114833333Y-112271095D01*
X114871428Y-112233000D01*
X114947619Y-112194904D01*
%TO.C,D3*%
X111023714Y-91673904D02*
X110642761Y-91673904D01*
X110642761Y-90873904D01*
X111290380Y-91254857D02*
X111557047Y-91254857D01*
X111671333Y-91673904D02*
X111290380Y-91673904D01*
X111290380Y-90873904D01*
X111671333Y-90873904D01*
X112014190Y-91673904D02*
X112014190Y-90873904D01*
X112204666Y-90873904D01*
X112318952Y-90912000D01*
X112395142Y-90988190D01*
X112433238Y-91064380D01*
X112471333Y-91216761D01*
X112471333Y-91331047D01*
X112433238Y-91483428D01*
X112395142Y-91559619D01*
X112318952Y-91635809D01*
X112204666Y-91673904D01*
X112014190Y-91673904D01*
X112623714Y-91750095D02*
X113233238Y-91750095D01*
X113385619Y-91635809D02*
X113499904Y-91673904D01*
X113690380Y-91673904D01*
X113766571Y-91635809D01*
X113804666Y-91597714D01*
X113842761Y-91521523D01*
X113842761Y-91445333D01*
X113804666Y-91369142D01*
X113766571Y-91331047D01*
X113690380Y-91292952D01*
X113538000Y-91254857D01*
X113461809Y-91216761D01*
X113423714Y-91178666D01*
X113385619Y-91102476D01*
X113385619Y-91026285D01*
X113423714Y-90950095D01*
X113461809Y-90912000D01*
X113538000Y-90873904D01*
X113728476Y-90873904D01*
X113842761Y-90912000D01*
X114185619Y-91673904D02*
X114185619Y-91140571D01*
X114185619Y-91216761D02*
X114223714Y-91178666D01*
X114299904Y-91140571D01*
X114414190Y-91140571D01*
X114490380Y-91178666D01*
X114528476Y-91254857D01*
X114528476Y-91673904D01*
X114528476Y-91254857D02*
X114566571Y-91178666D01*
X114642761Y-91140571D01*
X114757047Y-91140571D01*
X114833238Y-91178666D01*
X114871333Y-91254857D01*
X114871333Y-91673904D01*
X115595142Y-91673904D02*
X115595142Y-91254857D01*
X115557047Y-91178666D01*
X115480857Y-91140571D01*
X115328476Y-91140571D01*
X115252285Y-91178666D01*
X115595142Y-91635809D02*
X115518952Y-91673904D01*
X115328476Y-91673904D01*
X115252285Y-91635809D01*
X115214190Y-91559619D01*
X115214190Y-91483428D01*
X115252285Y-91407238D01*
X115328476Y-91369142D01*
X115518952Y-91369142D01*
X115595142Y-91331047D01*
X116090380Y-91673904D02*
X116014190Y-91635809D01*
X115976095Y-91559619D01*
X115976095Y-90873904D01*
X116509428Y-91673904D02*
X116433238Y-91635809D01*
X116395142Y-91559619D01*
X116395142Y-90873904D01*
D11*
X113168952Y-89888190D02*
X113168952Y-89388190D01*
X113288000Y-89388190D01*
X113359428Y-89412000D01*
X113407047Y-89459619D01*
X113430857Y-89507238D01*
X113454666Y-89602476D01*
X113454666Y-89673904D01*
X113430857Y-89769142D01*
X113407047Y-89816761D01*
X113359428Y-89864380D01*
X113288000Y-89888190D01*
X113168952Y-89888190D01*
X113621333Y-89388190D02*
X113930857Y-89388190D01*
X113764190Y-89578666D01*
X113835619Y-89578666D01*
X113883238Y-89602476D01*
X113907047Y-89626285D01*
X113930857Y-89673904D01*
X113930857Y-89792952D01*
X113907047Y-89840571D01*
X113883238Y-89864380D01*
X113835619Y-89888190D01*
X113692761Y-89888190D01*
X113645142Y-89864380D01*
X113621333Y-89840571D01*
D10*
%TO.C,C17*%
X132441904Y-98508333D02*
X132441904Y-98965476D01*
X132441904Y-98736904D02*
X131641904Y-98736904D01*
X131756190Y-98813095D01*
X131832380Y-98889285D01*
X131870476Y-98965476D01*
X131908571Y-97822619D02*
X132441904Y-97822619D01*
X131908571Y-98165476D02*
X132327619Y-98165476D01*
X132403809Y-98127380D01*
X132441904Y-98051190D01*
X132441904Y-97936904D01*
X132403809Y-97860714D01*
X132365714Y-97822619D01*
D12*
X130792857Y-98632142D02*
X130811904Y-98651190D01*
X130830952Y-98708333D01*
X130830952Y-98746428D01*
X130811904Y-98803571D01*
X130773809Y-98841666D01*
X130735714Y-98860714D01*
X130659523Y-98879761D01*
X130602380Y-98879761D01*
X130526190Y-98860714D01*
X130488095Y-98841666D01*
X130450000Y-98803571D01*
X130430952Y-98746428D01*
X130430952Y-98708333D01*
X130450000Y-98651190D01*
X130469047Y-98632142D01*
X130830952Y-98251190D02*
X130830952Y-98479761D01*
X130830952Y-98365476D02*
X130430952Y-98365476D01*
X130488095Y-98403571D01*
X130526190Y-98441666D01*
X130545238Y-98479761D01*
X130430952Y-98117857D02*
X130430952Y-97851190D01*
X130830952Y-98022619D01*
D10*
%TO.C,C11*%
X116453095Y-93458095D02*
X116491190Y-93420000D01*
X116567380Y-93381904D01*
X116757857Y-93381904D01*
X116834047Y-93420000D01*
X116872142Y-93458095D01*
X116910238Y-93534285D01*
X116910238Y-93610476D01*
X116872142Y-93724761D01*
X116415000Y-94181904D01*
X116910238Y-94181904D01*
X117253095Y-94105714D02*
X117291190Y-94143809D01*
X117253095Y-94181904D01*
X117215000Y-94143809D01*
X117253095Y-94105714D01*
X117253095Y-94181904D01*
X117595952Y-93458095D02*
X117634047Y-93420000D01*
X117710238Y-93381904D01*
X117900714Y-93381904D01*
X117976904Y-93420000D01*
X118015000Y-93458095D01*
X118053095Y-93534285D01*
X118053095Y-93610476D01*
X118015000Y-93724761D01*
X117557857Y-94181904D01*
X118053095Y-94181904D01*
X118738809Y-93648571D02*
X118738809Y-94181904D01*
X118395952Y-93648571D02*
X118395952Y-94067619D01*
X118434047Y-94143809D01*
X118510238Y-94181904D01*
X118624523Y-94181904D01*
X118700714Y-94143809D01*
X118738809Y-94105714D01*
D12*
X117357857Y-95392857D02*
X117338809Y-95411904D01*
X117281666Y-95430952D01*
X117243571Y-95430952D01*
X117186428Y-95411904D01*
X117148333Y-95373809D01*
X117129285Y-95335714D01*
X117110238Y-95259523D01*
X117110238Y-95202380D01*
X117129285Y-95126190D01*
X117148333Y-95088095D01*
X117186428Y-95050000D01*
X117243571Y-95030952D01*
X117281666Y-95030952D01*
X117338809Y-95050000D01*
X117357857Y-95069047D01*
X117738809Y-95430952D02*
X117510238Y-95430952D01*
X117624523Y-95430952D02*
X117624523Y-95030952D01*
X117586428Y-95088095D01*
X117548333Y-95126190D01*
X117510238Y-95145238D01*
X118119761Y-95430952D02*
X117891190Y-95430952D01*
X118005476Y-95430952D02*
X118005476Y-95030952D01*
X117967380Y-95088095D01*
X117929285Y-95126190D01*
X117891190Y-95145238D01*
D10*
%TO.C,C16*%
X130141904Y-99346428D02*
X130141904Y-99270238D01*
X130180000Y-99194047D01*
X130218095Y-99155952D01*
X130294285Y-99117857D01*
X130446666Y-99079761D01*
X130637142Y-99079761D01*
X130789523Y-99117857D01*
X130865714Y-99155952D01*
X130903809Y-99194047D01*
X130941904Y-99270238D01*
X130941904Y-99346428D01*
X130903809Y-99422619D01*
X130865714Y-99460714D01*
X130789523Y-99498809D01*
X130637142Y-99536904D01*
X130446666Y-99536904D01*
X130294285Y-99498809D01*
X130218095Y-99460714D01*
X130180000Y-99422619D01*
X130141904Y-99346428D01*
X130865714Y-98736904D02*
X130903809Y-98698809D01*
X130941904Y-98736904D01*
X130903809Y-98775000D01*
X130865714Y-98736904D01*
X130941904Y-98736904D01*
X130941904Y-97936904D02*
X130941904Y-98394047D01*
X130941904Y-98165476D02*
X130141904Y-98165476D01*
X130256190Y-98241666D01*
X130332380Y-98317857D01*
X130370476Y-98394047D01*
X130408571Y-97251190D02*
X130941904Y-97251190D01*
X130408571Y-97594047D02*
X130827619Y-97594047D01*
X130903809Y-97555952D01*
X130941904Y-97479761D01*
X130941904Y-97365476D01*
X130903809Y-97289285D01*
X130865714Y-97251190D01*
D12*
X129292857Y-98632142D02*
X129311904Y-98651190D01*
X129330952Y-98708333D01*
X129330952Y-98746428D01*
X129311904Y-98803571D01*
X129273809Y-98841666D01*
X129235714Y-98860714D01*
X129159523Y-98879761D01*
X129102380Y-98879761D01*
X129026190Y-98860714D01*
X128988095Y-98841666D01*
X128950000Y-98803571D01*
X128930952Y-98746428D01*
X128930952Y-98708333D01*
X128950000Y-98651190D01*
X128969047Y-98632142D01*
X129330952Y-98251190D02*
X129330952Y-98479761D01*
X129330952Y-98365476D02*
X128930952Y-98365476D01*
X128988095Y-98403571D01*
X129026190Y-98441666D01*
X129045238Y-98479761D01*
X128930952Y-97908333D02*
X128930952Y-97984523D01*
X128950000Y-98022619D01*
X128969047Y-98041666D01*
X129026190Y-98079761D01*
X129102380Y-98098809D01*
X129254761Y-98098809D01*
X129292857Y-98079761D01*
X129311904Y-98060714D01*
X129330952Y-98022619D01*
X129330952Y-97946428D01*
X129311904Y-97908333D01*
X129292857Y-97889285D01*
X129254761Y-97870238D01*
X129159523Y-97870238D01*
X129121428Y-97889285D01*
X129102380Y-97908333D01*
X129083333Y-97946428D01*
X129083333Y-98022619D01*
X129102380Y-98060714D01*
X129121428Y-98079761D01*
X129159523Y-98098809D01*
D15*
%TO.C,R16*%
X143125000Y-92425000D02*
X143125000Y-93675000D01*
X143125000Y-93675000D02*
X141125000Y-93675000D01*
X141125000Y-92425000D02*
X143125000Y-92425000D01*
X141125000Y-93675000D02*
X141125000Y-92425000D01*
%TO.C,J4*%
X130550000Y-108250000D02*
X130550000Y-108550000D01*
X130550000Y-108550000D02*
X131165000Y-108550000D01*
X130550000Y-106550000D02*
X131165000Y-106550000D01*
X130550000Y-106250000D02*
X130550000Y-106550000D01*
X131515000Y-103900000D02*
X132435000Y-103900000D01*
X132435000Y-103900000D02*
X132435000Y-108900000D01*
X132435000Y-105250000D02*
X133050000Y-105250000D01*
X131165000Y-106250000D02*
X130550000Y-106250000D01*
X133050000Y-105550000D02*
X132435000Y-105550000D01*
X132435000Y-107250000D02*
X133050000Y-107250000D01*
X131165000Y-108900000D02*
X131165000Y-104250000D01*
X130550000Y-104550000D02*
X131165000Y-104550000D01*
X133050000Y-105250000D02*
X133050000Y-105550000D01*
X131165000Y-108250000D02*
X130550000Y-108250000D01*
X133050000Y-107250000D02*
X133050000Y-107550000D01*
X130550000Y-104250000D02*
X130550000Y-104550000D01*
X131165000Y-104250000D02*
X131515000Y-103900000D01*
X133050000Y-107550000D02*
X132435000Y-107550000D01*
X131165000Y-104250000D02*
X130550000Y-104250000D01*
X132435000Y-108900000D02*
X131165000Y-108900000D01*
%TO.C,C12*%
X120358000Y-88246000D02*
X121958000Y-88246000D01*
X121958000Y-89046000D02*
X120358000Y-89046000D01*
X120358000Y-89046000D02*
X120358000Y-88246000D01*
X121958000Y-88246000D02*
X121958000Y-89046000D01*
%TO.C,D1*%
X134635000Y-83100000D02*
X139715000Y-83100000D01*
X141065000Y-83100000D02*
G75*
G03*
X141065000Y-83100000I-1350000J0D01*
G01*
%TO.C,J6*%
X145975000Y-88075000D02*
X145975000Y-95475000D01*
X145975000Y-95475000D02*
X151725000Y-95475000D01*
X151725000Y-88075000D02*
X145975000Y-88075000D01*
X145975000Y-93650000D02*
X146975000Y-93025000D01*
X151725000Y-95475000D02*
X151725000Y-88075000D01*
X146975000Y-93025000D02*
X145975000Y-92400000D01*
%TO.C,R23*%
X117760500Y-89878000D02*
X117760500Y-91478000D01*
X116935500Y-91478000D02*
X116935500Y-89878000D01*
X116935500Y-89878000D02*
X117760500Y-89878000D01*
X117760500Y-91478000D02*
X116935500Y-91478000D01*
%TO.C,R18*%
X114846000Y-87788500D02*
X113246000Y-87788500D01*
X113246000Y-87788500D02*
X113246000Y-86963500D01*
X113246000Y-86963500D02*
X114846000Y-86963500D01*
X114846000Y-86963500D02*
X114846000Y-87788500D01*
%TO.C,C1*%
X140950000Y-115419236D02*
X140950000Y-114619236D01*
X142550000Y-115419236D02*
X140950000Y-115419236D01*
X140950000Y-114619236D02*
X142550000Y-114619236D01*
X142550000Y-114619236D02*
X142550000Y-115419236D01*
%TO.C,C6*%
X140950000Y-103150000D02*
X140950000Y-102350000D01*
X142550000Y-102350000D02*
X142550000Y-103150000D01*
X142550000Y-103150000D02*
X140950000Y-103150000D01*
X140950000Y-102350000D02*
X142550000Y-102350000D01*
%TO.C,J8*%
X112171000Y-107930000D02*
X111171000Y-107305000D01*
X111171000Y-110380000D02*
X116921000Y-110380000D01*
X116921000Y-110380000D02*
X116921000Y-102980000D01*
X116921000Y-102980000D02*
X111171000Y-102980000D01*
X111171000Y-108555000D02*
X112171000Y-107930000D01*
X111171000Y-102980000D02*
X111171000Y-110380000D01*
%TO.C,R20*%
X118148000Y-99980500D02*
X116548000Y-99980500D01*
X116548000Y-99980500D02*
X116548000Y-99155500D01*
X116548000Y-99155500D02*
X118148000Y-99155500D01*
X118148000Y-99155500D02*
X118148000Y-99980500D01*
%TO.C,C7*%
X140950000Y-100100000D02*
X142550000Y-100100000D01*
X142550000Y-100900000D02*
X140950000Y-100900000D01*
X140950000Y-100900000D02*
X140950000Y-100100000D01*
X142550000Y-100100000D02*
X142550000Y-100900000D01*
%TO.C,Q1*%
X137525000Y-103050000D02*
X136550000Y-103050000D01*
X136550000Y-100150000D02*
X137850000Y-100150000D01*
X137850000Y-100150000D02*
X137850000Y-102725000D01*
X137850000Y-102725000D02*
X137525000Y-103050000D01*
X136550000Y-103050000D02*
X136550000Y-100150000D01*
%TO.C,C18*%
X124892000Y-101006000D02*
X125692000Y-101806000D01*
X128092000Y-101806000D02*
X128092000Y-95806000D01*
X124892000Y-95806000D02*
X124892000Y-101006000D01*
X128092000Y-95806000D02*
X124892000Y-95806000D01*
X125692000Y-101806000D02*
X128092000Y-101806000D01*
%TO.C,R11*%
X133800000Y-98175000D02*
X135800000Y-98175000D01*
X135800000Y-99425000D02*
X133800000Y-99425000D01*
X133800000Y-99425000D02*
X133800000Y-98175000D01*
X135800000Y-98175000D02*
X135800000Y-99425000D01*
%TO.C,C10*%
X134582000Y-86506000D02*
X134582000Y-85706000D01*
X136182000Y-85706000D02*
X136182000Y-86506000D01*
X136182000Y-86506000D02*
X134582000Y-86506000D01*
X134582000Y-85706000D02*
X136182000Y-85706000D01*
%TO.C,R21*%
X123287500Y-99300000D02*
X124112500Y-99300000D01*
X124112500Y-100900000D02*
X123287500Y-100900000D01*
X123287500Y-100900000D02*
X123287500Y-99300000D01*
X124112500Y-99300000D02*
X124112500Y-100900000D01*
%TO.C,U2*%
X122420987Y-94955995D02*
X122121013Y-94955995D01*
X118845999Y-90681013D02*
X118845999Y-90980987D01*
X121770987Y-95056000D02*
X121770987Y-94955995D01*
X119521013Y-95056000D02*
X119820987Y-95056000D01*
X123421013Y-89856000D02*
X123421013Y-89956005D01*
X122121013Y-95056000D02*
X122420987Y-95056000D01*
X120470987Y-89856000D02*
X120171013Y-89856000D01*
X123421013Y-94955995D02*
X123421013Y-95056000D01*
X123720987Y-89956005D02*
X123720987Y-89856000D01*
X120821013Y-95056000D02*
X121120987Y-95056000D01*
X119521013Y-94955995D02*
X119521013Y-95056000D01*
X118945998Y-92930987D02*
X118945998Y-92631013D01*
X124946002Y-92280987D02*
X125046001Y-92280987D01*
X120470987Y-95056000D02*
X120470987Y-94955995D01*
X118845999Y-92280987D02*
X118945998Y-92280987D01*
X124946002Y-90681013D02*
X124946002Y-90980987D01*
X124946002Y-94230987D02*
X125046001Y-94230987D01*
X121770987Y-94955995D02*
X121471013Y-94955995D01*
X118845999Y-92930987D02*
X118945998Y-92930987D01*
X124071013Y-89956005D02*
X124370987Y-89956005D01*
X118945998Y-90681013D02*
X118845999Y-90681013D01*
X123720987Y-89856000D02*
X123421013Y-89856000D01*
X125046001Y-91630987D02*
X125046001Y-91331013D01*
X118845999Y-91331013D02*
X118845999Y-91630987D01*
X124071013Y-95056000D02*
X124370987Y-95056000D01*
X120171013Y-95056000D02*
X120470987Y-95056000D01*
X119820987Y-95056000D02*
X119820987Y-94955995D01*
X121471013Y-95056000D02*
X121770987Y-95056000D01*
X119820987Y-89956005D02*
X119820987Y-89856000D01*
X119820987Y-94955995D02*
X119521013Y-94955995D01*
X118945998Y-90980987D02*
X118945998Y-90681013D01*
X118845999Y-93931013D02*
X118845999Y-94230987D01*
X118845999Y-92631013D02*
X118845999Y-92930987D01*
X124946002Y-93580987D02*
X125046001Y-93580987D01*
X121120987Y-94955995D02*
X120821013Y-94955995D01*
X118845999Y-93281013D02*
X118845999Y-93580987D01*
X118845999Y-90980987D02*
X118945998Y-90980987D01*
X124946002Y-92631013D02*
X124946002Y-92930987D01*
X118945998Y-91981013D02*
X118845999Y-91981013D01*
X121471013Y-89856000D02*
X121471013Y-89956005D01*
X124946002Y-91981013D02*
X124946002Y-92280987D01*
X120171013Y-89956005D02*
X120470987Y-89956005D01*
X124370987Y-89956005D02*
X124370987Y-89856000D01*
X123720987Y-95056000D02*
X123720987Y-94955995D01*
X118845999Y-91630987D02*
X118945998Y-91630987D01*
X121770987Y-89956005D02*
X121770987Y-89856000D01*
X124946002Y-93931013D02*
X124946002Y-94230987D01*
X124946002Y-90980987D02*
X125046001Y-90980987D01*
X121120987Y-89856000D02*
X120821013Y-89856000D01*
X118845999Y-93580987D02*
X118945998Y-93580987D01*
X124946002Y-94955995D02*
X124946002Y-89956005D01*
X118945998Y-93580987D02*
X118945998Y-93281013D01*
X125046001Y-92631013D02*
X124946002Y-92631013D01*
X125046001Y-90980987D02*
X125046001Y-90681013D01*
X125046001Y-93580987D02*
X125046001Y-93281013D01*
X121770987Y-89856000D02*
X121471013Y-89856000D01*
X120171013Y-89856000D02*
X120171013Y-89956005D01*
X121120987Y-95056000D02*
X121120987Y-94955995D01*
X125046001Y-90681013D02*
X124946002Y-90681013D01*
X120470987Y-89956005D02*
X120470987Y-89856000D01*
X122121013Y-94955995D02*
X122121013Y-95056000D01*
X124946002Y-91630987D02*
X125046001Y-91630987D01*
X124946002Y-91331013D02*
X124946002Y-91630987D01*
X125046001Y-93281013D02*
X124946002Y-93281013D01*
X125046001Y-91331013D02*
X124946002Y-91331013D01*
X122771013Y-89856000D02*
X122771013Y-89956005D01*
X125046001Y-93931013D02*
X124946002Y-93931013D01*
X124946002Y-92930987D02*
X125046001Y-92930987D01*
X123070987Y-89956005D02*
X123070987Y-89856000D01*
X119521013Y-89956005D02*
X119820987Y-89956005D01*
X124370987Y-94955995D02*
X124071013Y-94955995D01*
X119521013Y-89856000D02*
X119521013Y-89956005D01*
X125046001Y-94230987D02*
X125046001Y-93931013D01*
X121471013Y-94955995D02*
X121471013Y-95056000D01*
X123421013Y-95056000D02*
X123720987Y-95056000D01*
X120171013Y-94955995D02*
X120171013Y-95056000D01*
X121120987Y-89956005D02*
X121120987Y-89856000D01*
X124946002Y-89956005D02*
X118945998Y-89956005D01*
X123070987Y-89856000D02*
X122771013Y-89856000D01*
X122420987Y-89956005D02*
X122420987Y-89856000D01*
X122771013Y-95056000D02*
X123070987Y-95056000D01*
X118945998Y-92280987D02*
X118945998Y-91981013D01*
X119820987Y-89856000D02*
X119521013Y-89856000D01*
X118945998Y-91331013D02*
X118845999Y-91331013D01*
X118845999Y-91981013D02*
X118845999Y-92280987D01*
X118845999Y-94230987D02*
X118945998Y-94230987D01*
X118945998Y-93281013D02*
X118845999Y-93281013D01*
X123421013Y-89956005D02*
X123720987Y-89956005D01*
X120821013Y-94955995D02*
X120821013Y-95056000D01*
X122121013Y-89956005D02*
X122420987Y-89956005D01*
X120470987Y-94955995D02*
X120171013Y-94955995D01*
X125046001Y-92930987D02*
X125046001Y-92631013D01*
X123720987Y-94955995D02*
X123421013Y-94955995D01*
X124071013Y-94955995D02*
X124071013Y-95056000D01*
X122121013Y-89856000D02*
X122121013Y-89956005D01*
X120821013Y-89856000D02*
X120821013Y-89956005D01*
X121471013Y-89956005D02*
X121770987Y-89956005D01*
X125046001Y-92280987D02*
X125046001Y-91981013D01*
X118945998Y-94230987D02*
X118945998Y-93931013D01*
X124370987Y-89856000D02*
X124071013Y-89856000D01*
X118945998Y-92631013D02*
X118845999Y-92631013D01*
X122420987Y-89856000D02*
X122121013Y-89856000D01*
X124071013Y-89856000D02*
X124071013Y-89956005D01*
X124370987Y-95056000D02*
X124370987Y-94955995D01*
X122771013Y-94955995D02*
X122771013Y-95056000D01*
X124946002Y-93281013D02*
X124946002Y-93580987D01*
X118945998Y-89956005D02*
X118945998Y-94955995D01*
X123070987Y-94955995D02*
X122771013Y-94955995D01*
X125046001Y-91981013D02*
X124946002Y-91981013D01*
X120821013Y-89956005D02*
X121120987Y-89956005D01*
X118945998Y-91630987D02*
X118945998Y-91331013D01*
X118945998Y-93931013D02*
X118845999Y-93931013D01*
X120215998Y-94955995D02*
X118945998Y-93685995D01*
X122420987Y-95056000D02*
X122420987Y-94955995D01*
X122771013Y-89956005D02*
X123070987Y-89956005D01*
X118945998Y-94955995D02*
X124946002Y-94955995D01*
X123070987Y-95056000D02*
X123070987Y-94955995D01*
%TO.C,C9*%
X136100000Y-106300000D02*
X136100000Y-104700000D01*
X136100000Y-104700000D02*
X136900000Y-104700000D01*
X136900000Y-106300000D02*
X136100000Y-106300000D01*
X136900000Y-104700000D02*
X136900000Y-106300000D01*
%TO.C,D2*%
X131365000Y-85600000D02*
X126285000Y-85600000D01*
X127635000Y-85600000D02*
G75*
G03*
X127635000Y-85600000I-1350000J0D01*
G01*
%TO.C,C8*%
X138350000Y-104700000D02*
X139150000Y-104700000D01*
X138350000Y-106300000D02*
X138350000Y-104700000D01*
X139150000Y-106300000D02*
X138350000Y-106300000D01*
X139150000Y-104700000D02*
X139150000Y-106300000D01*
%TO.C,R9*%
X136500000Y-111300000D02*
X135675000Y-111300000D01*
X135675000Y-109700000D02*
X136500000Y-109700000D01*
X136500000Y-109700000D02*
X136500000Y-111300000D01*
X135675000Y-111300000D02*
X135675000Y-109700000D01*
%TO.C,R13*%
X132600000Y-102175000D02*
X134600000Y-102175000D01*
X132600000Y-103425000D02*
X132600000Y-102175000D01*
X134600000Y-103425000D02*
X132600000Y-103425000D01*
X134600000Y-102175000D02*
X134600000Y-103425000D01*
%TO.C,C3*%
X142550000Y-109600000D02*
X142550000Y-110400000D01*
X142550000Y-110400000D02*
X140950000Y-110400000D01*
X140950000Y-109600000D02*
X142550000Y-109600000D01*
X140950000Y-110400000D02*
X140950000Y-109600000D01*
%TO.C,TH1*%
X128175000Y-107400000D02*
X129425000Y-107400000D01*
X129425000Y-107400000D02*
X129425000Y-109400000D01*
X129425000Y-109400000D02*
X128175000Y-109400000D01*
X128175000Y-109400000D02*
X128175000Y-107400000D01*
%TO.C,C5*%
X142550000Y-104600000D02*
X142550000Y-105400000D01*
X140950000Y-105400000D02*
X140950000Y-104600000D01*
X142550000Y-105400000D02*
X140950000Y-105400000D01*
X140950000Y-104600000D02*
X142550000Y-104600000D01*
%TO.C,C4*%
X142550000Y-107900000D02*
X140950000Y-107900000D01*
X142550000Y-107100000D02*
X142550000Y-107900000D01*
X140950000Y-107100000D02*
X142550000Y-107100000D01*
X140950000Y-107900000D02*
X140950000Y-107100000D01*
%TO.C,R15*%
X132600000Y-100175000D02*
X134600000Y-100175000D01*
X134600000Y-100175000D02*
X134600000Y-101425000D01*
X134600000Y-101425000D02*
X132600000Y-101425000D01*
X132600000Y-101425000D02*
X132600000Y-100175000D01*
%TO.C,J9*%
X119150000Y-111875000D02*
X119150000Y-117625000D01*
X126550000Y-111875000D02*
X119150000Y-111875000D01*
X124725000Y-117625000D02*
X124100000Y-116625000D01*
X119150000Y-117625000D02*
X126550000Y-117625000D01*
X124100000Y-116625000D02*
X123475000Y-117625000D01*
X126550000Y-117625000D02*
X126550000Y-111875000D01*
%TO.C,D4*%
X117176000Y-87284000D02*
X117176000Y-88984000D01*
X118526000Y-86784000D02*
X118526000Y-88984000D01*
X117676000Y-86784000D02*
X117176000Y-87284000D01*
X118526000Y-86784000D02*
X117676000Y-86784000D01*
X118526000Y-88984000D02*
X117176000Y-88984000D01*
%TO.C,R19*%
X123856500Y-86068000D02*
X123856500Y-87668000D01*
X123856500Y-87668000D02*
X123031500Y-87668000D01*
X123031500Y-87668000D02*
X123031500Y-86068000D01*
X123031500Y-86068000D02*
X123856500Y-86068000D01*
%TO.C,R17*%
X143125000Y-91550000D02*
X141125000Y-91550000D01*
X141125000Y-91550000D02*
X141125000Y-90300000D01*
X141125000Y-90300000D02*
X143125000Y-90300000D01*
X143125000Y-90300000D02*
X143125000Y-91550000D01*
%TO.C,J2*%
X148978764Y-99960836D02*
X149978764Y-100585836D01*
X149978764Y-97510836D02*
X144228764Y-97510836D01*
X149978764Y-99335836D02*
X148978764Y-99960836D01*
X144228764Y-97510836D02*
X144228764Y-117410836D01*
X149978764Y-117410836D02*
X149978764Y-97510836D01*
X144228764Y-117410836D02*
X149978764Y-117410836D01*
%TO.C,J7*%
X126525000Y-77425000D02*
X127150000Y-78425000D01*
X124700000Y-83175000D02*
X132100000Y-83175000D01*
X132100000Y-83175000D02*
X132100000Y-77425000D01*
X127150000Y-78425000D02*
X127775000Y-77425000D01*
X124700000Y-77425000D02*
X124700000Y-83175000D01*
X132100000Y-77425000D02*
X124700000Y-77425000D01*
%TO.C,R8*%
X139200000Y-98175000D02*
X139200000Y-99425000D01*
X139200000Y-99425000D02*
X137200000Y-99425000D01*
X137200000Y-99425000D02*
X137200000Y-98175000D01*
X137200000Y-98175000D02*
X139200000Y-98175000D01*
%TO.C,R10*%
X134000000Y-113875000D02*
X134000000Y-112625000D01*
X136000000Y-113875000D02*
X134000000Y-113875000D01*
X134000000Y-112625000D02*
X136000000Y-112625000D01*
X136000000Y-112625000D02*
X136000000Y-113875000D01*
%TO.C,C25*%
X117640000Y-93072000D02*
X117640000Y-93872000D01*
X116040000Y-93072000D02*
X117640000Y-93072000D01*
X117640000Y-93872000D02*
X116040000Y-93872000D01*
X116040000Y-93872000D02*
X116040000Y-93072000D01*
%TO.C,R22*%
X120612000Y-98901500D02*
X122212000Y-98901500D01*
X120612000Y-99726500D02*
X120612000Y-98901500D01*
X122212000Y-99726500D02*
X120612000Y-99726500D01*
X122212000Y-98901500D02*
X122212000Y-99726500D01*
%TO.C,C2*%
X142550000Y-112600000D02*
X142550000Y-113400000D01*
X140950000Y-112600000D02*
X142550000Y-112600000D01*
X142550000Y-113400000D02*
X140950000Y-113400000D01*
X140950000Y-113400000D02*
X140950000Y-112600000D01*
%TO.C,R12*%
X133175000Y-109700000D02*
X134000000Y-109700000D01*
X134000000Y-109700000D02*
X134000000Y-111300000D01*
X133175000Y-111300000D02*
X133175000Y-109700000D01*
X134000000Y-111300000D02*
X133175000Y-111300000D01*
%TO.C,C15*%
X120612000Y-101250000D02*
X120612000Y-100450000D01*
X122212000Y-101250000D02*
X120612000Y-101250000D01*
X120612000Y-100450000D02*
X122212000Y-100450000D01*
X122212000Y-100450000D02*
X122212000Y-101250000D01*
%TO.C,C14*%
X116548000Y-98444000D02*
X116548000Y-97644000D01*
X118148000Y-98444000D02*
X116548000Y-98444000D01*
X118148000Y-97644000D02*
X118148000Y-98444000D01*
X116548000Y-97644000D02*
X118148000Y-97644000D01*
%TO.C,J10*%
X118000000Y-117683000D02*
X118000000Y-111933000D01*
X110600000Y-117683000D02*
X118000000Y-117683000D01*
X110600000Y-111933000D02*
X110600000Y-117683000D01*
X118000000Y-111933000D02*
X110600000Y-111933000D01*
X116175000Y-117683000D02*
X115550000Y-116683000D01*
X115550000Y-116683000D02*
X114925000Y-117683000D01*
%TO.C,D3*%
X112538000Y-90262000D02*
X114538000Y-90262000D01*
X114538000Y-90262000D02*
X114538000Y-89062000D01*
X112838000Y-89062000D02*
X112538000Y-89362000D01*
X112538000Y-89362000D02*
X112538000Y-90262000D01*
X114538000Y-89062000D02*
X112838000Y-89062000D01*
%TO.C,C17*%
X131050000Y-97575000D02*
X131050000Y-99175000D01*
X130250000Y-99175000D02*
X130250000Y-97575000D01*
X131050000Y-99175000D02*
X130250000Y-99175000D01*
X130250000Y-97575000D02*
X131050000Y-97575000D01*
%TO.C,C11*%
X116815000Y-95650000D02*
X116815000Y-94850000D01*
X116815000Y-94850000D02*
X118415000Y-94850000D01*
X118415000Y-94850000D02*
X118415000Y-95650000D01*
X118415000Y-95650000D02*
X116815000Y-95650000D01*
%TO.C,C16*%
X128750000Y-97575000D02*
X129550000Y-97575000D01*
X128750000Y-99175000D02*
X128750000Y-97575000D01*
X129550000Y-99175000D02*
X128750000Y-99175000D01*
X129550000Y-97575000D02*
X129550000Y-99175000D01*
%TD*%
M02*
