%TF.GenerationSoftware,KiCad,Pcbnew,6.0.1-79c1e3a40b~116~ubuntu21.10.1*%
%TF.CreationDate,2022-03-15T20:57:31-06:00*%
%TF.ProjectId,PowerBackup,506f7765-7242-4616-936b-75702e6b6963,rev?*%
%TF.SameCoordinates,Original*%
%TF.FileFunction,AssemblyDrawing,Bot*%
%FSLAX46Y46*%
G04 Gerber Fmt 4.6, Leading zero omitted, Abs format (unit mm)*
G04 Created by KiCad (PCBNEW 6.0.1-79c1e3a40b~116~ubuntu21.10.1) date 2022-03-15 20:57:31*
%MOMM*%
%LPD*%
G01*
G04 APERTURE LIST*
%ADD10C,0.150000*%
%ADD11C,0.060000*%
%ADD12C,0.080000*%
%ADD13C,0.100000*%
G04 APERTURE END LIST*
D10*
%TO.C,C22*%
X114118571Y-105327523D02*
X114651904Y-105327523D01*
X113813809Y-105137047D02*
X114385238Y-104946571D01*
X114385238Y-105441809D01*
X113851904Y-105670380D02*
X113851904Y-106203714D01*
X114651904Y-105860857D01*
X114118571Y-106851333D02*
X114651904Y-106851333D01*
X114118571Y-106508476D02*
X114537619Y-106508476D01*
X114613809Y-106546571D01*
X114651904Y-106622761D01*
X114651904Y-106737047D01*
X114613809Y-106813238D01*
X114575714Y-106851333D01*
X117125714Y-105403714D02*
X117163809Y-105365619D01*
X117201904Y-105251333D01*
X117201904Y-105175142D01*
X117163809Y-105060857D01*
X117087619Y-104984666D01*
X117011428Y-104946571D01*
X116859047Y-104908476D01*
X116744761Y-104908476D01*
X116592380Y-104946571D01*
X116516190Y-104984666D01*
X116440000Y-105060857D01*
X116401904Y-105175142D01*
X116401904Y-105251333D01*
X116440000Y-105365619D01*
X116478095Y-105403714D01*
X116478095Y-105708476D02*
X116440000Y-105746571D01*
X116401904Y-105822761D01*
X116401904Y-106013238D01*
X116440000Y-106089428D01*
X116478095Y-106127523D01*
X116554285Y-106165619D01*
X116630476Y-106165619D01*
X116744761Y-106127523D01*
X117201904Y-105670380D01*
X117201904Y-106165619D01*
X116478095Y-106470380D02*
X116440000Y-106508476D01*
X116401904Y-106584666D01*
X116401904Y-106775142D01*
X116440000Y-106851333D01*
X116478095Y-106889428D01*
X116554285Y-106927523D01*
X116630476Y-106927523D01*
X116744761Y-106889428D01*
X117201904Y-106432285D01*
X117201904Y-106927523D01*
%TO.C,J1*%
X143159335Y-84891750D02*
X143197430Y-84929845D01*
X143311716Y-84967940D01*
X143387906Y-84967940D01*
X143502192Y-84929845D01*
X143578383Y-84853655D01*
X143616478Y-84777464D01*
X143654573Y-84625083D01*
X143654573Y-84510797D01*
X143616478Y-84358416D01*
X143578383Y-84282226D01*
X143502192Y-84206036D01*
X143387906Y-84167940D01*
X143311716Y-84167940D01*
X143197430Y-84206036D01*
X143159335Y-84244131D01*
X142702192Y-84967940D02*
X142778383Y-84929845D01*
X142816478Y-84891750D01*
X142854573Y-84815559D01*
X142854573Y-84586988D01*
X142816478Y-84510797D01*
X142778383Y-84472702D01*
X142702192Y-84434607D01*
X142587906Y-84434607D01*
X142511716Y-84472702D01*
X142473621Y-84510797D01*
X142435525Y-84586988D01*
X142435525Y-84815559D01*
X142473621Y-84891750D01*
X142511716Y-84929845D01*
X142587906Y-84967940D01*
X142702192Y-84967940D01*
X142092668Y-84434607D02*
X142092668Y-84967940D01*
X142092668Y-84510797D02*
X142054573Y-84472702D01*
X141978383Y-84434607D01*
X141864097Y-84434607D01*
X141787906Y-84472702D01*
X141749811Y-84548893D01*
X141749811Y-84967940D01*
X141368859Y-84434607D02*
X141368859Y-84967940D01*
X141368859Y-84510797D02*
X141330764Y-84472702D01*
X141254573Y-84434607D01*
X141140287Y-84434607D01*
X141064097Y-84472702D01*
X141026002Y-84548893D01*
X141026002Y-84967940D01*
X140835525Y-85044131D02*
X140226002Y-85044131D01*
X139883144Y-84167940D02*
X139806954Y-84167940D01*
X139730764Y-84206036D01*
X139692668Y-84244131D01*
X139654573Y-84320321D01*
X139616478Y-84472702D01*
X139616478Y-84663178D01*
X139654573Y-84815559D01*
X139692668Y-84891750D01*
X139730764Y-84929845D01*
X139806954Y-84967940D01*
X139883144Y-84967940D01*
X139959335Y-84929845D01*
X139997430Y-84891750D01*
X140035525Y-84815559D01*
X140073621Y-84663178D01*
X140073621Y-84472702D01*
X140035525Y-84320321D01*
X139997430Y-84244131D01*
X139959335Y-84206036D01*
X139883144Y-84167940D01*
X138854573Y-84967940D02*
X139311716Y-84967940D01*
X139083144Y-84967940D02*
X139083144Y-84167940D01*
X139159335Y-84282226D01*
X139235525Y-84358416D01*
X139311716Y-84396512D01*
X138587906Y-84967940D02*
X138168859Y-84434607D01*
X138587906Y-84434607D02*
X138168859Y-84967940D01*
X137711716Y-84167940D02*
X137635525Y-84167940D01*
X137559335Y-84206036D01*
X137521240Y-84244131D01*
X137483144Y-84320321D01*
X137445049Y-84472702D01*
X137445049Y-84663178D01*
X137483144Y-84815559D01*
X137521240Y-84891750D01*
X137559335Y-84929845D01*
X137635525Y-84967940D01*
X137711716Y-84967940D01*
X137787906Y-84929845D01*
X137826002Y-84891750D01*
X137864097Y-84815559D01*
X137902192Y-84663178D01*
X137902192Y-84472702D01*
X137864097Y-84320321D01*
X137826002Y-84244131D01*
X137787906Y-84206036D01*
X137711716Y-84167940D01*
X137140287Y-84244131D02*
X137102192Y-84206036D01*
X137026002Y-84167940D01*
X136835525Y-84167940D01*
X136759335Y-84206036D01*
X136721240Y-84244131D01*
X136683144Y-84320321D01*
X136683144Y-84396512D01*
X136721240Y-84510797D01*
X137178383Y-84967940D01*
X136683144Y-84967940D01*
X136530764Y-85044131D02*
X135921240Y-85044131D01*
X135464097Y-84548893D02*
X135730764Y-84548893D01*
X135730764Y-84967940D02*
X135730764Y-84167940D01*
X135349811Y-84167940D01*
X134740287Y-84929845D02*
X134816478Y-84967940D01*
X134968859Y-84967940D01*
X135045049Y-84929845D01*
X135083144Y-84853655D01*
X135083144Y-84548893D01*
X135045049Y-84472702D01*
X134968859Y-84434607D01*
X134816478Y-84434607D01*
X134740287Y-84472702D01*
X134702192Y-84548893D01*
X134702192Y-84625083D01*
X135083144Y-84701274D01*
X134359335Y-84967940D02*
X134359335Y-84434607D01*
X134359335Y-84510797D02*
X134321240Y-84472702D01*
X134245049Y-84434607D01*
X134130764Y-84434607D01*
X134054573Y-84472702D01*
X134016478Y-84548893D01*
X134016478Y-84967940D01*
X134016478Y-84548893D02*
X133978383Y-84472702D01*
X133902192Y-84434607D01*
X133787906Y-84434607D01*
X133711716Y-84472702D01*
X133673621Y-84548893D01*
X133673621Y-84967940D01*
X132949811Y-84967940D02*
X132949811Y-84548893D01*
X132987906Y-84472702D01*
X133064097Y-84434607D01*
X133216478Y-84434607D01*
X133292668Y-84472702D01*
X132949811Y-84929845D02*
X133026002Y-84967940D01*
X133216478Y-84967940D01*
X133292668Y-84929845D01*
X133330764Y-84853655D01*
X133330764Y-84777464D01*
X133292668Y-84701274D01*
X133216478Y-84663178D01*
X133026002Y-84663178D01*
X132949811Y-84625083D01*
X132454573Y-84967940D02*
X132530764Y-84929845D01*
X132568859Y-84853655D01*
X132568859Y-84167940D01*
X131845049Y-84929845D02*
X131921240Y-84967940D01*
X132073621Y-84967940D01*
X132149811Y-84929845D01*
X132187906Y-84853655D01*
X132187906Y-84548893D01*
X132149811Y-84472702D01*
X132073621Y-84434607D01*
X131921240Y-84434607D01*
X131845049Y-84472702D01*
X131806954Y-84548893D01*
X131806954Y-84625083D01*
X132187906Y-84701274D01*
X138970666Y-82271904D02*
X138970666Y-82843333D01*
X139008761Y-82957619D01*
X139084952Y-83033809D01*
X139199238Y-83071904D01*
X139275428Y-83071904D01*
X138170666Y-83071904D02*
X138627809Y-83071904D01*
X138399238Y-83071904D02*
X138399238Y-82271904D01*
X138475428Y-82386190D01*
X138551619Y-82462380D01*
X138627809Y-82500476D01*
%TO.C,C20*%
X115080952Y-118352571D02*
X115080952Y-118885904D01*
X115271428Y-118047809D02*
X115461904Y-118619238D01*
X114966666Y-118619238D01*
X114661904Y-118809714D02*
X114623809Y-118847809D01*
X114661904Y-118885904D01*
X114700000Y-118847809D01*
X114661904Y-118809714D01*
X114661904Y-118885904D01*
X114357142Y-118085904D02*
X113823809Y-118085904D01*
X114166666Y-118885904D01*
X113176190Y-118352571D02*
X113176190Y-118885904D01*
X113519047Y-118352571D02*
X113519047Y-118771619D01*
X113480952Y-118847809D01*
X113404761Y-118885904D01*
X113290476Y-118885904D01*
X113214285Y-118847809D01*
X113176190Y-118809714D01*
D11*
X114557142Y-117236857D02*
X114576190Y-117255904D01*
X114633333Y-117274952D01*
X114671428Y-117274952D01*
X114728571Y-117255904D01*
X114766666Y-117217809D01*
X114785714Y-117179714D01*
X114804761Y-117103523D01*
X114804761Y-117046380D01*
X114785714Y-116970190D01*
X114766666Y-116932095D01*
X114728571Y-116894000D01*
X114671428Y-116874952D01*
X114633333Y-116874952D01*
X114576190Y-116894000D01*
X114557142Y-116913047D01*
X114404761Y-116913047D02*
X114385714Y-116894000D01*
X114347619Y-116874952D01*
X114252380Y-116874952D01*
X114214285Y-116894000D01*
X114195238Y-116913047D01*
X114176190Y-116951142D01*
X114176190Y-116989238D01*
X114195238Y-117046380D01*
X114423809Y-117274952D01*
X114176190Y-117274952D01*
X113928571Y-116874952D02*
X113890476Y-116874952D01*
X113852380Y-116894000D01*
X113833333Y-116913047D01*
X113814285Y-116951142D01*
X113795238Y-117027333D01*
X113795238Y-117122571D01*
X113814285Y-117198761D01*
X113833333Y-117236857D01*
X113852380Y-117255904D01*
X113890476Y-117274952D01*
X113928571Y-117274952D01*
X113966666Y-117255904D01*
X113985714Y-117236857D01*
X114004761Y-117198761D01*
X114023809Y-117122571D01*
X114023809Y-117027333D01*
X114004761Y-116951142D01*
X113985714Y-116913047D01*
X113966666Y-116894000D01*
X113928571Y-116874952D01*
D10*
%TO.C,R25*%
X123176190Y-85977619D02*
X123128571Y-85930000D01*
X123033333Y-85882380D01*
X122795238Y-85882380D01*
X122700000Y-85930000D01*
X122652380Y-85977619D01*
X122604761Y-86072857D01*
X122604761Y-86168095D01*
X122652380Y-86310952D01*
X123223809Y-86882380D01*
X122604761Y-86882380D01*
X122176190Y-86787142D02*
X122128571Y-86834761D01*
X122176190Y-86882380D01*
X122223809Y-86834761D01*
X122176190Y-86787142D01*
X122176190Y-86882380D01*
X121747619Y-85977619D02*
X121700000Y-85930000D01*
X121604761Y-85882380D01*
X121366666Y-85882380D01*
X121271428Y-85930000D01*
X121223809Y-85977619D01*
X121176190Y-86072857D01*
X121176190Y-86168095D01*
X121223809Y-86310952D01*
X121795238Y-86882380D01*
X121176190Y-86882380D01*
X120223809Y-86882380D02*
X120795238Y-86882380D01*
X120509523Y-86882380D02*
X120509523Y-85882380D01*
X120604761Y-86025238D01*
X120700000Y-86120476D01*
X120795238Y-86168095D01*
X119223809Y-86882380D02*
X119557142Y-86406190D01*
X119795238Y-86882380D02*
X119795238Y-85882380D01*
X119414285Y-85882380D01*
X119319047Y-85930000D01*
X119271428Y-85977619D01*
X119223809Y-86072857D01*
X119223809Y-86215714D01*
X119271428Y-86310952D01*
X119319047Y-86358571D01*
X119414285Y-86406190D01*
X119795238Y-86406190D01*
D11*
X121457142Y-85180952D02*
X121590476Y-84990476D01*
X121685714Y-85180952D02*
X121685714Y-84780952D01*
X121533333Y-84780952D01*
X121495238Y-84800000D01*
X121476190Y-84819047D01*
X121457142Y-84857142D01*
X121457142Y-84914285D01*
X121476190Y-84952380D01*
X121495238Y-84971428D01*
X121533333Y-84990476D01*
X121685714Y-84990476D01*
X121304761Y-84819047D02*
X121285714Y-84800000D01*
X121247619Y-84780952D01*
X121152380Y-84780952D01*
X121114285Y-84800000D01*
X121095238Y-84819047D01*
X121076190Y-84857142D01*
X121076190Y-84895238D01*
X121095238Y-84952380D01*
X121323809Y-85180952D01*
X121076190Y-85180952D01*
X120714285Y-84780952D02*
X120904761Y-84780952D01*
X120923809Y-84971428D01*
X120904761Y-84952380D01*
X120866666Y-84933333D01*
X120771428Y-84933333D01*
X120733333Y-84952380D01*
X120714285Y-84971428D01*
X120695238Y-85009523D01*
X120695238Y-85104761D01*
X120714285Y-85142857D01*
X120733333Y-85161904D01*
X120771428Y-85180952D01*
X120866666Y-85180952D01*
X120904761Y-85161904D01*
X120923809Y-85142857D01*
D10*
%TO.C,R1*%
X144783333Y-102011904D02*
X145240476Y-102011904D01*
X145011904Y-102011904D02*
X145011904Y-101211904D01*
X145088095Y-101326190D01*
X145164285Y-101402380D01*
X145240476Y-101440476D01*
X144288095Y-101211904D02*
X144211904Y-101211904D01*
X144135714Y-101250000D01*
X144097619Y-101288095D01*
X144059523Y-101364285D01*
X144021428Y-101516666D01*
X144021428Y-101707142D01*
X144059523Y-101859523D01*
X144097619Y-101935714D01*
X144135714Y-101973809D01*
X144211904Y-102011904D01*
X144288095Y-102011904D01*
X144364285Y-101973809D01*
X144402380Y-101935714D01*
X144440476Y-101859523D01*
X144478571Y-101707142D01*
X144478571Y-101516666D01*
X144440476Y-101364285D01*
X144402380Y-101288095D01*
X144364285Y-101250000D01*
X144288095Y-101211904D01*
X143526190Y-101211904D02*
X143450000Y-101211904D01*
X143373809Y-101250000D01*
X143335714Y-101288095D01*
X143297619Y-101364285D01*
X143259523Y-101516666D01*
X143259523Y-101707142D01*
X143297619Y-101859523D01*
X143335714Y-101935714D01*
X143373809Y-101973809D01*
X143450000Y-102011904D01*
X143526190Y-102011904D01*
X143602380Y-101973809D01*
X143640476Y-101935714D01*
X143678571Y-101859523D01*
X143716666Y-101707142D01*
X143716666Y-101516666D01*
X143678571Y-101364285D01*
X143640476Y-101288095D01*
X143602380Y-101250000D01*
X143526190Y-101211904D01*
D12*
X144333333Y-100226190D02*
X144500000Y-99988095D01*
X144619047Y-100226190D02*
X144619047Y-99726190D01*
X144428571Y-99726190D01*
X144380952Y-99750000D01*
X144357142Y-99773809D01*
X144333333Y-99821428D01*
X144333333Y-99892857D01*
X144357142Y-99940476D01*
X144380952Y-99964285D01*
X144428571Y-99988095D01*
X144619047Y-99988095D01*
X143857142Y-100226190D02*
X144142857Y-100226190D01*
X144000000Y-100226190D02*
X144000000Y-99726190D01*
X144047619Y-99797619D01*
X144095238Y-99845238D01*
X144142857Y-99869047D01*
D10*
%TO.C,R7*%
X144886833Y-114457904D02*
X145343976Y-114457904D01*
X145115404Y-114457904D02*
X145115404Y-113657904D01*
X145191595Y-113772190D01*
X145267785Y-113848380D01*
X145343976Y-113886476D01*
X144391595Y-113657904D02*
X144315404Y-113657904D01*
X144239214Y-113696000D01*
X144201119Y-113734095D01*
X144163023Y-113810285D01*
X144124928Y-113962666D01*
X144124928Y-114153142D01*
X144163023Y-114305523D01*
X144201119Y-114381714D01*
X144239214Y-114419809D01*
X144315404Y-114457904D01*
X144391595Y-114457904D01*
X144467785Y-114419809D01*
X144505880Y-114381714D01*
X144543976Y-114305523D01*
X144582071Y-114153142D01*
X144582071Y-113962666D01*
X144543976Y-113810285D01*
X144505880Y-113734095D01*
X144467785Y-113696000D01*
X144391595Y-113657904D01*
X143629690Y-113657904D02*
X143553500Y-113657904D01*
X143477309Y-113696000D01*
X143439214Y-113734095D01*
X143401119Y-113810285D01*
X143363023Y-113962666D01*
X143363023Y-114153142D01*
X143401119Y-114305523D01*
X143439214Y-114381714D01*
X143477309Y-114419809D01*
X143553500Y-114457904D01*
X143629690Y-114457904D01*
X143705880Y-114419809D01*
X143743976Y-114381714D01*
X143782071Y-114305523D01*
X143820166Y-114153142D01*
X143820166Y-113962666D01*
X143782071Y-113810285D01*
X143743976Y-113734095D01*
X143705880Y-113696000D01*
X143629690Y-113657904D01*
D12*
X144436833Y-112672190D02*
X144603500Y-112434095D01*
X144722547Y-112672190D02*
X144722547Y-112172190D01*
X144532071Y-112172190D01*
X144484452Y-112196000D01*
X144460642Y-112219809D01*
X144436833Y-112267428D01*
X144436833Y-112338857D01*
X144460642Y-112386476D01*
X144484452Y-112410285D01*
X144532071Y-112434095D01*
X144722547Y-112434095D01*
X144270166Y-112172190D02*
X143936833Y-112172190D01*
X144151119Y-112672190D01*
D10*
%TO.C,C23*%
X115144476Y-114646571D02*
X115144476Y-115179904D01*
X115334952Y-114341809D02*
X115525428Y-114913238D01*
X115030190Y-114913238D01*
X114801619Y-114379904D02*
X114268285Y-114379904D01*
X114611142Y-115179904D01*
X113620666Y-114646571D02*
X113620666Y-115179904D01*
X113963523Y-114646571D02*
X113963523Y-115065619D01*
X113925428Y-115141809D01*
X113849238Y-115179904D01*
X113734952Y-115179904D01*
X113658761Y-115141809D01*
X113620666Y-115103714D01*
X115068285Y-112553714D02*
X115106380Y-112591809D01*
X115220666Y-112629904D01*
X115296857Y-112629904D01*
X115411142Y-112591809D01*
X115487333Y-112515619D01*
X115525428Y-112439428D01*
X115563523Y-112287047D01*
X115563523Y-112172761D01*
X115525428Y-112020380D01*
X115487333Y-111944190D01*
X115411142Y-111868000D01*
X115296857Y-111829904D01*
X115220666Y-111829904D01*
X115106380Y-111868000D01*
X115068285Y-111906095D01*
X114763523Y-111906095D02*
X114725428Y-111868000D01*
X114649238Y-111829904D01*
X114458761Y-111829904D01*
X114382571Y-111868000D01*
X114344476Y-111906095D01*
X114306380Y-111982285D01*
X114306380Y-112058476D01*
X114344476Y-112172761D01*
X114801619Y-112629904D01*
X114306380Y-112629904D01*
X114039714Y-111829904D02*
X113544476Y-111829904D01*
X113811142Y-112134666D01*
X113696857Y-112134666D01*
X113620666Y-112172761D01*
X113582571Y-112210857D01*
X113544476Y-112287047D01*
X113544476Y-112477523D01*
X113582571Y-112553714D01*
X113620666Y-112591809D01*
X113696857Y-112629904D01*
X113925428Y-112629904D01*
X114001619Y-112591809D01*
X114039714Y-112553714D01*
%TO.C,C21*%
X127242571Y-115297047D02*
X127775904Y-115297047D01*
X126937809Y-115106571D02*
X127509238Y-114916095D01*
X127509238Y-115411333D01*
X127699714Y-115716095D02*
X127737809Y-115754190D01*
X127775904Y-115716095D01*
X127737809Y-115678000D01*
X127699714Y-115716095D01*
X127775904Y-115716095D01*
X126975904Y-116020857D02*
X126975904Y-116554190D01*
X127775904Y-116211333D01*
X127242571Y-117201809D02*
X127775904Y-117201809D01*
X127242571Y-116858952D02*
X127661619Y-116858952D01*
X127737809Y-116897047D01*
X127775904Y-116973238D01*
X127775904Y-117087523D01*
X127737809Y-117163714D01*
X127699714Y-117201809D01*
D11*
X126126857Y-115820857D02*
X126145904Y-115801809D01*
X126164952Y-115744666D01*
X126164952Y-115706571D01*
X126145904Y-115649428D01*
X126107809Y-115611333D01*
X126069714Y-115592285D01*
X125993523Y-115573238D01*
X125936380Y-115573238D01*
X125860190Y-115592285D01*
X125822095Y-115611333D01*
X125784000Y-115649428D01*
X125764952Y-115706571D01*
X125764952Y-115744666D01*
X125784000Y-115801809D01*
X125803047Y-115820857D01*
X125803047Y-115973238D02*
X125784000Y-115992285D01*
X125764952Y-116030380D01*
X125764952Y-116125619D01*
X125784000Y-116163714D01*
X125803047Y-116182761D01*
X125841142Y-116201809D01*
X125879238Y-116201809D01*
X125936380Y-116182761D01*
X126164952Y-115954190D01*
X126164952Y-116201809D01*
X126164952Y-116582761D02*
X126164952Y-116354190D01*
X126164952Y-116468476D02*
X125764952Y-116468476D01*
X125822095Y-116430380D01*
X125860190Y-116392285D01*
X125879238Y-116354190D01*
D10*
%TO.C,C24*%
X123018476Y-114646571D02*
X123018476Y-115179904D01*
X123208952Y-114341809D02*
X123399428Y-114913238D01*
X122904190Y-114913238D01*
X122675619Y-114379904D02*
X122142285Y-114379904D01*
X122485142Y-115179904D01*
X121494666Y-114646571D02*
X121494666Y-115179904D01*
X121837523Y-114646571D02*
X121837523Y-115065619D01*
X121799428Y-115141809D01*
X121723238Y-115179904D01*
X121608952Y-115179904D01*
X121532761Y-115141809D01*
X121494666Y-115103714D01*
X122942285Y-112553714D02*
X122980380Y-112591809D01*
X123094666Y-112629904D01*
X123170857Y-112629904D01*
X123285142Y-112591809D01*
X123361333Y-112515619D01*
X123399428Y-112439428D01*
X123437523Y-112287047D01*
X123437523Y-112172761D01*
X123399428Y-112020380D01*
X123361333Y-111944190D01*
X123285142Y-111868000D01*
X123170857Y-111829904D01*
X123094666Y-111829904D01*
X122980380Y-111868000D01*
X122942285Y-111906095D01*
X122637523Y-111906095D02*
X122599428Y-111868000D01*
X122523238Y-111829904D01*
X122332761Y-111829904D01*
X122256571Y-111868000D01*
X122218476Y-111906095D01*
X122180380Y-111982285D01*
X122180380Y-112058476D01*
X122218476Y-112172761D01*
X122675619Y-112629904D01*
X122180380Y-112629904D01*
X121494666Y-112096571D02*
X121494666Y-112629904D01*
X121685142Y-111791809D02*
X121875619Y-112363238D01*
X121380380Y-112363238D01*
%TO.C,R4*%
X144886833Y-116997904D02*
X145343976Y-116997904D01*
X145115404Y-116997904D02*
X145115404Y-116197904D01*
X145191595Y-116312190D01*
X145267785Y-116388380D01*
X145343976Y-116426476D01*
X144391595Y-116197904D02*
X144315404Y-116197904D01*
X144239214Y-116236000D01*
X144201119Y-116274095D01*
X144163023Y-116350285D01*
X144124928Y-116502666D01*
X144124928Y-116693142D01*
X144163023Y-116845523D01*
X144201119Y-116921714D01*
X144239214Y-116959809D01*
X144315404Y-116997904D01*
X144391595Y-116997904D01*
X144467785Y-116959809D01*
X144505880Y-116921714D01*
X144543976Y-116845523D01*
X144582071Y-116693142D01*
X144582071Y-116502666D01*
X144543976Y-116350285D01*
X144505880Y-116274095D01*
X144467785Y-116236000D01*
X144391595Y-116197904D01*
X143629690Y-116197904D02*
X143553500Y-116197904D01*
X143477309Y-116236000D01*
X143439214Y-116274095D01*
X143401119Y-116350285D01*
X143363023Y-116502666D01*
X143363023Y-116693142D01*
X143401119Y-116845523D01*
X143439214Y-116921714D01*
X143477309Y-116959809D01*
X143553500Y-116997904D01*
X143629690Y-116997904D01*
X143705880Y-116959809D01*
X143743976Y-116921714D01*
X143782071Y-116845523D01*
X143820166Y-116693142D01*
X143820166Y-116502666D01*
X143782071Y-116350285D01*
X143743976Y-116274095D01*
X143705880Y-116236000D01*
X143629690Y-116197904D01*
D12*
X144436833Y-115212190D02*
X144603500Y-114974095D01*
X144722547Y-115212190D02*
X144722547Y-114712190D01*
X144532071Y-114712190D01*
X144484452Y-114736000D01*
X144460642Y-114759809D01*
X144436833Y-114807428D01*
X144436833Y-114878857D01*
X144460642Y-114926476D01*
X144484452Y-114950285D01*
X144532071Y-114974095D01*
X144722547Y-114974095D01*
X144008261Y-114878857D02*
X144008261Y-115212190D01*
X144127309Y-114688380D02*
X144246357Y-115045523D01*
X143936833Y-115045523D01*
D10*
%TO.C,C19*%
X109904571Y-106153047D02*
X110437904Y-106153047D01*
X109599809Y-105962571D02*
X110171238Y-105772095D01*
X110171238Y-106267333D01*
X110361714Y-106572095D02*
X110399809Y-106610190D01*
X110437904Y-106572095D01*
X110399809Y-106534000D01*
X110361714Y-106572095D01*
X110437904Y-106572095D01*
X109637904Y-106876857D02*
X109637904Y-107410190D01*
X110437904Y-107067333D01*
X109904571Y-108057809D02*
X110437904Y-108057809D01*
X109904571Y-107714952D02*
X110323619Y-107714952D01*
X110399809Y-107753047D01*
X110437904Y-107829238D01*
X110437904Y-107943523D01*
X110399809Y-108019714D01*
X110361714Y-108057809D01*
D11*
X111648857Y-106676857D02*
X111667904Y-106657809D01*
X111686952Y-106600666D01*
X111686952Y-106562571D01*
X111667904Y-106505428D01*
X111629809Y-106467333D01*
X111591714Y-106448285D01*
X111515523Y-106429238D01*
X111458380Y-106429238D01*
X111382190Y-106448285D01*
X111344095Y-106467333D01*
X111306000Y-106505428D01*
X111286952Y-106562571D01*
X111286952Y-106600666D01*
X111306000Y-106657809D01*
X111325047Y-106676857D01*
X111686952Y-107057809D02*
X111686952Y-106829238D01*
X111686952Y-106943523D02*
X111286952Y-106943523D01*
X111344095Y-106905428D01*
X111382190Y-106867333D01*
X111401238Y-106829238D01*
X111686952Y-107248285D02*
X111686952Y-107324476D01*
X111667904Y-107362571D01*
X111648857Y-107381619D01*
X111591714Y-107419714D01*
X111515523Y-107438761D01*
X111363142Y-107438761D01*
X111325047Y-107419714D01*
X111306000Y-107400666D01*
X111286952Y-107362571D01*
X111286952Y-107286380D01*
X111306000Y-107248285D01*
X111325047Y-107229238D01*
X111363142Y-107210190D01*
X111458380Y-107210190D01*
X111496476Y-107229238D01*
X111515523Y-107248285D01*
X111534571Y-107286380D01*
X111534571Y-107362571D01*
X111515523Y-107400666D01*
X111496476Y-107419714D01*
X111458380Y-107438761D01*
D10*
%TO.C,C13*%
X127229904Y-88436571D02*
X127229904Y-88512761D01*
X127268000Y-88588952D01*
X127306095Y-88627047D01*
X127382285Y-88665142D01*
X127534666Y-88703238D01*
X127725142Y-88703238D01*
X127877523Y-88665142D01*
X127953714Y-88627047D01*
X127991809Y-88588952D01*
X128029904Y-88512761D01*
X128029904Y-88436571D01*
X127991809Y-88360380D01*
X127953714Y-88322285D01*
X127877523Y-88284190D01*
X127725142Y-88246095D01*
X127534666Y-88246095D01*
X127382285Y-88284190D01*
X127306095Y-88322285D01*
X127268000Y-88360380D01*
X127229904Y-88436571D01*
X127953714Y-89046095D02*
X127991809Y-89084190D01*
X128029904Y-89046095D01*
X127991809Y-89008000D01*
X127953714Y-89046095D01*
X128029904Y-89046095D01*
X128029904Y-89846095D02*
X128029904Y-89388952D01*
X128029904Y-89617523D02*
X127229904Y-89617523D01*
X127344190Y-89541333D01*
X127420380Y-89465142D01*
X127458476Y-89388952D01*
X127496571Y-90531809D02*
X128029904Y-90531809D01*
X127496571Y-90188952D02*
X127915619Y-90188952D01*
X127991809Y-90227047D01*
X128029904Y-90303238D01*
X128029904Y-90417523D01*
X127991809Y-90493714D01*
X127953714Y-90531809D01*
D11*
X126380857Y-89150857D02*
X126399904Y-89131809D01*
X126418952Y-89074666D01*
X126418952Y-89036571D01*
X126399904Y-88979428D01*
X126361809Y-88941333D01*
X126323714Y-88922285D01*
X126247523Y-88903238D01*
X126190380Y-88903238D01*
X126114190Y-88922285D01*
X126076095Y-88941333D01*
X126038000Y-88979428D01*
X126018952Y-89036571D01*
X126018952Y-89074666D01*
X126038000Y-89131809D01*
X126057047Y-89150857D01*
X126418952Y-89531809D02*
X126418952Y-89303238D01*
X126418952Y-89417523D02*
X126018952Y-89417523D01*
X126076095Y-89379428D01*
X126114190Y-89341333D01*
X126133238Y-89303238D01*
X126018952Y-89665142D02*
X126018952Y-89912761D01*
X126171333Y-89779428D01*
X126171333Y-89836571D01*
X126190380Y-89874666D01*
X126209428Y-89893714D01*
X126247523Y-89912761D01*
X126342761Y-89912761D01*
X126380857Y-89893714D01*
X126399904Y-89874666D01*
X126418952Y-89836571D01*
X126418952Y-89722285D01*
X126399904Y-89684190D01*
X126380857Y-89665142D01*
D10*
%TO.C,R5*%
X144886833Y-109123904D02*
X145343976Y-109123904D01*
X145115404Y-109123904D02*
X145115404Y-108323904D01*
X145191595Y-108438190D01*
X145267785Y-108514380D01*
X145343976Y-108552476D01*
X144391595Y-108323904D02*
X144315404Y-108323904D01*
X144239214Y-108362000D01*
X144201119Y-108400095D01*
X144163023Y-108476285D01*
X144124928Y-108628666D01*
X144124928Y-108819142D01*
X144163023Y-108971523D01*
X144201119Y-109047714D01*
X144239214Y-109085809D01*
X144315404Y-109123904D01*
X144391595Y-109123904D01*
X144467785Y-109085809D01*
X144505880Y-109047714D01*
X144543976Y-108971523D01*
X144582071Y-108819142D01*
X144582071Y-108628666D01*
X144543976Y-108476285D01*
X144505880Y-108400095D01*
X144467785Y-108362000D01*
X144391595Y-108323904D01*
X143629690Y-108323904D02*
X143553500Y-108323904D01*
X143477309Y-108362000D01*
X143439214Y-108400095D01*
X143401119Y-108476285D01*
X143363023Y-108628666D01*
X143363023Y-108819142D01*
X143401119Y-108971523D01*
X143439214Y-109047714D01*
X143477309Y-109085809D01*
X143553500Y-109123904D01*
X143629690Y-109123904D01*
X143705880Y-109085809D01*
X143743976Y-109047714D01*
X143782071Y-108971523D01*
X143820166Y-108819142D01*
X143820166Y-108628666D01*
X143782071Y-108476285D01*
X143743976Y-108400095D01*
X143705880Y-108362000D01*
X143629690Y-108323904D01*
D12*
X144436833Y-107338190D02*
X144603500Y-107100095D01*
X144722547Y-107338190D02*
X144722547Y-106838190D01*
X144532071Y-106838190D01*
X144484452Y-106862000D01*
X144460642Y-106885809D01*
X144436833Y-106933428D01*
X144436833Y-107004857D01*
X144460642Y-107052476D01*
X144484452Y-107076285D01*
X144532071Y-107100095D01*
X144722547Y-107100095D01*
X143984452Y-106838190D02*
X144222547Y-106838190D01*
X144246357Y-107076285D01*
X144222547Y-107052476D01*
X144174928Y-107028666D01*
X144055880Y-107028666D01*
X144008261Y-107052476D01*
X143984452Y-107076285D01*
X143960642Y-107123904D01*
X143960642Y-107242952D01*
X143984452Y-107290571D01*
X144008261Y-107314380D01*
X144055880Y-107338190D01*
X144174928Y-107338190D01*
X144222547Y-107314380D01*
X144246357Y-107290571D01*
D10*
%TO.C,U1*%
X139983333Y-108512858D02*
X139869047Y-108550953D01*
X139830952Y-108589048D01*
X139792857Y-108665239D01*
X139792857Y-108779524D01*
X139830952Y-108855715D01*
X139869047Y-108893810D01*
X139945238Y-108931905D01*
X140250000Y-108931905D01*
X140250000Y-108131905D01*
X139983333Y-108131905D01*
X139907142Y-108170001D01*
X139869047Y-108208096D01*
X139830952Y-108284286D01*
X139830952Y-108360477D01*
X139869047Y-108436667D01*
X139907142Y-108474762D01*
X139983333Y-108512858D01*
X140250000Y-108512858D01*
X138916666Y-109008096D02*
X138992857Y-108970001D01*
X139069047Y-108893810D01*
X139183333Y-108779524D01*
X139259523Y-108741429D01*
X139335714Y-108741429D01*
X139297619Y-108931905D02*
X139373809Y-108893810D01*
X139450000Y-108817620D01*
X139488095Y-108665239D01*
X139488095Y-108398572D01*
X139450000Y-108246191D01*
X139373809Y-108170001D01*
X139297619Y-108131905D01*
X139145238Y-108131905D01*
X139069047Y-108170001D01*
X138992857Y-108246191D01*
X138954761Y-108398572D01*
X138954761Y-108665239D01*
X138992857Y-108817620D01*
X139069047Y-108893810D01*
X139145238Y-108931905D01*
X139297619Y-108931905D01*
X138688095Y-108131905D02*
X138154761Y-108131905D01*
X138497619Y-108931905D01*
X137507142Y-108131905D02*
X137659523Y-108131905D01*
X137735714Y-108170001D01*
X137773809Y-108208096D01*
X137850000Y-108322381D01*
X137888095Y-108474762D01*
X137888095Y-108779524D01*
X137850000Y-108855715D01*
X137811904Y-108893810D01*
X137735714Y-108931905D01*
X137583333Y-108931905D01*
X137507142Y-108893810D01*
X137469047Y-108855715D01*
X137430952Y-108779524D01*
X137430952Y-108589048D01*
X137469047Y-108512858D01*
X137507142Y-108474762D01*
X137583333Y-108436667D01*
X137735714Y-108436667D01*
X137811904Y-108474762D01*
X137850000Y-108512858D01*
X137888095Y-108589048D01*
X137050000Y-108931905D02*
X136897619Y-108931905D01*
X136821428Y-108893810D01*
X136783333Y-108855715D01*
X136707142Y-108741429D01*
X136669047Y-108589048D01*
X136669047Y-108284286D01*
X136707142Y-108208096D01*
X136745238Y-108170001D01*
X136821428Y-108131905D01*
X136973809Y-108131905D01*
X137050000Y-108170001D01*
X137088095Y-108208096D01*
X137126190Y-108284286D01*
X137126190Y-108474762D01*
X137088095Y-108550953D01*
X137050000Y-108589048D01*
X136973809Y-108627143D01*
X136821428Y-108627143D01*
X136745238Y-108589048D01*
X136707142Y-108550953D01*
X136669047Y-108474762D01*
X136364285Y-108208096D02*
X136326190Y-108170001D01*
X136250000Y-108131905D01*
X136059523Y-108131905D01*
X135983333Y-108170001D01*
X135945238Y-108208096D01*
X135907142Y-108284286D01*
X135907142Y-108360477D01*
X135945238Y-108474762D01*
X136402380Y-108931905D01*
X135907142Y-108931905D01*
X135183333Y-108131905D02*
X135564285Y-108131905D01*
X135602380Y-108512858D01*
X135564285Y-108474762D01*
X135488095Y-108436667D01*
X135297619Y-108436667D01*
X135221428Y-108474762D01*
X135183333Y-108512858D01*
X135145238Y-108589048D01*
X135145238Y-108779524D01*
X135183333Y-108855715D01*
X135221428Y-108893810D01*
X135297619Y-108931905D01*
X135488095Y-108931905D01*
X135564285Y-108893810D01*
X135602380Y-108855715D01*
X134345238Y-108931905D02*
X134611904Y-108550953D01*
X134802380Y-108931905D02*
X134802380Y-108131905D01*
X134497619Y-108131905D01*
X134421428Y-108170001D01*
X134383333Y-108208096D01*
X134345238Y-108284286D01*
X134345238Y-108398572D01*
X134383333Y-108474762D01*
X134421428Y-108512858D01*
X134497619Y-108550953D01*
X134802380Y-108550953D01*
X133583333Y-108170001D02*
X133659523Y-108131905D01*
X133773809Y-108131905D01*
X133888095Y-108170001D01*
X133964285Y-108246191D01*
X134002380Y-108322381D01*
X134040476Y-108474762D01*
X134040476Y-108589048D01*
X134002380Y-108741429D01*
X133964285Y-108817620D01*
X133888095Y-108893810D01*
X133773809Y-108931905D01*
X133697619Y-108931905D01*
X133583333Y-108893810D01*
X133545238Y-108855715D01*
X133545238Y-108589048D01*
X133697619Y-108589048D01*
X133202380Y-108512858D02*
X132935714Y-108512858D01*
X132821428Y-108931905D02*
X133202380Y-108931905D01*
X133202380Y-108131905D01*
X132821428Y-108131905D01*
X132592857Y-108131905D02*
X132135714Y-108131905D01*
X132364285Y-108931905D02*
X132364285Y-108131905D01*
X137109523Y-104811904D02*
X137109523Y-105459523D01*
X137071428Y-105535714D01*
X137033333Y-105573809D01*
X136957142Y-105611904D01*
X136804761Y-105611904D01*
X136728571Y-105573809D01*
X136690476Y-105535714D01*
X136652380Y-105459523D01*
X136652380Y-104811904D01*
X135852380Y-105611904D02*
X136309523Y-105611904D01*
X136080952Y-105611904D02*
X136080952Y-104811904D01*
X136157142Y-104926190D01*
X136233333Y-105002380D01*
X136309523Y-105040476D01*
%TO.C,R6*%
X144886833Y-104297904D02*
X145343976Y-104297904D01*
X145115404Y-104297904D02*
X145115404Y-103497904D01*
X145191595Y-103612190D01*
X145267785Y-103688380D01*
X145343976Y-103726476D01*
X144391595Y-103497904D02*
X144315404Y-103497904D01*
X144239214Y-103536000D01*
X144201119Y-103574095D01*
X144163023Y-103650285D01*
X144124928Y-103802666D01*
X144124928Y-103993142D01*
X144163023Y-104145523D01*
X144201119Y-104221714D01*
X144239214Y-104259809D01*
X144315404Y-104297904D01*
X144391595Y-104297904D01*
X144467785Y-104259809D01*
X144505880Y-104221714D01*
X144543976Y-104145523D01*
X144582071Y-103993142D01*
X144582071Y-103802666D01*
X144543976Y-103650285D01*
X144505880Y-103574095D01*
X144467785Y-103536000D01*
X144391595Y-103497904D01*
X143629690Y-103497904D02*
X143553500Y-103497904D01*
X143477309Y-103536000D01*
X143439214Y-103574095D01*
X143401119Y-103650285D01*
X143363023Y-103802666D01*
X143363023Y-103993142D01*
X143401119Y-104145523D01*
X143439214Y-104221714D01*
X143477309Y-104259809D01*
X143553500Y-104297904D01*
X143629690Y-104297904D01*
X143705880Y-104259809D01*
X143743976Y-104221714D01*
X143782071Y-104145523D01*
X143820166Y-103993142D01*
X143820166Y-103802666D01*
X143782071Y-103650285D01*
X143743976Y-103574095D01*
X143705880Y-103536000D01*
X143629690Y-103497904D01*
D12*
X144436833Y-102512190D02*
X144603500Y-102274095D01*
X144722547Y-102512190D02*
X144722547Y-102012190D01*
X144532071Y-102012190D01*
X144484452Y-102036000D01*
X144460642Y-102059809D01*
X144436833Y-102107428D01*
X144436833Y-102178857D01*
X144460642Y-102226476D01*
X144484452Y-102250285D01*
X144532071Y-102274095D01*
X144722547Y-102274095D01*
X144008261Y-102012190D02*
X144103500Y-102012190D01*
X144151119Y-102036000D01*
X144174928Y-102059809D01*
X144222547Y-102131238D01*
X144246357Y-102226476D01*
X144246357Y-102416952D01*
X144222547Y-102464571D01*
X144198738Y-102488380D01*
X144151119Y-102512190D01*
X144055880Y-102512190D01*
X144008261Y-102488380D01*
X143984452Y-102464571D01*
X143960642Y-102416952D01*
X143960642Y-102297904D01*
X143984452Y-102250285D01*
X144008261Y-102226476D01*
X144055880Y-102202666D01*
X144151119Y-102202666D01*
X144198738Y-102226476D01*
X144222547Y-102250285D01*
X144246357Y-102297904D01*
D10*
%TO.C,J5*%
X148135714Y-87408333D02*
X148173809Y-87370238D01*
X148211904Y-87255952D01*
X148211904Y-87179761D01*
X148173809Y-87065476D01*
X148097619Y-86989285D01*
X148021428Y-86951190D01*
X147869047Y-86913095D01*
X147754761Y-86913095D01*
X147602380Y-86951190D01*
X147526190Y-86989285D01*
X147450000Y-87065476D01*
X147411904Y-87179761D01*
X147411904Y-87255952D01*
X147450000Y-87370238D01*
X147488095Y-87408333D01*
X148211904Y-87865476D02*
X148173809Y-87789285D01*
X148135714Y-87751190D01*
X148059523Y-87713095D01*
X147830952Y-87713095D01*
X147754761Y-87751190D01*
X147716666Y-87789285D01*
X147678571Y-87865476D01*
X147678571Y-87979761D01*
X147716666Y-88055952D01*
X147754761Y-88094047D01*
X147830952Y-88132142D01*
X148059523Y-88132142D01*
X148135714Y-88094047D01*
X148173809Y-88055952D01*
X148211904Y-87979761D01*
X148211904Y-87865476D01*
X147678571Y-88475000D02*
X148211904Y-88475000D01*
X147754761Y-88475000D02*
X147716666Y-88513095D01*
X147678571Y-88589285D01*
X147678571Y-88703571D01*
X147716666Y-88779761D01*
X147792857Y-88817857D01*
X148211904Y-88817857D01*
X147678571Y-89198809D02*
X148211904Y-89198809D01*
X147754761Y-89198809D02*
X147716666Y-89236904D01*
X147678571Y-89313095D01*
X147678571Y-89427380D01*
X147716666Y-89503571D01*
X147792857Y-89541666D01*
X148211904Y-89541666D01*
X148288095Y-89732142D02*
X148288095Y-90341666D01*
X147411904Y-90684523D02*
X147411904Y-90760714D01*
X147450000Y-90836904D01*
X147488095Y-90875000D01*
X147564285Y-90913095D01*
X147716666Y-90951190D01*
X147907142Y-90951190D01*
X148059523Y-90913095D01*
X148135714Y-90875000D01*
X148173809Y-90836904D01*
X148211904Y-90760714D01*
X148211904Y-90684523D01*
X148173809Y-90608333D01*
X148135714Y-90570238D01*
X148059523Y-90532142D01*
X147907142Y-90494047D01*
X147716666Y-90494047D01*
X147564285Y-90532142D01*
X147488095Y-90570238D01*
X147450000Y-90608333D01*
X147411904Y-90684523D01*
X148211904Y-91713095D02*
X148211904Y-91255952D01*
X148211904Y-91484523D02*
X147411904Y-91484523D01*
X147526190Y-91408333D01*
X147602380Y-91332142D01*
X147640476Y-91255952D01*
X148211904Y-91979761D02*
X147678571Y-92398809D01*
X147678571Y-91979761D02*
X148211904Y-92398809D01*
X147411904Y-92855952D02*
X147411904Y-92932142D01*
X147450000Y-93008333D01*
X147488095Y-93046428D01*
X147564285Y-93084523D01*
X147716666Y-93122619D01*
X147907142Y-93122619D01*
X148059523Y-93084523D01*
X148135714Y-93046428D01*
X148173809Y-93008333D01*
X148211904Y-92932142D01*
X148211904Y-92855952D01*
X148173809Y-92779761D01*
X148135714Y-92741666D01*
X148059523Y-92703571D01*
X147907142Y-92665476D01*
X147716666Y-92665476D01*
X147564285Y-92703571D01*
X147488095Y-92741666D01*
X147450000Y-92779761D01*
X147411904Y-92855952D01*
X147678571Y-93808333D02*
X148211904Y-93808333D01*
X147373809Y-93617857D02*
X147945238Y-93427380D01*
X147945238Y-93922619D01*
X148288095Y-94036904D02*
X148288095Y-94646428D01*
X148211904Y-94836904D02*
X147411904Y-94836904D01*
X147983333Y-95103571D01*
X147411904Y-95370238D01*
X148211904Y-95370238D01*
X148211904Y-96094047D02*
X147792857Y-96094047D01*
X147716666Y-96055952D01*
X147678571Y-95979761D01*
X147678571Y-95827380D01*
X147716666Y-95751190D01*
X148173809Y-96094047D02*
X148211904Y-96017857D01*
X148211904Y-95827380D01*
X148173809Y-95751190D01*
X148097619Y-95713095D01*
X148021428Y-95713095D01*
X147945238Y-95751190D01*
X147907142Y-95827380D01*
X147907142Y-96017857D01*
X147869047Y-96094047D01*
X148211904Y-96589285D02*
X148173809Y-96513095D01*
X148097619Y-96475000D01*
X147411904Y-96475000D01*
X148173809Y-97198809D02*
X148211904Y-97122619D01*
X148211904Y-96970238D01*
X148173809Y-96894047D01*
X148097619Y-96855952D01*
X147792857Y-96855952D01*
X147716666Y-96894047D01*
X147678571Y-96970238D01*
X147678571Y-97122619D01*
X147716666Y-97198809D01*
X147792857Y-97236904D01*
X147869047Y-97236904D01*
X147945238Y-96855952D01*
X143861904Y-91808333D02*
X144433333Y-91808333D01*
X144547619Y-91770238D01*
X144623809Y-91694047D01*
X144661904Y-91579761D01*
X144661904Y-91503571D01*
X143861904Y-92570238D02*
X143861904Y-92189285D01*
X144242857Y-92151190D01*
X144204761Y-92189285D01*
X144166666Y-92265476D01*
X144166666Y-92455952D01*
X144204761Y-92532142D01*
X144242857Y-92570238D01*
X144319047Y-92608333D01*
X144509523Y-92608333D01*
X144585714Y-92570238D01*
X144623809Y-92532142D01*
X144661904Y-92455952D01*
X144661904Y-92265476D01*
X144623809Y-92189285D01*
X144585714Y-92151190D01*
%TO.C,R24*%
X131533333Y-107611904D02*
X131990476Y-107611904D01*
X131761904Y-107611904D02*
X131761904Y-106811904D01*
X131838095Y-106926190D01*
X131914285Y-107002380D01*
X131990476Y-107040476D01*
X131038095Y-106811904D02*
X130961904Y-106811904D01*
X130885714Y-106850000D01*
X130847619Y-106888095D01*
X130809523Y-106964285D01*
X130771428Y-107116666D01*
X130771428Y-107307142D01*
X130809523Y-107459523D01*
X130847619Y-107535714D01*
X130885714Y-107573809D01*
X130961904Y-107611904D01*
X131038095Y-107611904D01*
X131114285Y-107573809D01*
X131152380Y-107535714D01*
X131190476Y-107459523D01*
X131228571Y-107307142D01*
X131228571Y-107116666D01*
X131190476Y-106964285D01*
X131152380Y-106888095D01*
X131114285Y-106850000D01*
X131038095Y-106811904D01*
X130276190Y-106811904D02*
X130200000Y-106811904D01*
X130123809Y-106850000D01*
X130085714Y-106888095D01*
X130047619Y-106964285D01*
X130009523Y-107116666D01*
X130009523Y-107307142D01*
X130047619Y-107459523D01*
X130085714Y-107535714D01*
X130123809Y-107573809D01*
X130200000Y-107611904D01*
X130276190Y-107611904D01*
X130352380Y-107573809D01*
X130390476Y-107535714D01*
X130428571Y-107459523D01*
X130466666Y-107307142D01*
X130466666Y-107116666D01*
X130428571Y-106964285D01*
X130390476Y-106888095D01*
X130352380Y-106850000D01*
X130276190Y-106811904D01*
D12*
X131321428Y-105826190D02*
X131488095Y-105588095D01*
X131607142Y-105826190D02*
X131607142Y-105326190D01*
X131416666Y-105326190D01*
X131369047Y-105350000D01*
X131345238Y-105373809D01*
X131321428Y-105421428D01*
X131321428Y-105492857D01*
X131345238Y-105540476D01*
X131369047Y-105564285D01*
X131416666Y-105588095D01*
X131607142Y-105588095D01*
X131130952Y-105373809D02*
X131107142Y-105350000D01*
X131059523Y-105326190D01*
X130940476Y-105326190D01*
X130892857Y-105350000D01*
X130869047Y-105373809D01*
X130845238Y-105421428D01*
X130845238Y-105469047D01*
X130869047Y-105540476D01*
X131154761Y-105826190D01*
X130845238Y-105826190D01*
X130416666Y-105492857D02*
X130416666Y-105826190D01*
X130535714Y-105302380D02*
X130654761Y-105659523D01*
X130345238Y-105659523D01*
D10*
%TO.C,R2*%
X144886833Y-106837904D02*
X145343976Y-106837904D01*
X145115404Y-106837904D02*
X145115404Y-106037904D01*
X145191595Y-106152190D01*
X145267785Y-106228380D01*
X145343976Y-106266476D01*
X144391595Y-106037904D02*
X144315404Y-106037904D01*
X144239214Y-106076000D01*
X144201119Y-106114095D01*
X144163023Y-106190285D01*
X144124928Y-106342666D01*
X144124928Y-106533142D01*
X144163023Y-106685523D01*
X144201119Y-106761714D01*
X144239214Y-106799809D01*
X144315404Y-106837904D01*
X144391595Y-106837904D01*
X144467785Y-106799809D01*
X144505880Y-106761714D01*
X144543976Y-106685523D01*
X144582071Y-106533142D01*
X144582071Y-106342666D01*
X144543976Y-106190285D01*
X144505880Y-106114095D01*
X144467785Y-106076000D01*
X144391595Y-106037904D01*
X143629690Y-106037904D02*
X143553500Y-106037904D01*
X143477309Y-106076000D01*
X143439214Y-106114095D01*
X143401119Y-106190285D01*
X143363023Y-106342666D01*
X143363023Y-106533142D01*
X143401119Y-106685523D01*
X143439214Y-106761714D01*
X143477309Y-106799809D01*
X143553500Y-106837904D01*
X143629690Y-106837904D01*
X143705880Y-106799809D01*
X143743976Y-106761714D01*
X143782071Y-106685523D01*
X143820166Y-106533142D01*
X143820166Y-106342666D01*
X143782071Y-106190285D01*
X143743976Y-106114095D01*
X143705880Y-106076000D01*
X143629690Y-106037904D01*
D12*
X144436833Y-105052190D02*
X144603500Y-104814095D01*
X144722547Y-105052190D02*
X144722547Y-104552190D01*
X144532071Y-104552190D01*
X144484452Y-104576000D01*
X144460642Y-104599809D01*
X144436833Y-104647428D01*
X144436833Y-104718857D01*
X144460642Y-104766476D01*
X144484452Y-104790285D01*
X144532071Y-104814095D01*
X144722547Y-104814095D01*
X144246357Y-104599809D02*
X144222547Y-104576000D01*
X144174928Y-104552190D01*
X144055880Y-104552190D01*
X144008261Y-104576000D01*
X143984452Y-104599809D01*
X143960642Y-104647428D01*
X143960642Y-104695047D01*
X143984452Y-104766476D01*
X144270166Y-105052190D01*
X143960642Y-105052190D01*
D10*
%TO.C,R14*%
X130261904Y-105816666D02*
X130261904Y-105359523D01*
X130261904Y-105588095D02*
X129461904Y-105588095D01*
X129576190Y-105511904D01*
X129652380Y-105435714D01*
X129690476Y-105359523D01*
X129461904Y-106311904D02*
X129461904Y-106388095D01*
X129500000Y-106464285D01*
X129538095Y-106502380D01*
X129614285Y-106540476D01*
X129766666Y-106578571D01*
X129957142Y-106578571D01*
X130109523Y-106540476D01*
X130185714Y-106502380D01*
X130223809Y-106464285D01*
X130261904Y-106388095D01*
X130261904Y-106311904D01*
X130223809Y-106235714D01*
X130185714Y-106197619D01*
X130109523Y-106159523D01*
X129957142Y-106121428D01*
X129766666Y-106121428D01*
X129614285Y-106159523D01*
X129538095Y-106197619D01*
X129500000Y-106235714D01*
X129461904Y-106311904D01*
X129461904Y-107073809D02*
X129461904Y-107150000D01*
X129500000Y-107226190D01*
X129538095Y-107264285D01*
X129614285Y-107302380D01*
X129766666Y-107340476D01*
X129957142Y-107340476D01*
X130109523Y-107302380D01*
X130185714Y-107264285D01*
X130223809Y-107226190D01*
X130261904Y-107150000D01*
X130261904Y-107073809D01*
X130223809Y-106997619D01*
X130185714Y-106959523D01*
X130109523Y-106921428D01*
X129957142Y-106883333D01*
X129766666Y-106883333D01*
X129614285Y-106921428D01*
X129538095Y-106959523D01*
X129500000Y-106997619D01*
X129461904Y-107073809D01*
D12*
X128476190Y-106028571D02*
X128238095Y-105861904D01*
X128476190Y-105742857D02*
X127976190Y-105742857D01*
X127976190Y-105933333D01*
X128000000Y-105980952D01*
X128023809Y-106004761D01*
X128071428Y-106028571D01*
X128142857Y-106028571D01*
X128190476Y-106004761D01*
X128214285Y-105980952D01*
X128238095Y-105933333D01*
X128238095Y-105742857D01*
X128476190Y-106504761D02*
X128476190Y-106219047D01*
X128476190Y-106361904D02*
X127976190Y-106361904D01*
X128047619Y-106314285D01*
X128095238Y-106266666D01*
X128119047Y-106219047D01*
X128142857Y-106933333D02*
X128476190Y-106933333D01*
X127952380Y-106814285D02*
X128309523Y-106695238D01*
X128309523Y-107004761D01*
D10*
%TO.C,J3*%
X136035714Y-87408333D02*
X136073809Y-87370238D01*
X136111904Y-87255952D01*
X136111904Y-87179761D01*
X136073809Y-87065476D01*
X135997619Y-86989285D01*
X135921428Y-86951190D01*
X135769047Y-86913095D01*
X135654761Y-86913095D01*
X135502380Y-86951190D01*
X135426190Y-86989285D01*
X135350000Y-87065476D01*
X135311904Y-87179761D01*
X135311904Y-87255952D01*
X135350000Y-87370238D01*
X135388095Y-87408333D01*
X136111904Y-87865476D02*
X136073809Y-87789285D01*
X136035714Y-87751190D01*
X135959523Y-87713095D01*
X135730952Y-87713095D01*
X135654761Y-87751190D01*
X135616666Y-87789285D01*
X135578571Y-87865476D01*
X135578571Y-87979761D01*
X135616666Y-88055952D01*
X135654761Y-88094047D01*
X135730952Y-88132142D01*
X135959523Y-88132142D01*
X136035714Y-88094047D01*
X136073809Y-88055952D01*
X136111904Y-87979761D01*
X136111904Y-87865476D01*
X135578571Y-88475000D02*
X136111904Y-88475000D01*
X135654761Y-88475000D02*
X135616666Y-88513095D01*
X135578571Y-88589285D01*
X135578571Y-88703571D01*
X135616666Y-88779761D01*
X135692857Y-88817857D01*
X136111904Y-88817857D01*
X135578571Y-89198809D02*
X136111904Y-89198809D01*
X135654761Y-89198809D02*
X135616666Y-89236904D01*
X135578571Y-89313095D01*
X135578571Y-89427380D01*
X135616666Y-89503571D01*
X135692857Y-89541666D01*
X136111904Y-89541666D01*
X136188095Y-89732142D02*
X136188095Y-90341666D01*
X135311904Y-90684523D02*
X135311904Y-90760714D01*
X135350000Y-90836904D01*
X135388095Y-90875000D01*
X135464285Y-90913095D01*
X135616666Y-90951190D01*
X135807142Y-90951190D01*
X135959523Y-90913095D01*
X136035714Y-90875000D01*
X136073809Y-90836904D01*
X136111904Y-90760714D01*
X136111904Y-90684523D01*
X136073809Y-90608333D01*
X136035714Y-90570238D01*
X135959523Y-90532142D01*
X135807142Y-90494047D01*
X135616666Y-90494047D01*
X135464285Y-90532142D01*
X135388095Y-90570238D01*
X135350000Y-90608333D01*
X135311904Y-90684523D01*
X136111904Y-91713095D02*
X136111904Y-91255952D01*
X136111904Y-91484523D02*
X135311904Y-91484523D01*
X135426190Y-91408333D01*
X135502380Y-91332142D01*
X135540476Y-91255952D01*
X136111904Y-91979761D02*
X135578571Y-92398809D01*
X135578571Y-91979761D02*
X136111904Y-92398809D01*
X135311904Y-92855952D02*
X135311904Y-92932142D01*
X135350000Y-93008333D01*
X135388095Y-93046428D01*
X135464285Y-93084523D01*
X135616666Y-93122619D01*
X135807142Y-93122619D01*
X135959523Y-93084523D01*
X136035714Y-93046428D01*
X136073809Y-93008333D01*
X136111904Y-92932142D01*
X136111904Y-92855952D01*
X136073809Y-92779761D01*
X136035714Y-92741666D01*
X135959523Y-92703571D01*
X135807142Y-92665476D01*
X135616666Y-92665476D01*
X135464285Y-92703571D01*
X135388095Y-92741666D01*
X135350000Y-92779761D01*
X135311904Y-92855952D01*
X135578571Y-93808333D02*
X136111904Y-93808333D01*
X135273809Y-93617857D02*
X135845238Y-93427380D01*
X135845238Y-93922619D01*
X136188095Y-94036904D02*
X136188095Y-94646428D01*
X136111904Y-94836904D02*
X135311904Y-94836904D01*
X135883333Y-95103571D01*
X135311904Y-95370238D01*
X136111904Y-95370238D01*
X136111904Y-96094047D02*
X135692857Y-96094047D01*
X135616666Y-96055952D01*
X135578571Y-95979761D01*
X135578571Y-95827380D01*
X135616666Y-95751190D01*
X136073809Y-96094047D02*
X136111904Y-96017857D01*
X136111904Y-95827380D01*
X136073809Y-95751190D01*
X135997619Y-95713095D01*
X135921428Y-95713095D01*
X135845238Y-95751190D01*
X135807142Y-95827380D01*
X135807142Y-96017857D01*
X135769047Y-96094047D01*
X136111904Y-96589285D02*
X136073809Y-96513095D01*
X135997619Y-96475000D01*
X135311904Y-96475000D01*
X136073809Y-97198809D02*
X136111904Y-97122619D01*
X136111904Y-96970238D01*
X136073809Y-96894047D01*
X135997619Y-96855952D01*
X135692857Y-96855952D01*
X135616666Y-96894047D01*
X135578571Y-96970238D01*
X135578571Y-97122619D01*
X135616666Y-97198809D01*
X135692857Y-97236904D01*
X135769047Y-97236904D01*
X135845238Y-96855952D01*
X138861904Y-91808333D02*
X139433333Y-91808333D01*
X139547619Y-91770238D01*
X139623809Y-91694047D01*
X139661904Y-91579761D01*
X139661904Y-91503571D01*
X138861904Y-92113095D02*
X138861904Y-92608333D01*
X139166666Y-92341666D01*
X139166666Y-92455952D01*
X139204761Y-92532142D01*
X139242857Y-92570238D01*
X139319047Y-92608333D01*
X139509523Y-92608333D01*
X139585714Y-92570238D01*
X139623809Y-92532142D01*
X139661904Y-92455952D01*
X139661904Y-92227380D01*
X139623809Y-92151190D01*
X139585714Y-92113095D01*
%TO.C,R3*%
X144886833Y-111917904D02*
X145343976Y-111917904D01*
X145115404Y-111917904D02*
X145115404Y-111117904D01*
X145191595Y-111232190D01*
X145267785Y-111308380D01*
X145343976Y-111346476D01*
X144391595Y-111117904D02*
X144315404Y-111117904D01*
X144239214Y-111156000D01*
X144201119Y-111194095D01*
X144163023Y-111270285D01*
X144124928Y-111422666D01*
X144124928Y-111613142D01*
X144163023Y-111765523D01*
X144201119Y-111841714D01*
X144239214Y-111879809D01*
X144315404Y-111917904D01*
X144391595Y-111917904D01*
X144467785Y-111879809D01*
X144505880Y-111841714D01*
X144543976Y-111765523D01*
X144582071Y-111613142D01*
X144582071Y-111422666D01*
X144543976Y-111270285D01*
X144505880Y-111194095D01*
X144467785Y-111156000D01*
X144391595Y-111117904D01*
X143629690Y-111117904D02*
X143553500Y-111117904D01*
X143477309Y-111156000D01*
X143439214Y-111194095D01*
X143401119Y-111270285D01*
X143363023Y-111422666D01*
X143363023Y-111613142D01*
X143401119Y-111765523D01*
X143439214Y-111841714D01*
X143477309Y-111879809D01*
X143553500Y-111917904D01*
X143629690Y-111917904D01*
X143705880Y-111879809D01*
X143743976Y-111841714D01*
X143782071Y-111765523D01*
X143820166Y-111613142D01*
X143820166Y-111422666D01*
X143782071Y-111270285D01*
X143743976Y-111194095D01*
X143705880Y-111156000D01*
X143629690Y-111117904D01*
D12*
X144436833Y-110132190D02*
X144603500Y-109894095D01*
X144722547Y-110132190D02*
X144722547Y-109632190D01*
X144532071Y-109632190D01*
X144484452Y-109656000D01*
X144460642Y-109679809D01*
X144436833Y-109727428D01*
X144436833Y-109798857D01*
X144460642Y-109846476D01*
X144484452Y-109870285D01*
X144532071Y-109894095D01*
X144722547Y-109894095D01*
X144270166Y-109632190D02*
X143960642Y-109632190D01*
X144127309Y-109822666D01*
X144055880Y-109822666D01*
X144008261Y-109846476D01*
X143984452Y-109870285D01*
X143960642Y-109917904D01*
X143960642Y-110036952D01*
X143984452Y-110084571D01*
X144008261Y-110108380D01*
X144055880Y-110132190D01*
X144198738Y-110132190D01*
X144246357Y-110108380D01*
X144270166Y-110084571D01*
D10*
%TO.C,L1*%
X128831904Y-94558000D02*
X128831904Y-95053238D01*
X129136666Y-94786571D01*
X129136666Y-94900857D01*
X129174761Y-94977047D01*
X129212857Y-95015142D01*
X129289047Y-95053238D01*
X129479523Y-95053238D01*
X129555714Y-95015142D01*
X129593809Y-94977047D01*
X129631904Y-94900857D01*
X129631904Y-94672285D01*
X129593809Y-94596095D01*
X129555714Y-94558000D01*
X129555714Y-95396095D02*
X129593809Y-95434190D01*
X129631904Y-95396095D01*
X129593809Y-95358000D01*
X129555714Y-95396095D01*
X129631904Y-95396095D01*
X128831904Y-95700857D02*
X128831904Y-96196095D01*
X129136666Y-95929428D01*
X129136666Y-96043714D01*
X129174761Y-96119904D01*
X129212857Y-96158000D01*
X129289047Y-96196095D01*
X129479523Y-96196095D01*
X129555714Y-96158000D01*
X129593809Y-96119904D01*
X129631904Y-96043714D01*
X129631904Y-95815142D01*
X129593809Y-95738952D01*
X129555714Y-95700857D01*
X129098571Y-96881809D02*
X129631904Y-96881809D01*
X129098571Y-96538952D02*
X129517619Y-96538952D01*
X129593809Y-96577047D01*
X129631904Y-96653238D01*
X129631904Y-96767523D01*
X129593809Y-96843714D01*
X129555714Y-96881809D01*
X128106904Y-95624666D02*
X128106904Y-95243714D01*
X127306904Y-95243714D01*
X128106904Y-96310380D02*
X128106904Y-95853238D01*
X128106904Y-96081809D02*
X127306904Y-96081809D01*
X127421190Y-96005619D01*
X127497380Y-95929428D01*
X127535476Y-95853238D01*
D13*
%TO.C,C22*%
X115240000Y-102918000D02*
X118440000Y-102918000D01*
X117640000Y-108918000D02*
X115240000Y-108918000D01*
X118440000Y-108118000D02*
X117640000Y-108918000D01*
X118440000Y-102918000D02*
X118440000Y-108118000D01*
X115240000Y-108918000D02*
X115240000Y-102918000D01*
%TO.C,J1*%
X135004000Y-83410000D02*
X135004000Y-77660000D01*
X142404000Y-83410000D02*
X135004000Y-83410000D01*
X140579000Y-77660000D02*
X139954000Y-78660000D01*
X135004000Y-77660000D02*
X142404000Y-77660000D01*
X139954000Y-78660000D02*
X139329000Y-77660000D01*
X142404000Y-77660000D02*
X142404000Y-83410000D01*
%TO.C,C20*%
X115100000Y-116694000D02*
X113500000Y-116694000D01*
X115100000Y-117494000D02*
X115100000Y-116694000D01*
X113500000Y-116694000D02*
X113500000Y-117494000D01*
X113500000Y-117494000D02*
X115100000Y-117494000D01*
%TO.C,R25*%
X122000000Y-85412500D02*
X122000000Y-84587500D01*
X122000000Y-84587500D02*
X120400000Y-84587500D01*
X120400000Y-84587500D02*
X120400000Y-85412500D01*
X120400000Y-85412500D02*
X122000000Y-85412500D01*
%TO.C,R1*%
X145250000Y-99375000D02*
X143250000Y-99375000D01*
X143250000Y-99375000D02*
X143250000Y-100625000D01*
X145250000Y-100625000D02*
X145250000Y-99375000D01*
X143250000Y-100625000D02*
X145250000Y-100625000D01*
%TO.C,R7*%
X145353500Y-113071000D02*
X145353500Y-111821000D01*
X145353500Y-111821000D02*
X143353500Y-111821000D01*
X143353500Y-111821000D02*
X143353500Y-113071000D01*
X143353500Y-113071000D02*
X145353500Y-113071000D01*
%TO.C,C23*%
X117554000Y-111468000D02*
X117554000Y-113868000D01*
X111554000Y-113868000D02*
X111554000Y-110668000D01*
X111554000Y-110668000D02*
X116754000Y-110668000D01*
X116754000Y-110668000D02*
X117554000Y-111468000D01*
X117554000Y-113868000D02*
X111554000Y-113868000D01*
%TO.C,C21*%
X126384000Y-115278000D02*
X125584000Y-115278000D01*
X125584000Y-116878000D02*
X126384000Y-116878000D01*
X126384000Y-116878000D02*
X126384000Y-115278000D01*
X125584000Y-115278000D02*
X125584000Y-116878000D01*
%TO.C,C24*%
X124628000Y-110668000D02*
X125428000Y-111468000D01*
X125428000Y-113868000D02*
X119428000Y-113868000D01*
X119428000Y-113868000D02*
X119428000Y-110668000D01*
X125428000Y-111468000D02*
X125428000Y-113868000D01*
X119428000Y-110668000D02*
X124628000Y-110668000D01*
%TO.C,R4*%
X143353500Y-114361000D02*
X143353500Y-115611000D01*
X145353500Y-114361000D02*
X143353500Y-114361000D01*
X145353500Y-115611000D02*
X145353500Y-114361000D01*
X143353500Y-115611000D02*
X145353500Y-115611000D01*
%TO.C,C19*%
X111906000Y-107734000D02*
X111906000Y-106134000D01*
X111106000Y-106134000D02*
X111106000Y-107734000D01*
X111106000Y-107734000D02*
X111906000Y-107734000D01*
X111906000Y-106134000D02*
X111106000Y-106134000D01*
%TO.C,C13*%
X125838000Y-90208000D02*
X126638000Y-90208000D01*
X125838000Y-88608000D02*
X125838000Y-90208000D01*
X126638000Y-90208000D02*
X126638000Y-88608000D01*
X126638000Y-88608000D02*
X125838000Y-88608000D01*
%TO.C,R5*%
X143353500Y-106487000D02*
X143353500Y-107737000D01*
X145353500Y-107737000D02*
X145353500Y-106487000D01*
X143353500Y-107737000D02*
X145353500Y-107737000D01*
X145353500Y-106487000D02*
X143353500Y-106487000D01*
%TO.C,U1*%
X134500000Y-103250000D02*
X134500000Y-107250000D01*
X137500000Y-103250000D02*
X134500000Y-103250000D01*
X134500000Y-107250000D02*
X138500000Y-107250000D01*
X138500000Y-104250000D02*
X137500000Y-103250000D01*
X138500000Y-107250000D02*
X138500000Y-104250000D01*
%TO.C,R6*%
X143353500Y-101661000D02*
X143353500Y-102911000D01*
X143353500Y-102911000D02*
X145353500Y-102911000D01*
X145353500Y-102911000D02*
X145353500Y-101661000D01*
X145353500Y-101661000D02*
X143353500Y-101661000D01*
%TO.C,J5*%
X143000000Y-92725000D02*
X143000000Y-92425000D01*
X143600000Y-90725000D02*
X143000000Y-90725000D01*
X145550000Y-89075000D02*
X142650000Y-89075000D01*
X143000000Y-90425000D02*
X143600000Y-90425000D01*
X143600000Y-93425000D02*
X143600000Y-93725000D01*
X143600000Y-91725000D02*
X143000000Y-91725000D01*
X143000000Y-90725000D02*
X143000000Y-90425000D01*
X145550000Y-90075000D02*
X144842893Y-90575000D01*
X143600000Y-93725000D02*
X143000000Y-93725000D01*
X142650000Y-89075000D02*
X142650000Y-95075000D01*
X143000000Y-92425000D02*
X143600000Y-92425000D01*
X143000000Y-93725000D02*
X143000000Y-93425000D01*
X143600000Y-91425000D02*
X143600000Y-91725000D01*
X143600000Y-92725000D02*
X143000000Y-92725000D01*
X144842893Y-90575000D02*
X145550000Y-91075000D01*
X145550000Y-95075000D02*
X142650000Y-95075000D01*
X143000000Y-93425000D02*
X143600000Y-93425000D01*
X145550000Y-89075000D02*
X145550000Y-95075000D01*
X143000000Y-91725000D02*
X143000000Y-91425000D01*
X143000000Y-91425000D02*
X143600000Y-91425000D01*
X143600000Y-92425000D02*
X143600000Y-92725000D01*
X143600000Y-90425000D02*
X143600000Y-90725000D01*
%TO.C,R24*%
X130000000Y-104975000D02*
X130000000Y-106225000D01*
X130000000Y-106225000D02*
X132000000Y-106225000D01*
X132000000Y-104975000D02*
X130000000Y-104975000D01*
X132000000Y-106225000D02*
X132000000Y-104975000D01*
%TO.C,R2*%
X143353500Y-105451000D02*
X145353500Y-105451000D01*
X145353500Y-104201000D02*
X143353500Y-104201000D01*
X145353500Y-105451000D02*
X145353500Y-104201000D01*
X143353500Y-104201000D02*
X143353500Y-105451000D01*
%TO.C,R14*%
X128875000Y-107350000D02*
X128875000Y-105350000D01*
X128875000Y-105350000D02*
X127625000Y-105350000D01*
X127625000Y-105350000D02*
X127625000Y-107350000D01*
X127625000Y-107350000D02*
X128875000Y-107350000D01*
%TO.C,J3*%
X138050000Y-95075000D02*
X138050000Y-89075000D01*
X140000000Y-91425000D02*
X140600000Y-91425000D01*
X140600000Y-93725000D02*
X140000000Y-93725000D01*
X140600000Y-93425000D02*
X140600000Y-93725000D01*
X140000000Y-92425000D02*
X140600000Y-92425000D01*
X140000000Y-90725000D02*
X140000000Y-90425000D01*
X140000000Y-90425000D02*
X140600000Y-90425000D01*
X140000000Y-93725000D02*
X140000000Y-93425000D01*
X140600000Y-90725000D02*
X140000000Y-90725000D01*
X140600000Y-91425000D02*
X140600000Y-91725000D01*
X140600000Y-92425000D02*
X140600000Y-92725000D01*
X140000000Y-93425000D02*
X140600000Y-93425000D01*
X140600000Y-91725000D02*
X140000000Y-91725000D01*
X138050000Y-95075000D02*
X140950000Y-95075000D01*
X138757107Y-93575000D02*
X138050000Y-93075000D01*
X140950000Y-95075000D02*
X140950000Y-89075000D01*
X138050000Y-94075000D02*
X138757107Y-93575000D01*
X138050000Y-89075000D02*
X140950000Y-89075000D01*
X140600000Y-92725000D02*
X140000000Y-92725000D01*
X140600000Y-90425000D02*
X140600000Y-90725000D01*
X140000000Y-92725000D02*
X140000000Y-92425000D01*
X140000000Y-91725000D02*
X140000000Y-91425000D01*
%TO.C,R3*%
X145353500Y-110531000D02*
X145353500Y-109281000D01*
X145353500Y-109281000D02*
X143353500Y-109281000D01*
X143353500Y-110531000D02*
X145353500Y-110531000D01*
X143353500Y-109281000D02*
X143353500Y-110531000D01*
%TO.C,L1*%
X131945000Y-99433000D02*
X131945000Y-92133000D01*
X124645000Y-92133000D02*
X124645000Y-99433000D01*
%TD*%
M02*
