%TF.GenerationSoftware,KiCad,Pcbnew,6.0.1-79c1e3a40b~116~ubuntu21.10.1*%
%TF.CreationDate,2022-02-21T13:22:11-07:00*%
%TF.ProjectId,PowerBackup,506f7765-7242-4616-936b-75702e6b6963,rev?*%
%TF.SameCoordinates,Original*%
%TF.FileFunction,Legend,Top*%
%TF.FilePolarity,Positive*%
%FSLAX46Y46*%
G04 Gerber Fmt 4.6, Leading zero omitted, Abs format (unit mm)*
G04 Created by KiCad (PCBNEW 6.0.1-79c1e3a40b~116~ubuntu21.10.1) date 2022-02-21 13:22:11*
%MOMM*%
%LPD*%
G01*
G04 APERTURE LIST*
%ADD10C,0.150000*%
%ADD11C,0.120000*%
G04 APERTURE END LIST*
D10*
%TO.C,R16*%
X141482142Y-95152380D02*
X141148809Y-94676190D01*
X140910714Y-95152380D02*
X140910714Y-94152380D01*
X141291666Y-94152380D01*
X141386904Y-94200000D01*
X141434523Y-94247619D01*
X141482142Y-94342857D01*
X141482142Y-94485714D01*
X141434523Y-94580952D01*
X141386904Y-94628571D01*
X141291666Y-94676190D01*
X140910714Y-94676190D01*
X142434523Y-95152380D02*
X141863095Y-95152380D01*
X142148809Y-95152380D02*
X142148809Y-94152380D01*
X142053571Y-94295238D01*
X141958333Y-94390476D01*
X141863095Y-94438095D01*
X143291666Y-94152380D02*
X143101190Y-94152380D01*
X143005952Y-94200000D01*
X142958333Y-94247619D01*
X142863095Y-94390476D01*
X142815476Y-94580952D01*
X142815476Y-94961904D01*
X142863095Y-95057142D01*
X142910714Y-95104761D01*
X143005952Y-95152380D01*
X143196428Y-95152380D01*
X143291666Y-95104761D01*
X143339285Y-95057142D01*
X143386904Y-94961904D01*
X143386904Y-94723809D01*
X143339285Y-94628571D01*
X143291666Y-94580952D01*
X143196428Y-94533333D01*
X143005952Y-94533333D01*
X142910714Y-94580952D01*
X142863095Y-94628571D01*
X142815476Y-94723809D01*
%TO.C,J4*%
X129460666Y-104852380D02*
X129460666Y-105566666D01*
X129413047Y-105709523D01*
X129317809Y-105804761D01*
X129174952Y-105852380D01*
X129079714Y-105852380D01*
X130365428Y-105185714D02*
X130365428Y-105852380D01*
X130127333Y-104804761D02*
X129889238Y-105519047D01*
X130508285Y-105519047D01*
%TO.C,C12*%
X120261142Y-87479142D02*
X120213523Y-87526761D01*
X120070666Y-87574380D01*
X119975428Y-87574380D01*
X119832571Y-87526761D01*
X119737333Y-87431523D01*
X119689714Y-87336285D01*
X119642095Y-87145809D01*
X119642095Y-87002952D01*
X119689714Y-86812476D01*
X119737333Y-86717238D01*
X119832571Y-86622000D01*
X119975428Y-86574380D01*
X120070666Y-86574380D01*
X120213523Y-86622000D01*
X120261142Y-86669619D01*
X121213523Y-87574380D02*
X120642095Y-87574380D01*
X120927809Y-87574380D02*
X120927809Y-86574380D01*
X120832571Y-86717238D01*
X120737333Y-86812476D01*
X120642095Y-86860095D01*
X121594476Y-86669619D02*
X121642095Y-86622000D01*
X121737333Y-86574380D01*
X121975428Y-86574380D01*
X122070666Y-86622000D01*
X122118285Y-86669619D01*
X122165904Y-86764857D01*
X122165904Y-86860095D01*
X122118285Y-87002952D01*
X121546857Y-87574380D01*
X122165904Y-87574380D01*
%TO.C,D1*%
X134310380Y-81002095D02*
X133310380Y-81002095D01*
X133310380Y-80764000D01*
X133358000Y-80621142D01*
X133453238Y-80525904D01*
X133548476Y-80478285D01*
X133738952Y-80430666D01*
X133881809Y-80430666D01*
X134072285Y-80478285D01*
X134167523Y-80525904D01*
X134262761Y-80621142D01*
X134310380Y-80764000D01*
X134310380Y-81002095D01*
X134310380Y-79478285D02*
X134310380Y-80049714D01*
X134310380Y-79764000D02*
X133310380Y-79764000D01*
X133453238Y-79859238D01*
X133548476Y-79954476D01*
X133596095Y-80049714D01*
X135973095Y-84452380D02*
X135973095Y-83452380D01*
X136544523Y-84452380D02*
X136115952Y-83880952D01*
X136544523Y-83452380D02*
X135973095Y-84023809D01*
%TO.C,J6*%
X144227380Y-92108333D02*
X144941666Y-92108333D01*
X145084523Y-92155952D01*
X145179761Y-92251190D01*
X145227380Y-92394047D01*
X145227380Y-92489285D01*
X144227380Y-91203571D02*
X144227380Y-91394047D01*
X144275000Y-91489285D01*
X144322619Y-91536904D01*
X144465476Y-91632142D01*
X144655952Y-91679761D01*
X145036904Y-91679761D01*
X145132142Y-91632142D01*
X145179761Y-91584523D01*
X145227380Y-91489285D01*
X145227380Y-91298809D01*
X145179761Y-91203571D01*
X145132142Y-91155952D01*
X145036904Y-91108333D01*
X144798809Y-91108333D01*
X144703571Y-91155952D01*
X144655952Y-91203571D01*
X144608333Y-91298809D01*
X144608333Y-91489285D01*
X144655952Y-91584523D01*
X144703571Y-91632142D01*
X144798809Y-91679761D01*
%TO.C,R23*%
X116530380Y-91320857D02*
X116054190Y-91654190D01*
X116530380Y-91892285D02*
X115530380Y-91892285D01*
X115530380Y-91511333D01*
X115578000Y-91416095D01*
X115625619Y-91368476D01*
X115720857Y-91320857D01*
X115863714Y-91320857D01*
X115958952Y-91368476D01*
X116006571Y-91416095D01*
X116054190Y-91511333D01*
X116054190Y-91892285D01*
X115625619Y-90939904D02*
X115578000Y-90892285D01*
X115530380Y-90797047D01*
X115530380Y-90558952D01*
X115578000Y-90463714D01*
X115625619Y-90416095D01*
X115720857Y-90368476D01*
X115816095Y-90368476D01*
X115958952Y-90416095D01*
X116530380Y-90987523D01*
X116530380Y-90368476D01*
X115530380Y-90035142D02*
X115530380Y-89416095D01*
X115911333Y-89749428D01*
X115911333Y-89606571D01*
X115958952Y-89511333D01*
X116006571Y-89463714D01*
X116101809Y-89416095D01*
X116339904Y-89416095D01*
X116435142Y-89463714D01*
X116482761Y-89511333D01*
X116530380Y-89606571D01*
X116530380Y-89892285D01*
X116482761Y-89987523D01*
X116435142Y-90035142D01*
%TO.C,R18*%
X112133142Y-86558380D02*
X111799809Y-86082190D01*
X111561714Y-86558380D02*
X111561714Y-85558380D01*
X111942666Y-85558380D01*
X112037904Y-85606000D01*
X112085523Y-85653619D01*
X112133142Y-85748857D01*
X112133142Y-85891714D01*
X112085523Y-85986952D01*
X112037904Y-86034571D01*
X111942666Y-86082190D01*
X111561714Y-86082190D01*
X113085523Y-86558380D02*
X112514095Y-86558380D01*
X112799809Y-86558380D02*
X112799809Y-85558380D01*
X112704571Y-85701238D01*
X112609333Y-85796476D01*
X112514095Y-85844095D01*
X113656952Y-85986952D02*
X113561714Y-85939333D01*
X113514095Y-85891714D01*
X113466476Y-85796476D01*
X113466476Y-85748857D01*
X113514095Y-85653619D01*
X113561714Y-85606000D01*
X113656952Y-85558380D01*
X113847428Y-85558380D01*
X113942666Y-85606000D01*
X113990285Y-85653619D01*
X114037904Y-85748857D01*
X114037904Y-85796476D01*
X113990285Y-85891714D01*
X113942666Y-85939333D01*
X113847428Y-85986952D01*
X113656952Y-85986952D01*
X113561714Y-86034571D01*
X113514095Y-86082190D01*
X113466476Y-86177428D01*
X113466476Y-86367904D01*
X113514095Y-86463142D01*
X113561714Y-86510761D01*
X113656952Y-86558380D01*
X113847428Y-86558380D01*
X113942666Y-86510761D01*
X113990285Y-86463142D01*
X114037904Y-86367904D01*
X114037904Y-86177428D01*
X113990285Y-86082190D01*
X113942666Y-86034571D01*
X113847428Y-85986952D01*
%TO.C,J8*%
X115998666Y-101560380D02*
X115998666Y-102274666D01*
X115951047Y-102417523D01*
X115855809Y-102512761D01*
X115712952Y-102560380D01*
X115617714Y-102560380D01*
X116617714Y-101988952D02*
X116522476Y-101941333D01*
X116474857Y-101893714D01*
X116427238Y-101798476D01*
X116427238Y-101750857D01*
X116474857Y-101655619D01*
X116522476Y-101608000D01*
X116617714Y-101560380D01*
X116808190Y-101560380D01*
X116903428Y-101608000D01*
X116951047Y-101655619D01*
X116998666Y-101750857D01*
X116998666Y-101798476D01*
X116951047Y-101893714D01*
X116903428Y-101941333D01*
X116808190Y-101988952D01*
X116617714Y-101988952D01*
X116522476Y-102036571D01*
X116474857Y-102084190D01*
X116427238Y-102179428D01*
X116427238Y-102369904D01*
X116474857Y-102465142D01*
X116522476Y-102512761D01*
X116617714Y-102560380D01*
X116808190Y-102560380D01*
X116903428Y-102512761D01*
X116951047Y-102465142D01*
X116998666Y-102369904D01*
X116998666Y-102179428D01*
X116951047Y-102084190D01*
X116903428Y-102036571D01*
X116808190Y-101988952D01*
%TO.C,R20*%
X113657142Y-100020380D02*
X113323809Y-99544190D01*
X113085714Y-100020380D02*
X113085714Y-99020380D01*
X113466666Y-99020380D01*
X113561904Y-99068000D01*
X113609523Y-99115619D01*
X113657142Y-99210857D01*
X113657142Y-99353714D01*
X113609523Y-99448952D01*
X113561904Y-99496571D01*
X113466666Y-99544190D01*
X113085714Y-99544190D01*
X114038095Y-99115619D02*
X114085714Y-99068000D01*
X114180952Y-99020380D01*
X114419047Y-99020380D01*
X114514285Y-99068000D01*
X114561904Y-99115619D01*
X114609523Y-99210857D01*
X114609523Y-99306095D01*
X114561904Y-99448952D01*
X113990476Y-100020380D01*
X114609523Y-100020380D01*
X115228571Y-99020380D02*
X115323809Y-99020380D01*
X115419047Y-99068000D01*
X115466666Y-99115619D01*
X115514285Y-99210857D01*
X115561904Y-99401333D01*
X115561904Y-99639428D01*
X115514285Y-99829904D01*
X115466666Y-99925142D01*
X115419047Y-99972761D01*
X115323809Y-100020380D01*
X115228571Y-100020380D01*
X115133333Y-99972761D01*
X115085714Y-99925142D01*
X115038095Y-99829904D01*
X114990476Y-99639428D01*
X114990476Y-99401333D01*
X115038095Y-99210857D01*
X115085714Y-99115619D01*
X115133333Y-99068000D01*
X115228571Y-99020380D01*
%TO.C,Q1*%
X140247619Y-101695238D02*
X140200000Y-101790476D01*
X140104761Y-101885714D01*
X139961904Y-102028571D01*
X139914285Y-102123809D01*
X139914285Y-102219047D01*
X140152380Y-102171428D02*
X140104761Y-102266666D01*
X140009523Y-102361904D01*
X139819047Y-102409523D01*
X139485714Y-102409523D01*
X139295238Y-102361904D01*
X139200000Y-102266666D01*
X139152380Y-102171428D01*
X139152380Y-101980952D01*
X139200000Y-101885714D01*
X139295238Y-101790476D01*
X139485714Y-101742857D01*
X139819047Y-101742857D01*
X140009523Y-101790476D01*
X140104761Y-101885714D01*
X140152380Y-101980952D01*
X140152380Y-102171428D01*
X140152380Y-100790476D02*
X140152380Y-101361904D01*
X140152380Y-101076190D02*
X139152380Y-101076190D01*
X139295238Y-101171428D01*
X139390476Y-101266666D01*
X139438095Y-101361904D01*
%TO.C,C18*%
X124407142Y-99242857D02*
X124454761Y-99290476D01*
X124502380Y-99433333D01*
X124502380Y-99528571D01*
X124454761Y-99671428D01*
X124359523Y-99766666D01*
X124264285Y-99814285D01*
X124073809Y-99861904D01*
X123930952Y-99861904D01*
X123740476Y-99814285D01*
X123645238Y-99766666D01*
X123550000Y-99671428D01*
X123502380Y-99528571D01*
X123502380Y-99433333D01*
X123550000Y-99290476D01*
X123597619Y-99242857D01*
X124502380Y-98290476D02*
X124502380Y-98861904D01*
X124502380Y-98576190D02*
X123502380Y-98576190D01*
X123645238Y-98671428D01*
X123740476Y-98766666D01*
X123788095Y-98861904D01*
X123930952Y-97719047D02*
X123883333Y-97814285D01*
X123835714Y-97861904D01*
X123740476Y-97909523D01*
X123692857Y-97909523D01*
X123597619Y-97861904D01*
X123550000Y-97814285D01*
X123502380Y-97719047D01*
X123502380Y-97528571D01*
X123550000Y-97433333D01*
X123597619Y-97385714D01*
X123692857Y-97338095D01*
X123740476Y-97338095D01*
X123835714Y-97385714D01*
X123883333Y-97433333D01*
X123930952Y-97528571D01*
X123930952Y-97719047D01*
X123978571Y-97814285D01*
X124026190Y-97861904D01*
X124121428Y-97909523D01*
X124311904Y-97909523D01*
X124407142Y-97861904D01*
X124454761Y-97814285D01*
X124502380Y-97719047D01*
X124502380Y-97528571D01*
X124454761Y-97433333D01*
X124407142Y-97385714D01*
X124311904Y-97338095D01*
X124121428Y-97338095D01*
X124026190Y-97385714D01*
X123978571Y-97433333D01*
X123930952Y-97528571D01*
%TO.C,R11*%
X134107142Y-96327380D02*
X133773809Y-95851190D01*
X133535714Y-96327380D02*
X133535714Y-95327380D01*
X133916666Y-95327380D01*
X134011904Y-95375000D01*
X134059523Y-95422619D01*
X134107142Y-95517857D01*
X134107142Y-95660714D01*
X134059523Y-95755952D01*
X134011904Y-95803571D01*
X133916666Y-95851190D01*
X133535714Y-95851190D01*
X135059523Y-96327380D02*
X134488095Y-96327380D01*
X134773809Y-96327380D02*
X134773809Y-95327380D01*
X134678571Y-95470238D01*
X134583333Y-95565476D01*
X134488095Y-95613095D01*
X136011904Y-96327380D02*
X135440476Y-96327380D01*
X135726190Y-96327380D02*
X135726190Y-95327380D01*
X135630952Y-95470238D01*
X135535714Y-95565476D01*
X135440476Y-95613095D01*
%TO.C,C10*%
X134485142Y-88241142D02*
X134437523Y-88288761D01*
X134294666Y-88336380D01*
X134199428Y-88336380D01*
X134056571Y-88288761D01*
X133961333Y-88193523D01*
X133913714Y-88098285D01*
X133866095Y-87907809D01*
X133866095Y-87764952D01*
X133913714Y-87574476D01*
X133961333Y-87479238D01*
X134056571Y-87384000D01*
X134199428Y-87336380D01*
X134294666Y-87336380D01*
X134437523Y-87384000D01*
X134485142Y-87431619D01*
X135437523Y-88336380D02*
X134866095Y-88336380D01*
X135151809Y-88336380D02*
X135151809Y-87336380D01*
X135056571Y-87479238D01*
X134961333Y-87574476D01*
X134866095Y-87622095D01*
X136056571Y-87336380D02*
X136151809Y-87336380D01*
X136247047Y-87384000D01*
X136294666Y-87431619D01*
X136342285Y-87526857D01*
X136389904Y-87717333D01*
X136389904Y-87955428D01*
X136342285Y-88145904D01*
X136294666Y-88241142D01*
X136247047Y-88288761D01*
X136151809Y-88336380D01*
X136056571Y-88336380D01*
X135961333Y-88288761D01*
X135913714Y-88241142D01*
X135866095Y-88145904D01*
X135818476Y-87955428D01*
X135818476Y-87717333D01*
X135866095Y-87526857D01*
X135913714Y-87431619D01*
X135961333Y-87384000D01*
X136056571Y-87336380D01*
%TO.C,R21*%
X124352380Y-103442857D02*
X123876190Y-103776190D01*
X124352380Y-104014285D02*
X123352380Y-104014285D01*
X123352380Y-103633333D01*
X123400000Y-103538095D01*
X123447619Y-103490476D01*
X123542857Y-103442857D01*
X123685714Y-103442857D01*
X123780952Y-103490476D01*
X123828571Y-103538095D01*
X123876190Y-103633333D01*
X123876190Y-104014285D01*
X123447619Y-103061904D02*
X123400000Y-103014285D01*
X123352380Y-102919047D01*
X123352380Y-102680952D01*
X123400000Y-102585714D01*
X123447619Y-102538095D01*
X123542857Y-102490476D01*
X123638095Y-102490476D01*
X123780952Y-102538095D01*
X124352380Y-103109523D01*
X124352380Y-102490476D01*
X124352380Y-101538095D02*
X124352380Y-102109523D01*
X124352380Y-101823809D02*
X123352380Y-101823809D01*
X123495238Y-101919047D01*
X123590476Y-102014285D01*
X123638095Y-102109523D01*
%TO.C,U2*%
X125730095Y-92162380D02*
X125730095Y-92971904D01*
X125777714Y-93067142D01*
X125825333Y-93114761D01*
X125920571Y-93162380D01*
X126111047Y-93162380D01*
X126206285Y-93114761D01*
X126253904Y-93067142D01*
X126301523Y-92971904D01*
X126301523Y-92162380D01*
X126730095Y-92257619D02*
X126777714Y-92210000D01*
X126872952Y-92162380D01*
X127111047Y-92162380D01*
X127206285Y-92210000D01*
X127253904Y-92257619D01*
X127301523Y-92352857D01*
X127301523Y-92448095D01*
X127253904Y-92590952D01*
X126682476Y-93162380D01*
X127301523Y-93162380D01*
X118798380Y-95995800D02*
X119036476Y-95995800D01*
X118941238Y-96233895D02*
X119036476Y-95995800D01*
X118941238Y-95757704D01*
X119226952Y-96138657D02*
X119036476Y-95995800D01*
X119226952Y-95852942D01*
X118798380Y-95995800D02*
X119036476Y-95995800D01*
X118941238Y-96233895D02*
X119036476Y-95995800D01*
X118941238Y-95757704D01*
X119226952Y-96138657D02*
X119036476Y-95995800D01*
X119226952Y-95852942D01*
%TO.C,C9*%
X136231333Y-108307142D02*
X136183714Y-108354761D01*
X136040857Y-108402380D01*
X135945619Y-108402380D01*
X135802761Y-108354761D01*
X135707523Y-108259523D01*
X135659904Y-108164285D01*
X135612285Y-107973809D01*
X135612285Y-107830952D01*
X135659904Y-107640476D01*
X135707523Y-107545238D01*
X135802761Y-107450000D01*
X135945619Y-107402380D01*
X136040857Y-107402380D01*
X136183714Y-107450000D01*
X136231333Y-107497619D01*
X136707523Y-108402380D02*
X136898000Y-108402380D01*
X136993238Y-108354761D01*
X137040857Y-108307142D01*
X137136095Y-108164285D01*
X137183714Y-107973809D01*
X137183714Y-107592857D01*
X137136095Y-107497619D01*
X137088476Y-107450000D01*
X136993238Y-107402380D01*
X136802761Y-107402380D01*
X136707523Y-107450000D01*
X136659904Y-107497619D01*
X136612285Y-107592857D01*
X136612285Y-107830952D01*
X136659904Y-107926190D01*
X136707523Y-107973809D01*
X136802761Y-108021428D01*
X136993238Y-108021428D01*
X137088476Y-107973809D01*
X137136095Y-107926190D01*
X137183714Y-107830952D01*
%TO.C,D2*%
X130071904Y-88522380D02*
X130071904Y-87522380D01*
X130310000Y-87522380D01*
X130452857Y-87570000D01*
X130548095Y-87665238D01*
X130595714Y-87760476D01*
X130643333Y-87950952D01*
X130643333Y-88093809D01*
X130595714Y-88284285D01*
X130548095Y-88379523D01*
X130452857Y-88474761D01*
X130310000Y-88522380D01*
X130071904Y-88522380D01*
X131024285Y-87617619D02*
X131071904Y-87570000D01*
X131167142Y-87522380D01*
X131405238Y-87522380D01*
X131500476Y-87570000D01*
X131548095Y-87617619D01*
X131595714Y-87712857D01*
X131595714Y-87808095D01*
X131548095Y-87950952D01*
X130976666Y-88522380D01*
X131595714Y-88522380D01*
X129503095Y-85152380D02*
X129503095Y-84152380D01*
X130074523Y-85152380D02*
X129645952Y-84580952D01*
X130074523Y-84152380D02*
X129503095Y-84723809D01*
%TO.C,C8*%
X138517333Y-108307142D02*
X138469714Y-108354761D01*
X138326857Y-108402380D01*
X138231619Y-108402380D01*
X138088761Y-108354761D01*
X137993523Y-108259523D01*
X137945904Y-108164285D01*
X137898285Y-107973809D01*
X137898285Y-107830952D01*
X137945904Y-107640476D01*
X137993523Y-107545238D01*
X138088761Y-107450000D01*
X138231619Y-107402380D01*
X138326857Y-107402380D01*
X138469714Y-107450000D01*
X138517333Y-107497619D01*
X139088761Y-107830952D02*
X138993523Y-107783333D01*
X138945904Y-107735714D01*
X138898285Y-107640476D01*
X138898285Y-107592857D01*
X138945904Y-107497619D01*
X138993523Y-107450000D01*
X139088761Y-107402380D01*
X139279238Y-107402380D01*
X139374476Y-107450000D01*
X139422095Y-107497619D01*
X139469714Y-107592857D01*
X139469714Y-107640476D01*
X139422095Y-107735714D01*
X139374476Y-107783333D01*
X139279238Y-107830952D01*
X139088761Y-107830952D01*
X138993523Y-107878571D01*
X138945904Y-107926190D01*
X138898285Y-108021428D01*
X138898285Y-108211904D01*
X138945904Y-108307142D01*
X138993523Y-108354761D01*
X139088761Y-108402380D01*
X139279238Y-108402380D01*
X139374476Y-108354761D01*
X139422095Y-108307142D01*
X139469714Y-108211904D01*
X139469714Y-108021428D01*
X139422095Y-107926190D01*
X139374476Y-107878571D01*
X139279238Y-107830952D01*
%TO.C,R9*%
X138189880Y-110666666D02*
X137713690Y-111000000D01*
X138189880Y-111238095D02*
X137189880Y-111238095D01*
X137189880Y-110857142D01*
X137237500Y-110761904D01*
X137285119Y-110714285D01*
X137380357Y-110666666D01*
X137523214Y-110666666D01*
X137618452Y-110714285D01*
X137666071Y-110761904D01*
X137713690Y-110857142D01*
X137713690Y-111238095D01*
X138189880Y-110190476D02*
X138189880Y-110000000D01*
X138142261Y-109904761D01*
X138094642Y-109857142D01*
X137951785Y-109761904D01*
X137761309Y-109714285D01*
X137380357Y-109714285D01*
X137285119Y-109761904D01*
X137237500Y-109809523D01*
X137189880Y-109904761D01*
X137189880Y-110095238D01*
X137237500Y-110190476D01*
X137285119Y-110238095D01*
X137380357Y-110285714D01*
X137618452Y-110285714D01*
X137713690Y-110238095D01*
X137761309Y-110190476D01*
X137808928Y-110095238D01*
X137808928Y-109904761D01*
X137761309Y-109809523D01*
X137713690Y-109761904D01*
X137618452Y-109714285D01*
%TO.C,R13*%
X127707142Y-103827380D02*
X127373809Y-103351190D01*
X127135714Y-103827380D02*
X127135714Y-102827380D01*
X127516666Y-102827380D01*
X127611904Y-102875000D01*
X127659523Y-102922619D01*
X127707142Y-103017857D01*
X127707142Y-103160714D01*
X127659523Y-103255952D01*
X127611904Y-103303571D01*
X127516666Y-103351190D01*
X127135714Y-103351190D01*
X128659523Y-103827380D02*
X128088095Y-103827380D01*
X128373809Y-103827380D02*
X128373809Y-102827380D01*
X128278571Y-102970238D01*
X128183333Y-103065476D01*
X128088095Y-103113095D01*
X128992857Y-102827380D02*
X129611904Y-102827380D01*
X129278571Y-103208333D01*
X129421428Y-103208333D01*
X129516666Y-103255952D01*
X129564285Y-103303571D01*
X129611904Y-103398809D01*
X129611904Y-103636904D01*
X129564285Y-103732142D01*
X129516666Y-103779761D01*
X129421428Y-103827380D01*
X129135714Y-103827380D01*
X129040476Y-103779761D01*
X128992857Y-103732142D01*
%TO.C,TH1*%
X126452380Y-109489714D02*
X126452380Y-108918285D01*
X127452380Y-109204000D02*
X126452380Y-109204000D01*
X127452380Y-108584952D02*
X126452380Y-108584952D01*
X126928571Y-108584952D02*
X126928571Y-108013523D01*
X127452380Y-108013523D02*
X126452380Y-108013523D01*
X127452380Y-107013523D02*
X127452380Y-107584952D01*
X127452380Y-107299238D02*
X126452380Y-107299238D01*
X126595238Y-107394476D01*
X126690476Y-107489714D01*
X126738095Y-107584952D01*
%TO.C,R15*%
X132382142Y-97677380D02*
X132048809Y-97201190D01*
X131810714Y-97677380D02*
X131810714Y-96677380D01*
X132191666Y-96677380D01*
X132286904Y-96725000D01*
X132334523Y-96772619D01*
X132382142Y-96867857D01*
X132382142Y-97010714D01*
X132334523Y-97105952D01*
X132286904Y-97153571D01*
X132191666Y-97201190D01*
X131810714Y-97201190D01*
X133334523Y-97677380D02*
X132763095Y-97677380D01*
X133048809Y-97677380D02*
X133048809Y-96677380D01*
X132953571Y-96820238D01*
X132858333Y-96915476D01*
X132763095Y-96963095D01*
X134239285Y-96677380D02*
X133763095Y-96677380D01*
X133715476Y-97153571D01*
X133763095Y-97105952D01*
X133858333Y-97058333D01*
X134096428Y-97058333D01*
X134191666Y-97105952D01*
X134239285Y-97153571D01*
X134286904Y-97248809D01*
X134286904Y-97486904D01*
X134239285Y-97582142D01*
X134191666Y-97629761D01*
X134096428Y-97677380D01*
X133858333Y-97677380D01*
X133763095Y-97629761D01*
X133715476Y-97582142D01*
%TO.C,J9*%
X123872666Y-110450380D02*
X123872666Y-111164666D01*
X123825047Y-111307523D01*
X123729809Y-111402761D01*
X123586952Y-111450380D01*
X123491714Y-111450380D01*
X124396476Y-111450380D02*
X124586952Y-111450380D01*
X124682190Y-111402761D01*
X124729809Y-111355142D01*
X124825047Y-111212285D01*
X124872666Y-111021809D01*
X124872666Y-110640857D01*
X124825047Y-110545619D01*
X124777428Y-110498000D01*
X124682190Y-110450380D01*
X124491714Y-110450380D01*
X124396476Y-110498000D01*
X124348857Y-110545619D01*
X124301238Y-110640857D01*
X124301238Y-110878952D01*
X124348857Y-110974190D01*
X124396476Y-111021809D01*
X124491714Y-111069428D01*
X124682190Y-111069428D01*
X124777428Y-111021809D01*
X124825047Y-110974190D01*
X124872666Y-110878952D01*
%TO.C,D4*%
X117067904Y-86386380D02*
X117067904Y-85386380D01*
X117306000Y-85386380D01*
X117448857Y-85434000D01*
X117544095Y-85529238D01*
X117591714Y-85624476D01*
X117639333Y-85814952D01*
X117639333Y-85957809D01*
X117591714Y-86148285D01*
X117544095Y-86243523D01*
X117448857Y-86338761D01*
X117306000Y-86386380D01*
X117067904Y-86386380D01*
X118496476Y-85719714D02*
X118496476Y-86386380D01*
X118258380Y-85338761D02*
X118020285Y-86053047D01*
X118639333Y-86053047D01*
%TO.C,R19*%
X120515142Y-86050380D02*
X120181809Y-85574190D01*
X119943714Y-86050380D02*
X119943714Y-85050380D01*
X120324666Y-85050380D01*
X120419904Y-85098000D01*
X120467523Y-85145619D01*
X120515142Y-85240857D01*
X120515142Y-85383714D01*
X120467523Y-85478952D01*
X120419904Y-85526571D01*
X120324666Y-85574190D01*
X119943714Y-85574190D01*
X121467523Y-86050380D02*
X120896095Y-86050380D01*
X121181809Y-86050380D02*
X121181809Y-85050380D01*
X121086571Y-85193238D01*
X120991333Y-85288476D01*
X120896095Y-85336095D01*
X121943714Y-86050380D02*
X122134190Y-86050380D01*
X122229428Y-86002761D01*
X122277047Y-85955142D01*
X122372285Y-85812285D01*
X122419904Y-85621809D01*
X122419904Y-85240857D01*
X122372285Y-85145619D01*
X122324666Y-85098000D01*
X122229428Y-85050380D01*
X122038952Y-85050380D01*
X121943714Y-85098000D01*
X121896095Y-85145619D01*
X121848476Y-85240857D01*
X121848476Y-85478952D01*
X121896095Y-85574190D01*
X121943714Y-85621809D01*
X122038952Y-85669428D01*
X122229428Y-85669428D01*
X122324666Y-85621809D01*
X122372285Y-85574190D01*
X122419904Y-85478952D01*
%TO.C,R17*%
X141682142Y-89377380D02*
X141348809Y-88901190D01*
X141110714Y-89377380D02*
X141110714Y-88377380D01*
X141491666Y-88377380D01*
X141586904Y-88425000D01*
X141634523Y-88472619D01*
X141682142Y-88567857D01*
X141682142Y-88710714D01*
X141634523Y-88805952D01*
X141586904Y-88853571D01*
X141491666Y-88901190D01*
X141110714Y-88901190D01*
X142634523Y-89377380D02*
X142063095Y-89377380D01*
X142348809Y-89377380D02*
X142348809Y-88377380D01*
X142253571Y-88520238D01*
X142158333Y-88615476D01*
X142063095Y-88663095D01*
X142967857Y-88377380D02*
X143634523Y-88377380D01*
X143205952Y-89377380D01*
%TO.C,J2*%
X147495430Y-95972380D02*
X147495430Y-96686666D01*
X147447811Y-96829523D01*
X147352573Y-96924761D01*
X147209716Y-96972380D01*
X147114478Y-96972380D01*
X147924002Y-96067619D02*
X147971621Y-96020000D01*
X148066859Y-95972380D01*
X148304954Y-95972380D01*
X148400192Y-96020000D01*
X148447811Y-96067619D01*
X148495430Y-96162857D01*
X148495430Y-96258095D01*
X148447811Y-96400952D01*
X147876383Y-96972380D01*
X148495430Y-96972380D01*
%TO.C,H1*%
X114300095Y-79175380D02*
X114300095Y-78175380D01*
X114300095Y-78651571D02*
X114871523Y-78651571D01*
X114871523Y-79175380D02*
X114871523Y-78175380D01*
X115871523Y-79175380D02*
X115300095Y-79175380D01*
X115585809Y-79175380D02*
X115585809Y-78175380D01*
X115490571Y-78318238D01*
X115395333Y-78413476D01*
X115300095Y-78461095D01*
%TO.C,J7*%
X122856666Y-80478380D02*
X122856666Y-81192666D01*
X122809047Y-81335523D01*
X122713809Y-81430761D01*
X122570952Y-81478380D01*
X122475714Y-81478380D01*
X123237619Y-80478380D02*
X123904285Y-80478380D01*
X123475714Y-81478380D01*
%TO.C,R8*%
X140803333Y-98750380D02*
X140470000Y-98274190D01*
X140231904Y-98750380D02*
X140231904Y-97750380D01*
X140612857Y-97750380D01*
X140708095Y-97798000D01*
X140755714Y-97845619D01*
X140803333Y-97940857D01*
X140803333Y-98083714D01*
X140755714Y-98178952D01*
X140708095Y-98226571D01*
X140612857Y-98274190D01*
X140231904Y-98274190D01*
X141374761Y-98178952D02*
X141279523Y-98131333D01*
X141231904Y-98083714D01*
X141184285Y-97988476D01*
X141184285Y-97940857D01*
X141231904Y-97845619D01*
X141279523Y-97798000D01*
X141374761Y-97750380D01*
X141565238Y-97750380D01*
X141660476Y-97798000D01*
X141708095Y-97845619D01*
X141755714Y-97940857D01*
X141755714Y-97988476D01*
X141708095Y-98083714D01*
X141660476Y-98131333D01*
X141565238Y-98178952D01*
X141374761Y-98178952D01*
X141279523Y-98226571D01*
X141231904Y-98274190D01*
X141184285Y-98369428D01*
X141184285Y-98559904D01*
X141231904Y-98655142D01*
X141279523Y-98702761D01*
X141374761Y-98750380D01*
X141565238Y-98750380D01*
X141660476Y-98702761D01*
X141708095Y-98655142D01*
X141755714Y-98559904D01*
X141755714Y-98369428D01*
X141708095Y-98274190D01*
X141660476Y-98226571D01*
X141565238Y-98178952D01*
%TO.C,R10*%
X134357142Y-115352380D02*
X134023809Y-114876190D01*
X133785714Y-115352380D02*
X133785714Y-114352380D01*
X134166666Y-114352380D01*
X134261904Y-114400000D01*
X134309523Y-114447619D01*
X134357142Y-114542857D01*
X134357142Y-114685714D01*
X134309523Y-114780952D01*
X134261904Y-114828571D01*
X134166666Y-114876190D01*
X133785714Y-114876190D01*
X135309523Y-115352380D02*
X134738095Y-115352380D01*
X135023809Y-115352380D02*
X135023809Y-114352380D01*
X134928571Y-114495238D01*
X134833333Y-114590476D01*
X134738095Y-114638095D01*
X135928571Y-114352380D02*
X136023809Y-114352380D01*
X136119047Y-114400000D01*
X136166666Y-114447619D01*
X136214285Y-114542857D01*
X136261904Y-114733333D01*
X136261904Y-114971428D01*
X136214285Y-115161904D01*
X136166666Y-115257142D01*
X136119047Y-115304761D01*
X136023809Y-115352380D01*
X135928571Y-115352380D01*
X135833333Y-115304761D01*
X135785714Y-115257142D01*
X135738095Y-115161904D01*
X135690476Y-114971428D01*
X135690476Y-114733333D01*
X135738095Y-114542857D01*
X135785714Y-114447619D01*
X135833333Y-114400000D01*
X135928571Y-114352380D01*
%TO.C,C25*%
X113149142Y-94083142D02*
X113101523Y-94130761D01*
X112958666Y-94178380D01*
X112863428Y-94178380D01*
X112720571Y-94130761D01*
X112625333Y-94035523D01*
X112577714Y-93940285D01*
X112530095Y-93749809D01*
X112530095Y-93606952D01*
X112577714Y-93416476D01*
X112625333Y-93321238D01*
X112720571Y-93226000D01*
X112863428Y-93178380D01*
X112958666Y-93178380D01*
X113101523Y-93226000D01*
X113149142Y-93273619D01*
X113530095Y-93273619D02*
X113577714Y-93226000D01*
X113672952Y-93178380D01*
X113911047Y-93178380D01*
X114006285Y-93226000D01*
X114053904Y-93273619D01*
X114101523Y-93368857D01*
X114101523Y-93464095D01*
X114053904Y-93606952D01*
X113482476Y-94178380D01*
X114101523Y-94178380D01*
X115006285Y-93178380D02*
X114530095Y-93178380D01*
X114482476Y-93654571D01*
X114530095Y-93606952D01*
X114625333Y-93559333D01*
X114863428Y-93559333D01*
X114958666Y-93606952D01*
X115006285Y-93654571D01*
X115053904Y-93749809D01*
X115053904Y-93987904D01*
X115006285Y-94083142D01*
X114958666Y-94130761D01*
X114863428Y-94178380D01*
X114625333Y-94178380D01*
X114530095Y-94130761D01*
X114482476Y-94083142D01*
%TO.C,R22*%
X120769142Y-98242380D02*
X120435809Y-97766190D01*
X120197714Y-98242380D02*
X120197714Y-97242380D01*
X120578666Y-97242380D01*
X120673904Y-97290000D01*
X120721523Y-97337619D01*
X120769142Y-97432857D01*
X120769142Y-97575714D01*
X120721523Y-97670952D01*
X120673904Y-97718571D01*
X120578666Y-97766190D01*
X120197714Y-97766190D01*
X121150095Y-97337619D02*
X121197714Y-97290000D01*
X121292952Y-97242380D01*
X121531047Y-97242380D01*
X121626285Y-97290000D01*
X121673904Y-97337619D01*
X121721523Y-97432857D01*
X121721523Y-97528095D01*
X121673904Y-97670952D01*
X121102476Y-98242380D01*
X121721523Y-98242380D01*
X122102476Y-97337619D02*
X122150095Y-97290000D01*
X122245333Y-97242380D01*
X122483428Y-97242380D01*
X122578666Y-97290000D01*
X122626285Y-97337619D01*
X122673904Y-97432857D01*
X122673904Y-97528095D01*
X122626285Y-97670952D01*
X122054857Y-98242380D01*
X122673904Y-98242380D01*
%TO.C,R12*%
X130675142Y-110942380D02*
X130341809Y-110466190D01*
X130103714Y-110942380D02*
X130103714Y-109942380D01*
X130484666Y-109942380D01*
X130579904Y-109990000D01*
X130627523Y-110037619D01*
X130675142Y-110132857D01*
X130675142Y-110275714D01*
X130627523Y-110370952D01*
X130579904Y-110418571D01*
X130484666Y-110466190D01*
X130103714Y-110466190D01*
X131627523Y-110942380D02*
X131056095Y-110942380D01*
X131341809Y-110942380D02*
X131341809Y-109942380D01*
X131246571Y-110085238D01*
X131151333Y-110180476D01*
X131056095Y-110228095D01*
X132008476Y-110037619D02*
X132056095Y-109990000D01*
X132151333Y-109942380D01*
X132389428Y-109942380D01*
X132484666Y-109990000D01*
X132532285Y-110037619D01*
X132579904Y-110132857D01*
X132579904Y-110228095D01*
X132532285Y-110370952D01*
X131960857Y-110942380D01*
X132579904Y-110942380D01*
%TO.C,H2*%
X145288095Y-79175380D02*
X145288095Y-78175380D01*
X145288095Y-78651571D02*
X145859523Y-78651571D01*
X145859523Y-79175380D02*
X145859523Y-78175380D01*
X146288095Y-78270619D02*
X146335714Y-78223000D01*
X146430952Y-78175380D01*
X146669047Y-78175380D01*
X146764285Y-78223000D01*
X146811904Y-78270619D01*
X146859523Y-78365857D01*
X146859523Y-78461095D01*
X146811904Y-78603952D01*
X146240476Y-79175380D01*
X146859523Y-79175380D01*
%TO.C,C15*%
X120769142Y-102625142D02*
X120721523Y-102672761D01*
X120578666Y-102720380D01*
X120483428Y-102720380D01*
X120340571Y-102672761D01*
X120245333Y-102577523D01*
X120197714Y-102482285D01*
X120150095Y-102291809D01*
X120150095Y-102148952D01*
X120197714Y-101958476D01*
X120245333Y-101863238D01*
X120340571Y-101768000D01*
X120483428Y-101720380D01*
X120578666Y-101720380D01*
X120721523Y-101768000D01*
X120769142Y-101815619D01*
X121721523Y-102720380D02*
X121150095Y-102720380D01*
X121435809Y-102720380D02*
X121435809Y-101720380D01*
X121340571Y-101863238D01*
X121245333Y-101958476D01*
X121150095Y-102006095D01*
X122626285Y-101720380D02*
X122150095Y-101720380D01*
X122102476Y-102196571D01*
X122150095Y-102148952D01*
X122245333Y-102101333D01*
X122483428Y-102101333D01*
X122578666Y-102148952D01*
X122626285Y-102196571D01*
X122673904Y-102291809D01*
X122673904Y-102529904D01*
X122626285Y-102625142D01*
X122578666Y-102672761D01*
X122483428Y-102720380D01*
X122245333Y-102720380D01*
X122150095Y-102672761D01*
X122102476Y-102625142D01*
%TO.C,C14*%
X113657142Y-98655142D02*
X113609523Y-98702761D01*
X113466666Y-98750380D01*
X113371428Y-98750380D01*
X113228571Y-98702761D01*
X113133333Y-98607523D01*
X113085714Y-98512285D01*
X113038095Y-98321809D01*
X113038095Y-98178952D01*
X113085714Y-97988476D01*
X113133333Y-97893238D01*
X113228571Y-97798000D01*
X113371428Y-97750380D01*
X113466666Y-97750380D01*
X113609523Y-97798000D01*
X113657142Y-97845619D01*
X114609523Y-98750380D02*
X114038095Y-98750380D01*
X114323809Y-98750380D02*
X114323809Y-97750380D01*
X114228571Y-97893238D01*
X114133333Y-97988476D01*
X114038095Y-98036095D01*
X115466666Y-98083714D02*
X115466666Y-98750380D01*
X115228571Y-97702761D02*
X114990476Y-98417047D01*
X115609523Y-98417047D01*
%TO.C,J10*%
X117046476Y-110196380D02*
X117046476Y-110910666D01*
X116998857Y-111053523D01*
X116903619Y-111148761D01*
X116760761Y-111196380D01*
X116665523Y-111196380D01*
X118046476Y-111196380D02*
X117475047Y-111196380D01*
X117760761Y-111196380D02*
X117760761Y-110196380D01*
X117665523Y-110339238D01*
X117570285Y-110434476D01*
X117475047Y-110482095D01*
X118665523Y-110196380D02*
X118760761Y-110196380D01*
X118856000Y-110244000D01*
X118903619Y-110291619D01*
X118951238Y-110386857D01*
X118998857Y-110577333D01*
X118998857Y-110815428D01*
X118951238Y-111005904D01*
X118903619Y-111101142D01*
X118856000Y-111148761D01*
X118760761Y-111196380D01*
X118665523Y-111196380D01*
X118570285Y-111148761D01*
X118522666Y-111101142D01*
X118475047Y-111005904D01*
X118427428Y-110815428D01*
X118427428Y-110577333D01*
X118475047Y-110386857D01*
X118522666Y-110291619D01*
X118570285Y-110244000D01*
X118665523Y-110196380D01*
%TO.C,D3*%
X111529904Y-91892380D02*
X111529904Y-90892380D01*
X111768000Y-90892380D01*
X111910857Y-90940000D01*
X112006095Y-91035238D01*
X112053714Y-91130476D01*
X112101333Y-91320952D01*
X112101333Y-91463809D01*
X112053714Y-91654285D01*
X112006095Y-91749523D01*
X111910857Y-91844761D01*
X111768000Y-91892380D01*
X111529904Y-91892380D01*
X112434666Y-90892380D02*
X113053714Y-90892380D01*
X112720380Y-91273333D01*
X112863238Y-91273333D01*
X112958476Y-91320952D01*
X113006095Y-91368571D01*
X113053714Y-91463809D01*
X113053714Y-91701904D01*
X113006095Y-91797142D01*
X112958476Y-91844761D01*
X112863238Y-91892380D01*
X112577523Y-91892380D01*
X112482285Y-91844761D01*
X112434666Y-91797142D01*
%TO.C,C17*%
X131111142Y-101988857D02*
X131158761Y-102036476D01*
X131206380Y-102179333D01*
X131206380Y-102274571D01*
X131158761Y-102417428D01*
X131063523Y-102512666D01*
X130968285Y-102560285D01*
X130777809Y-102607904D01*
X130634952Y-102607904D01*
X130444476Y-102560285D01*
X130349238Y-102512666D01*
X130254000Y-102417428D01*
X130206380Y-102274571D01*
X130206380Y-102179333D01*
X130254000Y-102036476D01*
X130301619Y-101988857D01*
X131206380Y-101036476D02*
X131206380Y-101607904D01*
X131206380Y-101322190D02*
X130206380Y-101322190D01*
X130349238Y-101417428D01*
X130444476Y-101512666D01*
X130492095Y-101607904D01*
X130206380Y-100703142D02*
X130206380Y-100036476D01*
X131206380Y-100465047D01*
%TO.C,C11*%
X113911142Y-95353142D02*
X113863523Y-95400761D01*
X113720666Y-95448380D01*
X113625428Y-95448380D01*
X113482571Y-95400761D01*
X113387333Y-95305523D01*
X113339714Y-95210285D01*
X113292095Y-95019809D01*
X113292095Y-94876952D01*
X113339714Y-94686476D01*
X113387333Y-94591238D01*
X113482571Y-94496000D01*
X113625428Y-94448380D01*
X113720666Y-94448380D01*
X113863523Y-94496000D01*
X113911142Y-94543619D01*
X114863523Y-95448380D02*
X114292095Y-95448380D01*
X114577809Y-95448380D02*
X114577809Y-94448380D01*
X114482571Y-94591238D01*
X114387333Y-94686476D01*
X114292095Y-94734095D01*
X115815904Y-95448380D02*
X115244476Y-95448380D01*
X115530190Y-95448380D02*
X115530190Y-94448380D01*
X115434952Y-94591238D01*
X115339714Y-94686476D01*
X115244476Y-94734095D01*
%TO.C,C16*%
X129611142Y-101734857D02*
X129658761Y-101782476D01*
X129706380Y-101925333D01*
X129706380Y-102020571D01*
X129658761Y-102163428D01*
X129563523Y-102258666D01*
X129468285Y-102306285D01*
X129277809Y-102353904D01*
X129134952Y-102353904D01*
X128944476Y-102306285D01*
X128849238Y-102258666D01*
X128754000Y-102163428D01*
X128706380Y-102020571D01*
X128706380Y-101925333D01*
X128754000Y-101782476D01*
X128801619Y-101734857D01*
X129706380Y-100782476D02*
X129706380Y-101353904D01*
X129706380Y-101068190D02*
X128706380Y-101068190D01*
X128849238Y-101163428D01*
X128944476Y-101258666D01*
X128992095Y-101353904D01*
X128706380Y-99925333D02*
X128706380Y-100115809D01*
X128754000Y-100211047D01*
X128801619Y-100258666D01*
X128944476Y-100353904D01*
X129134952Y-100401523D01*
X129515904Y-100401523D01*
X129611142Y-100353904D01*
X129658761Y-100306285D01*
X129706380Y-100211047D01*
X129706380Y-100020571D01*
X129658761Y-99925333D01*
X129611142Y-99877714D01*
X129515904Y-99830095D01*
X129277809Y-99830095D01*
X129182571Y-99877714D01*
X129134952Y-99925333D01*
X129087333Y-100020571D01*
X129087333Y-100211047D01*
X129134952Y-100306285D01*
X129182571Y-100353904D01*
X129277809Y-100401523D01*
D11*
%TO.C,R16*%
X142352064Y-93785000D02*
X141897936Y-93785000D01*
X142352064Y-92315000D02*
X141897936Y-92315000D01*
%TO.C,J4*%
X132495000Y-108960000D02*
X132495000Y-108960000D01*
X132495000Y-107960000D02*
X132495000Y-108960000D01*
X131105000Y-106960000D02*
X131105000Y-107840000D01*
X131105000Y-108960000D02*
X132495000Y-108960000D01*
X132495000Y-103840000D02*
X132495000Y-104840000D01*
X131105000Y-103840000D02*
X131105000Y-103840000D01*
X131105000Y-103840000D02*
X132495000Y-103840000D01*
X131105000Y-104960000D02*
X131105000Y-105840000D01*
X132495000Y-105960000D02*
X132495000Y-106840000D01*
X131105000Y-103840000D02*
X130110000Y-103840000D01*
%TO.C,C12*%
X121298580Y-88136000D02*
X121017420Y-88136000D01*
X121298580Y-89156000D02*
X121017420Y-89156000D01*
%TO.C,D1*%
X138245000Y-83100000D02*
X135835000Y-83100000D01*
X141185000Y-83100000D02*
G75*
G03*
X141185000Y-83100000I-1470000J0D01*
G01*
%TO.C,J6*%
X148125000Y-88725000D02*
X151075000Y-88725000D01*
X151835000Y-87965000D02*
X145865000Y-87965000D01*
X145865000Y-95585000D02*
X151835000Y-95585000D01*
X145875000Y-87975000D02*
X145875000Y-89775000D01*
X146625000Y-93775000D02*
X145875000Y-93775000D01*
X145875000Y-95575000D02*
X146625000Y-95575000D01*
X145575000Y-95875000D02*
X146825000Y-95875000D01*
X151075000Y-88725000D02*
X151075000Y-91775000D01*
X146625000Y-91275000D02*
X145875000Y-91275000D01*
X146625000Y-95575000D02*
X146625000Y-93775000D01*
X148125000Y-87975000D02*
X148125000Y-88725000D01*
X146625000Y-92275000D02*
X146625000Y-91275000D01*
X146625000Y-89775000D02*
X146625000Y-87975000D01*
X151835000Y-95585000D02*
X151835000Y-87965000D01*
X146625000Y-87975000D02*
X145875000Y-87975000D01*
X145575000Y-94625000D02*
X145575000Y-95875000D01*
X145875000Y-89775000D02*
X146625000Y-89775000D01*
X145875000Y-92275000D02*
X146625000Y-92275000D01*
X148125000Y-94825000D02*
X151075000Y-94825000D01*
X145875000Y-93775000D02*
X145875000Y-95575000D01*
X148125000Y-95575000D02*
X148125000Y-94825000D01*
X151075000Y-94825000D02*
X151075000Y-91775000D01*
X145865000Y-87965000D02*
X145865000Y-95585000D01*
X145875000Y-91275000D02*
X145875000Y-92275000D01*
%TO.C,R23*%
X117870500Y-90915258D02*
X117870500Y-90440742D01*
X116825500Y-90915258D02*
X116825500Y-90440742D01*
%TO.C,R18*%
X114283258Y-87898500D02*
X113808742Y-87898500D01*
X114283258Y-86853500D02*
X113808742Y-86853500D01*
%TO.C,C1*%
X141609420Y-115529236D02*
X141890580Y-115529236D01*
X141609420Y-114509236D02*
X141890580Y-114509236D01*
%TO.C,C6*%
X141609420Y-103260000D02*
X141890580Y-103260000D01*
X141609420Y-102240000D02*
X141890580Y-102240000D01*
%TO.C,J8*%
X110771000Y-109530000D02*
X110771000Y-110780000D01*
X111071000Y-106180000D02*
X111071000Y-107180000D01*
X111821000Y-110480000D02*
X111821000Y-108680000D01*
X111071000Y-102880000D02*
X111071000Y-104680000D01*
X113321000Y-102880000D02*
X113321000Y-103630000D01*
X111071000Y-108680000D02*
X111071000Y-110480000D01*
X111071000Y-104680000D02*
X111821000Y-104680000D01*
X111821000Y-108680000D02*
X111071000Y-108680000D01*
X113321000Y-109730000D02*
X116271000Y-109730000D01*
X111071000Y-107180000D02*
X111821000Y-107180000D01*
X116271000Y-109730000D02*
X116271000Y-106680000D01*
X117031000Y-102870000D02*
X111061000Y-102870000D01*
X111821000Y-104680000D02*
X111821000Y-102880000D01*
X111821000Y-107180000D02*
X111821000Y-106180000D01*
X116271000Y-103630000D02*
X116271000Y-106680000D01*
X113321000Y-110480000D02*
X113321000Y-109730000D01*
X111071000Y-110480000D02*
X111821000Y-110480000D01*
X111061000Y-102870000D02*
X111061000Y-110490000D01*
X111821000Y-106180000D02*
X111071000Y-106180000D01*
X113321000Y-103630000D02*
X116271000Y-103630000D01*
X111061000Y-110490000D02*
X117031000Y-110490000D01*
X110771000Y-110780000D02*
X112021000Y-110780000D01*
X111821000Y-102880000D02*
X111071000Y-102880000D01*
X117031000Y-110490000D02*
X117031000Y-102870000D01*
%TO.C,R20*%
X117110742Y-99045500D02*
X117585258Y-99045500D01*
X117110742Y-100090500D02*
X117585258Y-100090500D01*
%TO.C,C7*%
X141609420Y-101010000D02*
X141890580Y-101010000D01*
X141609420Y-99990000D02*
X141890580Y-99990000D01*
%TO.C,Q1*%
X137200000Y-100040000D02*
X136550000Y-100040000D01*
X137200000Y-103160000D02*
X136550000Y-103160000D01*
X137200000Y-103160000D02*
X138875000Y-103160000D01*
X137200000Y-100040000D02*
X137850000Y-100040000D01*
%TO.C,C18*%
X124890000Y-102360000D02*
X128310000Y-102360000D01*
X128310000Y-102360000D02*
X128310000Y-95600000D01*
X124890000Y-95600000D02*
X124890000Y-102360000D01*
%TO.C,R11*%
X134572936Y-98065000D02*
X135027064Y-98065000D01*
X134572936Y-99535000D02*
X135027064Y-99535000D01*
%TO.C,C10*%
X135241420Y-85596000D02*
X135522580Y-85596000D01*
X135241420Y-86616000D02*
X135522580Y-86616000D01*
%TO.C,R21*%
X124022500Y-100237258D02*
X124022500Y-99762742D01*
X122977500Y-100237258D02*
X122977500Y-99762742D01*
%TO.C,U2*%
X125073002Y-95082995D02*
X125073002Y-94563728D01*
X118818998Y-95082995D02*
X119188274Y-95082995D01*
X125073002Y-89829005D02*
X124703726Y-89829005D01*
X125073002Y-90348272D02*
X125073002Y-89829005D01*
X118818998Y-89829005D02*
X118818998Y-90348272D01*
X124703726Y-95082995D02*
X125073002Y-95082995D01*
X119188274Y-89829005D02*
X118818998Y-89829005D01*
X118818998Y-94563728D02*
X118818998Y-95082995D01*
%TO.C,C9*%
X137010000Y-105359420D02*
X137010000Y-105640580D01*
X135990000Y-105359420D02*
X135990000Y-105640580D01*
%TO.C,D2*%
X127755000Y-85600000D02*
X130165000Y-85600000D01*
X127755000Y-85600000D02*
G75*
G03*
X127755000Y-85600000I-1470000J0D01*
G01*
%TO.C,C8*%
X138240000Y-105359420D02*
X138240000Y-105640580D01*
X139260000Y-105359420D02*
X139260000Y-105640580D01*
%TO.C,R9*%
X135352500Y-110272936D02*
X135352500Y-110727064D01*
X136822500Y-110272936D02*
X136822500Y-110727064D01*
%TO.C,R13*%
X133372936Y-102065000D02*
X133827064Y-102065000D01*
X133372936Y-103535000D02*
X133827064Y-103535000D01*
%TO.C,C3*%
X141609420Y-109490000D02*
X141890580Y-109490000D01*
X141609420Y-110510000D02*
X141890580Y-110510000D01*
%TO.C,TH1*%
X128065000Y-108172936D02*
X128065000Y-108627064D01*
X129535000Y-108172936D02*
X129535000Y-108627064D01*
%TO.C,C5*%
X141609420Y-105510000D02*
X141890580Y-105510000D01*
X141609420Y-104490000D02*
X141890580Y-104490000D01*
%TO.C,C4*%
X141609420Y-108010000D02*
X141890580Y-108010000D01*
X141609420Y-106990000D02*
X141890580Y-106990000D01*
%TO.C,R15*%
X133372936Y-100065000D02*
X133827064Y-100065000D01*
X133372936Y-101535000D02*
X133827064Y-101535000D01*
%TO.C,J9*%
X126482000Y-117033000D02*
X124682000Y-117033000D01*
X126482000Y-117783000D02*
X126482000Y-117033000D01*
X118882000Y-117033000D02*
X118882000Y-117783000D01*
X118872000Y-111823000D02*
X118872000Y-117793000D01*
X124682000Y-117033000D02*
X124682000Y-117783000D01*
X123182000Y-117783000D02*
X123182000Y-117033000D01*
X125732000Y-115533000D02*
X125732000Y-112583000D01*
X124682000Y-117783000D02*
X126482000Y-117783000D01*
X126492000Y-117793000D02*
X126492000Y-111823000D01*
X123182000Y-117033000D02*
X122182000Y-117033000D01*
X126482000Y-115533000D02*
X125732000Y-115533000D01*
X125732000Y-112583000D02*
X122682000Y-112583000D01*
X119632000Y-115533000D02*
X119632000Y-112583000D01*
X122182000Y-117783000D02*
X123182000Y-117783000D01*
X126492000Y-111823000D02*
X118872000Y-111823000D01*
X118882000Y-115533000D02*
X119632000Y-115533000D01*
X118872000Y-117793000D02*
X126492000Y-117793000D01*
X120682000Y-117033000D02*
X118882000Y-117033000D01*
X120682000Y-117783000D02*
X120682000Y-117033000D01*
X118882000Y-117783000D02*
X120682000Y-117783000D01*
X125532000Y-118083000D02*
X126782000Y-118083000D01*
X122182000Y-117033000D02*
X122182000Y-117783000D01*
X119632000Y-112583000D02*
X122682000Y-112583000D01*
X126782000Y-118083000D02*
X126782000Y-116833000D01*
%TO.C,D4*%
X118586000Y-88384000D02*
X118586000Y-89044000D01*
X117176000Y-89044000D02*
X118586000Y-89044000D01*
X118586000Y-86724000D02*
X116556000Y-86724000D01*
X118586000Y-86724000D02*
X118586000Y-87384000D01*
%TO.C,R19*%
X122921500Y-87105258D02*
X122921500Y-86630742D01*
X123966500Y-87105258D02*
X123966500Y-86630742D01*
%TO.C,R17*%
X142352064Y-91660000D02*
X141897936Y-91660000D01*
X142352064Y-90190000D02*
X141897936Y-90190000D01*
%TO.C,J2*%
X150078764Y-117510836D02*
X150078764Y-115710836D01*
X144118764Y-117520836D02*
X150088764Y-117520836D01*
X149328764Y-97410836D02*
X149328764Y-99210836D01*
X147828764Y-117510836D02*
X147828764Y-116760836D01*
X147828764Y-98160836D02*
X144878764Y-98160836D01*
X150088764Y-97400836D02*
X144118764Y-97400836D01*
X147828764Y-97410836D02*
X147828764Y-98160836D01*
X144118764Y-97400836D02*
X144118764Y-117520836D01*
X149328764Y-99210836D02*
X150078764Y-99210836D01*
X150378764Y-97110836D02*
X149128764Y-97110836D01*
X150378764Y-98360836D02*
X150378764Y-97110836D01*
X144878764Y-98160836D02*
X144878764Y-107460836D01*
X150078764Y-100710836D02*
X149328764Y-100710836D01*
X150078764Y-99210836D02*
X150078764Y-97410836D01*
X149328764Y-117510836D02*
X150078764Y-117510836D01*
X150078764Y-115710836D02*
X149328764Y-115710836D01*
X150078764Y-97410836D02*
X149328764Y-97410836D01*
X144878764Y-116760836D02*
X144878764Y-107460836D01*
X150088764Y-117520836D02*
X150088764Y-97400836D01*
X150078764Y-114210836D02*
X150078764Y-100710836D01*
X149328764Y-115710836D02*
X149328764Y-117510836D01*
X147828764Y-116760836D02*
X144878764Y-116760836D01*
X149328764Y-100710836D02*
X149328764Y-114210836D01*
X149328764Y-114210836D02*
X150078764Y-114210836D01*
%TO.C,J7*%
X131450000Y-82525000D02*
X128400000Y-82525000D01*
X132210000Y-77315000D02*
X124590000Y-77315000D01*
X128900000Y-78075000D02*
X128900000Y-77325000D01*
X132200000Y-77325000D02*
X130400000Y-77325000D01*
X124590000Y-83285000D02*
X132210000Y-83285000D01*
X132210000Y-83285000D02*
X132210000Y-77315000D01*
X124600000Y-79575000D02*
X125350000Y-79575000D01*
X128900000Y-77325000D02*
X127900000Y-77325000D01*
X132200000Y-78075000D02*
X132200000Y-77325000D01*
X126400000Y-78075000D02*
X126400000Y-77325000D01*
X127900000Y-78075000D02*
X128900000Y-78075000D01*
X130400000Y-78075000D02*
X132200000Y-78075000D01*
X124300000Y-77025000D02*
X124300000Y-78275000D01*
X125350000Y-79575000D02*
X125350000Y-82525000D01*
X124600000Y-78075000D02*
X126400000Y-78075000D01*
X131450000Y-79575000D02*
X131450000Y-82525000D01*
X126400000Y-77325000D02*
X124600000Y-77325000D01*
X124600000Y-77325000D02*
X124600000Y-78075000D01*
X125550000Y-77025000D02*
X124300000Y-77025000D01*
X124590000Y-77315000D02*
X124590000Y-83285000D01*
X130400000Y-77325000D02*
X130400000Y-78075000D01*
X127900000Y-77325000D02*
X127900000Y-78075000D01*
X125350000Y-82525000D02*
X128400000Y-82525000D01*
X132200000Y-79575000D02*
X131450000Y-79575000D01*
%TO.C,R8*%
X138427064Y-98065000D02*
X137972936Y-98065000D01*
X138427064Y-99535000D02*
X137972936Y-99535000D01*
%TO.C,R10*%
X135227064Y-112515000D02*
X134772936Y-112515000D01*
X135227064Y-113985000D02*
X134772936Y-113985000D01*
%TO.C,C25*%
X116980580Y-92962000D02*
X116699420Y-92962000D01*
X116980580Y-93982000D02*
X116699420Y-93982000D01*
%TO.C,R22*%
X121649258Y-98791500D02*
X121174742Y-98791500D01*
X121649258Y-99836500D02*
X121174742Y-99836500D01*
%TO.C,C2*%
X141609420Y-112490000D02*
X141890580Y-112490000D01*
X141609420Y-113510000D02*
X141890580Y-113510000D01*
%TO.C,R12*%
X134322500Y-110272936D02*
X134322500Y-110727064D01*
X132852500Y-110272936D02*
X132852500Y-110727064D01*
%TO.C,C15*%
X121552580Y-100328000D02*
X121271420Y-100328000D01*
X121552580Y-101348000D02*
X121271420Y-101348000D01*
%TO.C,C14*%
X117488580Y-98554000D02*
X117207420Y-98554000D01*
X117488580Y-97534000D02*
X117207420Y-97534000D01*
%TO.C,J10*%
X110500000Y-117783000D02*
X112300000Y-117783000D01*
X117350000Y-115533000D02*
X117350000Y-112583000D01*
X114800000Y-117033000D02*
X113800000Y-117033000D01*
X118100000Y-115533000D02*
X117350000Y-115533000D01*
X118400000Y-118083000D02*
X118400000Y-116833000D01*
X116300000Y-117033000D02*
X116300000Y-117783000D01*
X114800000Y-117783000D02*
X114800000Y-117033000D01*
X117150000Y-118083000D02*
X118400000Y-118083000D01*
X111250000Y-112583000D02*
X114300000Y-112583000D01*
X112300000Y-117783000D02*
X112300000Y-117033000D01*
X113800000Y-117033000D02*
X113800000Y-117783000D01*
X110500000Y-115533000D02*
X111250000Y-115533000D01*
X118100000Y-117783000D02*
X118100000Y-117033000D01*
X110490000Y-111823000D02*
X110490000Y-117793000D01*
X110500000Y-117033000D02*
X110500000Y-117783000D01*
X110490000Y-117793000D02*
X118110000Y-117793000D01*
X111250000Y-115533000D02*
X111250000Y-112583000D01*
X118110000Y-111823000D02*
X110490000Y-111823000D01*
X118100000Y-117033000D02*
X116300000Y-117033000D01*
X116300000Y-117783000D02*
X118100000Y-117783000D01*
X112300000Y-117033000D02*
X110500000Y-117033000D01*
X117350000Y-112583000D02*
X114300000Y-112583000D01*
X118110000Y-117793000D02*
X118110000Y-111823000D01*
X113800000Y-117783000D02*
X114800000Y-117783000D01*
%TO.C,D3*%
X111853000Y-90622000D02*
X114538000Y-90622000D01*
X111853000Y-88702000D02*
X111853000Y-90622000D01*
X114538000Y-88702000D02*
X111853000Y-88702000D01*
%TO.C,C17*%
X129990000Y-98438580D02*
X129990000Y-98157420D01*
X131010000Y-98438580D02*
X131010000Y-98157420D01*
%TO.C,C11*%
X117755580Y-95760000D02*
X117474420Y-95760000D01*
X117755580Y-94740000D02*
X117474420Y-94740000D01*
%TO.C,C16*%
X128490000Y-98438580D02*
X128490000Y-98157420D01*
X129510000Y-98438580D02*
X129510000Y-98157420D01*
%TD*%
M02*
