%TF.GenerationSoftware,KiCad,Pcbnew,6.0.1-79c1e3a40b~116~ubuntu21.10.1*%
%TF.CreationDate,2022-02-21T13:22:11-07:00*%
%TF.ProjectId,PowerBackup,506f7765-7242-4616-936b-75702e6b6963,rev?*%
%TF.SameCoordinates,Original*%
%TF.FileFunction,Legend,Bot*%
%TF.FilePolarity,Positive*%
%FSLAX46Y46*%
G04 Gerber Fmt 4.6, Leading zero omitted, Abs format (unit mm)*
G04 Created by KiCad (PCBNEW 6.0.1-79c1e3a40b~116~ubuntu21.10.1) date 2022-02-21 13:22:11*
%MOMM*%
%LPD*%
G01*
G04 APERTURE LIST*
%ADD10C,0.150000*%
%ADD11C,0.120000*%
G04 APERTURE END LIST*
D10*
%TO.C,C22*%
X119747142Y-105275142D02*
X119794761Y-105227523D01*
X119842380Y-105084666D01*
X119842380Y-104989428D01*
X119794761Y-104846571D01*
X119699523Y-104751333D01*
X119604285Y-104703714D01*
X119413809Y-104656095D01*
X119270952Y-104656095D01*
X119080476Y-104703714D01*
X118985238Y-104751333D01*
X118890000Y-104846571D01*
X118842380Y-104989428D01*
X118842380Y-105084666D01*
X118890000Y-105227523D01*
X118937619Y-105275142D01*
X118937619Y-105656095D02*
X118890000Y-105703714D01*
X118842380Y-105798952D01*
X118842380Y-106037047D01*
X118890000Y-106132285D01*
X118937619Y-106179904D01*
X119032857Y-106227523D01*
X119128095Y-106227523D01*
X119270952Y-106179904D01*
X119842380Y-105608476D01*
X119842380Y-106227523D01*
X118937619Y-106608476D02*
X118890000Y-106656095D01*
X118842380Y-106751333D01*
X118842380Y-106989428D01*
X118890000Y-107084666D01*
X118937619Y-107132285D01*
X119032857Y-107179904D01*
X119128095Y-107179904D01*
X119270952Y-107132285D01*
X119842380Y-106560857D01*
X119842380Y-107179904D01*
%TO.C,J1*%
X139037333Y-75912380D02*
X139037333Y-76626666D01*
X139084952Y-76769523D01*
X139180190Y-76864761D01*
X139323047Y-76912380D01*
X139418285Y-76912380D01*
X138037333Y-76912380D02*
X138608761Y-76912380D01*
X138323047Y-76912380D02*
X138323047Y-75912380D01*
X138418285Y-76055238D01*
X138513523Y-76150476D01*
X138608761Y-76198095D01*
%TO.C,C20*%
X117990857Y-117451142D02*
X118038476Y-117498761D01*
X118181333Y-117546380D01*
X118276571Y-117546380D01*
X118419428Y-117498761D01*
X118514666Y-117403523D01*
X118562285Y-117308285D01*
X118609904Y-117117809D01*
X118609904Y-116974952D01*
X118562285Y-116784476D01*
X118514666Y-116689238D01*
X118419428Y-116594000D01*
X118276571Y-116546380D01*
X118181333Y-116546380D01*
X118038476Y-116594000D01*
X117990857Y-116641619D01*
X117609904Y-116641619D02*
X117562285Y-116594000D01*
X117467047Y-116546380D01*
X117228952Y-116546380D01*
X117133714Y-116594000D01*
X117086095Y-116641619D01*
X117038476Y-116736857D01*
X117038476Y-116832095D01*
X117086095Y-116974952D01*
X117657523Y-117546380D01*
X117038476Y-117546380D01*
X116419428Y-116546380D02*
X116324190Y-116546380D01*
X116228952Y-116594000D01*
X116181333Y-116641619D01*
X116133714Y-116736857D01*
X116086095Y-116927333D01*
X116086095Y-117165428D01*
X116133714Y-117355904D01*
X116181333Y-117451142D01*
X116228952Y-117498761D01*
X116324190Y-117546380D01*
X116419428Y-117546380D01*
X116514666Y-117498761D01*
X116562285Y-117451142D01*
X116609904Y-117355904D01*
X116657523Y-117165428D01*
X116657523Y-116927333D01*
X116609904Y-116736857D01*
X116562285Y-116641619D01*
X116514666Y-116594000D01*
X116419428Y-116546380D01*
%TO.C,R1*%
X144416666Y-98802380D02*
X144750000Y-98326190D01*
X144988095Y-98802380D02*
X144988095Y-97802380D01*
X144607142Y-97802380D01*
X144511904Y-97850000D01*
X144464285Y-97897619D01*
X144416666Y-97992857D01*
X144416666Y-98135714D01*
X144464285Y-98230952D01*
X144511904Y-98278571D01*
X144607142Y-98326190D01*
X144988095Y-98326190D01*
X143464285Y-98802380D02*
X144035714Y-98802380D01*
X143750000Y-98802380D02*
X143750000Y-97802380D01*
X143845238Y-97945238D01*
X143940476Y-98040476D01*
X144035714Y-98088095D01*
%TO.C,R7*%
X147232666Y-111704380D02*
X147566000Y-111228190D01*
X147804095Y-111704380D02*
X147804095Y-110704380D01*
X147423142Y-110704380D01*
X147327904Y-110752000D01*
X147280285Y-110799619D01*
X147232666Y-110894857D01*
X147232666Y-111037714D01*
X147280285Y-111132952D01*
X147327904Y-111180571D01*
X147423142Y-111228190D01*
X147804095Y-111228190D01*
X146899333Y-110704380D02*
X146232666Y-110704380D01*
X146661238Y-111704380D01*
%TO.C,C23*%
X113672857Y-110085142D02*
X113720476Y-110132761D01*
X113863333Y-110180380D01*
X113958571Y-110180380D01*
X114101428Y-110132761D01*
X114196666Y-110037523D01*
X114244285Y-109942285D01*
X114291904Y-109751809D01*
X114291904Y-109608952D01*
X114244285Y-109418476D01*
X114196666Y-109323238D01*
X114101428Y-109228000D01*
X113958571Y-109180380D01*
X113863333Y-109180380D01*
X113720476Y-109228000D01*
X113672857Y-109275619D01*
X113291904Y-109275619D02*
X113244285Y-109228000D01*
X113149047Y-109180380D01*
X112910952Y-109180380D01*
X112815714Y-109228000D01*
X112768095Y-109275619D01*
X112720476Y-109370857D01*
X112720476Y-109466095D01*
X112768095Y-109608952D01*
X113339523Y-110180380D01*
X112720476Y-110180380D01*
X112387142Y-109180380D02*
X111768095Y-109180380D01*
X112101428Y-109561333D01*
X111958571Y-109561333D01*
X111863333Y-109608952D01*
X111815714Y-109656571D01*
X111768095Y-109751809D01*
X111768095Y-109989904D01*
X111815714Y-110085142D01*
X111863333Y-110132761D01*
X111958571Y-110180380D01*
X112244285Y-110180380D01*
X112339523Y-110132761D01*
X112387142Y-110085142D01*
%TO.C,C21*%
X124086857Y-117451142D02*
X124134476Y-117498761D01*
X124277333Y-117546380D01*
X124372571Y-117546380D01*
X124515428Y-117498761D01*
X124610666Y-117403523D01*
X124658285Y-117308285D01*
X124705904Y-117117809D01*
X124705904Y-116974952D01*
X124658285Y-116784476D01*
X124610666Y-116689238D01*
X124515428Y-116594000D01*
X124372571Y-116546380D01*
X124277333Y-116546380D01*
X124134476Y-116594000D01*
X124086857Y-116641619D01*
X123705904Y-116641619D02*
X123658285Y-116594000D01*
X123563047Y-116546380D01*
X123324952Y-116546380D01*
X123229714Y-116594000D01*
X123182095Y-116641619D01*
X123134476Y-116736857D01*
X123134476Y-116832095D01*
X123182095Y-116974952D01*
X123753523Y-117546380D01*
X123134476Y-117546380D01*
X122182095Y-117546380D02*
X122753523Y-117546380D01*
X122467809Y-117546380D02*
X122467809Y-116546380D01*
X122563047Y-116689238D01*
X122658285Y-116784476D01*
X122753523Y-116832095D01*
%TO.C,C24*%
X123070857Y-110075142D02*
X123118476Y-110122761D01*
X123261333Y-110170380D01*
X123356571Y-110170380D01*
X123499428Y-110122761D01*
X123594666Y-110027523D01*
X123642285Y-109932285D01*
X123689904Y-109741809D01*
X123689904Y-109598952D01*
X123642285Y-109408476D01*
X123594666Y-109313238D01*
X123499428Y-109218000D01*
X123356571Y-109170380D01*
X123261333Y-109170380D01*
X123118476Y-109218000D01*
X123070857Y-109265619D01*
X122689904Y-109265619D02*
X122642285Y-109218000D01*
X122547047Y-109170380D01*
X122308952Y-109170380D01*
X122213714Y-109218000D01*
X122166095Y-109265619D01*
X122118476Y-109360857D01*
X122118476Y-109456095D01*
X122166095Y-109598952D01*
X122737523Y-110170380D01*
X122118476Y-110170380D01*
X121261333Y-109503714D02*
X121261333Y-110170380D01*
X121499428Y-109122761D02*
X121737523Y-109837047D01*
X121118476Y-109837047D01*
%TO.C,R4*%
X147232666Y-114244380D02*
X147566000Y-113768190D01*
X147804095Y-114244380D02*
X147804095Y-113244380D01*
X147423142Y-113244380D01*
X147327904Y-113292000D01*
X147280285Y-113339619D01*
X147232666Y-113434857D01*
X147232666Y-113577714D01*
X147280285Y-113672952D01*
X147327904Y-113720571D01*
X147423142Y-113768190D01*
X147804095Y-113768190D01*
X146375523Y-113577714D02*
X146375523Y-114244380D01*
X146613619Y-113196761D02*
X146851714Y-113911047D01*
X146232666Y-113911047D01*
%TO.C,C19*%
X111863142Y-103243142D02*
X111910761Y-103195523D01*
X111958380Y-103052666D01*
X111958380Y-102957428D01*
X111910761Y-102814571D01*
X111815523Y-102719333D01*
X111720285Y-102671714D01*
X111529809Y-102624095D01*
X111386952Y-102624095D01*
X111196476Y-102671714D01*
X111101238Y-102719333D01*
X111006000Y-102814571D01*
X110958380Y-102957428D01*
X110958380Y-103052666D01*
X111006000Y-103195523D01*
X111053619Y-103243142D01*
X111958380Y-104195523D02*
X111958380Y-103624095D01*
X111958380Y-103909809D02*
X110958380Y-103909809D01*
X111101238Y-103814571D01*
X111196476Y-103719333D01*
X111244095Y-103624095D01*
X111958380Y-104671714D02*
X111958380Y-104862190D01*
X111910761Y-104957428D01*
X111863142Y-105005047D01*
X111720285Y-105100285D01*
X111529809Y-105147904D01*
X111148857Y-105147904D01*
X111053619Y-105100285D01*
X111006000Y-105052666D01*
X110958380Y-104957428D01*
X110958380Y-104766952D01*
X111006000Y-104671714D01*
X111053619Y-104624095D01*
X111148857Y-104576476D01*
X111386952Y-104576476D01*
X111482190Y-104624095D01*
X111529809Y-104671714D01*
X111577428Y-104766952D01*
X111577428Y-104957428D01*
X111529809Y-105052666D01*
X111482190Y-105100285D01*
X111386952Y-105147904D01*
%TO.C,C13*%
X125165142Y-88765142D02*
X125212761Y-88717523D01*
X125260380Y-88574666D01*
X125260380Y-88479428D01*
X125212761Y-88336571D01*
X125117523Y-88241333D01*
X125022285Y-88193714D01*
X124831809Y-88146095D01*
X124688952Y-88146095D01*
X124498476Y-88193714D01*
X124403238Y-88241333D01*
X124308000Y-88336571D01*
X124260380Y-88479428D01*
X124260380Y-88574666D01*
X124308000Y-88717523D01*
X124355619Y-88765142D01*
X125260380Y-89717523D02*
X125260380Y-89146095D01*
X125260380Y-89431809D02*
X124260380Y-89431809D01*
X124403238Y-89336571D01*
X124498476Y-89241333D01*
X124546095Y-89146095D01*
X124260380Y-90050857D02*
X124260380Y-90669904D01*
X124641333Y-90336571D01*
X124641333Y-90479428D01*
X124688952Y-90574666D01*
X124736571Y-90622285D01*
X124831809Y-90669904D01*
X125069904Y-90669904D01*
X125165142Y-90622285D01*
X125212761Y-90574666D01*
X125260380Y-90479428D01*
X125260380Y-90193714D01*
X125212761Y-90098476D01*
X125165142Y-90050857D01*
%TO.C,R5*%
X147232666Y-106624380D02*
X147566000Y-106148190D01*
X147804095Y-106624380D02*
X147804095Y-105624380D01*
X147423142Y-105624380D01*
X147327904Y-105672000D01*
X147280285Y-105719619D01*
X147232666Y-105814857D01*
X147232666Y-105957714D01*
X147280285Y-106052952D01*
X147327904Y-106100571D01*
X147423142Y-106148190D01*
X147804095Y-106148190D01*
X146327904Y-105624380D02*
X146804095Y-105624380D01*
X146851714Y-106100571D01*
X146804095Y-106052952D01*
X146708857Y-106005333D01*
X146470761Y-106005333D01*
X146375523Y-106052952D01*
X146327904Y-106100571D01*
X146280285Y-106195809D01*
X146280285Y-106433904D01*
X146327904Y-106529142D01*
X146375523Y-106576761D01*
X146470761Y-106624380D01*
X146708857Y-106624380D01*
X146804095Y-106576761D01*
X146851714Y-106529142D01*
%TO.C,U1*%
X138937904Y-108164380D02*
X138937904Y-108973904D01*
X138890285Y-109069142D01*
X138842666Y-109116761D01*
X138747428Y-109164380D01*
X138556952Y-109164380D01*
X138461714Y-109116761D01*
X138414095Y-109069142D01*
X138366476Y-108973904D01*
X138366476Y-108164380D01*
X137366476Y-109164380D02*
X137937904Y-109164380D01*
X137652190Y-109164380D02*
X137652190Y-108164380D01*
X137747428Y-108307238D01*
X137842666Y-108402476D01*
X137937904Y-108450095D01*
%TO.C,R6*%
X147232666Y-101798380D02*
X147566000Y-101322190D01*
X147804095Y-101798380D02*
X147804095Y-100798380D01*
X147423142Y-100798380D01*
X147327904Y-100846000D01*
X147280285Y-100893619D01*
X147232666Y-100988857D01*
X147232666Y-101131714D01*
X147280285Y-101226952D01*
X147327904Y-101274571D01*
X147423142Y-101322190D01*
X147804095Y-101322190D01*
X146375523Y-100798380D02*
X146566000Y-100798380D01*
X146661238Y-100846000D01*
X146708857Y-100893619D01*
X146804095Y-101036476D01*
X146851714Y-101226952D01*
X146851714Y-101607904D01*
X146804095Y-101703142D01*
X146756476Y-101750761D01*
X146661238Y-101798380D01*
X146470761Y-101798380D01*
X146375523Y-101750761D01*
X146327904Y-101703142D01*
X146280285Y-101607904D01*
X146280285Y-101369809D01*
X146327904Y-101274571D01*
X146375523Y-101226952D01*
X146470761Y-101179333D01*
X146661238Y-101179333D01*
X146756476Y-101226952D01*
X146804095Y-101274571D01*
X146851714Y-101369809D01*
%TO.C,J5*%
X140702380Y-91741666D02*
X141416666Y-91741666D01*
X141559523Y-91694047D01*
X141654761Y-91598809D01*
X141702380Y-91455952D01*
X141702380Y-91360714D01*
X140702380Y-92694047D02*
X140702380Y-92217857D01*
X141178571Y-92170238D01*
X141130952Y-92217857D01*
X141083333Y-92313095D01*
X141083333Y-92551190D01*
X141130952Y-92646428D01*
X141178571Y-92694047D01*
X141273809Y-92741666D01*
X141511904Y-92741666D01*
X141607142Y-92694047D01*
X141654761Y-92646428D01*
X141702380Y-92551190D01*
X141702380Y-92313095D01*
X141654761Y-92217857D01*
X141607142Y-92170238D01*
%TO.C,R2*%
X147232666Y-104084380D02*
X147566000Y-103608190D01*
X147804095Y-104084380D02*
X147804095Y-103084380D01*
X147423142Y-103084380D01*
X147327904Y-103132000D01*
X147280285Y-103179619D01*
X147232666Y-103274857D01*
X147232666Y-103417714D01*
X147280285Y-103512952D01*
X147327904Y-103560571D01*
X147423142Y-103608190D01*
X147804095Y-103608190D01*
X146851714Y-103179619D02*
X146804095Y-103132000D01*
X146708857Y-103084380D01*
X146470761Y-103084380D01*
X146375523Y-103132000D01*
X146327904Y-103179619D01*
X146280285Y-103274857D01*
X146280285Y-103370095D01*
X146327904Y-103512952D01*
X146899333Y-104084380D01*
X146280285Y-104084380D01*
%TO.C,R14*%
X130436857Y-104402380D02*
X130770190Y-103926190D01*
X131008285Y-104402380D02*
X131008285Y-103402380D01*
X130627333Y-103402380D01*
X130532095Y-103450000D01*
X130484476Y-103497619D01*
X130436857Y-103592857D01*
X130436857Y-103735714D01*
X130484476Y-103830952D01*
X130532095Y-103878571D01*
X130627333Y-103926190D01*
X131008285Y-103926190D01*
X129484476Y-104402380D02*
X130055904Y-104402380D01*
X129770190Y-104402380D02*
X129770190Y-103402380D01*
X129865428Y-103545238D01*
X129960666Y-103640476D01*
X130055904Y-103688095D01*
X128627333Y-103735714D02*
X128627333Y-104402380D01*
X128865428Y-103354761D02*
X129103523Y-104069047D01*
X128484476Y-104069047D01*
%TO.C,J3*%
X141802380Y-91741666D02*
X142516666Y-91741666D01*
X142659523Y-91694047D01*
X142754761Y-91598809D01*
X142802380Y-91455952D01*
X142802380Y-91360714D01*
X141802380Y-92122619D02*
X141802380Y-92741666D01*
X142183333Y-92408333D01*
X142183333Y-92551190D01*
X142230952Y-92646428D01*
X142278571Y-92694047D01*
X142373809Y-92741666D01*
X142611904Y-92741666D01*
X142707142Y-92694047D01*
X142754761Y-92646428D01*
X142802380Y-92551190D01*
X142802380Y-92265476D01*
X142754761Y-92170238D01*
X142707142Y-92122619D01*
%TO.C,R3*%
X147232666Y-109164380D02*
X147566000Y-108688190D01*
X147804095Y-109164380D02*
X147804095Y-108164380D01*
X147423142Y-108164380D01*
X147327904Y-108212000D01*
X147280285Y-108259619D01*
X147232666Y-108354857D01*
X147232666Y-108497714D01*
X147280285Y-108592952D01*
X147327904Y-108640571D01*
X147423142Y-108688190D01*
X147804095Y-108688190D01*
X146899333Y-108164380D02*
X146280285Y-108164380D01*
X146613619Y-108545333D01*
X146470761Y-108545333D01*
X146375523Y-108592952D01*
X146327904Y-108640571D01*
X146280285Y-108735809D01*
X146280285Y-108973904D01*
X146327904Y-109069142D01*
X146375523Y-109116761D01*
X146470761Y-109164380D01*
X146756476Y-109164380D01*
X146851714Y-109116761D01*
X146899333Y-109069142D01*
%TO.C,L1*%
X133547380Y-95541333D02*
X133547380Y-95065142D01*
X132547380Y-95065142D01*
X133547380Y-96398476D02*
X133547380Y-95827047D01*
X133547380Y-96112761D02*
X132547380Y-96112761D01*
X132690238Y-96017523D01*
X132785476Y-95922285D01*
X132833095Y-95827047D01*
D11*
%TO.C,C22*%
X118550000Y-109678000D02*
X115130000Y-109678000D01*
X115130000Y-109678000D02*
X115130000Y-102918000D01*
X118550000Y-102918000D02*
X118550000Y-109678000D01*
%TO.C,J1*%
X139204000Y-78310000D02*
X138204000Y-78310000D01*
X139204000Y-77560000D02*
X139204000Y-78310000D01*
X135654000Y-79810000D02*
X135654000Y-82760000D01*
X142804000Y-77260000D02*
X142804000Y-78510000D01*
X136704000Y-77560000D02*
X136704000Y-78310000D01*
X141754000Y-82760000D02*
X138704000Y-82760000D01*
X134904000Y-77560000D02*
X136704000Y-77560000D01*
X142504000Y-77560000D02*
X142504000Y-78310000D01*
X141554000Y-77260000D02*
X142804000Y-77260000D01*
X138204000Y-77560000D02*
X139204000Y-77560000D01*
X135654000Y-82760000D02*
X138704000Y-82760000D01*
X142504000Y-79810000D02*
X141754000Y-79810000D01*
X142514000Y-77550000D02*
X142514000Y-83520000D01*
X138204000Y-78310000D02*
X138204000Y-77560000D01*
X142514000Y-83520000D02*
X134894000Y-83520000D01*
X134894000Y-77550000D02*
X142514000Y-77550000D01*
X134904000Y-78310000D02*
X134904000Y-77560000D01*
X141754000Y-79810000D02*
X141754000Y-82760000D01*
X136704000Y-78310000D02*
X134904000Y-78310000D01*
X140704000Y-78310000D02*
X140704000Y-77560000D01*
X140704000Y-77560000D02*
X142504000Y-77560000D01*
X142504000Y-78310000D02*
X140704000Y-78310000D01*
X134904000Y-79810000D02*
X135654000Y-79810000D01*
X134894000Y-83520000D02*
X134894000Y-77550000D01*
%TO.C,C20*%
X114440580Y-117604000D02*
X114159420Y-117604000D01*
X114440580Y-116584000D02*
X114159420Y-116584000D01*
%TO.C,R1*%
X144477064Y-99265000D02*
X144022936Y-99265000D01*
X144477064Y-100735000D02*
X144022936Y-100735000D01*
%TO.C,R7*%
X144580564Y-113181000D02*
X144126436Y-113181000D01*
X144580564Y-111711000D02*
X144126436Y-111711000D01*
%TO.C,C23*%
X118314000Y-113978000D02*
X111554000Y-113978000D01*
X118314000Y-110558000D02*
X118314000Y-113978000D01*
X111554000Y-110558000D02*
X118314000Y-110558000D01*
%TO.C,C21*%
X125474000Y-115937420D02*
X125474000Y-116218580D01*
X126494000Y-115937420D02*
X126494000Y-116218580D01*
%TO.C,C24*%
X126188000Y-110558000D02*
X126188000Y-113978000D01*
X126188000Y-113978000D02*
X119428000Y-113978000D01*
X119428000Y-110558000D02*
X126188000Y-110558000D01*
%TO.C,R4*%
X144580564Y-115721000D02*
X144126436Y-115721000D01*
X144580564Y-114251000D02*
X144126436Y-114251000D01*
%TO.C,C19*%
X112016000Y-107074580D02*
X112016000Y-106793420D01*
X110996000Y-107074580D02*
X110996000Y-106793420D01*
%TO.C,C13*%
X125728000Y-89267420D02*
X125728000Y-89548580D01*
X126748000Y-89267420D02*
X126748000Y-89548580D01*
%TO.C,R5*%
X144580564Y-106377000D02*
X144126436Y-106377000D01*
X144580564Y-107847000D02*
X144126436Y-107847000D01*
%TO.C,U1*%
X138135000Y-107360000D02*
X138610000Y-107360000D01*
X138135000Y-103140000D02*
X138610000Y-103140000D01*
X134390000Y-107360000D02*
X134390000Y-106885000D01*
X138610000Y-107360000D02*
X138610000Y-106885000D01*
X134390000Y-103140000D02*
X134390000Y-103615000D01*
X134865000Y-107360000D02*
X134390000Y-107360000D01*
X134865000Y-103140000D02*
X134390000Y-103140000D01*
%TO.C,R6*%
X144580564Y-103021000D02*
X144126436Y-103021000D01*
X144580564Y-101551000D02*
X144126436Y-101551000D01*
%TO.C,J5*%
X145660000Y-88965000D02*
X145660000Y-90015000D01*
X145660000Y-90015000D02*
X146650000Y-90015000D01*
X142540000Y-90135000D02*
X142540000Y-94015000D01*
X144510000Y-88965000D02*
X145660000Y-88965000D01*
X144510000Y-95185000D02*
X145660000Y-95185000D01*
X145660000Y-95185000D02*
X145660000Y-94135000D01*
%TO.C,R2*%
X144580564Y-105561000D02*
X144126436Y-105561000D01*
X144580564Y-104091000D02*
X144126436Y-104091000D01*
%TO.C,R14*%
X131227064Y-104865000D02*
X130772936Y-104865000D01*
X131227064Y-106335000D02*
X130772936Y-106335000D01*
%TO.C,J3*%
X139090000Y-95185000D02*
X137940000Y-95185000D01*
X137940000Y-88965000D02*
X137940000Y-90015000D01*
X137940000Y-94135000D02*
X136950000Y-94135000D01*
X137940000Y-95185000D02*
X137940000Y-94135000D01*
X139090000Y-88965000D02*
X137940000Y-88965000D01*
X141060000Y-94015000D02*
X141060000Y-90135000D01*
%TO.C,R3*%
X144580564Y-110641000D02*
X144126436Y-110641000D01*
X144580564Y-109171000D02*
X144126436Y-109171000D01*
%TO.C,L1*%
X131995000Y-99483000D02*
X131995000Y-92083000D01*
X124595000Y-92083000D02*
X124595000Y-99483000D01*
%TD*%
M02*
